<?xml version="1.0" encoding="UTF-8"?>
<svg width="85px" height="85px" viewBox="0 0 85 85" version="1.1" xmlns="http://www.w3.org/2000/svg" xmlns:xlink="http://www.w3.org/1999/xlink">
    <!-- Generator: Sketch 63.1 (92452) - https://sketch.com -->
    <title>icon/no spanking/clementine@3x</title>
    <desc>Created with Sketch.</desc>
    <g id="icon/no-spanking/clementine" stroke="none" stroke-width="1" fill="none" fill-rule="evenodd">
        <g id="Group" transform="translate(15.000000, 12.000000)" fill="#25204f" fill-rule="nonzero">
            <path d="M16.5,29 C17.3284271,29 18,29.6715729 18,30.5 C18,31.3284271 17.3284271,32 16.5,32 C15.6715729,32 15,31.3284271 15,30.5 C15,29.6715729 15.6715729,29 16.5,29 Z" id="Oval"></path>
            <path d="M38.5,29 C39.3284271,29 40,29.6715729 40,30.5 C40,31.3284271 39.3284271,32 38.5,32 C37.6715729,32 37,31.3284271 37,30.5 C37,29.6715729 37.6715729,29 38.5,29 Z" id="Oval-Copy"></path>
            <path d="M29.2883366,0 C40.8863163,0 50.2883366,9.40202025 50.2883366,21 C50.2883366,21.2332524 50.2844504,21.4664885 50.2766796,21.6996114 L49.6996114,39.011657 C49.3095128,50.7146163 39.7094592,60 28,60 C16.2905408,60 6.69048721,50.7146163 6.30038857,39.011657 L5.72332038,21.6996114 C5.33693565,10.1080696 14.4205102,0.39804168 26.012052,0.0116569534 C26.2451749,0.00388619045 26.4784111,0 26.7116634,0 L29.2883366,0 Z M29.2883366,2 L26.7116634,2 C26.5006256,2 26.2896024,2.00351608 26.0786817,2.01054677 C15.703866,2.35637396 7.54962771,10.9574413 7.71389732,21.2952714 L7.7222102,21.6329818 L8.29927838,38.9450273 C8.65344255,49.5699523 17.3691739,58 28,58 C38.5152736,58 47.1568588,49.7522182 47.6862174,39.2907063 L47.7041241,38.8429532 L48.2777898,21.6329818 C48.2848205,21.4220611 48.2883366,21.2110379 48.2883366,21 C48.2883366,10.6194221 39.9637007,2.18316713 29.6261364,2.0029425 L29.2883366,2 Z" id="Rectangle"></path>
            <path d="M26.1861708,27.6433271 C26.6941465,27.7137637 27.0597906,28.154198 27.0487002,28.6547573 L27.0393466,28.7711973 L25.740412,38.13888 C25.5887025,39.2329815 26.3526622,40.2429108 27.4467637,40.3946202 L27.5837842,40.4088302 L27.721458,40.4135743 L30.3930664,40.4135743 C30.9453511,40.4135743 31.3930664,40.8612896 31.3930664,41.4135743 C31.3930664,41.9264101 31.0070262,42.3490815 30.5096875,42.4068466 L30.3930664,42.4135743 L27.721458,42.4135743 C27.537675,42.4135743 27.3541106,42.4009083 27.1720694,42.3756662 C25.0501756,42.0814418 23.5491546,40.1732281 23.736795,38.0626064 L23.7593661,37.8641857 L25.0583007,28.4965029 C25.1287372,27.9885273 25.5691716,27.6228831 26.0697309,27.6339735 L26.1861708,27.6433271 Z" id="Path-48"></path>
            <path d="M27.6088312,45 C32.1652415,45 36.3535156,47.4175801 36.3535156,50.7382295 C36.3535156,51.2905142 35.9058003,51.7382295 35.3535156,51.7382295 C34.8406798,51.7382295 34.4180084,51.3521893 34.3602433,50.8548506 L34.3535156,50.7382295 C34.3535156,48.816422 31.2067023,47 27.6088312,47 C24.3413239,47 21.1590599,48.9389792 21.0057713,50.6131942 L21,50.7382295 C21,51.2905142 20.5522847,51.7382295 20,51.7382295 C19.4477153,51.7382295 19,51.2905142 19,50.7382295 C19,47.6841089 23.2948538,45 27.6088312,45 Z" id="Path-49"></path>
            <path d="M54.4331183,24.6520478 L54.4331183,26.6520478 C53.0121171,26.6520478 51.7956583,27.6484667 51.5034867,29.0228533 L51.4718313,29.1965755 L50.8645085,33.1852664 C50.5319749,35.3692345 52.0328592,37.4092622 54.2168272,37.7417957 C54.3496718,37.7620228 54.4834089,37.7755364 54.6175289,37.7822981 L54.8189325,37.7873717 L55,37.7873717 L55,39.7873717 L54.8189325,39.7873717 C54.5165874,39.7873717 54.2146748,39.7645186 53.9157746,39.7190077 C50.7142759,39.2315438 48.4913584,36.2979357 48.8575287,33.1072121 L48.8872965,32.8842138 L49.4946193,28.8955229 C49.8549375,26.5290749 51.8390027,24.7619104 54.2097642,24.6569825 L54.4331183,24.6520478 Z" id="Path-50" transform="translate(51.909050, 32.219710) rotate(-180.000000) translate(-51.909050, -32.219710) "></path>
            <path d="M6.43311829,24.6520478 L6.43311829,26.6520478 C5.01211712,26.6520478 3.79565829,27.6484667 3.50348672,29.0228533 L3.47183133,29.1965755 L2.86450852,33.1852664 C2.53197495,35.3692345 4.03285916,37.4092622 6.21682723,37.7417957 C6.34967176,37.7620228 6.48340887,37.7755364 6.61752892,37.7822981 L6.81893252,37.7873717 L7,37.7873717 L7,39.7873717 L6.81893252,39.7873717 C6.51658742,39.7873717 6.21467477,39.7645186 5.91577459,39.7190077 C2.71427593,39.2315438 0.491358421,36.2979357 0.857528701,33.1072121 L0.887296512,32.8842138 L1.49461933,28.8955229 C1.8549375,26.5290749 3.83900271,24.7619104 6.20976425,24.6569825 L6.43311829,24.6520478 Z" id="Path-50-Copy" transform="translate(3.909050, 32.219710) scale(-1, 1) rotate(-180.000000) translate(-3.909050, -32.219710) "></path>
        </g>
    </g>
</svg>