<?xml version="1.0" encoding="UTF-8"?>
<svg width="85px" height="85px" viewBox="0 0 85 85" version="1.1" xmlns="http://www.w3.org/2000/svg" xmlns:xlink="http://www.w3.org/1999/xlink">
    <!-- Generator: Sketch 63.1 (92452) - https://sketch.com -->
    <title>icon/dance/clementine@3x</title>
    <desc>Created with Sketch.</desc>
    <g id="icon/dance/clementine" stroke="none" stroke-width="1" fill="none" fill-rule="evenodd">
        <g id="Group-3" transform="translate(2.000000, 8.000000)" fill="#25204f" fill-rule="nonzero">
            <path d="M43.5,-0.721415385 C44.0128358,-0.721415385 44.4355072,-0.335375194 44.4932723,0.16196349 L44.5,0.278584615 L44.5,11.0078125 C44.5,11.5600972 44.0522847,12.0078125 43.5,12.0078125 C42.9871642,12.0078125 42.5644928,11.6217723 42.5067277,11.1244336 L42.5,11.0078125 L42.5,0.278584615 C42.5,-0.273700134 42.9477153,-0.721415385 43.5,-0.721415385 Z" id="Path-77"></path>
            <polygon id="Path-78" points="60.4615385 23.3930462 60.4615385 25.3930462 25.3137085 25.3930462 25.3137085 23.3930462"></polygon>
            <path d="M43,17 C28.0883118,17 16,29.0883118 16,44 C16,58.9116882 28.0883118,71 43,71 C57.9116882,71 70,58.9116882 70,44 C70,29.0883118 57.9116882,17 43,17 Z M43,19 C56.8071187,19 68,30.1928813 68,44 C68,57.8071187 56.8071187,69 43,69 C29.1928813,69 18,57.8071187 18,44 C18,30.1928813 29.1928813,19 43,19 Z" id="Oval"></path>
            <path d="M47.1217945,10.0078125 C48.1761563,10.0078125 49.0399597,10.8236903 49.1163088,11.8585502 L49.1217945,12.0078125 L49.1217945,18 L47.1217945,18 L47.1217945,12.0078125 L39.51341,12.0078125 L39.51341,18 L37.51341,18 L37.51341,12.0078125 C37.51341,10.9534507 38.3292878,10.0896474 39.3641477,10.0132982 L39.51341,10.0078125 L47.1217945,10.0078125 Z" id="Path-76"></path>
            <path d="M74.183137,8.46246876 L70.894869,10.2312322 C69.711772,10.8676216 68.288228,10.8676216 67.105131,10.2312322 L63.816863,8.46246876 C62.9435917,7.99273501 61.992735,8.94359165 62.4624688,9.816863 L64.2312322,13.105131 C64.8676216,14.288228 64.8676216,15.711772 64.2312322,16.894869 L62.4624688,20.183137 C61.992735,21.0564083 62.9435917,22.007265 63.816863,21.5375312 L67.105131,19.7687678 C68.288228,19.1323784 69.711772,19.1323784 70.894869,19.7687678 L74.183137,21.5375312 C75.0564083,22.007265 76.007265,21.0564083 75.5375312,20.183137 L73.7687678,16.894869 C73.1323784,15.711772 73.1323784,14.288228 73.7687678,13.105131 L75.5375312,9.816863 C76.007265,8.94359165 75.0564083,7.99273501 74.183137,8.46246876 Z M72.199,11.8 L72.0074138,12.1576965 L71.8831601,12.4018614 C71.054802,14.1257165 71.0962199,16.1483237 72.0074138,17.8423035 L72.199,18.199 L71.8423035,18.0074138 L71.5981386,17.8831601 C69.8742835,17.054802 67.8516763,17.0962199 66.1576965,18.0074138 L65.8,18.199 L65.9925862,17.8423035 L66.1168399,17.5981386 C66.945198,15.8742835 66.9037801,13.8516763 65.9925862,12.1576965 L65.8,11.8 L66.1576965,11.9925862 C67.932342,12.9471703 70.067658,12.9471703 71.8423035,11.9925862 L72.199,11.8 Z" id="Star" transform="translate(69.000000, 15.000000) rotate(-315.000000) translate(-69.000000, -15.000000) "></path>
            <path d="M17.183137,15.4624688 L13.894869,17.2312322 C12.711772,17.8676216 11.288228,17.8676216 10.105131,17.2312322 L6.816863,15.4624688 C5.94359165,14.992735 4.99273501,15.9435917 5.46246876,16.816863 L7.23123221,20.105131 C7.86762158,21.288228 7.86762158,22.711772 7.23123221,23.894869 L5.46246876,27.183137 C4.99273501,28.0564083 5.94359165,29.007265 6.816863,28.5375312 L10.105131,26.7687678 C11.288228,26.1323784 12.711772,26.1323784 13.894869,26.7687678 L17.183137,28.5375312 C18.0564083,29.007265 19.007265,28.0564083 18.5375312,27.183137 L16.7687678,23.894869 C16.1323784,22.711772 16.1323784,21.288228 16.7687678,20.105131 L18.5375312,16.816863 C19.007265,15.9435917 18.0564083,14.992735 17.183137,15.4624688 Z M15.199,18.8 L15.0074138,19.1576965 L14.8831601,19.4018614 C14.054802,21.1257165 14.0962199,23.1483237 15.0074138,24.8423035 L15.199,25.199 L14.8423035,25.0074138 L14.5981386,24.8831601 C12.8742835,24.054802 10.8516763,24.0962199 9.15769649,25.0074138 L8.8,25.199 L8.99258619,24.8423035 L9.1168399,24.5981386 C9.94519797,22.8742835 9.90378007,20.8516763 8.99258619,19.1576965 L8.8,18.8 L9.15769649,18.9925862 C10.932342,19.9471703 13.067658,19.9471703 14.8423035,18.9925862 L15.199,18.8 Z" id="Star-Copy" transform="translate(12.000000, 22.000000) rotate(-315.000000) translate(-12.000000, -22.000000) "></path>
            <path d="M43.0000022,18 C38.8019307,18 36.0621106,29.4505952 36.0009792,44.0325021 L36.0000022,44.4979054 C36.0000022,59.2796775 38.7577229,71 43.0000022,71 C47.2422771,71 50.0000022,59.2796775 50.0000022,44.5 L49.9962671,43.5608546 C49.881978,29.2268911 47.1520158,18 43.0000022,18 Z M43,20 C45.3851399,20 48,31.1131553 48,44.5 L47.9960709,45.3989391 C47.8825942,58.3807004 45.3315413,69 43,69 C40.6416594,69 38.0587319,58.1351755 38.0009683,44.9503683 L38.0009683,44.0387889 L38.0086426,43.1431462 C38.1741253,30.3604985 40.7052675,20 43,20 Z" id="Oval"></path>
            <path d="M43.5,18 C34.2550768,18 27,29.9357714 27,44.5 C27,59.0642286 34.2550768,71 43.5,71 C52.7449232,71 60,59.0642286 60,44.5 C60,29.9357714 52.7449232,18 43.5,18 Z M43.5,20 C51.375904,20 58,30.8977063 58,44.5 C58,58.1022937 51.375904,69 43.5,69 C35.624096,69 29,58.1022937 29,44.5 C29,30.8977063 35.624096,20 43.5,20 Z" id="Oval-Copy"></path>
            <polygon id="Path-80" points="68.8112118 43 68.8112118 45 17.8239927 45 17.8239927 43"></polygon>
            <polygon id="Path-79" points="66.6818458 33.5 66.6818458 35.5 18.9092858 35.5 18.9092858 33.5"></polygon>
            <polygon id="Path-79-Copy" points="67.6818458 52 67.6818458 54 18.9092858 54 18.9092858 52"></polygon>
            <polygon id="Path-79-Copy-2" points="61.5 61.5 61.5 63.5 24.5 63.5 24.5 61.5"></polygon>
        </g>
    </g>
</svg>