<?xml version="1.0" encoding="UTF-8"?>
<svg width="85px" height="85px" viewBox="0 0 85 85" version="1.1" xmlns="http://www.w3.org/2000/svg" xmlns:xlink="http://www.w3.org/1999/xlink">
    <!-- Generator: Sketch 63.1 (92452) - https://sketch.com -->
    <title>icon/k-12/clementine@3x</title>
    <desc>Created with Sketch.</desc>
    <g id="icon/k-12/clementine" stroke="none" stroke-width="1" fill="none" fill-rule="evenodd">
        <g id="Group" transform="translate(11.888273, 19.535163)" fill="#25204f" fill-rule="nonzero">
            <path d="M10.6253992,27 C8.21634455,27 5.81701446,27.4716026 3.43304235,28.4112856 C0.758141563,29.4656471 -1,32.0484416 -1,34.9236388 L-1,43 C-1,43.5522847 -0.55228475,44 2.27373675e-13,44 L21.8091979,44 C22.3614826,44 22.8091979,43.5522847 22.8091979,43 L22.8091979,35.047845 C22.8091979,32.1458974 21.0186611,29.5448568 18.3078863,28.5089902 C15.6797854,27.5047157 13.1177448,27 10.6253992,27 Z M10.6253992,29 C12.8650956,29 15.1867429,29.4573588 17.5939758,30.3772331 L17.7988895,30.4607455 C19.6199664,31.2501181 20.8091979,33.0490526 20.8091979,35.0478431 L20.8091979,42 L1,42 L1,34.9236388 C1,32.8699265 2.25581573,31.0250728 4.16645911,30.2719575 C6.32073786,29.422812 8.47184048,29 10.6253992,29 Z" id="Path-60"></path>
            <path d="M27.5624713,23 C31.1436787,23 34.8416455,23.810946 38.6520528,25.4255839 C41.1564166,26.4867934 42.8115295,28.8979757 42.9157036,31.599709 L42.9209252,31.8708115 L42.9209252,43 C42.9209252,43.5128358 42.534885,43.9355072 42.0375464,43.9932723 L41.9209252,44 L13.9209252,44 L13.9209252,42 L40.92,42 L40.9209252,31.870811 C40.9209252,29.9404605 39.8107779,28.1900923 38.0821086,27.3619767 L37.8717308,27.2670772 C34.2992855,25.7532743 30.8643053,25 27.5624713,25 C24.8479971,25 22.1374738,25.5090375 19.4260429,26.5302232 L18.8837432,26.7412899 C18.8093109,26.7711961 18.3725023,26.9856305 17.7397437,27.3011916 L17.4976605,27.4600255 C17.3077482,27.5898233 17.1181561,27.7302889 16.9447171,27.8737258 C16.7198849,28.0596656 16.5435506,28.2338189 16.4396878,28.3729226 L16.3885793,28.441328 C16.4099202,28.329428 16.3916036,28.2003824 16.331496,28.0883419 L16.2785458,28.0081711 L14.720245,29.2618451 C14.1833689,28.5945149 14.3385473,27.8440938 14.83712,27.176354 C15.0512394,26.8895832 15.3330764,26.6112322 15.6701034,26.3325055 C16.0544904,26.0146113 16.4315733,25.7568896 16.7674391,25.5553503 L17.833827,25.0248653 C17.9788029,24.9550933 18.0784224,24.9094617 18.1380974,24.8854849 C21.2634323,23.6297533 24.4068557,23 27.5624713,23 Z" id="Path-60-Copy"></path>
            <path d="M45.1892638,19 C49.6518108,19 54.270536,20.1033372 59.0404794,22.3006136 C61.4393357,23.4056477 63.0047587,25.7622519 63.1064543,28.3861279 L63.1117273,28.6584764 L63.1117273,43 C63.1117273,43.5128358 62.7256871,43.9355072 62.2283485,43.9932723 L62.1117273,44 L29.1117273,44 L29.1117273,42 L61.111,42 L61.1117273,28.6584761 C61.1117273,26.7849595 60.0652688,25.0758166 58.4133098,24.2196713 L58.2036931,24.1171457 C53.6856686,22.0359159 49.3491788,21 45.1892638,21 C40.3001623,21 35.192007,22.2312044 32.1273457,24.554266 L32.0153147,24.6407517 C32.0403296,24.6203126 32.0582552,24.6040688 32.0717002,24.5878118 L32.087,24.563 L30.1167882,24.3643575 L30.1405032,24.1727076 L30.1583563,24.0601481 C30.1737777,23.970683 30.1910606,23.8894229 30.2133676,23.8110777 C30.2827035,23.567561 30.3526188,23.4122791 30.5827746,23.2247524 C34.0319425,20.4144341 39.7300978,19 45.1892638,19 Z" id="Path-60-Copy-2"></path>
            <path d="M11.1117273,13.4648373 C7.79801884,13.4648373 5.11172734,16.1511288 5.11172734,19.4648373 C5.11172734,22.7785458 7.79801884,25.4648373 11.1117273,25.4648373 C14.4254358,25.4648373 17.1117273,22.7785458 17.1117273,19.4648373 C17.1117273,16.1511288 14.4254358,13.4648373 11.1117273,13.4648373 Z M11.1117273,15.4648373 C13.3208663,15.4648373 15.1117273,17.2556983 15.1117273,19.4648373 C15.1117273,21.6739763 13.3208663,23.4648373 11.1117273,23.4648373 C8.90258834,23.4648373 7.11172734,21.6739763 7.11172734,19.4648373 C7.11172734,17.2556983 8.90258834,15.4648373 11.1117273,15.4648373 Z" id="Oval-Copy-2"></path>
            <path d="M28.4209252,6 C24.2787896,6 20.9209252,9.35786438 20.9209252,13.5 C20.9209252,17.6421356 24.2787896,21 28.4209252,21 C32.5630609,21 35.9209252,17.6421356 35.9209252,13.5 C35.9209252,9.35786438 32.5630609,6 28.4209252,6 Z M28.4209252,8 C31.4584914,8 33.9209252,10.4624339 33.9209252,13.5 C33.9209252,16.5375661 31.4584914,19 28.4209252,19 C25.3833591,19 22.9209252,16.5375661 22.9209252,13.5 C22.9209252,10.4624339 25.3833591,8 28.4209252,8 Z" id="Oval-Copy-3"></path>
            <path d="M46.1117273,-1 C41.1411646,-1 37.1117273,3.02943725 37.1117273,8 C37.1117273,12.9705627 41.1411646,17 46.1117273,17 C51.0822901,17 55.1117273,12.9705627 55.1117273,8 C55.1117273,3.02943725 51.0822901,-1 46.1117273,-1 Z M46.1117273,1 C49.9777206,1 53.1117273,4.13400675 53.1117273,8 C53.1117273,11.8659932 49.9777206,15 46.1117273,15 C42.2457341,15 39.1117273,11.8659932 39.1117273,8 C39.1117273,4.13400675 42.2457341,1 46.1117273,1 Z" id="Oval-Copy-4"></path>
        </g>
    </g>
</svg>