<?xml version="1.0" encoding="UTF-8"?>
<svg width="85px" height="85px" viewBox="0 0 85 85" version="1.1" xmlns="http://www.w3.org/2000/svg" xmlns:xlink="http://www.w3.org/1999/xlink">
    <!-- Generator: Sketch 63.1 (92452) - https://sketch.com -->
    <title>icon/vegan/clementine@3x</title>
    <desc>Created with Sketch.</desc>
    <g id="icon/vegan/clementine" stroke="none" stroke-width="1" fill="none" fill-rule="evenodd">
        <g id="Group" transform="translate(10.000000, 5.000000)" fill="#25204f">
            <path d="M64,48.5 L1,48.5 C0.44771525,48.5 0,48.9477153 0,49.5 L0.00483718488,49.7835182 C0.201208278,55.586135 6.35568776,63.6624585 14.6606617,68.7395147 L14.984,68.934 L14.9844057,73 C14.9844057,73.5522847 15.4321209,74 15.9844057,74 L50.4734025,74 L50.5900237,73.9932723 C51.0873624,73.9355072 51.4734025,73.5128358 51.4734025,73 L51.473,68.463 L51.7988439,68.2604139 C59.6864709,63.2508997 65,55.7456809 65,49.5 C65,48.9477153 64.5522847,48.5 64,48.5 Z M62.946,50.5 L62.9258994,50.6906494 C62.2630188,56.1371005 57.2071915,62.6966363 49.9588597,67.0461771 L49.851529,67.120504 C49.6144907,67.3086821 49.4734025,67.5963039 49.4734025,67.9036417 L49.473,72 L16.984,72 L16.9844057,68.3630483 C16.9844057,68.0058076 16.793833,67.6756996 16.4844659,67.4970577 L16.0780084,67.2587721 C8.66065723,62.8447702 3.01567005,55.8804891 2.12330233,50.8312707 L2.071,50.5 L62.946,50.5 Z" id="Oval" fill-rule="nonzero"></path>
            <path d="M36.0063137,53.3327022 L62.5063137,53.5000199 C63.0585875,53.5035069 63.5034671,53.95404 63.4999996,54.5063137 C63.4967422,55.0191394 63.108041,55.4393649 62.6103475,55.4939888 L62.4936863,55.4999801 L35.9936863,55.3326624 C35.4414125,55.3291754 34.9965329,54.8786423 34.9999996,54.3263685 C35.0032578,53.8135429 35.391959,53.3933174 35.8896525,53.3386935 L36.0063137,53.3327022 Z" id="Path-81-Copy" fill-rule="nonzero"></path>
            <path d="M17,53.3326823 C17.5522847,53.3326823 18,53.7803975 18,54.3326823 C18,54.8455181 17.6139598,55.2681895 17.1166211,55.3259546 L17,55.3326823 L2.3548676,55.3326823 C1.80258285,55.3326823 1.3548676,54.884967 1.3548676,54.3326823 C1.3548676,53.8198465 1.74090779,53.3971751 2.23824647,53.33941 L2.3548676,53.3326823 L17,53.3326823 Z" id="Path-81" fill-rule="nonzero"></path>
            <path d="M30.6451324,68 C31.1974172,68 31.6451324,68.4477153 31.6451324,69 C31.6451324,69.5128358 31.2590922,69.9355072 30.7617535,69.9932723 L30.6451324,70 L16,70 C15.4477153,70 15,69.5522847 15,69 C15,68.4871642 15.3860402,68.0644928 15.8833789,68.0067277 L16,68 L30.6451324,68 Z" id="Path-81-Copy-2" fill-rule="nonzero"></path>
            <path d="M50.2307692,68 C50.783054,68 51.2307692,68.4477153 51.2307692,69 C51.2307692,69.5128358 50.844729,69.9355072 50.3473904,69.9932723 L50.2307692,70 L44.0769231,70 C43.5246383,70 43.0769231,69.5522847 43.0769231,69 C43.0769231,68.4871642 43.4629633,68.0644928 43.960302,68.0067277 L44.0769231,68 L50.2307692,68 Z" id="Path-82" fill-rule="nonzero"></path>
            <path d="M10.6607489,40.5088318 L7.00446112,40.5088318 C6.50439558,40.5088318 6.08772513,40.8765514 6.01551581,41.3599925 L6.00349693,41.5319982 L6.00240843,41.5806363 C5.99467225,41.9907446 6.00296844,42.5152397 6.03950147,43.1136614 C6.09384676,44.0038532 6.20163656,44.8837088 6.3769334,45.715135 C6.99051727,48.6253398 8.31505138,50.5088318 10.6607489,50.5088318 L14.9727685,50.5088318 C15.494019,50.5088318 15.9278445,50.1084415 15.9695608,49.588863 L15.9850983,49.3427418 C15.9987893,49.0630827 16.0057661,48.6856422 15.9954554,48.2359114 C15.9725258,47.2357739 15.8667721,46.2333557 15.6493244,45.2852795 C14.9837753,42.3834733 13.3928644,40.5088318 10.6607489,40.5088318 Z M8.03578488,42.9917904 L8.011,42.508 L10.6607489,42.5088318 C12.2636721,42.5088318 13.2187054,43.6341903 13.6999405,45.732384 L13.78434,46.1389176 C13.9125526,46.8252318 13.9792662,47.5527001 13.9959808,48.2817522 L13.998,48.508 L10.6607489,48.5088318 C9.55968491,48.5088318 8.77451937,47.3923237 8.33390963,45.3025286 C8.18078653,44.5762716 8.08456759,43.7908655 8.03578488,42.9917904 Z" id="Oval" fill-rule="nonzero"></path>
            <path d="M46.1183425,2 L42.0050188,2 C41.5150827,2 41.1034205,2.35345587 41.0202789,2.82554139 L41.0045475,2.98636143 L41.0030853,3.02273039 C40.9933824,3.30849186 41.0035897,3.66700048 41.0483321,4.07416443 C41.1149995,4.68084854 41.2476165,5.28224412 41.4649135,5.85481717 C42.197131,7.78419482 43.7361213,9 46.1183425,9 L50.9693646,9 C51.4663964,9 51.88799,8.63495508 51.9590824,8.14303385 C52.0727473,7.35653348 52.0272635,6.25436509 51.5582885,5.11839871 C50.7571859,3.17794185 48.9578013,2 46.1183425,2 Z M43.0600422,4.07116973 L43.051,4 L46.1183425,4 C48.1558022,4 49.220605,4.69705815 49.7096345,5.88160129 L49.8054503,6.14369575 C49.8625454,6.3215647 49.9062558,6.50527443 49.9376601,6.6921979 L49.977,7 L46.1183425,7 C44.622957,7 43.7885352,6.34080518 43.3347849,5.14518283 C43.2002811,4.79076823 43.1121089,4.42318197 43.0600422,4.07116973 Z" id="Oval-Copy-2" fill-rule="nonzero" transform="translate(46.505550, 5.500000) rotate(19.000000) translate(-46.505550, -5.500000) "></path>
            <path d="M43.6607489,40.9151795 L40.0044611,40.9151795 C39.5058324,40.9151795 39.0898591,41.2808613 39.0160704,41.7627091 L39.0035663,41.9308523 L39.0024509,41.9756419 C38.9946016,42.3494769 39.0029966,42.8263027 39.0399439,43.3700298 C39.0949386,44.1793455 39.2040735,44.9796839 39.381871,45.7373037 C40.0024493,48.3816742 41.3494141,50.1024841 43.6607489,50.1024841 L47.9727685,50.1024841 C48.4905583,50.1024841 48.9227092,49.7072311 48.968799,49.1914967 C48.9920687,48.9311137 49.0093435,48.5006478 48.9953926,47.9539573 C48.9721265,47.0422313 48.8647682,46.1279814 48.6435567,45.2614741 C47.9688015,42.6183923 46.3599332,40.9151795 43.6607489,40.9151795 Z M41.0353424,43.2344385 L41.017,42.915 L43.6607489,42.9151795 C45.2966033,42.9151795 46.2336792,43.9072058 46.7057082,45.7561895 L46.7884016,46.11414 C46.9140569,46.7187334 46.9796095,47.3609794 46.9960435,48.0049782 L46.998,48.102 L43.6607489,48.1024841 C42.5253222,48.1024841 41.7625873,47.1280548 41.328972,45.2803599 C41.1783496,44.6385366 41.0834758,43.9427822 41.0353424,43.2344385 Z" id="Oval-Copy" fill-rule="nonzero" transform="translate(44.000078, 45.508832) rotate(-270.000000) translate(-44.000078, -45.508832) "></path>
            <path d="M20.6588693,22.4570827 C21.2108506,22.4387778 21.673159,22.8714079 21.6914639,23.4233893 C21.7097689,23.9753706 21.2771387,24.437679 20.7251574,24.4559839 C18.1685033,24.5407684 16.5223828,26.1678131 15.684091,29.6036954 C15.5271557,30.2469214 14.7997253,30.562817 14.22257,30.2383788 C12.9901712,29.5456065 12.0001337,29.5456065 11.0811071,30.1867919 C10.2871162,30.7407426 10.0665089,31.8688995 10.5441282,33.695074 L10.6135977,33.948436 L13.3207792,41.1572678 C13.5149427,41.6742968 13.2532084,42.2508322 12.7361794,42.4449956 C12.256081,42.6252903 11.7246735,42.4124894 11.4957496,41.967207 L11.4484515,41.8603958 L8.71651255,34.5768219 C7.91495855,31.7944179 8.26589738,29.7122524 9.93673901,28.5465414 C11.115407,27.7242096 12.4220472,27.5145956 13.7857794,27.8963602 L14.068,27.983 L14.1006186,27.8855612 C15.2353701,24.5347867 17.3540915,22.6708714 20.3887317,22.4704458 L20.6588693,22.4570827 Z" id="Path-83" fill-rule="nonzero"></path>
            <path d="M32.3548598,22.4570827 C32.9068411,22.4387778 33.3691495,22.8714079 33.3874545,23.4233893 C33.4057594,23.9753706 32.9731293,24.437679 32.4211479,24.4559839 C29.8644938,24.5407684 28.2183734,26.1678131 27.3800815,29.6036954 C27.2231463,30.2469214 26.4957159,30.562817 25.9185605,30.2383788 C24.6861617,29.5456065 23.6961242,29.5456065 22.7770977,30.1867919 C21.981603,30.7417918 21.7616658,31.8731749 22.2621862,33.7629129 L22.3315692,34.0137161 L25.6475387,45.1117158 C25.805649,45.6408846 25.5048466,46.1980343 24.9756778,46.3561446 C24.4843068,46.5029613 23.9688094,46.2540829 23.771082,45.7940976 L23.7312491,45.6842837 L20.4125031,34.5768219 C19.6109491,31.7944179 19.9618879,29.7122524 21.6327295,28.5465414 C22.8113976,27.7242096 24.1180377,27.5145956 25.4817699,27.8963602 L25.764,27.983 L25.7966091,27.8855612 C26.9313607,24.5347867 29.050082,22.6708714 32.0847222,22.4704458 L32.3548598,22.4570827 Z" id="Path-83-Copy" fill-rule="nonzero" transform="translate(26.694598, 34.427393) scale(-1, 1) translate(-26.694598, -34.427393) "></path>
            <path d="M34,4 C32.0670034,4 30.5,5.56700338 30.5,7.5 C30.5,9.43299662 32.0670034,11 34,11 C35.9329966,11 37.5,9.43299662 37.5,7.5 C37.5,5.56700338 35.9329966,4 34,4 Z M34,6 C34.8284271,6 35.5,6.67157288 35.5,7.5 C35.5,8.32842712 34.8284271,9 34,9 C33.1715729,9 32.5,8.32842712 32.5,7.5 C32.5,6.67157288 33.1715729,6 34,6 Z" id="Oval-Copy-2" fill-rule="nonzero"></path>
            <path d="M18.7625287,10 C16.5256115,10 11.5512255,11.8532816 3.57531774,15.5946575 C2.80822742,15.9544878 2.80822742,17.0455122 3.57531774,17.4053425 L4.97862173,18.0584062 C12.1382969,21.3624403 16.6598265,23 18.7625287,23 C22.3523796,23 25.2625287,20.0898509 25.2625287,16.5 C25.2625287,12.9101491 22.3523796,10 18.7625287,10 Z M18.7625287,12 C21.2478101,12 23.2625287,14.0147186 23.2625287,16.5 C23.2625287,18.9852814 21.2478101,21 18.7625287,21 L18.6500756,20.9978242 C17.0262822,20.9369736 13.2559839,19.5999211 7.49516652,17.0072318 L6.378,16.5 L7.49473106,15.9929641 C13.3931107,13.3383456 17.20485,12 18.7625287,12 Z" id="Oval-Copy-11" fill-rule="nonzero" transform="translate(14.131264, 16.500000) rotate(-30.000000) translate(-14.131264, -16.500000) "></path>
            <path d="M43.657008,20 C41.9158554,20 37.9879829,20.962725 31.705123,22.9016076 C30.764959,23.1917411 30.764959,24.5225446 31.705123,24.8126781 L32.6299106,25.096191 C38.3753033,26.8454264 42.002913,27.7142857 43.657008,27.7142857 C46.5415077,27.7142857 49,26.0969068 49,23.8571429 C49,21.6173789 46.5415077,20 43.657008,20 Z M43.657008,22 C45.5696448,22 47,22.9409939 47,23.8571429 C47,24.7732918 45.5696448,25.7142857 43.657008,25.7142857 L43.5432655,25.7125196 C42.3638633,25.6772807 39.8505596,25.1147676 36.0738538,24.0306081 L35.473,23.857 L36.4719643,23.5699965 C40.1507976,22.5251961 42.5691607,22 43.657008,22 Z" id="Oval-Copy-12" fill-rule="nonzero" transform="translate(40.000000, 23.857143) rotate(-146.000000) translate(-40.000000, -23.857143) "></path>
            <path d="M21.498823,11.1346552 C21.9767397,10.8578628 22.5885523,11.0209062 22.8653448,11.498823 C23.1223663,11.9426028 23.0001657,12.5018337 22.5987227,12.8010751 L22.501177,12.8653448 L6.51621617,22.1232678 C6.03829945,22.4000602 5.42648679,22.2370167 5.14969436,21.7591 C4.89267281,21.3153202 5.01487343,20.7560893 5.4163164,20.4568478 L5.5138621,20.3925782 L21.498823,11.1346552 Z" id="Path-84" fill-rule="nonzero"></path>
            <path d="M10.6004452,13.1570782 C10.7082585,12.6557032 11.1745296,12.3236349 11.6728977,12.3717161 L11.7883269,12.3896559 L17.523818,13.6229893 C17.9461604,13.7138078 18.2578348,14.063628 18.3068476,14.4842979 L18.3135882,14.6006413 L18.3135882,19.5339746 C18.3135882,20.0862593 17.865873,20.5339746 17.3135882,20.5339746 C16.8007524,20.5339746 16.3780811,20.1479344 16.320316,19.6505957 L16.3135882,19.5339746 L16.313,15.408 L11.3678674,14.3449599 C10.8664924,14.2371466 10.5344241,13.7708755 10.5825053,13.2725074 L10.6004452,13.1570782 Z" id="Path-85" fill-rule="nonzero"></path>
            <path d="M24,42.5 C27.3137085,42.5 30,45.1862915 30,48.5 C30,49.0522847 29.5522847,49.5 29,49.5 C28.4477153,49.5 28,49.0522847 28,48.5 C28,46.290861 26.209139,44.5 24,44.5 C21.790861,44.5 20,46.290861 20,48.5 C20,49.0522847 19.5522847,49.5 19,49.5 C18.4477153,49.5 18,49.0522847 18,48.5 C18,45.1862915 20.6862915,42.5 24,42.5 Z" id="Oval-Copy-7" fill-rule="nonzero"></path>
            <path d="M34,42.5 C37.3137085,42.5 40,45.1862915 40,48.5 C40,49.0522847 39.5522847,49.5 39,49.5 C38.4477153,49.5 38,49.0522847 38,48.5 C38,46.290861 36.209139,44.5 34,44.5 C31.790861,44.5 30,46.290861 30,48.5 C30,49.0522847 29.5522847,49.5 29,49.5 C28.4477153,49.5 28,49.0522847 28,48.5 C28,45.1862915 30.6862915,42.5 34,42.5 Z" id="Oval-Copy-8" fill-rule="nonzero"></path>
            <path d="M51.5,16 C49.5670034,16 48,17.5670034 48,19.5 C48,21.4329966 49.5670034,23 51.5,23 C53.4329966,23 55,21.4329966 55,19.5 C55,17.5670034 53.4329966,16 51.5,16 Z M51.5,18 C52.3284271,18 53,18.6715729 53,19.5 C53,20.3284271 52.3284271,21 51.5,21 C50.6715729,21 50,20.3284271 50,19.5 C50,18.6715729 50.6715729,18 51.5,18 Z" id="Oval-Copy-3" fill-rule="nonzero"></path>
            <circle id="Oval" cx="24.5" cy="3.5" r="1.5"></circle>
            <circle id="Oval-Copy-4" cx="44.5" cy="14.5" r="1.5"></circle>
            <circle id="Oval-Copy-5" cx="50.5" cy="30.5" r="1.5"></circle>
            <circle id="Oval-Copy-6" cx="39.5" cy="35.5" r="1.5"></circle>
            <circle id="Oval-Copy-9" cx="23.5" cy="39.5" r="1.5"></circle>
            <circle id="Oval-Copy-10" cx="16.5" cy="36.5" r="1.5"></circle>
            <path d="M59.9720546,21.2122664 C60.4739118,21.2122664 60.8914453,21.5825338 60.9616722,22.0679534 L60.9715935,22.1819013 L61.7657086,48.3220395 C61.7824788,48.8740696 61.3485649,49.3351733 60.7965348,49.3519435 C60.2839355,49.3675158 59.8497369,48.9944881 59.7768967,48.4991328 L59.7666308,48.3827698 L59.001,23.212 L55.972,23.212 L55.9720546,49.9049331 C55.9720546,50.4177689 55.5860144,50.8404402 55.0886757,50.8982054 L54.9720546,50.9049331 C54.4592188,50.9049331 54.0365474,50.5188929 53.9787823,50.0215542 L53.9720546,49.9049331 L53.9720546,22.2122664 C53.9720546,21.6994306 54.3580948,21.2767593 54.8554335,21.2189942 L54.9720546,21.2122664 L59.9720546,21.2122664 Z" id="Path-87" fill-rule="nonzero" transform="translate(57.869117, 36.058600) rotate(-345.000000) translate(-57.869117, -36.058600) "></path>
            <path d="M29.5857006,14.9029808 C30.0897511,14.8084627 30.5763307,15.1099893 30.7247682,15.5881617 L30.7528745,15.7015451 C30.9061865,16.5191338 31.6755136,17.2884609 33.1845251,17.9758096 C33.6871265,18.2047425 33.9089787,18.7977683 33.6800457,19.3003697 C33.4511128,19.802971 32.8580871,20.0248232 32.3554857,19.7958902 C30.3110546,18.8646601 29.0803817,17.6339872 28.7871363,16.0701548 C28.6853475,15.5273311 29.0428769,15.0047696 29.5857006,14.9029808 Z" id="Path-86" fill-rule="nonzero"></path>
        </g>
    </g>
</svg>