<?xml version="1.0" encoding="UTF-8"?>
<svg width="85px" height="85px" viewBox="0 0 85 85" version="1.1" xmlns="http://www.w3.org/2000/svg" xmlns:xlink="http://www.w3.org/1999/xlink">
    <!-- Generator: Sketch 63.1 (92452) - https://sketch.com -->
    <title>icon/special needs education/clementine@3x</title>
    <desc>Created with Sketch.</desc>
    <g id="icon/special-needs-education/clementine" stroke="none" stroke-width="1" fill="none" fill-rule="evenodd">
        <g id="Group" transform="translate(7.000000, 11.000000)" fill="#25204f" fill-rule="nonzero">
            <path d="M42.7311196,41.234375 C44.6641162,41.234375 46.2311196,42.8013784 46.2311196,44.734375 C46.2311196,46.6673716 44.6641162,48.234375 42.7311196,48.234375 L22.7311196,48.234375 C20.7981229,48.234375 19.2311196,46.6673716 19.2311196,44.734375 C19.2311196,42.8013784 20.7981229,41.234375 22.7311196,41.234375 L42.7311196,41.234375 Z M42.7311196,43.234375 L22.7311196,43.234375 C21.9026924,43.234375 21.2311196,43.9059479 21.2311196,44.734375 C21.2311196,45.5140711 21.8260076,46.1548237 22.5866596,46.2275084 L22.7311196,46.234375 L42.7311196,46.234375 C43.5595467,46.234375 44.2311196,45.5628021 44.2311196,44.734375 C44.2311196,43.9546789 43.6362315,43.3139263 42.8755796,43.2412416 L42.7311196,43.234375 Z" id="Rectangle"></path>
            <path d="M23.2311196,13.421875 C25.382371,13.421875 27.1227473,15.1668613 27.2262492,17.341759 L27.2311196,17.546875 L25.2311196,17.546875 C25.2311196,16.3643433 24.32635,15.421875 23.2311196,15.421875 C22.1835079,15.421875 21.3101552,16.2841712 21.2361919,17.3940509 L21.2311196,17.546875 L19.2311196,17.546875 C19.2311196,15.277627 21.0126415,13.421875 23.2311196,13.421875 Z" id="Oval"></path>
            <path d="M29.7311196,13.421875 C32.1203369,13.421875 34.1108486,15.1363755 34.2258707,17.3447839 L34.2311196,17.546875 L32.2311196,17.546875 C32.2311196,16.4001113 31.1354949,15.421875 29.7311196,15.421875 C28.3852598,15.421875 27.3229576,16.3202899 27.236769,17.4044659 L27.2311196,17.546875 L25.2311196,17.546875 C25.2311196,15.241859 27.2695017,13.421875 29.7311196,13.421875 Z" id="Oval-Copy"></path>
            <path d="M36.2311196,13.421875 C38.382371,13.421875 40.1227473,15.1668613 40.2262492,17.341759 L40.2311196,17.546875 L38.2311196,17.546875 C38.2311196,16.3643433 37.32635,15.421875 36.2311196,15.421875 C35.1835079,15.421875 34.3101552,16.2841712 34.2361919,17.3940509 L34.2311196,17.546875 L32.2311196,17.546875 C32.2311196,15.277627 34.0126415,13.421875 36.2311196,13.421875 Z" id="Oval-Copy-2"></path>
            <path d="M42.2311196,13.421875 C44.382371,13.421875 46.1227473,15.1668613 46.2262492,17.341759 L46.2311196,17.546875 L44.2311196,17.546875 C44.2311196,16.3643433 43.32635,15.421875 42.2311196,15.421875 C41.1835079,15.421875 40.3101552,16.2841712 40.2361919,17.3940509 L40.2311196,17.546875 L38.2311196,17.546875 C38.2311196,15.277627 40.0126415,13.421875 42.2311196,13.421875 Z" id="Oval-Copy-3"></path>
            <path d="M20.2311196,16.546875 C20.7439554,16.546875 21.1666267,16.9329152 21.2243918,17.4302539 L21.2311196,17.546875 L21.2311196,36.8106885 C21.2311196,38.029538 21.7864904,39.1774044 22.7318246,39.9337697 L22.9136042,40.070922 L24.8104984,41.4193166 C25.2606427,41.7392987 25.36616,42.3636095 25.0461779,42.8137538 C24.7508099,43.2292717 24.1961321,43.3511428 23.7584941,43.115759 L23.6517407,43.0494334 L21.7548466,41.7010388 C20.2404004,40.6245047 19.3141124,38.910377 19.2364284,37.0633344 L19.2311196,36.8106885 L19.2311196,17.546875 C19.2311196,16.9945903 19.6788348,16.546875 20.2311196,16.546875 Z" id="Path-53"></path>
            <path d="M26.2311196,16.546875 C26.7439554,16.546875 27.1666267,16.9329152 27.2243918,17.4302539 L27.2311196,17.546875 L27.2311196,20.234375 C27.2311196,20.7866597 26.7834043,21.234375 26.2311196,21.234375 C25.7182837,21.234375 25.2956124,20.8483348 25.2378473,20.3509961 L25.2311196,20.234375 L25.2311196,17.546875 C25.2311196,16.9945903 25.6788348,16.546875 26.2311196,16.546875 Z" id="Path-54"></path>
            <path d="M39.2311196,16.546875 C39.7439554,16.546875 40.1666267,16.9329152 40.2243918,17.4302539 L40.2311196,17.546875 L40.2311196,20.234375 C40.2311196,20.7866597 39.7834043,21.234375 39.2311196,21.234375 C38.7182837,21.234375 38.2956124,20.8483348 38.2378473,20.3509961 L38.2311196,20.234375 L38.2311196,17.546875 C38.2311196,16.9945903 38.6788348,16.546875 39.2311196,16.546875 Z" id="Path-54-Copy-2"></path>
            <path d="M45.2311196,16.546875 C45.7439554,16.546875 46.1666267,16.9329152 46.2243918,17.4302539 L46.2311196,17.546875 L46.2311196,34.234375 C46.2311196,34.7866597 45.7834043,35.234375 45.2311196,35.234375 C44.7182837,35.234375 44.2956124,34.8483348 44.2378473,34.3509961 L44.2311196,34.234375 L44.2311196,17.546875 C44.2311196,16.9945903 44.6788348,16.546875 45.2311196,16.546875 Z" id="Path-54-Copy-3"></path>
            <path d="M33.2311196,16.546875 C33.7439554,16.546875 34.1666267,16.9329152 34.2243918,17.4302539 L34.2311196,17.546875 L34.2311196,20.234375 C34.2311196,20.7866597 33.7834043,21.234375 33.2311196,21.234375 C32.7182837,21.234375 32.2956124,20.8483348 32.2378473,20.3509961 L32.2311196,20.234375 L32.2311196,17.546875 C32.2311196,16.9945903 32.6788348,16.546875 33.2311196,16.546875 Z" id="Path-54-Copy"></path>
            <path d="M33.2311196,-0.84375 C33.7439554,-0.84375 34.1666267,-0.45770981 34.2243918,0.0396288746 L34.2311196,0.15625 L34.2311196,3.6875 C34.2311196,4.23978475 33.7834043,4.6875 33.2311196,4.6875 C32.7182837,4.6875 32.2956124,4.30145981 32.2378473,3.80412113 L32.2311196,3.6875 L32.2311196,0.15625 C32.2311196,-0.39603475 32.6788348,-0.84375 33.2311196,-0.84375 Z" id="Path-54-Copy-4"></path>
            <path d="M43.3925787,2.61141127 C43.6934848,2.14829795 44.312845,2.01680303 44.7759583,2.31770915 C45.2059921,2.59712197 45.3500896,3.15112015 45.1275586,3.59963162 L45.0696604,3.70108873 L43.0696604,6.77921373 C42.7687543,7.24232705 42.1493942,7.37382197 41.6862808,7.07291585 C41.256247,6.79350303 41.1121495,6.23950485 41.3346805,5.79099338 L41.3925787,5.68953627 L43.3925787,2.61141127 Z" id="Path-54-Copy-5"></path>
            <path d="M21.6862808,2.31770915 C22.1163146,2.03829632 22.6810715,2.13171909 23.0004792,2.51728522 L23.0696604,2.61141127 L25.0696604,5.68953627 C25.3705665,6.1526496 25.2390716,6.77200973 24.7759583,7.07291585 C24.3459245,7.35232868 23.7811677,7.25890591 23.4617599,6.87333978 L23.3925787,6.77921373 L21.3925787,3.70108873 C21.0916726,3.2379754 21.2231675,2.61861527 21.6862808,2.31770915 Z" id="Path-54-Copy-6"></path>
            <path d="M11.2655767,12.6694435 C11.3990391,12.1742785 11.8817751,11.8666359 12.37701,11.9402906 L12.4913635,11.9641446 L16.4913635,13.0422696 C17.0246182,13.1859984 17.3403912,13.7348019 17.1966625,14.2680565 C17.0632,14.7632215 16.580464,15.0708641 16.0852291,14.9972094 L15.9708756,14.9733554 L11.9708756,13.8952304 C11.437621,13.7515016 11.1218479,13.2026981 11.2655767,12.6694435 Z" id="Path-54-Copy-7"></path>
            <path d="M48.2655767,12.6694435 C48.3990391,12.1742785 48.8817751,11.8666359 49.37701,11.9402906 L49.4913635,11.9641446 L53.4913635,13.0422696 C54.0246182,13.1859984 54.3403912,13.7348019 54.1966625,14.2680565 C54.0632,14.7632215 53.580464,15.0708641 53.0852291,14.9972094 L52.9708756,14.9733554 L48.9708756,13.8952304 C48.437621,13.7515016 48.1218479,13.2026981 48.2655767,12.6694435 Z" id="Path-54-Copy-8" transform="translate(51.231120, 13.468750) scale(-1, 1) translate(-51.231120, -13.468750) "></path>
            <path d="M23.2311196,46.7525457 L23.2311196,60.7525457 C23.2311196,61.2653816 23.6171598,61.6880529 24.1144984,61.745818 L24.2311196,61.7525457 L41.2311196,61.7525457 C41.7439554,61.7525457 42.1666267,61.3665055 42.2243918,60.8691669 L42.2311196,60.7525457 L42.2311196,46.7525457 L44.2311196,46.7525457 L44.2311196,60.7525457 C44.2311196,62.3502266 42.9821996,63.6562066 41.4073924,63.747453 L41.2311196,63.7525457 L24.2311196,63.7525457 C22.6334387,63.7525457 21.3274587,62.5036258 21.2362123,60.9288185 L21.2311196,60.7525457 L21.2311196,46.7525457 L23.2311196,46.7525457 Z" id="Path-57"></path>
            <path d="M20.2311196,18.4703506 L20.2311196,20.4703506 L6.12071761,20.4703506 L1.779836,23.3661026 L6.13773924,26.3789482 L20.2311196,26.3789482 L20.2311196,28.3789482 L6.13773924,28.3789482 C5.78942376,28.3789482 5.44819159,28.2880023 5.14730778,28.1164899 L5.00038223,28.0240679 L0.642478995,25.0112224 C0.434794105,24.867639 0.256174756,24.686029 0.116059371,24.4759888 C-0.466265179,23.6030543 -0.271574763,22.438673 0.537173509,21.7988693 L0.66994982,21.702326 L5.01083143,18.806574 C5.2925199,18.6186629 5.61650044,18.5058638 5.9520947,18.4774705 L6.12071761,18.4703506 L20.2311196,18.4703506 Z" id="Path-55"></path>
            <path d="M71.2311196,18.4703506 L71.2311196,20.4703506 L47.2319986,20.47 L47.2380777,26.3781421 L71.2311196,26.3789482 L71.2311196,28.3789482 L47.2367324,28.3789482 C46.1843015,28.3771902 45.3220294,27.5634256 45.2433295,26.529071 L45.2374811,26.3798694 L45.2319986,20.473 C45.2311196,19.4145315 46.0478425,18.5503779 47.0819725,18.4755988 L47.2311196,18.4703506 L71.2311196,18.4703506 Z" id="Path-55-Copy" transform="translate(58.231559, 23.424649) rotate(-180.000000) translate(-58.231559, -23.424649) "></path>
            <polygon id="Path-58" points="67.7311196 20.234375 67.7311196 27.0817327 65.7311196 27.0817327 65.7311196 20.234375"></polygon>
            <polygon id="Path-56" points="9.23111957 20.234375 9.23111957 27.234375 7.23111957 27.234375 7.23111957 20.234375"></polygon>
            <polygon id="Path-56-Copy" points="64.2311196 20.234375 64.2311196 27.234375 62.2311196 27.234375 62.2311196 20.234375"></polygon>
            <path d="M51.5230546,29.4689383 C52.0753393,29.4689383 52.5230546,29.9166535 52.5230546,30.4689383 C52.5230546,32.9391004 51.5053038,35.2952178 49.7178784,36.9870719 L49.4904595,37.1950542 L43.8494371,42.1776876 L42.8758223,42.9988083 C42.4536375,43.3548679 41.8227457,43.3012626 41.4666862,42.8790778 C41.1380159,42.4893687 41.158409,41.9218265 41.4955511,41.5567678 L41.5864168,41.4699417 L42.5948659,40.6187499 L48.1662196,35.6962585 C49.6648047,34.3722046 50.5230546,32.4686573 50.5230546,30.4689383 C50.5230546,29.9166535 50.9707698,29.4689383 51.5230546,29.4689383 Z" id="Path-53"></path>
        </g>
    </g>
</svg>