<?xml version="1.0" encoding="UTF-8"?>
<svg width="85px" height="85px" viewBox="0 0 85 85" version="1.1" xmlns="http://www.w3.org/2000/svg" xmlns:xlink="http://www.w3.org/1999/xlink">
    <!-- Generator: Sketch 63.1 (92452) - https://sketch.com -->
    <title>icon/healthy/clementine@3x</title>
    <desc>Created with Sketch.</desc>
    <g id="icon/healthy/clementine" stroke="none" stroke-width="1" fill="none" fill-rule="evenodd">
        <g id="Group-4" transform="translate(10.000000, 16.000000)" fill="#25204f" fill-rule="nonzero">
            <g id="Group-2" transform="translate(31.000000, 20.000000) scale(-1, 1) translate(-31.000000, -20.000000) ">
                <path d="M45.2056555,37.3337327 L45.2056555,39.3337327 C44.4882124,39.3337327 43.9702646,39.4540062 43.0757948,39.7957055 L42.3926132,40.0634262 C41.6893514,40.3353576 41.2244892,40.4828279 40.6732939,40.5851213 L40.4308348,40.6264266 L40.1221145,38.6503973 C40.6196062,38.5726729 41.0048656,38.4563018 41.6941736,38.1891585 L42.0863972,38.0346852 C43.2513369,37.573863 43.9829515,37.3688867 44.9388893,37.3379242 L45.2056555,37.3337327 Z" id="Path-3-Copy-2"></path>
                <g id="Group-3" transform="translate(29.000000, 0.000000)">
                    <path d="M29.5938279,10.7296546 C30.3223317,10.705013 31.0007664,10.7110461 31.6050814,10.7387697 L32.0018132,10.761022 L32.414001,10.7979687 L32.5059718,10.8167472 L32.5808725,10.8397425 L32.8145453,10.9509607 L33.0151759,12.4489863 L32.5190992,12.7543095 L32.4101045,12.7764717 L32.3015343,12.7863312 L32.2650125,12.7869914 L32.2650125,10.7869914 L32.1211269,10.7974589 L32.0122635,10.8195957 L31.5162712,11.1248697 L31.7168642,12.6228149 L31.9223647,12.7260889 L32.001468,12.7513237 L32.1017809,12.7748492 L32.012084,12.7671291 C31.8751918,12.7561602 31.7059672,12.7455015 31.5134254,12.7366684 C30.9603978,12.7112976 30.3348151,12.7057345 29.6614392,12.7285115 C27.7399417,12.7935062 25.8318637,13.0711045 24.0902672,13.6222109 C19.2446354,15.1555503 16.6309022,18.4202938 17.1159329,24.1372943 C17.640469,30.31994 19.1909064,34.3367787 21.4462516,36.5973827 C22.975783,38.1304805 24.6582028,38.7142901 26.3421471,38.7142901 C27.1013246,38.7142901 27.6320703,38.6047468 28.4910796,38.2881696 L29.1461534,38.0346852 C30.3110931,37.573863 31.0427077,37.3688867 31.9986456,37.3379242 L32.2654118,37.3337327 L32.2654118,39.3337327 C31.5479686,39.3337327 31.0300209,39.4540062 30.135551,39.7957055 L29.7324762,39.9536501 C28.3385071,40.5061651 27.5520313,40.7142901 26.3421471,40.7142901 C24.1625083,40.7142901 21.9690812,39.9531579 20.0303922,38.0099485 C17.4040478,35.3774803 15.6843802,30.9222036 15.1230921,24.306367 C14.552407,17.5797689 17.8089482,13.5121114 23.486881,11.7154007 C25.4211136,11.103337 27.5036728,10.8003542 29.5938279,10.7296546 Z" id="Path-3-Copy-3" transform="translate(24.036926, 25.714229) scale(-1, 1) translate(-24.036926, -25.714229) "></path>
                    <path d="M11.2517844,15.3365444 C11.6182008,14.9233163 12.2502275,14.8853679 12.6634556,15.2517844 C13.9837565,16.4225178 15.51297,17 17.2961403,17 C19.0383364,17 20.321481,16.4544291 21.2311294,15.3605956 C21.5842627,14.9359601 22.2147689,14.8779961 22.6394044,15.2311294 C23.0640399,15.5842627 23.1220039,16.2147689 22.7688706,16.6394044 C21.4608788,18.2122376 19.608117,19 17.2961403,19 C15.0251379,19 13.0235912,18.2441489 11.3365444,16.7482156 C10.9233163,16.3817992 10.8853679,15.7497725 11.2517844,15.3365444 Z" id="Path-67-Copy"></path>
                    <path d="M10.0487225,4.6916641 C10.2190117,4.16628802 10.7829598,3.87843324 11.3083359,4.04872245 C12.8229677,4.53965737 14.2326005,5.5479922 15.5399205,7.05153449 C16.9010129,8.61692035 17.7324534,11.2767688 18.1068445,15.0514582 C18.1613552,15.6010462 17.7600157,16.090765 17.2104277,16.1452757 C16.6608396,16.1997864 16.1711208,15.7984469 16.1166101,15.2488588 C15.779434,11.8493786 15.0599149,9.54757618 14.0306557,8.36383009 C12.9476238,7.11824044 11.8337313,6.32145374 10.6916641,5.95127755 C10.166288,5.78098834 9.87843324,5.21704019 10.0487225,4.6916641 Z" id="Path-66-Copy"></path>
                    <path d="M-0.655648772,19.7420435 C0.967485873,12.8950953 6.60421028,9.89848108 15.8712096,10.749596 L16.3082577,10.7923102 L16.1022549,12.7816726 C7.61962909,11.9032783 2.83334371,14.2832131 1.36126092,19.9188805 L1.29041685,20.203377 L-0.655648772,19.7420435 Z" id="Path-3-Copy-2"></path>
                    <path d="M22.1183425,2 L18.0050188,2 C17.5150827,2 17.1034205,2.35345587 17.0202789,2.82554139 L17.0045475,2.98636143 L17.0030853,3.02273039 C16.9933824,3.30849186 17.0035897,3.66700048 17.0483321,4.07416443 C17.1149995,4.68084854 17.2476165,5.28224412 17.4649135,5.85481717 C18.197131,7.78419482 19.7361213,9 22.1183425,9 L26.9693646,9 C27.4663964,9 27.88799,8.63495508 27.9590824,8.14303385 C28.0727473,7.35653348 28.0272635,6.25436509 27.5582885,5.11839871 C26.7571859,3.17794185 24.9578013,2 22.1183425,2 Z M19.0600422,4.07116973 L19.051,4 L22.1183425,4 C24.1558022,4 25.220605,4.69705815 25.7096345,5.88160129 L25.8054503,6.14369575 C25.8625454,6.3215647 25.9062558,6.50527443 25.9376601,6.6921979 L25.977,7 L22.1183425,7 C20.622957,7 19.7885352,6.34080518 19.3347849,5.14518283 C19.2002811,4.79076823 19.1121089,4.42318197 19.0600422,4.07116973 Z" id="Oval-Copy-2" transform="translate(22.505550, 5.500000) rotate(-55.000000) translate(-22.505550, -5.500000) "></path>
                </g>
                <g id="Group-3" transform="translate(15.500000, 20.000000) scale(-1, 1) translate(-15.500000, -20.000000) ">
                    <path d="M27.5938279,10.7296546 C28.3223317,10.705013 29.0007664,10.7110461 29.6050814,10.7387697 L30.0018132,10.761022 L30.414001,10.7979687 L30.5059718,10.8167472 L30.5808725,10.8397425 L30.8145453,10.9509607 L31.0151759,12.4489863 L30.5190992,12.7543095 L30.4101045,12.7764717 L30.3015343,12.7863312 L30.2650125,12.7869914 L30.2650125,10.7869914 L30.1211269,10.7974589 L30.0122635,10.8195957 L29.5162712,11.1248697 L29.7168642,12.6228149 L29.9223647,12.7260889 L30.001468,12.7513237 L30.1017809,12.7748492 L30.012084,12.7671291 C29.8751918,12.7561602 29.7059672,12.7455015 29.5134254,12.7366684 C28.9603978,12.7112976 28.3348151,12.7057345 27.6614392,12.7285115 C25.7399417,12.7935062 23.8318637,13.0711045 22.0902672,13.6222109 C17.2446354,15.1555503 14.6309022,18.4202938 15.1159329,24.1372943 C15.640469,30.31994 17.1909064,34.3367787 19.4462516,36.5973827 C20.975783,38.1304805 22.6582028,38.7142901 24.3421471,38.7142901 C25.1013246,38.7142901 25.6320703,38.6047468 26.4910796,38.2881696 L27.1461534,38.0346852 C28.3110931,37.573863 29.0427077,37.3688867 29.9986456,37.3379242 L30.2654118,37.3337327 L30.2654118,39.3337327 C29.5479686,39.3337327 29.0300209,39.4540062 28.135551,39.7957055 L27.7324762,39.9536501 C26.3385071,40.5061651 25.5520313,40.7142901 24.3421471,40.7142901 C22.1625083,40.7142901 19.9690812,39.9531579 18.0303922,38.0099485 C15.4040478,35.3774803 13.6843802,30.9222036 13.1230921,24.306367 C12.552407,17.5797689 15.8089482,13.5121114 21.486881,11.7154007 C23.4211136,11.103337 25.5036728,10.8003542 27.5938279,10.7296546 Z" id="Path-3-Copy-3" transform="translate(22.036926, 25.714229) scale(-1, 1) translate(-22.036926, -25.714229) "></path>
                    <path d="M9.25178436,15.3365444 C9.61820078,14.9233163 10.2502275,14.8853679 10.6634556,15.2517844 C11.9837565,16.4225178 13.51297,17 15.2961403,17 C17.0383364,17 18.321481,16.4544291 19.2311294,15.3605956 C19.5842627,14.9359601 20.2147689,14.8779961 20.6394044,15.2311294 C21.0640399,15.5842627 21.1220039,16.2147689 20.7688706,16.6394044 C19.4608788,18.2122376 17.608117,19 15.2961403,19 C13.0251379,19 11.0235912,18.2441489 9.33654439,16.7482156 C8.9233163,16.3817992 8.88536794,15.7497725 9.25178436,15.3365444 Z" id="Path-67-Copy"></path>
                    <path d="M8.04872245,4.6916641 C8.21901166,4.16628802 8.78295981,3.87843324 9.3083359,4.04872245 C10.8229677,4.53965737 12.2326005,5.5479922 13.5399205,7.05153449 C14.9010129,8.61692035 15.7324534,11.2767688 16.1068445,15.0514582 C16.1613552,15.6010462 15.7600157,16.090765 15.2104277,16.1452757 C14.6608396,16.1997864 14.1711208,15.7984469 14.1166101,15.2488588 C13.779434,11.8493786 13.0599149,9.54757618 12.0306557,8.36383009 C10.9476238,7.11824044 9.83373125,6.32145374 8.6916641,5.95127755 C8.16628802,5.78098834 7.87843324,5.21704019 8.04872245,4.6916641 Z" id="Path-66-Copy"></path>
                    <path d="M14.1501893,10.7885087 L14.2603232,12.7854741 L13.3217637,12.8430018 C6.7127607,13.2900164 2.6275414,14.4812242 1.12905153,16.2519856 L1.02870348,16.3764653 L-0.558525824,15.1596239 C1.35236919,12.6670818 6.06491129,11.2827105 13.6513465,10.8175444 L14.1501893,10.7885087 Z" id="Path-3-Copy-2"></path>
                    <path d="M20.1183425,2 L16.0050188,2 C15.5150827,2 15.1034205,2.35345587 15.0202789,2.82554139 L15.0045475,2.98636143 L15.0030853,3.02273039 C14.9933824,3.30849186 15.0035897,3.66700048 15.0483321,4.07416443 C15.1149995,4.68084854 15.2476165,5.28224412 15.4649135,5.85481717 C16.197131,7.78419482 17.7361213,9 20.1183425,9 L24.9693646,9 C25.4663964,9 25.88799,8.63495508 25.9590824,8.14303385 C26.0727473,7.35653348 26.0272635,6.25436509 25.5582885,5.11839871 C24.7571859,3.17794185 22.9578013,2 20.1183425,2 Z M17.0600422,4.07116973 L17.051,4 L20.1183425,4 C22.1558022,4 23.220605,4.69705815 23.7096345,5.88160129 L23.8054503,6.14369575 C23.8625454,6.3215647 23.9062558,6.50527443 23.9376601,6.6921979 L23.977,7 L20.1183425,7 C18.622957,7 17.7885352,6.34080518 17.3347849,5.14518283 C17.2002811,4.79076823 17.1121089,4.42318197 17.0600422,4.07116973 Z" id="Oval-Copy-2" transform="translate(20.505550, 5.500000) rotate(-55.000000) translate(-20.505550, -5.500000) "></path>
                </g>
            </g>
            <path d="M33,19 C25.2680135,19 19,25.2680135 19,33 C19,40.7319865 25.2680135,47 33,47 C40.7319865,47 47,40.7319865 47,33 C47,25.2680135 40.7319865,19 33,19 Z M33,21 C39.627417,21 45,26.372583 45,33 C45,39.627417 39.627417,45 33,45 C26.372583,45 21,39.627417 21,33 C21,26.372583 26.372583,21 33,21 Z" id="Oval"></path>
            <g id="Group" transform="translate(29.500000, 26.500000) rotate(-25.000000) translate(-29.500000, -26.500000) translate(27.000000, 24.000000)">
                <path d="M3.72384319,3.50823969 L3.82215299,3.39107998 C4.15845024,2.95299025 4.78621491,2.87047114 5.22430464,3.20676838 C5.66239437,3.54306562 5.74491348,4.1708303 5.40861624,4.60892002 C4.70134052,5.53027823 3.68156885,6 2.44437246,6 C1.24846999,6 0.186047783,5.56535993 -0.692760801,4.72116744 C-1.09105058,4.33856621 -1.10376866,3.70552898 -0.721167437,3.3072392 C-0.338566212,2.90894942 0.294471023,2.89623134 0.692760801,3.27883256 C1.20195884,3.7679734 1.76911827,4 2.44437246,4 C3.0149367,4 3.41832463,3.84047464 3.72384319,3.50823969 Z" id="Path-67"></path>
                <path d="M0.645374339,-0.363616486 C0.846194179,-0.878096648 1.4260594,-1.13236858 1.94053956,-0.931548738 C2.35661631,-0.769139238 2.70717897,-0.467154102 3.00703109,-0.0518540061 C3.33483738,0.40216309 3.50163353,1.04475149 3.57354854,1.91791663 C3.61888194,2.46833768 3.20942749,2.95129207 2.65900645,2.99662547 C2.1085854,3.04195886 1.625631,2.63250441 1.58029761,2.08208337 L1.54505857,1.75267626 C1.49830085,1.40494147 1.43474717,1.18709617 1.38551171,1.11890425 C1.29425479,0.992511935 1.23191857,0.938813655 1.21330659,0.931548738 C0.698826429,0.730728898 0.444554499,0.150863676 0.645374339,-0.363616486 Z" id="Path-66"></path>
            </g>
            <path d="M31,41.1206617 C48.1940431,41.1206617 62,44.86465 62,50.2562549 C62,50.8085396 61.5522847,51.2562549 61,51.2562549 C60.4871642,51.2562549 60.0644928,50.8702147 60.0067277,50.372876 L60,50.2562549 C60,46.6615316 46.9430419,43.1206617 31,43.1206617 L30.0469622,43.1248828 C14.5399025,43.262318 2,46.7334261 2,50.2562549 C2,50.8085396 1.55228475,51.2562549 1,51.2562549 C0.44771525,51.2562549 0,50.8085396 0,50.2562549 C0,44.918566 13.5312184,41.1957062 30.4852056,41.1217828 L31,41.1206617 Z" id="Oval-Copy-2" transform="translate(31.000000, 46.188458) scale(1, -1) translate(-31.000000, -46.188458) "></path>
            <path d="M55.2564809,37.5113737 C55.5263417,37.029509 56.1357357,36.857646 56.6176004,37.1275068 L56.8299406,37.2421729 C56.9400037,37.2994838 57.0580357,37.3578388 57.1936185,37.4220874 L58.1624683,37.8596898 C60.861162,39.0603354 62,40.0274308 62,42.1206617 C62,42.6729464 61.5522847,43.1206617 61,43.1206617 C60.4871642,43.1206617 60.0644928,42.7346215 60.0067277,42.2372828 L60,42.1206617 C60,41.164647 59.4105092,40.6258138 57.5842666,39.7927248 L56.6444622,39.3720226 C56.2242774,39.1806395 55.936517,39.0383581 55.6403478,38.8724932 C55.1584831,38.6026323 54.98662,37.9932384 55.2564809,37.5113737 Z" id="Oval-Copy-2"></path>
            <path d="M5.64451147,37.0653194 C6.16072134,36.8689885 6.73834975,37.1283016 6.93468064,37.6445115 C7.13101154,38.1607213 6.87169839,38.7383498 6.35548853,38.9346806 C3.55760383,39.9988044 2.10224201,41.136767 2.00519909,42.0263179 L2,42.1206617 C2,42.6729464 1.55228475,43.1206617 1,43.1206617 C0.44771525,43.1206617 0,42.6729464 0,42.1206617 C0,40.0842913 2.02791352,38.4408256 5.64451147,37.0653194 Z" id="Oval-Copy-2"></path>
        </g>
    </g>
</svg>