<?xml version="1.0" encoding="UTF-8"?>
<svg width="85px" height="85px" viewBox="0 0 85 85" version="1.1" xmlns="http://www.w3.org/2000/svg" xmlns:xlink="http://www.w3.org/1999/xlink">
    <!-- Generator: Sketch 63.1 (92452) - https://sketch.com -->
    <title>icon/fereign/clementine@3x</title>
    <desc>Created with Sketch.</desc>
    <g id="icon/fereign/clementine" stroke="none" stroke-width="1" fill="none" fill-rule="evenodd">
        <g id="Group-2" transform="translate(12.000000, 12.000000)" fill="#25204f" fill-rule="nonzero">
            <path d="M18.862069,5.89127604 C19.4143537,5.89127604 19.862069,6.33899129 19.862069,6.89127604 C19.862069,7.40411188 19.4760288,7.8267832 18.9786901,7.88454831 L18.862069,7.89127604 L8.15846154,7.89127604 C7.60617679,7.89127604 7.15846154,7.44356079 7.15846154,6.89127604 C7.15846154,6.3784402 7.54450173,5.95576888 8.04184041,5.89800377 L8.15846154,5.89127604 L18.862069,5.89127604 Z" id="Path-68"></path>
            <path d="M13.5,3.46614583 C14.0128358,3.46614583 14.4355072,3.85218602 14.4932723,4.34952471 L14.5,4.46614583 L14.5,6.89127604 C14.5,7.44356079 14.0522847,7.89127604 13.5,7.89127604 C12.9871642,7.89127604 12.5644928,7.50523585 12.5067277,7.00789717 L12.5,6.89127604 L12.5,4.46614583 C12.5,3.91386108 12.9477153,3.46614583 13.5,3.46614583 Z" id="Path-69"></path>
            <path d="M10.9263806,9.312835 C11.3266531,8.93230857 11.9596157,8.94831594 12.3401421,9.34858845 C14.9897799,12.13572 17.2959907,14.0803754 19.238854,15.1802536 C19.7194683,15.4523351 19.8885175,16.0625156 19.616436,16.5431299 C19.3443545,17.0237442 18.734174,17.1927934 18.2535597,16.9207119 C16.1123725,15.7085602 13.6647018,13.6446221 10.8906271,10.7265965 C10.5101007,10.326324 10.5261081,9.69336142 10.9263806,9.312835 Z" id="Path-70"></path>
            <path d="M25,-1 L2,-1 C0.343145751,-1 -1,0.343145751 -1,2 L-1,18 C-1,19.6568542 0.343145751,21 2,21 L17.3407373,21 L22.9112995,25.225272 C23.5698375,25.7247732 24.515625,25.2550777 24.515625,24.4285345 L24.515625,21 L25.2578125,21 C26.7722808,21 28,19.7722808 28,18.2578125 L28,2 C28,0.343145751 26.6568542,-1 25,-1 Z M2,1 L25,1 C25.5522847,1 26,1.44771525 26,2 L26,18.2578125 C26,18.6677113 25.6677113,19 25.2578125,19 L24.515625,19 L24.3663627,19.0054857 C23.3315028,19.0818349 22.515625,19.9456382 22.515625,21 L22.515,22.414 L18.5493883,19.4065249 C18.2016536,19.1427681 17.7771856,19 17.3407373,19 L2,19 C1.44771525,19 1,18.5522847 1,18 L1,2 C1,1.44771525 1.44771525,1 2,1 Z" id="Rectangle"></path>
            <path d="M25,36 L2,36 C0.343145751,36 -1,37.3431458 -1,39 L-1,55 C-1,56.6568542 0.343145751,58 2,58 L17.3407373,58 L22.9112995,62.225272 C23.5698375,62.7247732 24.515625,62.2550777 24.515625,61.4285345 L24.515625,58 L25.2578125,58 C26.7722808,58 28,56.7722808 28,55.2578125 L28,39 C28,37.3431458 26.6568542,36 25,36 Z M2,38 L25,38 C25.5522847,38 26,38.4477153 26,39 L26,55.2578125 C26,55.6677113 25.6677113,56 25.2578125,56 L24.515625,56 L24.3663627,56.0054857 C23.3315028,56.0818349 22.515625,56.9456382 22.515625,58 L22.515,59.414 L18.5493883,56.4065249 C18.2016536,56.1427681 17.7771856,56 17.3407373,56 L2,56 C1.44771525,56 1,55.5522847 1,55 L1,39 C1,38.4477153 1.44771525,38 2,38 Z" id="Rectangle-Copy" transform="translate(13.500000, 49.215181) scale(-1, 1) rotate(-180.000000) translate(-13.500000, -49.215181) "></path>
            <path d="M57.8599936,16.2093854 L53.011,19.964 L37,19.9648989 C35.3431458,19.9648989 34,21.3080447 34,22.9648989 L34,38.9648989 C34,40.6217532 35.3431458,41.9648989 37,41.9648989 L52.3407373,41.9648989 L57.9112995,46.190171 C58.5698375,46.6896721 59.515625,46.2199766 59.515625,45.3934334 L59.515625,41.9648989 L60.2578125,41.9648989 C61.7722808,41.9648989 63,40.7371798 63,39.2227114 L63,22.9648989 L62.9949073,22.7886261 C62.9036609,21.2138189 61.5976809,19.9648989 60,19.9648989 L59.506,19.964 L59.4722425,16.9885829 C59.4628129,16.1627173 58.5129776,15.7036633 57.8599936,16.2093854 Z M53.9651787,21.7555135 L57.495,19.021 L57.5176433,20.976316 C57.5238979,21.5241115 57.9697469,21.9648989 58.5175781,21.9648989 L60,21.9648989 C60.5522847,21.9648989 61,22.4126142 61,22.9648989 L61,39.2227114 C61,39.6326103 60.6677113,39.9648989 60.2578125,39.9648989 L59.515625,39.9648989 L59.3663627,39.9703847 C58.3315028,40.0467338 57.515625,40.9105371 57.515625,41.9648989 L57.515,43.379 L53.5493883,40.3714239 C53.2016536,40.107667 52.7771856,39.9648989 52.3407373,39.9648989 L37,39.9648989 C36.4477153,39.9648989 36,39.5171837 36,38.9648989 L36,22.9648989 C36,22.4126142 36.4477153,21.9648989 37,21.9648989 L53.3528646,21.9648989 C53.5745351,21.9648989 53.7899227,21.8912455 53.9651787,21.7555135 Z" id="Rectangle-Copy-2" transform="translate(48.500000, 31.196742) rotate(-180.000000) translate(-48.500000, -31.196742) "></path>
            <path d="M16.3269217,6.79225398 C16.4416567,6.25201854 16.9726151,5.90708224 17.5128505,6.0218172 C18.053086,6.13655216 18.3980223,6.66751057 18.2832873,7.20774602 C17.2271521,12.1806128 13.8450513,15.5096846 8.27783332,17.119836 C7.74729241,17.2732791 7.19281381,16.9675809 7.0393707,16.43704 C6.8859276,15.9064991 7.19162577,15.3520205 7.72216668,15.1985774 C12.6103333,13.7848213 15.4316355,11.0077552 16.3269217,6.79225398 Z" id="Path-71"></path>
            <path d="M16,49.3550345 C16.5522847,49.3550345 17,49.8027497 17,50.3550345 C17,50.8678703 16.6139598,51.2905416 16.1166211,51.3483068 L16,51.3550345 L11.6153846,51.3550345 C9.87377614,51.3550345 9.15846154,52.1045667 9.15846154,53.9773219 C9.15846154,55.7831931 9.82359463,56.5446387 11.4326967,56.5967242 L11.6153846,56.5996094 L17.4635661,56.5996094 C18.0158508,56.5996094 18.4635661,57.0473246 18.4635661,57.5996094 C18.4635661,58.1124452 18.0775259,58.5351165 17.5801872,58.5928816 L17.4635661,58.5996094 L11.6153846,58.5996094 C8.74776232,58.5996094 7.15846154,56.9342833 7.15846154,53.9773219 C7.15846154,51.1048452 8.65824252,49.4512504 11.3727263,49.3591041 L11.6153846,49.3550345 L16,49.3550345 Z" id="Path-72"></path>
            <path d="M12.3071873,46.0010657 C14.1094695,44.4863511 16.7575819,45.6079605 17.4103634,47.3488882 C17.6042663,47.866015 17.3422415,48.4424184 16.8251147,48.6363212 C16.3449255,48.8163739 15.8136254,48.6033052 15.5849258,48.1579076 L15.5376816,48.0510725 C15.3248907,47.4835725 14.2124074,47.0123795 13.5939687,47.5321417 C12.8720848,48.1388437 13.1573176,49.25685 13.8953528,49.3489639 L13.9941406,49.3550345 C14.5464254,49.3550345 14.9941406,49.8027497 14.9941406,50.3550345 C14.9941406,50.9073192 14.5464254,51.3550345 13.9941406,51.3550345 C11.2226831,51.3550345 10.1909801,47.7796164 12.3071873,46.0010657 Z" id="Path-73"></path>
            <path d="M48.5474404,25.592627 C48.8759723,24.8561137 49.87842,24.8027749 50.2973161,25.4512143 L50.3615133,25.5657887 L55.6799748,36.5994223 C55.9197831,37.0969265 55.7108793,37.6946364 55.2133751,37.9344447 C54.7514069,38.1571238 54.2030369,37.9929032 53.9350514,37.5699773 L53.8783527,37.467845 L49.495,28.375 L45.6827931,36.9241899 C45.4738776,37.3925433 44.9491369,37.6212905 44.4714045,37.4714428 L44.3621582,37.4300787 C43.8938048,37.2211632 43.6650576,36.6964225 43.8149053,36.2186901 L43.8562694,36.1094438 L48.5474404,25.592627 Z" id="Path-74"></path>
            <path d="M52.3151042,32.218099 C52.8673889,32.218099 53.3151042,32.6658142 53.3151042,33.218099 C53.3151042,33.7309348 52.929064,34.1536061 52.4317253,34.2113712 L52.3151042,34.218099 L48.657931,34.218099 C48.1056463,34.218099 47.657931,33.7703837 47.657931,33.218099 C47.657931,32.7052631 48.0439712,32.2825918 48.5413099,32.2248267 L48.657931,32.218099 L52.3151042,32.218099 Z" id="Path-75"></path>
        </g>
    </g>
</svg>