<?xml version="1.0" encoding="UTF-8"?>
<svg width="85px" height="85px" viewBox="0 0 85 85" version="1.1" xmlns="http://www.w3.org/2000/svg" xmlns:xlink="http://www.w3.org/1999/xlink">
    <!-- Generator: Sketch 63.1 (92452) - https://sketch.com -->
    <title>icon/non religious/clementine@3x</title>
    <desc>Created with Sketch.</desc>
    <g id="icon/non-religious/clementine" stroke="none" stroke-width="1" fill="none" fill-rule="evenodd">
        <g id="Group" transform="translate(11.000000, 13.000000)" fill="#25204f" fill-rule="nonzero">
            <path d="M6.309,3.677 L2.02831953,3.83757775 L1.91489765,3.84773991 C1.06785787,3.96928736 0.746181953,5.07227553 1.44807165,5.62339707 L4.817,8.268 L3.64661333,12.3898126 L3.62200131,12.4964227 C3.47177405,13.3417133 4.42338963,13.9916052 5.16572198,13.4935096 L8.723,11.106 L12.2803523,13.4935096 L12.374139,13.5498614 C13.1316354,13.9539452 14.0437847,13.2497326 13.7994609,12.3898126 L12.628,8.268 L15.9980026,5.62339707 L16.0837897,5.548508 C16.6976154,4.95229656 16.3095365,3.87088402 15.4177547,3.83757775 L11.136,3.677 L9.66189791,-0.34429702 C9.34128725,-1.21856766 8.10478701,-1.21856766 7.78417635,-0.34429702 L6.309,3.677 Z M8.723,2.903 L9.4901312,4.9962516 L9.53838047,5.10678027 C9.70160758,5.42663443 10.0266375,5.63762464 10.39167,5.65125787 L12.617,5.734 L10.8657602,7.11035751 L10.7662228,7.19986555 C10.5193474,7.45371811 10.4228003,7.82313849 10.521403,8.17017992 L11.13,10.312 L9.28021874,9.07195309 L9.1643328,9.00494693 C8.84661598,8.84859923 8.46544161,8.87093461 8.16585552,9.07195309 L6.315,10.312 L6.92467123,8.17017992 L6.95258715,8.0392598 C7.00310275,7.68877904 6.86407118,7.3331627 6.58031405,7.11035751 L4.828,5.734 L7.05440427,5.65125787 C7.45999595,5.63610983 7.81620169,5.37731121 7.95594306,4.9962516 L8.723,2.903 Z" id="Star"></path>
            <path d="M51.309,47.677 L47.0283195,47.8375777 L46.9148976,47.8477399 C46.0678579,47.9692874 45.746182,49.0722755 46.4480717,49.6233971 L49.817,52.268 L48.6466133,56.3898126 L48.6220013,56.4964227 C48.4717741,57.3417133 49.4233896,57.9916052 50.165722,57.4935096 L53.723,55.106 L57.2803523,57.4935096 L57.374139,57.5498614 C58.1316354,57.9539452 59.0437847,57.2497326 58.7994609,56.3898126 L57.628,52.268 L60.9980026,49.6233971 L61.0837897,49.548508 C61.6976154,48.9522966 61.3095365,47.870884 60.4177547,47.8375777 L56.136,47.677 L54.6618979,43.655703 C54.3412872,42.7814323 53.104787,42.7814323 52.7841764,43.655703 L51.309,47.677 Z M53.723,46.903 L54.4901312,48.9962516 L54.5383805,49.1067803 C54.7016076,49.4266344 55.0266375,49.6376246 55.39167,49.6512579 L57.617,49.734 L55.8657602,51.1103575 L55.7662228,51.1998656 C55.5193474,51.4537181 55.4228003,51.8231385 55.521403,52.1701799 L56.13,54.312 L54.2802187,53.0719531 L54.1643328,53.0049469 C53.846616,52.8485992 53.4654416,52.8709346 53.1658555,53.0719531 L51.315,54.312 L51.9246712,52.1701799 L51.9525871,52.0392598 C52.0031028,51.688779 51.8640712,51.3331627 51.5803141,51.1103575 L49.828,49.734 L52.0544043,49.6512579 C52.4599959,49.6361098 52.8162017,49.3773112 52.9559431,48.9962516 L53.723,46.903 Z" id="Star-Copy"></path>
            <path d="M20.7230371,30.5 C24.0367456,30.5 26.7230371,33.1862915 26.7230371,36.5 C26.7230371,39.8137085 24.0367456,42.5 20.7230371,42.5 C17.4093286,42.5 14.7230371,39.8137085 14.7230371,36.5 C14.7230371,33.1862915 17.4093286,30.5 20.7230371,30.5 Z M20.7230371,32.5 C18.5138981,32.5 16.7230371,34.290861 16.7230371,36.5 C16.7230371,38.709139 18.5138981,40.5 20.7230371,40.5 C22.9321761,40.5 24.7230371,38.709139 24.7230371,36.5 C24.7230371,34.290861 22.9321761,32.5 20.7230371,32.5 Z" id="Oval"></path>
            <path d="M50.0217752,25.8132607 L50.4862451,23.8679413 L51.2834093,24.0646486 C58.3533202,25.8674528 62.582773,28.5429954 62.582773,31.8408016 C62.582773,35.3192272 57.8719225,38.1094646 50.0904758,39.9066015 C44.6890824,41.1540615 38.0601188,41.8408016 31.1269297,41.8398263 L28.1841512,41.9640682 L27.082957,42.0054509 L27.012497,40.0066924 L30.6846399,39.8581134 C30.8149098,39.852471 30.9476142,39.8467005 31.082773,39.8408016 C37.9148435,39.8408016 44.3938781,39.1695937 49.6404196,37.957897 C56.5434667,36.3636278 60.582773,33.9711461 60.582773,31.8408016 C60.582773,29.7960087 56.8527906,27.500206 50.4114982,25.9079445 L50.0217752,25.8132607 Z" id="Oval-Copy" transform="translate(44.797635, 32.936696) rotate(8.000000) translate(-44.797635, -32.936696) "></path>
            <path d="M10.805498,19.2037273 L11.3205757,21.1362632 L10.5753349,21.3418661 C5.09186183,22.9076123 2,24.9959611 2,26.8508202 C2,28.8327967 5.52256727,31.0719275 11.68953,32.6621021 C13.0482295,33.0124479 14.5133202,33.3265438 16.0661221,33.5999826 L16.8497458,33.7332934 L16.5255901,35.7068494 C14.6232435,35.3943898 12.8350053,35.022886 11.1901566,34.5987555 C4.18104749,32.7914302 0,30.1337344 0,26.8508202 C0,23.6894788 3.87341655,21.1113283 10.4174817,19.3088588 L10.805498,19.2037273 Z" id="Oval-Copy" transform="translate(8.424873, 27.455288) rotate(8.000000) translate(-8.424873, -27.455288) "></path>
            <path d="M30.7230371,7.5 C42.8733016,7.5 52.7230371,17.3497355 52.7230371,29.5 C52.7230371,41.6502645 42.8733016,51.5 30.7230371,51.5 C18.5727726,51.5 8.72303713,41.6502645 8.72303713,29.5 C8.72303713,17.3497355 18.5727726,7.5 30.7230371,7.5 Z M30.7230371,9.5 C19.6773421,9.5 10.7230371,18.454305 10.7230371,29.5 C10.7230371,40.545695 19.6773421,49.5 30.7230371,49.5 C41.7687321,49.5 50.7230371,40.545695 50.7230371,29.5 C50.7230371,18.454305 41.7687321,9.5 30.7230371,9.5 Z" id="Oval"></path>
        </g>
    </g>
</svg>