<?xml version="1.0" encoding="UTF-8"?>
<svg width="85px" height="85px" viewBox="0 0 85 85" version="1.1" xmlns="http://www.w3.org/2000/svg" xmlns:xlink="http://www.w3.org/1999/xlink">
    <!-- Generator: Sketch 63.1 (92452) - https://sketch.com -->
    <title>icon/theater/clementine@3x</title>
    <desc>Created with Sketch.</desc>
    <g id="icon/theater/clementine" stroke="none" stroke-width="1" fill="none" fill-rule="evenodd">
        <g id="Group-2" transform="translate(6.000000, 11.000000)" fill="#25204f" fill-rule="nonzero">
            <path d="M35,6.07141635 L4,6.07141635 C1.23857625,6.07141635 -1,8.3099926 -1,11.0714163 L-1,35.5714163 C-1,46.8932537 8.17816263,56.0714163 19.5,56.0714163 C30.8218374,56.0714163 40,46.8932537 40,35.5714163 L40,11.0714163 C40,8.3099926 37.7614237,6.07141635 35,6.07141635 Z M4,8.07141635 L35,8.07141635 C36.6568542,8.07141635 38,9.4145621 38,11.0714163 L38,35.5714163 C38,45.7886842 29.7172679,54.0714163 19.5,54.0714163 C9.28273213,54.0714163 1,45.7886842 1,35.5714163 L1,11.0714163 C1,9.4145621 2.34314575,8.07141635 4,8.07141635 Z" id="Rectangle"></path>
            <g id="Group" transform="translate(44.242481, 31.500000) rotate(31.000000) translate(-44.242481, -31.500000) translate(24.742481, 7.000000)">
                <path d="M35,-1 C37.6887547,-1 39.8818181,1.12230671 39.9953805,3.78311038 L40,4 L40,27.1780324 C40,39.1110857 30.4265567,48.8091651 18.5395041,49.0084132 L18.1785897,49.011536 L18.1774816,47.0115363 C29.0116749,47.0055338 37.8129685,38.3134067 37.9970584,27.5231081 L38,27.1780324 L38,4 C38,2.40231912 36.75108,1.09633912 35.1762728,1.00509269 L35,1 L4.01695425,1.00040381 C2.41948842,1.02661685 1.13417515,2.29679582 1.06877876,3.87288817 L1.06657885,4.04922079 L1.12526783,7.62582423 L-0.874462968,7.65863809 L-0.933151949,4.08203465 C-0.977266159,1.39364186 1.10877344,-0.833946897 3.76735575,-0.991149602 L4.06617504,-1 L35,-1 Z" id="Rectangle-Copy"></path>
                <path d="M27.1928223,23.3674842 C28.3401576,22.511382 29.3785605,22.2059545 30.4569668,22.6555028 C31.086797,22.918056 31.6446044,23.4250912 32.1685011,24.180855 L32.3246909,24.4150503 L32.4214731,24.6092627 C35.1121966,31.8988956 27.0671753,41.1160511 18.8718494,41.1160511 L17.6373393,41.1102873 C13.7776184,41.0691589 12.4331434,40.7818449 12.4674069,39.4374798 L12.472544,39.3346578 L14.4671888,39.4809179 C14.4859843,39.2245916 14.3872535,39.0002208 14.2406313,38.857416 L14.1805146,38.8038898 C14.1672564,38.7935179 14.1606391,38.7896706 14.1602428,38.7895116 C14.2880099,38.8407522 14.5501385,38.8984019 14.9243941,38.9474712 C15.7725997,39.0586809 17.0937159,39.1160511 18.8718494,39.1160511 C25.6939735,39.1160511 32.5462736,31.3584413 30.6187199,25.5122799 L30.582,25.407 L30.5209073,25.314493 C30.2424582,24.9132002 29.9928555,24.6666511 29.7775732,24.5457396 L29.6874265,24.5015276 L29.4993755,24.4199788 C29.1926807,24.3023526 28.9903545,24.4361985 27.1600483,26.077709 L25.779522,27.3193677 C23.392768,29.4662847 21.3063827,30.6031292 18.7035581,30.6906417 L18.3754561,30.6961126 L18.3754561,28.6961126 C20.4395116,28.6961126 22.1349261,27.8485072 24.1632704,26.0793827 L24.7060075,25.5923215 L25.8437369,24.5273882 C26.403499,24.0056354 26.7996473,23.6608578 27.1928223,23.3674842 Z" id="Oval-Copy-2" transform="translate(22.708536, 31.782523) scale(-1, 1) rotate(-180.000000) translate(-22.708536, -31.782523) "></path>
                <path d="M15.2439404,11.1168157 C14.9556286,11.2453312 14.0027955,12.0250715 13.9376197,12.0718078 C13.2992388,12.5295778 12.6950546,12.7689318 12,12.7689318 C11.3821737,12.7689318 10.8361462,12.5798126 10.2740789,12.2162796 L10.0623803,12.0718078 C9.99720445,12.0250715 9.04437143,11.2453312 8.75605965,11.1168157 C7.47315632,10.5449595 7,11.4819256 7,12.7774835 C7,15.5389072 9.23857625,17.7774835 12,17.7774835 C14.7614237,17.7774835 17,15.5389072 17,12.7774835 C17,11.4819256 16.5268437,10.5449595 15.2439404,11.1168157 Z M14.6614808,13.9906012 L14.775,13.918 L14.7642451,13.9452189 C14.3088203,15.021964 13.2426407,15.7774835 12,15.7774835 L11.8237272,15.7723908 C10.7258224,15.7087767 9.78631274,15.0547501 9.31797107,14.1230836 L9.224,13.918 L9.33851923,13.9906012 C10.1546905,14.4894287 11.012191,14.7689318 12,14.7689318 C12.987809,14.7689318 13.8453095,14.4894287 14.6614808,13.9906012 Z" id="Oval-Copy-3"></path>
                <path d="M31.2439404,11.1168157 C30.9556286,11.2453312 30.0027955,12.0250715 29.9376197,12.0718078 C29.2992388,12.5295778 28.6950546,12.7689318 28,12.7689318 C27.3821737,12.7689318 26.8361462,12.5798126 26.2740789,12.2162796 L26.0623803,12.0718078 C25.9972045,12.0250715 25.0443714,11.2453312 24.7560596,11.1168157 C23.4731563,10.5449595 23,11.4819256 23,12.7774835 C23,15.5389072 25.2385763,17.7774835 28,17.7774835 C30.7614237,17.7774835 33,15.5389072 33,12.7774835 C33,11.4819256 32.5268437,10.5449595 31.2439404,11.1168157 Z M30.6614808,13.9906012 L30.775,13.918 L30.7642451,13.9452189 C30.3088203,15.021964 29.2426407,15.7774835 28,15.7774835 L27.8237272,15.7723908 C26.7258224,15.7087767 25.7863127,15.0547501 25.3179711,14.1230836 L25.224,13.918 L25.3385192,13.9906012 C26.1546905,14.4894287 27.012191,14.7689318 28,14.7689318 C28.987809,14.7689318 29.8453095,14.4894287 30.6614808,13.9906012 Z" id="Oval-Copy-4"></path>
            </g>
            <path d="M27.9277605,31.6692202 C27.5837324,31.9259221 27.2374278,32.2219802 26.7812302,32.6415174 L25.4409457,33.8940575 C25.350154,33.977472 25.2634583,34.0563228 25.1769306,34.1341556 C23.0232312,36.0714369 21.2682705,36.9978486 19.1103943,36.9978486 C17.0354189,36.9978486 15.3891157,36.1759914 13.4218562,34.4388315 L13.0325057,34.0856432 C12.624589,33.7036791 11.4586569,32.5985944 11.1003797,32.288489 C10.2824861,31.5805643 9.6099788,31.1542099 8.88651664,30.9680272 C7.55348092,30.6249709 6.3363605,31.1972571 5.21275298,32.6438569 L5.09692448,32.7929815 L5.04344891,32.9740746 C2.89053483,40.2648429 11.4567054,49.4177872 19.6067876,49.4177872 C27.8021135,49.4177872 35.8471348,40.2006316 33.1564113,32.9109987 L33.0596291,32.7167863 C32.4903838,31.8306791 31.8847182,31.2460473 31.191905,30.9572388 C30.1134987,30.5076905 29.0750958,30.813118 27.9277605,31.6692202 Z M30.5125113,32.8474756 C30.7277937,32.9683871 30.9773964,33.2149362 31.2558454,33.616229 L31.316,33.707 L31.2801487,33.6035581 C33.4463318,39.4721209 26.511106,47.4177872 19.6067876,47.4177872 L19.3596799,47.4144094 C12.6853677,47.2325564 5.59915885,39.7448239 6.85104195,33.9729455 L6.912,33.719 L7.0360982,33.5741515 C7.58289373,32.951149 7.9820019,32.8004178 8.38805889,32.9049164 C8.74327258,32.9963305 9.18764439,33.2780522 9.79148657,33.8007055 L10.0923169,34.0723174 C10.6446944,34.5806644 11.6154232,35.5023211 11.804483,35.6745921 C14.2265962,37.8816185 16.3400425,38.9978486 19.1103943,38.9978486 C21.7576736,38.9978486 23.8544799,37.9468809 26.2176212,35.8842047 L26.5144602,35.6211037 C30.1157235,32.3817194 29.8631789,32.5701595 30.4223647,32.8032636 L30.5125113,32.8474756 Z" id="Oval"></path>
            <path d="M15.2439404,18.1882321 C14.9556286,18.3167475 14.0027955,19.0964878 13.9376197,19.1432241 C13.2992388,19.6009942 12.6950546,19.8403481 12,19.8403481 C11.3049454,19.8403481 10.7007612,19.6009942 10.0623803,19.1432241 L9.49289595,18.6963953 C9.21050174,18.4795538 8.90021554,18.2524898 8.75605965,18.1882321 C7.47315632,17.6163759 7,18.553342 7,19.8488998 C7,22.6103236 9.23857625,24.8488998 12,24.8488998 C14.7614237,24.8488998 17,22.6103236 17,19.8488998 C17,18.553342 16.5268437,17.6163759 15.2439404,18.1882321 Z M14.774,20.989 L14.7642451,21.0166352 C14.3088203,22.0933803 13.2426407,22.8488998 12,22.8488998 L11.8237272,22.8438071 C10.6572033,22.7762172 9.66949276,22.0421068 9.23575487,21.0166352 L9.225,20.989 L9.33851923,21.0620176 C10.1546905,21.560845 11.012191,21.8403481 12,21.8403481 C12.987809,21.8403481 13.8453095,21.560845 14.6614808,21.0620176 L14.774,20.989 Z" id="Oval"></path>
            <path d="M31.2439404,18.1882321 C30.9556286,18.3167475 30.0027955,19.0964878 29.9376197,19.1432241 C29.2992388,19.6009942 28.6950546,19.8403481 28,19.8403481 C27.3049454,19.8403481 26.7007612,19.6009942 26.0623803,19.1432241 L25.4928959,18.6963953 C25.2105017,18.4795538 24.9002155,18.2524898 24.7560596,18.1882321 C23.4731563,17.6163759 23,18.553342 23,19.8488998 C23,22.6103236 25.2385763,24.8488998 28,24.8488998 C30.7614237,24.8488998 33,22.6103236 33,19.8488998 C33,18.553342 32.5268437,17.6163759 31.2439404,18.1882321 Z M30.774,20.989 L30.7642451,21.0166352 C30.3088203,22.0933803 29.2426407,22.8488998 28,22.8488998 L27.8237272,22.8438071 C26.6572033,22.7762172 25.6694928,22.0421068 25.2357549,21.0166352 L25.225,20.989 L25.3385192,21.0620176 C26.1546905,21.560845 27.012191,21.8403481 28,21.8403481 C28.987809,21.8403481 29.8453095,21.560845 30.6614808,21.0620176 L30.774,20.989 Z" id="Oval-Copy"></path>
        </g>
    </g>
</svg>