<?xml version="1.0" encoding="UTF-8"?>
<svg width="85px" height="85px" viewBox="0 0 85 85" version="1.1" xmlns="http://www.w3.org/2000/svg" xmlns:xlink="http://www.w3.org/1999/xlink">
    <!-- Generator: Sketch 63.1 (92452) - https://sketch.com -->
    <title>icon/religious/clementine@3x</title>
    <desc>Created with Sketch.</desc>
    <g id="icon/religious/clementine" stroke="none" stroke-width="1" fill="none" fill-rule="evenodd">
        <g id="Group-4" transform="translate(6.000000, 18.000000)" fill="#EE7552" fill-rule="nonzero">
            <path d="M22.2937454,10.3221599 C25.3445266,10.3221599 28.3769051,11.8100388 31.3832265,14.7223982 C31.7799006,15.1066743 31.7899511,15.7397595 31.405675,16.1364335 C31.0213989,16.5331076 30.3883137,16.5431582 29.9916396,16.1588821 C27.4280852,13.675451 24.9560916,12.4171407 22.5688238,12.3273391 L22.2937454,12.3221599 L2.05625896,12.3221599 L2.0861981,12.5404844 C2.51720498,15.3410623 4.5985367,16.7490212 8.67384532,16.819383 L8.99972908,16.8221599 L20.2665906,16.8221599 C20.8188753,16.8221599 21.2665906,17.2698751 21.2665906,17.8221599 C21.2665906,18.3349957 20.8805504,18.757667 20.3832117,18.8154322 L20.2665906,18.8221599 L8.99972908,18.8221599 C3.68139609,18.8221599 0.571689561,16.7140034 0.0706772856,12.561745 C0.0610846372,12.4822436 0.0562753262,12.4022379 0.0562753262,12.3221599 C0.0562753262,11.2677757 0.872179882,10.4039559 1.90703419,10.3276405 L2.05629551,10.3221599 L22.2937454,10.3221599 Z" id="Path-45"></path>
            <path d="M9.93905527,16.8398686 C10.4815598,16.7363925 11.0052305,17.0922954 11.1087066,17.6347999 C11.8266473,21.3988216 13.9869024,23.2317218 17.8341745,23.3188924 L18.1258869,23.3221599 L24.8855637,23.3221599 C25.4378485,23.3221599 25.8855637,23.7698751 25.8855637,24.3221599 C25.8855637,24.8349957 25.4995235,25.257667 25.0021848,25.3154322 L24.8855637,25.3221599 L18.1258869,25.3221599 C13.1430548,25.3221599 10.0612945,22.8180643 9.14412391,18.0095199 C9.04064786,17.4670153 9.39655075,16.9433446 9.93905527,16.8398686 Z" id="Path-46"></path>
            <path d="M17.2388869,23.9533422 L19.2382241,24.0048275 C19.122828,28.4860236 20.7996028,30.5585485 24.5067477,30.6447125 L24.7513991,30.64752 L24.7513991,32.64752 C19.7762299,32.64752 17.1902309,29.7111604 17.2336211,24.2643316 L17.2388869,23.9533422 Z" id="Path-47"></path>
            <path d="M23.144,36.696 L23.1199749,36.7018424 C22.6082688,36.773186 22.0412099,36.4878115 21.9723264,35.8457187 L21.965,35.712 L21.9692828,35.5079625 C22.0896997,32.3478614 24.9792895,28.119859 30.5999941,22.6393903 L30.9704335,22.2801908 L32.3587774,23.7198092 L31.6228433,24.4378137 C27.3090153,28.6972467 24.8267431,32.0799555 24.1534494,34.4764509 L24.098,34.684 L25.4557381,34.6888617 L27.9752333,34.7126089 L27.9524364,36.712479 L24.6270166,36.6847272 L23.6788333,36.6857838 L23.26,36.691 C23.2069166,36.7473692 23.1839504,36.7491299 23.1651162,36.7281241 L23.144,36.696 Z" id="Path-44"></path>
            <path d="M27.5603105,34.9689944 L28.3673591,36.7989322 C26.3174785,37.7029811 25.2420975,38.8461019 25.0114179,40.2756185 C24.9896789,40.4103345 22.9891429,40.2395002 23.0393769,39.9317238 C23.374756,37.876907 24.8211722,36.253704 27.2649445,35.1035623 L27.5603105,34.9689944 Z" id="Path-44-Copy" transform="translate(25.702903, 37.645577) scale(1, -1) translate(-25.702903, -37.645577) "></path>
            <path d="M36.4638348,0.322159889 C41.1582552,0.322159889 44.9638348,1.88916326 44.9638348,3.82215989 C44.9638348,5.75515651 41.1582552,7.32215989 36.4638348,7.32215989 C31.7694145,7.32215989 27.9638348,5.75515651 27.9638348,3.82215989 C27.9638348,1.88916326 31.7694145,0.322159889 36.4638348,0.322159889 Z M36.4638348,2.32215989 C34.4265249,2.32215989 32.5412775,2.65049795 31.2149268,3.19664235 C30.728653,3.39687276 30.3563027,3.61179854 30.1198654,3.80935232 L30.105,3.822 L30.1198654,3.83496746 C30.322526,4.00429927 30.6250409,4.18639418 31.0135628,4.36105817 L31.2149268,4.44767743 C32.5412775,4.99382183 34.4265249,5.32215989 36.4638348,5.32215989 C38.5011447,5.32215989 40.3863922,4.99382183 41.7127429,4.44767743 C42.129549,4.27605136 42.4626562,4.0936287 42.6982169,3.92060347 L42.821,3.822 L42.8078043,3.80935232 C42.6051437,3.64002051 42.3026288,3.45792559 41.9141069,3.28326161 L41.7127429,3.19664235 C40.3863922,2.65049795 38.5011447,2.32215989 36.4638348,2.32215989 Z" id="Oval"></path>
            <path d="M36.4638348,11.3221599 C40.0536857,11.3221599 42.9638348,14.232309 42.9638348,17.8221599 C42.9638348,21.4120108 40.0536857,24.3221599 36.4638348,24.3221599 C32.873984,24.3221599 29.9638348,21.4120108 29.9638348,17.8221599 C29.9638348,14.232309 32.873984,11.3221599 36.4638348,11.3221599 Z M36.4638348,13.3221599 C33.9785535,13.3221599 31.9638348,15.3368785 31.9638348,17.8221599 C31.9638348,20.3074413 33.9785535,22.3221599 36.4638348,22.3221599 C38.9491162,22.3221599 40.9638348,20.3074413 40.9638348,17.8221599 C40.9638348,15.3368785 38.9491162,13.3221599 36.4638348,13.3221599 Z" id="Oval"></path>
            <path d="M39.9889248,21.5447591 L41.9387449,21.0995607 L48.1287939,48.2099039 L47.3365341,48.5281042 C44.9624982,49.4816031 41.4246938,49.9446991 36.692219,49.9446991 C32.1613529,49.9446991 28.5875143,49.5195171 25.9548055,48.6535454 L25.6306174,48.543002 L24.7906046,48.2461288 L30.9889248,21.0995607 L32.9387449,21.5447591 L27.143,46.926 L27.2110446,46.9460994 C29.4503155,47.5777468 32.4354325,47.913403 36.1557455,47.9426122 L36.692219,47.9446991 C40.5250821,47.9446991 43.4947766,47.630297 45.5822003,47.0183724 L45.79,46.954 L39.9889248,21.5447591 Z" id="Path-41"></path>
            <path d="M63.5701472,9.64431978 C66.6209284,9.64431978 69.6533069,11.1321987 72.6596283,14.044558 C73.0563023,14.4288341 73.0663529,15.0619193 72.6820768,15.4585934 C72.2978007,15.8552675 71.6647155,15.865318 71.2680414,15.4810419 C68.7044869,12.9976109 66.2324934,11.7393006 63.8452256,11.649499 L63.5701472,11.6443198 L43.3326607,11.6443198 L43.3625999,11.8626443 C43.7936068,14.6632222 45.8749385,16.0711811 49.9502471,16.1415428 L50.2761309,16.1443198 L61.5429924,16.1443198 C62.0952771,16.1443198 62.5429924,16.592035 62.5429924,17.1443198 C62.5429924,17.6571556 62.1569522,18.0798269 61.6596135,18.137592 L61.5429924,18.1443198 L50.2761309,18.1443198 C44.9577979,18.1443198 41.8480913,16.0361633 41.3470791,11.8839048 C41.3374864,11.8044035 41.3326771,11.7243978 41.3326771,11.6443198 C41.3326771,10.5899356 42.1485817,9.72611583 43.183436,9.64980036 L43.3326973,9.64431978 L63.5701472,9.64431978 Z" id="Path-45" transform="translate(57.148256, 13.894320) scale(-1, 1) translate(-57.148256, -13.894320) "></path>
            <path d="M47.8909112,16.1620285 C48.4334157,16.0585524 48.9570864,16.4144553 49.0605625,16.9569598 C49.7785032,20.7209815 51.9387583,22.5538817 55.7860304,22.6410523 L56.0777428,22.6443198 L62.8374196,22.6443198 C63.3897044,22.6443198 63.8374196,23.092035 63.8374196,23.6443198 C63.8374196,24.1571556 63.4513794,24.5798269 62.9540407,24.637592 L62.8374196,24.6443198 L56.0777428,24.6443198 C51.0949107,24.6443198 48.0131504,22.1402242 47.0959798,17.3316797 C46.9925038,16.7891752 47.3484067,16.2655045 47.8909112,16.1620285 Z" id="Path-46" transform="translate(55.457754, 20.394228) scale(-1, 1) translate(-55.457754, -20.394228) "></path>
            <path d="M47.2184122,23.2755021 L49.2177494,23.3269874 C49.1023533,27.8081835 50.7791281,29.8807084 54.486273,29.9668724 L54.7309244,29.9696799 C54.7309244,30.2088819 54.7309244,30.3882834 54.7309244,30.5078844 C54.7309244,30.9951496 54.1368756,31.9589027 53.853058,31.937443 C49.4520725,31.6046811 47.1723849,28.7033371 47.2131464,23.5864915 L47.2184122,23.2755021 Z" id="Path-47" transform="translate(50.971767, 27.606649) scale(-1, 1) translate(-50.971767, -27.606649) "></path>
            <path d="M41.478,36.019 L41.4538483,36.0240023 C40.9421422,36.0953459 40.3750833,35.8099714 40.3061998,35.1678786 L40.299,35.034 L40.3031563,34.8301224 C40.4235731,31.6700213 43.3131629,27.4420189 48.9338675,21.9615502 L49.3043069,21.6023507 L50.6926508,23.0419691 L49.9567167,23.7599736 C45.6428887,28.0194066 43.1606165,31.4021154 42.4873228,33.7986108 L42.433,34.006 L44.778311,34.0189069 L46.3091067,34.0347688 L46.2863098,36.0346389 L42.96089,36.006887 L42.0127067,36.0079437 L41.594,36.014 C41.5408153,36.0696971 41.5178289,36.0713234 41.4989907,36.0502908 L41.478,36.019 Z" id="Path-44" transform="translate(45.495825, 28.832545) scale(-1, 1) translate(-45.495825, -28.832545) "></path>
            <path d="M48.5464762,34.2691187 L49.3535248,36.0990565 C47.3061904,37.0019825 46.2309362,38.1433868 45.9984471,39.5704172 C45.9762212,39.706841 43.9668748,39.6564215 44.0004153,39.4022094 C44.2821865,37.2665921 45.7401889,35.5854315 48.2511102,34.4036866 L48.5464762,34.2691187 Z" id="Path-44-Copy" transform="translate(46.676762, 36.956719) scale(-1, -1) translate(-46.676762, -36.956719) "></path>
        </g>
    </g>
</svg>