<?xml version="1.0" encoding="UTF-8"?>
<svg width="85px" height="85px" viewBox="0 0 85 85" version="1.1" xmlns="http://www.w3.org/2000/svg" xmlns:xlink="http://www.w3.org/1999/xlink">
    <!-- Generator: Sketch 63.1 (92452) - https://sketch.com -->
    <title>icon/library/clementine@3x</title>
    <desc>Created with Sketch.</desc>
    <g id="icon/library/clementine" stroke="none" stroke-width="1" fill="none" fill-rule="evenodd">
        <g id="Group" transform="translate(10.000000, 7.000000)" fill="#EE7552" fill-rule="nonzero">
            <path d="M53,35 L6.01425,35 L5.84452328,35.0145088 C1.38369885,35.7827766 -1,38.2100781 -1,42.1242626 C-1,46.0550965 1.40734015,48.4027936 5.88615599,48.9812686 L6.01425,48.9895065 L53.0019079,48.9895065 L53.1349488,48.9822893 C54.2894935,48.8562508 54.2878375,47.1203036 53.1312612,46.996014 L52.9980921,46.9895084 C49.9048693,46.9954099 48.5,45.4655056 48.5,42 C48.5,38.5337964 49.9059801,37 53,37 C54.3333333,37 54.3333333,35 53,35 Z M47.986,36.999 L47.9570464,37.033325 C46.9953247,38.208612 46.5,39.8777974 46.5,42 L46.503069,42.2866188 C46.5433313,44.1490434 46.979397,45.6465224 47.7904303,46.7496715 L47.977,46.989 L6.084,46.989 L6.14234401,46.9977445 C2.60215985,46.5405014 1,44.9780358 1,42.1242626 L1.0039887,41.8811976 C1.09181885,39.2401216 2.63273983,37.6746786 5.88371544,37.0405753 L6.107,36.999 L47.986,36.999 Z" id="Rectangle"></path>
            <path d="M65,47 L18.01425,47 C13.4672721,47 11,49.3030365 11,53.6139074 C11,57.941341 13.4926598,60.1696617 18.0537006,59.9895857 L65.001752,59.9903626 L65.1348039,59.9831672 C66.2894485,59.857296 66.2879277,58.1211746 65.131271,57.997 L64.998248,57.9903657 C61.8845492,57.9958208 60.5,56.6136973 60.5,53.5 C60.5,50.3856181 61.8856181,49 65,49 C66.3333333,49 66.3333333,47 65,47 Z M59.865,49 L59.7653973,49.1242226 C58.9312001,50.1976798 58.5,51.6656733 58.5,53.5 L58.503232,53.7724375 C58.5441479,55.480397 58.9731263,56.8558483 59.7658839,57.8745511 L59.86,57.99 L18.01425,57.9903641 C14.5168402,58.1276675 13,56.7716837 13,53.6139074 C13,50.4395685 14.5422279,49 18.01425,49 L59.865,49 Z" id="Rectangle-Copy"></path>
            <path d="M59,58 L12.01425,58 L11.8446269,58.014491 C7.38373932,58.7822868 5,61.2096294 5,65.1242626 C5,69.0555407 7.40737576,71.4033017 11.8862498,71.9813536 L12.01425,71.9895794 L59.0018946,71.9895794 L59.1349365,71.9823639 C60.2894897,71.8563397 60.2878452,70.1203776 59.131262,69.9960215 L58.9981054,69.9895812 C55.904877,69.9954418 54.5,68.4655104 54.5,65 C54.5,61.5337964 55.9059801,60 59,60 C60.3333333,60 60.3333333,58 59,58 Z M53.986,59.999 L53.9570464,60.033325 C52.9953247,61.208612 52.5,62.8777974 52.5,65 L52.503069,65.2866186 C52.5433312,67.1490415 52.9793954,68.6465236 53.7904267,69.7496812 L53.977,69.989 L12.084,69.989 L12.1422502,69.9978053 C8.60212424,69.54091 7,67.9784598 7,65.1242626 L7.00398861,64.8811628 C7.09181659,62.2397161 8.63269986,60.6743091 11.8836172,60.04056 L12.107,59.999 L53.986,59.999 Z" id="Rectangle-Copy-2"></path>
            <polygon id="Path-2" points="7 36 7 48 5 48 5 36"></polygon>
            <polygon id="Path-2-Copy" points="19 48 19 59 17 59 17 48"></polygon>
            <path d="M29.0662246,7.77718933 L28.9523278,7.76712908 C28.8154355,7.75616024 28.6462109,7.74550151 28.4536691,7.73666842 C27.9006415,7.71129761 27.2750588,7.70573454 26.601683,7.72851149 C24.6801854,7.7935062 22.7721074,8.0711045 21.030511,8.62221089 C16.1848791,10.1555503 13.5711459,13.4202938 14.0561766,19.1372943 C14.5807128,25.31994 16.1311502,29.3367787 18.3864954,31.5973827 C19.9160268,33.1304805 21.5984465,33.7142901 23.2823909,33.7142901 C24.1105845,33.7142901 24.6669253,33.5839245 25.6741556,33.196624 L26.0863972,33.0346852 C27.2513369,32.573863 27.9829515,32.3688867 28.9388893,32.3379242 L29.2056555,32.3337327 L29.2056555,34.3337327 C28.4882124,34.3337327 27.9702646,34.4540062 27.0757948,34.7957055 L26.67272,34.9536501 C25.2787508,35.5061651 24.492275,35.7142901 23.2823909,35.7142901 C21.102752,35.7142901 18.9093249,34.9531579 16.970636,33.0099485 C14.3442916,30.3774803 12.6246239,25.9222036 12.0633359,19.306367 C11.4926508,12.5797689 14.749192,8.51211137 20.4271248,6.71540069 C22.3613573,6.10333705 24.4439165,5.8003542 26.5340716,5.72965464 C27.2625754,5.70501298 27.9410102,5.71104605 28.5453251,5.73876973 L28.9420569,5.76102197 L29.3542448,5.79796872 L29.4462156,5.81674723 L29.5211162,5.83974245 L29.754789,5.9509607 L29.9554197,7.44898628 L29.459343,7.75430954 L29.3503483,7.77647173 L29.241778,7.78633123 L29.2052563,7.7869914 L29.2052563,5.7869914 L29.0613706,5.79745886 L28.9525073,5.81959571 L28.4565149,6.12486974 L28.657108,7.62281485 L28.8626085,7.72608894 L28.9417118,7.7513237 L29.0662246,7.77718933 Z" id="Path-3"></path>
            <path d="M42.5938279,5.72965464 C43.3223317,5.70501298 44.0007664,5.71104605 44.6050814,5.73876973 L45.0018132,5.76102197 L45.414001,5.79796872 L45.5059718,5.81674723 L45.5808725,5.83974245 L45.8145453,5.9509607 L46.0151759,7.44898628 L45.5190992,7.75430954 L45.4101045,7.77647173 L45.3015343,7.78633123 L45.2650125,7.7869914 L45.2650125,5.7869914 L45.1211269,5.79745886 L45.0122635,5.81959571 L44.5162712,6.12486974 L44.7168642,7.62281485 L44.9223647,7.72608894 L45.001468,7.7513237 L45.1017809,7.77484924 L45.012084,7.76712908 C44.8751918,7.75616024 44.7059672,7.74550151 44.5134254,7.73666842 C43.9603978,7.71129761 43.3348151,7.70573454 42.6614392,7.72851149 C40.7399417,7.7935062 38.8318637,8.0711045 37.0902672,8.62221089 C32.2446354,10.1555503 29.6309022,13.4202938 30.1159329,19.1372943 C30.640469,25.31994 32.1909064,29.3367787 34.4462516,31.5973827 C35.975783,33.1304805 37.6582028,33.7142901 39.3421471,33.7142901 C40.1013246,33.7142901 40.6320703,33.6047468 41.4910796,33.2881696 L42.1461534,33.0346852 C43.3110931,32.573863 44.0427077,32.3688867 44.9986456,32.3379242 L45.2654118,32.3337327 L45.2654118,34.3337327 C44.5479686,34.3337327 44.0300209,34.4540062 43.135551,34.7957055 L42.7324762,34.9536501 C41.3385071,35.5061651 40.5520313,35.7142901 39.3421471,35.7142901 C37.1625083,35.7142901 34.9690812,34.9531579 33.0303922,33.0099485 C30.4040478,30.3774803 28.6843802,25.9222036 28.1230921,19.306367 C27.552407,12.5797689 30.8089482,8.51211137 36.486881,6.71540069 C38.4211136,6.10333705 40.5036728,5.8003542 42.5938279,5.72965464 Z" id="Path-3-Copy" transform="translate(37.036926, 20.714229) scale(-1, 1) translate(-37.036926, -20.714229) "></path>
            <polygon id="Path-2-Copy-2" points="13 59 13 71 11 71 11 59"></polygon>
            <path d="M23.2517844,10.3365444 C23.6182008,9.9233163 24.2502275,9.88536794 24.6634556,10.2517844 C25.9837565,11.4225178 27.51297,12 29.2961403,12 C31.0383364,12 32.321481,11.4544291 33.2311294,10.3605956 C33.5842627,9.9359601 34.2147689,9.87799609 34.6394044,10.2311294 C35.0640399,10.5842627 35.1220039,11.2147689 34.7688706,11.6394044 C33.4608788,13.2122376 31.608117,14 29.2961403,14 C27.0251379,14 25.0235912,13.2441489 23.3365444,11.7482156 C22.9233163,11.3817992 22.8853679,10.7497725 23.2517844,10.3365444 Z" id="Path-67"></path>
            <path d="M22.0487225,-0.308335897 C22.2190117,-0.83371198 22.7829598,-1.12156676 23.3083359,-0.951277549 C24.8229677,-0.460342628 26.2326005,0.547992196 27.5399205,2.05153449 C28.9010129,3.61692035 29.7324534,6.27676878 30.1068445,10.0514582 C30.1613552,10.6010462 29.7600157,11.090765 29.2104277,11.1452757 C28.6608396,11.1997864 28.1711208,10.7984469 28.1166101,10.2488588 C27.779434,6.84937856 27.0599149,4.54757618 26.0306557,3.36383009 C24.9476238,2.11824044 23.8337313,1.32145374 22.6916641,0.951277549 C22.166288,0.780988335 21.8784332,0.217040186 22.0487225,-0.308335897 Z" id="Path-66"></path>
        </g>
    </g>
</svg>