<?xml version="1.0" encoding="UTF-8"?>
<svg width="85px" height="85px" viewBox="0 0 85 85" version="1.1" xmlns="http://www.w3.org/2000/svg" xmlns:xlink="http://www.w3.org/1999/xlink">
    <!-- Generator: Sketch 63.1 (92452) - https://sketch.com -->
    <title>icon/after school care/clementine@3x</title>
    <desc>Created with Sketch.</desc>
    <g id="icon/after-school-care/clementine" stroke="none" stroke-width="1" fill="none" fill-rule="evenodd">
        <g id="Group-2" transform="translate(3.000000, 6.000000)" fill="#EE7552" fill-rule="nonzero">
            <g id="Group" transform="translate(27.500000, 22.000000) rotate(-23.000000) translate(-27.500000, -22.000000) translate(1.000000, 16.000000)">
                <path d="M44,0.639809087 L44,11.3601909 L52.59655,8.67376904 C53.4315004,8.41284704 54,7.63957903 54,6.76480909 L54,5.23519091 C54,4.36042097 53.4315004,3.58715296 52.59655,3.32623096 L44,0.639809087 Z M46,8.639 L46,3.36 L52,5.23519091 L52,6.76480909 L46,8.639 Z" id="Rectangle"></path>
                <path d="M44,0 C45.1045695,0 46,0.8954305 46,2 L46,10 C46,11.1045695 45.1045695,12 44,12 L3,12 C1.34314575,12 0,10.6568542 0,9 L0,3 C0,1.34314575 1.34314575,0 3,0 L44,0 Z M44,2 L3,2 C2.48716416,2 2.06449284,2.38604019 2.00672773,2.88337887 L2,3 L2,9 C2,9.51283584 2.38604019,9.93550716 2.88337887,9.99327227 L3,10 L44,10 L44,2 Z" id="Rectangle"></path>
                <polygon id="Path-51" points="7.5 1 7.5 11 5.5 11 5.5 1"></polygon>
                <polygon id="Path-52" points="10.5 1 10.5 11 8.5 11 8.5 1"></polygon>
                <polygon id="Path-51-Copy" points="38.5 1 38.5 11 36.5 11 36.5 1"></polygon>
                <polygon id="Path-52-Copy" points="41.5 1 41.5 11 39.5 11 39.5 1"></polygon>
            </g>
            <g id="Group-Copy-2" transform="translate(36.500000, 47.000000) rotate(-56.000000) translate(-36.500000, -47.000000) translate(10.000000, 41.000000)">
                <path d="M44,0.639809087 L44,11.3601909 L52.59655,8.67376904 C53.4315004,8.41284704 54,7.63957903 54,6.76480909 L54,5.23519091 C54,4.36042097 53.4315004,3.58715296 52.59655,3.32623096 L44,0.639809087 Z M46,8.639 L46,3.36 L52,5.23519091 L52,6.76480909 L46,8.639 Z" id="Rectangle"></path>
                <path d="M44,0 C45.1045695,0 46,0.8954305 46,2 L46,10 C46,11.1045695 45.1045695,12 44,12 L3,12 C1.34314575,12 0,10.6568542 0,9 L0,3 C0,1.34314575 1.34314575,0 3,0 L44,0 Z M44,2 L3,2 C2.48716416,2 2.06449284,2.38604019 2.00672773,2.88337887 L2,3 L2,9 C2,9.51283584 2.38604019,9.93550716 2.88337887,9.99327227 L3,10 L44,10 L44,2 Z" id="Rectangle"></path>
                <polygon id="Path-51" points="7.5 1 7.5 11 5.5 11 5.5 1"></polygon>
                <polygon id="Path-52" points="10.5 1 10.5 11 8.5 11 8.5 1"></polygon>
                <polygon id="Path-51-Copy" points="38.5 1 38.5 11 36.5 11 36.5 1"></polygon>
                <polygon id="Path-52-Copy" points="41.5 1 41.5 11 39.5 11 39.5 1"></polygon>
            </g>
            <g id="Group-Copy" transform="translate(65.500000, 28.000000) rotate(-285.000000) translate(-65.500000, -28.000000) translate(39.000000, 22.000000)">
                <path d="M44,0.639809087 L44,11.3601909 L52.59655,8.67376904 C53.4315004,8.41284704 54,7.63957903 54,6.76480909 L54,5.23519091 C54,4.36042097 53.4315004,3.58715296 52.59655,3.32623096 L44,0.639809087 Z M46,8.639 L46,3.36 L52,5.23519091 L52,6.76480909 L46,8.639 Z" id="Rectangle"></path>
                <path d="M44,0 C45.1045695,0 46,0.8954305 46,2 L46,10 C46,11.1045695 45.1045695,12 44,12 L3,12 C1.34314575,12 0,10.6568542 0,9 L0,3 C0,1.34314575 1.34314575,0 3,0 L44,0 Z M44,2 L3,2 C2.48716416,2 2.06449284,2.38604019 2.00672773,2.88337887 L2,3 L2,9 C2,9.51283584 2.38604019,9.93550716 2.88337887,9.99327227 L3,10 L44,10 L44,2 Z" id="Rectangle"></path>
                <polygon id="Path-51" points="7.5 1 7.5 11 5.5 11 5.5 1"></polygon>
                <polygon id="Path-52" points="10.5 1 10.5 11 8.5 11 8.5 1"></polygon>
                <polygon id="Path-51-Copy" points="38.5 1 38.5 11 36.5 11 36.5 1"></polygon>
                <polygon id="Path-52-Copy" points="41.5 1 41.5 11 39.5 11 39.5 1"></polygon>
            </g>
        </g>
    </g>
</svg>