<?xml version="1.0" encoding="UTF-8"?>
<svg width="85px" height="85px" viewBox="0 0 85 85" version="1.1" xmlns="http://www.w3.org/2000/svg" xmlns:xlink="http://www.w3.org/1999/xlink">
    <!-- Generator: Sketch 63.1 (92452) - https://sketch.com -->
    <title>icon/music/clementine@3x</title>
    <desc>Created with Sketch.</desc>
    <g id="icon/music/clementine" stroke="none" stroke-width="1" fill="none" fill-rule="evenodd">
        <g id="Group-2" transform="translate(6.000000, 11.000000)" fill="#EE7552" fill-rule="nonzero">
            <path d="M34.5,12 L33.5567141,12.0044222 C18.2123679,12.1486077 6,15.8051927 6,21 C6,26.3008238 18.7159182,30 34.5,30 L35.4432859,29.9955778 C50.7876321,29.8513923 63,26.1948073 63,21 C63,15.6991762 50.2840818,12 34.5,12 Z M34.5,14 L35.4276446,14.0046721 C49.5929299,14.147448 61,17.5394961 61,21 C61,24.5357322 49.0915795,28 34.5,28 L33.5723554,27.9953279 C19.4070701,27.852552 8,24.4605039 8,21 C8,17.4642678 19.9084205,14 34.5,14 Z" id="Oval"></path>
            <path d="M34.5,24 L35.4432859,24.0044222 C50.7876321,24.1486077 63,27.8051927 63,33 C63,33.5522847 62.5522847,34 62,34 C61.4871642,34 61.0644928,33.6139598 61.0067277,33.1166211 L61,33 C61,29.4642678 49.0915795,26 34.5,26 L33.5723554,26.0046721 C19.4070701,26.147448 8,29.5394961 8,33 C8,33.5522847 7.55228475,34 7,34 C6.44771525,34 6,33.5522847 6,33 C6,27.6991762 18.7159182,24 34.5,24 Z" id="Oval-Copy" transform="translate(34.500000, 29.000000) scale(1, -1) translate(-34.500000, -29.000000) "></path>
            <path d="M34.5,48 L35.4432859,48.0044222 C50.7876321,48.1486077 63,51.8051927 63,57 C63,57.5522847 62.5522847,58 62,58 C61.4871642,58 61.0644928,57.6139598 61.0067277,57.1166211 L61,57 C61,53.4642678 49.0915795,50 34.5,50 L33.5723554,50.0046721 C19.4070701,50.147448 8,53.5394961 8,57 C8,57.5522847 7.55228475,58 7,58 C6.44771525,58 6,57.5522847 6,57 C6,51.6991762 18.7159182,48 34.5,48 Z" id="Oval-Copy-2" transform="translate(34.500000, 53.000000) scale(1, -1) translate(-34.500000, -53.000000) "></path>
            <path d="M35,47.386696 L35.9286781,47.3909043 C49.6303771,47.5155692 60,50.4020243 60,54.9818182 C60,55.5341029 59.5522847,55.9818182 59,55.9818182 C58.4871642,55.9818182 58.0644928,55.595778 58.0067277,55.0984393 L58,54.9818182 C58,52.1336527 48.1332172,49.4498222 35.4488423,49.3877927 L35,49.386696 C22.2099108,49.386696 12.019905,52.0515042 11.7873418,54.882982 L11.7832797,54.9818182 C11.7832797,55.5341029 11.3355645,55.9818182 10.7832797,55.9818182 C10.230995,55.9818182 9.78327971,55.5341029 9.78327971,54.9818182 C9.78327971,50.307353 20.7905029,47.386696 35,47.386696 Z" id="Oval-Copy-4" transform="translate(34.891640, 51.684257) scale(1, -1) translate(-34.891640, -51.684257) "></path>
            <path d="M58.3694808,44.9837989 C58.652265,44.5094029 59.2660808,44.3540709 59.7404768,44.6368551 C61.8266405,45.8804032 63,47.3419784 63,49 C63,49.5522847 62.5522847,50 62,50 C61.4871642,50 61.0644928,49.6139598 61.0067277,49.1166211 L61,49 C61,48.1962415 60.2606723,47.2753105 58.7164246,46.3547949 C58.2420286,46.0720107 58.0866966,45.4581949 58.3694808,44.9837989 Z" id="Oval-Copy-2"></path>
            <path d="M10.3401799,44.0515437 C10.8352879,43.8068265 11.4350348,44.0098083 11.679752,44.5049163 C11.9244693,45.0000242 11.7214875,45.5997711 11.2263795,45.8444883 C9.15692098,46.8673605 8.09080873,47.9420012 8.00555885,48.8786294 L8,49 C8,49.5522847 7.55228475,50 7,50 C6.44771525,50 6,49.5522847 6,49 C6,47.0745476 7.57045005,45.4205394 10.3401799,44.0515437 Z" id="Oval-Copy-2"></path>
            <path d="M34.5,53 L35.4432859,53.0044222 C50.7876321,53.1486077 63,56.8051927 63,62 C63,62.5522847 62.5522847,63 62,63 C61.4871642,63 61.0644928,62.6139598 61.0067277,62.1166211 L61,62 C61,58.4642678 49.0915795,55 34.5,55 L33.5723554,55.0046721 C19.4070701,55.147448 8,58.5394961 8,62 C8,62.5522847 7.55228475,63 7,63 C6.44771525,63 6,62.5522847 6,62 C6,56.6991762 18.7159182,53 34.5,53 Z" id="Oval-Copy-3" transform="translate(34.500000, 58.000000) scale(1, -1) translate(-34.500000, -58.000000) "></path>
            <path d="M7,48 C7.51283584,48 7.93550716,48.3860402 7.99327227,48.8833789 L8,49 L8,54 C8,54.5522847 7.55228475,55 7,55 C6.48716416,55 6.06449284,54.6139598 6.00672773,54.1166211 L6,54 L6,49 C6,48.4477153 6.44771525,48 7,48 Z" id="Path-99"></path>
            <path d="M62,48 C62.5128358,48 62.9355072,48.3860402 62.9932723,48.8833789 L63,49 L63,54 C63,54.5522847 62.5522847,55 62,55 C61.4871642,55 61.0644928,54.6139598 61.0067277,54.1166211 L61,54 L61,49 C61,48.4477153 61.4477153,48 62,48 Z" id="Path-100"></path>
            <path d="M7,20.4300644 C7.51283584,20.4300644 7.93550716,20.8161046 7.99327227,21.3134432 L8,21.4300644 L8,25 C8,25.5522847 7.55228475,26 7,26 C6.48716416,26 6.06449284,25.6139598 6.00672773,25.1166211 L6,25 L6,21.4300644 C6,20.8777796 6.44771525,20.4300644 7,20.4300644 Z" id="Path-101"></path>
            <path d="M62,20.4300644 C62.5128358,20.4300644 62.9355072,20.8161046 62.9932723,21.3134432 L63,21.4300644 L63,25 C63,25.5522847 62.5522847,26 62,26 C61.4871642,26 61.0644928,25.6139598 61.0067277,25.1166211 L61,25 L61,21.4300644 C61,20.8777796 61.4477153,20.4300644 62,20.4300644 Z" id="Path-101-Copy"></path>
            <path d="M10.7832797,28 C11.2961155,28 11.7187869,28.3860402 11.776552,28.8833789 L11.7832797,29 L11.7832797,48.5363283 C11.7832797,49.0886131 11.3355645,49.5363283 10.7832797,49.5363283 C10.2704439,49.5363283 9.84777254,49.1502882 9.79000744,48.6529495 L9.78327971,48.5363283 L9.78327971,29 C9.78327971,28.4477153 10.230995,28 10.7832797,28 Z" id="Path-102"></path>
            <path d="M59,28 C59.5128358,28 59.9355072,28.3860402 59.9932723,28.8833789 L60,29 L60,48.5363283 C60,49.0886131 59.5522847,49.5363283 59,49.5363283 C58.4871642,49.5363283 58.0644928,49.1502882 58.0067277,48.6529495 L58,48.5363283 L58,29 C58,28.4477153 58.4477153,28 59,28 Z" id="Path-102-Copy"></path>
            <path d="M11.3109533,29.2279372 C11.6990756,28.8973945 12.2667094,28.915055 12.6333869,29.2504355 L12.7206495,29.3408822 L34.0054612,54.3334426 C34.3635492,54.7539084 34.312982,55.3850509 33.8925162,55.7431388 C33.504394,56.0736815 32.9367602,56.056021 32.5700826,55.7206404 L32.48282,55.6301938 L11.1980083,30.6376334 C10.8399203,30.2171676 10.8904876,29.5860251 11.3109533,29.2279372 Z" id="Path-103"></path>
            <g id="Group" transform="translate(0.000000, 5.000000)">
                <path d="M0.605572809,1.0527864 C0.834919969,0.594092085 1.36922917,0.388685784 1.83989576,0.559435722 L1.9472136,0.605572809 L27.9472136,13.6055728 C28.4411921,13.8525621 28.6414164,14.4532351 28.3944272,14.9472136 C28.16508,15.4059079 27.6307708,15.6113142 27.1601042,15.4405643 L27.0527864,15.3944272 L1.0527864,2.39442719 C0.558807907,2.14743794 0.35858356,1.5467649 0.605572809,1.0527864 Z" id="Path-103-Copy-2"></path>
                <path d="M28.5,12 C26.5670034,12 25,13.5670034 25,15.5 C25,17.4329966 26.5670034,19 28.5,19 C30.4329966,19 32,17.4329966 32,15.5 C32,13.5670034 30.4329966,12 28.5,12 Z" id="Oval"></path>
            </g>
            <g id="Group-Copy" transform="translate(51.000000, 12.500000) scale(-1, 1) rotate(10.000000) translate(-51.000000, -12.500000) translate(35.000000, 3.000000)">
                <path d="M0.605572809,1.0527864 C0.834919969,0.594092085 1.36922917,0.388685784 1.83989576,0.559435722 L1.9472136,0.605572809 L27.9472136,13.6055728 C28.4411921,13.8525621 28.6414164,14.4532351 28.3944272,14.9472136 C28.16508,15.4059079 27.6307708,15.6113142 27.1601042,15.4405643 L27.0527864,15.3944272 L1.0527864,2.39442719 C0.558807907,2.14743794 0.35858356,1.5467649 0.605572809,1.0527864 Z" id="Path-103-Copy-2"></path>
                <path d="M28.5,12 C26.5670034,12 25,13.5670034 25,15.5 C25,17.4329966 26.5670034,19 28.5,19 C30.4329966,19 32,17.4329966 32,15.5 C32,13.5670034 30.4329966,12 28.5,12 Z" id="Oval"></path>
            </g>
            <path d="M36.3516244,29.2279372 C36.7397467,28.8973945 37.3073804,28.915055 37.674058,29.2504355 L37.7613206,29.3408822 L59.0461323,54.3334426 C59.4042203,54.7539084 59.3536531,55.3850509 58.9331873,55.7431388 C58.545065,56.0736815 57.9774313,56.056021 57.6107537,55.7206404 L57.5234911,55.6301938 L36.2386794,30.6376334 C35.8805914,30.2171676 35.9311586,29.5860251 36.3516244,29.2279372 Z" id="Path-103-Copy" transform="translate(47.642406, 42.485538) scale(-1, 1) translate(-47.642406, -42.485538) "></path>
            <path d="M33.9022242,32.1983366 C34.3449707,31.8681942 34.9715209,31.9594778 35.3016634,32.4022242 C35.6064102,32.8109133 35.5520722,33.3762162 35.1936772,33.7204335 L35.0977758,33.8016634 L12.5571047,50.6095496 C12.1143582,50.939692 11.487808,50.8484084 11.1576656,50.405662 C10.8529187,49.996973 10.9072567,49.4316701 11.2656517,49.0874527 L11.3615532,49.0062229 L33.9022242,32.1983366 Z" id="Path-104"></path>
            <path d="M56.9428953,32.1983366 C57.3856418,31.8681942 58.012192,31.9594778 58.3423344,32.4022242 C58.6470813,32.8109133 58.5927433,33.3762162 58.2343483,33.7204335 L58.1384468,33.8016634 L35.5977758,50.6095496 C35.1550293,50.939692 34.5284791,50.8484084 34.1983366,50.405662 C33.8935898,49.996973 33.9479278,49.4316701 34.3063228,49.0874527 L34.4022242,49.0062229 L56.9428953,32.1983366 Z" id="Path-104-Copy" transform="translate(46.270336, 41.403943) scale(-1, 1) translate(-46.270336, -41.403943) "></path>
        </g>
    </g>
</svg>