<svg xmlns="http://www.w3.org/2000/svg" width="70" height="70" viewBox="0 0 70 70">
    <g fill="#EE7552">
        <path d="M22.235 10.706h-14c-1.364 0-2.47 1.106-2.47 2.47v9.517c0 1.364 1.106 2.47 2.47 2.47h9.399l3.519 2.67c.542.411 1.321.024 1.321-.657v-2.013h.292c1.072 0 1.94-.868 1.94-1.939V13.176c0-1.364-1.106-2.47-2.47-2.47zm-14 1.647h14c.455 0 .824.369.824.823v10.048c0 .161-.131.292-.293.292h-.292l-.123.005c-.852.063-1.524.774-1.524 1.642v.355l-2.198-1.667c-.286-.217-.636-.335-.995-.335H8.235c-.455 0-.823-.368-.823-.823v-9.517c0-.454.368-.823.823-.823zM40.353 4.118h21.412c1.364 0 2.47 1.106 2.47 2.47v14.91c0 1.365-1.106 2.471-2.47 2.471H47.512l-5.122 3.865c-.542.41-1.32.022-1.32-.658V23.97h-.77c-1.335 0-2.418-1.082-2.418-2.418V6.588c0-1.364 1.106-2.47 2.47-2.47zm21.412 1.647H40.353c-.455 0-.824.368-.824.823v14.963c0 .426.345.771.771.771h.77l.124.005c.852.062 1.524.774 1.524 1.642v1.554l3.802-2.869c.286-.215.634-.332.992-.332h14.253c.455 0 .823-.369.823-.824V6.588c0-.455-.368-.823-.823-.823zM26.086 49.418c.42.05.728.406.726.818l-.005.097-1.654 13.902h18.105l-1.87-13.89c-.057-.418.211-.806.61-.908l.095-.018c.419-.056.806.212.908.612l.018.094 1.998 14.824c.062.463-.272.878-.724.928l-.092.005H24.226c-.46 0-.824-.375-.823-.823l.006-.097 1.762-14.824c.05-.42.407-.727.819-.726l.096.006zM33.984 28c4.655 0 8.429 3.687 8.429 8.235 0 4.549-3.774 8.236-8.43 8.236-4.655 0-8.428-3.687-8.428-8.236 0-4.548 3.773-8.235 8.429-8.235zm0 1.647c-3.754 0-6.782 2.958-6.782 6.588s3.028 6.589 6.782 6.589 6.782-2.959 6.782-6.589c0-3.63-3.028-6.588-6.782-6.588z"/>
        <path d="M33.195 51.604l-2.366 6.588c-.193.537.205 1.102.775 1.102h4.867c.576 0 .974-.577.77-1.116L34.74 51.59c-.272-.715-1.287-.706-1.545.014zm.796 2.654l1.287 3.39h-2.504l1.217-3.39zM35.478 29.473c.096-.444.534-.727.978-.63.445.095.727.533.631.978-.912 4.224-4.386 6.054-10.081 5.49-.453-.046-.783-.449-.738-.901.045-.453.448-.784.9-.739 4.943.49 7.6-.908 8.31-4.198z"/>
        <path d="M51.26 28.824c.423 0 .771.317.819.727l.005.096v10.917c0 4.02-3.2 7.293-7.193 7.408l-.218.004h-5.054v3.906c0 .703-.814 1.07-1.338.644l-.07-.063-4.115-4.143-4.116 4.143c-.495.499-1.33.185-1.402-.487l-.005-.094v-4.19l-4.69.001c-4.021 0-7.294-3.2-7.41-7.193l-.002-.219V29.647c0-.455.368-.823.823-.823.422 0 .77.317.818.727l.006.096v10.634c0 3.118 2.474 5.657 5.566 5.762l.198.003h5.514c.423 0 .77.318.818.727l.006.097v3.015l3.292-3.313c.297-.3.767-.323 1.09-.07l.078.07 3.292 3.313v-2.733c0-.422.318-.77.728-.818l.096-.005h5.877c3.117 0 5.656-2.475 5.76-5.567l.004-.198V29.647c0-.455.369-.823.824-.823z"/>
    </g>
</svg>
