<?xml version="1.0" encoding="UTF-8"?>
<svg width="85px" height="85px" viewBox="0 0 85 85" version="1.1" xmlns="http://www.w3.org/2000/svg" xmlns:xlink="http://www.w3.org/1999/xlink">
    <!-- Generator: Sketch 63.1 (92452) - https://sketch.com -->
    <title>icon/visual arts/clementine@3x</title>
    <desc>Created with Sketch.</desc>
    <g id="icon/visual-arts/clementine" stroke="none" stroke-width="1" fill="none" fill-rule="evenodd">
        <g id="Group" transform="translate(13.689502, 3.282750)" fill="#EE7552" fill-rule="nonzero">
            <path d="M46.4522653,44.6657125 C50.5402191,42.1433603 55.8436392,43.4818336 57.6077403,46.9848581 C59.2001381,50.1469269 58.7125702,53.4009371 56.2298706,56.589799 L56.0121837,56.8629668 L54.4620579,55.5991986 C56.6601204,52.9030765 57.082483,50.3884637 55.821461,47.8844171 C54.6241838,45.5069505 50.789895,44.4931378 47.7111809,46.2441004 L47.5024792,46.3677849 L46.4522653,44.6657125 Z" id="Oval"></path>
            <path d="M29.3104984,22.71725 C34.8893191,22.71725 39.0627752,23.7309626 42.1084979,26.0216286 C43.4464926,27.0279247 44.3727142,28.1575992 44.9047266,29.3918207 C45.9799364,31.8862118 45.393634,34.4872631 43.8163338,36.9560513 C43.2755072,37.8025525 42.7335847,38.4604589 42.3272004,38.8809937 L42.2094878,38.9999842 L40.8053681,37.5757483 L40.9612146,37.41181 C41.0284502,37.3381329 41.1100087,37.2458459 41.2029987,37.1362123 C41.5189553,36.7637046 41.8359108,36.3410541 42.1309471,35.8792636 C43.3872384,33.9129182 43.8296443,31.9502444 43.0680895,30.183505 C42.6797352,29.2825576 41.9765363,28.4248948 40.9063581,27.6200215 C38.352129,25.6990043 34.7449124,24.779475 29.8242305,24.7203075 L29.3104984,24.71725 L29.3104984,22.71725 Z" id="Oval"></path>
            <path d="M21.6460862,23.1182099 L22.0162601,25.0836542 C9.18323061,27.5006409 1,37.8212899 1,50.1702335 C1,58.8407477 5.02276875,65.2088866 13.1720629,69.4002204 L13.513,69.573 L13.9112733,69.6903706 C26.9600037,73.4515424 39.3341597,70.0368991 51.1432565,59.3742673 L51.5750447,58.9809371 L52.928327,60.4535629 C40.4922869,71.8817708 27.259071,75.6248371 13.3423917,71.6078222 L12.8566491,71.464546 L12.700238,71.4026476 C3.60312013,66.8837458 -1,59.7622532 -1,50.1702335 C-1,37.0116324 7.67138992,25.9424042 21.2295189,23.1995668 L21.6460862,23.1182099 Z" id="Oval"></path>
            <path d="M15.8104984,31.71725 C13.0490747,31.71725 10.8104984,33.9558263 10.8104984,36.71725 C10.8104984,39.4786738 13.0490747,41.71725 15.8104984,41.71725 C18.5719222,41.71725 20.8104984,39.4786738 20.8104984,36.71725 C20.8104984,33.9558263 18.5719222,31.71725 15.8104984,31.71725 Z M15.8104984,33.71725 C17.4673527,33.71725 18.8104984,35.0603958 18.8104984,36.71725 C18.8104984,38.3741043 17.4673527,39.71725 15.8104984,39.71725 C14.1536442,39.71725 12.8104984,38.3741043 12.8104984,36.71725 C12.8104984,35.0603958 14.1536442,33.71725 15.8104984,33.71725 Z" id="Oval"></path>
            <path d="M8.31049844,42.71725 C5.54907469,42.71725 3.31049844,44.9558263 3.31049844,47.71725 C3.31049844,50.4786738 5.54907469,52.71725 8.31049844,52.71725 C11.0719222,52.71725 13.3104984,50.4786738 13.3104984,47.71725 C13.3104984,44.9558263 11.0719222,42.71725 8.31049844,42.71725 Z M8.31049844,44.71725 C9.96735269,44.71725 11.3104984,46.0603958 11.3104984,47.71725 C11.3104984,49.3741043 9.96735269,50.71725 8.31049844,50.71725 C6.65364419,50.71725 5.31049844,49.3741043 5.31049844,47.71725 C5.31049844,46.0603958 6.65364419,44.71725 8.31049844,44.71725 Z" id="Oval-Copy"></path>
            <path d="M13.3104984,54.71725 C10.5490747,54.71725 8.31049844,56.9558263 8.31049844,59.71725 C8.31049844,62.4786738 10.5490747,64.71725 13.3104984,64.71725 C16.0719222,64.71725 18.3104984,62.4786738 18.3104984,59.71725 C18.3104984,56.9558263 16.0719222,54.71725 13.3104984,54.71725 Z M13.3104984,56.71725 C14.9673527,56.71725 16.3104984,58.0603958 16.3104984,59.71725 C16.3104984,61.3741043 14.9673527,62.71725 13.3104984,62.71725 C11.6536442,62.71725 10.3104984,61.3741043 10.3104984,59.71725 C10.3104984,58.0603958 11.6536442,56.71725 13.3104984,56.71725 Z" id="Oval-Copy-2"></path>
            <path d="M22.8104984,60.71725 C20.3252171,60.71725 18.3104984,62.7319686 18.3104984,65.21725 C18.3104984,67.7025314 20.3252171,69.71725 22.8104984,69.71725 C25.2957798,69.71725 27.3104984,67.7025314 27.3104984,65.21725 C27.3104984,62.7319686 25.2957798,60.71725 22.8104984,60.71725 Z M22.8104984,62.71725 C24.1912103,62.71725 25.3104984,63.8365381 25.3104984,65.21725 C25.3104984,66.5979619 24.1912103,67.71725 22.8104984,67.71725 C21.4297866,67.71725 20.3104984,66.5979619 20.3104984,65.21725 C20.3104984,63.8365381 21.4297866,62.71725 22.8104984,62.71725 Z" id="Oval-Copy-3"></path>
            <path d="M33.8104984,60.71725 C31.8775018,60.71725 30.3104984,62.2842534 30.3104984,64.21725 C30.3104984,66.1502466 31.8775018,67.71725 33.8104984,67.71725 C35.7434951,67.71725 37.3104984,66.1502466 37.3104984,64.21725 C37.3104984,62.2842534 35.7434951,60.71725 33.8104984,60.71725 Z M33.8104984,62.71725 C34.6389256,62.71725 35.3104984,63.3888229 35.3104984,64.21725 C35.3104984,65.0456771 34.6389256,65.71725 33.8104984,65.71725 C32.9820713,65.71725 32.3104984,65.0456771 32.3104984,64.21725 C32.3104984,63.3888229 32.9820713,62.71725 33.8104984,62.71725 Z" id="Oval-Copy-4"></path>
            <path d="M19.017442,5.02527162 C16.0294819,5.24033321 11.7922485,7.55509369 6.17595954,11.9529531 C5.66430429,12.3536069 5.66472929,13.1282064 6.1768239,13.5282985 C11.8385701,17.9517394 16.1353745,20.2790828 19.1919613,20.491558 C24.0857123,20.8317415 27.7924854,17.6310974 27.7924854,12.7402878 C27.7924854,7.90010948 23.875251,4.67562568 19.017442,5.02527162 Z M25.7924854,12.7402878 C25.7924854,16.4352144 23.1017887,18.7585188 19.3306543,18.4963727 L19.1373324,18.4793788 C16.8556328,18.2380213 13.4528954,16.4741515 9.01202622,13.175292 L8.431,12.739 L8.58305827,12.6240541 C13.3149236,9.04824079 16.8751506,7.18463917 19.1610227,7.02011111 C22.9127391,6.75007735 25.7924854,9.12054955 25.7924854,12.7402878 Z" id="Oval-Copy-11" transform="translate(16.792485, 12.757832) rotate(-308.000000) translate(-16.792485, -12.757832) "></path>
            <path d="M19.3822807,11.9229843 C19.8945504,11.7165912 20.4771418,11.9645533 20.6835349,12.4768231 C21.0738545,13.4456004 21.9036875,14.2754334 23.2198745,14.964636 C23.7091407,15.2208332 23.8980804,15.8251508 23.6418832,16.314417 C23.3856859,16.8036832 22.7813684,16.9926229 22.2921022,16.7364256 C20.581268,15.8405717 19.411101,14.6704047 18.8284418,13.2242385 C18.6220488,12.7119687 18.8700109,12.1293773 19.3822807,11.9229843 Z" id="Path-86" transform="translate(21.255958, 14.350500) rotate(-158.000000) translate(-21.255958, -14.350500) "></path>
            <g id="Group-2" transform="translate(40.588155, 41.652413) rotate(51.000000) translate(-40.588155, -41.652413) translate(11.588155, 37.652413)">
                <path d="M57.6159463,-0.097704694 L57.6769195,1.90136566 L2.48256658,3.58483659 C2.09914689,3.59653119 1.79096443,3.8911172 1.75209003,4.2623127 L1.74922661,4.38600978 C1.7761043,4.8500111 2.12630073,5.22396966 2.57587492,5.29028891 L2.69020924,5.30033365 L57.6755541,6.90225459 L57.6173116,8.90140637 L2.63196675,7.29948542 C1.15111865,7.25634299 -0.0617283304,6.13153966 -0.232042439,4.67766412 L-0.250759561,4.42626547 C-0.295472165,2.96031605 0.81234004,1.72674489 2.25383302,1.59591826 L2.42159337,1.58576623 L57.6159463,-0.097704694 Z" id="Path-55-Copy" transform="translate(28.712426, 4.401851) rotate(-180.000000) translate(-28.712426, -4.401851) "></path>
                <polygon id="Path-58" points="22.4501097 1.10405591 22.4501097 7.10405591 20.4501097 7.10405591 20.4501097 1.10405591"></polygon>
                <polygon id="Path-56-Copy" points="18.2307106 1.54753262 18.2307106 7.54753262 16.2307106 7.54753262 16.2307106 1.54753262"></polygon>
            </g>
        </g>
    </g>
</svg>