<?xml version="1.0" encoding="UTF-8"?>
<svg width="85px" height="85px" viewBox="0 0 85 85" version="1.1" xmlns="http://www.w3.org/2000/svg" xmlns:xlink="http://www.w3.org/1999/xlink">
    <!-- Generator: Sketch 63.1 (92452) - https://sketch.com -->
    <title>icon/computer/clementine@3x</title>
    <desc>Created with Sketch.</desc>
    <g id="icon/computer/clementine" stroke="none" stroke-width="1" fill="none" fill-rule="evenodd">
        <g id="Group" transform="translate(65.000000, 22.500000) scale(-1, 1) translate(-65.000000, -22.500000) translate(61.000000, 20.000000)"></g>
        <g id="Group-2" transform="translate(71.000000, 27.000000) scale(-1, 1) translate(-71.000000, -27.000000) translate(66.000000, 15.000000)"></g>
        <g id="Group-3" transform="translate(9.000000, 6.000000)" fill="#EE7552" fill-rule="nonzero">
            <polygon id="Path-91" points="32.3333333 33 32.3333333 36.7879747 30.3333333 36.7879747 30.3333333 33"></polygon>
            <path d="M42,3 L26,3 C21.581722,3 18,6.581722 18,11 L18,26 C18,30.418278 21.581722,34 26,34 L42,34 C46.418278,34 50,30.418278 50,26 L50,11 C50,6.581722 46.418278,3 42,3 Z M26,5 L42,5 C45.3137085,5 48,7.6862915 48,11 L48,26 C48,29.3137085 45.3137085,32 42,32 L26,32 C22.6862915,32 20,29.3137085 20,26 L20,11 C20,7.6862915 22.6862915,5 26,5 Z" id="Rectangle"></path>
            <path d="M18.8896797,12 L18.8896797,14 C17.8957356,14 17.0810232,14.7673818 17.0056853,15.7420024 L17,15.8896797 L17,20.4436536 C17,21.4375977 17.7673818,22.2523102 18.7420024,22.327648 L18.8896797,22.3333333 L18.8896797,24.3333333 C16.8086005,24.3333333 15.109239,22.6990056 15.0050612,20.643816 L15,20.4436536 L15,15.8896797 C15,13.8086005 16.6343278,12.109239 18.6895173,12.0050612 L18.8896797,12 Z" id="Path-88"></path>
            <path d="M35.8896797,-4 L35.8896797,-2 C34.8957356,-2 34.0810232,-1.23261821 34.0056853,-0.257997642 L34,-0.110320285 L34,4.44365362 C34,5.4375977 34.7673818,6.25231017 35.7420024,6.32764799 L35.8896797,6.33333333 L35.8896797,8.33333333 C33.8086005,8.33333333 32.109239,6.69900556 32.0050612,4.64381602 L32,4.44365362 L32,-0.110320285 C32,-2.19139949 33.6343278,-3.89076098 35.6895173,-3.99493877 L35.8896797,-4 Z" id="Path-88" transform="translate(33.944840, 2.166667) rotate(-270.000000) translate(-33.944840, -2.166667) "></path>
            <path d="M52.8896797,12 L52.8896797,14 C51.8957356,14 51.0810232,14.7673818 51.0056853,15.7420024 L51,15.8896797 L51,20.4436536 C51,21.4375977 51.7673818,22.2523102 52.7420024,22.327648 L52.8896797,22.3333333 L52.8896797,24.3333333 C50.8086005,24.3333333 49.109239,22.6990056 49.0050612,20.643816 L49,20.4436536 L49,15.8896797 C49,13.8086005 50.6343278,12.109239 52.6895173,12.0050612 L52.8896797,12 Z" id="Path-88" transform="translate(50.944840, 18.166667) scale(-1, 1) translate(-50.944840, -18.166667) "></path>
            <polygon id="Path-89" points="15 17.5917722 15 19.5917722 12.9572954 19.5917722 12.9572954 17.5917722"></polygon>
            <path d="M10.5,15 C8.56700338,15 7,16.5670034 7,18.5 C7,20.4329966 8.56700338,22 10.5,22 C12.4329966,22 14,20.4329966 14,18.5 C14,16.5670034 12.4329966,15 10.5,15 Z M10.5,17 C11.3284271,17 12,17.6715729 12,18.5 C12,19.3284271 11.3284271,20 10.5,20 C9.67157288,20 9,19.3284271 9,18.5 C9,17.6715729 9.67157288,17 10.5,17 Z" id="Oval"></path>
            <polygon id="Path-89" transform="translate(54.021352, 18.591772) scale(-1, 1) translate(-54.021352, -18.591772) " points="56.042705 17.5917722 56.042705 19.5917722 52 19.5917722 52 17.5917722"></polygon>
            <path d="M57.5,15 C55.5670034,15 54,16.5670034 54,18.5 C54,20.4329966 55.5670034,22 57.5,22 C59.4329966,22 61,20.4329966 61,18.5 C61,16.5670034 59.4329966,15 57.5,15 Z M57.5,17 C58.3284271,17 59,17.6715729 59,18.5 C59,19.3284271 58.3284271,20 57.5,20 C56.6715729,20 56,19.3284271 56,18.5 C56,17.6715729 56.6715729,17 57.5,17 Z" id="Oval" transform="translate(57.500000, 18.500000) scale(-1, 1) translate(-57.500000, -18.500000) "></path>
            <path d="M37,27 C37.5522847,27 38,27.4477153 38,28 C38,28.5128358 37.6139598,28.9355072 37.1166211,28.9932723 L37,29 L31.3333333,29 C30.7810486,29 30.3333333,28.5522847 30.3333333,28 C30.3333333,27.4871642 30.7193735,27.0644928 31.2167122,27.0067277 L31.3333333,27 L37,27 Z" id="Path-90"></path>
            <path d="M49,10 C49.5522847,10 50,10.4477153 50,11 C50,11.5128358 49.6139598,11.9355072 49.1166211,11.9932723 L49,12 L19,12 C18.4477153,12 18,11.5522847 18,11 C18,10.4871642 18.3860402,10.0644928 18.8833789,10.0067277 L19,10 L49,10 Z" id="Path-90-Copy"></path>
            <path d="M27,12 C23.6862915,12 21,14.6862915 21,18 C21,21.3137085 23.6862915,24 27,24 C30.3137085,24 33,21.3137085 33,18 C33,14.6862915 30.3137085,12 27,12 Z M27,14 C29.209139,14 31,15.790861 31,18 C31,20.209139 29.209139,22 27,22 C24.790861,22 23,20.209139 23,18 C23,15.790861 24.790861,14 27,14 Z" id="Oval"></path>
            <path d="M14,33 C17.7854517,33 20.8690987,36.0047834 20.995941,39.7593502 L21,40 L19,40 C19,37.2385763 16.7614237,35 14,35 C11.3112453,35 9.11818189,37.1223067 9.00461951,39.7831104 L9,40 L7,40 C7,36.1340068 10.1340068,33 14,33 Z" id="Oval"></path>
            <path d="M4,10 C6.209139,10 8,11.790861 8,14 C8,14.5522847 7.55228475,15 7,15 C6.48716416,15 6.06449284,14.6139598 6.00672773,14.1166211 L6,14 C6,12.8954305 5.1045695,12 4,12 C2.8954305,12 2,12.8954305 2,14 C2,14.5522847 1.55228475,15 1,15 C0.44771525,15 0,14.5522847 0,14 C0,11.790861 1.790861,10 4,10 Z" id="Oval-Copy-5" transform="translate(4.000000, 12.500000) rotate(-180.000000) translate(-4.000000, -12.500000) "></path>
            <path d="M64,10 C66.209139,10 68,11.790861 68,14 C68,14.5522847 67.5522847,15 67,15 C66.4871642,15 66.0644928,14.6139598 66.0067277,14.1166211 L66,14 C66,12.8954305 65.1045695,12 64,12 C62.8954305,12 62,12.8954305 62,14 C62,14.5522847 61.5522847,15 61,15 C60.4477153,15 60,14.5522847 60,14 C60,11.790861 61.790861,10 64,10 Z" id="Oval-Copy-6" transform="translate(64.000000, 12.500000) scale(-1, 1) rotate(-180.000000) translate(-64.000000, -12.500000) "></path>
            <path d="M57.8461966,13 C58.3590324,13 58.7817038,13.3860402 58.8394689,13.8833789 L58.8461966,14 L58.846,28.53 L64.6085019,34.2928932 C64.9689859,34.6533772 64.9967154,35.2206082 64.6916905,35.6128994 L64.6085019,35.7071068 C64.248018,36.0675907 63.6807869,36.0953203 63.2884957,35.7902954 L63.1942884,35.7071068 L57.1390898,29.6519083 C56.9828095,29.4956279 56.8835983,29.2929466 56.854869,29.0762455 L56.8461966,28.9448015 L56.8461966,14 C56.8461966,13.4477153 57.2939119,13 57.8461966,13 Z" id="Path-95-Copy" transform="translate(60.873796, 24.500000) scale(-1, 1) translate(-60.873796, -24.500000) "></path>
            <path d="M18.3535534,51.1464466 C21.5919503,51.1464466 24.2311252,53.7120215 24.3494149,56.9215083 L24.3535534,57.1464466 L22.3535534,57.1464466 C22.3535534,54.9373076 20.5626924,53.1464466 18.3535534,53.1464466 C16.211358,53.1464466 14.4624745,54.8304151 14.3584487,56.9468063 L14.3535534,57.1464466 L12.3535534,57.1464466 C12.3535534,53.8327381 15.0398449,51.1464466 18.3535534,51.1464466 Z" id="Oval-Copy-3" transform="translate(18.353553, 54.146447) rotate(-135.000000) translate(-18.353553, -54.146447) "></path>
            <path d="M50,51.1464466 C53.2383969,51.1464466 55.8775718,53.7120215 55.9958615,56.9215083 L56,57.1464466 L54,57.1464466 C54,54.9373076 52.209139,53.1464466 50,53.1464466 C47.8578046,53.1464466 46.1089211,54.8304151 46.0048953,56.9468063 L46,57.1464466 L44,57.1464466 C44,53.8327381 46.6862915,51.1464466 50,51.1464466 Z" id="Oval-Copy-4" transform="translate(50.000000, 54.146447) scale(-1, 1) rotate(-135.000000) translate(-50.000000, -54.146447) "></path>
            <path d="M54,33 C57.7854517,33 60.8690987,36.0047834 60.995941,39.7593502 L61,40 L59,40 C59,37.2385763 56.7614237,35 54,35 C51.3112453,35 49.1181819,37.1223067 49.0046195,39.7831104 L49,40 L47,40 C47,36.1340068 50.1340068,33 54,33 Z" id="Oval-Copy-2"></path>
            <path d="M40.5,12 C37.1862915,12 34.5,14.6862915 34.5,18 C34.5,21.3137085 37.1862915,24 40.5,24 C43.8137085,24 46.5,21.3137085 46.5,18 C46.5,14.6862915 43.8137085,12 40.5,12 Z M40.5,14 C42.709139,14 44.5,15.790861 44.5,18 C44.5,20.209139 42.709139,22 40.5,22 C38.290861,22 36.5,20.209139 36.5,18 C36.5,15.790861 38.290861,14 40.5,14 Z" id="Oval-Copy"></path>
            <polygon id="Path-91" points="38 33 38 36.7879747 36 36.7879747 36 33"></polygon>
            <path d="M60,39 L8,39 C7.11663211,39 6.66712886,40.0615901 7.28189824,40.6959381 L33.4485649,67.6959381 C33.8432215,68.1031634 34.4971717,68.1010689 34.8892117,67.6913239 L60.722545,40.6913239 C61.3311165,40.0552685 60.8802987,39 60,39 Z M57.658,41 L34.161,65.558 L10.362,41 L57.658,41 Z" id="Rectangle"></path>
            <polygon id="Path-92" points="49 36.25 49 38.25 20 38.25 20 36.25"></polygon>
            <path d="M11.8417097,44.2551098 C12.2531013,43.8866325 12.8853098,43.9214214 13.253787,44.3328129 C13.5939198,44.712559 13.5904413,45.2804567 13.264323,45.6553959 L13.1760838,45.7448902 L11.778,46.997 L13.3701865,49.6964473 C13.6736074,50.2107673 13.4597463,50.8645969 12.9338183,51.1099748 L12.8245326,51.153442 L9,52.425 L9,54.673 L12.2276627,56.0010818 C12.7342247,56.2094153 12.9724989,56.7811793 12.7825831,57.2801689 L12.7352747,57.3858223 L11.471,59.825 L13.166,61.591 L15.5910081,60.1184198 C16.1039047,59.8067438 16.7637072,60.0158518 17.0132713,60.5428652 L17.0575492,60.6524465 L18.162,63.916 L20.221,63.916 L21.0306811,60.7271979 C21.1781909,60.1455045 21.7953387,59.8323477 22.3426499,60.0333602 L22.4510211,60.0804911 L25.512,61.627 L26.8008708,60.2090705 C27.143736,59.8317897 27.7089968,59.777015 28.1154012,60.0629661 L28.2134722,60.1415628 C28.5907529,60.4844281 28.6455277,61.0496889 28.3595766,61.4560933 L28.2809798,61.5541642 L26.480268,63.5356244 C26.2053447,63.8381434 25.7775956,63.9400257 25.4005736,63.8036792 L25.2891924,63.7555908 L22.662,62.428 L21.9693189,65.162234 C21.8662089,65.5688403 21.5221567,65.8637337 21.1130541,65.910059 L21,65.9164275 L17.4448399,65.9164275 C17.0589651,65.9164275 16.7117352,65.6950399 16.5459548,65.354698 L16.4976109,65.2369854 L15.563,62.475 L13.5193122,63.7176621 C13.1551748,63.9389404 12.6957353,63.9033051 12.3714141,63.640888 L12.2784017,63.5553895 L9.53285013,60.6936953 C9.26614109,60.4157039 9.18529039,60.012681 9.31529841,59.6577674 L9.3664783,59.5414821 L10.457,57.435 L7.61964194,56.268482 C7.28222327,56.129712 7.05024823,55.8199644 7.00722741,55.463882 L7,55.3436427 L7,51.7044022 C7,51.312893 7.22786718,50.9613603 7.57631853,50.7985533 L7.68436417,50.7555218 L11.018,49.646 L9.63871031,47.3074531 C9.4185272,46.9342271 9.46565045,46.4668846 9.74280344,46.1460599 L9.83281295,46.0544487 L11.8417097,44.2551098 Z" id="Path-93"></path>
            <path d="M44.8417097,44.2551098 C45.2531013,43.8866325 45.8853098,43.9214214 46.253787,44.3328129 C46.5939198,44.712559 46.5904413,45.2804567 46.264323,45.6553959 L46.1760838,45.7448902 L44.778,46.997 L46.3701865,49.6964473 C46.6736074,50.2107673 46.4597463,50.8645969 45.9338183,51.1099748 L45.8245326,51.153442 L42,52.425 L42,54.673 L45.2276627,56.0010818 C45.7342247,56.2094153 45.9724989,56.7811793 45.7825831,57.2801689 L45.7352747,57.3858223 L44.471,59.825 L46.166,61.591 L48.5910081,60.1184198 C49.1039047,59.8067438 49.7637072,60.0158518 50.0132713,60.5428652 L50.0575492,60.6524465 L51.162,63.916 L53.221,63.916 L54.0306811,60.7271979 C54.1781909,60.1455045 54.7953387,59.8323477 55.3426499,60.0333602 L55.4510211,60.0804911 L58.512,61.627 L59.8008708,60.2090705 C60.143736,59.8317897 60.7089968,59.777015 61.1154012,60.0629661 L61.2134722,60.1415628 C61.5907529,60.4844281 61.6455277,61.0496889 61.3595766,61.4560933 L61.2809798,61.5541642 L59.480268,63.5356244 C59.2053447,63.8381434 58.7775956,63.9400257 58.4005736,63.8036792 L58.2891924,63.7555908 L55.662,62.428 L54.9693189,65.162234 C54.8662089,65.5688403 54.5221567,65.8637337 54.1130541,65.910059 L54,65.9164275 L50.4448399,65.9164275 C50.0589651,65.9164275 49.7117352,65.6950399 49.5459548,65.354698 L49.4976109,65.2369854 L48.563,62.475 L46.5193122,63.7176621 C46.1551748,63.9389404 45.6957353,63.9033051 45.3714141,63.640888 L45.2784017,63.5553895 L42.5328501,60.6936953 C42.2661411,60.4157039 42.1852904,60.012681 42.3152984,59.6577674 L42.3664783,59.5414821 L43.457,57.435 L40.6196419,56.268482 C40.2822233,56.129712 40.0502482,55.8199644 40.0072274,55.463882 L40,55.3436427 L40,51.7044022 C40,51.312893 40.2278672,50.9613603 40.5763185,50.7985533 L40.6843642,50.7555218 L44.018,49.646 L42.6387103,47.3074531 C42.4185272,46.9342271 42.4656505,46.4668846 42.7428034,46.1460599 L42.8328129,46.0544487 L44.8417097,44.2551098 Z" id="Path-93-Copy" transform="translate(50.770466, 54.958209) scale(-1, 1) translate(-50.770466, -54.958209) "></path>
            <polygon id="Path-94" points="20.9644128 39.6360759 20.9644128 52.640329 18.9644128 52.640329 18.9644128 39.6360759"></polygon>
            <polygon id="Path-94-Copy" points="49 39.6360759 49 52.640329 47 52.640329 47 39.6360759"></polygon>
            <path d="M4.09860487,13 C4.61144071,13 5.03411203,13.3860402 5.09187714,13.8833789 L5.09860487,14 L5.098,28.53 L10.8609102,34.2928932 C11.2213941,34.6533772 11.2491237,35.2206082 10.9440988,35.6128994 L10.8609102,35.7071068 C10.5004262,36.0675907 9.93319515,36.0953203 9.54090395,35.7902954 L9.44669661,35.7071068 L3.39149809,29.6519083 C3.23521777,29.4956279 3.13600658,29.2929466 3.1072773,29.0762455 L3.09860487,28.9448015 L3.09860487,14 C3.09860487,13.4477153 3.54632012,13 4.09860487,13 Z" id="Path-95"></path>
            <path d="M41,60 C41.5128358,60 41.9355072,60.3860402 41.9932723,60.8833789 L42,61 L42,73.8313153 C42,74.3441511 41.6139598,74.7668224 41.1166211,74.8245875 L41,74.8313153 L27,74.8313153 C26.4871642,74.8313153 26.0644928,74.4452751 26.0067277,73.9479364 L26,73.8313153 L26,61 C26,60.4477153 26.4477153,60 27,60 C27.5128358,60 27.9355072,60.3860402 27.9932723,60.8833789 L28,61 L28,72.831 L40,72.831 L40,61 C40,60.4871642 40.3860402,60.0644928 40.8833789,60.0067277 L41,60 Z" id="Path-96"></path>
            <polygon id="Path-97" points="41 68.8575949 41 70.8575949 27 70.8575949 27 68.8575949"></polygon>
            <polygon id="Path-98" points="27.0167122 63.9165671 32.0167122 64.0001397 31.9832878 65.9998603 26.9832878 65.9162878"></polygon>
            <polygon id="Path-98-Copy" points="36.0167122 63.9165671 41.0167122 64.0001397 40.9832878 65.9998603 35.9832878 65.9162878"></polygon>
        </g>
    </g>
</svg>