<?xml version="1.0" encoding="UTF-8"?>
<svg width="85px" height="85px" viewBox="0 0 85 85" version="1.1" xmlns="http://www.w3.org/2000/svg" xmlns:xlink="http://www.w3.org/1999/xlink">
    <!-- Generator: Sketch 63.1 (92452) - https://sketch.com -->
    <title>icon/safety/clementine@3x</title>
    <desc>Created with Sketch.</desc>
    <g id="icon/safety/clementine" stroke="none" stroke-width="1" fill="none" fill-rule="evenodd">
        <path d="M42.2352486,6.00032016 L42.2526822,6.00014307 C42.5655305,6.00702365 42.8704321,6.16022272 43.0593534,6.43898691 L43.1366627,6.5470672 C43.204349,6.63850609 43.3045044,6.76808605 43.4381808,6.93202922 C43.7830515,7.35498498 44.2105151,7.8298896 44.7241374,8.34405377 C46.2056195,9.82709912 48.0749566,11.3155023 50.3614876,12.7085243 C55.3481538,15.7465482 61.5747669,17.8897917 69.1673196,18.7350231 C69.6672608,18.7906784 70.0480439,19.2090422 70.0565368,19.712 L70.1119028,22.2233718 L70.362252,30.7804348 C70.3819622,31.5918465 70.3969687,32.3316932 70.4091792,33.0893323 L70.4293438,34.6688698 C70.5080756,43.3829337 69.9933456,49.4267538 68.4957386,53.8656787 C65.5757713,62.5204959 56.9741205,70.9460941 42.7334347,79.2094359 C42.5812751,79.2977284 42.4154933,79.3414051 42.2512477,79.344492 C42.2493254,79.3436613 42.2473059,79.34375 42.2452858,79.3438326 L42.1916167,79.3438326 C42.1895966,79.34375 42.1875771,79.3436613 42.1855581,79.3435664 C42.0210439,79.3413088 41.8554597,79.2976312 41.7034678,79.2094359 C27.462782,70.9460941 18.8611312,62.5204959 15.9411639,53.8656787 C14.4435569,49.4267538 13.9288269,43.3829337 14.0075587,34.6688698 L14.0075587,34.6688698 L14.0232717,33.3744555 C14.0376984,32.4201012 14.0561211,31.5110002 14.082266,30.4726263 L14.082266,30.4726263 L14.2874516,23.5361647 L14.3803657,19.712 C14.3888586,19.2090422 14.7696417,18.7906784 15.2695829,18.7350231 C22.8621356,17.8897917 29.0887487,15.7465482 34.0754149,12.7085243 C36.3619459,11.3155023 38.231283,9.82709912 39.7127651,8.34405377 C40.2263873,7.8298896 40.653851,7.35498498 40.9987217,6.93202922 C41.098979,6.80907185 41.1803807,6.70544377 41.2433707,6.62273879 L41.2433707,6.62273879 L41.3775491,6.43898691 C41.5664704,6.16022272 41.871372,6.00702365 42.1842203,6.00014307 C42.1903057,6.00069707 42.1959801,6.00048446 42.2016539,6.00032016 L42.2352486,6.00032016 L42.2352486,6.00032016 Z M42.2174687,8.5926751 L42.0771655,8.75426786 C41.910258,8.94172795 41.7252296,9.14237864 41.5216945,9.35490014 L41.5216945,9.35490014 L41.1277242,9.75752141 C39.5362674,11.3506574 37.5421218,12.9384357 35.115974,14.4165163 L35.115974,14.4165163 L34.6214994,14.7126988 C29.8055101,17.5486572 23.942622,19.5940751 16.9530781,20.5423129 L16.9530781,20.5423129 L16.364356,20.618 L16.3515,21.1981528 L16.1609132,27.7008302 C16.1160897,29.1883568 16.084194,30.3507642 16.0602788,31.4192778 L16.0602788,31.4192778 L16.0143492,34.0414664 C15.9067546,42.8899403 16.3951221,48.9549025 17.836217,53.2263245 C20.5701899,61.3298522 28.8463161,69.4365884 42.7072443,77.4795709 L42.2178351,77.1941431 L42.365428,77.1083113 C55.8439247,69.1871511 63.9087737,61.2051825 66.6006855,53.2263245 C68.0074686,49.056603 68.5063522,43.1777313 68.4292203,34.6687798 L68.3945102,32.2772553 C68.3818274,31.6189387 68.3664592,30.9481363 68.3471307,30.2052612 L68.0889649,21.3509128 L68.072,20.618 L67.4838244,20.5423129 C60.4942805,19.5940751 54.6313924,17.5486572 49.8154031,14.7126988 L49.3209285,14.4165163 C46.8947807,12.9384357 44.9006351,11.3506574 43.3091783,9.75752141 C42.8781773,9.32606571 42.5151627,8.93474436 42.2174687,8.5926751 Z M42.2315465,31.3445034 C48.8589635,31.3445034 54.2315465,36.7170864 54.2315465,43.3445034 C54.2315465,49.9719204 48.8589635,55.3445034 42.2315465,55.3445034 C35.6041295,55.3445034 30.2315465,49.9719204 30.2315465,43.3445034 C30.2315465,36.7170864 35.6041295,31.3445034 42.2315465,31.3445034 Z M42.2315465,33.3445034 C36.708699,33.3445034 32.2315465,37.8216559 32.2315465,43.3445034 C32.2315465,48.8673509 36.708699,53.3445034 42.2315465,53.3445034 C47.754394,53.3445034 52.2315465,48.8673509 52.2315465,43.3445034 C52.2315465,37.8216559 47.754394,33.3445034 42.2315465,33.3445034 Z M48.4742584,38.6559997 C48.8347424,39.0164837 48.8624719,39.5837148 48.557447,39.976006 L48.4742584,40.0702133 L39.7857548,48.7587169 L35.1283527,44.1013149 C34.7378285,43.7107906 34.7378285,43.0776256 35.1283527,42.6871013 C35.4888367,42.3266174 36.0560678,42.2988878 36.448359,42.6039127 L36.5425663,42.6871013 L39.785,45.93 L47.0600449,38.6559997 C47.4505692,38.2654755 48.0837341,38.2654755 48.4742584,38.6559997 Z" id="Combined-Shape" fill="#EE7552" fill-rule="nonzero"></path>
    </g>
</svg>