<?xml version="1.0" encoding="UTF-8"?>
<svg width="85px" height="85px" viewBox="0 0 85 85" version="1.1" xmlns="http://www.w3.org/2000/svg" xmlns:xlink="http://www.w3.org/1999/xlink">
    <!-- Generator: Sketch 63.1 (92452) - https://sketch.com -->
    <title>icon/science/clementine@3x</title>
    <desc>Created with Sketch.</desc>
    <g id="icon/science/clementine" stroke="none" stroke-width="1" fill="none" fill-rule="evenodd">
        <g id="Group" transform="translate(18.000000, 5.000000)" fill="#EE7552" fill-rule="nonzero">
            <path d="M44.1160254,63 L20.1160254,63 C17.3546017,63 15.1160254,65.2385763 15.1160254,68 L15.1160254,72 C15.1160254,72.5522847 15.5637407,73 16.1160254,73 L48.1160254,73 C48.6683102,73 49.1160254,72.5522847 49.1160254,72 L49.1160254,68 C49.1160254,65.2385763 46.8774492,63 44.1160254,63 Z M44.1160254,65 L44.2922982,65.0050927 C45.8671054,65.0963391 47.1160254,66.4023191 47.1160254,68 L47.1160254,71 L17.116,71 L17.116,68 C17.116,66.3431458 18.4591712,65 20.1160254,65 L44.1160254,65 Z" id="Rectangle"></path>
            <path d="M32.1160254,45.426652 C36.6776448,45.426652 40.3912715,49.0573402 40.5248045,53.5866155 L40.5285224,53.839149 L40.5285224,64 C40.5285224,64.5522847 40.0808072,65 39.5285224,65 C39.0156866,65 38.5930153,64.6139598 38.5352502,64.1166211 L38.5285224,64 L38.5285224,53.839149 C38.5285224,50.2976247 35.6575497,47.426652 32.1160254,47.426652 C28.6514908,47.426652 25.8286702,50.1741566 25.7075762,53.6091533 L25.7035284,53.839149 L25.7035284,63.8247533 C25.7035284,64.3770381 25.2558131,64.8247533 24.7035284,64.8247533 C24.1906925,64.8247533 23.7680212,64.4387131 23.7102561,63.9413744 L23.7035284,63.8247533 L23.7035284,53.839149 C23.7035284,49.1930552 27.4699316,45.426652 32.1160254,45.426652 Z" id="Oval"></path>
            <path d="M32.1160254,50 C29.630744,50 27.6160254,52.0147186 27.6160254,54.5 C27.6160254,56.9852814 29.630744,59 32.1160254,59 C34.6013068,59 36.6160254,56.9852814 36.6160254,54.5 C36.6160254,52.0147186 34.6013068,50 32.1160254,50 Z M32.1160254,52 C33.4967373,52 34.6160254,53.1192881 34.6160254,54.5 C34.6160254,55.8807119 33.4967373,57 32.1160254,57 C30.7353135,57 29.6160254,55.8807119 29.6160254,54.5 C29.6160254,53.1192881 30.7353135,52 32.1160254,52 Z" id="Oval"></path>
            <path d="M19.6160254,21 C17.130744,21 15.1160254,23.0147186 15.1160254,25.5 C15.1160254,27.9852814 17.130744,30 19.6160254,30 C22.1013068,30 24.1160254,27.9852814 24.1160254,25.5 C24.1160254,23.0147186 22.1013068,21 19.6160254,21 Z M19.6160254,23 C20.9967373,23 22.1160254,24.1192881 22.1160254,25.5 C22.1160254,26.8807119 20.9967373,28 19.6160254,28 C18.2353135,28 17.1160254,26.8807119 17.1160254,25.5 C17.1160254,24.1192881 18.2353135,23 19.6160254,23 Z" id="Oval-Copy"></path>
            <path d="M19.6160254,17 C14.921605,17 11.1160254,20.8055796 11.1160254,25.5 C11.1160254,30.1944204 14.921605,34 19.6160254,34 C24.3104458,34 28.1160254,30.1944204 28.1160254,25.5 C28.1160254,20.8055796 24.3104458,17 19.6160254,17 Z M19.6160254,19 C23.2058763,19 26.1160254,21.9101491 26.1160254,25.5 C26.1160254,29.0898509 23.2058763,32 19.6160254,32 C16.0261745,32 13.1160254,29.0898509 13.1160254,25.5 C13.1160254,21.9101491 16.0261745,19 19.6160254,19 Z" id="Oval-Copy"></path>
            <g id="Group-13" transform="translate(15.500000, 46.031089) rotate(-210.000000) translate(-15.500000, -46.031089) translate(8.000000, 29.031089)">
                <path d="M5.55127606,0.0656396539 C5.84179587,-0.404058853 6.45807458,-0.549311889 6.92777308,-0.258792083 C11.9729186,2.86175159 15.2009619,9.22789772 15.2009619,16.2858984 C15.2009619,25.9988915 9.11411174,34.0939914 1.21702134,34.744199 C0.666599114,34.789518 0.183655382,34.380051 0.138336324,33.8296288 C0.0930172669,33.2792066 0.502484289,32.7962628 1.05290652,32.7509438 C7.81679575,32.1940384 13.2009619,25.0334608 13.2009619,16.2858984 C13.2009619,9.89343811 10.3046735,4.18155832 5.8757078,1.44213667 C5.40600929,1.15161687 5.26075626,0.535338161 5.55127606,0.0656396539 Z" id="Oval-Copy-2"></path>
                <path d="M3.2333016,4.38742668 C3.53391764,3.92412501 4.1531953,3.79224224 4.61649698,4.09285828 C8.40386143,6.55031215 10.7858984,11.2067042 10.7858984,16.3349365 C10.7858984,23.2797794 6.42435584,29.1831165 0.538822023,30.1867814 C-0.00560330525,30.2796227 -0.522209978,29.9135415 -0.615051277,29.3691162 C-0.707892575,28.8246908 -0.341811388,28.3080842 0.202613941,28.2152429 C5.06919799,27.3853403 8.78589838,22.3547955 8.78589838,16.3349365 C8.78589838,11.8664908 6.73054407,7.84869611 3.52787,5.77062206 C3.06456833,5.47000602 2.93268556,4.85072836 3.2333016,4.38742668 Z" id="Oval-Copy-13"></path>
            </g>
            <g id="Group-14" transform="translate(25.616025, 21.000000) rotate(-45.000000) translate(-25.616025, -21.000000) translate(17.116025, 0.000000)">
                <path d="M15.2608696,4 C16.3152314,4 17.1790347,4.81587779 17.2553838,5.85073766 L17.2608696,6 L17.2608696,36 C17.2608696,37.0543618 16.4449918,37.9181651 15.4101319,37.9945143 L15.2608696,38 L1.26086957,38 C0.20650777,38 -0.657295557,37.1841222 -0.733644698,36.1492623 L-0.739130435,36 L-0.739130435,27.5325711 C-0.739130435,26.9802863 -0.291415185,26.5325711 0.260869565,26.5325711 C0.773705404,26.5325711 1.19637673,26.9186112 1.25414183,27.4159499 L1.26086957,27.5325711 L1.26086957,36 L15.2608696,36 L15.2608696,6 L1.26086957,6 L1.26086957,12.2679558 C1.26086957,12.8202405 0.813154315,13.2679558 0.260869565,13.2679558 C-0.251966274,13.2679558 -0.674637595,12.8819156 -0.732402703,12.3845769 L-0.739130435,12.2679558 L-0.739130435,6 C-0.739130435,4.9456382 0.0767473558,4.08183488 1.11160722,4.00548574 L1.26086957,4 L15.2608696,4 Z" id="Rectangle"></path>
                <path d="M10.7090833,-1 C11.1073617,-1 11.4634824,-0.764320773 11.6225051,-0.407106297 L11.6641441,-0.29641004 L13.2159303,4.70358996 C13.3796331,5.23105546 13.0847451,5.79135803 12.5572796,5.95506078 C12.0674902,6.10707047 11.5493872,5.86366265 11.3468019,5.40579614 L11.3058088,5.29641004 L9.972,1 L6.548,1 L5.21593034,5.29641004 C5.06392065,5.78619944 4.56994478,6.07545005 4.07783395,5.98320306 L3.96445953,5.95506078 C3.47467013,5.80305109 3.18541952,5.30907522 3.27766651,4.81696439 L3.30580879,4.70358996 L4.85759506,-0.29641004 C4.97564878,-0.676790127 5.30629452,-0.947049362 5.69459198,-0.993043767 L5.81265584,-1 L10.7090833,-1 Z" id="Path-109"></path>
                <path d="M10.7090833,36 C11.1073617,36 11.4634824,36.2356792 11.6225051,36.5928937 L11.6641441,36.70359 L13.2159303,41.70359 C13.3796331,42.2310555 13.0847451,42.791358 12.5572796,42.9550608 C12.0674902,43.1070705 11.5493872,42.8636626 11.3468019,42.4057961 L11.3058088,42.29641 L9.972,38 L6.548,38 L5.21593034,42.29641 C5.06392065,42.7861994 4.56994478,43.07545 4.07783395,42.9832031 L3.96445953,42.9550608 C3.47467013,42.8030511 3.18541952,42.3090752 3.27766651,41.8169644 L3.30580879,41.70359 L4.85759506,36.70359 C4.97564878,36.3232099 5.30629452,36.0529506 5.69459198,36.0069562 L5.81265584,36 L10.7090833,36 Z" id="Path-109-Copy" transform="translate(8.260870, 39.500133) rotate(-180.000000) translate(-8.260870, -39.500133) "></path>
            </g>
        </g>
    </g>
</svg>