<?xml version="1.0" encoding="UTF-8"?>
<svg width="85px" height="85px" viewBox="0 0 85 85" version="1.1" xmlns="http://www.w3.org/2000/svg" xmlns:xlink="http://www.w3.org/1999/xlink">
    <!-- Generator: Sketch 63.1 (92452) - https://sketch.com -->
    <title>icon/small class/clementine@3x</title>
    <desc>Created with Sketch.</desc>
    <g id="icon/small-class/clementine" stroke="none" stroke-width="1" fill="none" fill-rule="evenodd">
        <g id="Group" transform="translate(15.000000, 15.000000)" fill="#EE7552" fill-rule="nonzero">
            <path d="M54,0 L2,0 C0.8954305,0 0,0.8954305 0,2 L0,54 C0,55.1045695 0.8954305,56 2,56 L54,56 C55.1045695,56 56,55.1045695 56,54 L56,2 C56,0.8954305 55.1045695,0 54,0 Z M2,2 L54,2 L54,54 L2,54 L2,2 Z" id="Rectangle"></path>
            <g id="Group-4" transform="translate(10.000000, 21.000000)">
                <path d="M7.30502202,0.292893219 C7.66550598,0.65337718 7.69323551,1.22060824 7.38821062,1.61289944 L7.30502202,1.70710678 L3.415,5.597 L12.4796457,5.59791524 C13.0319304,5.59791524 13.4796457,6.04563049 13.4796457,6.59791524 C13.4796457,7.11075108 13.0936055,7.5334224 12.5962668,7.5911875 L12.4796457,7.59791524 L3.413,7.597 L7.30502202,11.4887237 C7.66550598,11.8492077 7.69323551,12.4164387 7.38821062,12.8087299 L7.30502202,12.9029373 C6.94453806,13.2634212 6.377307,13.2911508 5.98501579,12.9861259 L5.89080845,12.9029373 L0.292893219,7.30502202 C-0.0675907428,6.94453806 -0.0953202783,6.377307 0.209704612,5.98501579 L0.292893219,5.89080845 L5.89080845,0.292893219 C6.28133275,-0.0976310729 6.91449773,-0.0976310729 7.30502202,0.292893219 Z" id="Combined-Shape" transform="translate(6.739823, 6.597915) rotate(-180.000000) translate(-6.739823, -6.597915) "></path>
                <path d="M30.305022,0.292893219 C30.665506,0.65337718 30.6932355,1.22060824 30.3882106,1.61289944 L30.305022,1.70710678 L26.415,5.597 L35.4796457,5.59791524 C36.0319304,5.59791524 36.4796457,6.04563049 36.4796457,6.59791524 C36.4796457,7.11075108 36.0936055,7.5334224 35.5962668,7.5911875 L35.4796457,7.59791524 L26.413,7.597 L30.305022,11.4887237 C30.665506,11.8492077 30.6932355,12.4164387 30.3882106,12.8087299 L30.305022,12.9029373 C29.9445381,13.2634212 29.377307,13.2911508 28.9850158,12.9861259 L28.8908085,12.9029373 L23.2928932,7.30502202 C22.9324093,6.94453806 22.9046797,6.377307 23.2097046,5.98501579 L23.2928932,5.89080845 L28.8908085,0.292893219 C29.2813327,-0.0976310729 29.9144977,-0.0976310729 30.305022,0.292893219 Z" id="Combined-Shape-Copy"></path>
            </g>
        </g>
    </g>
</svg>