<?xml version="1.0" encoding="UTF-8"?>
<svg width="85px" height="85px" viewBox="0 0 85 85" version="1.1" xmlns="http://www.w3.org/2000/svg" xmlns:xlink="http://www.w3.org/1999/xlink">
    <!-- Generator: Sketch 63.1 (92452) - https://sketch.com -->
    <title>icon/sports/clementine@3x</title>
    <desc>Created with Sketch.</desc>
    <g id="icon/sports/clementine" stroke="none" stroke-width="1" fill="none" fill-rule="evenodd">
        <g id="Group-5" transform="translate(4.000000, 4.000000)" fill="#EE7552" fill-rule="nonzero">
            <g id="Group-3" transform="translate(38.500000, 60.000000) rotate(9.000000) translate(-38.500000, -60.000000) translate(13.000000, 47.000000)">
                <path d="M33.9856318,12.5 C34.5379166,12.5 34.9856318,12.9477153 34.9856318,13.5 C34.9856318,14.0128358 34.5995916,14.4355072 34.1022529,14.4932723 L33.9856318,14.5 L16.5372658,14.5 C15.984981,14.5 15.5372658,14.0522847 15.5372658,13.5 C15.5372658,12.9871642 15.923306,12.5644928 16.4206447,12.5067277 L16.5372658,12.5 L33.9856318,12.5 Z" id="Path-108"></path>
                <path d="M25.5,-0.25 C12.6323544,-0.25 -1,7.45681369 -1,13.25 C-1,19.0431863 12.6323544,26.75 25.5,26.75 C38.4413965,26.75 52,19.135716 52,13.25 C52,7.36428397 38.4413965,-0.25 25.5,-0.25 Z M25.5,1.75 C31.8090344,1.75 38.0395095,3.46227694 43.041569,6.27134957 C47.2783854,8.65067448 50,11.5443463 50,13.25 C50,14.9556537 47.2783854,17.8493255 43.041569,20.2286504 C38.0395095,23.0377231 31.8090344,24.75 25.5,24.75 C19.2071143,24.75 12.9834061,23.0175227 7.96091031,20.1781423 C3.74010821,17.7919855 1,14.8924284 1,13.25 C1,11.6075716 3.74010821,8.70801453 7.96091031,6.32185771 C12.9834061,3.48247734 19.2071143,1.75 25.5,1.75 Z" id="Oval"></path>
                <g id="Group-2" transform="translate(5.828960, 3.464177)">
                    <path d="M0.671039979,1.78582262 C1.18387582,1.78582262 1.60654714,2.17186281 1.66431225,2.66920149 L1.67103998,2.78582262 L1.67103998,16.1851281 C1.67103998,16.7374129 1.22332473,17.1851281 0.671039979,17.1851281 C0.158204139,17.1851281 -0.264467182,16.799088 -0.32223229,16.3017493 L-0.328960021,16.1851281 L-0.328960021,2.78582262 C-0.328960021,2.23353787 0.118755229,1.78582262 0.671039979,1.78582262 Z" id="Path-107"></path>
                    <path d="M5.67103998,-0.714177385 C6.18387582,-0.714177385 6.60654714,-0.328137194 6.66431225,0.16920149 L6.67103998,0.285822615 L6.67103998,19.2858226 C6.67103998,19.8381074 6.22332473,20.2858226 5.67103998,20.2858226 C5.15820414,20.2858226 4.73553282,19.8997824 4.67776771,19.4024437 L4.67103998,19.2858226 L4.67103998,0.285822615 C4.67103998,-0.266462134 5.11875523,-0.714177385 5.67103998,-0.714177385 Z" id="Path-107-Copy"></path>
                </g>
                <g id="Group-2-Copy" transform="translate(41.000000, 13.750000) scale(-1, 1) translate(-41.000000, -13.750000) translate(38.000000, 3.750000)">
                    <path d="M0.5,0.819654329 C1.01283584,0.819654329 1.43550716,1.20569452 1.49327227,1.7030332 L1.5,1.81965433 L1.5,16.8437101 C1.5,17.3959949 1.05228475,17.8437101 0.5,17.8437101 C-0.0128358391,17.8437101 -0.435507161,17.4576699 -0.493272269,16.9603313 L-0.5,16.8437101 L-0.5,1.81965433 C-0.5,1.26736958 -0.0522847498,0.819654329 0.5,0.819654329 Z" id="Path-107"></path>
                    <path d="M5.17103998,-1 C5.68387582,-1 6.10654714,-0.61395981 6.16431225,-0.116621125 L6.17103998,3.19744231e-14 L6.17103998,19.1111125 C6.17103998,19.6633973 5.72332473,20.1111125 5.17103998,20.1111125 C4.65820414,20.1111125 4.23553282,19.7250723 4.17776771,19.2277337 L4.17103998,19.1111125 L4.17103998,3.19744231e-14 C4.17103998,-0.55228475 4.61875523,-1 5.17103998,-1 Z" id="Path-107-Copy"></path>
                </g>
                <g id="Group" transform="translate(25.000000, 13.250000) rotate(-270.000000) translate(-25.000000, -13.250000) translate(23.000000, 7.750000)">
                    <path d="M3.71981443,-0.5 C4.27209918,-0.5 4.71981443,-0.0522847498 4.71981443,0.5 C4.71981443,1.01283584 4.33377424,1.43550716 3.83643556,1.49327227 L3.71981443,1.5 L0,1.5 C-0.55228475,1.5 -1,1.05228475 -1,0.5 C-1,-0.0128358391 -0.61395981,-0.435507161 -0.116621125,-0.493272269 L0,-0.5 L3.71981443,-0.5 Z" id="Path-106-Copy-5"></path>
                    <path d="M3.71981443,4.22208841 C4.27209918,4.22208841 4.71981443,4.66980366 4.71981443,5.22208841 C4.71981443,5.73492425 4.33377424,6.15759557 3.83643556,6.21536068 L3.71981443,6.22208841 L0,6.22208841 C-0.55228475,6.22208841 -1,5.77437316 -1,5.22208841 C-1,4.70925257 -0.61395981,4.28658125 -0.116621125,4.22881614 L0,4.22208841 L3.71981443,4.22208841 Z" id="Path-106-Copy-6"></path>
                    <path d="M3.71981443,9.22208841 C4.27209918,9.22208841 4.71981443,9.66980366 4.71981443,10.2220884 C4.71981443,10.7349242 4.33377424,11.1575956 3.83643556,11.2153607 L3.71981443,11.2220884 L0,11.2220884 C-0.55228475,11.2220884 -1,10.7743732 -1,10.2220884 C-1,9.70925257 -0.61395981,9.28658125 -0.116621125,9.22881614 L0,9.22208841 L3.71981443,9.22208841 Z" id="Path-106-Copy-7"></path>
                </g>
            </g>
            <g id="Group-4" transform="translate(53.000000, 24.750000) rotate(9.000000) translate(-53.000000, -24.750000) translate(32.000000, 3.750000)">
                <path d="M21,-1 C8.8497355,-1 -1,8.8497355 -1,21 C-1,33.1502645 8.8497355,43 21,43 C33.1502645,43 43,33.1502645 43,21 C43,8.8497355 33.1502645,-1 21,-1 Z M21,1 C32.045695,1 41,9.954305 41,21 C41,32.045695 32.045695,41 21,41 C9.954305,41 1,32.045695 1,21 C1,9.954305 9.954305,1 21,1 Z" id="Oval"></path>
                <path d="M20.7530382,-1.00000038 C21.2658649,-0.996928987 21.6862304,-0.608379165 21.7410334,-0.110705377 L21.7470667,0.00595373643 L21.4999823,41.5059537 C21.4966941,42.0582287 21.0463212,42.5032704 20.4940463,42.4999996 C19.9812195,42.496929 19.5608541,42.1083792 19.506051,41.6107054 L19.5000177,41.4940463 L19.7471022,-0.00595373643 C19.7503903,-0.558228698 20.2007632,-1.00327043 20.7530382,-1.00000038 Z" id="Path-105"></path>
                <path d="M41.6911447,21 C42.2434294,21 42.6911447,21.4477153 42.6911447,22 C42.6911447,22.5128358 42.3051045,22.9355072 41.8077658,22.9932723 L41.6911447,23 L0.5,23 C-0.0522847498,23 -0.5,22.5522847 -0.5,22 C-0.5,21.4871642 -0.11395981,21.0644928 0.383378875,21.0067277 L0.5,21 L41.6911447,21 Z" id="Path-105-Copy"></path>
                <path d="M29.4045137,4.19663453 C29.8482002,3.86775653 30.4744875,3.96082721 30.8033655,4.40451371 C33.4645725,7.99472545 34.7685094,13.4443619 34.7685094,20.75 C34.7685094,25.5297389 34.042711,29.6865238 32.8295205,33.2010274 C32.4017415,34.4402646 31.9416159,35.5127501 31.4789773,36.4165068 C31.1952967,36.9706721 30.9687019,37.3522426 30.8288992,37.559398 C30.5199522,38.0171864 29.8983903,38.1378462 29.440602,37.8288992 C28.9828136,37.5199522 28.8621538,36.8983903 29.1711008,36.440602 L29.2592899,36.3022486 C29.3634154,36.1319612 29.5139823,35.8659702 29.6986819,35.5051627 C30.1192877,34.6835163 30.5424065,33.6972882 30.9389889,32.5484246 C32.0811167,29.2397833 32.7685094,25.3029552 32.7685094,20.75 C32.7685094,13.83439 31.5601067,8.78402645 29.1966345,5.59548629 C28.8677565,5.15179979 28.9608272,4.52551252 29.4045137,4.19663453 Z" id="Path-106-Copy" transform="translate(31.884204, 21.000019) scale(-1, 1) translate(-31.884204, -21.000019) "></path>
                <path d="M7.40451371,4.19663453 C7.84820021,3.86775653 8.47448748,3.96082721 8.80336547,4.40451371 C11.4645725,7.99472545 12.7685094,13.4443619 12.7685094,20.75 C12.7685094,25.5297389 12.042711,29.6865238 10.8295205,33.2010274 C10.4017415,34.4402646 9.94161589,35.5127501 9.47897732,36.4165068 C9.19529674,36.9706721 8.96870189,37.3522426 8.82889918,37.559398 C8.51995218,38.0171864 7.89839035,38.1378462 7.44060197,37.8288992 C6.9828136,37.5199522 6.86215382,36.8983903 7.17110082,36.440602 L7.25928992,36.3022486 C7.36341539,36.1319612 7.51398233,35.8659702 7.69868187,35.5051627 C8.11928769,34.6835163 8.54240647,33.6972882 8.93898893,32.5484246 C10.0811167,29.2397833 10.7685094,25.3029552 10.7685094,20.75 C10.7685094,13.83439 9.5601067,8.78402645 7.19663453,5.59548629 C6.86775653,5.15179979 6.96082721,4.52551252 7.40451371,4.19663453 Z" id="Path-106-Copy-2"></path>
                <path d="M21,-1 C8.8497355,-1 -1,8.8497355 -1,21 C-1,33.1502645 8.8497355,43 21,43 C33.1502645,43 43,33.1502645 43,21 C43,8.8497355 33.1502645,-1 21,-1 Z M21,1 C32.045695,1 41,9.954305 41,21 C41,32.045695 32.045695,41 21,41 C9.954305,41 1,32.045695 1,21 C1,9.954305 9.954305,1 21,1 Z" id="Oval"></path>
                <path d="M29.4045137,4.19663453 C29.8482002,3.86775653 30.4744875,3.96082721 30.8033655,4.40451371 C33.4645725,7.99472545 34.7685094,13.4443619 34.7685094,20.75 C34.7685094,25.5297389 34.042711,29.6865238 32.8295205,33.2010274 C32.4017415,34.4402646 31.9416159,35.5127501 31.4789773,36.4165068 C31.1952967,36.9706721 30.9687019,37.3522426 30.8288992,37.559398 C30.5199522,38.0171864 29.8983903,38.1378462 29.440602,37.8288992 C28.9828136,37.5199522 28.8621538,36.8983903 29.1711008,36.440602 L29.2592899,36.3022486 C29.3634154,36.1319612 29.5139823,35.8659702 29.6986819,35.5051627 C30.1192877,34.6835163 30.5424065,33.6972882 30.9389889,32.5484246 C32.0811167,29.2397833 32.7685094,25.3029552 32.7685094,20.75 C32.7685094,13.83439 31.5601067,8.78402645 29.1966345,5.59548629 C28.8677565,5.15179979 28.9608272,4.52551252 29.4045137,4.19663453 Z" id="Path-106-Copy" transform="translate(31.884204, 21.000019) scale(-1, 1) translate(-31.884204, -21.000019) "></path>
                <path d="M7.40451371,4.19663453 C7.84820021,3.86775653 8.47448748,3.96082721 8.80336547,4.40451371 C11.4645725,7.99472545 12.7685094,13.4443619 12.7685094,20.75 C12.7685094,25.5297389 12.042711,29.6865238 10.8295205,33.2010274 C10.4017415,34.4402646 9.94161589,35.5127501 9.47897732,36.4165068 C9.19529674,36.9706721 8.96870189,37.3522426 8.82889918,37.559398 C8.51995218,38.0171864 7.89839035,38.1378462 7.44060197,37.8288992 C6.9828136,37.5199522 6.86215382,36.8983903 7.17110082,36.440602 L7.25928992,36.3022486 C7.36341539,36.1319612 7.51398233,35.8659702 7.69868187,35.5051627 C8.11928769,34.6835163 8.54240647,33.6972882 8.93898893,32.5484246 C10.0811167,29.2397833 10.7685094,25.3029552 10.7685094,20.75 C10.7685094,13.83439 9.5601067,8.78402645 7.19663453,5.59548629 C6.86775653,5.15179979 6.96082721,4.52551252 7.40451371,4.19663453 Z" id="Path-106-Copy-2"></path>
            </g>
            <g id="Group-3" transform="translate(17.000000, 32.750000) rotate(-30.000000) translate(-17.000000, -32.750000) translate(5.000000, 20.750000)">
                <path d="M12,-1 C4.82029825,-1 -1,4.82029825 -1,12 C-1,19.1797017 4.82029825,25 12,25 C19.1797017,25 25,19.1797017 25,12 C25,4.82029825 19.1797017,-1 12,-1 Z M12,1 C18.0751322,1 23,5.92486775 23,12 C23,18.0751322 18.0751322,23 12,23 C5.92486775,23 1,18.0751322 1,12 C1,5.92486775 5.92486775,1 12,1 Z" id="Oval"></path>
                <path d="M16.5413218,2.20115384 C16.9825123,1.86893502 17.6094845,1.95727407 17.9417033,2.39846462 C19.5293029,4.50681584 20.2962911,7.6622578 20.2962911,11.859375 C20.2962911,14.5993163 19.872733,16.9872105 19.1632338,19.010451 C18.729091,20.2484723 18.284782,21.1028608 17.9676373,21.5654535 C17.655346,22.020967 17.0329172,22.1370715 16.5774037,21.8247802 C16.1569297,21.5365113 16.0256562,20.9839832 16.2535739,20.5424109 L16.4223038,20.2652007 C16.4686683,20.1850731 16.5259654,20.0813187 16.5921259,19.9540947 C16.8229788,19.5101739 17.0563804,18.9746492 17.2759145,18.3486158 C17.9123114,16.5338372 18.2962911,14.3690741 18.2962911,11.859375 C18.2962911,8.05704014 17.6276566,5.3062321 16.344011,3.60153538 C16.0117922,3.16034483 16.1001312,2.53337266 16.5413218,2.20115384 Z" id="Path-106-Copy" transform="translate(18.219527, 12.000019) scale(-1, 1) translate(-18.219527, -12.000019) "></path>
                <path d="M3.96989319,2.20115384 C4.41108374,1.86893502 5.03805591,1.95727407 5.37027473,2.39846462 C6.95787435,4.50681584 7.72486252,7.6622578 7.72486252,11.859375 C7.72486252,14.5993163 7.30130447,16.9872105 6.59180521,19.010451 C6.15766242,20.2484723 5.71335342,21.1028608 5.39620877,21.5654535 C5.08391744,22.020967 4.46148863,22.1370715 4.0059751,21.8247802 C3.55046158,21.5124889 3.43435705,20.8900601 3.74664837,20.4345465 L3.80823148,20.337447 C3.8600265,20.2516349 3.93248332,20.1237267 4.0206973,19.9540947 C4.25155019,19.5101739 4.48495182,18.9746492 4.70448588,18.3486158 C5.34088283,16.5338372 5.72486252,14.3690741 5.72486252,11.859375 C5.72486252,8.05704014 5.05622806,5.3062321 3.77258241,3.60153538 C3.4403636,3.16034483 3.52870264,2.53337266 3.96989319,2.20115384 Z" id="Path-106-Copy-2"></path>
                <path d="M8.291243,5.77791159 C8.84352775,5.77791159 9.291243,6.22562684 9.291243,6.77791159 C9.291243,7.29074743 8.90520281,7.71341875 8.40786413,7.77118386 L8.291243,7.77791159 L4.57142857,7.77791159 C4.01914382,7.77791159 3.57142857,7.33019634 3.57142857,6.77791159 C3.57142857,6.26507575 3.95746876,5.84240443 4.45480745,5.78463932 L4.57142857,5.77791159 L8.291243,5.77791159 Z" id="Path-106"></path>
                <path d="M8.291243,10.5 C8.84352775,10.5 9.291243,10.9477153 9.291243,11.5 C9.291243,12.0128358 8.90520281,12.4355072 8.40786413,12.4932723 L8.291243,12.5 L4.57142857,12.5 C4.01914382,12.5 3.57142857,12.0522847 3.57142857,11.5 C3.57142857,10.9871642 3.95746876,10.5644928 4.45480745,10.5067277 L4.57142857,10.5 L8.291243,10.5 Z" id="Path-106-Copy-3"></path>
                <path d="M8.291243,15.5 C8.84352775,15.5 9.291243,15.9477153 9.291243,16.5 C9.291243,17.0128358 8.90520281,17.4355072 8.40786413,17.4932723 L8.291243,17.5 L4.57142857,17.5 C4.01914382,17.5 3.57142857,17.0522847 3.57142857,16.5 C3.57142857,15.9871642 3.95746876,15.5644928 4.45480745,15.5067277 L4.57142857,15.5 L8.291243,15.5 Z" id="Path-106-Copy-4"></path>
                <path d="M18.7198144,5.77791159 C19.2720992,5.77791159 19.7198144,6.22562684 19.7198144,6.77791159 C19.7198144,7.29074743 19.3337742,7.71341875 18.8364356,7.77118386 L18.7198144,7.77791159 L15,7.77791159 C14.4477153,7.77791159 14,7.33019634 14,6.77791159 C14,6.26507575 14.3860402,5.84240443 14.8833789,5.78463932 L15,5.77791159 L18.7198144,5.77791159 Z" id="Path-106-Copy-5"></path>
                <path d="M18.7198144,10.5 C19.2720992,10.5 19.7198144,10.9477153 19.7198144,11.5 C19.7198144,12.0128358 19.3337742,12.4355072 18.8364356,12.4932723 L18.7198144,12.5 L15,12.5 C14.4477153,12.5 14,12.0522847 14,11.5 C14,10.9871642 14.3860402,10.5644928 14.8833789,10.5067277 L15,10.5 L18.7198144,10.5 Z" id="Path-106-Copy-6"></path>
                <path d="M18.7198144,15.5 C19.2720992,15.5 19.7198144,15.9477153 19.7198144,16.5 C19.7198144,17.0128358 19.3337742,17.4355072 18.8364356,17.4932723 L18.7198144,17.5 L15,17.5 C14.4477153,17.5 14,17.0522847 14,16.5 C14,15.9871642 14.3860402,15.5644928 14.8833789,15.5067277 L15,15.5 L18.7198144,15.5 Z" id="Path-106-Copy-7"></path>
            </g>
        </g>
    </g>
</svg>