<?xml version="1.0" encoding="UTF-8"?>
<svg width="85px" height="85px" viewBox="0 0 85 85" version="1.1" xmlns="http://www.w3.org/2000/svg" xmlns:xlink="http://www.w3.org/1999/xlink">
    <!-- Generator: Sketch 63.1 (92452) - https://sketch.com -->
    <title>icon/gifted/clementine@3x</title>
    <desc>Created with Sketch.</desc>
    <g id="icon/gifted/clementine" stroke="none" stroke-width="1" fill="none" fill-rule="evenodd">
        <path d="M45.8612505,11.6370426 C46.3440258,11.9739226 46.7635158,12.3934126 47.1003958,12.8761879 L56.7037004,26.6384746 L72.7599971,31.5189795 C75.4020628,32.3220672 76.892849,35.1149159 76.0897613,37.7569816 C75.9185552,38.3202299 75.6492261,38.8488181 75.2941811,39.3183958 L65.173053,52.7044616 L65.4930855,69.4830662 C65.5457469,72.2439878 63.3502682,74.5248475 60.5893467,74.5775089 C60.0007602,74.5887355 59.4148156,74.495931 58.8585058,74.3033706 L43,68.8141276 L27.1414942,74.3033706 C24.5319751,75.2066262 21.6843084,73.8234263 20.7810528,71.2139072 C20.5884924,70.6575973 20.4956879,70.0716528 20.5069145,69.4830662 L20.826947,52.7044616 L10.7058189,39.3183958 C9.04038599,37.1157169 9.47590987,33.9799927 11.6785887,32.3145598 C12.1481664,31.9595148 12.6767546,31.6901856 13.2400029,31.5189795 L29.2962996,26.6384746 L38.8996042,12.8761879 C40.4798292,10.6116018 43.5966644,10.0568176 45.8612505,11.6370426 Z M44.7167503,13.2772009 C43.4102583,12.3655326 41.630995,12.638226 40.6531727,13.8684763 L40.5397625,14.0206881 L30.5403021,28.3506971 L13.8216505,33.4325328 C13.4837015,33.5352564 13.1665486,33.6968539 12.884802,33.9098809 C11.6140257,34.8707076 11.3235499,36.6471545 12.1914238,37.957287 L12.3011401,38.1121825 L22.8397853,52.0504508 L22.5065508,69.521207 C22.4998148,69.8743589 22.5554975,70.2259257 22.6710337,70.5597115 C23.1936317,72.0695048 24.8010323,72.8951245 26.3190567,72.4662355 L26.4872986,72.4133896 L43,66.6977042 L59.5127014,72.4133896 C59.8464873,72.5289258 60.198054,72.5846085 60.5512059,72.5778726 C62.1485962,72.5474042 63.4305214,71.2738058 63.491719,69.6975449 L63.4934492,69.521207 L63.1602147,52.0504508 L73.6988599,38.1121825 C73.9118869,37.8304359 74.0734844,37.513283 74.1762081,37.175334 C74.6408517,35.6467103 73.8257243,34.0339635 72.3455221,33.4886697 L72.1783495,33.4325328 L55.4596979,28.3506971 L45.4602375,14.0206881 C45.2985351,13.7889559 45.1051105,13.5815253 44.8859001,13.4043329 L44.7167503,13.2772009 Z" id="Star" fill="#EE7552" fill-rule="nonzero"></path>
        <path d="M32,35 C36.9705627,35 41,39.0294373 41,44 C41,48.9705627 36.9705627,53 32,53 C27.0294373,53 23,48.9705627 23,44 C23,39.0294373 27.0294373,35 32,35 Z M32,37 C28.1340068,37 25,40.1340068 25,44 C25,47.8659932 28.1340068,51 32,51 C35.8659932,51 39,47.8659932 39,44 C39,40.1340068 35.8659932,37 32,37 Z" id="Oval" fill="#EE7552" fill-rule="nonzero"></path>
        <path d="M54,35 C58.9705627,35 63,39.0294373 63,44 C63,48.9705627 58.9705627,53 54,53 C49.0294373,53 45,48.9705627 45,44 C45,39.0294373 49.0294373,35 54,35 Z M54,37 C50.1340068,37 47,40.1340068 47,44 C47,47.8659932 50.1340068,51 54,51 C57.8659932,51 61,47.8659932 61,44 C61,40.1340068 57.8659932,37 54,37 Z" id="Oval-Copy" fill="#EE7552" fill-rule="nonzero"></path>
        <path d="M10.5687572,37.1356007 C10.7556343,36.658026 11.2691526,36.4050892 11.7533452,36.5325257 L11.8643993,36.5687572 L23.3643993,41.0687572 C23.8787105,41.2700094 24.132495,41.8500882 23.9312428,42.3643993 C23.7443657,42.841974 23.2308474,43.0949108 22.7466548,42.9674743 L22.6356007,42.9312428 L11.1356007,38.4312428 C10.6212895,38.2299906 10.367505,37.6499118 10.5687572,37.1356007 Z" id="Line-4" fill="#EE7552" fill-rule="nonzero"></path>
        <path d="M62.3187572,37.1356007 C62.5056343,36.658026 63.0191526,36.4050892 63.5033452,36.5325257 L63.6143993,36.5687572 L75.1143993,41.0687572 C75.6287105,41.2700094 75.882495,41.8500882 75.6812428,42.3643993 C75.4943657,42.841974 74.9808474,43.0949108 74.4966548,42.9674743 L74.3856007,42.9312428 L62.8856007,38.4312428 C62.3712895,38.2299906 62.117505,37.6499118 62.3187572,37.1356007 Z" id="Line-4-Copy" fill="#EE7552" fill-rule="nonzero" transform="translate(69.000000, 39.750000) scale(-1, 1) translate(-69.000000, -39.750000) "></path>
        <path d="M42.9770572,40 C44.4226522,40 45.6630754,40.6400749 46.6296415,41.8591612 C46.9727639,42.2919261 46.9000944,42.9209071 46.4673295,43.2640295 C46.0345646,43.6071519 45.4055837,43.5344824 45.0624612,43.1017175 C44.4639836,42.3468846 43.791744,42 42.9770572,42 C42.1336942,42 41.3420105,42.3743332 40.5638992,43.1766394 C40.1793985,43.5730958 39.5463077,43.5827879 39.1498513,43.1982872 C38.7533949,42.8137865 38.7437029,42.1806957 39.1282035,41.7842393 C40.2644847,40.6126263 41.5601383,40 42.9770572,40 Z" id="Path-59" fill="#EE7552" fill-rule="nonzero"></path>
        <path d="M54.1310058,42 C55.5766009,42 56.817024,42.6400749 57.7835901,43.8591612 C58.1267126,44.2919261 58.054043,44.9209071 57.6212781,45.2640295 C57.1885132,45.6071519 56.5595323,45.5344824 56.2164099,45.1017175 C55.6179323,44.3468846 54.9456927,44 54.1310058,44 C53.2876428,44 52.4959592,44.3743332 51.7178478,45.1766394 C51.3333472,45.5730958 50.7002564,45.5827879 50.3038,45.1982872 C49.9073436,44.8137865 49.8976515,44.1806957 50.2821522,43.7842393 C51.4184334,42.6126263 52.714087,42 54.1310058,42 Z" id="Path-59-Copy" fill="#EE7552" fill-rule="nonzero"></path>
        <path d="M32.1310058,42 C33.5766009,42 34.817024,42.6400749 35.7835901,43.8591612 C36.1267126,44.2919261 36.054043,44.9209071 35.6212781,45.2640295 C35.1885132,45.6071519 34.5595323,45.5344824 34.2164099,45.1017175 C33.6179323,44.3468846 32.9456927,44 32.1310058,44 C31.2876428,44 30.4959592,44.3743332 29.7178478,45.1766394 C29.3333472,45.5730958 28.7002564,45.5827879 28.3038,45.1982872 C27.9073436,44.8137865 27.8976515,44.1806957 28.2821522,43.7842393 C29.4184334,42.6126263 30.714087,42 32.1310058,42 Z" id="Path-59-Copy-2" fill="#EE7552" fill-rule="nonzero"></path>
        <path d="M43.3493489,57.7402197 C46.5450236,57.7402197 49.2818061,58.4556575 51.5384317,59.8975505 C52.003825,60.1949182 52.1400368,60.8132581 51.8426691,61.2786514 C51.5453015,61.7440447 50.9269616,61.8802565 50.4615683,61.5828888 C48.5447441,60.3581152 46.1810925,59.7402197 43.3493489,59.7402197 C40.4950079,59.7402197 37.8708732,60.368804 35.4629978,61.6265791 C34.9734749,61.8822857 34.3693471,61.6927402 34.1136405,61.2032174 C33.8579339,60.7136946 34.0474794,60.1095668 34.5370022,59.8538602 C37.2341736,58.4449687 40.1762715,57.7402197 43.3493489,57.7402197 Z" id="Path-59-Copy-3" fill="#EE7552" fill-rule="nonzero" transform="translate(42.999960, 59.740322) rotate(-180.000000) translate(-42.999960, -59.740322) "></path>
    </g>
</svg>