<?xml version="1.0" encoding="UTF-8"?>
<svg width="85px" height="85px" viewBox="0 0 85 85" version="1.1" xmlns="http://www.w3.org/2000/svg" xmlns:xlink="http://www.w3.org/1999/xlink">
    <!-- Generator: Sketch 63.1 (92452) - https://sketch.com -->
    <title>icon/bike/clementine@3x</title>
    <desc>Created with Sketch.</desc>
    <g id="icon/bike/clementine" stroke="none" stroke-width="1" fill="none" fill-rule="evenodd">
        <g id="Group-2" transform="translate(4.000000, 19.000000)" fill="#EE7552" fill-rule="nonzero">
            <polygon id="Path-5" points="34.5292054 2.06975166 34.5292054 3.06975166 22.6625564 3.06975166 22.6625564 2.06975166"></polygon>
            <path d="M34.1549706,2 C34.7072553,2 35.1549706,2.44771525 35.1549706,3 C35.1549706,3.51283584 34.7689304,3.93550716 34.2715917,3.99327227 L34.1549706,4 L23.0852341,4 C22.5329494,4 22.0852341,3.55228475 22.0852341,3 C22.0852341,2.48716416 22.4712743,2.06449284 22.968613,2.00672773 L23.0852341,2 L34.1549706,2 Z" id="Path-6"></path>
            <path d="M27.8835853,2.02029628 C28.3860125,1.9174978 28.8774873,2.21097789 29.033772,2.68664338 L29.0637401,2.79954895 L34.027,27.058 L57.0528145,9.00001096 C57.4539594,8.68539989 58.0204181,8.72595246 58.373263,9.07585688 L58.4568046,9.16975131 C58.7714157,9.57089623 58.7308631,10.137355 58.3809587,10.4901998 L58.2870643,10.5737414 L33.9888483,29.6304146 C33.4365278,30.0635901 32.6360326,29.8049527 32.423291,29.1614857 L32.3920197,29.0440004 L27.1043326,3.20045105 C26.9936266,2.65937563 27.3425099,2.13100234 27.8835853,2.02029628 Z" id="Path-18"></path>
            <path d="M50.1442764,-0.338524227 C50.3178838,-0.821081047 50.8242157,-1.08811291 51.3117453,-0.974106242 L51.4237583,-0.940957676 L57.3231461,1.18143927 C57.6210431,1.28861236 57.8482859,1.52943434 57.9402191,1.82767013 L57.9682251,1.94205092 L62.867613,28.6632034 C62.9672153,29.2064324 62.6075848,29.7275503 62.0643557,29.8271526 C61.5599288,29.9196405 61.0745671,29.6161572 60.9280561,29.137391 L60.9004065,29.0238954 L56.105,2.868 L50.7467099,0.940957676 C50.2641531,0.767350319 49.9971212,0.261018357 50.1111279,-0.226511184 L50.1442764,-0.338524227 Z" id="Path-7"></path>
            <polygon id="Path-9" points="58.7339634 6 58.7339634 8 29.58 8 19.390819 27.9771969 17.609181 27.06848 28.3550703 6"></polygon>
            <path d="M32.5852341,25 C35.0705155,25 37.0852341,27.0147186 37.0852341,29.5 C37.0852341,31.9852814 35.0705155,34 32.5852341,34 C30.0999527,34 28.0852341,31.9852814 28.0852341,29.5 C28.0852341,27.0147186 30.0999527,25 32.5852341,25 Z M32.5852341,27 C31.2045222,27 30.0852341,28.1192881 30.0852341,29.5 C30.0852341,30.8807119 31.2045222,32 32.5852341,32 C33.965946,32 35.0852341,30.8807119 35.0852341,29.5 C35.0852341,28.1192881 33.965946,27 32.5852341,27 Z" id="Oval"></path>
            <path d="M61.5852341,13 C69.593363,13 76.0852341,19.4918711 76.0852341,27.5 C76.0852341,35.5081289 69.593363,42 61.5852341,42 C53.5771052,42 47.0852341,35.5081289 47.0852341,27.5 C47.0852341,19.4918711 53.5771052,13 61.5852341,13 Z M61.5852341,15 C54.6816747,15 49.0852341,20.5964406 49.0852341,27.5 C49.0852341,34.4035594 54.6816747,40 61.5852341,40 C68.4887935,40 74.0852341,34.4035594 74.0852341,27.5 C74.0852341,20.5964406 68.4887935,15 61.5852341,15 Z" id="Oval-Copy"></path>
            <path d="M18.5,12.1110792 C27.0604136,12.1110792 34,19.0506656 34,27.6110792 C34,35.2685167 28.4119621,41.7458065 20.9241621,42.9224744 C20.3785728,43.0082109 19.8667821,42.6354265 19.7810456,42.0898372 C19.6953092,41.5442478 20.0680936,41.0324572 20.6136829,40.9467207 C27.1323576,39.9223457 32,34.2800915 32,27.6110792 C32,20.1552351 25.9558441,14.1110792 18.5,14.1110792 C11.0441559,14.1110792 5,20.1552351 5,27.6110792 C5,31.8221297 6.9393912,35.7110898 10.1951946,38.2552181 C10.630374,38.595273 10.7074876,39.2237246 10.3674326,39.658904 C10.0273777,40.0940833 9.39892607,40.1711969 8.96374671,39.8311419 C5.22793044,36.9119252 3,32.4443724 3,27.6110792 C3,19.0506656 9.93958638,12.1110792 18.5,12.1110792 Z" id="Oval-Copy-2" transform="translate(18.500000, 27.522911) rotate(-105.000000) translate(-18.500000, -27.522911) "></path>
            <path d="M32.4561495,24.858847 L32.7143187,26.8421141 L21.822,28.259 L32.290603,32.2224806 L31.5825936,34.0929679 L17.3837447,28.7184761 C16.4497124,28.36493 16.5655733,27.0381431 17.4890424,26.8137555 L17.6086648,26.7915989 L32.4561495,24.858847 Z" id="Path-19"></path>
        </g>
    </g>
</svg>