<?xml version="1.0" encoding="UTF-8"?>
<svg width="85px" height="85px" viewBox="0 0 85 85" version="1.1" xmlns="http://www.w3.org/2000/svg" xmlns:xlink="http://www.w3.org/1999/xlink">
    <!-- Generator: Sketch 63.1 (92452) - https://sketch.com -->
    <title>icon/car/clementine@3x</title>
    <desc>Created with Sketch.</desc>
    <g id="icon/car/clementine" stroke="none" stroke-width="1" fill="none" fill-rule="evenodd">
        <g id="Group-11" transform="translate(6.000000, 15.000000)" fill="#EE7552" fill-rule="nonzero">
            <path d="M35.7850336,-0.998403607 L36.4962287,-1 C46.9786291,-1 55.0294439,0.0287689416 60.669601,2.10645273 C60.975633,2.21918678 61.2049438,2.47284407 61.2890323,2.78285121 L61.3136244,2.90158011 L63.9896894,21.3925988 C64.0687933,21.9391891 63.6898206,22.4464145 63.1432302,22.5255184 C62.6356821,22.598972 62.1620761,22.2774514 62.0336726,21.7935143 L62.0103106,21.6790592 L59.42,3.785 L59.1929245,3.70669143 C53.9797162,1.95299791 46.6516419,1.04595821 37.2254578,1.00170229 L36.4962287,1 C26.7044713,1 19.3398937,1.91104172 14.428772,3.70950809 L14.254,3.775 L10.9837908,21.7151489 C10.8918291,22.2196721 10.436253,22.5662676 9.93661729,22.5339136 L9.82068008,22.5196198 C9.3161569,22.4276581 8.96956143,21.972082 9.00191537,21.4724463 L9.01620919,21.3565091 L12.3866492,2.86549044 C12.448196,2.52783031 12.6786105,2.2453266 12.9970038,2.1171545 C18.0638857,0.0774354467 25.6504963,-0.952635762 35.7850336,-0.998403607 Z" id="Path-13-Copy"></path>
            <path d="M9,16 L1,16 C-0.1045695,16 -1,16.8954305 -1,18 L-1,22 C-1,23.1045695 -0.1045695,24 1,24 L9,24 C10.1045695,24 11,23.1045695 11,22 L11,18 C11,16.8954305 10.1045695,16 9,16 Z M1,18 L9,18 L9,22 L1,22 L1,18 Z" id="Rectangle-Copy-6"></path>
            <path d="M72,16 L64,16 C62.8954305,16 62,16.8954305 62,18 L62,22 C62,23.1045695 62.8954305,24 64,24 L72,24 C73.1045695,24 74,23.1045695 74,22 L74,18 C74,16.8954305 73.1045695,16 72,16 Z M64,18 L72,18 L72,22 L64,22 L64,18 Z" id="Rectangle-Copy-7"></path>
            <path d="M62,47 L54,47 C52.8954305,47 52,47.8954305 52,49 L52,53 C52,54.1045695 52.8954305,55 54,55 L62,55 C63.1045695,55 64,54.1045695 64,53 L64,49 C64,47.8954305 63.1045695,47 62,47 Z M54,49 L62,49 L62,53 L54,53 L54,49 Z" id="Rectangle-Copy-8"></path>
            <path d="M18,47 L10,47 C8.8954305,47 8,47.8954305 8,49 L8,53 C8,54.1045695 8.8954305,55 10,55 L18,55 C19.1045695,55 20,54.1045695 20,53 L20,49 C20,47.8954305 19.1045695,47 18,47 Z M10,49 L18,49 L18,53 L10,53 L10,49 Z" id="Rectangle-Copy-9"></path>
            <path d="M50,27 L22,27 C20.8954305,27 20,27.8954305 20,29 L20,39 C20,40.1045695 20.8954305,41 22,41 L50,41 C51.1045695,41 52,40.1045695 52,39 L52,29 C52,27.8954305 51.1045695,27 50,27 Z M22,29 L50,29 L50,39 L22,39 L22,29 Z" id="Rectangle-Copy-10"></path>
            <path d="M12.5,26 C10.0147186,26 8,28.0147186 8,30.5 C8,32.9852814 10.0147186,35 12.5,35 C14.9852814,35 17,32.9852814 17,30.5 C17,28.0147186 14.9852814,26 12.5,26 Z M12.5,28 C13.8807119,28 15,29.1192881 15,30.5 C15,31.8807119 13.8807119,33 12.5,33 C11.1192881,33 10,31.8807119 10,30.5 C10,29.1192881 11.1192881,28 12.5,28 Z" id="Oval-Copy-3"></path>
            <path d="M59.5,26 C57.0147186,26 55,28.0147186 55,30.5 C55,32.9852814 57.0147186,35 59.5,35 C61.9852814,35 64,32.9852814 64,30.5 C64,28.0147186 61.9852814,26 59.5,26 Z M59.5,28 C60.8807119,28 62,29.1192881 62,30.5 C62,31.8807119 60.8807119,33 59.5,33 C58.1192881,33 57,31.8807119 57,30.5 C57,29.1192881 58.1192881,28 59.5,28 Z" id="Oval-Copy-4"></path>
            <path d="M35.7585481,19.9255556 L37.239509,19.9296398 C51.6485833,20.0099798 61.5241057,21.2761142 66.9396347,23.7739338 C67.2545452,23.9191809 67.4688113,24.2154339 67.5125382,24.5534841 L67.5208053,24.6819988 L67.5208053,48.0233333 C67.5208053,48.5361692 67.1347651,48.9588405 66.6374264,49.0166056 L66.5208053,49.0233333 L42.25,49.0233333 C41.6977153,49.0233333 41.25,48.5756181 41.25,48.0233333 C41.25,47.5104975 41.6360402,47.0878262 42.1333789,47.0300611 L42.25,47.0233333 L65.52,47.023 L65.52,25.335 L65.2904943,25.2407387 C60.0209979,23.1208589 50.6407843,22.0040483 37.2127521,21.9295476 L35.7585481,21.9255556 L33.6602218,21.9339682 C20.5874161,22.0404851 11.6312381,23.1576669 6.86823357,25.2381772 L6.7,25.313 L6.7,47.023 L29.75,47.0233333 C30.2628358,47.0233333 30.6855072,47.4093735 30.7432723,47.9067122 L30.75,48.0233333 C30.75,48.5361692 30.3639598,48.9588405 29.8666211,49.0166056 L29.75,49.0233333 L5.70034399,49.0233333 C5.18750815,49.0233333 4.76483683,48.6372931 4.70707172,48.1399545 L4.70034399,48.0233333 L4.70034399,24.6819988 C4.70034399,24.3046294 4.91278063,23.9593982 5.24965028,23.7893201 C10.3937604,21.1921727 20.5289424,19.9255556 35.7585481,19.9255556 Z" id="Path-14-Copy"></path>
            <path d="M41.25,42 L30.75,42 C29.6454305,42 28.75,42.8954305 28.75,44 L28.75,48 C28.75,49.1045695 29.6454305,50 30.75,50 L41.25,50 C42.3545695,50 43.25,49.1045695 43.25,48 L43.25,44 C43.25,42.8954305 42.3545695,42 41.25,42 Z M30.75,44 L41.25,44 L41.25,48 L30.75,48 L30.75,44 Z" id="Rectangle-Copy-11"></path>
        </g>
    </g>
</svg>