<?xml version="1.0" encoding="UTF-8"?>
<svg width="85px" height="85px" viewBox="0 0 85 85" version="1.1" xmlns="http://www.w3.org/2000/svg" xmlns:xlink="http://www.w3.org/1999/xlink">
    <!-- Generator: Sketch 63.1 (92452) - https://sketch.com -->
    <title>icon/transport/clementine@3x</title>
    <desc>Created with Sketch.</desc>
    <g id="icon/transport/clementine" stroke="none" stroke-width="1" fill="none" fill-rule="evenodd">
        <g id="Group" transform="translate(6.000000, 10.000000)" fill="#EE7552" fill-rule="nonzero">
            <polygon id="Path-27" points="52.8980407 8.09400276 52.8980407 10.0940028 -3.55271368e-15 10.0940028 -3.55271368e-15 8.09400276"></polygon>
            <path d="M49.8980407,-1 C52.0402361,-1 53.7891196,0.683968471 53.8931454,2.80035966 L53.8980407,3 L53.8980407,60.4285714 C53.8980407,62.3373897 52.400554,63.8964512 50.516287,63.9950495 L50.3266122,64 L45.183755,64 C43.2749368,64 41.7158753,62.5025133 41.6172769,60.6182463 L41.6123264,60.4285714 L41.6123264,54 L43.6123264,54 L43.6123264,60.4285714 C43.6123264,61.2482321 44.2398779,61.9213203 45.040723,61.9935781 L45.183755,62 L50.3266122,62 C51.1462729,62 51.8193611,61.3724485 51.8916188,60.5716035 L51.8980407,60.4285714 L51.8980407,3 C51.8980407,1.9456382 51.0821629,1.08183488 50.0473031,1.00548574 L49.8980407,1 L3,1 C1.9456382,1 1.08183488,1.81587779 1.00548574,2.85073766 L1,3 L1,61 C1,61.5128358 1.38604019,61.9355072 1.88337887,61.9932723 L2,62 L7.55410297,62 C8.06693881,62 8.48961013,61.6139598 8.54737524,61.1166211 L8.55410297,61 L8.55410297,54 L10.554103,54 L10.554103,61 C10.554103,62.5976809 9.305183,63.9036609 7.73037576,63.9949073 L7.55410297,64 L2,64 C0.402319117,64 -0.903660879,62.75108 -0.994907307,61.1762728 L-1,61 L-1,3 C-1,0.857804607 0.683968471,-0.891078876 2.80035966,-0.995104693 L3,-1 L49.8980407,-1 Z" id="Path-25"></path>
            <polygon id="Path-26" points="-3.55271368e-15 53.5 52.8980407 53.5 52.8980407 55.5 -3.55271368e-15 55.5"></polygon>
            <path d="M33,42 C33.5522847,42 34,42.4477153 34,43 L34,48 C34,48.5522847 33.5522847,49 33,49 L19,49 C18.4477153,49 18,48.5522847 18,48 L18,43 C18,42.4477153 18.4477153,42 19,42 L33,42 Z M32,44 L20,44 L20,47 L32,47 L32,44 Z" id="Rectangle"></path>
            <path d="M9.5,39 C11.9852814,39 14,41.0147186 14,43.5 C14,45.9852814 11.9852814,48 9.5,48 C7.01471863,48 5,45.9852814 5,43.5 C5,41.0147186 7.01471863,39 9.5,39 Z M9.5,41 C8.11928813,41 7,42.1192881 7,43.5 C7,44.8807119 8.11928813,46 9.5,46 C10.8807119,46 12,44.8807119 12,43.5 C12,42.1192881 10.8807119,41 9.5,41 Z" id="Oval"></path>
            <path d="M42.5,39 C44.9852814,39 47,41.0147186 47,43.5 C47,45.9852814 44.9852814,48 42.5,48 C40.0147186,48 38,45.9852814 38,43.5 C38,41.0147186 40.0147186,39 42.5,39 Z M42.5,41 C41.1192881,41 40,42.1192881 40,43.5 C40,44.8807119 41.1192881,46 42.5,46 C43.8807119,46 45,44.8807119 45,43.5 C45,42.1192881 43.8807119,41 42.5,41 Z" id="Oval-Copy"></path>
            <path d="M64.5,15.5 C68.918278,15.5 72.5,19.081722 72.5,23.5 C72.5,27.918278 68.918278,31.5 64.5,31.5 C60.081722,31.5 56.5,27.918278 56.5,23.5 C56.5,19.081722 60.081722,15.5 64.5,15.5 Z M64.5,17.5 C61.1862915,17.5 58.5,20.1862915 58.5,23.5 C58.5,26.8137085 61.1862915,29.5 64.5,29.5 C67.8137085,29.5 70.5,26.8137085 70.5,23.5 C70.5,20.1862915 67.8137085,17.5 64.5,17.5 Z" id="Oval-Copy-2"></path>
            <polygon id="Path-28" points="25.5000026 9.49772581 27.4999974 9.50227419 27.4490586 31.9008894 25.4490637 31.896341"></polygon>
            <polygon id="Path-29" points="52.8980407 30.8986152 52.8980407 32.8986152 -3.55271368e-15 32.8986152 -3.55271368e-15 30.8986152"></polygon>
            <path d="M64.5,30.5 C65.0128358,30.5 65.4355072,30.8860402 65.4932723,31.3833789 L65.5,31.5 L65.5,63.5 C65.5,64.0522847 65.0522847,64.5 64.5,64.5 C63.9871642,64.5 63.5644928,64.1139598 63.5067277,63.6166211 L63.5,63.5 L63.5,31.5 C63.5,30.9477153 63.9477153,30.5 64.5,30.5 Z" id="Line"></path>
        </g>
    </g>
</svg>