<?xml version="1.0" encoding="UTF-8"?>
<svg width="85px" height="85px" viewBox="0 0 85 85" version="1.1" xmlns="http://www.w3.org/2000/svg" xmlns:xlink="http://www.w3.org/1999/xlink">
    <!-- Generator: Sketch 63.1 (92452) - https://sketch.com -->
    <title>icon/school bus/clementine@3x</title>
    <desc>Created with Sketch.</desc>
    <g id="icon/school-bus/clementine" stroke="none" stroke-width="1" fill="none" fill-rule="evenodd">
        <g id="Group" transform="translate(11.000000, 5.000000)" fill="#25204f" fill-rule="nonzero">
            <path d="M52.9182165,0 C56.1566135,0 58.7957883,2.56557489 58.914078,5.77506174 L58.9182165,6 L58.9182165,37.8190648 L56.9182165,37.8190648 L56.9182165,6 C56.9182165,3.85780461 55.234248,2.10892112 53.1178569,2.00489531 L52.9182165,2 L10.3679366,2 C8.22574118,2 6.47685769,3.68396847 6.37283188,5.80035966 L6.36793657,6 L6.36793657,38 L4.36793657,38 L4.36793657,6 C4.36793657,2.76160306 6.93351146,0.122428238 10.1429983,0.00413847206 L10.3679366,0 L52.9182165,0 Z" id="Path-10"></path>
            <polygon id="Path-11" points="57.9182165 11.3877248 57.9182165 13.3877248 5.36793657 13.3877248 5.36793657 11.3877248"></polygon>
            <path d="M10.4096274,12.0832 L10.4096274,30.0832 C10.4096274,30.5960358 10.7956676,31.0187072 11.2930063,31.0764723 L11.4096274,31.0832 L50.9827858,31.0832 C51.4956216,31.0832 51.918293,30.6971598 51.9760581,30.1998211 L51.9827858,30.0832 L51.9827858,12.0832 L53.9827858,12.0832 L53.9827858,30.0832 C53.9827858,31.6808809 52.7338658,32.9868609 51.1590586,33.0781073 L50.9827858,33.0832 L11.4096274,33.0832 C9.81194652,33.0832 8.50596653,31.83428 8.4147201,30.2594728 L8.40962741,30.0832 L8.40962741,12.0832 L10.4096274,12.0832 Z" id="Path-24"></path>
            <path d="M56.3642288,36 C59.0529835,36 61.246047,38.1223067 61.3596093,40.7831104 L61.3642288,41 L61.3642288,56 L59.3642288,56 L59.3642288,41 C59.3642288,39.4023191 58.1153089,38.0963391 56.5405016,38.0050927 L56.3642288,38 L7.32924015,38 C5.73155927,38 4.42557927,39.24892 4.33433285,40.8237272 L4.32924015,41 L4.32924015,55.9024 L2.32924015,55.9024 L2.32924015,41 C2.32924015,38.3112453 4.45154686,36.1181819 7.11235053,36.0046195 L7.32924015,36 L56.3642288,36 Z" id="Path-21"></path>
            <path d="M61,55 C62.1045695,55 63,55.8954305 63,57 L63,62 C63,63.1045695 62.1045695,64 61,64 L2,64 C0.8954305,64 0,63.1045695 0,62 L0,57 C0,55.8954305 0.8954305,55 2,55 L61,55 Z M61,57 L2,57 L2,62 L61,62 L61,57 Z" id="Rectangle"></path>
            <path d="M11,44 C13.4852814,44 15.5,46.0147186 15.5,48.5 C15.5,50.9852814 13.4852814,53 11,53 C8.51471863,53 6.5,50.9852814 6.5,48.5 C6.5,46.0147186 8.51471863,44 11,44 Z M11,46 C9.61928813,46 8.5,47.1192881 8.5,48.5 C8.5,49.8807119 9.61928813,51 11,51 C12.3807119,51 13.5,49.8807119 13.5,48.5 C13.5,47.1192881 12.3807119,46 11,46 Z" id="Oval"></path>
            <path d="M52.5,44 C54.9852814,44 57,46.0147186 57,48.5 C57,50.9852814 54.9852814,53 52.5,53 C50.0147186,53 48,50.9852814 48,48.5 C48,46.0147186 50.0147186,44 52.5,44 Z M52.5,46 C51.1192881,46 50,47.1192881 50,48.5 C50,49.8807119 51.1192881,51 52.5,51 C53.8807119,51 55,49.8807119 55,48.5 C55,47.1192881 53.8807119,46 52.5,46 Z" id="Oval-Copy"></path>
            <path d="M7,64 L7,70 C7,71.0543618 7.81587779,71.9181651 8.85073766,71.9945143 L9,72 L15.3334899,72 C16.3878517,72 17.251655,71.1841222 17.3280042,70.1492623 L17.3334899,70 L17.3334899,64 L19.3334899,64 L19.3334899,70 C19.3334899,72.1421954 17.6495214,73.8910789 15.5331303,73.9951047 L15.3334899,74 L9,74 C6.85780461,74 5.10892112,72.3160315 5.00489531,70.1996403 L5,70 L5,64 L7,64 Z" id="Path-23"></path>
            <path d="M46,64 L46,70 C46,71.0543618 46.8158778,71.9181651 47.8507377,71.9945143 L48,72 L54.3334899,72 C55.3878517,72 56.251655,71.1841222 56.3280042,70.1492623 L56.3334899,70 L56.3334899,64 L58.3334899,64 L58.3334899,70 C58.3334899,72.1421954 56.6495214,73.8910789 54.5331303,73.9951047 L54.3334899,74 L48,74 C45.8578046,74 44.1089211,72.3160315 44.0048953,70.1996403 L44,70 L44,64 L46,64 Z" id="Path-23-Copy"></path>
            <path d="M5.52857704,10.456 L5.52857704,12.456 L4,12.456 C3.48716416,12.456 3.06449284,12.8420402 3.00672773,13.3393789 L3,13.456 L3,27.953288 C3,28.4661238 3.38604019,28.8887952 3.88337887,28.9465603 L4,28.953288 L5.52857704,28.953288 L5.52857704,30.953288 L4,30.953288 C2.40231912,30.953288 1.09633912,29.704368 1.00509269,28.1295608 L1,27.953288 L1,13.456 C1,11.8583191 2.24891996,10.5523391 3.82372721,10.4610927 L4,10.456 L5.52857704,10.456 Z" id="Path-20"></path>
            <path d="M62.528577,10.456 L62.528577,12.456 L61,12.456 C60.4871642,12.456 60.0644928,12.8420402 60.0067277,13.3393789 L60,13.456 L60,27.953288 C60,28.4661238 60.3860402,28.8887952 60.8833789,28.9465603 L61,28.953288 L62.528577,28.953288 L62.528577,30.953288 L61,30.953288 C59.4023191,30.953288 58.0963391,29.704368 58.0050927,28.1295608 L58,27.953288 L58,13.456 C58,11.8583191 59.24892,10.5523391 60.8237272,10.4610927 L61,10.456 L62.528577,10.456 Z" id="Path-20-Copy" transform="translate(60.264289, 20.704644) rotate(-180.000000) translate(-60.264289, -20.704644) "></path>
        </g>
    </g>
</svg>