<?xml version="1.0" encoding="UTF-8"?>
<svg width="85px" height="85px" viewBox="0 0 85 85" version="1.1" xmlns="http://www.w3.org/2000/svg" xmlns:xlink="http://www.w3.org/1999/xlink">
    <!-- Generator: Sketch 63.1 (92452) - https://sketch.com -->
    <title>icon/walk/clementine@3x</title>
    <desc>Created with Sketch.</desc>
    <g id="icon/walk/clementine" stroke="none" stroke-width="1" fill="none" fill-rule="evenodd">
        <g id="Group" transform="translate(25.342598, 5.000000)" fill="#25204f" fill-rule="nonzero">
            <path d="M17.1574024,-0.745407205 L16.4099899,-0.742545131 C10.5831739,-0.695999948 8.38044214,-0.0638408694 7.24311535,2.45337353 L7.18156209,2.63369356 L7.13539985,2.84872319 C6.80906971,4.55566418 7.51187078,5.94135754 9.09289216,6.85158552 L9.167,6.892 L9.17680179,7.12122808 C9.23048546,8.75698623 8.98228593,9.64037424 8.63185349,9.81602462 C7.62289614,10.3217533 7.15586673,11.223133 7.38667605,12.1515859 L7.42948144,12.2987928 C7.57493898,12.7348273 7.87110704,13.1171585 8.249,13.355 L8.27308273,13.8280884 C8.30970719,14.4390472 8.36876357,14.8257902 8.51758121,15.3298886 C9.10217286,17.3101092 10.7285748,18.4904414 13.5534179,18.4904414 L13.7352523,18.4904414 L13.9715562,18.4009434 C14.0466387,18.3710293 14.0719021,18.3564199 14.076,18.34 L14.0917039,18.3625885 C14.1638017,18.4896644 14.2285294,18.7709848 14.2515365,19.1981987 L14.255,19.298 L14.3874141,19.0581465 C11.1059949,24.9322792 9.9562772,32.4692412 10.9095102,41.6523438 L10.9941893,42.4257569 L11.0812298,42.6577616 C11.3391015,43.4385825 11.0513577,43.4280317 23.7031346,43.182726 C23.8265694,43.1822201 24.1856906,43.3239059 24.7011309,43.6299242 L24.8603732,43.7266818 C27.3036575,45.2443902 29.3297671,42.6547007 27.8628569,39.1931686 L27.7777487,38.9999849 C26.6603995,36.5568047 25.7578749,30.5660211 25.7578749,28.0058337 C25.7578749,26.0454465 22.5106073,18.5964786 20.6253199,16.8314956 L20.4960561,16.7177201 C20.1376409,16.423303 20.1524022,16.136122 20.6241328,15.5049226 C21.0709603,14.9070449 21.8309244,14.2488148 22.7364442,13.623315 L23.0122993,13.43674 C25.3563441,11.8839607 26.6672475,8.77844165 25.7051494,5.93416952 C24.2250706,1.55857978 21.9798725,-0.745407205 17.1574024,-0.745407205 Z M17.1574024,1.25459279 C20.9500754,1.25459279 22.5749388,2.92200198 23.8106004,6.57501607 C24.462004,8.500775 23.5381484,10.6893813 21.9077874,11.7693908 C20.7061432,12.5654029 19.6810034,13.4259918 19.0221019,14.3076353 C18.0202179,15.6482068 17.911579,17.0636573 19.080178,18.136138 L19.2265652,18.2631627 C20.608908,19.3986766 23.7578749,26.578945 23.7578749,28.0058337 C23.7578749,30.8275716 24.6995091,37.0779571 25.9589312,39.8317919 C26.8631694,41.8089865 26.447428,42.3580711 25.9156947,42.0277714 C25.0197875,41.4712557 24.3045565,41.1798761 23.678875,41.1829258 L20.268497,41.2432447 C18.1918973,41.2758342 16.5087474,41.2931866 15.2159185,41.2953554 L13.801624,41.2901335 L12.881,41.271 L12.8363192,40.8132136 C12.0385966,32.3018439 13.1465413,25.3804462 16.133451,20.0335209 L16.2604325,19.8062087 L16.2604325,19.5458337 L16.2575703,19.3372904 C16.1984842,17.2114035 15.2267096,15.9945404 13.5372833,16.4460306 L13.392,16.488 L13.5534179,16.4904414 C11.6038124,16.4904414 10.7660343,15.8824389 10.4357412,14.7636182 C10.3243649,14.386347 10.2854425,14.0774164 10.2565371,13.4605338 L10.2340987,12.9695826 C10.2246424,12.8166534 10.212485,12.7125137 10.1901851,12.5978361 L10.164477,12.4826101 C10.0685403,12.1042573 9.8674828,11.7875451 9.48055416,11.6615192 L9.434,11.649 L9.52805238,11.6039921 C10.9253683,10.9036029 11.3565516,9.07130686 11.1252456,6.1749843 L11.0776529,5.57904679 L10.5301918,5.33885323 L10.347874,5.2551279 C9.29280495,4.74730027 8.93357559,4.13760474 9.0954877,3.24751497 L9.108,3.185 L9.16509215,3.0774864 C9.94254841,1.66167963 11.8266842,1.25459279 17.1574024,1.25459279 Z" id="Path-2"></path>
            <path d="M9.56017169,5.43173525 C11.6938531,3.95826078 13.4975193,3.9149233 14.2621486,5.74374536 L14.3287783,5.91517167 C15.0213515,7.83449326 15.7926367,8.6609049 16.6013534,8.33413077 L16.6985764,8.28937873 C17.0363276,8.1149674 17.4437588,8.1471308 17.7499603,8.37237699 C19.2977098,9.51092375 19.2809384,11.0092723 17.9981468,12.4782741 L17.814,12.678 L19.9622329,15.1192337 C20.2990211,15.5019492 20.2905604,16.0697946 19.9611652,16.4418583 L19.8721444,16.530575 C19.4894289,16.8673631 18.9215835,16.8589025 18.5495198,16.5295073 L18.4608031,16.4404864 L15.6652356,13.2636917 C15.2886696,12.8357741 15.3454169,12.1801312 15.7899065,11.8232777 L16.1011977,11.5656927 C16.7164599,11.0381115 16.9520399,10.7022203 16.9079693,10.4276097 L16.889,10.358 L16.7506,10.3956536 C14.8627549,10.8436506 13.4767154,9.31323403 12.5299124,6.81677132 L12.4475092,6.59401392 C12.3027523,6.19285049 11.977622,6.19285049 10.6966671,7.07745034 C10.2422154,7.39128488 9.6193964,7.27729218 9.30556186,6.82284051 C8.99172731,6.36838884 9.10572002,5.7455698 9.56017169,5.43173525 Z" id="Path-13"></path>
            <path d="M17.7804752,24.0201799 C18.3302556,23.9676447 18.8185289,24.3707416 18.8710641,24.920522 C19.0367027,26.6539288 19.3756854,27.94371 19.8613895,28.7792701 C19.8786645,28.8089884 20.0642358,28.8502861 20.6478371,28.7210264 C21.4941244,28.5335853 22.71171,28.0046447 24.2696628,27.1331086 C24.7516555,26.8634766 25.3609678,27.0356289 25.6305999,27.5176216 C25.900232,27.9996143 25.7280797,28.6089266 25.246087,28.8785587 L24.6908949,29.1831225 C21.2426175,31.0353582 19.0837372,31.4211458 18.1322972,29.784377 C17.4793838,28.6611656 17.0708699,27.106828 16.8801331,25.1107688 C16.8275979,24.5609884 17.2306948,24.0727151 17.7804752,24.0201799 Z" id="Path-14"></path>
            <path d="M19.6859498,28.8923016 C20.1839185,28.6534594 20.7812218,28.8635229 21.020064,29.3614916 L21.5591616,30.4925669 C23.6248094,34.8564962 24.604496,37.3073624 24.604496,38.2555072 C24.604496,38.8514539 24.437672,39.276733 24.1035828,39.7519552 L23.8593547,40.0772827 L23.7561582,40.2027453 C23.7369817,40.2281751 23.7499349,40.229877 23.7811967,40.2747069 L23.86,40.408 L23.9380765,40.3453581 C24.3090747,40.0810623 24.8152283,40.1022854 25.1627992,40.3967109 L25.2534388,40.4837732 C25.6272599,40.890315 25.6007345,41.5229241 25.1941927,41.8967452 C24.0868219,42.9149887 22.8107866,42.6291986 22.0631831,41.2952654 C21.5696645,40.4146906 21.6656435,39.7270295 22.1635966,39.009225 L22.3822468,38.7173757 C22.5626364,38.4816844 22.604496,38.3915882 22.604496,38.2555072 C22.604496,38.0423207 22.3334721,37.1989332 21.8083706,35.924387 L21.4554984,35.0886916 C20.9013801,33.8038369 20.1548634,32.1822939 19.2167598,30.2264158 C18.9779176,29.7284471 19.1879811,29.1311439 19.6859498,28.8923016 Z" id="Path-15"></path>
            <path d="M12.584,36.591 L13.2800601,24.2223723 L10.6536285,29.9560393 C9.69219174,32.0338873 8.88309302,33.6990757 8.22780344,34.9492005 L7.85009543,35.6543365 C7.27118609,36.7085383 6.84906269,37.3466747 6.7027302,37.4569888 L6.56704637,37.5552396 C6.37902475,37.6830416 6.23166292,37.7364542 5.73199235,37.9003653 C5.03763519,38.1281411 4.61695916,38.4396766 4.378884,39.1288065 L4.3270508,39.2989711 C4.2114365,39.7409881 4.27434099,40.0958054 4.45956126,40.5276196 L4.529,40.683 L4.43448999,40.8061984 C3.82658375,41.6783387 4.03965053,43.1925699 4.90650393,43.9287955 C6.13937948,44.9758866 7.81063476,44.2791526 9.55709504,42.1395218 L9.78300753,41.8615451 C11.9252584,39.2134503 12.8620222,37.6891918 12.5969451,36.6318134 L12.584,36.591 Z M10.386813,35.1304387 L10.698,34.509 L10.5576337,37.0189131 L10.604,37.092 L10.6185839,37.050456 C10.5685649,37.220352 10.4463933,37.4796613 10.2516148,37.8112563 C9.81714419,38.550908 9.06715973,39.576888 8.0077098,40.8748458 C7.33644436,41.6972293 6.77847568,42.171035 6.37610463,42.3387806 L6.21093827,42.4030794 C6.20316117,42.4052393 6.20169391,42.4048258 6.20118828,42.4043964 C6.1614471,42.3706439 6.10656984,42.2477797 6.09201244,42.0944528 L6.08563413,42.0127337 C6.08076931,41.9731556 6.06913624,41.9670911 6.01747686,42.0168049 C6.57944224,41.4760046 6.71255185,40.859839 6.50763956,40.231265 L6.43703665,40.0439425 L6.328,39.808 L6.62947191,39.7121604 C6.76216146,39.6679271 6.87988172,39.6247036 7.0001644,39.5744503 C7.31572525,39.4426111 7.61188867,39.2762499 7.906671,39.0540256 C8.44710423,38.646615 9.24382476,37.3795836 10.386813,35.1304387 Z" id="Path-16"></path>
            <path d="M5.92549563,67.0446221 L6.09858275,69.0371182 C3.67540737,69.2476182 2.03704606,69.5680136 1.25743385,69.9482093 L1.15191049,70.0029244 L1.097,70.034 L1.23039442,70.1598568 L1.31357147,70.2322031 C2.66358217,71.3733822 5.74810201,71.7669914 10.5022923,71.2768397 L10.9390892,71.229842 L10.2099853,68.2808954 L12.1515185,67.8008449 L12.8806557,70.7497931 C12.9016007,70.8345036 12.9169791,70.9204942 12.9266924,71.0072134 C13.0496396,72.1048722 12.2595007,73.0943708 11.1617864,73.2174049 C5.65064732,73.8346999 1.96114478,73.3984213 0.0224372342,71.7596102 C-1.36775591,70.5844644 -1.36775591,69.1107975 0.184098216,68.2526846 C1.18454028,67.6994803 2.94235099,67.3253021 5.53096355,67.0803949 L5.92549563,67.0446221 Z" id="Path-4"></path>
            <path d="M33.4783434,70.7065651 L32.3402421,66.3743877 L27.3550412,66.4251018 C24.2614433,66.7476082 22.2294913,67.1847639 21.0895052,67.7913447 C19.4593615,68.6587357 19.3391618,70.1592192 20.7596959,71.3600125 C22.6692444,72.9741752 26.2839146,73.546974 31.6685393,73.2108647 C32.7709498,73.1421335 33.6089135,72.1926203 33.5400971,71.0901492 C33.5320098,70.9605868 33.5113277,70.8321194 33.4783434,70.7065651 Z M27.4703478,68.4195081 L30.801,68.389 L31.5440149,71.2147451 C26.6369723,71.5210436 23.4509909,71.016177 22.0508301,69.8326055 L21.85,69.654 L22.0289787,69.5569577 C22.8756427,69.1064522 24.7143385,68.7108738 27.4703478,68.4195081 Z" id="Path-4-Copy" transform="translate(26.659212, 69.838825) rotate(-26.000000) translate(-26.659212, -69.838825) "></path>
            <path d="M18.676303,16.5303347 L20.3407502,17.6392151 C18.9855476,19.6733959 17.3079237,20.693339 15.3784786,20.5606936 L15.145741,20.5392348 L15.3751241,18.5524325 C16.5200115,18.6846137 17.548608,18.126593 18.5295159,16.743935 L18.676303,16.5303347 Z" id="Path-17"></path>
            <path d="M11.1463578,41.7704462 C11.2731369,41.2329097 11.8116711,40.899925 12.3492076,41.026704 C12.8483487,41.1444275 13.171116,41.6171846 13.1131725,42.1145026 L13.0929498,42.2295538 L7.241,67.04 L10.523,67.04 L21.2982635,42.0358525 C21.6677154,41.1785216 22.8822706,41.2612944 23.1629146,42.1059744 L23.1952284,42.2258638 C25.3316644,52.3879109 27.8969536,59.9943066 30.8702979,65.0291567 C31.1637475,65.5260633 30.9768591,66.1675286 30.4624399,66.4290659 L26.7603502,68.3112556 C26.3294982,68.5303063 25.8036415,68.4098475 25.5111049,68.0250892 L24.4562191,66.6312314 C21.0487758,62.1067103 18.7286621,58.7966509 17.4629875,56.6334157 L17.304,56.357 L12.09911,68.4366207 C11.9586435,68.7625798 11.6577784,68.9864877 11.3122097,69.0322209 L11.1807519,69.0408702 L5.97786221,69.0408702 C5.37311211,69.0408702 4.91668626,68.5120209 4.98400747,67.9285898 L5.00456624,67.8113164 L11.1463578,41.7704462 Z M21.907,45.675 L18.343,53.945 L18.3666793,54.0110821 C18.9111152,55.5086616 21.4534079,59.3077701 25.9099796,65.2365355 L26.599,66.149 L28.621,65.12 L28.4746228,64.8519009 C26.0327366,60.3231233 23.8964234,54.1460048 22.0548384,46.3122579 L21.907,45.675 Z" id="Path-3"></path>
        </g>
    </g>
</svg>