<?xml version="1.0" encoding="UTF-8"?>
<svg width="263px" height="189px" viewBox="0 0 263 189" version="1.1" xmlns="http://www.w3.org/2000/svg" xmlns:xlink="http://www.w3.org/1999/xlink">
    <!-- Generator: Sketch 63.1 (92452) - https://sketch.com -->
    <title>Group</title>
    <desc>Created with Sketch.</desc>
    <defs>
        <path d="M29.1023583,0.188113545 L29.2596839,0.188113545 L29.4164456,0.201998045 C36.345126,0.815676273 41.7902479,4.4535353 45.6601594,10.544372 C48.8562457,15.5746781 50.923983,22.1570421 52.0822775,30.0440527 C53.7167184,41.1732188 53.4846195,52.7892218 52.2486958,66.0869685 L52.1869098,66.7444379 L52.180655,66.796145 C51.5369984,72.1171334 49.5884991,77.810054 46.4628396,82.2864043 C42.3181203,88.2221805 36.4078129,91.6872809 28.966733,91.6872809 C16.5267645,91.6872809 8.36406247,84.1852402 4.02471028,71.6091502 C1.22145397,63.4848953 0.241099881,54.5872328 0.16751674,44.108178 L0.162959769,43.1511577 L0.162959769,42.3452637 C0.183733172,31.6519955 1.14425077,23.6707676 4.19173325,16.487354 C8.54171985,6.23372566 16.6319406,0.307395864 28.734389,0.189894631 L29.1023583,0.188113545 Z M26.3206726,24.5246283 C24.4193317,24.5246283 22.6038145,26.2611755 21.1141488,29.5052799 C19.8897201,32.171767 19.0729623,35.6293672 19.0456273,37.4379307 L19.0449194,37.5833364 L19.0232044,38.164858 C18.9829024,39.3319961 18.9638709,40.469279 18.9570567,41.8722464 L18.9543746,42.7398264 L18.9538059,43.8505445 C18.9538059,53.5166862 20.0106642,60.0909335 21.9408683,63.9416185 C23.4191521,66.8907392 25.2678359,68.0605225 27.8696018,68.0605225 C30.2998472,68.0605225 32.1118432,65.5775497 33.2545184,60.6533917 C34.1077402,56.9765826 34.3968393,53.000551 34.415417,48.4693828 L34.416268,48.1595763 L34.4164471,47.5854153 C34.4164471,43.8662746 33.7198492,37.9700064 32.4722807,33.3973051 C30.897816,27.6264339 28.7008555,24.5246283 26.3206726,24.5246283 Z" id="path-1"></path>
        <path d="M7.69411712,0.263439744 C9.50221636,0.263439744 10.9679704,1.72919378 10.9679704,3.53729302 C10.9679704,4.38126604 10.64204,5.19263482 10.0581973,5.80207565 L5.56267409,10.4947013 C4.33389885,11.7773512 2.29798654,11.8210252 1.01533667,10.59225 C0.382106594,9.98561719 0.0240381776,9.14672406 0.0240381776,8.26980693 L0.0240381776,7.93351869 C0.0240381776,3.69745106 3.45804949,0.263439744 7.69411712,0.263439744 Z" id="path-3"></path>
        <path d="M7.72905024,0.348630579 C9.53714948,0.348630579 11.0029035,1.81438462 11.0029035,3.62248386 C11.0029035,4.46645688 10.6769731,5.27782566 10.0931304,5.88726649 L5.59760721,10.5798921 C4.36883197,11.862542 2.33291967,11.906216 1.0502698,10.6774408 C0.417039718,10.070808 0.0589713013,9.23191489 0.0589713013,8.35499776 L0.0589713013,8.01870952 C0.0589713013,3.78264189 3.49298261,0.348630579 7.72905024,0.348630579 Z" id="path-5"></path>
        <path d="M50.5198588,6.98426824 L50.6820438,6.98132167 C52.4215172,6.94971909 53.8572579,8.3342219 53.8888604,10.0736952 C53.9045991,10.9399866 53.5628303,11.7745144 52.9439716,12.3809155 L48.0163568,17.2093374 C46.763676,18.4368017 44.7531211,18.4163597 43.5256568,17.163679 C42.9297448,16.5555248 42.6030164,15.7335394 42.6188141,14.8822386 C42.6991558,10.5528337 46.1904229,7.062925 50.5198588,6.98426824 Z" id="path-7"></path>
        <path d="M7.72905024,0.348630579 C9.53714948,0.348630579 11.0029035,1.81438462 11.0029035,3.62248386 C11.0029035,4.46645688 10.6769731,5.27782566 10.0931304,5.88726649 L5.59760721,10.5798921 C4.36883197,11.862542 2.33291967,11.906216 1.0502698,10.6774408 C0.417039718,10.070808 0.0589713013,9.23191489 0.0589713013,8.35499776 L0.0589713013,8.01870952 C0.0589713013,3.78264189 3.49298261,0.348630579 7.72905024,0.348630579 Z" id="path-9"></path>
        <path d="M66.0217316,24.2754925 C69.2290447,24.2074947 71.8842088,26.7524126 71.9522067,29.9597257 C71.9857657,31.542635 71.3717321,33.0706516 70.2521948,34.190189 L61.1784978,43.2638859 C58.9100753,45.5323085 55.2322357,45.5323085 52.9638132,43.2638859 C51.8442759,42.1443486 51.2302423,40.616332 51.2638013,39.0334227 C51.4350741,30.9548498 57.9431587,24.4467653 66.0217316,24.2754925 Z" id="path-11"></path>
        <path d="M38.7052858,72.4257288 L38.7645076,72.4269747 C41.911006,72.4931711 44.4080842,75.0975748 44.3418878,78.2440732 C44.3108782,79.7180509 43.7098118,81.1226462 42.6649642,82.1627737 L35.3857785,89.4090762 C33.1509422,91.6338169 29.5357407,91.6256327 27.311,89.3907964 C26.275257,88.3503532 25.6800744,86.9509373 25.6490583,85.4831759 C25.4998235,78.4209958 31.1038729,72.5749888 38.166053,72.425754 C38.3457771,72.4219561 38.5255613,72.4219477 38.7052858,72.4257288 Z" id="path-13"></path>
        <path d="M42.6213932,82.7736542 C45.6132522,82.7181337 48.0836415,85.0985063 48.139162,88.0903653 C48.1660993,89.5419502 47.6093465,90.9436202 46.5937366,91.9810983 L38.3608957,100.391208 C36.2852132,102.511584 32.8836356,102.547815 30.7632595,100.472133 C29.7066256,99.4377707 29.1229976,98.0136561 29.1498569,96.5352587 L29.1551274,96.2451617 C29.2892394,88.8633496 35.2396338,82.910639 42.6213932,82.7736542 Z" id="path-15"></path>
        <path d="M29.1906056,0 L29.3794319,0.020285942 C36.4316433,0.777917675 41.8637251,5.17988907 45.6644008,12.4355904 C48.7685025,18.3614929 50.7833321,26.1412763 51.9162597,35.4983107 C53.5045805,48.6165122 53.3024254,62.3545472 52.1228321,78.0411591 L52.0144226,79.4535374 L52.0101053,79.4968284 C51.3897568,85.7172008 49.5063203,92.3918513 46.4815988,97.6460978 C42.3965963,104.742159 36.4656068,108.959858 28.8657107,108.959858 C22.137263,108.959858 16.5246919,106.290753 12.1517126,101.348136 C8.46772094,97.1842562 5.7590705,91.5383041 3.84051773,84.6469023 C1.12921952,74.9079752 0.213137883,64.3347637 0.164976756,51.7194237 L0.162952142,50.6484504 L0.162952142,50.1429872 C0.183360936,37.4035137 1.12368565,27.9262081 4.08589652,19.4568933 C8.34125218,7.290323 16.3859075,0.143860771 28.6285164,0.00214818311 L29.0007899,0 L29.1906056,0 Z M26.2260747,27.3328005 C24.4676219,27.3328005 22.5897,29.5124392 21.0585397,33.5586403 C19.7818433,36.9324019 18.9325424,41.2985522 18.9059021,43.6540273 L18.9052568,43.8112997 L18.8918229,44.2365426 C18.8383754,46.003802 18.8182069,47.6766612 18.8143314,49.9309054 L18.8136703,50.5104367 L18.8134528,51.494197 L18.8147516,52.2069597 C18.8571593,63.7748465 19.9369906,71.7243468 21.9009672,76.4787042 L22.0053207,76.7266973 C23.5252765,80.272095 25.344822,81.6270575 27.7867425,81.6270575 C30.0767837,81.6270575 32.0035583,78.42325 33.1812059,72.2651706 C34.0588534,67.6758322 34.3536917,62.7472116 34.3721338,57.1302293 L34.3729479,56.7629248 L34.3731284,56.0606107 C34.3731284,51.4279784 33.6626553,44.130657 32.3857159,38.4512956 C30.7772555,31.2974498 28.4631047,27.3328005 26.2260747,27.3328005 Z" id="path-17"></path>
        <path d="M19.1714305,0.241761446 C23.6870154,0.241761446 27.3476203,3.90236634 27.3476203,8.41795133 C27.3476203,10.519355 26.5385217,12.5400801 25.0882284,14.060786 L13.8944895,25.797988 C10.8386208,29.0022211 5.76380555,29.1224942 2.55957246,26.0666255 C0.973150126,24.5536586 0.0754649036,22.4570627 0.0754649036,20.2648482 L0.0754649036,19.337727 C0.0754649036,8.79131644 8.6250199,0.241761446 19.1714305,0.241761446 Z" id="path-19"></path>
        <path d="M60.4184891,104.454622 C64.1363181,104.378227 67.2121448,107.330192 67.2885403,111.048021 C67.3256609,112.854517 66.6351509,114.600128 65.3722607,115.89238 L55.0611224,126.443247 C52.4854821,129.07877 48.2609998,129.127314 45.6254771,126.551674 C44.307583,125.263724 43.5810007,123.488095 43.6179809,121.645734 L43.625818,121.25529 C43.8104435,112.057193 51.2204818,104.643627 60.4184891,104.454622 Z" id="path-21"></path>
        <path d="M107.463197,56.8437322 L108.184965,56.8437322 C111.669326,56.8437322 114.49396,59.6683654 114.49396,63.152727 C114.49396,64.877292 113.787995,66.5266854 112.540291,67.7172148 L103.307447,76.5269762 C100.737108,78.9795337 96.6652448,78.8840523 94.2126873,76.3137126 C93.0709632,75.1171581 92.4339648,73.5268315 92.4339648,71.8729643 C92.4339648,63.5725486 99.1627812,56.8437322 107.463197,56.8437322 Z" id="path-23"></path>
        <path d="M16.364634,0.355524952 C20.2099105,0.355524952 23.327123,3.47273743 23.327123,7.31801389 C23.327123,9.10808182 22.6376658,10.8293765 21.4019175,12.1244708 L11.8666462,22.1176663 C9.26317576,24.8461666 4.94075946,24.9475232 2.21225923,22.3440527 C0.861803554,21.0554798 0.0977004204,19.270254 0.0977004204,17.403666 L0.0977004204,16.6224586 C0.0977004204,7.63847921 7.38065468,0.355524952 16.364634,0.355524952 Z" id="path-25"></path>
        <path d="M11.7990111,3.66944343 C13.5370949,3.62868698 14.9791299,5.00464269 15.0198863,6.74272652 C15.0400523,7.60271937 14.7074013,8.4335024 14.0992731,9.04192203 L9.13300372,14.0105714 C7.90418539,15.2399786 5.91139985,15.240456 4.68199263,14.0116377 C4.07331929,13.4032559 3.74031532,12.5721685 3.76048976,11.7118171 L3.76058226,11.7078722 C3.86366659,7.31177741 7.40291625,3.77252775 11.7990111,3.66944343 Z" id="path-27"></path>
        <path d="M-21.3014099,53.0795817 L-21.2357637,53.0811088 C-18.0726127,53.1546951 -15.5680256,55.7785891 -15.6416119,58.9417401 C-15.6759922,60.4195995 -16.2803023,61.8269666 -17.3282094,62.8696272 L-24.5649456,70.0701314 C-26.8127766,72.3067082 -30.4481075,72.2975849 -32.6846844,70.0497539 C-33.7224506,69.0067658 -34.3202114,67.60518 -34.3545984,66.1342618 C-34.5193001,59.0890814 -28.94157,53.2443173 -21.8963896,53.0796157 C-21.6980903,53.0749798 -21.4997098,53.0749685 -21.3014099,53.0795817 Z" id="path-29"></path>
        <path d="M-8.7537417,72.0502938 L-8.68809555,72.051821 C-5.52494453,72.1254073 -3.02035742,74.7493012 -3.09394367,77.9124523 C-3.12832398,79.3903116 -3.73263413,80.7976788 -4.78054121,81.8403394 L-12.0172774,89.0408435 C-14.2651084,91.2774204 -17.9004393,91.2682971 -20.1370162,89.0204661 C-21.1747824,87.977478 -21.7725432,86.5758922 -21.8069302,85.1049739 C-21.9716319,78.0597936 -16.3939018,72.2150294 -9.34872143,72.0503278 C-9.15042208,72.045692 -8.95204158,72.0456807 -8.7537417,72.0502938 Z" id="path-31"></path>
    </defs>
    <g id="Mobile-(MVP-+-Final)" stroke="none" stroke-width="1" fill="none" fill-rule="evenodd">
        <g id="Error-404" transform="translate(-56.000000, -157.000000)">
            <g id="Group" transform="translate(55.842294, 157.000000)">
                <g id="Group-43" transform="translate(0.000000, 60.000000)">
                    <g id="Group-40-Copy-2" transform="translate(0.157706, 13.000000)">
                        <path d="M209.538261,44.1871311 L209.540175,44.1914899 C209.563997,44.2562056 205.280904,36.6123231 204.550781,34.9352058 C203.274984,32.0046581 202.924772,29.4719387 203.476846,25.773588 L203.512526,25.5409092 C204.066285,21.8595591 204.987795,19.4964126 206.151778,18.1182423 C206.981553,17.1357782 207.972673,16.6169477 209.361245,16.3737074 L209.533593,16.3449063 C210.277729,16.2267283 211.004116,16.1933258 212.393412,16.1913224 L213.048621,16.1914338 C215.214133,16.1883686 216.128134,16.111491 217.356603,15.690434 C219.624856,14.9129922 221.193319,13.0619284 221.647082,10.3632738 C222.192342,7.02808662 221.34416,4.21958283 219.086523,2.45218052 L218.968254,2.36133127 C217.503747,1.25770724 215.817158,0.773464182 213.322426,0.456600095 L213.167204,0.437563835 L212.926092,0.405980813 C211.980358,0.28767121 211.235267,0.263677989 209.829761,0.263677989 C197.742872,0.263677989 190.847144,8.40583949 188.543168,22.6075695 L188.533537,22.6698331 C187.300866,31.0481505 188.886542,37.2696512 193.52068,45.2244213 L195.215405,48.1315519 C196.980583,51.1706653 197.876826,52.7654686 198.958656,54.7917732 L199.316039,55.4664277 C205.078202,66.4316232 207.162205,74.7697556 205.754283,84.4246741 L205.678029,84.9150967 C204.440111,92.7244493 202.933374,94.7751311 198.345679,93.9737469 L198.036201,93.9182612 C197.319135,93.7737415 196.965374,93.3700424 196.037069,91.6109391 L195.689573,90.9501997 C194.925624,89.5104524 194.444214,88.7418624 193.666565,87.863297 C192.409642,86.4432608 190.859285,85.517426 188.976091,85.1838394 L188.690625,85.1332722 L188.401439,85.1332722 L188.284976,85.1343661 C184.752404,85.2006376 181.246054,88.2697201 180.886245,92.0591933 L180.873062,92.2105066 L180.831359,92.4425485 C180.818287,92.5183983 180.808021,92.5833304 180.796256,92.664729 C180.755817,92.9444908 180.731617,93.2126211 180.731617,93.5165181 C180.731617,97.7235497 183.074204,101.418376 186.788586,104.390376 C189.619222,106.655262 193.177202,108.382325 196.134561,108.983444 L196.420278,109.038601 L196.719746,109.078297 C197.689277,109.199827 198.494643,109.223536 200.101566,109.223536 C212.069786,109.223536 218.344369,101.738717 220.603274,87.286051 C221.798261,79.4541283 221.110185,72.1433664 218.741771,64.5723046 L218.629522,64.2172174 C216.827927,58.5767017 214.711457,54.0289269 209.984404,45.0348113 L209.538261,44.1871311 Z" id="Path-Copy-12" fill="#EE7552" fill-rule="nonzero"></path>
                        <g id="Group-39" transform="translate(0.000000, 17.355420)">
                            <mask id="mask-2" fill="white">
                                <use xlink:href="#path-1"></use>
                            </mask>
                            <use id="Mask" fill="#EE7552" fill-rule="nonzero" xlink:href="#path-1"></use>
                            <g mask="url(#mask-2)">
                                <g transform="translate(-27.183649, -11.793815)">
                                    <g id="Group-38" stroke="none" stroke-width="1" fill="none" fill-rule="evenodd" transform="translate(75.128940, 70.114219) rotate(-60.000000) translate(-75.128940, -70.114219) translate(48.128940, -0.385781)">
                                        <ellipse id="Oval" fill="#4FC5D5" cx="32.7747666" cy="21.6802704" rx="20.5922912" ry="21.4645896"></ellipse>
                                        <ellipse id="Oval-Copy-8" fill="#FAD100" cx="20.5983772" cy="77.1556513" rx="20.5922912" ry="21.4645896"></ellipse>
                                        <g id="Square-Copy-23" transform="translate(33.662171, 103.371234) scale(1, -1) rotate(57.000000) translate(-33.662171, -103.371234) translate(25.662171, 94.871234)">
                                            <g id="color_lavanda" transform="translate(0.000000, 0.000000)">
                                                <mask id="mask-4" fill="white">
                                                    <use xlink:href="#path-3"></use>
                                                </mask>
                                                <use id="Mask" fill="#FFAE94" xlink:href="#path-3"></use>
                                            </g>
                                        </g>
                                        <g id="Square-Copy-25" transform="translate(21.073912, 118.081007) scale(1, -1) rotate(-30.000000) translate(-21.073912, -118.081007) translate(13.073912, 109.581007)">
                                            <g id="color_lavanda" transform="translate(-0.000000, 0.000000)">
                                                <mask id="mask-6" fill="white">
                                                    <use xlink:href="#path-5"></use>
                                                </mask>
                                                <use id="Mask" fill="#4FC5D5" xlink:href="#path-5"></use>
                                                <mask id="mask-8" fill="white">
                                                    <use xlink:href="#path-7"></use>
                                                </mask>
                                                <use id="Mask-Copy-4" fill="#FAD100" transform="translate(50.538095, 14.738362) rotate(-60.000000) translate(-50.538095, -14.738362) " xlink:href="#path-7"></use>
                                            </g>
                                        </g>
                                        <g id="Square-Copy-24" transform="translate(33.896171, 128.932969) scale(1, -1) rotate(-30.000000) translate(-33.896171, -128.932969) translate(26.026768, 120.403558)">
                                            <g id="color_lavanda" transform="translate(-0.000000, 0.000000)">
                                                <mask id="mask-10" fill="white">
                                                    <use xlink:href="#path-9"></use>
                                                </mask>
                                                <use id="Mask" fill="#A594F0" xlink:href="#path-9"></use>
                                            </g>
                                        </g>
                                    </g>
                                    <path d="M126.923809,3.54148484 C135.502611,3.7006834 142.417934,10.6186984 142.573794,19.1975612 L143.368503,62.9400457 C143.51717,71.1229846 137.004106,77.8770856 128.821167,78.0257524 C128.639802,78.0290474 128.458393,78.0290121 128.27703,78.0256465 C119.698229,77.8664479 112.782906,70.9484329 112.627046,62.3695702 L111.832337,18.6270857 C111.68367,10.4441467 118.196734,3.69004579 126.379673,3.54137896 C126.561037,3.53808395 126.742447,3.53811925 126.923809,3.54148484 Z" id="Rectangle" stroke="none" fill="#25204F" fill-rule="evenodd" transform="translate(127.600420, 40.783566) rotate(-330.000000) translate(-127.600420, -40.783566) "></path>
                                    <mask id="mask-12" fill="white">
                                        <use xlink:href="#path-11"></use>
                                    </mask>
                                    <use id="Mask-Copy" stroke="none" fill="#FFAE94" fill-rule="evenodd" transform="translate(65.715346, 38.727037) rotate(-225.000000) translate(-65.715346, -38.727037) " xlink:href="#path-11"></use>
                                    <mask id="mask-14" fill="white">
                                        <use xlink:href="#path-13"></use>
                                    </mask>
                                    <use id="Mask-Copy-2" stroke="none" fill="#25204F" fill-rule="evenodd" transform="translate(38.764508, 85.483176) rotate(-312.000000) translate(-38.764508, -85.483176) " xlink:href="#path-13"></use>
                                    <mask id="mask-16" fill="white">
                                        <use xlink:href="#path-15"></use>
                                    </mask>
                                    <use id="Mask-Copy-3" stroke="none" fill="#A594F0" fill-rule="evenodd" transform="translate(42.375833, 96.289822) rotate(-210.000000) translate(-42.375833, -96.289822) " xlink:href="#path-15"></use>
                                </g>
                            </g>
                        </g>
                        <g id="Group-39" transform="translate(69.828125, 0.263678)">
                            <mask id="mask-18" fill="white">
                                <use xlink:href="#path-17"></use>
                            </mask>
                            <use id="Mask" fill="#EE7552" fill-rule="nonzero" xlink:href="#path-17"></use>
                            <g mask="url(#mask-18)">
                                <g transform="translate(-98.621789, -41.084363)">
                                    <g id="Group-38" stroke-width="1" fill="none" transform="translate(94.237829, 89.963416) rotate(-60.000000) translate(-94.237829, -89.963416) translate(32.237829, 17.463416)">
                                        <ellipse id="Oval" fill="#4FC5D5" cx="38.0182392" cy="21.778022" rx="20.5922912" ry="21.5613687"></ellipse>
                                        <ellipse id="Oval-Copy-8" fill="#FAD100" cx="25.8418497" cy="77.5035292" rx="20.5922912" ry="21.5613687"></ellipse>
                                        <g id="Square-Copy-23" transform="translate(28.480936, 100.634094) scale(1, -1) rotate(57.000000) translate(-28.480936, -100.634094) translate(8.980936, 80.134094)">
                                            <g id="color_lavanda" transform="translate(0.000000, -0.000000)">
                                                <mask id="mask-20" fill="white">
                                                    <use xlink:href="#path-19"></use>
                                                </mask>
                                                <use id="Mask" fill="#FFAE94" xlink:href="#path-19"></use>
                                            </g>
                                        </g>
                                        <mask id="mask-22" fill="white">
                                            <use xlink:href="#path-21"></use>
                                        </mask>
                                        <use id="Mask" fill="#4FC5D5" transform="translate(60.080216, 121.307461) scale(1, -1) rotate(-30.000000) translate(-60.080216, -121.307461) " xlink:href="#path-21"></use>
                                        <mask id="mask-24" fill="white">
                                            <use xlink:href="#path-23"></use>
                                        </mask>
                                        <use id="Mask-Copy-4" fill="#FAD100" transform="translate(108.184965, 71.872964) scale(1, -1) rotate(-90.000000) translate(-108.184965, -71.872964) " xlink:href="#path-23"></use>
                                        <g id="Square-Copy-24" mask="url(#mask-24)">
                                            <g transform="translate(42.154265, 137.377640) scale(1, -1) rotate(-30.000000) translate(-42.154265, -137.377640) translate(25.654265, 119.877640)" id="color_lavanda">
                                                <g transform="translate(-0.000000, 0.000000)">
                                                    <mask id="mask-26" fill="white">
                                                        <use xlink:href="#path-25"></use>
                                                    </mask>
                                                    <use id="Mask" fill="#A594F0" xlink:href="#path-25"></use>
                                                </g>
                                            </g>
                                        </g>
                                    </g>
                                    <path d="M126.855421,43.1814093 C135.453558,43.3580874 142.380333,50.2881606 142.552918,58.886381 L143.435313,102.847539 C143.599114,111.008155 137.116414,117.756429 128.955798,117.92023 C128.755747,117.924246 128.555636,117.924198 128.355587,117.920088 C119.75745,117.743409 112.830675,110.813336 112.65809,102.215116 L111.775695,58.2539581 C111.611894,50.0933415 118.094594,43.3450676 126.25521,43.1812665 C126.455261,43.177251 126.655372,43.1772987 126.855421,43.1814093 Z" id="Rectangle" fill="#25204F" transform="translate(127.605504, 80.550748) rotate(-330.000000) translate(-127.605504, -80.550748) "></path>
                                    <g id="Mask-Copy-2-+-Mask-Copy-3-Mask" stroke-width="1" fill="none" transform="translate(62.836653, 65.418738)">
                                        <mask id="mask-28" fill="white">
                                            <use xlink:href="#path-27"></use>
                                        </mask>
                                        <use id="Mask" fill="#25204F" transform="translate(11.614744, 11.527642) rotate(-225.000000) translate(-11.614744, -11.527642) " xlink:href="#path-27"></use>
                                        <mask id="mask-30" fill="white">
                                            <use xlink:href="#path-29"></use>
                                        </mask>
                                        <use id="Mask-Copy-2" fill="#25204F" transform="translate(-21.235764, 66.134262) rotate(-312.000000) translate(21.235764, -66.134262) " xlink:href="#path-29"></use>
                                        <mask id="mask-32" fill="white">
                                            <use xlink:href="#path-31"></use>
                                        </mask>
                                        <use id="Mask-Copy-3" fill="#A594F0" transform="translate(-8.688096, 85.104974) rotate(-312.000000) translate(8.688096, -85.104974) " xlink:href="#path-31"></use>
                                    </g>
                                </g>
                            </g>
                        </g>
                        <path d="M147.458919,17.3914937 L147.802803,17.3743769 C148.291617,17.3540112 148.764185,17.3518753 149.454754,17.3594297 L150.131981,17.366511 L150.185738,17.3665731 C166.02833,17.3665731 178.677849,28.7936713 178.677849,42.6654998 C178.677849,55.6130409 168.777661,69.3354675 155.36156,75.6983893 L154.953942,75.888944 L154.59651,76.050977 L154.485068,77.8083877 C154.300814,80.7962833 154.112366,84.2268156 154.086005,85.4102282 L154.083092,85.5920951 L154.082873,85.7176097 L154.072326,86.0276342 C153.946949,90.1245271 153.948252,106.318967 154.076087,110.056313 L154.13219,111.55723 L153.311537,112.66229 C151.676947,114.863366 148.938461,115.632939 146.040517,115.632939 C144.360056,115.632939 143.502211,115.428752 142.030981,114.703837 L141.761193,114.568864 L139.656249,113.508375 L139.656249,81.9011167 C139.66949,72.7876194 140.31674,33.1888923 140.60799,23.0326614 L140.649274,21.6755911 L140.960331,20.9719112 C141.659109,19.3911195 142.922278,18.4436897 144.460039,17.9185485 C145.368253,17.6083955 146.343487,17.4555854 147.458919,17.3914937 Z M155.568112,31.5280056 L154.871451,59.3003869 L155.058948,59.132894 C160.349168,54.3789639 162.880969,49.3667873 162.9405,43.4635635 L162.941575,43.2498048 C162.941575,41.0028134 161.799593,37.7452415 159.928997,35.2199987 C158.696912,33.5567249 157.264227,32.3192363 155.664973,31.5720147 L155.568112,31.5280056 Z" id="Combined-Shape-Copy-18" fill="#EE7552" fill-rule="nonzero"></path>
                    </g>
                    <path d="M248.190601,88.3302752 C251.356719,88.3302752 255.026538,87.756702 259.128101,86.6095556 C260.639203,86.6095556 261.646604,84.0284761 262.00639,78.8663172 L262.00639,77.1455975 C260.423331,65.6741332 259.272015,59.938401 258.552443,59.938401 C260.063545,59.2931312 260.855075,57.2139283 260.855075,53.6290957 C262.222262,51.4781961 262.869877,49.3989932 262.869877,47.3197903 L262.869877,41.8708448 L263.157706,39.8633385 C262.941834,39.8633385 262.725963,39.5048552 262.582048,38.7161921 C262.941834,36.3502025 263.157706,34.3426963 263.157706,32.6936733 L263.157706,29.8258072 C263.157706,28.4635708 262.941834,26.6711545 262.582048,24.3768617 C262.582048,23.1580186 262.79792,21.222209 263.157706,18.6411295 L262.294219,16.06005 C262.869877,12.8337007 263.157706,10.8261944 263.157706,10.0375313 L263.157706,9.75074467 C263.157706,8.81868819 262.79792,7.45645181 262.00639,5.73573216 C261.286818,1.9358096 257.904828,0 251.932377,0 L246.175798,0 C244.30491,0.788663172 243.369466,1.57732634 243.297509,2.29429286 C243.51338,4.23010247 243.585338,5.80742881 243.585338,6.88287859 L243.585338,8.31681163 C243.585338,10.1092279 243.369466,12.6186107 243.00968,15.7732634 C243.00968,16.6336233 243.081637,18.8562195 243.297509,22.3693554 C243.297509,23.0146253 242.937723,25.8824914 242.146193,30.9729537 C242.146193,31.9050101 242.362065,33.0521566 242.721851,34.4143929 C242.362065,35.633236 242.146193,36.4935959 242.146193,36.9954724 L242.146193,41.5840581 C241.570535,48.5386334 241.282706,53.557399 241.282706,56.7837484 L242.146193,63.0930537 C241.930321,66.3194031 241.786407,72.1985285 241.570535,80.5870368 L241.858364,82.3077565 C243.225551,86.322769 245.384269,88.3302752 248.190601,88.3302752 Z M248.991039,116 C256.421595,115.060596 260.102151,113.181787 260.102151,110.508098 C261.560484,108.990599 262.324373,107.545362 262.324373,106.172386 C262.324373,105.955601 262.254928,105.232982 262.046595,103.860007 C262.046595,103.498697 262.393817,102.270246 263.157706,100.10239 C263.157706,98.9462 263.088262,98.3681051 262.879928,98.3681051 C262.879928,95.2608449 259.893817,93.3097746 253.991039,92.587156 C251.491039,92.587156 247.116039,93.8156077 240.935484,96.3447729 C240.449373,96.3447729 239.546595,100.030128 238.157706,107.328576 C238.157706,108.412504 238.366039,109.351908 238.713262,110.219051 C238.713262,113.470835 241.491039,115.349643 247.046595,116 L248.991039,116 Z" id="!" fill="#EE7552" fill-rule="nonzero"></path>
                </g>
                <g id="Group-31" transform="translate(25.777778, 0.000000)" fill="#25204F" fill-rule="nonzero">
                    <path d="M13.7048543,19.349564 L13.7057396,19.3514842 C13.7167592,19.3799934 11.7355528,16.0126398 11.3978239,15.2738207 C10.807686,13.9828288 10.6456901,12.867092 10.9010601,11.2378605 L10.9175641,11.1353586 C11.1737133,9.51361641 11.5999713,8.47258135 12.138388,7.86545709 C12.5222122,7.43265294 12.9806691,7.20409296 13.622973,7.0969385 L13.7026953,7.0842508 C14.046906,7.0321899 14.3829065,7.01747515 15.0255455,7.01659259 L15.3286219,7.01664165 C16.3303103,7.01529137 16.7530944,6.98142453 17.3213406,6.79593661 C18.3705533,6.45345079 19.0960684,5.63800311 19.3059632,4.44916693 C19.5581811,2.97991958 19.1658422,1.74269163 18.1215398,0.964099288 L18.0668329,0.924077538 C17.3894041,0.437898918 16.6092483,0.224575708 15.4552741,0.084987823 L15.383474,0.0766017942 L15.2719442,0.0626885507 C14.8344813,0.0105697148 14.4898288,0 13.8396921,0 C8.24872834,0 5.05901049,3.58685996 3.99327297,9.84313682 L3.98881836,9.87056577 C3.41862869,13.5614593 4.1521059,16.3022121 6.29569256,19.8065206 L7.07961213,21.0871966 C7.89612026,22.4260148 8.31069031,23.1285722 8.8111065,24.0212186 L8.97641906,24.3184236 C11.64179,29.1489125 12.6057755,32.8221034 11.954521,37.075377 L11.9192486,37.2914225 C11.3466321,40.7316704 10.6496693,41.6350556 8.52756505,41.2820225 L8.38441177,41.2575794 C8.05272246,41.1939142 7.88908521,41.016073 7.45968439,40.2411366 L7.29894547,39.9500616 C6.94556964,39.3158109 6.72288659,38.9772245 6.363174,38.5901908 C5.78176611,37.9646234 5.0646265,37.5567661 4.19352817,37.4098115 L4.06148163,37.3875351 L3.9277146,37.3875351 L3.87384262,37.388017 C2.23980105,37.4172116 0.617888405,38.769232 0.451453741,40.4386057 L0.445355843,40.5052636 L0.426065375,40.6074848 C0.420018574,40.6408989 0.415270234,40.6695034 0.409827807,40.7053618 C0.391122532,40.8286051 0.379928315,40.9467243 0.379928315,41.0805998 C0.379928315,42.9339201 1.46352562,44.5615991 3.1816662,45.870852 C4.49101755,46.8686004 6.13681201,47.6294218 7.50478075,47.8942326 L7.63694313,47.9185306 L7.77546641,47.936018 C8.22393681,47.9895555 8.59647056,48 9.33977595,48 C14.8758476,48 17.7782458,44.7027184 18.8231348,38.3358971 C19.3758933,34.8857064 19.0576138,31.6651022 17.96207,28.3298284 L17.9101475,28.1734021 C17.0767941,25.6885902 16.0977904,23.6851625 13.9112242,19.7229919 L13.7048543,19.349564 Z" id="Path-Copy-12"></path>
                    <path d="M41.1222645,10 C36.7991101,10 33.2067167,11.4730512 30.4081368,14.1056165 C28.2253623,16.1589066 26.6313788,18.8217537 25.6440961,21.6829031 L25.5944183,21.8285542 C23.884957,26.7893261 23.9395453,32.583288 26.0165874,37.1265611 C28.5009708,42.5608425 33.5793559,45.8223554 40.8727328,45.9954899 L41.1222645,46 C42.5073659,46 43.7950974,45.8074977 44.7228977,45.3717541 L44.7745061,45.3470619 C46.4481412,44.5313806 46.9208728,42.8307505 45.6776686,41.2958682 L45.6537737,41.2667938 C45.096543,40.5801517 44.3236675,40.2840818 43.3555632,40.1862231 L43.2825896,40.1792523 C42.7714739,40.1332197 42.3948763,40.1358618 41.4073091,40.1764776 L40.7678034,40.20254 C40.105813,40.2269172 39.7018528,40.2288105 39.2645596,40.2057905 C38.3796332,40.1592062 37.7140219,40.0026172 37.215025,39.7166246 C34.8395057,38.3675786 33.4847667,36.8980527 32.7494131,35.0441602 C32.1076521,33.4262231 31.8986962,31.5634613 31.8986962,28.3075127 C31.8986962,25.8275575 32.6342088,22.6745562 33.8768441,20.2805642 C35.2640737,17.608005 37.0636619,16.1712649 39.132948,16.1712649 L39.5709847,16.1717132 L40.2426039,16.1891413 C40.8575636,16.2030984 41.334737,16.1992618 41.8491882,16.1663845 C42.7188598,16.1108061 43.4578774,15.9784586 44.0914567,15.714056 C45.1591021,15.2685108 45.8880831,14.4367412 45.8880831,13.2833192 C45.8880831,12.0694365 45.0870326,11.1678602 43.9241127,10.6116743 C43.0984647,10.2167943 42.0773835,10 41.1222645,10 Z" id="Path-Copy-13"></path>
                    <path d="M69.8032733,7 C69.1217373,7 68.4773953,7.1428575 67.9366948,7.4606533 C67.1516703,7.92205014 66.6412524,8.73110463 66.6412524,9.72561327 L66.6412524,9.98173738 L66.6475282,10.1918272 C66.7930207,15.2368256 66.6278717,22.5643801 66.2724304,27.6683885 L66.2470503,28.0254033 L65.7810174,28.014879 C64.7426147,27.9940837 63.562768,27.9866648 61.8752452,27.9850285 L61.1925869,27.9847313 L61.1868437,27.4972278 L61.1822569,26.9143162 C61.179938,26.5452839 61.1787304,26.1850517 61.1781943,25.8005156 L61.1782167,25.0055783 C61.1827772,23.6185204 61.2287362,22.1395515 61.3288164,19.9412986 L61.5596602,15.1448207 C61.6694904,12.7667077 61.708862,11.466624 61.7108582,10.0673986 L61.7109388,9.22356088 L61.2166066,8.71594569 C60.2605285,7.73417721 59.4832757,7.2737129 58.2527506,7.2737129 L58.122716,7.27382158 L57.9713144,7.27502083 C56.9567915,7.28894719 56.3453305,7.4249816 55.6418309,7.96678385 L54.9870035,8.47110116 L54.9377449,11.1569685 L54.647465,25.3461771 C54.5559721,30.0279926 54.5047912,33.1219756 54.4989569,34.5598766 L54.4919306,35.8363088 L54.3884111,44.3660254 C54.3824447,44.9566212 54.3799283,45.3437164 54.3799283,45.6276225 L54.3799283,45.808217 L54.415219,45.9848822 C54.5333655,46.5763226 54.8465514,46.96569 55.2565287,47.2676123 C55.483232,47.4345649 55.7423487,47.5690132 56.0263715,47.6783837 C56.5367066,47.8749018 57.135767,47.9916008 57.7134494,47.9995455 C58.4526355,48.0097113 59.1471686,47.8500119 59.7354247,47.454278 L59.7851405,47.4200657 C60.5570428,46.8767648 61.0001374,45.991199 61.0001374,44.9433402 L61.0002698,33.8009889 L66.2745462,33.8009889 L66.4934602,40.0039057 C66.5141008,40.6332348 66.5227855,40.9663795 66.5227855,41.1113596 L66.5229183,41.4734923 C66.5252436,43.5541341 66.5893798,44.4900415 66.9083014,45.4407489 C67.4278402,46.9894971 68.6070782,47.841625 70.2515166,47.8054402 C71.3568654,47.779645 72.055215,47.011795 72.4136959,45.9281573 C72.6192588,45.3067692 72.7401566,44.513385 72.8139864,43.4520802 L72.8397888,43.0459803 C72.9183012,41.7046889 72.9292763,40.3607981 72.9032617,36.5585492 L72.8777095,33.0588201 C72.8340404,26.0740947 72.8860261,21.1315534 73.1321095,14.828326 L73.1408064,14.6092249 L73.1996882,13.6372694 C73.3070878,11.8307727 73.3771934,10.4132684 73.3799283,9.67690339 L73.3799283,8.93901259 L72.9251272,8.43863194 C72.1769106,7.61543022 70.9249853,7 69.8032733,7 Z" id="Path-Copy-14"></path>
                    <path d="M93.464994,7 L93.5330062,7 L93.6007955,7.00549339 C96.718179,7.25811423 99.1769369,8.76105821 100.931953,11.2882946 C102.386529,13.3828936 103.327236,16.1227617 103.853663,19.402358 C104.594956,24.0205536 104.49002,28.8351169 103.930376,34.346041 L103.901795,34.6243279 L103.898706,34.6476907 C103.604955,36.8695029 102.716614,39.244173 101.292952,41.1095987 C99.4150754,43.5701828 96.7495305,45 93.4036705,45 C87.7503007,45 84.0424168,41.8388016 82.0855844,36.5368766 C80.7904996,33.027919 80.3799283,29.2362301 80.3799283,24.6879484 L80.380674,24.3609463 C80.4006641,20.0291113 80.8267454,16.8178373 82.1621142,13.8725799 C84.1241959,9.54505921 87.7944321,7.05021393 93.2976681,7.00074977 L93.464994,7 Z M92.1246481,13.1124414 C90.8070319,13.1124414 89.5805016,14.1789041 88.5754402,16.1685683 C87.753619,17.795482 87.2051515,19.9056713 87.1864832,20.9966008 L87.1859912,21.0895537 L87.1690388,21.5054825 C87.1398995,22.2878694 87.1282028,23.03538 87.1250875,24.05423 L87.1241449,24.5613233 L87.1241449,24.9530903 C87.1241449,30.8941525 87.837228,34.9264314 89.1346708,37.2793352 C90.1287933,39.0821695 91.3895965,39.807392 93.1760348,39.807392 C94.837815,39.807392 96.041967,38.3278738 96.8144268,35.3657449 C97.3963863,33.1341221 97.6024487,30.6676059 97.6188806,27.8967473 L97.6199215,27.6124414 L97.6199215,27.2576483 C97.6199215,24.9776962 97.1490788,21.3548316 96.3067824,18.5483994 C95.2432626,15.0048768 93.7687531,13.1124414 92.1246481,13.1124414 Z" id="Combined-Shape-Copy-13" transform="translate(92.379928, 26.000000) rotate(-180.000000) translate(-92.379928, -26.000000) "></path>
                    <path d="M123.532266,7 L123.59994,7.00548263 C126.715867,7.25792129 129.174599,8.76046692 130.930324,11.2880812 C132.385853,13.3835198 133.327038,16.1240826 133.85364,19.4039365 C134.583525,23.9498983 134.493045,28.6852567 133.955994,34.0878756 L133.901885,34.6200985 L133.898754,34.6437772 C133.604694,36.867358 132.715563,39.2435354 131.290717,41.1100382 C129.412255,43.5707629 126.747114,45 123.403083,45 C117.752295,45 114.043611,41.8389237 112.08603,36.5363176 C110.809862,33.0794932 110.392382,29.3492525 110.380204,24.8921234 L110.379928,24.6890244 L110.379928,24.5147071 C110.389364,20.0735058 110.826038,16.7545679 112.214284,13.7613755 C114.190879,9.49964863 117.847615,7.04931684 123.29864,7.00073637 L123.464372,7 L123.532266,7 Z M122.124785,12.5450212 C120.812917,12.5450212 119.588655,13.618743 118.584757,15.6233396 C117.763188,17.2638575 117.214861,19.3918018 117.196198,20.4923822 L117.195706,20.5860102 L117.178039,21.0210842 C117.141745,21.9953361 117.133895,22.8459228 117.133895,24.4809666 L117.134749,24.8380529 C117.162641,30.63281 117.872651,34.5840364 119.143696,36.9090575 C120.136703,38.7254848 121.394029,39.4549788 123.175576,39.4549788 C124.830539,39.4549788 126.033175,37.9645091 126.804967,34.9792774 C127.386722,32.7290936 127.592699,30.2422177 127.609124,27.4485106 L127.610165,27.1618658 L127.610165,26.8041942 C127.610165,24.50528 127.139524,20.8525633 126.297569,18.0229407 C125.235037,14.4520114 123.761962,12.5450212 122.124785,12.5450212 Z" id="Combined-Shape-Copy-14"></path>
                    <path d="M209.803273,1 C209.121737,1 208.477395,1.15331049 207.936695,1.49435964 C207.15167,1.98951723 206.641252,2.85777083 206.641252,3.92504838 L206.641252,4.19991329 L206.647528,4.42537551 C206.793021,9.83952019 206.627872,17.7032372 206.27243,23.1807096 L206.24705,23.5638475 L205.781017,23.552553 C204.742615,23.5302361 203.562768,23.5222744 201.875245,23.5205184 L201.192587,23.5201995 L201.186844,22.997025 L201.182257,22.3714613 C201.179938,21.9754266 201.17873,21.588836 201.178194,21.176163 L201.178217,20.3230596 C201.182777,18.8345097 201.228736,17.2473236 201.328816,14.8882229 L201.55966,9.74078321 C201.66949,7.18866193 201.708862,5.79345012 201.710858,4.29184236 L201.710939,3.38626045 L201.216607,2.84150269 C200.260529,1.7878975 199.483276,1.29374068 198.252751,1.29374068 L198.122716,1.2938573 L197.971314,1.2951443 C196.956791,1.31008967 196.34533,1.45607781 195.641831,2.03752413 L194.987003,2.57874271 L194.937745,5.46113697 L194.647465,20.6885803 C194.555972,25.7129676 194.504791,29.0333397 194.498957,30.5764529 L194.493173,31.8037281 L194.388411,41.1001248 C194.382445,41.733935 194.379928,42.1493542 194.379928,42.4540339 L194.379928,42.6478427 L194.415219,42.8374345 C194.533365,43.4721511 194.846551,43.8900088 195.256529,44.214023 C195.483232,44.3931917 195.742349,44.5374776 196.026371,44.6548508 C196.536707,44.8657482 197.135767,44.9909862 197.713449,44.9995122 C198.452636,45.0104219 199.147169,44.8390372 199.735425,44.4143471 L199.78514,44.3776315 C200.557043,43.7945768 201.000137,42.8442136 201.000137,41.7196822 L201.00027,29.7620369 L206.274546,29.7620369 L206.49346,36.4188257 C206.514101,37.0942032 206.522785,37.4517244 206.522785,37.6073127 L206.523459,38.2499624 C206.530448,40.3082367 206.602528,41.2850369 206.912962,42.2683215 C207.434983,43.9217999 208.61291,44.8298989 210.251517,44.7912041 C211.356865,44.7635214 212.055215,43.9394873 212.413696,42.776559 C212.619259,42.1097035 212.740157,41.2582668 212.813986,40.1193056 L212.839789,39.6834911 C212.918301,38.2440564 212.929276,36.8018321 212.903262,32.7213699 L212.877709,28.965563 C212.83404,21.4697601 212.886026,16.1655695 213.132109,9.40113033 L213.140806,9.16599743 L213.199688,8.12292321 C213.307088,6.1842439 213.377193,4.66301974 213.379928,3.87277437 L213.379928,3.08089156 L212.925127,2.54389769 C212.176911,1.6604617 210.924985,1 209.803273,1 Z" id="Path-Copy-16"></path>
                    <path d="M145.868933,10 L145.537516,10 C145.13284,10 144.347393,10.0556739 144.033457,10.1319678 L143.7244,10.2070759 L143.46649,10.3951108 C142.713845,10.9438413 142.388959,11.5422566 142.380327,12.3981325 L142.379928,12.862224 L142.393916,13.0437067 C142.401981,13.1389681 142.413385,13.2637641 142.428577,13.4232855 L142.895409,18.1052658 C143.05908,19.7828831 143.151053,20.8363896 143.151053,21.062759 L143.15166,21.2265129 C143.15904,22.3159228 143.233405,25.1011364 143.361775,29.2632265 L143.527651,34.48976 L143.922135,46.3450468 C143.922135,46.8853008 144.167245,47.325772 144.517449,47.6158668 C144.691132,47.7597385 144.857896,47.844032 145.029497,47.9030661 C145.175898,47.9534311 145.295747,47.9753124 145.422837,47.9882567 C145.531367,47.9993105 145.634781,48.0014954 145.75634,47.9991573 L145.835883,47.9970096 C145.960859,47.9927553 146.111606,47.9838593 146.292151,47.9704054 L146.524436,47.9519826 C146.967394,47.9149956 147.567723,47.8555604 148.328507,47.7734922 L149.245113,47.672406 C151.186616,47.4542525 153.92025,47.1248377 157.448112,46.6839518 L157.769165,46.6439003 L157.743597,46.6466499 C159.272578,46.4874021 160.379928,45.5248089 160.379928,44.0686231 C160.379928,42.9173607 159.69133,42.0914295 158.696167,41.7007522 C158.125793,41.4768369 157.487009,41.3955209 156.74787,41.3955209 L156.558354,41.3962845 C155.516657,41.4048368 154.641017,41.4863575 152.92642,41.6974839 L152.096616,41.7989988 L151.981132,41.8126238 C151.409683,41.8794932 150.926766,41.9275687 150.487289,41.9584022 L150.411336,41.9636772 L150.400868,41.819389 C150.29489,40.3424722 150.200763,38.819794 150.116242,37.2314043 L150.056401,36.0687458 C149.925588,33.4477052 149.834649,31.0596379 149.718062,27.2744077 L149.417815,17.255793 L149.401791,16.768128 C149.394767,16.5110297 149.394751,16.2726096 149.399936,15.8977617 L149.409235,15.2394899 C149.41111,15.0328312 149.410248,14.8880864 149.406438,14.7130887 C149.386907,13.8159962 149.275712,13.0362978 149.010966,12.1642113 L148.961111,12.0042725 L148.946261,11.9645735 C148.633287,11.1279138 148.147807,10.5383054 147.394663,10.2304545 L147.315484,10.1989725 C146.887948,10.0340578 146.58091,10.0029099 145.868933,10 Z" id="Path-Copy-15"></path>
                    <path d="M176.913059,6 C178.060192,6 179.266964,6.36929148 180.008157,7.14332873 L180.055831,7.19438362 L180.0831,7.22507061 L180.246137,7.41304114 L180.896117,8.65370819 L180.938074,8.77416712 C182.593154,13.5259022 183.926438,18.5365291 185.103463,24.2086346 L185.22547,24.8014572 C185.980995,28.4994318 186.55932,31.8024216 187.452353,37.3932572 L187.927374,40.3917494 L187.989353,40.7856398 L188.379928,43.8623965 L188.379928,43.9721836 C188.379928,44.1055354 188.365234,44.2354831 188.337361,44.3604587 L188.322333,44.4225248 L188.317725,44.4393785 L188.317679,44.4770266 L188.28998,44.5318327 L188.272744,44.5811864 C188.229499,44.6995818 188.17399,44.8120578 188.107732,44.9170467 L188.073715,44.96891 L188.047856,45.0058645 L188.032367,45.0346478 C187.317889,46.3645869 186.5288,46.9463103 184.972786,46.9965091 L184.899283,46.9984737 L184.825781,47 L184.756463,47 L184.47521,47 C184.114442,46.9983134 183.848509,46.981556 183.549816,46.9186636 C183.281177,46.8620993 183.029225,46.773198 182.783628,46.6246317 C182.395406,46.3897886 182.080983,46.0347801 181.919916,45.5625772 L181.900588,45.5029417 L181.887219,45.4594509 L181.855773,45.3340423 L180.543784,38.0829084 L173.800927,38.0829084 L172.97422,42.0775498 L172.957413,42.2064148 L172.93619,42.3880714 C172.923863,42.4926355 172.913009,42.5786747 172.900584,42.6673436 C172.86546,42.9180062 172.823321,43.1465555 172.765744,43.3753202 C172.362575,44.9771901 171.272246,46.0947055 169.443151,46.0947055 C168.424416,46.0947055 167.62678,45.5316611 167.064968,44.7146143 C166.669118,44.1389276 166.399058,43.4345009 166.380904,42.8159688 L166.379928,42.750036 L166.379928,42.5803983 L169.992753,24.2977024 C170.738496,20.5332158 171.340456,17.5031802 171.81134,15.1422892 L172.825005,10.0968055 L172.952741,9.48548517 C172.955258,9.47426818 172.957564,9.46420164 172.959738,9.4549443 L172.953988,9.45873889 C172.948339,9.4614658 172.948818,9.45473256 172.967275,9.41155151 L173.036163,9.25909163 L173.019398,9.25276544 L173.097923,9.03694808 C173.18565,8.79858874 173.24614,8.64706163 173.331606,8.45675782 C174.005435,6.95636097 175.13669,6 176.913059,6 Z M177.370361,22.0198924 L175.667105,31.8857012 L179.338164,31.9494064 L177.370361,22.0198924 Z" id="Combined-Shape-Copy-15"></path>
                </g>
            </g>
        </g>
    </g>
</svg>