<?xml version="1.0" encoding="UTF-8"?>
<svg width="20px" height="20px" viewBox="0 0 20 20" version="1.1" xmlns="http://www.w3.org/2000/svg" xmlns:xlink="http://www.w3.org/1999/xlink">
    <!-- Generator: Sketch 61 (89581) - https://sketch.com -->
    <title>noun_Alarm_1970414</title>
    <desc>Created with Sketch.</desc>
    <g id="final-mobile" stroke="none" stroke-width="1" fill="none" fill-rule="evenodd">
        <g id="Results-A-3" transform="translate(-24.000000, -370.000000)" fill="#25204F" fill-rule="nonzero">
            <g id="Group-5" transform="translate(24.000000, 370.000000)">
                <g id="noun_Alarm_1970414">
                    <path d="M13.5233333,9.52666667 L10.1566667,9.76666667 L7.66666667,5.53666667 C7.46916089,5.25013588 7.08448774,5.16372753 6.78341351,5.33826331 C6.48233929,5.51279909 6.36616609,5.88955315 6.51666667,6.20333333 L9.21333333,10.79 C9.33170153,10.9950297 9.54992596,11.1219044 9.78666667,11.1233333 L9.83333333,11.1233333 L13.61,10.8533333 C13.9781898,10.8266396 14.2550271,10.5065232 14.2283333,10.1383333 C14.2016396,9.7701435 13.8815232,9.49330624 13.5133333,9.52 L13.5233333,9.52666667 Z" id="Path"></path>
                    <path d="M10,0.666666667 C6.28833114,0.670109345 2.99090508,3.0367078 1.7997715,6.55205961 C0.608637926,10.0674114 1.78826399,13.9510037 4.73333333,16.21 L2.81666667,18.5833333 C2.58470709,18.8696009 2.62873243,19.2897071 2.91500002,19.5216666 C3.2012676,19.7536262 3.62137373,19.7096009 3.85333333,19.4233333 L5.85333333,16.9466667 C8.43748715,18.35398 11.5591795,18.35398 14.1433333,16.9466667 L16.1433333,19.4233333 C16.2933849,19.608516 16.530832,19.6995803 16.7662307,19.6622232 C17.0016293,19.6248661 17.1992169,19.464763 17.284564,19.2422232 C17.3699111,19.0196834 17.3300516,18.768516 17.18,18.5833333 L15.2666667,16.21 C18.211736,13.9510037 19.3913621,10.0674114 18.2002285,6.55205961 C17.0090949,3.0367078 13.7116689,0.670109345 10,0.666666667 Z M10,16.6666667 C5.94991183,16.6666667 2.66666667,13.3834215 2.66666667,9.33333333 C2.66666667,5.28324517 5.94991183,2 10,2 C14.0500882,2 17.3333333,5.28324517 17.3333333,9.33333333 C17.3333333,11.2782543 16.5607165,13.1435163 15.1854497,14.5187831 C13.810183,15.8940498 11.9449209,16.6666667 10,16.6666667 Z" id="Shape"></path>
                    <path d="M15.4533333,0.176666667 C15.1812213,-0.0605452717 14.7697348,-0.0380762031 14.5250693,0.227354171 C14.2804039,0.492784545 14.2914553,0.904735902 14.55,1.15666667 L18.8833333,5.15666667 C19.1554453,5.39387861 19.5669319,5.37140954 19.8115973,5.10597916 C20.0562627,4.84054879 20.0452113,4.42859743 19.7866667,4.17666667 L15.4533333,0.176666667 Z" id="Path"></path>
                    <path d="M5.49,0.213333333 C5.36989083,0.0831671502 5.20292193,0.00614563599 5.02594135,-0.00073346774 C4.84896077,-0.00761257147 4.67651711,0.0562162283 4.54666667,0.176666667 L0.213333333,4.17666667 C-0.0452113196,4.42859743 -0.0562627329,4.84054879 0.18840268,5.10597916 C0.433068093,5.37140954 0.84455466,5.39387861 1.11666667,5.15666667 L5.45,1.15666667 C5.58063078,1.03701378 5.6582684,0.87028973 5.66577321,0.693301337 C5.67327802,0.516312945 5.61003284,0.343615066 5.49,0.213333333 Z" id="Path"></path>
                </g>
            </g>
        </g>
    </g>
</svg>