<svg width="274" height="274" viewBox="0 0 274 274" fill="none" xmlns="http://www.w3.org/2000/svg">
<mask id="mask0" mask-type="alpha" maskUnits="userSpaceOnUse" x="0" y="0" width="274" height="274">
<rect width="274" height="274" fill="white"/>
</mask>
<g mask="url(#mask0)">
<path fill-rule="evenodd" clip-rule="evenodd" d="M213.073 70.8997C232.844 144.72 189.039 220.592 115.223 240.381L111.631 241.344C58.0757 255.701 20.03 189.976 58.8072 150.345C81.913 126.73 98.7222 97.5849 107.551 65.7478C122.258 12.7109 197.578 13.0433 211.817 66.2079L213.073 70.8997Z" fill="#D1EEF1"/>
<path fill-rule="evenodd" clip-rule="evenodd" d="M213.073 70.9813C232.844 144.801 189.039 220.674 115.223 240.462L111.631 241.425C58.0757 255.782 20.03 190.058 58.8072 150.426C81.913 126.811 98.7222 97.6665 107.551 65.8294C122.258 12.7925 197.578 13.1248 211.817 66.2895L213.073 70.9813Z" fill="#D1EEF1"/>
<path fill-rule="evenodd" clip-rule="evenodd" d="M264.964 105.834C264.991 105.804 265.018 105.774 265.043 105.744C265.074 105.707 265.103 105.67 265.132 105.633C265.155 105.602 265.177 105.572 265.199 105.541C265.226 105.501 265.253 105.461 265.278 105.421C265.299 105.388 265.318 105.356 265.337 105.322C265.361 105.282 265.382 105.241 265.404 105.2C265.422 105.164 265.44 105.128 265.457 105.091C265.475 105.052 265.492 105.012 265.508 104.972C265.525 104.932 265.541 104.892 265.555 104.851C265.569 104.812 265.581 104.773 265.594 104.733C265.607 104.691 265.62 104.648 265.632 104.605C265.642 104.564 265.651 104.524 265.659 104.483C265.668 104.44 265.678 104.398 265.685 104.354C265.693 104.307 265.698 104.26 265.704 104.213C265.708 104.175 265.714 104.138 265.717 104.1C265.723 104.031 265.725 103.962 265.725 103.893C265.725 103.877 265.727 103.861 265.727 103.845C265.727 103.843 265.727 103.842 265.727 103.84C265.726 103.752 265.721 103.664 265.713 103.576C265.71 103.553 265.706 103.531 265.703 103.509C265.695 103.446 265.687 103.382 265.675 103.32C265.668 103.281 265.658 103.245 265.649 103.207C265.639 103.161 265.628 103.115 265.615 103.069C265.603 103.026 265.588 102.984 265.574 102.941C265.561 102.902 265.549 102.863 265.534 102.824C265.517 102.78 265.497 102.735 265.478 102.691C265.462 102.656 265.448 102.622 265.431 102.587C265.409 102.542 265.384 102.498 265.36 102.455C265.346 102.43 265.335 102.405 265.32 102.38C265.315 102.372 265.31 102.365 265.305 102.357C265.281 102.318 265.255 102.279 265.229 102.241C265.206 102.206 265.182 102.17 265.157 102.136C265.135 102.106 265.111 102.076 265.087 102.046C265.056 102.008 265.025 101.969 264.992 101.932C264.971 101.907 264.948 101.885 264.926 101.861C264.888 101.822 264.851 101.782 264.811 101.745C264.789 101.724 264.766 101.705 264.743 101.684C264.702 101.648 264.661 101.612 264.618 101.578C264.592 101.558 264.566 101.539 264.54 101.52C264.498 101.489 264.456 101.459 264.412 101.43C264.382 101.411 264.351 101.392 264.321 101.373C264.279 101.348 264.238 101.324 264.195 101.301C264.161 101.283 264.127 101.265 264.092 101.248C264.05 101.228 264.008 101.208 263.965 101.19C263.929 101.174 263.893 101.16 263.857 101.146C263.812 101.129 263.767 101.112 263.721 101.097C263.686 101.086 263.651 101.075 263.615 101.065C263.564 101.05 263.513 101.037 263.461 101.025C263.429 101.018 263.399 101.011 263.367 101.005C263.307 100.993 263.246 100.984 263.185 100.976C263.167 100.974 263.149 100.97 263.13 100.968L137.428 87.1565C136.329 87.0359 135.254 87.5478 134.654 88.4789C134.054 89.4101 134.032 90.6004 134.596 91.552L150.499 118.37L142.938 156.274C142.937 156.28 142.936 156.286 142.934 156.293L142.932 156.305C142.916 156.384 142.904 156.463 142.895 156.541C142.891 156.576 142.889 156.612 142.886 156.648C142.882 156.699 142.879 156.751 142.877 156.802C142.876 156.839 142.877 156.877 142.877 156.915C142.878 156.968 142.88 157.02 142.883 157.072C142.886 157.106 142.888 157.141 142.892 157.176C142.899 157.245 142.909 157.313 142.921 157.381C142.924 157.399 142.925 157.416 142.929 157.434C142.946 157.522 142.968 157.608 142.992 157.693C142.995 157.701 142.996 157.709 142.998 157.716C143.004 157.734 143.011 157.751 143.017 157.769C143.035 157.826 143.055 157.882 143.076 157.937C143.089 157.969 143.101 158 143.115 158.031C143.135 158.079 143.157 158.125 143.18 158.172C143.196 158.204 143.211 158.236 143.228 158.267C143.257 158.321 143.289 158.373 143.321 158.425C143.35 158.471 143.38 158.515 143.411 158.559C143.438 158.597 143.465 158.636 143.494 158.673C143.518 158.704 143.544 158.735 143.57 158.765C143.599 158.799 143.628 158.833 143.659 158.865C143.685 158.894 143.712 158.921 143.739 158.948C143.773 158.982 143.808 159.014 143.844 159.046C143.87 159.07 143.896 159.093 143.923 159.116C143.964 159.151 144.008 159.183 144.052 159.216C144.075 159.233 144.097 159.252 144.121 159.268C144.188 159.315 144.256 159.359 144.328 159.401C144.411 159.449 144.49 159.489 144.571 159.526C144.594 159.536 144.618 159.546 144.642 159.556C144.701 159.582 144.76 159.605 144.82 159.626C144.848 159.636 144.876 159.646 144.905 159.655C144.965 159.674 145.026 159.691 145.087 159.706C145.113 159.713 145.139 159.72 145.166 159.726C145.249 159.744 145.333 159.759 145.417 159.77C145.445 159.774 145.473 159.775 145.501 159.778C145.561 159.784 145.62 159.789 145.679 159.791C145.716 159.792 145.752 159.793 145.788 159.793C145.846 159.792 145.903 159.791 145.96 159.787C145.992 159.785 146.024 159.784 146.056 159.782C146.143 159.774 146.229 159.762 146.315 159.746C146.336 159.742 146.356 159.737 146.377 159.733C146.449 159.718 146.521 159.701 146.592 159.68C146.605 159.676 146.619 159.674 146.632 159.67L170.158 152.584L182.627 173.566C182.885 174.001 183.247 174.355 183.675 174.601C183.981 174.778 184.32 174.9 184.678 174.956C185.534 175.091 186.407 174.838 187.059 174.266L264.732 106.065C264.748 106.051 264.762 106.036 264.777 106.022C264.809 105.992 264.841 105.962 264.872 105.931C264.904 105.899 264.934 105.867 264.964 105.834Z" fill="#EE7552"/>
<mask id="mask1" mask-type="alpha" maskUnits="userSpaceOnUse" x="134" y="87" width="132" height="88">
<path fill-rule="evenodd" clip-rule="evenodd" d="M264.964 105.834C264.991 105.804 265.018 105.774 265.043 105.744C265.074 105.707 265.103 105.67 265.132 105.633C265.155 105.602 265.177 105.572 265.199 105.541C265.226 105.501 265.253 105.461 265.278 105.421C265.299 105.388 265.318 105.356 265.337 105.322C265.361 105.282 265.382 105.241 265.404 105.2C265.422 105.164 265.44 105.128 265.457 105.091C265.475 105.052 265.492 105.012 265.508 104.972C265.525 104.932 265.541 104.892 265.555 104.851C265.569 104.812 265.581 104.773 265.594 104.733C265.607 104.691 265.62 104.648 265.632 104.605C265.642 104.564 265.651 104.524 265.659 104.483C265.668 104.44 265.678 104.398 265.685 104.354C265.693 104.307 265.698 104.26 265.704 104.213C265.708 104.175 265.714 104.138 265.717 104.1C265.723 104.031 265.725 103.962 265.725 103.893C265.725 103.877 265.727 103.861 265.727 103.845C265.727 103.843 265.727 103.842 265.727 103.84C265.726 103.752 265.721 103.664 265.713 103.576C265.71 103.553 265.706 103.531 265.703 103.509C265.695 103.446 265.687 103.382 265.675 103.32C265.668 103.281 265.658 103.245 265.649 103.207C265.639 103.161 265.628 103.115 265.615 103.069C265.603 103.026 265.588 102.984 265.574 102.941C265.561 102.902 265.549 102.863 265.534 102.824C265.517 102.78 265.497 102.735 265.478 102.691C265.462 102.656 265.448 102.622 265.431 102.587C265.409 102.542 265.384 102.498 265.36 102.455C265.346 102.43 265.335 102.405 265.32 102.38C265.315 102.372 265.31 102.365 265.305 102.357C265.281 102.318 265.255 102.279 265.229 102.241C265.206 102.206 265.182 102.17 265.157 102.136C265.135 102.106 265.111 102.076 265.087 102.046C265.056 102.008 265.025 101.969 264.992 101.932C264.971 101.907 264.948 101.885 264.926 101.861C264.888 101.822 264.851 101.782 264.811 101.745C264.789 101.724 264.766 101.705 264.743 101.684C264.702 101.648 264.661 101.612 264.618 101.578C264.592 101.558 264.566 101.539 264.54 101.52C264.498 101.489 264.456 101.459 264.412 101.43C264.382 101.411 264.351 101.392 264.321 101.373C264.279 101.348 264.238 101.324 264.195 101.301C264.161 101.283 264.127 101.265 264.092 101.248C264.05 101.228 264.008 101.208 263.965 101.19C263.929 101.174 263.893 101.16 263.857 101.146C263.812 101.129 263.767 101.112 263.721 101.097C263.686 101.086 263.651 101.075 263.615 101.065C263.564 101.05 263.513 101.037 263.461 101.025C263.429 101.018 263.399 101.011 263.367 101.005C263.307 100.993 263.246 100.984 263.185 100.976C263.167 100.974 263.149 100.97 263.13 100.968L137.428 87.1565C136.329 87.0359 135.254 87.5478 134.654 88.4789C134.054 89.4101 134.032 90.6004 134.596 91.552L150.499 118.37L142.938 156.274C142.937 156.28 142.936 156.286 142.934 156.293L142.932 156.305C142.916 156.384 142.904 156.463 142.895 156.541C142.891 156.576 142.889 156.612 142.886 156.648C142.882 156.699 142.879 156.751 142.877 156.802C142.876 156.839 142.877 156.877 142.877 156.915C142.878 156.968 142.88 157.02 142.883 157.072C142.886 157.106 142.888 157.141 142.892 157.176C142.899 157.245 142.909 157.313 142.921 157.381C142.924 157.399 142.925 157.416 142.929 157.434C142.946 157.522 142.968 157.608 142.992 157.693C142.995 157.701 142.996 157.709 142.998 157.716C143.004 157.734 143.011 157.751 143.017 157.769C143.035 157.826 143.055 157.882 143.076 157.937C143.089 157.969 143.101 158 143.115 158.031C143.135 158.079 143.157 158.125 143.18 158.172C143.196 158.204 143.211 158.236 143.228 158.267C143.257 158.321 143.289 158.373 143.321 158.425C143.35 158.471 143.38 158.515 143.411 158.559C143.438 158.597 143.465 158.636 143.494 158.673C143.518 158.704 143.544 158.735 143.57 158.765C143.599 158.799 143.628 158.833 143.659 158.865C143.685 158.894 143.712 158.921 143.739 158.948C143.773 158.982 143.808 159.014 143.844 159.046C143.87 159.07 143.896 159.093 143.923 159.116C143.964 159.151 144.008 159.183 144.052 159.216C144.075 159.233 144.097 159.252 144.121 159.268C144.188 159.315 144.256 159.359 144.328 159.401C144.411 159.449 144.49 159.489 144.571 159.526C144.594 159.536 144.618 159.546 144.642 159.556C144.701 159.582 144.76 159.605 144.82 159.626C144.848 159.636 144.876 159.646 144.905 159.655C144.965 159.674 145.026 159.691 145.087 159.706C145.113 159.713 145.139 159.72 145.166 159.726C145.249 159.744 145.333 159.759 145.417 159.77C145.445 159.774 145.473 159.775 145.501 159.778C145.561 159.784 145.62 159.789 145.679 159.791C145.716 159.792 145.752 159.793 145.788 159.793C145.846 159.792 145.903 159.791 145.96 159.787C145.992 159.785 146.024 159.784 146.056 159.782C146.143 159.774 146.229 159.762 146.315 159.746C146.336 159.742 146.356 159.737 146.377 159.733C146.449 159.718 146.521 159.701 146.592 159.68C146.605 159.676 146.619 159.674 146.632 159.67L170.158 152.584L182.627 173.566C182.885 174.001 183.247 174.355 183.675 174.601C183.981 174.778 184.32 174.9 184.678 174.956C185.534 175.091 186.407 174.838 187.059 174.266L264.732 106.065C264.748 106.051 264.762 106.036 264.777 106.022C264.809 105.992 264.841 105.962 264.872 105.931C264.904 105.899 264.934 105.867 264.964 105.834Z" fill="white"/>
</mask>
<g mask="url(#mask1)">
<path fill-rule="evenodd" clip-rule="evenodd" d="M149.575 118.298L276.296 102.589L263.259 98.2061L131.79 85.5011L130.502 93.7386L143.168 121.824L149.575 118.298Z" fill="#F2886B"/>
<mask id="mask2" mask-type="alpha" maskUnits="userSpaceOnUse" x="130" y="85" width="147" height="37">
<path fill-rule="evenodd" clip-rule="evenodd" d="M149.575 118.298L276.296 102.589L263.259 98.2061L131.79 85.5011L130.502 93.7386L143.168 121.824L149.575 118.298Z" fill="white"/>
</mask>
<g mask="url(#mask2)">
</g>
<path fill-rule="evenodd" clip-rule="evenodd" d="M216.651 128.272C203.594 131.768 190.175 124.021 186.675 110.965L186.504 110.329C183.965 100.857 195.59 94.1278 202.6 100.986C206.776 105.073 211.931 108.046 217.562 109.608C226.943 112.209 226.884 125.531 217.481 128.049L216.651 128.272Z" fill="#1AA3B5"/>
<path fill-rule="evenodd" clip-rule="evenodd" d="M180.807 84.884C178.222 98.1513 165.372 106.812 152.104 104.23L151.459 104.105C141.832 102.232 140.884 88.8332 150.123 85.5425C155.628 83.5817 160.561 80.2534 164.434 75.878C170.886 68.5891 182.833 74.4858 180.971 84.0408L180.807 84.884Z" fill="#FAD100"/>
<mask id="mask3" mask-type="alpha" maskUnits="userSpaceOnUse" x="130" y="85" width="147" height="37">
<path fill-rule="evenodd" clip-rule="evenodd" d="M149.575 118.298L276.296 102.589L263.259 98.2061L131.79 85.5011L130.502 93.7386L143.168 121.824L149.575 118.298Z" fill="white"/>
</mask>
<g mask="url(#mask3)">
<path fill-rule="evenodd" clip-rule="evenodd" d="M216.651 128.272C203.594 131.768 190.175 124.021 186.675 110.965L186.504 110.329C183.965 100.857 195.59 94.1278 202.6 100.986C206.776 105.073 211.931 108.046 217.562 109.608C226.943 112.209 226.884 125.531 217.481 128.049L216.651 128.272Z" fill="#4FC5D5"/>
</g>
<path fill-rule="evenodd" clip-rule="evenodd" d="M138.05 123.238C149.757 116.481 164.724 120.492 171.484 132.197L171.813 132.766C176.718 141.259 167.231 150.767 158.685 145.957C153.592 143.09 147.844 141.553 142 141.502C132.266 141.417 128.875 128.534 137.306 123.667L138.05 123.238Z" fill="white"/>
<path fill-rule="evenodd" clip-rule="evenodd" d="M220.897 154.954C211.338 164.51 195.842 164.51 186.283 154.954L185.818 154.489C178.882 147.555 185.585 135.915 195.085 138.35C200.746 139.8 206.696 139.798 212.354 138.335C221.778 135.897 228.388 147.464 221.504 154.346L220.897 154.954Z" fill="#FFAE94"/>
<path fill-rule="evenodd" clip-rule="evenodd" d="M169.436 152.799L267.198 103.146C267.198 103.146 141.185 159.274 141.185 159.274L140.602 166.397L169.436 152.799Z" fill="#F2886B"/>
</g>
<path fill-rule="evenodd" clip-rule="evenodd" d="M96.4737 132.705C100.974 130.107 106.728 131.649 109.327 136.149L109.453 136.368C111.339 139.632 107.692 143.288 104.406 141.438C102.449 140.336 100.239 139.745 97.9923 139.726C94.2502 139.693 92.9465 134.74 96.1877 132.87L96.4737 132.705Z" fill="#AAD8DF"/>
<path fill-rule="evenodd" clip-rule="evenodd" d="M87.2863 153.143C84.6876 157.643 78.9336 159.185 74.4332 156.587L74.2142 156.461C70.949 154.576 72.2798 149.587 76.0496 149.546C78.2959 149.522 80.5054 148.929 82.4605 147.822C85.7176 145.979 89.323 149.617 87.4514 152.857L87.2863 153.143Z" fill="#FAD100"/>
<path fill-rule="evenodd" clip-rule="evenodd" d="M110.989 164.029C112.335 159.01 117.494 156.032 122.513 157.376L122.757 157.442C126.399 158.417 126.405 163.581 122.774 164.596C120.611 165.201 118.63 166.346 117.028 167.92C114.359 170.543 109.935 167.963 110.904 164.348L110.989 164.029Z" fill="#4FC5D5"/>
<path fill-rule="evenodd" clip-rule="evenodd" d="M142.49 173.53C147.687 173.531 151.899 177.743 151.9 182.939L151.9 183.192C151.9 186.962 146.914 188.304 144.993 185.06C143.849 183.127 142.231 181.51 140.295 180.37C137.071 178.471 138.418 173.53 142.16 173.53L142.49 173.53Z" fill="#AAD8DF"/>
<path fill-rule="evenodd" clip-rule="evenodd" d="M98.7837 189.31C97.7882 194.41 92.8475 197.738 87.7473 196.744L87.4991 196.696C83.7987 195.974 83.436 190.823 86.9879 189.56C89.1043 188.806 91.0011 187.528 92.4907 185.846C94.9722 183.045 99.5638 185.313 98.8469 188.986L98.7837 189.31Z" fill="#AAD8DF"/>
<path fill-rule="evenodd" clip-rule="evenodd" d="M51.6365 195.864C53.5839 191.047 59.0674 188.72 63.8854 190.666L64.1199 190.761C67.6155 192.173 66.9918 197.298 63.2643 197.864C61.0433 198.2 58.9378 199.095 57.1556 200.462C54.1865 202.741 50.1102 199.64 51.5127 196.171L51.6365 195.864Z" fill="#FAD100"/>
<path fill-rule="evenodd" clip-rule="evenodd" d="M35.9151 176.495C34.9197 181.595 29.9789 184.923 24.8787 183.929L24.6305 183.88C20.9301 183.159 20.5674 178.008 24.1193 176.744C26.2358 175.991 28.1326 174.712 29.6222 173.031C32.1036 170.229 36.6953 172.498 35.9784 176.171L35.9151 176.495Z" fill="#AAD8DF"/>
<path fill-rule="evenodd" clip-rule="evenodd" d="M21.6465 155.857C19.7123 151.035 22.0531 145.557 26.8755 143.621L27.1101 143.527C30.6089 142.123 33.7111 146.251 31.4153 149.241C30.0473 151.023 29.1493 153.127 28.8119 155.348C28.2499 159.048 23.1625 159.637 21.7695 156.164L21.6465 155.857Z" fill="#4FC5D5"/>
<path fill-rule="evenodd" clip-rule="evenodd" d="M68.0225 170.006C71.6385 166.274 77.5948 166.179 81.3273 169.794L81.509 169.97C84.2171 172.593 81.7116 177.108 78.0452 176.23C75.8606 175.707 73.5732 175.745 71.4076 176.341C67.7998 177.336 65.1885 172.93 67.7927 170.243L68.0225 170.006Z" fill="#FFAE94"/>
<circle cx="145.514" cy="179.5" r="5.5" fill="#FFAE94"/>
</g>
</svg>
