<svg xmlns="http://www.w3.org/2000/svg" width="225" height="177" fill="none" viewBox="0 0 225 177">
    <path fill="#EE7552" fill-rule="evenodd" d="M155.706 76.35c-3.431 2.86-8.192 3.092-11.848.917-.14.131-.285.26-.434.385-4.348 3.648-10.851 3.058-14.524-1.32-1.054-1.256-1.76-2.688-2.129-4.177-3.655.835-7.649-.369-10.237-3.454-.393-.468-.738-.96-1.034-1.471-7.127 2.049-14.178 5.732-20.504 11.04-20.212 16.96-25.371 44.088-11.523 60.591 13.848 16.504 41.46 16.134 61.672-.826 20.212-16.96 25.37-44.087 11.522-60.591-.313-.373-.634-.738-.961-1.094z" clip-rule="evenodd"/>
    <path fill="#25204F" d="M94.876 79.452c1.83-.323 3.052-2.072 2.729-3.906-1.462-8.292-9.355-13.83-17.63-12.372-1.83.323-3.052 2.072-2.728 3.906.32 1.816 2.034 3.035 3.845 2.746l.055-.009c4.567-.805 8.925 2.214 9.803 6.76l.025.138c.324 1.834 2.07 3.06 3.9 2.737z"/>
    <mask id="vdd7vxac7a" width="21" height="18" x="77" y="62" maskUnits="userSpaceOnUse">
        <path fill="#fff" d="M94.876 79.452c1.83-.323 3.052-2.072 2.729-3.906-1.462-8.292-9.355-13.83-17.63-12.372-1.83.323-3.052 2.072-2.728 3.906.32 1.816 2.034 3.035 3.845 2.746l.055-.009c4.567-.805 8.925 2.214 9.803 6.76l.025.138c.324 1.834 2.07 3.06 3.9 2.737z"/>
    </mask>
    <path fill="#E8E8E8" fill-rule="evenodd" d="M39.308 58.096c2.68-.473 4.47-3.03 3.998-5.71-.762-4.324-6.37-5.57-8.89-1.975-2.523 3.597.565 8.448 4.892 7.685z" clip-rule="evenodd"/>
    <mask id="kw9pkihvgb" width="11" height="11" x="33" y="48" maskUnits="userSpaceOnUse">
        <path fill="#fff" fill-rule="evenodd" d="M39.308 58.096c2.68-.473 4.47-3.03 3.998-5.71-.762-4.324-6.37-5.57-8.89-1.975-2.523 3.597.565 8.448 4.892 7.685z" clip-rule="evenodd"/>
    </mask>
    <g mask="url(#kw9pkihvgb)">
        <path fill="#FFAE94" d="M0 0H17V17H0z" transform="scale(-1 1) rotate(-80 12.027 54.935)"/>
    </g>
    <path fill="#E8E8E8" fill-rule="evenodd" d="M72.148 153.085c-1.676 2.145-1.296 5.243.85 6.919 3.458 2.702 8.459-.124 7.927-4.482-.532-4.361-6.073-5.899-8.777-2.437z" clip-rule="evenodd"/>
    <mask id="qwpbdegvic" width="10" height="11" x="71" y="151" maskUnits="userSpaceOnUse">
        <path fill="#fff" fill-rule="evenodd" d="M72.148 153.085c-1.676 2.145-1.296 5.243.85 6.919 3.458 2.702 8.459-.124 7.927-4.482-.532-4.361-6.073-5.899-8.777-2.437z" clip-rule="evenodd"/>
    </mask>
    <g mask="url(#qwpbdegvic)">
        <path fill="#F3D239" d="M0 0H17V17H0z" transform="scale(1 -1) rotate(-38 -193.379 -178.843)"/>
    </g>
    <path fill="#E8E8E8" fill-rule="evenodd" d="M58.457 132.827c-2.23-1.561-5.304-1.019-6.865 1.211-2.518 3.596.566 8.441 4.89 7.682 4.327-.76 5.574-6.373 1.975-8.893z" clip-rule="evenodd"/>
    <mask id="obqx0e5sid" width="11" height="11" x="50" y="131" maskUnits="userSpaceOnUse">
        <path fill="#fff" fill-rule="evenodd" d="M58.457 132.827c-2.23-1.561-5.304-1.019-6.865 1.211-2.518 3.596.566 8.441 4.89 7.682 4.327-.76 5.574-6.373 1.975-8.893z" clip-rule="evenodd"/>
    </mask>
    <g mask="url(#obqx0e5sid)">
        <path fill="#EE7552" d="M0 0H17V17H0z" transform="scale(-1 1) rotate(55 -152.073 12.73)"/>
    </g>
    <path fill="#E8E8E8" fill-rule="evenodd" d="M179.549 145.195c2.681-.472 4.471-3.029 3.998-5.71-.762-4.323-6.369-5.569-8.89-1.974-2.522 3.597.565 8.447 4.892 7.684z" clip-rule="evenodd"/>
    <mask id="2u0hbkxd3e" width="11" height="11" x="173" y="135" maskUnits="userSpaceOnUse">
        <path fill="#fff" fill-rule="evenodd" d="M179.549 145.195c2.681-.472 4.471-3.029 3.998-5.71-.762-4.323-6.369-5.569-8.89-1.974-2.522 3.597.565 8.447 4.892 7.684z" clip-rule="evenodd"/>
    </mask>
    <g mask="url(#2u0hbkxd3e)">
        <path fill="#FFAE94" d="M0 0H17V17H0z" transform="scale(-1 1) rotate(-80 -6.193 182.05)"/>
    </g>
    <path fill="#E8E8E8" fill-rule="evenodd" d="M17.652 151.676c2.68-.473 4.47-3.03 3.998-5.711-.762-4.323-6.37-5.568-8.89-1.974-2.523 3.597.565 8.448 4.892 7.685z" clip-rule="evenodd"/>
    <mask id="d9r54k3haf" width="11" height="11" x="11" y="141" maskUnits="userSpaceOnUse">
        <path fill="#fff" fill-rule="evenodd" d="M17.652 151.676c2.68-.473 4.47-3.03 3.998-5.711-.762-4.323-6.37-5.568-8.89-1.974-2.523 3.597.565 8.448 4.892 7.685z" clip-rule="evenodd"/>
    </mask>
    <g mask="url(#d9r54k3haf)">
        <path fill="#4FC5D5" d="M0 0H17V17H0z" transform="scale(-1 1) rotate(-80 78.617 88.82)"/>
    </g>
    <circle cx="151.724" cy="57.605" r="42.665" fill="#fff"/>
    <mask id="xrcfumkpwg" width="86" height="87" x="109" y="14" maskUnits="userSpaceOnUse">
        <circle cx="151.724" cy="57.605" r="42.665" fill="#fff"/>
    </mask>
    <g mask="url(#xrcfumkpwg)">
        <path fill="#EE7552" fill-rule="evenodd" d="M179.829 59.946l-.098.057c-4.969 2.868-11.024 2.14-15.135-1.378-.206.135-.417.264-.632.389-6.295 3.634-14.333 1.496-17.953-4.774-1.039-1.8-1.602-3.745-1.726-5.689-4.783.26-9.529-2.106-12.08-6.525-.427-.74-.773-1.503-1.042-2.28-9.443 1.026-19.158 4.12-28.327 9.414-29.334 16.936-41.972 49.965-28.226 73.773 13.745 23.807 48.668 29.377 78.002 12.441 29.334-16.936 41.971-49.965 28.226-73.772-.325-.563-.661-1.115-1.009-1.656z" clip-rule="evenodd"/>
    </g>
    <path fill="#4FC5D5" fill-rule="evenodd" d="M193.089 87.944l29.982 30.386c2.543 2.577 2.543 6.647 0 9.089-2.543 2.441-6.558 2.441-8.968 0l-29.982-30.386c-20.88 16.685-51.398 15.328-70.672-4.205-20.88-21.162-20.88-55.481 0-76.507 20.746-21.161 54.61-21.161 75.491 0 19.274 19.534 20.612 50.462 4.149 71.623zM122.417 25.41c-15.928 16.006-15.928 42.187 0 58.33 15.794 16.142 41.627 16.142 57.555 0 15.928-16.007 15.928-42.188 0-58.33-15.928-16.143-41.761-16.143-57.555 0z" clip-rule="evenodd"/>
</svg>
