<svg xmlns="http://www.w3.org/2000/svg" width="312" height="232" fill="none" viewBox="0 0 312 232">
    <path fill="#EE7552" fill-rule="evenodd" d="M308.777 91.83c.038-.042.076-.086.113-.13.043-.052.085-.104.126-.158.033-.043.065-.087.096-.131.039-.057.077-.114.113-.172.03-.046.057-.093.085-.14.033-.058.064-.116.094-.174.027-.052.052-.103.077-.156.026-.056.049-.113.073-.17.023-.058.046-.115.067-.174.02-.055.037-.11.055-.167.018-.061.038-.122.054-.184.015-.058.027-.116.04-.174.013-.061.026-.122.036-.184.012-.067.019-.135.027-.202.007-.054.015-.107.02-.161.007-.099.01-.197.011-.296 0-.023.003-.045.002-.069v-.006c-.001-.126-.008-.252-.02-.378l-.014-.095c-.011-.091-.023-.181-.04-.271-.01-.055-.024-.107-.037-.16-.015-.067-.03-.133-.048-.198-.018-.062-.039-.122-.06-.183-.018-.055-.035-.111-.056-.166-.025-.065-.054-.128-.081-.19-.022-.05-.043-.1-.067-.15-.031-.063-.067-.126-.101-.189-.02-.034-.036-.071-.057-.106l-.021-.033c-.034-.057-.072-.111-.109-.166-.033-.05-.067-.101-.102-.15l-.102-.128c-.044-.055-.088-.111-.135-.164-.03-.034-.063-.067-.095-.1-.053-.057-.106-.113-.163-.166-.032-.03-.065-.058-.098-.087-.058-.052-.117-.103-.178-.152-.037-.029-.074-.055-.112-.083-.06-.044-.12-.088-.182-.129l-.131-.08c-.059-.036-.118-.071-.179-.104-.048-.026-.098-.051-.147-.075-.06-.03-.12-.057-.181-.084-.052-.022-.103-.043-.155-.062-.065-.025-.129-.048-.195-.07l-.15-.047c-.074-.02-.147-.039-.221-.056l-.134-.029c-.086-.017-.173-.03-.26-.04-.026-.004-.052-.01-.078-.013l-179.574-19.73c-1.572-.172-3.107.559-3.964 1.889-.857 1.33-.889 3.03-.083 4.39l22.719 38.312-10.802 54.147-.005.028-.004.018c-.022.112-.04.224-.052.337-.006.05-.008.101-.012.152-.006.073-.012.147-.013.22-.002.054-.001.108 0 .162.001.075.004.149.008.223l.012.149c.01.099.025.197.042.294.004.025.006.05.011.075.025.125.056.248.091.37l.009.033c.007.026.018.05.026.076.026.081.054.161.085.24l.055.134c.029.068.061.135.094.202.022.045.043.091.068.135.041.077.086.151.132.226.042.066.085.129.129.192.039.054.077.11.118.162.035.045.072.088.11.132.041.049.083.097.126.143.037.041.076.079.115.118.048.048.098.095.149.14.038.034.075.068.113.1.06.05.122.096.185.143.033.025.064.051.099.074.095.067.193.131.295.19.119.069.232.125.347.178.033.016.068.029.102.044.084.036.169.07.254.1l.121.041c.086.028.173.052.26.073l.113.029c.119.025.238.047.358.063.04.005.081.007.121.011.085.008.17.015.255.018.052.002.104.003.155.002.083 0 .164-.002.246-.007.045-.003.091-.004.137-.008.124-.012.247-.029.369-.051.03-.005.059-.013.089-.019.103-.021.205-.046.307-.075l.058-.014 33.608-10.124 17.813 29.975c.368.621.886 1.127 1.497 1.479.437.253.922.426 1.433.507 1.223.193 2.47-.168 3.402-.987L308.445 92.16l.064-.061c.046-.043.091-.086.136-.131.045-.045.089-.091.132-.138z" clip-rule="evenodd"/>
    <mask id="2dxaklwnza" width="189" height="126" x="121" y="65" maskUnits="userSpaceOnUse">
        <path fill="#fff" fill-rule="evenodd" d="M308.777 91.83c.038-.042.076-.086.113-.13.043-.052.085-.104.126-.158.033-.043.065-.087.096-.131.039-.057.077-.114.113-.172.03-.046.057-.093.085-.14.033-.058.064-.116.094-.174.027-.052.052-.103.077-.156.026-.056.049-.113.073-.17.023-.058.046-.115.067-.174.02-.055.037-.11.055-.167.018-.061.038-.122.054-.184.015-.058.027-.116.04-.174.013-.061.026-.122.036-.184.012-.067.019-.135.027-.202.007-.054.015-.107.02-.161.007-.099.01-.197.011-.296 0-.023.003-.045.002-.069v-.006c-.001-.126-.008-.252-.02-.378l-.014-.095c-.011-.091-.023-.181-.04-.271-.01-.055-.024-.107-.037-.16-.015-.067-.03-.133-.048-.198-.018-.062-.039-.122-.06-.183-.018-.055-.035-.111-.056-.166-.025-.065-.054-.128-.081-.19-.022-.05-.043-.1-.067-.15-.031-.063-.067-.126-.101-.189-.02-.034-.036-.071-.057-.106l-.021-.033c-.034-.057-.072-.111-.109-.166-.033-.05-.067-.101-.102-.15l-.102-.128c-.044-.055-.088-.111-.135-.164-.03-.034-.063-.067-.095-.1-.053-.057-.106-.113-.163-.166-.032-.03-.065-.058-.098-.087-.058-.052-.117-.103-.178-.152-.037-.029-.074-.055-.112-.083-.06-.044-.12-.088-.182-.129l-.131-.08c-.059-.036-.118-.071-.179-.104-.048-.026-.098-.051-.147-.075-.06-.03-.12-.057-.181-.084-.052-.022-.103-.043-.155-.062-.065-.025-.129-.048-.195-.07l-.15-.047c-.074-.02-.147-.039-.221-.056l-.134-.029c-.086-.017-.173-.03-.26-.04-.026-.004-.052-.01-.078-.013l-179.574-19.73c-1.572-.172-3.107.559-3.964 1.889-.857 1.33-.889 3.03-.083 4.39l22.719 38.312-10.802 54.147-.005.028-.004.018c-.022.112-.04.224-.052.337-.006.05-.008.101-.012.152-.006.073-.012.147-.013.22-.002.054-.001.108 0 .162.001.075.004.149.008.223l.012.149c.01.099.025.197.042.294.004.025.006.05.011.075.025.125.056.248.091.37l.009.033c.007.026.018.05.026.076.026.081.054.161.085.24l.055.134c.029.068.061.135.094.202.022.045.043.091.068.135.041.077.086.151.132.226.042.066.085.129.129.192.039.054.077.11.118.162.035.045.072.088.11.132.041.049.083.097.126.143.037.041.076.079.115.118.048.048.098.095.149.14.038.034.075.068.113.1.06.05.122.096.185.143.033.025.064.051.099.074.095.067.193.131.295.19.119.069.232.125.347.178.033.016.068.029.102.044.084.036.169.07.254.1l.121.041c.086.028.173.052.26.073l.113.029c.119.025.238.047.358.063.04.005.081.007.121.011.085.008.17.015.255.018.052.002.104.003.155.002.083 0 .164-.002.246-.007.045-.003.091-.004.137-.008.124-.012.247-.029.369-.051.03-.005.059-.013.089-.019.103-.021.205-.046.307-.075l.058-.014 33.608-10.124 17.813 29.975c.368.621.886 1.127 1.497 1.479.437.253.922.426 1.433.507 1.223.193 2.47-.168 3.402-.987L308.445 92.16l.064-.061c.046-.043.091-.086.136-.131.045-.045.089-.091.132-.138z" clip-rule="evenodd"/>
    </mask>
    <g mask="url(#2dxaklwnza)">
        <path fill="#1AA3B5" fill-rule="evenodd" d="M192.166 101.633c-.935-10.698 6.978-20.128 17.675-21.066 17.256-1.511 27.729 18.592 16.6 31.867-11.134 13.28-32.767 6.463-34.275-10.801z" clip-rule="evenodd"/>
        <path fill="#F2886B" fill-rule="evenodd" d="M143.935 109.636l181.029-22.442-18.624-6.261-187.812-18.15-1.84 11.767 18.094 40.122 9.153-5.036z" clip-rule="evenodd"/>
        <mask id="yuqpvz4dlb" width="209" height="53" x="116" y="62" maskUnits="userSpaceOnUse">
            <path fill="#fff" fill-rule="evenodd" d="M143.935 109.636l181.029-22.442-18.624-6.261-187.812-18.15-1.84 11.767 18.094 40.122 9.153-5.036z" clip-rule="evenodd"/>
        </mask>
        <g mask="url(#yuqpvz4dlb)">
            <path fill="#4FC5D5" fill-rule="evenodd" d="M192.357 102.062c-1.121-10.68 6.626-20.246 17.305-21.37 17.227-1.813 28.049 18.105 17.154 31.571-10.901 13.473-32.65 7.035-34.459-10.201z" clip-rule="evenodd"/>
        </g>
        <path fill="#FBF8F3" fill-rule="evenodd" d="M141.189 62.611c-1.121-10.68 6.626-20.246 17.306-21.37 17.227-1.813 28.048 18.105 17.153 31.571-10.9 13.474-32.649 7.035-34.459-10.2z" clip-rule="evenodd"/>
        <path fill="#FAD100" fill-rule="evenodd" d="M227.33 157.101c10.094 3.673 15.298 14.834 11.624 24.928-5.925 16.278-28.573 17.27-35.898 1.572-7.328-15.703 7.99-32.426 24.274-26.5z" clip-rule="evenodd"/>
        <path fill="#A594F0" fill-rule="evenodd" d="M146.06 110.371c10.094 3.673 15.298 14.834 11.624 24.928-5.925 16.278-28.573 17.27-35.898 1.571-7.328-15.703 7.99-32.425 24.274-26.499z" clip-rule="evenodd"/>
        <path fill="#EE7552" fill-rule="evenodd" d="M100.367 168.174c7.53-13.042 24.206-17.51 37.247-9.981 21.032 12.143 16.893 43.65-6.562 49.948-23.468 6.302-42.834-18.924-30.685-39.967z" clip-rule="evenodd"/>
        <path fill="#F2886B" fill-rule="evenodd" d="M172.307 158.922l139.66-70.932-180.019 80.183-.832 10.176 41.191-19.427z" clip-rule="evenodd"/>
    </g>
    <path fill="#E8E8E8" fill-rule="evenodd" d="M94.305 109.612c2.03-.544 3.236-2.631 2.692-4.662-.878-3.275-5.276-3.856-6.973-.922-1.7 2.938 1.003 6.463 4.28 5.584z" clip-rule="evenodd"/>
    <mask id="umfwbhutjc" width="9" height="8" x="89" y="102" maskUnits="userSpaceOnUse">
        <path fill="#fff" fill-rule="evenodd" d="M94.305 109.612c2.03-.544 3.236-2.631 2.692-4.662-.878-3.275-5.276-3.856-6.973-.922-1.7 2.938 1.003 6.463 4.28 5.584z" clip-rule="evenodd"/>
    </mask>
    <g mask="url(#umfwbhutjc)">
        <path fill="#25204F" d="M0 0H13V13H0z" transform="scale(-1 1) rotate(-75 21.792 118.16)"/>
    </g>
    <path fill="#E8E8E8" fill-rule="evenodd" d="M116.952 120.518c.544 2.031 2.632 3.236 4.663 2.692 3.275-.877 3.855-5.275.921-6.973-2.938-1.699-6.463 1.003-5.584 4.281z" clip-rule="evenodd"/>
    <mask id="1y7v2gdn7d" width="9" height="9" x="116" y="115" maskUnits="userSpaceOnUse">
        <path fill="#fff" fill-rule="evenodd" d="M116.952 120.518c.544 2.031 2.632 3.236 4.663 2.692 3.275-.877 3.855-5.275.921-6.973-2.938-1.699-6.463 1.003-5.584 4.281z" clip-rule="evenodd"/>
    </mask>
    <g mask="url(#1y7v2gdn7d)">
        <path fill="#F3D239" d="M0 0H13V13H0z" transform="scale(1 -1) rotate(15 530.65 385.812)"/>
    </g>
    <path fill="#E8E8E8" fill-rule="evenodd" d="M60.47 181.635c0 2.151 1.744 3.895 3.895 3.895 3.471 0 5.209-4.196 2.755-6.65-2.454-2.454-6.65-.716-6.65 2.755z" clip-rule="evenodd"/>
    <mask id="74fdluudce" width="9" height="9" x="60" y="177" maskUnits="userSpaceOnUse">
        <path fill="#fff" fill-rule="evenodd" d="M60.47 181.635c0 2.151 1.744 3.895 3.895 3.895 3.471 0 5.209-4.196 2.755-6.65-2.454-2.454-6.65-.716-6.65 2.755z" clip-rule="evenodd"/>
    </mask>
    <g mask="url(#74fdluudce)">
        <path fill="#F3D239" d="M0 0H13V13H0z" transform="matrix(1 0 0 -1 60.47 185.53)"/>
    </g>
    <path fill="#E8E8E8" fill-rule="evenodd" d="M92.155 158.769c1.821 1.051 4.15.428 5.2-1.393 1.696-2.937-1.003-6.457-4.279-5.582-3.278.875-3.86 5.278-.921 6.975z" clip-rule="evenodd"/>
    <mask id="bi3plc5xyf" width="8" height="9" x="90" y="151" maskUnits="userSpaceOnUse">
        <path fill="#fff" fill-rule="evenodd" d="M92.155 158.769c1.821 1.051 4.15.428 5.2-1.393 1.696-2.937-1.003-6.457-4.279-5.582-3.278.875-3.86 5.278-.921 6.975z" clip-rule="evenodd"/>
    </mask>
    <g mask="url(#bi3plc5xyf)">
        <path fill="#EE7552" d="M0 0H13V13H0z" transform="scale(1 -1) rotate(60 186.873 2.328)"/>
    </g>
    <path fill="#E8E8E8" fill-rule="evenodd" d="M8.889 180.106c2.031.544 4.119-.661 4.663-2.692.878-3.275-2.64-5.977-5.578-4.284-2.94 1.694-2.363 6.098.915 6.976z" clip-rule="evenodd"/>
    <mask id="qk0qf0cmxg" width="8" height="9" x="6" y="172" maskUnits="userSpaceOnUse">
        <path fill="#fff" fill-rule="evenodd" d="M8.889 180.106c2.031.544 4.119-.661 4.663-2.692.878-3.275-2.64-5.977-5.578-4.284-2.94 1.694-2.363 6.098.915 6.976z" clip-rule="evenodd"/>
    </mask>
    <g mask="url(#qk0qf0cmxg)">
        <path fill="#FFAE94" d="M0 0H13V13H0z" transform="scale(1 -1) rotate(75 124.285 -82.357)"/>
    </g>
    <path fill="#E8E8E8" fill-rule="evenodd" d="M37.481 179.01c-.544-2.031-2.631-3.236-4.662-2.692-3.275.877-3.856 5.275-.922 6.973 2.938 1.699 6.463-1.003 5.584-4.281z" clip-rule="evenodd"/>
    <mask id="zdl8uz8heh" width="9" height="8" x="29" y="176" maskUnits="userSpaceOnUse">
        <path fill="#fff" fill-rule="evenodd" d="M37.481 179.01c-.544-2.031-2.631-3.236-4.662-2.692-3.275.877-3.856 5.275-.922 6.973 2.938 1.699 6.463-1.003 5.584-4.281z" clip-rule="evenodd"/>
    </mask>
    <g mask="url(#zdl8uz8heh)">
        <path fill="#25204F" d="M0 0H13V13H0z" transform="scale(-1 1) rotate(15 -684.138 -50.942)"/>
    </g>
    <path fill="#E8E8E8" fill-rule="evenodd" d="M29.793 144.905c-.545 2.031-2.632 3.237-4.663 2.692-3.275-.877-3.856-5.275-.921-6.973 2.937-1.699 6.462 1.003 5.584 4.281z" clip-rule="evenodd"/>
    <mask id="g8lxdp5sei" width="8" height="8" x="22" y="140" maskUnits="userSpaceOnUse">
        <path fill="#fff" fill-rule="evenodd" d="M29.793 144.905c-.545 2.031-2.632 3.237-4.663 2.692-3.275-.877-3.856-5.275-.921-6.973 2.937-1.699 6.462 1.003 5.584 4.281z" clip-rule="evenodd"/>
    </mask>
    <g mask="url(#g8lxdp5sei)">
        <path fill="#4FC5D5" d="M28.807 148.583H41.807V161.583H28.807z" transform="rotate(-165 28.807 148.583)"/>
    </g>
    <path fill="#E8E8E8" fill-rule="evenodd" d="M123.682 217.936c-.544-2.031.661-4.118 2.692-4.663 3.275-.877 5.977 2.641 4.285 5.579-1.695 2.94-6.098 2.362-6.977-.916z" clip-rule="evenodd"/>
    <mask id="n57nd55juj" width="9" height="8" x="123" y="213" maskUnits="userSpaceOnUse">
        <path fill="#fff" fill-rule="evenodd" d="M123.682 217.936c-.544-2.031.661-4.118 2.692-4.663 3.275-.877 5.977 2.641 4.285 5.579-1.695 2.94-6.098 2.362-6.977-.916z" clip-rule="evenodd"/>
    </mask>
    <g mask="url(#n57nd55juj)">
        <path fill="#EE7552" d="M122.697 214.259H135.697V227.259H122.697z" transform="rotate(-15 122.697 214.259)"/>
    </g>
    <path fill="#E8E8E8" fill-rule="evenodd" d="M159.593 219.655c-.544-2.031-2.632-3.236-4.663-2.692-3.275.878-3.856 5.276-.921 6.974 2.937 1.699 6.462-1.004 5.584-4.282z" clip-rule="evenodd"/>
    <mask id="0t9b4rgg9k" width="8" height="9" x="152" y="216" maskUnits="userSpaceOnUse">
        <path fill="#fff" fill-rule="evenodd" d="M159.593 219.655c-.544-2.031-2.632-3.236-4.663-2.692-3.275.878-3.856 5.276-.921 6.974 2.937 1.699 6.462-1.004 5.584-4.282z" clip-rule="evenodd"/>
    </mask>
    <g mask="url(#0t9b4rgg9k)">
        <path fill="#4FC5D5" d="M0 0H13V13H0z" transform="scale(-1 1) rotate(15 -899.562 -494.381)"/>
    </g>
    <path fill="#E8E8E8" fill-rule="evenodd" d="M75.887 128.567c-2.031-.544-4.119.661-4.663 2.692-.878 3.275 2.64 5.977 5.578 4.285 2.94-1.695 2.363-6.099-.915-6.977z" clip-rule="evenodd"/>
    <mask id="7fkznf5rvl" width="8" height="9" x="71" y="128" maskUnits="userSpaceOnUse">
        <path fill="#fff" fill-rule="evenodd" d="M75.887 128.567c-2.031-.544-4.119.661-4.663 2.692-.878 3.275 2.64 5.977 5.578 4.285 2.94-1.695 2.363-6.099-.915-6.977z" clip-rule="evenodd"/>
    </mask>
    <g mask="url(#7fkznf5rvl)">
        <path fill="#A594F0" d="M0 0H13V13H0z" transform="scale(-1 1) rotate(75 -119.239 16.739)"/>
    </g>
</svg>
