<svg width="890" height="888" viewBox="0 0 890 888" fill="none" xmlns="http://www.w3.org/2000/svg">
<path fill-rule="evenodd" clip-rule="evenodd" d="M73.4331 696.734C32.9281 310.901 312.819 -34.7348 698.641 -75.3341L717.416 -77.3097C997.345 -106.766 1135.91 252.99 910.01 420.907V420.907C775.404 520.963 667.978 653.745 598.429 806.365V806.365C482.569 1060.61 105.179 999.13 76.0074 721.256L73.4331 696.734Z" fill="url(#paint0_linear)"/>
<path d="M205 93C205 77.5361 217.536 65 233 65H899C914.464 65 927 77.536 927 93V905C927 920.464 914.464 933 899 933H233C217.536 933 205 920.464 205 905V93Z" fill="white"/>
<path d="M852.848 175.889C852.931 175.974 853.068 175.974 853.151 175.889L853.217 175.821C855.591 173.393 859.438 173.393 861.811 175.821L862.026 176.041C864.657 178.732 864.658 183.088 862.029 185.777L854.688 193.286C853.757 194.237 852.243 194.239 851.311 193.286L843.97 185.777C841.343 183.09 841.343 178.729 843.972 176.041L844.187 175.821C846.561 173.393 850.408 173.394 852.781 175.821L852.848 175.889Z" fill="#D1EEF1" fill-opacity="0.5"/>
<path d="M235 180C235 173.373 240.373 168 247 168H456C462.627 168 468 173.373 468 180V305C468 311.627 462.627 317 456 317H247C240.373 317 235 311.627 235 305V180Z" fill="#D1EEF1" fill-opacity="0.5"/>
<path d="M479 181C479 179.343 480.343 178 482 178H662C663.657 178 665 179.343 665 181V186C665 187.657 663.657 189 662 189H482C480.343 189 479 187.657 479 186V181Z" fill="#D1EEF1" fill-opacity="0.5"/>
<path d="M479 241C479 239.343 480.343 238 482 238H697C698.657 238 700 239.343 700 241V248C700 249.657 698.657 251 697 251H482C480.343 251 479 249.657 479 248V241Z" fill="#D1EEF1" fill-opacity="0.5"/>
<path d="M513 290C513 299.389 505.389 307 496 307C486.611 307 479 299.389 479 290C479 280.611 486.611 273 496 273C505.389 273 513 280.611 513 290Z" fill="#D1EEF1" fill-opacity="0.5"/>
<path d="M560 290C560 299.389 552.389 307 543 307C533.611 307 526 299.389 526 290C526 280.611 533.611 273 543 273C552.389 273 560 280.611 560 290Z" fill="#D1EEF1" fill-opacity="0.5"/>
<path d="M607 290C607 299.389 599.389 307 590 307C580.611 307 573 299.389 573 290C573 280.611 580.611 273 590 273C599.389 273 607 280.611 607 290Z" fill="#D1EEF1" fill-opacity="0.5"/>
<path d="M479 204C479 202.343 480.343 201 482 201H761C762.657 201 764 202.343 764 204V223C764 224.657 762.657 226 761 226H482C480.343 226 479 224.657 479 223V204Z" fill="#D1EEF1" fill-opacity="0.5"/>
<path fill-rule="evenodd" clip-rule="evenodd" d="M682 92H241C238.791 92 237 93.7909 237 96V134C237 136.209 238.791 138 241 138H682C684.209 138 686 136.209 686 134V96C686 93.7909 684.209 92 682 92ZM241 90C237.686 90 235 92.6863 235 96V134C235 137.314 237.686 140 241 140H682C685.314 140 688 137.314 688 134V96C688 92.6863 685.314 90 682 90H241Z" fill="#4FC5D5"/>
<path d="M852.848 354.889C852.931 354.974 853.068 354.974 853.151 354.889L853.217 354.821C855.591 352.393 859.438 352.393 861.811 354.821L862.026 355.041C864.657 357.732 864.658 362.088 862.029 364.777L854.688 372.286C853.757 373.237 852.243 373.239 851.311 372.286L843.97 364.777C841.343 362.09 841.343 357.729 843.972 355.041L844.187 354.821C846.561 352.393 850.408 352.394 852.781 354.821L852.848 354.889Z" fill="#D1EEF1" fill-opacity="0.5"/>
<path d="M235 359C235 352.373 240.373 347 247 347H456C462.627 347 468 352.373 468 359V484C468 490.627 462.627 496 456 496H247C240.373 496 235 490.627 235 484V359Z" fill="#D1EEF1" fill-opacity="0.5"/>
<path d="M479 360C479 358.343 480.343 357 482 357H662C663.657 357 665 358.343 665 360V365C665 366.657 663.657 368 662 368H482C480.343 368 479 366.657 479 365V360Z" fill="#D1EEF1" fill-opacity="0.5"/>
<path d="M479 420C479 418.343 480.343 417 482 417H697C698.657 417 700 418.343 700 420V427C700 428.657 698.657 430 697 430H482C480.343 430 479 428.657 479 427V420Z" fill="#D1EEF1" fill-opacity="0.5"/>
<path d="M513 469C513 478.389 505.389 486 496 486C486.611 486 479 478.389 479 469C479 459.611 486.611 452 496 452C505.389 452 513 459.611 513 469Z" fill="#D1EEF1" fill-opacity="0.5"/>
<path d="M560 469C560 478.389 552.389 486 543 486C533.611 486 526 478.389 526 469C526 459.611 533.611 452 543 452C552.389 452 560 459.611 560 469Z" fill="#D1EEF1" fill-opacity="0.5"/>
<path d="M607 469C607 478.389 599.389 486 590 486C580.611 486 573 478.389 573 469C573 459.611 580.611 452 590 452C599.389 452 607 459.611 607 469Z" fill="#D1EEF1" fill-opacity="0.5"/>
<path d="M479 383C479 381.343 480.343 380 482 380H761C762.657 380 764 381.343 764 383V402C764 403.657 762.657 405 761 405H482C480.343 405 479 403.657 479 402V383Z" fill="#D1EEF1" fill-opacity="0.5"/>
<path d="M852.848 587.889C852.931 587.974 853.068 587.974 853.151 587.889L853.217 587.821C855.591 585.393 859.438 585.393 861.811 587.821L862.026 588.041C864.657 590.732 864.658 595.088 862.029 597.777L854.688 605.286C853.757 606.237 852.243 606.239 851.311 605.286L843.97 597.777C841.343 595.09 841.343 590.729 843.972 588.041L844.187 587.821C846.561 585.393 850.408 585.394 852.781 587.821L852.848 587.889Z" fill="#D1EEF1" fill-opacity="0.5"/>
<path d="M235 592C235 585.373 240.373 580 247 580H456C462.627 580 468 585.373 468 592V717C468 723.627 462.627 729 456 729H247C240.373 729 235 723.627 235 717V592Z" fill="#D1EEF1" fill-opacity="0.5"/>
<path d="M479 593C479 591.343 480.343 590 482 590H662C663.657 590 665 591.343 665 593V598C665 599.657 663.657 601 662 601H482C480.343 601 479 599.657 479 598V593Z" fill="#D1EEF1" fill-opacity="0.5"/>
<path d="M479 653C479 651.343 480.343 650 482 650H697C698.657 650 700 651.343 700 653V660C700 661.657 698.657 663 697 663H482C480.343 663 479 661.657 479 660V653Z" fill="#D1EEF1" fill-opacity="0.5"/>
<path d="M513 702C513 711.389 505.389 719 496 719C486.611 719 479 711.389 479 702C479 692.611 486.611 685 496 685C505.389 685 513 692.611 513 702Z" fill="#D1EEF1" fill-opacity="0.5"/>
<path d="M560 702C560 711.389 552.389 719 543 719C533.611 719 526 711.389 526 702C526 692.611 533.611 685 543 685C552.389 685 560 692.611 560 702Z" fill="#D1EEF1" fill-opacity="0.5"/>
<path d="M479 616C479 614.343 480.343 613 482 613H761C762.657 613 764 614.343 764 616V635C764 636.657 762.657 638 761 638H482C480.343 638 479 636.657 479 635V616Z" fill="#D1EEF1" fill-opacity="0.5"/>
<path d="M852.848 783.889C852.931 783.974 853.068 783.974 853.151 783.889L853.217 783.821C855.591 781.393 859.438 781.393 861.811 783.821L862.026 784.041C864.657 786.732 864.658 791.088 862.029 793.777L854.688 801.286C853.757 802.237 852.243 802.239 851.311 801.286L843.97 793.777C841.343 791.09 841.343 786.729 843.972 784.041L844.187 783.821C846.561 781.393 850.408 781.394 852.781 783.821L852.848 783.889Z" fill="#D1EEF1" fill-opacity="0.5"/>
<path d="M235 788C235 781.373 240.373 776 247 776H456C462.627 776 468 781.373 468 788V913C468 919.627 462.627 925 456 925H247C240.373 925 235 919.627 235 913V788Z" fill="#D1EEF1" fill-opacity="0.5"/>
<path d="M479 789C479 787.343 480.343 786 482 786H662C663.657 786 665 787.343 665 789V794C665 795.657 663.657 797 662 797H482C480.343 797 479 795.657 479 794V789Z" fill="#D1EEF1" fill-opacity="0.5"/>
<path d="M479 849C479 847.343 480.343 846 482 846H697C698.657 846 700 847.343 700 849V856C700 857.657 698.657 859 697 859H482C480.343 859 479 857.657 479 856V849Z" fill="#D1EEF1" fill-opacity="0.5"/>
<path d="M513 898C513 907.389 505.389 915 496 915C486.611 915 479 907.389 479 898C479 888.611 486.611 881 496 881C505.389 881 513 888.611 513 898Z" fill="#D1EEF1" fill-opacity="0.5"/>
<path d="M560 898C560 907.389 552.389 915 543 915C533.611 915 526 907.389 526 898C526 888.611 533.611 881 543 881C552.389 881 560 888.611 560 898Z" fill="#D1EEF1" fill-opacity="0.5"/>
<path d="M607 898C607 907.389 599.389 915 590 915C580.611 915 573 907.389 573 898C573 888.611 580.611 881 590 881C599.389 881 607 888.611 607 898Z" fill="#D1EEF1" fill-opacity="0.5"/>
<path d="M479 812C479 810.343 480.343 809 482 809H761C762.657 809 764 810.343 764 812V831C764 832.657 762.657 834 761 834H482C480.343 834 479 832.657 479 831V812Z" fill="#D1EEF1" fill-opacity="0.5"/>
<defs>
<linearGradient id="paint0_linear" x1="373.615" y1="-270.958" x2="610.343" y2="700.321" gradientUnits="userSpaceOnUse">
<stop stop-color="#4FC5D5"/>
<stop offset="1" stop-color="#4FC5D5" stop-opacity="0"/>
</linearGradient>
</defs>
</svg>
