<svg xmlns="http://www.w3.org/2000/svg" width="21" height="23" viewBox="0 0 21 23">
    <g fill="#4FC5D5">
        <path d="M5.06 3.008c1.457-1.264 3.322-1.946 5.239-1.946 1.942 0 3.808.707 5.264 1.971.077.076.205.126.307.126.128 0 .256-.05.358-.151.179-.203.153-.48-.051-.657C14.54.935 12.47.15 10.299.15c-2.147 0-4.242.784-5.878 2.2-.204.176-.204.454-.051.657.204.151.486.177.69 0z"/>
        <path d="M13.647 4.853c.127 0 .255-.05.357-.152.18-.202.154-.48-.05-.657-1.023-.885-2.3-1.365-3.655-1.365-1.329 0-2.632.48-3.655 1.365-.204.177-.204.455-.05.657.178.202.46.202.664.05.843-.732 1.916-1.137 3.015-1.137 1.1 0 2.198.405 3.041 1.138.128.05.23.1.333.1z"/>
        <path d="M11.986 6.142c.178-.202.153-.48-.052-.657-.46-.405-1.047-.607-1.635-.607-.588 0-1.176.227-1.636.607-.204.177-.204.455-.05.657.101.1.23.151.357.151.102 0 .23-.025.307-.126.204-.177.562-.38 1.022-.38.46 0 .818.203 1.022.38.205.202.511.177.665-.025z"/>
        <circle cx="10.299" cy="7.835" r="1"/>
        <path d="M20.061 10.186h-1.073v-1.39c0-.253-.205-.455-.46-.455h-6.006c-1.099 0-1.789.657-2.198 1.415C9.89 9.023 9.2 8.341 8.101 8.341H2.096c-.256 0-.46.202-.46.455v1.39H.562c-.255 0-.46.202-.46.455v10.69c0 .254.205.456.46.456h6.67l.92.91c.077.076.205.126.332.126h3.68c.128 0 .256-.05.333-.126l.92-.91h6.67c.255 0 .46-.202.46-.455V10.666c-.026-.253-.23-.48-.486-.48zm-7.539-.91h5.52V19.36H12.83c-.665.026-1.687.278-2.07 1.037v-9.2c.051-.228.409-1.921 1.763-1.921zm-9.94 0h5.52c1.354 0 1.686 1.668 1.737 1.92v9.15c-.383-.733-1.406-.986-2.07-1.01H2.58V9.275zm16.994 11.626h-6.39c-.127 0-.255.05-.332.127l-.92.91h-3.27l-.92-.91c-.077-.076-.205-.127-.333-.127H1.022v-9.781h.588v8.694c0 .253.204.455.46.455h5.648c.025 0 1.303.076 1.303.708 0 .253.205.455.46.455h1.585c.255 0 .46-.202.46-.455 0-.657 1.277-.708 1.277-.708h5.648c.256 0 .46-.202.46-.455v-8.694h.588v9.781h.077z"/>
        <path d="M12.164 13.27h2.403c.255 0 .46-.203.46-.456 0-.252-.205-.455-.46-.455h-2.403c-.255 0-.46.203-.46.455-.025.228.205.455.46.455zM15.819 13.27h.255c.256 0 .46-.203.46-.456 0-.252-.204-.455-.46-.455h-.255c-.256 0-.46.203-.46.455 0 .228.204.455.46.455zM12.164 15.165h.716c.256 0 .46-.202.46-.455s-.204-.455-.46-.455h-.716c-.255 0-.46.202-.46.455-.025.253.205.455.46.455zM13.647 14.685c0 .252.204.455.46.455h2.606c.256 0 .46-.203.46-.455 0-.253-.204-.455-.46-.455h-2.606c-.256 0-.46.202-.46.455zM14.567 16.252H12.24c-.255 0-.46.202-.46.455 0 .252.205.455.46.455h2.326c.255 0 .46-.203.46-.455 0-.253-.205-.455-.46-.455zM16.483 16.252h-.664c-.256 0-.46.202-.46.455 0 .252.204.455.46.455h.664c.256 0 .46-.203.46-.455 0-.253-.204-.455-.46-.455zM3.936 13.27h2.402c.255 0 .46-.203.46-.456 0-.252-.205-.455-.46-.455H3.936c-.256 0-.46.203-.46.455 0 .228.204.455.46.455zM7.59 13.27h.256c.255 0 .46-.203.46-.456 0-.252-.205-.455-.46-.455H7.59c-.256 0-.46.203-.46.455 0 .228.204.455.46.455zM3.936 15.165h.715c.256 0 .46-.202.46-.455s-.204-.455-.46-.455h-.715c-.256 0-.46.202-.46.455s.204.455.46.455zM5.418 14.685c0 .252.204.455.46.455h2.606c.256 0 .46-.203.46-.455 0-.253-.204-.455-.46-.455H5.878c-.256 0-.46.202-.46.455zM6.338 16.252H4.012c-.255 0-.46.202-.46.455 0 .252.205.455.46.455h2.326c.255 0 .46-.203.46-.455 0-.253-.205-.455-.46-.455zM8.714 16.732c0-.253-.204-.455-.46-.455H7.59c-.256 0-.46.202-.46.455s.204.455.46.455h.664c.256 0 .46-.202.46-.455z"/>
    </g>
</svg>
