<svg xmlns="http://www.w3.org/2000/svg" width="23" height="12" viewBox="0 0 23 12">
    <path fill="#928FA7" d="M2.373 9.72h.698C3.297 11.014 4.424 12 5.78 12s2.485-.987 2.71-2.28h5.368c.226 1.293 1.354 2.28 2.71 2.28 1.357 0 2.485-.987 2.711-2.28h2.549c.513 0 .93-.417.93-.93V6.228c0-1.308-1.064-2.372-2.372-2.372h-2.83C15.81 2.188 14.986 0 12.432 0H6.715C5.417 0 4.222.652 3.52 1.745l-1.355 2.11H.475c-.263 0-.475.213-.475.475v3.018c0 1.308 1.064 2.373 2.373 2.373zm3.408 1.331c-.993 0-1.801-.807-1.805-1.799l.002-.006-.002-.006c.004-.993.812-1.8 1.805-1.8.996 0 1.805.81 1.805 1.806 0 .995-.81 1.805-1.805 1.805zm10.789 0c-.996 0-1.805-.81-1.805-1.805 0-.995.81-1.805 1.805-1.805.994 0 1.803.808 1.805 1.802l-.001.003v.003c-.001.994-.81 1.802-1.804 1.802zm-.282-7.195h-6.034V.949h2.179c1.915 0 2.543 1.653 3.855 2.907zM4.32 2.258C4.846 1.438 5.741.949 6.715.949h2.59v2.907H3.293l1.026-1.598zM.95 4.805h19.438c.785 0 1.423.638 1.423 1.423l.019 2.544H19.28c-.226-1.293-1.354-2.28-2.71-2.28-1.357 0-2.485.987-2.71 2.28H8.49c-.225-1.293-1.353-2.28-2.71-2.28s-2.484.987-2.71 2.28h-.698c-.785 0-1.424-.639-1.424-1.424V4.805z"/>
</svg>
