<?xml version="1.0" encoding="UTF-8"?>
<svg width="60px" height="60px" viewBox="0 0 60 60" version="1.1" xmlns="http://www.w3.org/2000/svg" xmlns:xlink="http://www.w3.org/1999/xlink">
    <!-- Generator: Sketch 63.1 (92452) - https://sketch.com -->
    <title>Group 53 Copy 9</title>
    <desc>Created with Sketch.</desc>
    <g id="Mobile" stroke="none" stroke-width="1" fill="none" fill-rule="evenodd">
        <g id="Group-53-Copy-9" fill="#4FC5D5" fill-rule="nonzero">
            <g id="Group-22">
                <path d="M32.6719178,1.02570839 L57.9221386,14.8614458 C59.2034247,15.5635204 60,16.9083208 60,18.3693488 L60,60 L0,60 L0,18.4296005 C0,16.9367687 0.831293616,15.5681592 2.15604069,14.8799789 L28.9058199,0.983989669 C30.0896053,0.369036206 31.5020454,0.384682424 32.6719178,1.02570839 Z M31.9511158,2.341172 C31.2761895,1.97134933 30.472085,1.93456912 29.7704457,2.2333974 L29.5973046,2.3150978 L2.84752543,16.211087 C2.0747563,16.6125255 1.57064517,17.3844199 1.50686488,18.2441347 L1.5,18.4296005 L1.5,58.5 L58.5,58.5 L58.5,18.3693488 C58.5,17.5170825 58.066309,16.7280956 57.3574004,16.2699273 L57.2013366,16.1769094 L31.9511158,2.341172 Z" id="Rectangle-Copy-12"></path>
                <g id="Group-21" transform="translate(11.351351, 7.486486)">
                    <path d="M31.5833786,4.83381845 L15.0319679,14.7249975 C14.9255254,14.7886079 14.8365155,14.8776177 14.7729052,14.9840602 L4.88172612,31.5354709 C4.48192947,32.2044709 5.24126225,32.9638037 5.91026223,32.564007 L22.4616729,22.672828 C22.5681154,22.6092176 22.6571253,22.5202077 22.7207356,22.4137653 L32.6119147,5.86235455 C33.0117113,5.19335457 32.2523786,4.43402179 31.5833786,4.83381845 Z M29.796,7.648 L21.53,21.482 L7.696,29.748 L15.963,15.915 L29.796,7.648 Z" id="Rectangle" transform="translate(18.746820, 18.698913) rotate(-315.000000) translate(-18.746820, -18.698913) "></path>
                    <path d="M17.9195358,18.4284788 C18.0085204,18.0593574 18.3563568,17.8204262 18.7238761,17.8579395 L18.8244169,17.8751343 L27.1127052,19.8732038 C27.4158764,19.9462897 27.6384672,20.1977317 27.6799536,20.4998928 L27.6869369,20.6023166 L27.6869369,27.2625483 C27.6869369,27.6767618 27.3511505,28.0125483 26.9369369,28.0125483 C26.5572412,28.0125483 26.243446,27.7303944 26.1937836,27.3643188 L26.1869369,27.2625483 L26.186,21.192 L18.4728804,19.3333599 C18.103759,19.2443753 17.8648278,18.896539 17.902341,18.5290197 L17.9195358,18.4284788 Z" id="Path-33"></path>
                    <path d="M31.0810811,23.8484556 C31.4607768,23.8484556 31.774572,24.1306095 31.8242345,24.496685 L31.8310811,24.5984556 L31.8310811,32.7065637 C31.8310811,32.9444781 31.7181995,33.1682816 31.5268744,33.3096958 C28.4570388,35.5787047 24.1594802,36.6998069 18.6486486,36.6998069 C13.1378171,36.6998069 8.84025848,35.5787047 5.77042292,33.3096958 C5.60643,33.1884837 5.500069,33.0067405 5.47302693,32.807464 L5.46621622,32.7065637 L5.46621622,24.5984556 C5.46621622,24.184242 5.80200265,23.8484556 6.21621622,23.8484556 C6.59591198,23.8484556 6.90970718,24.1306095 6.9593696,24.496685 L6.96621622,24.5984556 L6.966,32.32 L7.23429142,32.5009633 C9.88219907,34.2289293 13.5109941,35.133901 18.1312108,35.1963377 L18.6486486,35.1998069 C23.516158,35.1998069 27.3170276,34.2929281 30.0630059,32.5009633 L30.331,32.32 L30.3310811,24.5984556 C30.3310811,24.2187598 30.613235,23.9049646 30.9793105,23.8553022 L31.0810811,23.8484556 Z" id="Path-3"></path>
                </g>
            </g>
        </g>
    </g>
</svg>