<?xml version="1.0" encoding="UTF-8"?>
<svg width="60px" height="60px" viewBox="0 0 60 60" version="1.1" xmlns="http://www.w3.org/2000/svg" xmlns:xlink="http://www.w3.org/1999/xlink">
    <!-- Generator: Sketch 63.1 (92452) - https://sketch.com -->
    <title>Group 53 Copy 10</title>
    <desc>Created with Sketch.</desc>
    <g id="Mobile" stroke="none" stroke-width="1" fill="none" fill-rule="evenodd">
        <g id="Group-53-Copy-10">
            <g id="Group-29">
                <g id="Group-28" fill="#4FC5D5" fill-rule="nonzero">
                    <path d="M32.6719178,1.02570839 L57.9221386,14.8614458 C59.2034247,15.5635204 60,16.9083208 60,18.3693488 L60,60 L0,60 L0,18.4296005 C0,16.9367687 0.831293616,15.5681592 2.15604069,14.8799789 L28.9058199,0.983989669 C30.0896053,0.369036206 31.5020454,0.384682424 32.6719178,1.02570839 Z M31.9511158,2.341172 C31.2761895,1.97134933 30.472085,1.93456912 29.7704457,2.2333974 L29.5973046,2.3150978 L2.84752543,16.211087 C2.0747563,16.6125255 1.57064517,17.3844199 1.50686488,18.2441347 L1.5,18.4296005 L1.5,58.5 L58.5,58.5 L58.5,18.3693488 C58.5,17.5170825 58.066309,16.7280956 57.3574004,16.2699273 L57.2013366,16.1769094 L31.9511158,2.341172 Z" id="Rectangle-Copy-12"></path>
                    <path d="M45.4054054,20.3310811 L16.2162162,20.3310811 C15.8020027,20.3310811 15.4662162,20.6668675 15.4662162,21.0810811 L15.4662162,40.5405405 C15.4662162,40.9547541 15.8020027,41.2905405 16.2162162,41.2905405 L45.4054054,41.2905405 C45.819619,41.2905405 46.1554054,40.9547541 46.1554054,40.5405405 L46.1554054,21.0810811 C46.1554054,20.6668675 45.819619,20.3310811 45.4054054,20.3310811 Z M44.655,21.831 L44.655,39.79 L16.966,39.79 L16.966,21.831 L44.655,21.831 Z" id="Rectangle"></path>
                    <polygon id="Path-44" points="34.8040541 40.5405405 34.8040541 47.8378378 33.3040541 47.8378378 33.3040541 40.5405405"></polygon>
                    <path d="M37.2972973,47.0878378 C37.7115109,47.0878378 38.0472973,47.4236243 38.0472973,47.8378378 C38.0472973,48.2175336 37.7651434,48.5313288 37.3990679,48.5809912 L37.2972973,48.5878378 L24.3243243,48.5878378 C23.9101108,48.5878378 23.5743243,48.2520514 23.5743243,47.8378378 C23.5743243,47.4581421 23.8564782,47.1443469 24.2225538,47.0946845 L24.3243243,47.0878378 L37.2972973,47.0878378 Z" id="Line-10"></path>
                    <polygon id="Path-41" points="28.3175676 40.5405405 28.3175676 47.027027 26.8175676 47.027027 26.8175676 40.5405405"></polygon>
                </g>
                <g id="Group-26" transform="translate(16.216216, 21.081081)">
                    <g id="Group-23" transform="translate(6.486486, 19.459459)"></g>
                </g>
            </g>
        </g>
    </g>
</svg>