<?xml version="1.0" encoding="UTF-8"?>
<svg width="60px" height="60px" viewBox="0 0 60 60" version="1.1" xmlns="http://www.w3.org/2000/svg" xmlns:xlink="http://www.w3.org/1999/xlink">
    <!-- Generator: Sketch 63.1 (92452) - https://sketch.com -->
    <title>Group 53 Copy 8</title>
    <desc>Created with Sketch.</desc>
    <g id="Mobile" stroke="none" stroke-width="1" fill="none" fill-rule="evenodd">
        <g id="Group-53-Copy-8" fill="#4FC5D5" fill-rule="nonzero">
            <g id="Group-20">
                <path d="M32.6719178,1.02570839 L57.9221386,14.8614458 C59.2034247,15.5635204 60,16.9083208 60,18.3693488 L60,60 L0,60 L0,18.4296005 C0,16.9367687 0.831293616,15.5681592 2.15604069,14.8799789 L28.9058199,0.983989669 C30.0896053,0.369036206 31.5020454,0.384682424 32.6719178,1.02570839 Z M31.9511158,2.341172 C31.2761895,1.97134933 30.472085,1.93456912 29.7704457,2.2333974 L29.5973046,2.3150978 L2.84752543,16.211087 C2.0747563,16.6125255 1.57064517,17.3844199 1.50686488,18.2441347 L1.5,18.4296005 L1.5,58.5 L58.5,58.5 L58.5,18.3693488 C58.5,17.5170825 58.066309,16.7280956 57.3574004,16.2699273 L57.2013366,16.1769094 L31.9511158,2.341172 Z" id="Rectangle-Copy-12"></path>
                <g id="Group-15" transform="translate(29.148649, 32.513514) rotate(-180.000000) translate(-29.148649, -32.513514) translate(9.648649, 11.513514)">
                    <path d="M19.4594595,31.6584767 C22.1462501,31.6584767 24.3243243,33.8365508 24.3243243,36.5233415 C24.3243243,39.2101322 22.1462501,41.3882064 19.4594595,41.3882064 C16.7726688,41.3882064 14.5945946,39.2101322 14.5945946,36.5233415 C14.5945946,33.8365508 16.7726688,31.6584767 19.4594595,31.6584767 Z M19.4594595,33.1584767 C17.6010959,33.1584767 16.0945946,34.664978 16.0945946,36.5233415 C16.0945946,38.3817051 17.6010959,39.8882064 19.4594595,39.8882064 C21.317823,39.8882064 22.8243243,38.3817051 22.8243243,36.5233415 C22.8243243,34.664978 21.317823,33.1584767 19.4594595,33.1584767 Z" id="Oval"></path>
                    <path d="M34.0540541,0.773955774 C36.7408447,0.773955774 38.9189189,2.95202996 38.9189189,5.63882064 C38.9189189,8.32561131 36.7408447,10.5036855 34.0540541,10.5036855 C31.3672634,10.5036855 29.1891892,8.32561131 29.1891892,5.63882064 C29.1891892,2.95202996 31.3672634,0.773955774 34.0540541,0.773955774 Z M34.0540541,2.27395577 C32.1956905,2.27395577 30.6891892,3.78045709 30.6891892,5.63882064 C30.6891892,7.49718419 32.1956905,9.0036855 34.0540541,9.0036855 C35.9124176,9.0036855 37.4189189,7.49718419 37.4189189,5.63882064 C37.4189189,3.78045709 35.9124176,2.27395577 34.0540541,2.27395577 Z" id="Oval-Copy-3"></path>
                    <path d="M4.86486486,0.847665848 C7.55165554,0.847665848 9.72972973,3.02574004 9.72972973,5.71253071 C9.72972973,8.39932139 7.55165554,10.5773956 4.86486486,10.5773956 C2.17807419,10.5773956 -8.84913764e-12,8.39932139 -8.84913764e-12,5.71253071 C-8.84913764e-12,3.02574004 2.17807419,0.847665848 4.86486486,0.847665848 Z M4.86486486,2.34766585 C3.00650131,2.34766585 1.5,3.85416716 1.5,5.71253071 C1.5,7.57089426 3.00650131,9.07739558 4.86486486,9.07739558 C6.72322841,9.07739558 8.22972973,7.57089426 8.22972973,5.71253071 C8.22972973,3.85416716 6.72322841,2.34766585 4.86486486,2.34766585 Z" id="Oval-Copy-4"></path>
                    <path d="M34.0540541,12.9969287 C34.4682676,12.9969287 34.8040541,13.3327152 34.8040541,13.7469287 C34.8040541,16.9659348 32.2750752,19.5697743 27.3883584,21.5967781 L27.0352998,21.7405836 C22.4234843,23.5853098 20.2094595,25.7993346 20.2094595,28.3415233 C20.2094595,28.7557369 19.873673,29.0915233 19.4594595,29.0915233 C19.0452459,29.0915233 18.7094595,28.7557369 18.7094595,28.3415233 C18.7094595,25.1225173 21.2384383,22.5186778 26.1251551,20.491674 L26.4782137,20.3478685 C31.0900293,18.5031423 33.3040541,16.2891175 33.3040541,13.7469287 C33.3040541,13.3327152 33.6398405,12.9969287 34.0540541,12.9969287 Z" id="Path-32"></path>
                    <path d="M19.4594595,12.9969287 C19.873673,12.9969287 20.2094595,13.3327152 20.2094595,13.7469287 C20.2094595,16.9659348 17.6804806,19.5697743 12.7937638,21.5967781 L12.4407052,21.7405836 C7.82888966,23.5853098 5.61486486,25.7993346 5.61486486,28.3415233 C5.61486486,28.7557369 5.27907843,29.0915233 4.86486486,29.0915233 C4.4506513,29.0915233 4.11486486,28.7557369 4.11486486,28.3415233 C4.11486486,25.1225173 6.6438437,22.5186778 11.5305605,20.491674 L11.8836192,20.3478685 C16.4954347,18.5031423 18.7094595,16.2891175 18.7094595,13.7469287 C18.7094595,13.3327152 19.0452459,12.9969287 19.4594595,12.9969287 Z" id="Path-32-Copy" transform="translate(12.162162, 21.044226) scale(-1, 1) translate(-12.162162, -21.044226) "></path>
                </g>
            </g>
        </g>
    </g>
</svg>