<?xml version="1.0" encoding="UTF-8"?>
<svg width="60px" height="60px" viewBox="0 0 60 60" version="1.1" xmlns="http://www.w3.org/2000/svg" xmlns:xlink="http://www.w3.org/1999/xlink">
    <!-- Generator: Sketch 63.1 (92452) - https://sketch.com -->
    <title>Group 54 Copy 2</title>
    <desc>Created with Sketch.</desc>
    <g id="Mobile" stroke="none" stroke-width="1" fill="none" fill-rule="evenodd">
        <g id="Group-54-Copy-2" fill="#4FC5D5" fill-rule="nonzero">
            <g id="Group-10" transform="translate(0.491803, 0.000000)">
                <path d="M32.1908481,1.05608888 L56.9630281,14.8561161 C58.2306138,15.5622597 59.0163934,16.8994811 59.0163934,18.3504849 L59.0163934,60 L0,60 L0,18.4110379 C0,16.9279697 0.820560031,15.5666306 2.13196761,14.8740258 L28.376181,1.01344554 C29.5730524,0.381331639 31.0084065,0.397377153 32.1908481,1.05608888 Z M31.4608601,2.36647718 C30.7786822,1.98645119 29.9618173,1.94867347 29.2518249,2.25584438 L29.0766931,2.3398251 L2.83247975,16.2004053 C2.067492,16.6044248 1.56974347,17.372533 1.50677694,18.2267701 L1.5,18.4110379 L1.5,58.5 L57.5163934,58.5 L57.5163934,18.3504849 C57.5163934,17.504066 57.0885801,16.7195954 56.387417,16.2599356 L56.2330401,16.1665044 L31.4608601,2.36647718 Z" id="Rectangle"></path>
                <path d="M29.6497937,25.9669873 L29.7200521,26.0400461 C29.808341,26.131854 29.9537313,26.1319188 30.0420825,26.0400461 L30.112341,25.9669873 C32.6344076,23.3443965 36.7205586,23.3445115 39.2418429,25.9662888 L39.4702201,26.2037686 C42.2655785,29.1105439 42.2658956,33.8151237 39.4730563,36.7192795 L31.6747665,44.8283921 C30.6861054,45.8564592 29.0774575,45.8579443 28.0873681,44.8283921 L20.2890784,36.7192795 C17.4983257,33.8172935 17.4992674,29.1077245 20.2919145,26.2037686 L20.5202917,25.9662888 C23.0413585,23.3447377 27.1285183,23.3452193 29.6497937,25.9669873 Z M38.1606644,27.0060257 C36.2862217,25.0568718 33.306884,24.9996728 31.3669538,26.8346916 L31.1935195,27.0067242 L31.1232611,27.079783 C30.4824019,27.7461855 29.441164,27.7830684 28.7559449,27.1908269 L28.6388735,27.079783 L28.5686151,27.0067242 C26.6942033,25.0576024 23.7139162,25.0000142 21.7748233,26.8340812 L21.6014702,27.0060258 L21.3730931,27.2435055 C19.1992585,29.5039844 19.1396156,33.1543717 21.1941517,35.4881655 L21.370257,35.6795426 L29.1685467,43.7886552 C29.5371312,44.1719307 30.0994032,44.2012609 30.4976504,43.8770682 L30.5935879,43.7886552 L38.3918777,35.6795426 C40.5661262,33.4186332 40.6241471,29.7729574 38.5654956,27.4352307 L38.3890415,27.2435055 L38.1606644,27.0060257 Z" id="Path-Copy"></path>
            </g>
        </g>
    </g>
</svg>