<?xml version="1.0" encoding="UTF-8"?>
<svg width="60px" height="60px" viewBox="0 0 60 60" version="1.1" xmlns="http://www.w3.org/2000/svg" xmlns:xlink="http://www.w3.org/1999/xlink">
    <!-- Generator: Sketch 63.1 (92452) - https://sketch.com -->
    <title>Group 53 Copy 11</title>
    <desc>Created with Sketch.</desc>
    <g id="Mobile" stroke="none" stroke-width="1" fill="none" fill-rule="evenodd">
        <g id="Group-53-Copy-11" fill="#4FC5D5" fill-rule="nonzero">
            <g id="Group-8">
                <path d="M32.6719178,1.02570839 L57.9221386,14.8614458 C59.2034247,15.5635204 60,16.9083208 60,18.3693488 L60,60 L0,60 L0,18.4296005 C0,16.9367687 0.831293616,15.5681592 2.15604069,14.8799789 L28.9058199,0.983989669 C30.0896053,0.369036206 31.5020454,0.384682424 32.6719178,1.02570839 Z M31.9511158,2.341172 C31.2761895,1.97134933 30.472085,1.93456912 29.7704457,2.2333974 L29.5973046,2.3150978 L2.84752543,16.211087 C2.0747563,16.6125255 1.57064517,17.3844199 1.50686488,18.2441347 L1.5,18.4296005 L1.5,58.5 L58.5,58.5 L58.5,18.3693488 C58.5,17.5170825 58.066309,16.7280956 57.3574004,16.2699273 L57.2013366,16.1769094 L31.9511158,2.341172 Z" id="Rectangle-Copy-12"></path>
                <path d="M18.6486486,36.5472973 C19.0283444,36.5472973 19.3421396,36.8294512 19.391802,37.1955267 L19.3986486,37.2972973 L19.398,44.655 L23.5135135,44.6554054 C23.8932093,44.6554054 24.2070045,44.9375593 24.2566669,45.3036348 L24.2635135,45.4054054 C24.2635135,45.7851012 23.9813596,46.0988964 23.6152841,46.1485588 L23.5135135,46.1554054 L18.6486486,46.1554054 C18.2689529,46.1554054 17.9551577,45.8732515 17.9054953,45.507176 L17.8986486,45.4054054 L17.898,38.047 L16.2162162,38.0472973 C15.8365205,38.0472973 15.5227253,37.7651434 15.4730628,37.3990679 L15.4662162,37.2972973 C15.4662162,36.9176015 15.7483701,36.6038063 16.1144457,36.5541439 L16.2162162,36.5472973 L18.6486486,36.5472973 Z" id="Rectangle-Copy-7" transform="translate(19.864865, 41.351351) scale(-1, 1) translate(-19.864865, -41.351351) "></path>
                <path d="M34.2342342,36.5472973 C34.61393,36.5472973 34.9277252,36.8294512 34.9773876,37.1955267 L34.9842342,37.2972973 L34.984,44.655 L48.6486486,44.6554054 C49.0283444,44.6554054 49.3421396,44.9375593 49.391802,45.3036348 L49.3986486,45.4054054 C49.3986486,45.7851012 49.1164948,46.0988964 48.7504192,46.1485588 L48.6486486,46.1554054 L34.2342342,46.1554054 C33.8545385,46.1554054 33.5407433,45.8732515 33.4910809,45.507176 L33.4842342,45.4054054 L33.484,38.047 L32.4324324,38.0472973 C32.0527367,38.0472973 31.7389415,37.7651434 31.689279,37.3990679 L31.6824324,37.2972973 C31.6824324,36.9176015 31.9645863,36.6038063 32.3306619,36.5541439 L32.4324324,36.5472973 L34.2342342,36.5472973 Z" id="Rectangle-Copy-8"></path>
                <path d="M23.0687119,24.5312713 C23.4022167,24.2856142 23.8717202,24.3568287 24.1173773,24.6903335 C24.340702,24.9935197 24.3021492,25.4091015 24.0427269,25.666722 L23.9583151,25.738999 L13.634,33.343 L15.9479479,33.3436937 C16.3276437,33.3436937 16.6414389,33.6258476 16.6911013,33.9919231 L16.6979479,34.0936937 L16.6979479,45.2432432 C16.6979479,45.6574568 16.3621615,45.9932432 15.9479479,45.9932432 C15.5682522,45.9932432 15.254457,45.7110894 15.2047946,45.3450138 L15.1979479,45.2432432 L15.197,34.843 L11.3513514,34.8436937 C10.6635086,34.8436937 10.3550067,34.0093728 10.8256967,33.5577766 L10.9065497,33.4898299 L23.0687119,24.5312713 Z" id="Path-30"></path>
                <path d="M40.5405405,24.3851351 C40.9202363,24.3851351 41.2340315,24.667289 41.2836939,25.0333646 L41.2905405,25.1351351 L41.2905405,45.2432432 C41.2905405,45.6574568 40.9547541,45.9932432 40.5405405,45.9932432 C40.1608448,45.9932432 39.8470496,45.7110894 39.7973872,45.3450138 L39.7905405,45.2432432 L39.79,25.885 L31.6216216,25.8851351 C31.2419259,25.8851351 30.9281307,25.6029813 30.8784682,25.2369057 L30.8716216,25.1351351 C30.8716216,24.7554394 31.1537755,24.4416442 31.5198511,24.3919818 L31.6216216,24.3851351 L40.5405405,24.3851351 Z" id="Path-31"></path>
                <path d="M48.6486486,30.7905405 C49.0283444,30.7905405 49.3421396,31.0726944 49.391802,31.43877 L49.3986486,31.5405405 L49.3986486,44.5135135 C49.3986486,44.9277271 49.0628622,45.2635135 48.6486486,45.2635135 C48.2689529,45.2635135 47.9551577,44.9813596 47.9054953,44.6152841 L47.8986486,44.5135135 L47.898,32.29 L42.1621622,32.2905405 C41.7824664,32.2905405 41.4686712,32.0083867 41.4190088,31.6423111 L41.4121622,31.5405405 C41.4121622,31.1608448 41.694316,30.8470496 42.0603916,30.7973872 L42.1621622,30.7905405 L48.6486486,30.7905405 Z" id="Path-31-Copy"></path>
                <path d="M27.5675676,15.4662162 C27.9472633,15.4662162 28.2610585,15.7483701 28.310721,16.1144457 L28.3175676,16.2162162 L28.3175676,51.0810811 C28.3175676,51.4952946 27.9817811,51.8310811 27.5675676,51.8310811 C27.1878718,51.8310811 26.8740766,51.5489272 26.8244142,51.1828516 L26.8175676,51.0810811 L26.8175676,16.2162162 C26.8175676,15.8020027 27.153354,15.4662162 27.5675676,15.4662162 Z" id="Path-2"></path>
            </g>
        </g>
    </g>
</svg>