<svg xmlns="http://www.w3.org/2000/svg" width="48" height="43" viewBox="0 0 48 43">
    <path fill="#FFFFFF" d="M47 .05c.487 0 .889.367.944.84l.006.11v6.2c0 .525-.425.95-.95.95-.487 0-.889-.367-.944-.84l-.006-.11V3.292l-5.793 5.794C42.587 11.73 44 15.2 44 19c0 8.284-6.716 15-15 15-2.528 0-4.91-.625-7-1.73-1.965 1.039-4.188 1.654-6.55 1.723v3.057h2.818c.524 0 .95.425.95.95 0 .487-.367.889-.84.944l-.11.006H15.45V42c0 .525-.425.95-.95.95-.487 0-.889-.367-.944-.84L13.55 42l-.001-3.05H10.25c-.525 0-.95-.425-.95-.95 0-.487.367-.889.84-.944l.11-.006h3.299v-3.12C5.946 33.2 0 26.796 0 19 0 10.716 6.716 4 15 4c2.528 0 4.91.626 7 1.73C24.09 4.625 26.473 4 29 4c3.8 0 7.27 1.413 9.914 3.743l5.792-5.793H40.8c-.525 0-.95-.425-.95-.95 0-.487.367-.889.84-.944L40.8.05H47zM15 5.9C7.765 5.9 1.9 11.765 1.9 19c0 7.235 5.865 13.1 13.1 13.1 1.807 0 3.53-.366 5.096-1.028C16.398 28.34 14 23.95 14 19c0-4.95 2.398-9.34 6.095-12.072C18.529 6.266 16.807 5.9 15 5.9zm14 0c-1.807 0-3.53.366-5.096 1.028C27.602 9.66 30 14.05 30 19c0 4.95-2.398 9.34-6.095 12.072 1.566.662 3.288 1.028 5.095 1.028 7.235 0 13.1-5.865 13.1-13.1 0-7.235-5.865-13.1-13.1-13.1zm-7 2.026l-.023.014C18.324 10.264 15.9 14.349 15.9 19c0 4.66 2.434 8.753 6.1 11.075 3.666-2.323 6.1-6.415 6.1-11.075 0-4.66-2.434-8.752-6.1-11.074z"/>
</svg>
