<svg xmlns="http://www.w3.org/2000/svg" xmlns:xlink="http://www.w3.org/1999/xlink" width="227" height="82" viewBox="0 0 227 82">
    <defs>
        <path id="prefix__a" d="M118.111 13.925c1.657 0 3 1.343 3 3 0 .796-.316 1.559-.878 2.121L62.96 76.318c-1.171 1.171-3.07 1.171-4.242 0-.563-.563-.88-1.326-.88-2.122V41.405c0-4.418 3.583-8 8-8l3.907.002c2.176-.135 3.991-.93 5.446-2.385 1.206-1.206 1.916-2.617 2.129-4.232l-.001-4.865c0-4.418 3.582-8 8-8h32.791z"/>
        <path id="prefix__b" d="M6.341 0h.003C7.794 0 8.97 1.176 8.97 2.627c0 .697-.277 1.365-.77 1.858L4.485 8.199c-1.026 1.026-2.69 1.026-3.716 0C.277 7.705 0 7.037 0 6.34 0 2.84 2.839 0 6.341 0z"/>
        <path id="prefix__d" d="M6.341 0h.003C7.794 0 8.97 1.176 8.97 2.627c0 .697-.277 1.365-.77 1.858L4.485 8.199c-1.026 1.026-2.69 1.026-3.716 0C.277 7.705 0 7.037 0 6.34 0 2.84 2.839 0 6.341 0z"/>
        <path id="prefix__f" d="M6.341 0h.003C7.794 0 8.97 1.176 8.97 2.627c0 .697-.277 1.365-.77 1.858L4.485 8.199c-1.026 1.026-2.69 1.026-3.716 0C.277 7.705 0 7.037 0 6.34 0 2.84 2.839 0 6.341 0z"/>
        <path id="prefix__h" d="M6.341 0h.003C7.794 0 8.97 1.176 8.97 2.627c0 .697-.277 1.365-.77 1.858L4.485 8.199c-1.026 1.026-2.69 1.026-3.716 0C.277 7.705 0 7.037 0 6.34 0 2.84 2.839 0 6.341 0z"/>
        <path id="prefix__j" d="M6.341 0h.003C7.794 0 8.97 1.176 8.97 2.627c0 .697-.277 1.365-.77 1.858L4.485 8.199c-1.026 1.026-2.69 1.026-3.716 0C.277 7.705 0 7.037 0 6.34 0 2.84 2.839 0 6.341 0z"/>
        <path id="prefix__l" d="M6.341 0h.003C7.794 0 8.97 1.176 8.97 2.627c0 .697-.277 1.365-.77 1.858L4.485 8.199c-1.026 1.026-2.69 1.026-3.716 0C.277 7.705 0 7.037 0 6.34 0 2.84 2.839 0 6.341 0z"/>
        <path id="prefix__n" d="M6.341 0h.003C7.794 0 8.97 1.176 8.97 2.627c0 .697-.277 1.365-.77 1.858L4.485 8.199c-1.026 1.026-2.69 1.026-3.716 0C.277 7.705 0 7.037 0 6.34 0 2.84 2.839 0 6.341 0z"/>
        <path id="prefix__p" d="M6.341 0h.003C7.794 0 8.97 1.176 8.97 2.627c0 .697-.277 1.365-.77 1.858L4.485 8.199c-1.026 1.026-2.69 1.026-3.716 0C.277 7.705 0 7.037 0 6.34 0 2.84 2.839 0 6.341 0z"/>
    </defs>
    <g fill="none" fill-rule="evenodd">
        <g transform="translate(-5 -49) rotate(-180 104.5 82.5)">
            <path fill="#4FC5D5" d="M68.744 84.478L42.56 110.662c-1.172 1.172-3.071 1.172-4.243 0-.563-.563-.879-1.326-.879-2.121V49.1c0-1.656 1.343-3 3-3 .796 0 1.559.317 2.122.88l26.184 26.183c3.124 3.125 3.124 8.19 0 11.314zM109.971 73.164l26.184-26.184c1.172-1.171 3.071-1.171 4.243 0 .563.563.879 1.326.879 2.122v59.439c0 1.657-1.344 3-3 3-.796 0-1.56-.316-2.122-.879l-26.184-26.184c-3.124-3.124-3.124-8.19 0-11.314zM95.014 73.113l37.672 37.672c1.172 1.172 1.172 3.071 0 4.243-.562.562-1.325.878-2.12.878H48.15c-1.657 0-3-1.343-3-3 0-.795.316-1.558.878-2.12l37.673-37.673c3.124-3.124 8.19-3.124 11.313 0z"/>
            <use fill="#4FC5D5" transform="rotate(-135 89.476 45.56)" xlink:href="#prefix__a"/>
        </g>
        <g transform="translate(-5 -49) scale(1 -1) rotate(52 205.433 165.58)">
            <mask id="prefix__c" fill="#fff">
                <use xlink:href="#prefix__b"/>
            </mask>
            <use fill="#E8E8E8" xlink:href="#prefix__b"/>
            <g fill="#25204F" mask="url(#prefix__c)">
                <path d="M0 0H12.688V12.682H0z"/>
            </g>
        </g>
        <g transform="translate(-5 -49) scale(1 -1) rotate(52 138.212 -52.9)">
            <mask id="prefix__e" fill="#fff">
                <use xlink:href="#prefix__d"/>
            </mask>
            <use fill="#E8E8E8" xlink:href="#prefix__d"/>
            <g fill="#4FC5D5" mask="url(#prefix__e)">
                <path d="M0 0H12.688V12.682H0z"/>
            </g>
        </g>
        <g transform="translate(-5 -49) scale(1 -1) rotate(52 153.112 -11.944)">
            <mask id="prefix__g" fill="#fff">
                <use xlink:href="#prefix__f"/>
            </mask>
            <use fill="#E8E8E8" xlink:href="#prefix__f"/>
            <g fill="#A594F0" mask="url(#prefix__g)">
                <path d="M0 0H12.688V12.682H0z"/>
            </g>
        </g>
        <g transform="translate(-5 -49) scale(-1 1) rotate(39 -139.312 12.335)">
            <mask id="prefix__i" fill="#fff">
                <use xlink:href="#prefix__h"/>
            </mask>
            <use fill="#E8E8E8" xlink:href="#prefix__h"/>
            <g fill="#25204F" mask="url(#prefix__i)">
                <path d="M0 0H12.688V12.682H0z"/>
            </g>
        </g>
        <g transform="translate(-5 -49) scale(-1 1) rotate(-4 1525.948 2879.04)">
            <mask id="prefix__k" fill="#fff">
                <use xlink:href="#prefix__j"/>
            </mask>
            <use fill="#E8E8E8" xlink:href="#prefix__j"/>
            <g fill="#FFAE94" mask="url(#prefix__k)">
                <path d="M0 0H12.688V12.682H0z"/>
            </g>
        </g>
        <g transform="translate(-5 -49) scale(-1 1) rotate(-63 -18.116 251.381)">
            <mask id="prefix__m" fill="#fff">
                <use xlink:href="#prefix__l"/>
            </mask>
            <use fill="#E8E8E8" xlink:href="#prefix__l"/>
            <g fill="#A594F0" mask="url(#prefix__m)">
                <path d="M0 0H12.688V12.682H0z"/>
            </g>
        </g>
        <g transform="translate(-5 -49) rotate(-45 171.684 -181.145)">
            <mask id="prefix__o" fill="#fff">
                <use xlink:href="#prefix__n"/>
            </mask>
            <use fill="#E8E8E8" xlink:href="#prefix__n"/>
            <g fill="#EE7552" mask="url(#prefix__o)">
                <path d="M0 0H12.688V12.682H0z"/>
            </g>
        </g>
        <g transform="translate(-5 -49) scale(1 -1) rotate(17 276.544 82.25)">
            <mask id="prefix__q" fill="#fff">
                <use xlink:href="#prefix__p"/>
            </mask>
            <use fill="#E8E8E8" xlink:href="#prefix__p"/>
            <g fill="#F3D239" mask="url(#prefix__q)">
                <path d="M0 0H12.688V12.682H0z"/>
            </g>
        </g>
        <path stroke="#1AA3B5" stroke-linecap="round" stroke-linejoin="round" stroke-width="11" d="M2 20.117L18.398 33 44.209 3" transform="translate(-5 -49) rotate(6 -800.668 1276.152)"/>
    </g>
</svg>
