<?xml version="1.0" encoding="UTF-8"?>
<svg width="85px" height="85px" viewBox="0 0 85 85" version="1.1" xmlns="http://www.w3.org/2000/svg" xmlns:xlink="http://www.w3.org/1999/xlink">
    <!-- Generator: Sketch 63.1 (92452) - https://sketch.com -->
    <title>icon/custom/clementine@3x</title>
    <desc>Created with Sketch.</desc>
    <g id="icon/custom/clementine" stroke="none" stroke-width="1" fill="none" fill-rule="evenodd">
        <g id="Group" transform="translate(14.000000, 14.768595)" fill="#EE7552" fill-rule="nonzero">
            <g transform="translate(27.117647, 0.000000)" id="Path">
                <g>
                    <path d="M1.8576653,0.530053107 C1.10807444,0.567109572 0.5,1.15637807 0.5,1.9127409 L0.5,12.8126338 C0.5,13.5629854 1.14839867,14.2328255 1.90704059,14.1953216 C2.65663144,14.1582652 3.26470588,13.5689967 3.26470588,12.8126338 L3.26470588,1.9127409 C3.26470588,1.16238934 2.61630722,0.492549197 1.8576653,0.530053107 Z M1.90704059,1.5288334 C2.07525841,1.52051746 2.26470588,1.71622965 2.26470588,1.9127409 L2.26470588,12.8126338 C2.26470588,13.0173311 2.09171604,13.1849709 1.8576653,13.1965413 C1.68944748,13.2048573 1.5,13.0091451 1.5,12.8126338 L1.5,1.9127409 C1.5,1.70804362 1.67298984,1.54040384 1.90704059,1.5288334 Z"></path>
                    <path d="M1.8576653,42.8046784 C1.10807444,42.8417348 0.5,43.4310033 0.5,44.1873662 L0.5,55.0872591 C0.5,55.8376107 1.14839867,56.5074508 1.90704059,56.4699469 C2.65663144,56.4328904 3.26470588,55.8436219 3.26470588,55.0872591 L3.26470588,44.1873662 C3.26470588,43.4370146 2.61630722,42.7671745 1.8576653,42.8046784 Z M1.90704059,43.8034587 C2.07525841,43.7951427 2.26470588,43.9908549 2.26470588,44.1873662 L2.26470588,55.0872591 C2.26470588,55.2919564 2.09171604,55.4595962 1.8576653,55.4711666 C1.68944748,55.4794825 1.5,55.2837704 1.5,55.0872591 L1.5,44.1873662 C1.5,43.9826689 1.67298984,43.8150291 1.90704059,43.8034587 Z"></path>
                </g>
                <path d="M1.8576653,0.530053107 C1.10807444,0.567109572 0.5,1.15637807 0.5,1.9127409 L0.5,12.8126338 C0.5,13.5629854 1.14839867,14.2328255 1.90704059,14.1953216 C2.65663144,14.1582652 3.26470588,13.5689967 3.26470588,12.8126338 L3.26470588,1.9127409 C3.26470588,1.16238934 2.61630722,0.492549197 1.8576653,0.530053107 Z"></path>
                <path d="M1.8576653,42.8046784 C1.10807444,42.8417348 0.5,43.4310033 0.5,44.1873662 L0.5,55.0872591 C0.5,55.8376107 1.14839867,56.5074508 1.90704059,56.4699469 C2.65663144,56.4328904 3.26470588,55.8436219 3.26470588,55.0872591 L3.26470588,44.1873662 C3.26470588,43.4370146 2.61630722,42.7671745 1.8576653,42.8046784 Z"></path>
            </g>
            <g transform="translate(0.000000, 26.616702)" id="Path">
                <g>
                    <path d="M13.0058824,0.5 L1.9,0.5 C1.14994239,0.5 0.480820722,1.14909088 0.518254311,1.90793264 C0.55524865,2.65787008 1.14388665,3.26659529 1.9,3.26659529 L13.0058824,3.26659529 C13.75594,3.26659529 14.4250616,2.61750441 14.387628,1.85866265 C14.3600828,1.11311978 13.7643986,0.5 13.0058824,0.5 Z M1.9,1.5 L13.0058824,1.5 C13.2114274,1.5 13.3801367,1.67364741 13.3885771,1.90178371 C13.3971798,2.07694297 13.2016749,2.26659529 13.0058824,2.26659529 L1.9,2.26659529 C1.69608111,2.26659529 1.52862036,2.09341996 1.51703981,1.85866265 C1.50870254,1.68965231 1.70420748,1.5 1.9,1.5 Z"></path>
                    <path d="M56.1,0.5 L44.9941176,0.5 C44.24406,0.5 43.5749384,1.14909088 43.612372,1.90793264 C43.6493663,2.65787008 44.2380043,3.26659529 44.9941176,3.26659529 L56.1,3.26659529 C56.8500576,3.26659529 57.5191793,2.61750441 57.4817457,1.85866265 C57.4542004,1.11311978 56.8585162,0.5 56.1,0.5 Z M44.9941176,1.5 L56.1,1.5 C56.305545,1.5 56.4742543,1.67364741 56.4826948,1.90178371 C56.4912975,2.07694297 56.2957925,2.26659529 56.1,2.26659529 L44.9941176,2.26659529 C44.7901988,2.26659529 44.622738,2.09341996 44.6111575,1.85866265 C44.6028202,1.68965231 44.7983251,1.5 44.9941176,1.5 Z"></path>
                </g>
                <path d="M13.0058824,0.5 L1.9,0.5 C1.14994239,0.5 0.480820722,1.14909088 0.518254311,1.90793264 C0.55524865,2.65787008 1.14388665,3.26659529 1.9,3.26659529 L13.0058824,3.26659529 C13.75594,3.26659529 14.4250616,2.61750441 14.387628,1.85866265 C14.3600828,1.11311978 13.7643986,0.5 13.0058824,0.5 Z"></path>
                <path d="M56.1,0.5 L44.9941176,0.5 C44.24406,0.5 43.5749384,1.14909088 43.612372,1.90793264 C43.6493663,2.65787008 44.2380043,3.26659529 44.9941176,3.26659529 L56.1,3.26659529 C56.8500576,3.26659529 57.5191793,2.61750441 57.4817457,1.85866265 C57.4542004,1.11311978 56.8585162,0.5 56.1,0.5 Z"></path>
            </g>
        </g>
        <g id="Group" transform="translate(22.000000, 21.768595)" fill="#EE7552" fill-rule="nonzero">
            <g transform="translate(0.000000, 0.647059)" id="Path">
                <g>
                    <path d="M40.10873,0.913077007 L32.0864851,8.47729058 C31.534524,8.99893026 31.5433374,9.91157826 32.0766048,10.4425504 C32.6056482,10.9784249 33.4768285,10.9699484 34.0252757,10.4516289 L42.0475206,2.88741531 C42.5994818,2.36577562 42.5906684,1.45312762 42.057401,0.922155505 C41.5197626,0.386831154 40.6566491,0.39525663 40.10873,0.913077007 Z M41.3518209,1.63078567 C41.4923847,1.77074445 41.4949244,2.03373799 41.3611796,2.16013583 L33.3386886,9.72458151 C33.1767134,9.87765873 32.926527,9.88009303 32.7852003,9.73694843 C32.6416211,9.59396143 32.6390814,9.3309679 32.7728262,9.20457005 L40.7955928,1.63986417 C40.9578636,1.48650735 41.2045009,1.48409974 41.3518209,1.63078567 Z"></path>
                    <path d="M8.97472425,30.2542535 L0.952479359,37.818467 C0.400518211,38.3401067 0.409331607,39.2527547 0.942598995,39.7837268 C1.48023743,40.3190512 2.3433509,40.3106257 2.89126999,39.7928053 L10.9135149,32.2285918 C11.465476,31.7069521 11.4566626,30.7943041 10.9233952,30.263332 C10.3857568,29.7280076 9.52264334,29.7364331 8.97472425,30.2542535 Z M10.2178151,30.9719621 C10.3583789,31.1119209 10.3609186,31.3749145 10.2271738,31.5013123 L2.20468279,39.065758 C2.04213644,39.219375 1.79549912,39.2217826 1.6481791,39.0750967 C1.50761532,38.9351379 1.5050756,38.6721444 1.63882042,38.5457465 L9.66158699,30.9810406 C9.82385779,30.8276838 10.0704951,30.8252762 10.2178151,30.9719621 Z"></path>
                </g>
                <path d="M40.10873,0.913077007 L32.0864851,8.47729058 C31.534524,8.99893026 31.5433374,9.91157826 32.0766048,10.4425504 C32.6056482,10.9784249 33.4768285,10.9699484 34.0252757,10.4516289 L42.0475206,2.88741531 C42.5994818,2.36577562 42.5906684,1.45312762 42.057401,0.922155505 C41.5197626,0.386831154 40.6566491,0.39525663 40.10873,0.913077007 Z"></path>
                <path d="M8.97472425,30.2542535 L0.952479359,37.818467 C0.400518211,38.3401067 0.409331607,39.2527547 0.942598995,39.7837268 C1.48023743,40.3190512 2.3433509,40.3106257 2.89126999,39.7928053 L10.9135149,32.2285918 C11.465476,31.7069521 11.4566626,30.7943041 10.9233952,30.263332 C10.3857568,29.7280076 9.52264334,29.7364331 8.97472425,30.2542535 Z"></path>
            </g>
            <path d="M1.61608603,0.916273152 C1.07916944,1.45087877 1.08203904,2.33091177 1.61301839,2.86888104 L9.35795118,10.6981224 C9.88866688,11.2358247 10.785348,11.2329446 11.3192166,10.7013739 C11.8566646,10.1754921 11.8537776,9.2872561 11.3222842,8.74876602 L3.57735141,0.919524631 C3.08201676,0.417669224 2.26788553,0.386721057 1.7274813,0.817011749 L1.61608603,0.916273152 Z M2.86546796,1.62182221 L10.6100756,9.45073353 C10.7566291,9.599217 10.7574507,9.85199098 10.6167305,9.98968965 C10.4699647,10.1357971 10.2088161,10.1366359 10.0698346,9.99582485 L2.32522702,2.16691353 C2.17814622,2.01789583 2.17733336,1.76861486 2.32166613,1.62490332 C2.46533787,1.48184997 2.72648651,1.48101118 2.86546796,1.62182221 Z" id="Path"></path>
            <path d="M31.6866912,31.2986261 C31.1497746,31.8332317 31.1526442,32.7132647 31.6836236,33.251234 L39.4285564,41.0804754 C39.9592721,41.6181776 40.8559532,41.6152975 41.3898218,41.0837268 C41.9272511,40.5486106 41.9243639,39.6602792 41.3898218,39.1280379 L33.6479566,31.3018776 C33.1172409,30.7641753 32.2205597,30.7670554 31.6866912,31.2986261 Z M32.9360731,32.0041752 L40.6806808,39.8330865 C40.827253,39.9790638 40.8280747,40.2318827 40.6842416,40.3750967 C40.5405699,40.51815 40.2794213,40.5189888 40.1404398,40.3781778 L32.3958322,32.5492665 C32.2487514,32.4002488 32.2479386,32.1509678 32.3922713,32.0072563 C32.5359431,31.8642029 32.7970917,31.8633641 32.9360731,32.0041752 Z" id="Path"></path>
            <path d="M1.61608603,0.916273152 C1.07916944,1.45087877 1.08203904,2.33091177 1.61301839,2.86888104 L9.35795118,10.6981224 C9.88866688,11.2358247 10.785348,11.2329446 11.3192166,10.7013739 C11.8566646,10.1754921 11.8537776,9.2872561 11.3222842,8.74876602 L3.57735141,0.919524631 C3.08201676,0.417669224 2.26788553,0.386721057 1.7274813,0.817011749 L1.61608603,0.916273152 Z" id="Path"></path>
            <path d="M31.6866912,31.2986261 C31.1497746,31.8332317 31.1526442,32.7132647 31.6836236,33.251234 L39.4285564,41.0804754 C39.9592721,41.6181776 40.8559532,41.6152975 41.3898218,41.0837268 C41.9272511,40.5486106 41.9243639,39.6602792 41.3898218,39.1280379 L33.6479566,31.3018776 C33.1172409,30.7641753 32.2205597,30.7670554 31.6866912,31.2986261 Z" id="Path"></path>
        </g>
    </g>
</svg>