<svg width="274" height="274" viewBox="0 0 274 274" fill="none" xmlns="http://www.w3.org/2000/svg">
<mask id="mask0" mask-type="alpha" maskUnits="userSpaceOnUse" x="0" y="0" width="274" height="274">
<rect width="274" height="274" fill="white"/>
</mask>
<g mask="url(#mask0)">
<path fill-rule="evenodd" clip-rule="evenodd" d="M56.2508 69.4315C122.439 31.2288 207.063 53.9039 245.282 120.082L247.142 123.303C274.871 171.318 221.233 225.078 172.916 197.879C144.125 181.673 111.623 172.979 78.5857 172.692C23.5494 172.213 4.37618 99.3729 52.0441 71.8596L56.2508 69.4315Z" fill="#D1EEF1"/>
<path d="M195.342 69.2821L62.0428 105C56.9923 106.353 52.6863 109.657 50.072 114.185C47.4577 118.713 46.7492 124.094 48.1025 129.145L67.2369 200.555C68.5901 205.606 71.8943 209.912 76.4224 212.526C80.9505 215.14 86.3317 215.849 91.3821 214.496L145.73 199.933C148.966 202.107 154.037 202.81 159.307 201.397C164.578 199.985 168.623 196.84 170.333 193.341L224.682 178.778C229.732 177.425 234.038 174.121 236.652 169.593C239.267 165.064 239.975 159.683 238.622 154.633L219.488 83.2224C218.134 78.1719 214.83 73.8659 210.302 71.2516C205.774 68.6373 200.393 67.9288 195.342 69.2821Z" fill="#4FC5D5"/>
<path d="M152.93 177.594C153.606 180.119 153.252 182.81 151.945 185.074C150.638 187.338 148.485 188.99 145.959 189.667L88.831 204.974C86.3058 205.651 83.6152 205.297 81.3512 203.99C79.0871 202.682 77.435 200.529 76.7584 198.004L53.7972 112.312C53.1205 109.786 53.4747 107.096 54.7819 104.832C56.0891 102.568 58.2421 100.916 60.7673 100.239L117.896 84.9315C120.421 84.2549 123.111 84.6091 125.376 85.9163C127.64 87.2234 129.292 89.3765 129.968 91.9017L152.93 177.594Z" fill="white"/>
<path d="M152.93 177.594C153.606 180.119 153.252 182.81 151.945 185.074C150.638 187.338 148.485 188.99 145.959 189.667L88.831 204.974C86.3058 205.651 83.6152 205.297 81.3512 203.99C79.0871 202.682 77.435 200.529 76.7584 198.004L53.7972 112.312C53.1205 109.786 53.4747 107.096 54.7819 104.832C56.0891 102.568 58.2421 100.916 60.7673 100.239L117.896 84.9315C120.421 84.2549 123.111 84.6091 125.376 85.9163C127.64 87.2234 129.292 89.3765 129.968 91.9017L152.93 177.594Z" fill="#F2F2F2"/>
<path d="M229.101 157.184C229.777 159.709 229.423 162.4 228.116 164.664C226.809 166.928 224.656 168.58 222.13 169.257L165.002 184.564C162.477 185.241 159.786 184.887 157.522 183.579C155.258 182.272 153.606 180.119 152.929 177.594L129.968 91.9015C129.292 89.3763 129.646 86.6857 130.953 84.4216C132.26 82.1576 134.413 80.5055 136.938 79.8289L194.067 64.5214C196.592 63.8448 199.282 64.199 201.547 65.5061C203.811 66.8133 205.463 68.9663 206.139 71.4915L229.101 157.184Z" fill="#F2F2F2"/>
<path d="M152.93 177.594C145.625 169.357 132.969 172.738 131.336 173.175C121.814 175.726 110.083 189.075 95.8014 192.902C91.0407 194.177 85.137 191.187 83.7287 185.931L63.3187 109.76C61.9105 104.505 65.5282 98.9633 70.2889 97.6877C85.785 93.5355 96.3018 80.5125 105.823 77.9613C120.105 74.1344 127.285 81.8851 128.693 87.1409L152.93 177.594Z" fill="white"/>
<g style="mix-blend-mode:multiply" clip-path="url(#clip0)">
<path d="M83.0045 132.017L118.38 113.527L133.352 142.172L97.9774 160.663L83.0045 132.017Z" fill="#AAD8DF"/>
<path d="M89.0051 116.368L101.602 109.784L107.905 121.844L95.3083 128.428L89.0051 116.368Z" fill="white"/>
<path d="M115.685 111.814L109.726 114.93C109.052 115.281 108.41 115.507 107.861 115.393C107.368 115.292 106.98 114.823 106.726 114.386L104.557 110.237C104.365 109.869 103.869 109.558 103.454 109.547L94.065 109.286C93.653 109.273 93.1257 109.549 92.8976 109.896L87.7495 117.755C87.5214 118.103 87.4934 118.687 87.6858 119.055L89.9013 123.294C90.0951 123.738 90.2254 124.278 90.0423 124.711C89.8256 125.226 89.2704 125.626 88.6004 125.976L82.6438 129.089C80.8362 130.034 80.1302 132.286 81.0732 134.091L94.6828 160.128C95.1945 161.107 96.4028 161.486 97.3818 160.974L109.911 154.425L102.897 140.857C102.37 139.849 102.653 138.523 103.661 137.996L111.115 134.226C112.123 133.699 113.379 134.09 113.908 135.102L120.922 148.67L133.454 142.119C134.433 141.608 134.811 140.399 134.3 139.42L120.69 113.383C119.742 111.577 117.493 110.869 115.685 111.814ZM100.395 122.817C99.632 123.216 98.8185 123.405 98.0153 123.419C96.9728 123.436 95.9482 123.149 95.0711 122.593C94.3025 122.108 93.649 121.424 93.1983 120.562C91.8322 117.948 92.8422 114.726 95.4557 113.36C98.0659 111.996 101.293 113.007 102.657 115.617C103.108 116.48 103.294 117.409 103.253 118.317C103.212 119.251 102.926 120.159 102.425 120.949C101.923 121.738 101.223 122.383 100.395 122.817Z" fill="#D1EEF1"/>
<rect x="95.6684" y="114.575" width="0.748472" height="4.86506" rx="0.374236" transform="rotate(-27.5958 95.6684 114.575)" fill="#A5D1DA"/>
<rect x="98.0521" y="117.893" width="0.748471" height="4.08268" rx="0.374236" transform="rotate(47.4042 98.0521 117.893)" fill="#A5D1DA"/>
</g>
<path d="M152.929 177.594C155.137 166.808 167.788 163.408 169.421 162.97C178.942 160.419 195.776 166.113 210.058 162.286C214.818 161.011 218.436 155.47 217.028 150.214L196.618 74.0427C195.21 68.7869 189.306 65.7969 184.545 67.0725C169.044 71.226 153.43 65.2049 143.908 67.7561C129.626 71.583 127.284 81.8849 128.692 87.1407L152.929 177.594Z" fill="white"/>
<g style="mix-blend-mode:multiply">
<path d="M162.937 116.436L189.096 117.617L187.914 143.775L161.756 142.594L162.937 116.436Z" fill="white"/>
<path d="M176.347 106.803C175.66 106.122 174.493 106.069 173.752 106.686L164.999 113.96L158.393 119.449C157.652 120.066 157.006 121.358 156.963 122.326L156.139 140.568C156.096 141.531 156.85 142.357 157.812 142.4L163.583 142.661C164.135 142.686 164.602 142.259 164.627 141.707L165.125 130.673C165.159 129.941 165.787 129.366 166.515 129.399L171.856 129.64C172.588 129.673 173.163 130.302 173.13 131.034L172.632 142.068C172.607 142.62 173.034 143.087 173.586 143.112L189.003 143.809C189.971 143.852 190.792 143.098 190.835 142.135L191.659 123.892C191.703 122.925 191.176 121.58 190.494 120.899L176.347 106.803ZM181.376 134.982L179.472 134.896C178.582 134.856 177.883 134.096 177.923 133.201L177.997 131.569L180.524 131.683C181.076 131.708 181.503 132.175 181.478 132.727L181.376 134.982ZM181.638 129.186C181.613 129.737 181.145 130.164 180.594 130.14L178.067 130.025L178.165 127.844C178.205 126.954 178.97 126.26 179.86 126.301L181.764 126.387L181.638 129.186ZM186.524 133.589C186.484 134.479 185.723 135.178 184.829 135.138L182.919 135.052L183.021 132.802C183.046 132.25 183.513 131.823 184.065 131.848L186.592 131.962L186.519 133.589L186.524 133.589ZM186.667 130.414L184.14 130.3C183.588 130.275 183.161 129.807 183.186 129.256L183.313 126.451L185.222 126.537C186.112 126.578 186.811 127.338 186.771 128.227L186.673 130.414L186.667 130.414Z" fill="#D1EEF1"/>
<path d="M193.294 120.018C194.569 121.313 193.594 123.501 191.778 123.419L157.574 121.874C155.747 121.792 154.98 119.502 156.388 118.336L174.398 103.423C175.197 102.761 176.371 102.821 177.099 103.561L193.294 120.018Z" fill="#AAD8DF"/>
</g>
<rect x="52.5453" y="211.274" width="14.4915" height="51.8729" rx="7.24574" transform="rotate(-141.85 52.5453 211.274)" fill="#EE7552"/>
<path fill-rule="evenodd" clip-rule="evenodd" d="M111.367 86.5396C137.971 89.5201 157.121 113.503 154.141 140.106C151.16 166.71 127.177 185.86 100.574 182.879C73.9704 179.899 54.8202 155.916 57.8007 129.313C60.7812 102.709 84.7638 83.5591 111.367 86.5396ZM101.883 170.789C121.804 173.021 139.762 158.681 141.994 138.76C144.225 118.839 129.886 100.881 109.966 98.6495C90.0451 96.4177 72.0871 110.757 69.8553 130.678C67.6235 150.599 81.9629 168.557 101.883 170.789Z" fill="#EE7552"/>
</g>
<defs>
<clipPath id="clip0">
<rect width="47.9021" height="47.9021" fill="white" transform="translate(72 120.19) rotate(-27.5958)"/>
</clipPath>
</defs>
</svg>
