<svg xmlns="http://www.w3.org/2000/svg" width="248" height="185" fill="none" viewBox="0 0 248 185">
    <path fill="#FAD100" d="M247.142 134.797c0 16.451-13.365 29.787-29.851 29.787-74.517 0-134.926-60.278-134.926-134.634C82.365 13.5 95.73.164 112.216.164c16.321 0 29.583 13.07 29.847 29.293l.004.493c0 41.04 33.009 74.388 73.98 75.051l1.244.01c16.486 0 29.851 13.336 29.851 29.786z"/>
    <mask id="u2p4w4vaza" width="166" height="165" x="82" y="0" maskUnits="userSpaceOnUse">
        <path fill="#fff" d="M247.142 134.797c0 16.451-13.365 29.787-29.851 29.787-74.517 0-134.926-60.278-134.926-134.634C82.365 13.5 95.73.164 112.216.164c16.321 0 29.583 13.07 29.847 29.293l.004.493c0 41.04 33.009 74.388 73.98 75.051l1.244.01c16.486 0 29.851 13.336 29.851 29.786z"/>
    </mask>
    <g fill-rule="evenodd" clip-rule="evenodd" mask="url(#u2p4w4vaza)">
        <path fill="#EE7552" d="M136.186 66.768c0-8.747 7.091-15.837 15.837-15.837 14.101 0 21.171 17.041 11.211 27.023-9.972 9.994-27.048 2.931-27.048-11.186z"/>
        <path fill="#A594F0" d="M110.051 92.763c5.699-2.537 12.376.026 14.913 5.725 4.091 9.188-4.962 18.738-14.355 15.144-9.404-3.598-9.757-16.773-.558-20.869z"/>
        <path fill="#4FC5D5" d="M194.713 117.448c-2.437 5.743-9.069 8.422-14.811 5.984-9.258-3.929-9.15-17.088.171-20.866 9.332-3.782 18.574 5.614 14.64 14.882z"/>
        <path fill="#25204F" d="M175.649 142.149c5.607-2.734 12.37-.406 15.104 5.201 4.409 9.04-4.305 18.9-13.818 15.636-9.524-3.268-10.336-16.423-1.286-20.837z"/>
        <path fill="#FFAE94" d="M250.734 127.218c-2.437-5.742-9.068-8.422-14.811-5.984-9.258 3.93-9.15 17.088.171 20.866 9.332 3.782 18.575-5.613 14.64-14.882z"/>
    </g>
    <path fill="#25204F" fill-rule="evenodd" d="M67.85 35.607c0-7.363 5.956-13.333 13.304-13.333s13.304 5.97 13.304 13.333c0 7.364-5.956 13.334-13.304 13.334s-13.305-5.97-13.305-13.334zm22.617 0c0-5.154-4.17-9.333-9.313-9.333-5.144 0-9.313 4.179-9.313 9.333 0 5.155 4.17 9.334 9.313 9.334 5.143 0 9.313-4.179 9.313-9.334z" clip-rule="evenodd"/>
    <path fill="#25204F" d="M94.348 39.025c1.035 0 1.875-.857 1.875-1.914 0-1.242.99-2.253 2.207-2.253 1.217 0 2.207 1.01 2.207 2.253 0 1.057.839 1.914 1.875 1.914 1.035 0 1.875-.857 1.875-1.914 0-3.353-2.673-6.08-5.957-6.08-3.285 0-5.958 2.727-5.958 6.08 0 1.057.84 1.914 1.876 1.914z"/>
    <path fill="#25204F" fill-rule="evenodd" d="M102.401 35.607c0-7.363 5.957-13.333 13.305-13.333s13.304 5.97 13.304 13.333c0 7.364-5.956 13.334-13.304 13.334s-13.305-5.97-13.305-13.334zm22.618 0c0-5.154-4.17-9.333-9.313-9.333-5.144 0-9.313 4.179-9.313 9.333 0 5.155 4.169 9.334 9.313 9.334 5.143 0 9.313-4.179 9.313-9.334z" clip-rule="evenodd"/>
    <ellipse cx="98.43" cy="60.158" fill="#D6B301" rx="5.957" ry="3.734"/>
    <ellipse cx="115.706" cy="34.811" fill="#D6B301" rx="3.376" ry="2.189"/>
    <ellipse cx="81.154" cy="34.811" fill="#D6B301" rx="3.376" ry="2.189"/>
    <path fill="#EE7552" fill-rule="evenodd" d="M83.5 113.351c-1.54 1.284-3.678 1.388-5.32.411-.063.059-.128.117-.194.173-1.952 1.638-4.871 1.373-6.52-.592-.474-.564-.79-1.207-.956-1.876-1.641.375-3.434-.166-4.596-1.55-.177-.211-.331-.432-.464-.661-3.2.92-6.365 2.573-9.205 4.956-9.073 7.613-11.389 19.791-5.172 27.2 6.217 7.41 18.613 7.244 27.686-.369 9.073-7.614 11.389-19.792 5.172-27.201-.141-.168-.285-.331-.432-.491z" clip-rule="evenodd"/>
    <path fill="#25204F" d="M56.191 114.742c.822-.145 1.37-.93 1.225-1.753-.656-3.723-4.2-6.209-7.914-5.554-.822.145-1.37.93-1.225 1.753.144.815.914 1.363 1.727 1.233l.024-.004c2.05-.362 4.007.994 4.4 3.035l.012.062c.146.823.93 1.373 1.751 1.228z"/>
    <mask id="co6nzizmib" width="10" height="8" x="48" y="107" maskUnits="userSpaceOnUse">
        <path fill="#fff" d="M56.191 114.742c.822-.145 1.37-.93 1.225-1.753-.656-3.723-4.2-6.209-7.914-5.554-.822.145-1.37.93-1.225 1.753.144.815.914 1.363 1.727 1.233l.024-.004c2.05-.362 4.007.994 4.4 3.035l.012.062c.146.823.93 1.373 1.751 1.228z"/>
    </mask>
    <path fill="#E8E8E8" fill-rule="evenodd" d="M50.308 62.08c-1.414 1.81-1.093 4.423.717 5.837 2.917 2.278 7.134-.103 6.688-3.778-.447-3.68-5.122-4.98-7.405-2.06z" clip-rule="evenodd"/>
    <mask id="q0ipkwiltc" width="9" height="9" x="49" y="60" maskUnits="userSpaceOnUse">
        <path fill="#fff" fill-rule="evenodd" d="M50.308 62.08c-1.414 1.81-1.093 4.423.717 5.837 2.917 2.278 7.134-.103 6.688-3.778-.447-3.68-5.122-4.98-7.405-2.06z" clip-rule="evenodd"/>
    </mask>
    <g mask="url(#q0ipkwiltc)">
        <path fill="#25204F" d="M0 0H14V14H0z" transform="scale(1 -1) rotate(-38 -71.03 -102.014)"/>
    </g>
    <path fill="#E8E8E8" fill-rule="evenodd" d="M21.44 108.322c2.26-.399 3.771-2.556 3.372-4.817-.643-3.646-5.37-4.697-7.498-1.668-2.13 3.034.474 7.129 4.125 6.485z" clip-rule="evenodd"/>
    <mask id="jn2v1gf9md" width="9" height="9" x="16" y="100" maskUnits="userSpaceOnUse">
        <path fill="#fff" fill-rule="evenodd" d="M21.44 108.322c2.26-.399 3.771-2.556 3.372-4.817-.643-3.646-5.37-4.697-7.498-1.668-2.13 3.034.474 7.129 4.125 6.485z" clip-rule="evenodd"/>
    </mask>
    <g mask="url(#jn2v1gf9md)">
        <path fill="#FFAE94" d="M0 0H14V14H0z" transform="scale(-1 1) rotate(-80 51.35 69.015)"/>
    </g>
    <path fill="#E8E8E8" fill-rule="evenodd" d="M22.557 161.749c-1.414 1.81-1.093 4.423.717 5.837 2.917 2.279 7.134-.103 6.688-3.777-.447-3.681-5.122-4.981-7.405-2.06z" clip-rule="evenodd"/>
    <mask id="7ipkpk379e" width="9" height="9" x="21" y="160" maskUnits="userSpaceOnUse">
        <path fill="#fff" fill-rule="evenodd" d="M22.557 161.749c-1.414 1.81-1.093 4.423.717 5.837 2.917 2.279 7.134-.103 6.688-3.777-.447-3.681-5.122-4.981-7.405-2.06z" clip-rule="evenodd"/>
    </mask>
    <g mask="url(#7ipkpk379e)">
        <path fill="#F3D239" d="M0 0H14V14H0z" transform="scale(1 -1) rotate(-38 -229.636 -111.551)"/>
    </g>
    <path fill="#E8E8E8" fill-rule="evenodd" d="M14.061 144.793c-1.881-1.317-4.474-.86-5.791 1.021-2.124 3.032.476 7.119 4.122 6.481 3.652-.639 4.706-5.376 1.669-7.502z" clip-rule="evenodd"/>
    <mask id="mwn3f9hepf" width="9" height="9" x="7" y="144" maskUnits="userSpaceOnUse">
        <path fill="#fff" fill-rule="evenodd" d="M14.061 144.793c-1.881-1.317-4.474-.86-5.791 1.021-2.124 3.032.476 7.119 4.122 6.481 3.652-.639 4.706-5.376 1.669-7.502z" clip-rule="evenodd"/>
    </mask>
    <g mask="url(#mwn3f9hepf)">
        <path fill="#EE7552" d="M0 0H14V14H0z" transform="scale(-1 1) rotate(55 -142.109 60.97)"/>
    </g>
    <path fill="#E8E8E8" fill-rule="evenodd" d="M112.931 171.827c2.262-.399 3.772-2.555 3.373-4.817-.643-3.645-5.37-4.697-7.498-1.668-2.131 3.034.474 7.129 4.125 6.485z" clip-rule="evenodd"/>
    <mask id="5jdyseyb9g" width="9" height="9" x="108" y="163" maskUnits="userSpaceOnUse">
        <path fill="#fff" fill-rule="evenodd" d="M112.931 171.827c2.262-.399 3.772-2.555 3.373-4.817-.643-3.645-5.37-4.697-7.498-1.668-2.131 3.034.474 7.129 4.125 6.485z" clip-rule="evenodd"/>
    </mask>
    <g mask="url(#5jdyseyb9g)">
        <path fill="#FFAE94" d="M0 0H14V14H0z" transform="scale(-1 1) rotate(-80 43.444 155.286)"/>
    </g>
    <path fill="#E8E8E8" fill-rule="evenodd" d="M61.286 177.253c2.261-.399 3.772-2.556 3.373-4.817-.643-3.646-5.37-4.697-7.498-1.668-2.131 3.034.474 7.129 4.125 6.485z" clip-rule="evenodd"/>
    <mask id="mzuiinerhh" width="9" height="10" x="56" y="168" maskUnits="userSpaceOnUse">
        <path fill="#fff" fill-rule="evenodd" d="M61.286 177.253c2.261-.399 3.772-2.556 3.373-4.817-.643-3.646-5.37-4.697-7.498-1.668-2.131 3.034.474 7.129 4.125 6.485z" clip-rule="evenodd"/>
    </mask>
    <g mask="url(#mzuiinerhh)">
        <path fill="#4FC5D5" d="M0 0H14V14H0z" transform="scale(-1 1) rotate(-80 72.5 127.224)"/>
    </g>
</svg>
