<?xml version="1.0" encoding="UTF-8"?>
<svg width="20px" height="20px" viewBox="0 0 20 20" version="1.1" xmlns="http://www.w3.org/2000/svg" xmlns:xlink="http://www.w3.org/1999/xlink">
    <!-- Generator: Sketch 63.1 (92452) - https://sketch.com -->
    <title>Shape</title>
    <desc>Created with Sketch.</desc>
    <g id="Symbols" stroke="none" stroke-width="1" fill="none" fill-rule="evenodd">
        <g id="navbar/discover" transform="translate(-52.000000, -13.000000)" fill="#4FC5D5" fill-rule="nonzero">
            <path d="M60.2122755,13 C55.6880193,13 52,16.5808094 52,21.0192978 C52,25.4577861 55.6665773,29.0385956 60.2122755,29.0385956 C61.4773519,29.0385956 62.6781024,28.7598499 63.750201,28.2452426 C64.2862503,27.9879389 64.9295095,28.1165907 65.358349,28.5239882 L69.5180917,32.597963 C70.075583,33.1340123 70.9547038,33.1340123 71.5121951,32.597963 L71.5121951,32.597963 C72.0911284,32.0404717 72.0911284,31.1184669 71.5121951,30.5395336 L67.5883141,26.7228625 C67.1165907,26.2725811 67.0093809,25.543554 67.3524524,24.9860627 C68.0385956,23.8281962 68.4245511,22.4773519 68.4245511,21.0407397 C68.4245511,16.5808094 64.7579737,13 60.2122755,13 L60.2122755,13 Z M60.2122755,14.8868936 C63.6858751,14.8868936 66.4947735,17.6314661 66.4947735,21.0192978 C66.4947735,24.4071295 63.6858751,27.1731439 60.2122755,27.1731439 C56.738676,27.1731439 53.9512195,24.4285714 53.9512195,21.0192978 C53.9512195,17.6100241 56.738676,14.8868936 60.2122755,14.8868936 L60.2122755,14.8868936 Z" id="Shape"></path>
        </g>
    </g>
</svg>