<?xml version="1.0" encoding="UTF-8"?>
<svg width="106px" height="42px" viewBox="0 0 106 42" version="1.1" xmlns="http://www.w3.org/2000/svg" xmlns:xlink="http://www.w3.org/1999/xlink">
    <!-- Generator: Sketch 61 (89581) - https://sketch.com -->
    <title>Group 11</title>
    <desc>Created with Sketch.</desc>
    <g id="final-mobile" stroke="none" stroke-width="1" fill="none" fill-rule="evenodd">
        <g id="Results-A-3" transform="translate(-49.000000, -981.000000)">
            <g id="Group-11" transform="translate(51.000000, 983.000000)">
                <g id="Group-14" transform="translate(78.000000, 2.362757)">
                    <g id="Group-12">
                        <path d="M13.2820402,10.709 C15.5620402,10.053 17.2370402,7.952 17.2370402,5.463 C17.2370402,2.45 14.7870402,3.19744231e-14 11.7750402,3.19744231e-14 C8.76204019,3.19744231e-14 6.31204019,2.45 6.31204019,5.463 C6.31204019,7.951 7.98604019,10.052 10.2660402,10.709 C7.53404019,11.387 5.50004019,13.852 5.50004019,16.79 L5.50004019,25.245 L6.97904019,25.245 L7.79904019,25.245 L7.79904019,37.209 L10.7580402,37.209 L10.7580402,25.245 L12.7870402,25.245 L12.7870402,37.209 L15.7460402,37.209 L15.7460402,25.245 L16.5660402,25.245 L18.0450417,25.245 L18.0450417,16.79 C18.0470402,13.852 16.0130402,11.387 13.2820402,10.709 Z M11.7750402,7.967 C10.3930402,7.967 9.27104019,6.844 9.27104019,5.464 C9.27104019,4.083 10.3930402,2.961 11.7750402,2.961 C13.1550402,2.961 14.2780402,4.083 14.2780402,5.464 C14.2780402,6.844 13.1550402,7.967 11.7750402,7.967 Z" id="Shape-Copy-7" fill="#FAD100" fill-rule="nonzero"></path>
                        <polygon id="Path" fill="#FFFFFF" fill-rule="nonzero" points="13.0312902 13.0531915 12.0000402 12 10.9687902 13.0531915 10.5000402 19.8510638 12.0000402 21 13.5000402 19.9468085"></polygon>
                        <path d="M6.99884595e-13,3.5 C0.00922690081,6.6564743 0.380448271,8.69545155 1.11366411,9.61693175 C3.46915774,12.5772343 7.60304416,13.0551919 7.60304416,13.0551919" id="Line-4" stroke="#FAD100" stroke-width="3" stroke-linecap="square"></path>
                        <path d="M16.5000402,3.5 C16.5092671,6.6564743 16.8804885,8.69545155 17.6137043,9.61693175 C19.9691979,12.5772343 24.1030843,13.0551919 24.1030843,13.0551919" id="Line-4" stroke="#FAD100" stroke-width="3" stroke-linecap="square" transform="translate(20.301562, 8.277596) scale(-1, 1) translate(-20.301562, -8.277596) "></path>
                    </g>
                </g>
                <g id="Group-16" transform="translate(26.000000, 0.000000)">
                    <g id="Group-10" transform="translate(6.000000, 0.000000)">
                        <path d="M7.781,12.709 C10.061,12.053 11.736,9.952 11.736,7.463 C11.736,4.45 9.286,2 6.274,2 C3.262,2 0.812,4.45 0.812,7.463 C0.812,9.951 2.486,12.052 4.766,12.709 C2.034,13.387 -6.6879835e-13,15.852 -6.6879835e-13,18.79 L-6.6879835e-13,35.25 L2.301,35.25 L2.301,39.209 L5.259,39.209 L5.259,35.25 L2.959,35.25 L2.959,18.79 C2.959,16.963 4.446,15.477 6.273,15.477 C8.1,15.477 9.588,16.963 9.588,18.79 L9.588,35.25 L7.288,35.25 L7.288,39.209 L10.247,39.209 L10.247,35.246 L12.547,35.246 L12.547,18.79 C12.545,15.852 10.513,13.387 7.781,12.709 Z M3.77,7.463 C3.77,6.082 4.893,4.96 6.273,4.96 C7.653,4.96 8.776,6.082 8.776,7.463 C8.776,8.843 7.653,9.96600067 6.273,9.96600067 C4.893,9.967 3.77,8.844 3.77,7.463 Z" id="Shape-Copy-8" fill="#25204F" fill-rule="nonzero"></path>
                        <rect id="Rectangle" stroke="#25204F" stroke-width="3" fill="#FFFFFF" x="2" y="0" width="9" height="6"></rect>
                    </g>
                    <path d="M6.99884595e-13,5.86275685 C0.00922690081,9.01923116 0.380448271,11.0582084 1.11366411,11.9796886 C3.46915774,14.9399912 7.60304416,15.4179488 7.60304416,15.4179488" id="Line-4-Copy-2" stroke="#25204F" stroke-width="3" stroke-linecap="square"></path>
                    <path d="M17,5.86275685 C17.0092269,9.01923116 17.3804483,11.0582084 18.1136641,11.9796886 C20.4691577,14.9399912 24.6030442,15.4179488 24.6030442,15.4179488" id="Line-4-Copy-2" stroke="#25204F" stroke-width="3" stroke-linecap="square" transform="translate(20.801522, 10.640353) scale(-1, 1) translate(-20.801522, -10.640353) "></path>
                </g>
                <g id="Group-15" transform="translate(52.500040, 2.481757)">
                    <path d="M17.231,15.794 C17.231,13.363 15.581,11.331 13.349,10.702 C15.662,10.072 17.37,7.959 17.37,5.448 C17.37,2.444 14.926,-5.68434189e-14 11.921,-5.68434189e-14 C8.916,-5.68434189e-14 6.472,2.444 6.472,5.448 C6.472,6.3 6.674,7.103 7.024,7.822 C6.854,7.731 6.646,7.666 6.374,7.658 C5.049,7.617 4.341,9.677 4,10.226 C4.953,10.777 7.666,10.838 7.666,8.95 C7.666,8.925 7.664,8.884 7.659,8.833 C8.371,9.729 9.359,10.393 10.493,10.702 C8.262,11.331 6.611,13.363 6.611,15.794 L6.614,20.422 L4.282,29.441 L7.958,29.441 L7.958,37.091 L10.917,37.091 L10.917,29.441 L12.929,29.441 L12.929,37.091 L15.888,37.091 L15.888,29.441 L19.562,29.441 L17.234,20.457 L17.234,15.794 L17.231,15.794 Z M11.92,7.939 C10.591,7.939 9.512,6.89 9.443,5.578 C10.131,5.295 11.04,4.815 11.812,4.068 C12.491,4.632 13.378,5.102 14.389,5.23 C14.395,5.303 14.411,5.374 14.411,5.448 C14.41,6.821 13.293,7.939 11.92,7.939 Z" id="Shape-Copy-9" fill="#4FC5D5" fill-rule="nonzero"></path>
                    <path d="M6.99884595e-13,3.381 C0.00922690081,6.5374743 0.380448271,8.57645155 1.11366411,9.49793175 C3.46915774,12.4582343 7.60304416,12.9361919 7.60304416,12.9361919" id="Line-4-Copy" stroke="#4FC5D5" stroke-width="3" stroke-linecap="square"></path>
                    <path d="M16,3.381 C16.0092269,6.5374743 16.3804483,8.57645155 17.1136641,9.49793175 C19.4691577,12.4582343 23.6030442,12.9361919 23.6030442,12.9361919" id="Line-4-Copy" stroke="#4FC5D5" stroke-width="3" stroke-linecap="square" transform="translate(19.801522, 8.158596) scale(-1, 1) translate(-19.801522, -8.158596) "></path>
                </g>
                <g id="Group-17" transform="translate(0.000000, 2.481757)">
                    <path d="M13.349,10.702 C14.6536027,12.094743 18.0525671,12.094743 17.5852047,11.2443016 C17.1178423,10.3938601 17.37,6.73084234 17.37,5.448 C17.37,5.05572274 17.3283238,4.67299483 17.2491646,4.30401157 C16.7221342,1.8473768 14.5335922,-5.68434189e-14 11.921,-5.68434189e-14 C8.916,-5.68434189e-14 6.472,2.444 6.472,5.448 C6.472,6.3 6.614,10.137186 5.74498655,11.2443016 C5.74498655,11.2443016 8.73195872,12.0697978 8.72695872,12.0187978 C9.43895872,12.9147978 10.1631691,11.2443016 10.493,10.702 C8.262,11.331 6.611,13.363 6.611,15.794 L6.614,20.422 L4.282,29.441 L7.958,29.441 L7.958,37.091 L10.917,37.091 L10.917,29.441 L12.929,29.441 L12.929,37.091 L15.888,37.091 L15.888,29.441 L19.562,29.441 L17.234,20.457 L17.234,15.794 C17.231,13.363 15.581,11.331 13.349,10.702 Z M11.92,9.36298346 C9.451,9.36298346 9.512,6.89 9.443,5.578 C10.131,5.295 11.04,4.815 11.812,4.068 C12.491,4.632 13.378,5.102 14.389,5.23 C14.395,5.303 14.411,5.374 14.411,5.448 C14.41,6.821 14.389,9.36298346 11.92,9.36298346 Z" id="Shape-Copy-10" fill="#EE7552" fill-rule="nonzero"></path>
                    <path d="M17.7912377,14.9207358 C15.9397341,17.0374685 14.0947863,18.7412918 12.2563943,20.0322055 C10.4180023,21.3231193 8.16587088,22.3184652 5.5,23.0182431" id="Line-3" stroke="#FFFFFF" stroke-width="2" stroke-linejoin="round"></path>
                    <path d="M6.99884595e-13,3.381 C0.00922690081,6.5374743 0.380448271,8.57645155 1.11366411,9.49793175 C3.46915774,12.4582343 7.60304416,12.9361919 7.60304416,12.9361919" id="Line-4-Copy-3" stroke="#EE7552" stroke-width="3" stroke-linecap="square"></path>
                    <path d="M16,3.381 C16.0092269,6.5374743 16.3804483,8.57645155 17.1136641,9.49793175 C19.4691577,12.4582343 23.6030442,12.9361919 23.6030442,12.9361919" id="Line-4-Copy-4" stroke="#EE7552" stroke-width="3" stroke-linecap="square" transform="translate(19.801522, 8.158596) scale(-1, 1) translate(-19.801522, -8.158596) "></path>
                </g>
            </g>
        </g>
    </g>
</svg>