<?xml version="1.0" encoding="UTF-8"?>
<svg width="75px" height="56px" viewBox="0 0 75 56" version="1.1" xmlns="http://www.w3.org/2000/svg" xmlns:xlink="http://www.w3.org/1999/xlink">
    <!-- Generator: Sketch 61 (89581) - https://sketch.com -->
    <title>Group</title>
    <desc>Created with Sketch.</desc>
    <g id="Symbols" stroke="none" stroke-width="1" fill="none" fill-rule="evenodd">
        <g id="icon/car" transform="translate(-5.000000, -15.000000)" stroke="#EE7552" stroke-width="2">
            <g id="Group" transform="translate(6.000000, 16.000000)">
                <path d="M10,21.535829 L13.37044,3.04481035 C18.4128646,1.01493678 26.1214609,-5.68434189e-14 36.4962287,-5.68434189e-14 C46.8709966,-5.68434189e-14 54.8135653,1.01493678 60.323935,3.04481035 L63,21.535829" id="Path-13"></path>
                <rect id="Rectangle" stroke-linejoin="round" x="0" y="17" width="10" height="6" rx="1"></rect>
                <rect id="Rectangle-Copy" stroke-linejoin="round" x="63" y="17" width="10" height="6" rx="1"></rect>
                <rect id="Rectangle-Copy-2" stroke-linejoin="round" x="53" y="48" width="10" height="6" rx="1"></rect>
                <rect id="Rectangle-Copy-3" stroke-linejoin="round" x="9" y="48" width="10" height="6" rx="1"></rect>
                <rect id="Rectangle-Copy-4" stroke-linejoin="round" x="21" y="28" width="30" height="12" rx="1"></rect>
                <circle id="Oval" cx="12.5" cy="30.5" r="3.5"></circle>
                <circle id="Oval-Copy" cx="59.5" cy="30.5" r="3.5"></circle>
                <path d="M56,21.5 C56,17.9101491 53.0898509,15 49.5,15 C45.9101491,15 43,17.9101491 43,21.5" id="Oval-Copy-2"></path>
                <path d="M5.70034399,48.0233333 L5.70034399,24.6819988 C10.6605444,22.1777033 20.6799457,20.9255556 35.7585481,20.9255556 C50.8371504,20.9255556 61.0912362,22.1777033 66.5208053,24.6819988 L66.5208053,48.0233333 L5.70034399,48.0233333 Z" id="Path-14"></path>
                <rect id="Rectangle-Copy-5" fill="#FFFFFF" stroke-linejoin="round" x="29.75" y="43" width="12.5" height="6" rx="1"></rect>
            </g>
        </g>
    </g>
</svg>