<?xml version="1.0" encoding="UTF-8"?>
<svg width="14px" height="21px" viewBox="0 0 14 21" version="1.1" xmlns="http://www.w3.org/2000/svg" xmlns:xlink="http://www.w3.org/1999/xlink">
    <!-- Generator: Sketch 63.1 (92452) - https://sketch.com -->
    <title>noun_edit_1047820</title>
    <desc>Created with Sketch.</desc>
    <g id="Mobile" stroke="none" stroke-width="1" fill="none" fill-rule="evenodd">
        <g id="Profile-Edit-Password" transform="translate(-341.000000, -205.000000)" fill="#25204F" fill-rule="nonzero" stroke="#25204F">
            <g id="noun_edit_1047820" transform="translate(342.000000, 205.000000)">
                <path d="M8.44412246,0.766034558 C8.40447879,0.768683363 8.36346947,0.776717589 8.32536226,0.786992241 C8.17293339,0.828090895 8.0389075,0.927262741 7.95510985,1.07341391 L0.347470889,14.3396273 C0.328312327,14.3690345 0.316346361,14.4025392 0.312541418,14.4374298 L-0.0018238288,19.7536954 C-0.00885744465,19.8396782 0.0342069682,19.9220358 0.108833213,19.965319 C0.183459457,20.0086023 0.276330108,20.005087 0.347470889,19.9562864 L4.75557023,17.0222107 C4.78456552,17.0024343 4.80849745,16.9761092 4.82542918,16.9453659 L12.4330681,3.67915251 C12.6006695,3.38685151 12.5008854,3.00324633 12.2095195,2.83385929 L8.79341718,0.849865291 C8.68415421,0.786345314 8.56305345,0.75808812 8.44412246,0.766034558 Z M8.43713657,1.2131318 C8.47676726,1.20191406 8.52185434,1.21023763 8.56288266,1.23408948 L11.9859709,3.22506937 C12.0680251,3.27277219 12.0968419,3.37189432 12.048844,3.45560389 L4.5529793,16.5262122 L0.843469389,14.3745568 L6.85133854,3.88872934 L10.7150057,6.19097048 C10.8230354,6.25270173 10.9606538,6.21516943 11.0223851,6.10713975 C11.0841163,5.99911007 11.046584,5.86149165 10.9385543,5.7997604 L7.07488716,3.49751926 L8.33933404,1.29696253 C8.36333154,1.25510862 8.39750587,1.22434953 8.43713657,1.2131318 Z M0.738680974,14.8286399 L4.21067047,16.8405775 L0.473216988,19.3275559 L0.738680974,14.8286399 Z" id="Shape"></path>
            </g>
        </g>
    </g>
</svg>