<svg xmlns="http://www.w3.org/2000/svg" xmlns:xlink="http://www.w3.org/1999/xlink" width="180" height="190" viewBox="0 0 180 190">
    <defs>
        <path id="a" d="M14.17 80.423c-18.235-18.33-18.235-48.059 0-66.235 18.08-18.33 47.653-18.33 65.886 0 18.234 18.33 18.234 48.059 0 66.235-18.233 18.33-47.806 18.33-65.887 0z"/>
    </defs>
    <g fill="none" fill-rule="evenodd">
        <g fill="#25204F" fill-rule="nonzero" transform="translate(.047 40.212)">
            <ellipse cx="14.053" cy="91.664" rx="1" ry="1"/>
            <path d="M14.053 90.35a1.31 1.31 0 0 0-1.306 1.314 1.31 1.31 0 0 0 1.306 1.315 1.31 1.31 0 0 0 1.306-1.315 1.31 1.31 0 0 0-1.306-1.315zm0 2.086a.767.767 0 0 1-.708-.477.776.776 0 0 1 .166-.841c.22-.221.55-.287.836-.168.286.12.473.402.473.714a.77.77 0 0 1-.767.772z"/>
            <ellipse cx="70.018" cy="26.965" rx="1" ry="1"/>
            <path d="M70.018 25.65a1.31 1.31 0 0 0-1.306 1.315 1.31 1.31 0 0 0 1.306 1.315 1.31 1.31 0 0 0 1.305-1.315 1.31 1.31 0 0 0-1.305-1.315zm0 2.087a.767.767 0 0 1-.709-.477.776.776 0 0 1 .166-.841c.22-.221.55-.287.836-.168.287.12.474.401.474.714a.77.77 0 0 1-.767.772z"/>
            <path d="M171.77 26.046a13.306 13.306 0 0 0 5.409-8.682l1.865-11.145a2.086 2.086 0 0 0-1.7-2.4L155.23.062a2.074 2.074 0 0 0-2.384 1.712l-1.866 11.145a13.446 13.446 0 0 0 4.913 12.773l-9.431 56.037c-8.06 1.614-14.28 8.093-15.608 16.259l-1.555 9.684h-4.373c-1.14 0-2.633-.105-2.633 1.043v21.915h-6.218v-21.915c0-1.148-.642-1.043-1.803-1.043H114v-26.86c-.281-12.476-10.407-22.44-22.8-22.437-1.39.015-2.777.148-4.145.397l-6.011-29.908c.058-.352.093-.708.103-1.064.01-.49-.025-.979-.103-1.461h.207a6.816 6.816 0 0 0 6.218-3.945 13.88 13.88 0 0 0 1.016-6.01 6.274 6.274 0 0 0-2.985-5.865 6.188 6.188 0 0 0-6.384 1.44 13.769 13.769 0 0 0-3.959 4.612 6.856 6.856 0 0 0-.414 1.169 8.065 8.065 0 0 0-1.058-.564l-2.072-5.447a3.841 3.841 0 0 0 .518-3.59 3.801 3.801 0 0 0-2.92-2.562 3.78 3.78 0 0 0-3.631 1.354 3.84 3.84 0 0 0-.559 3.859 3.76 3.76 0 0 0 2.695 2.358l1.223 3.319a8.03 8.03 0 0 0-5.037 2.859l-8.436 10.435c-3.143 3.452-3.028 8.783.26 12.094a8.642 8.642 0 0 0 12.01.262l.622-.522 4.913 25.233A22.554 22.554 0 0 0 68.4 80.81v26.86h-1.803c-1.14 0-2.343-.104-2.343 1.044v21.915h-6.218v-21.915c0-1.002 0-1.815-2.073-2.087v-4.424a27.443 27.443 0 0 0-7.672-19.638A27.063 27.063 0 0 0 29.02 74.28h-.477C13.286 74.279 0 86.655 0 102.204v12.981c.416 2.756 2.688 4.844 5.451 5.01h.767v18.783a2.08 2.08 0 0 0 2.073 2.087h3.379v.125c0 4.686 3.772 8.484 8.425 8.484 4.654 0 8.426-3.798 8.426-8.484v-.125h5.99v.125c0 4.686 3.773 8.484 8.426 8.484 4.654 0 8.426-3.798 8.426-8.484v-.125h4.601a2.08 2.08 0 0 0 2.073-2.087v-4.174h6.218v4.174a2.327 2.327 0 0 0 2.343 2.087h3.378v.125c0 4.686 3.773 8.484 8.426 8.484 4.653 0 8.426-3.798 8.426-8.484v-.125h5.99v.125c0 4.686 3.772 8.484 8.426 8.484 4.653 0 8.425-3.798 8.425-8.484v-.125h4.685a1.84 1.84 0 0 0 1.31-.668c.326-.395.474-.91.41-1.42v-4.173h6.218v4.174c0 1.148 1.472 2.087 2.633 2.087h3.378v.125c0 4.686 3.773 8.484 8.426 8.484 4.654 0 8.426-3.798 8.426-8.484v-.125h5.949v.125c0 4.686 3.772 8.484 8.426 8.484 4.653 0 8.425-3.798 8.425-8.484v-.125h4.685c1.14 0 1.513-.94 1.513-2.087v-30.263c0-1.148-.373-1.043-1.513-1.043h-4.581l.456-3.256a19.872 19.872 0 0 0-3.254-14.61 19.45 19.45 0 0 0-6.343-5.823l9.431-56.12a13.483 13.483 0 0 0 3.42-1.817zM4.145 115.186v-12.982c.055-13.29 10.68-24.081 23.878-24.252 13.179.182 23.773 10.98 23.795 24.252v5.468H20.728v-2.338c-.296-3.35-3.046-5.939-6.385-6.01h-.269c-3.183.12-5.72 2.72-5.783 5.927v9.934c0 .188 0 .835-.166.835H5.451c-.186 0-1.305-.647-1.305-.835zm8.456-8.558v-1.377a1.518 1.518 0 0 1 1.493-1.503h.27c.87 0 1.574.71 1.574 1.586v1.294h-3.337zm7.483 38.882c-2.358 0-4.27-1.925-4.27-4.299 0-2.375 1.912-4.3 4.27-4.3 2.358 0 4.27 1.925 4.27 4.3 0 2.374-1.912 4.3-4.27 4.3zm22.8 0c-2.358 0-4.27-1.925-4.27-4.299 0-2.375 1.912-4.3 4.27-4.3 2.358 0 4.27 1.925 4.27 4.3 0 2.374-1.912 4.3-4.27 4.3zm11.007-8.62h-3.794a8.282 8.282 0 0 0-7.254-4.306 8.282 8.282 0 0 0-7.255 4.307H27.3a8.282 8.282 0 0 0-7.255-4.307 8.282 8.282 0 0 0-7.255 4.307h-2.425v-17.824a4.349 4.349 0 0 0 2.073-3.882v-3.34h41.455v25.046zM78.765 18.388a8.622 8.622 0 0 1 4.684-4.174h.124c.705.48.954 4.174 0 6.26a2.645 2.645 0 0 1-3.523 1.274 2.68 2.68 0 0 1-1.265-3.548l-.02.188zm-13.701 20.62l-.166.146a4.517 4.517 0 0 1-6.195-.211 4.594 4.594 0 0 1-.21-6.238l.145-.167 8.499-10.435a3.867 3.867 0 0 1 2.84-1.461h.206a3.863 3.863 0 0 1 2.757 1.148l2.881 2.9a3.96 3.96 0 0 1-.31 5.845l-10.447 8.473zm7.482 41.742a18.376 18.376 0 0 1 4.54-12.001c.161-.226.293-.471.394-.73a2.101 2.101 0 0 0 0-.439c.01-.125.01-.25 0-.376v-.146l-5.597-28.363 5.7-4.654 5.597 27.716a1.975 1.975 0 0 0 0 .188c.058.155.135.302.228.438l.186.23c.107.11.225.208.353.292l.248.146c.146.066.3.115.456.146h.829a21.292 21.292 0 0 1 5.721-.647c10.104-.004 18.374 8.093 18.655 18.262v26.86H99.492v-8.974c0-5.187-4.176-9.391-9.327-9.391-5.152 0-9.328 4.204-9.328 9.391v8.975h-8.29V80.749zm12.437 26.923v-8.975c0-2.881 2.32-5.217 5.182-5.217 2.862 0 5.182 2.336 5.182 5.217v8.975H84.983zm-6.591 37.838c-2.359 0-4.27-1.925-4.27-4.299 0-2.375 1.911-4.3 4.27-4.3 2.358 0 4.27 1.925 4.27 4.3 0 2.374-1.912 4.3-4.27 4.3zm22.8 0c-2.358 0-4.27-1.925-4.27-4.299 0-2.375 1.912-4.3 4.27-4.3 2.358 0 4.27 1.925 4.27 4.3 0 2.374-1.912 4.3-4.27 4.3zm10.737-8.62h-3.524a8.282 8.282 0 0 0-7.255-4.306 8.282 8.282 0 0 0-7.254 4.307h-8.291a8.282 8.282 0 0 0-7.255-4.307 8.282 8.282 0 0 0-7.255 4.307h-2.694v-25.045h43.528v25.045zm43.113-123.283l1.534-9.078 18.033 2.963-1.534 9.183a9.212 9.212 0 0 1-3.71 6.011 6.198 6.198 0 0 1-3.317 1.503c-1.165.1-2.337.1-3.503 0-4.986-.861-8.34-5.62-7.503-10.644v.062zm-18.24 131.903a4.268 4.268 0 0 1-4.03-2.56 4.322 4.322 0 0 1 .835-4.725 4.249 4.249 0 0 1 4.66-1.003 4.3 4.3 0 0 1 2.68 3.968c.013 2.335-1.828 4.252-4.145 4.32zm22.8 0a4.268 4.268 0 0 1-4.03-2.56 4.322 4.322 0 0 1 .835-4.725 4.249 4.249 0 0 1 4.66-1.003 4.3 4.3 0 0 1 2.68 3.968c.013 2.335-1.827 4.252-4.145 4.32zm10.364-8.62h-3.254a8.282 8.282 0 0 0-7.255-4.306 8.282 8.282 0 0 0-7.255 4.307h-8.29a8.282 8.282 0 0 0-7.255-4.307 8.282 8.282 0 0 0-7.255 4.307h-2.964v-25.045h43.528v25.045zm-8.084-44.934a16.348 16.348 0 0 1 2.55 11.771l-.58 3.945h-30.346l1.43-8.996c1.397-8.21 9.068-13.78 17.246-12.522a14.492 14.492 0 0 1 9.7 5.802zm-9.016-10.247a19.046 19.046 0 0 0-2.073-.23l9.016-53.7c.675.244 1.368.432 2.073.563.72.122 1.447.185 2.176.188l-9.057 53.68a19.289 19.289 0 0 0-2.135-.501z"/>
            <path d="M162.898 22.102a6.906 6.906 0 0 0 5.195-1.192 6.998 6.998 0 0 0 2.826-4.548l.809-4.842a2.098 2.098 0 0 0-.354-1.613 2.07 2.07 0 0 0-1.408-.85l-9.556-1.565a2.074 2.074 0 0 0-2.383 1.712l-.809 4.842c-.637 3.803 1.904 7.407 5.68 8.056zm-1.223-10.227l5.534.94-.477 2.775a2.82 2.82 0 0 1-1.787 2.178 2.79 2.79 0 0 1-2.767-.47 2.836 2.836 0 0 1-.98-2.647l.477-2.776zM27.526 100.137a9.56 9.56 0 0 0 2.384.314 8.561 8.561 0 0 0 4.912-1.524 8.903 8.903 0 0 0 3.731-6.407 11.057 11.057 0 0 0-1.907-7.493 15.378 15.378 0 0 0-6.57-5.26 8.386 8.386 0 0 0-8.146.251 8.52 8.52 0 0 0-3.275 7.555 15.561 15.561 0 0 0 2.508 8.077 10.924 10.924 0 0 0 6.363 4.487zm-3.275-16.696a2.825 2.825 0 0 1 1.617-.438 6.925 6.925 0 0 1 2.59.605 11.227 11.227 0 0 1 4.706 3.757 6.86 6.86 0 0 1 1.223 4.654 4.598 4.598 0 0 1-1.968 3.465 4.534 4.534 0 0 1-3.919.605 6.822 6.822 0 0 1-3.834-2.818 11.366 11.366 0 0 1-1.866-5.802 4.672 4.672 0 0 1 1.451-4.028z"/>
        </g>
        <path fill="#C3EFF5" d="M44.83 94.859c-18.187-18.284-18.187-47.937 0-66.067 18.035-18.284 47.532-18.284 65.719 0 18.187 18.284 18.187 47.937 0 66.067-18.187 18.283-47.684 18.283-65.719 0z"/>
        <path fill="#4FC5D5" fill-rule="nonzero" d="M159.3 133.624l-34.067-34.247c18.707-23.85 17.186-58.709-4.714-80.725-23.725-23.85-62.202-23.85-85.775 0-23.725 23.698-23.725 62.379 0 86.23 21.9 22.015 56.575 23.544 80.3 4.739l34.066 34.247c2.738 2.752 7.3 2.752 10.19 0 2.89-2.752 2.89-7.339 0-10.244zM44.933 94.638c-18.098-18.194-18.098-47.701 0-65.742 17.946-18.194 47.298-18.194 65.396 0s18.098 47.7 0 65.742c-18.098 18.193-47.45 18.193-65.396 0z"/>
        <g transform="translate(30.19 15.08)">
            <mask id="b" fill="#fff">
                <use xlink:href="#a"/>
            </mask>
            <use fill="#FFF" xlink:href="#a"/>
            <path fill="#25204F" fill-rule="nonzero" d="M217.712 42.598a22.294 22.294 0 0 0 9.099-14.554l3.137-18.681a3.497 3.497 0 0 0-2.858-4.023L189.894-.957a3.487 3.487 0 0 0-4.01 2.868l-3.137 18.682a22.5 22.5 0 0 0 8.262 21.41l-15.861 93.932c-13.555 2.706-24.016 13.566-26.25 27.253l-2.615 16.232h-7.355c-1.918 0-4.428-.174-4.428 1.75v36.733h-10.458V181.17c0-1.924-1.08-1.75-3.033-1.75h-.453v-45.024c-.473-20.911-17.504-37.613-38.346-37.608a41.69 41.69 0 0 0-6.972.665L65.128 47.32c.098-.59.157-1.187.175-1.785.015-.82-.043-1.64-.175-2.448h.349a11.466 11.466 0 0 0 10.458-6.612A23.198 23.198 0 0 0 77.643 26.4a10.506 10.506 0 0 0-5.02-9.83 10.431 10.431 0 0 0-10.737 2.414 23.101 23.101 0 0 0-6.658 7.731c-.291.63-.525 1.286-.697 1.96a13.58 13.58 0 0 0-1.778-.945l-3.486-9.131a6.42 6.42 0 0 0 .871-6.018 6.387 6.387 0 0 0-4.91-4.294 6.367 6.367 0 0 0-6.108 2.27 6.42 6.42 0 0 0-.939 6.467 6.317 6.317 0 0 0 4.532 3.954l2.057 5.562a13.514 13.514 0 0 0-8.471 4.793L22.11 48.825c-5.286 5.785-5.093 14.722.437 20.272 5.53 5.55 14.435 5.743 20.2.439l1.046-.875 8.262 42.296a37.727 37.727 0 0 0-8.193 23.439v45.024h-3.032c-1.918 0-3.94-.174-3.94 1.75v36.733H26.433V181.17c0-1.68 0-3.044-3.486-3.499v-7.416a45.917 45.917 0 0 0-12.903-32.917 45.59 45.59 0 0 0-32.415-13.892h-.802c-25.657 0-48.003 20.746-48.003 46.809v21.76c.7 4.619 4.521 8.119 9.168 8.396h1.29v31.486a3.492 3.492 0 0 0 3.486 3.498h5.683v.21c0 7.854 6.344 14.22 14.17 14.22 7.827 0 14.171-6.366 14.171-14.22v-.21h10.075v.21c0 7.854 6.344 14.22 14.17 14.22 7.827 0 14.171-6.366 14.171-14.22v-.21h7.74a3.492 3.492 0 0 0 3.485-3.498V224.9h10.458v6.997a3.91 3.91 0 0 0 3.94 3.498h5.682v.21c0 7.854 6.344 14.22 14.17 14.22 7.827 0 14.171-6.366 14.171-14.22v-.21H84.93v.21c0 7.854 6.344 14.22 14.17 14.22 7.827 0 14.171-6.366 14.171-14.22v-.21h7.879a3.099 3.099 0 0 0 2.203-1.12 3.121 3.121 0 0 0 .69-2.378V224.9H134.5v6.997c0 1.924 2.476 3.498 4.428 3.498h5.682v.21c0 7.854 6.344 14.22 14.17 14.22 7.827 0 14.171-6.366 14.171-14.22v-.21h10.005v.21c0 7.854 6.345 14.22 14.171 14.22s14.17-6.366 14.17-14.22v-.21h7.88c1.917 0 2.544-1.574 2.544-3.498V181.17c0-1.924-.627-1.75-2.545-1.75h-7.704l.767-5.457a33.223 33.223 0 0 0-5.473-24.489 32.672 32.672 0 0 0-10.667-9.76L211.96 45.64a22.702 22.702 0 0 0 5.752-3.043zM-64.204 192.015v-21.76c.093-22.277 17.963-40.366 40.16-40.652 22.164.306 39.983 18.406 40.02 40.652v9.165h-52.291v-3.918c-.497-5.614-5.122-9.955-10.737-10.075h-.454c-5.353.203-9.619 4.56-9.726 9.935v16.653c0 .315 0 1.4-.279 1.4h-4.497c-.313 0-2.196-1.085-2.196-1.4zm14.223-14.344v-2.309a2.55 2.55 0 0 1 2.51-2.519h.453c1.464 0 2.65 1.19 2.65 2.66v2.168h-5.613zm12.585 65.176c-3.966 0-7.181-3.227-7.181-7.207s3.215-7.207 7.18-7.207c3.967 0 7.182 3.227 7.182 7.207s-3.215 7.207-7.181 7.207zm38.346 0c-3.966 0-7.181-3.227-7.181-7.207s3.215-7.207 7.181-7.207 7.182 3.227 7.182 7.207-3.216 7.207-7.182 7.207zm18.511-14.449h-6.38a13.936 13.936 0 0 0-12.2-7.219 13.936 13.936 0 0 0-12.202 7.22h-13.944a13.936 13.936 0 0 0-12.2-7.22 13.936 13.936 0 0 0-12.202 7.22h-4.079v-29.877a7.283 7.283 0 0 0 3.486-6.507v-5.598h69.721v41.981zm41.833-198.64a14.484 14.484 0 0 1 7.878-6.996h.21c1.184.804 1.603 6.997 0 10.495a4.455 4.455 0 0 1-5.927 2.134 4.485 4.485 0 0 1-2.127-5.947l-.034.315zM38.25 64.324l-.279.245a7.615 7.615 0 0 1-10.418-.355 7.681 7.681 0 0 1-.354-10.455l.244-.28 14.293-17.492a6.512 6.512 0 0 1 4.776-2.45h.348a6.507 6.507 0 0 1 4.637 1.925l4.845 4.863a6.625 6.625 0 0 1-.522 9.795L38.25 64.323zm12.585 69.968a30.743 30.743 0 0 1 7.634-20.116c.271-.378.494-.79.662-1.224a3.51 3.51 0 0 0 0-.735 3.51 3.51 0 0 0 0-.63v-.245L49.72 63.798l9.587-7.801 9.412 46.459a3.3 3.3 0 0 0 0 .314c.098.26.227.506.383.735l.314.385c.18.185.378.349.593.49l.418.245c.245.11.503.193.767.244h1.394a35.924 35.924 0 0 1 9.622-1.084c16.993-.007 30.902 13.564 31.374 30.611v45.024h-17.43v-15.043c0-8.694-7.023-15.743-15.687-15.743s-15.687 7.049-15.687 15.743v15.043H50.836v-45.129zm20.916 45.13v-15.044c0-4.83 3.902-8.746 8.715-8.746s8.715 3.916 8.715 8.746v15.043h-17.43zm-11.086 63.426c-3.966 0-7.181-3.227-7.181-7.207s3.215-7.207 7.181-7.207 7.181 3.227 7.181 7.207-3.215 7.207-7.18 7.207zm38.347 0c-3.967 0-7.182-3.227-7.182-7.207s3.215-7.207 7.182-7.207c3.966 0 7.18 3.227 7.18 7.207s-3.214 7.207-7.18 7.207zm18.057-14.449h-5.926a13.936 13.936 0 0 0-12.201-7.219 13.936 13.936 0 0 0-12.201 7.22H72.798a13.936 13.936 0 0 0-12.202-7.22 13.936 13.936 0 0 0-12.2 7.22h-4.533v-41.982h73.207v41.981zm72.51-206.65l2.58-15.219 30.328 4.968-2.58 15.393a15.435 15.435 0 0 1-6.24 10.075 10.44 10.44 0 0 1-5.577 2.52c-1.96.168-3.931.168-5.892 0-8.385-1.444-14.028-9.422-12.62-17.843v.105zm-30.677 221.099a7.18 7.18 0 0 1-6.779-4.293 7.226 7.226 0 0 1 1.405-7.919 7.163 7.163 0 0 1 7.838-1.68 7.207 7.207 0 0 1 4.508 6.65c.02 3.913-3.075 7.128-6.972 7.242zm38.346 0a7.18 7.18 0 0 1-6.778-4.293 7.226 7.226 0 0 1 1.405-7.919 7.163 7.163 0 0 1 7.838-1.68 7.207 7.207 0 0 1 4.507 6.65c.02 3.913-3.074 7.128-6.972 7.242zm17.43-14.449h-5.473a13.936 13.936 0 0 0-12.2-7.219 13.936 13.936 0 0 0-12.202 7.22H170.86a13.936 13.936 0 0 0-12.201-7.22 13.936 13.936 0 0 0-12.201 7.22h-4.985v-41.982h73.206v41.981zm-13.595-75.32a27.33 27.33 0 0 1 4.288 19.73l-.976 6.612H153.36l2.405-15.078c2.35-13.761 15.25-23.098 29.004-20.99a24.387 24.387 0 0 1 16.315 9.725zM185.92 135.9a32.136 32.136 0 0 0-3.487-.385l15.165-90.014c1.134.41 2.3.725 3.486.945 1.21.205 2.434.31 3.66.315L189.51 136.74a32.532 32.532 0 0 0-3.59-.84z" mask="url(#b)"/>
        </g>
        <g fill="#25204F" fill-rule="nonzero" transform="translate(73.511 56.296)">
            <ellipse cx="2.965" cy="2.528" rx="1" ry="1"/>
            <path d="M2.965.37C1.698.37.67 1.336.67 2.528s1.027 2.157 2.294 2.157c1.266 0 2.293-.965 2.293-2.157C5.258 1.336 4.23.37 2.965.37zm0 3.425c-.545 0-1.036-.309-1.245-.782a1.213 1.213 0 0 1 .292-1.381 1.41 1.41 0 0 1 1.468-.275c.503.196.831.658.831 1.17 0 .7-.603 1.268-1.346 1.268z"/>
        </g>
    </g>
</svg>
