<svg xmlns="http://www.w3.org/2000/svg" width="18" height="24" viewBox="0 0 18 24">
    <g fill="#4FC5D5">
        <path d="M13.536 7.648c.104-.237.156-.527.156-.844V6.7l-.414-1.794 2.044-.632v1.793c0 .264.207.475.466.475.26 0 .466-.211.466-.475V4.009l.259-.08c.078-.026.155-.052.207-.131.362-.37.362-.95 0-1.293-.052-.052-.13-.105-.207-.131L9.188.158c-.362-.158-.647-.105-.906 0L.932 2.374c-.078.026-.156.052-.207.131-.363.37-.363.95 0 1.293.051.053.13.105.207.132l3.235.975L3.753 6.7v.105c0 .317.052.607.155.844C1.475 9.31.026 12.053.026 15.033c0 1.899.595 3.64 1.579 5.09 0 .026.026.026.026.053 1.578 2.268 4.167 3.745 7.091 3.745 4.814 0 8.723-3.983 8.723-8.888 0-2.98-1.45-5.723-3.909-7.385zm2.9 6.41c-.285-.291-.596-.528-.958-.528-.285 0-.544.237-1.087.79l-.207.212c-.078-.053-.182-.132-.285-.237.103-.422.155-.87.103-1.32-.026-.448-.207-.764-.491-.922-.207-.106-.415-.106-.544-.106-.285 0-.543-.026-.802-.079h-.052c.026-.053.052-.158.13-.264l1.656-2.373c1.397 1.213 2.303 2.927 2.536 4.826zM8.566 1.054c.155-.053.181-.053.31 0l5.255 1.609h-4.97c-.258 0-.466.21-.466.474s.208.475.466.475h5.022L8.878 5.222c-.052.026-.13.053-.31 0l-6.86-2.057 6.86-2.11zm-.31 5.116V7.28c0 .264.207.475.465.475.26 0 .466-.211.466-.475V6.171l3.158-.975.388 1.688c0 .342-.13.632-.543.817L8.722 8.967 5.228 7.701c-.388-.132-.517-.343-.543-.817l.388-1.688 3.183.975zm-7.248 7.965c.44-.21.932-.343 1.424-.395.285-.053.647-.053.725-.053h.026c-.026.053-.104.132-.156.185l-.052.052c-.647.765-.983 2.005-.388 2.849.026.052.078.079.104.131.052.053.103.132.103.159.078.105.078.21.026.316-.077.106-.181.211-.285.317-.232.237-.517.527-.75.923-.544-1.082-.854-2.295-.854-3.587.026-.29.052-.58.077-.897zm1.45 5.539c.052-.528.44-.897.776-1.266.181-.185.337-.343.466-.528.363-.58.052-1.213-.233-1.556-.026-.026-.052-.052-.077-.105-.311-.422-.078-1.213.336-1.662l.026-.053c.155-.184.414-.5.388-.896-.026-.37-.31-.712-.673-.844-.31-.106-.906-.027-1.164 0-.363.053-.725.132-1.088.264.492-1.873 1.631-3.534 3.262-4.616l.026-.026c.129.079.258.158.414.21l2.847 1.03c-.492.316-.7.5-1.036.738-.284.237-.647.554-.776 1.002-.233.765.207 1.45.57 2.004l.025.053c.052.106.13.211.233.317.13.184.466.659.44.79-.181.212-.336.238-.983.027-.363-.105-.829.053-1.165.422-.337.37-.44.844-.285 1.24.207.554.906.896 1.993.976.078 0 .233.184.233.369 0 .132-.155.29-.388.5-.259.238-.544.502-.673.898-.052.184 0 .369.13.5.75.713 1.785.29 2.717-.052.647-.237 1.113-.422 1.346-.316-.052.474-.207.949-.466 1.37l-.078.106c-.155.211-.336.475-.388.818-.078.501.155 1.029.595 1.371.026.027.078.053.104.08-.362.052-.75.105-1.139.105-2.64 0-4.918-1.292-6.315-3.27zm9.162 2.69c-.854 0-1.061-.185-1.268-.343-.155-.132-.259-.317-.233-.475.026-.105.13-.263.233-.422l.103-.132c.415-.606.648-1.345.648-2.083 0-.106-.026-.185-.078-.264-.57-.923-1.682-.5-2.562-.158-.44.185-.932.37-1.295.37.026-.027.078-.08.13-.106.31-.29.725-.66.699-1.266-.026-.58-.466-1.24-1.113-1.293-.984-.079-1.19-.316-1.19-.369 0-.132.232-.343.31-.37.57.186 1.371.45 1.993-.316.543-.659-.026-1.476-.389-2.004-.077-.105-.129-.185-.207-.29l-.051-.053c-.285-.422-.57-.844-.466-1.187.051-.21.259-.395.44-.527.491-.396 1.113-.818 2.717-1.635l2.537-.923c.13-.053.259-.132.362-.211.104.052.181.132.285.184l-1.708 2.427c-.414.606-.44 1.186-.078 1.53.181.184.414.237.544.263.31.08.647.106 1.009.106h.078c0 .026.025.079.025.131.026.422-.025.844-.155 1.24-.052.158-.026.343.078.448 0 0 .673.792 1.242.792.104 0 .207-.027.285-.08.13-.079.259-.21.518-.448.129-.132.362-.343.491-.475.104.08.26.238.363.343.18.185.362.37.57.501-.156 3.27-2.097 5.96-4.867 7.095z"/>
        <path d="M15.788 7.015c-.259 0-.466.211-.466.475s.207.475.466.475c.26 0 .466-.211.466-.475.026-.264-.207-.475-.466-.475z"/>
    </g>
</svg>
