<?xml version="1.0" encoding="UTF-8"?>
<svg width="23px" height="20px" viewBox="0 0 23 20" version="1.1" xmlns="http://www.w3.org/2000/svg" xmlns:xlink="http://www.w3.org/1999/xlink">
    <!-- Generator: Sketch 63.1 (92452) - https://sketch.com -->
    <title>Shape Copy 2</title>
    <desc>Created with Sketch.</desc>
    <g id="Mobile" stroke="none" stroke-width="1" fill="none" fill-rule="evenodd">
        <g id="Results---User-not-signed" transform="translate(-176.000000, -614.000000)" fill="#C8C7D3" fill-rule="nonzero">
            <g id="Navbar" transform="translate(0.000000, 601.000000)">
                <g id="Group-50">
                    <path d="M187.161962,14.8889316 C187.247483,14.973939 187.388314,14.973999 187.473894,14.8889316 L187.541949,14.8212846 C189.984925,12.3929597 193.942935,12.3930662 196.385153,14.8206378 L196.606368,15.0405265 C199.314065,17.7319852 199.314372,22.0880777 196.609115,24.777111 L189.055378,32.2855488 C188.097721,33.2374627 186.539519,33.2388378 185.580479,32.2855488 L178.026741,24.777111 C175.323506,22.0900868 175.324418,17.7293746 178.029489,15.0405265 L178.250704,14.8206378 C180.692711,12.3932757 184.651698,12.3937215 187.093907,14.8212846 L187.161962,14.8889316 Z M179.830326,16.3907869 L179.609111,16.6106756 C177.776294,18.4325005 177.775676,21.3872533 179.606363,23.2069619 L187.160101,30.7153997 C187.246112,30.8008946 187.389872,30.8007678 187.475756,30.7153997 L195.029493,23.2069619 C196.862299,21.3851473 196.862091,18.4350141 195.026746,16.6106756 L194.805531,16.3907869 C193.235695,14.8303657 190.692126,14.8302972 189.121571,16.3914337 L189.053516,16.4590807 C188.095231,17.411619 186.539959,17.4109562 185.58234,16.4590807 L185.514285,16.3914337 C183.944397,14.8309604 181.399851,14.8306738 179.830326,16.3907869 Z" id="Shape-Copy-2"></path>
                </g>
            </g>
        </g>
    </g>
</svg>