<svg xmlns="http://www.w3.org/2000/svg" xmlns:xlink="http://www.w3.org/1999/xlink" width="1443" height="723" viewBox="0 0 1443 723">
    <defs>
        <path id="699zcos00a" d="M720.407 723c249.361 0 490.865-32.825 720.22-94.288 3-.804 2.926-210.374-.22-628.712H.407c-.562 419.03-.542 628.626.061 628.787C229.74 690.202 471.148 723 720.408 723z"/>
        <path id="epax6rty3c" d="M24.263 15.637H96.95c4.419 0 8 3.581 8 8 0 2.121-.842 4.156-2.343 5.657L29.92 101.98c-3.124 3.124-8.19 3.124-11.314 0-1.5-1.5-2.343-3.535-2.343-5.657V23.637c0-4.419 3.582-8 8-8z"/>
        <path id="f635o7mz4d" d="M10.224.286c2.175 0 3.938 1.763 3.938 3.938 0 1.044-.414 2.045-1.151 2.783L7.447 12.58c-1.536 1.538-4.028 1.54-5.566.004-.74-.738-1.155-1.74-1.155-2.785v-.014C.726 4.54 4.978.286 10.224.286z"/>
        <path id="d57jk3yoof" d="M9.498.32c2.175 0 3.938 1.764 3.938 3.939 0 1.043-.414 2.044-1.151 2.782L6.72 12.613c-1.536 1.538-4.028 1.54-5.566.004C.415 11.88 0 10.877 0 9.832V9.82C0 4.573 4.252.32 9.498.32z"/>
        <path id="ifix5k2c7g" d="M10.479.66c2.175 0 3.938 1.763 3.938 3.938 0 1.044-.414 2.045-1.151 2.783l-5.564 5.572c-1.536 1.538-4.028 1.54-5.566.004-.74-.738-1.155-1.74-1.155-2.785v-.014C.98 4.913 5.233.66 10.479.66z"/>
        <path id="dwb42b059i" d="M9.633.493c2.175 0 3.938 1.763 3.938 3.938 0 1.043-.414 2.044-1.152 2.783l-5.563 5.571c-1.536 1.539-4.028 1.54-5.567.004C.55 12.051.135 11.05.135 10.004v-.013C.135 4.745 4.387.493 9.633.493z"/>
        <path id="64akmkxvqj" d="M10.361.637C12.536.637 14.3 2.4 14.3 4.575c0 1.044-.415 2.045-1.152 2.783L7.584 12.93c-1.536 1.538-4.028 1.54-5.566.004-.74-.738-1.155-1.74-1.155-2.785v-.014C.863 4.89 5.116.637 10.361.637z"/>
        <path id="927e8bbm3k" d="M10.479.66c2.175 0 3.938 1.763 3.938 3.938 0 1.044-.414 2.045-1.151 2.783l-5.564 5.572c-1.536 1.538-4.028 1.54-5.566.004-.74-.738-1.155-1.74-1.155-2.785v-.014C.98 4.913 5.233.66 10.479.66z"/>
        <path id="443se7mpmm" d="M9.889.277c2.175 0 3.938 1.763 3.938 3.938 0 1.044-.414 2.045-1.152 2.783L7.112 12.57c-1.536 1.538-4.028 1.54-5.567.004-.739-.739-1.154-1.74-1.154-2.785v-.014C.39 4.53 4.643.277 9.889.277z"/>
        <path id="nrl3pzw8qn" d="M9.498.32c2.175 0 3.938 1.764 3.938 3.939 0 1.043-.414 2.044-1.151 2.782L6.72 12.613c-1.536 1.538-4.028 1.54-5.566.004C.415 11.88 0 10.877 0 9.832V9.82C0 4.573 4.252.32 9.498.32z"/>
        <path id="lkx7bpfb1p" d="M10.322.681c2.175 0 3.938 1.764 3.938 3.939 0 1.043-.414 2.044-1.152 2.782l-5.563 5.572c-1.536 1.538-4.028 1.54-5.567.004-.739-.738-1.154-1.74-1.154-2.785v-.013C.824 4.934 5.076.68 10.322.68z"/>
        <path id="qk2deemwzq" d="M368.839 44.578c39.62 0 71.739 32.119 71.739 71.739 0 179.084-145.177 324.26-324.261 324.26-39.62 0-71.74-32.118-71.74-71.738 0-39.225 31.48-71.096 70.554-71.73l1.186-.01c98.845 0 179.162-79.328 180.758-177.792l.025-2.99c0-39.62 32.118-71.74 71.739-71.74z"/>
        <path id="dj6fp3c60t" d="M5 0h98.512c2.762 0 5 2.239 5 5 0 1.327-.527 2.599-1.465 3.536L8.535 106.998c-1.953 1.953-5.12 1.952-7.071-.001-.938-.938-1.464-2.21-1.464-3.535V5c0-2.761 2.239-5 5-5z"/>
        <path id="5oa4ew9lqu" d="M9.498 0c2.175 0 3.938 1.763 3.938 3.938 0 1.044-.414 2.045-1.151 2.783L6.72 12.293c-1.536 1.538-4.028 1.54-5.566.004C.415 11.558 0 10.557 0 9.512v-.014C0 4.252 4.252 0 9.498 0z"/>
        <path id="neasd1iztw" d="M9.498 0c2.175 0 3.938 1.763 3.938 3.938 0 1.044-.414 2.045-1.151 2.783L6.72 12.293c-1.536 1.538-4.028 1.54-5.566.004C.415 11.558 0 10.557 0 9.512v-.014C0 4.252 4.252 0 9.498 0z"/>
        <path id="bzmhvvb4yy" d="M9.498 0c2.175 0 3.938 1.763 3.938 3.938 0 1.044-.414 2.045-1.151 2.783L6.72 12.293c-1.536 1.538-4.028 1.54-5.566.004C.415 11.558 0 10.557 0 9.512v-.014C0 4.252 4.252 0 9.498 0z"/>
        <path id="9lmvwjyr9A" d="M9.498 0c2.175 0 3.938 1.763 3.938 3.938 0 1.044-.414 2.045-1.151 2.783L6.72 12.293c-1.536 1.538-4.028 1.54-5.566.004C.415 11.558 0 10.557 0 9.512v-.014C0 4.252 4.252 0 9.498 0z"/>
        <path id="fkw5hcc82C" d="M9.498 0c2.175 0 3.938 1.763 3.938 3.938 0 1.044-.414 2.045-1.151 2.783L6.72 12.293c-1.536 1.538-4.028 1.54-5.566.004C.415 11.558 0 10.557 0 9.512v-.014C0 4.252 4.252 0 9.498 0z"/>
        <path id="fa76yz1qlE" d="M9.498 0c2.175 0 3.938 1.763 3.938 3.938 0 1.044-.414 2.045-1.151 2.783L6.72 12.293c-1.536 1.538-4.028 1.54-5.566.004C.415 11.558 0 10.557 0 9.512v-.014C0 4.252 4.252 0 9.498 0z"/>
        <path id="il3336556G" d="M9.498 0c2.175 0 3.938 1.763 3.938 3.938 0 1.044-.414 2.045-1.151 2.783L6.72 12.293c-1.536 1.538-4.028 1.54-5.566.004C.415 11.558 0 10.557 0 9.512v-.014C0 4.252 4.252 0 9.498 0z"/>
        <path id="mxtg4181eI" d="M9.498 0c2.175 0 3.938 1.763 3.938 3.938 0 1.044-.414 2.045-1.151 2.783L6.72 12.293c-1.536 1.538-4.028 1.54-5.566.004C.415 11.558 0 10.557 0 9.512v-.014C0 4.252 4.252 0 9.498 0z"/>
        <path id="9gx6hrmd2K" d="M9.498 0c2.175 0 3.938 1.763 3.938 3.938 0 1.044-.414 2.045-1.151 2.783L6.72 12.293c-1.536 1.538-4.028 1.54-5.566.004C.415 11.558 0 10.557 0 9.512v-.014C0 4.252 4.252 0 9.498 0z"/>
        <rect id="zfg8c434ar" width="162.493" height="356.632" x=".142" y=".858" rx="81.246"/>
        <rect id="6lrb31nnnM" width="152.529" height="434" x=".499" y=".513" rx="8"/>
        <rect id="qq604gd38O" width="152.529" height="434" x=".499" y=".513" rx="76.264"/>
    </defs>
    <g fill="none" fill-rule="evenodd">
        <mask id="7s46usuxab" fill="#fff">
            <use xlink:href="#699zcos00a"/>
        </mask>
        <use fill="#FBF8F3" xlink:href="#699zcos00a"/>
        <g mask="url(#7s46usuxab)">
            <g>
                <g transform="translate(857 228) rotate(53 168.602 480.077)">
                    <use fill="#4FC3D4" transform="rotate(23 66.263 65.637)" xlink:href="#epax6rty3c"/>
                </g>
                <g transform="translate(857 228) scale(1 -1) rotate(57 369.756 458.276)">
                    <mask id="ftlxpd72te" fill="#fff">
                        <use xlink:href="#f635o7mz4d"/>
                    </mask>
                    <use fill="#E8E8E8" xlink:href="#f635o7mz4d"/>
                    <g fill="#F3D239" mask="url(#ftlxpd72te)">
                        <path d="M0 0H18.996V19.023H0z" transform="translate(.726 .286)"/>
                    </g>
                </g>
                <g transform="translate(857 228) scale(1 -1) rotate(-30 -359.968 -1083.815)">
                    <use fill="#EE7552" xlink:href="#d57jk3yoof"/>
                </g>
                <g transform="translate(857 228) scale(1 -1) rotate(-30 15.45 -1054.535)">
                    <mask id="dhzi6j940h" fill="#fff">
                        <use xlink:href="#ifix5k2c7g"/>
                    </mask>
                    <use fill="#E8E8E8" xlink:href="#ifix5k2c7g"/>
                    <g fill="#4FC5D5" mask="url(#dhzi6j940h)">
                        <path d="M0.981 0.66H19.977V19.683H0.981z"/>
                    </g>
                </g>
                <g transform="translate(857 228) scale(-1 1) rotate(-45 26.175 449.79)">
                    <use fill="#25204F" xlink:href="#dwb42b059i"/>
                </g>
                <g transform="translate(857 228) scale(1 -1) rotate(57 473.288 340.837)">
                    <use fill="#25204F" xlink:href="#64akmkxvqj"/>
                </g>
                <g transform="translate(857 228) scale(1 -1) rotate(-30 -96.074 -1097.555)">
                    <mask id="uwfc7ahq0l" fill="#fff">
                        <use xlink:href="#927e8bbm3k"/>
                    </mask>
                    <use fill="#E8E8E8" xlink:href="#927e8bbm3k"/>
                    <g fill="#EE7552" mask="url(#uwfc7ahq0l)">
                        <path d="M0 0H18.996V19.023H0z" transform="translate(.98 .66)"/>
                    </g>
                </g>
                <g transform="translate(857 228) scale(1 -1) rotate(-30 1.127 -675.778)">
                    <use fill="#4FC5D5" xlink:href="#443se7mpmm"/>
                </g>
                <g transform="translate(857 228) scale(1 -1) rotate(-30 151.572 -702.1)">
                    <mask id="bbtspmvqko" fill="#fff">
                        <use xlink:href="#nrl3pzw8qn"/>
                    </mask>
                    <use fill="#E8E8E8" xlink:href="#nrl3pzw8qn"/>
                    <g fill="#A594F0" mask="url(#bbtspmvqko)">
                        <path d="M0 0H18.996V19.023H0z" transform="translate(0 .32)"/>
                    </g>
                </g>
                <g transform="translate(857 228) scale(-1 1) rotate(15 -391.89 -1773.614)">
                    <use fill="#FFAE94" xlink:href="#lkx7bpfb1p"/>
                </g>
                <g transform="translate(857 228) translate(.422 64.422)">
                    <use fill="#A594F0" fill-rule="nonzero" transform="rotate(15 242.578 242.578)" xlink:href="#qk2deemwzq"/>
                </g>
                <g fill="#FFF" transform="translate(857 228) rotate(16 -502.443 1407.868)">
                    <g fill-rule="nonzero">
                        <path d="M3.386 12.788c1.587 0 2.873-1.287 2.873-2.873 0-1.865 1.518-3.381 3.382-3.381 1.865 0 3.383 1.516 3.383 3.38 0 1.587 1.286 2.874 2.873 2.874 1.586 0 2.873-1.287 2.873-2.873 0-5.032-4.095-9.127-9.129-9.127C4.608.788.513 4.883.513 9.915c0 1.586 1.286 2.873 2.873 2.873zM56.129 12.788c1.587 0 2.873-1.287 2.873-2.873 0-1.865 1.518-3.381 3.383-3.381 1.864 0 3.381 1.516 3.381 3.38 0 1.587 1.287 2.874 2.873 2.874 1.587 0 2.874-1.287 2.874-2.873 0-5.032-4.096-9.127-9.128-9.127-5.034 0-9.13 4.095-9.13 9.127 0 1.586 1.287 2.873 2.874 2.873z" transform="rotate(-180 36.087 6.982)"/>
                    </g>
                    <circle cx="34.888" cy="40.393" r="8"/>
                </g>
            </g>
        </g>
        <g mask="url(#7s46usuxab)">
            <g>
                <g>
                    <g transform="rotate(45 -116.173 335.744) rotate(-90 127.176 36.95)">
                        <mask id="9rc05m0uvs" fill="#fff">
                            <use xlink:href="#zfg8c434ar"/>
                        </mask>
                        <use fill="#C1C1C1" xlink:href="#zfg8c434ar"/>
                        <g fill="#F3D239" mask="url(#9rc05m0uvs)">
                            <path d="M0 0H162.493V356.632H0z" transform="translate(.142 .858)"/>
                        </g>
                    </g>
                    <g fill="#FFF" transform="rotate(45 -116.173 335.744) rotate(-90 127.176 36.95) translate(28.042 24.736)">
                        <circle cx="32.449" cy="41.102" r="4.327"/>
                        <circle cx="73.551" cy="41.102" r="4.327"/>
                        <path fill-rule="nonzero" d="M53 69.224c-7.168 0-12.98-5.81-12.98-12.98 0-1.791 1.453-3.244 3.245-3.244 1.687 0 3.073 1.287 3.23 2.932l.015.313c0 3.584 2.906 6.49 6.49 6.49s6.49-2.906 6.49-6.49c0-1.792 1.453-3.245 3.245-3.245s3.245 1.453 3.245 3.245c0 7.168-5.812 12.98-12.98 12.98z"/>
                    </g>
                </g>
                <g transform="rotate(45 -116.173 335.744) rotate(-45 99.931 41.298)">
                    <use fill="#25204F" xlink:href="#dj6fp3c60t"/>
                </g>
            </g>
        </g>
        <g mask="url(#7s46usuxab)">
            <g>
                <g transform="translate(-37 59) scale(1 -1) rotate(57 656.684 -98.64)">
                    <mask id="6tvfhse19v" fill="#fff">
                        <use xlink:href="#5oa4ew9lqu"/>
                    </mask>
                    <use fill="#E8E8E8" xlink:href="#5oa4ew9lqu"/>
                    <g fill="#F3D239" mask="url(#6tvfhse19v)">
                        <path d="M0 0H18.996V19.023H0z"/>
                    </g>
                </g>
                <g>
                    <g transform="translate(-37 59) rotate(-150 160.553 234.512) scale(1 -1) rotate(57 387.427 -14.991)">
                        <mask id="5g0m9f0z5x" fill="#fff">
                            <use xlink:href="#neasd1iztw"/>
                        </mask>
                        <use fill="#E8E8E8" xlink:href="#neasd1iztw"/>
                        <g fill="#F3D239" mask="url(#5g0m9f0z5x)">
                            <path d="M0 0H18.996V19.023H0z"/>
                        </g>
                    </g>
                    <g transform="translate(-37 59) rotate(-150 160.553 234.512) scale(1 -1) rotate(57 284.229 82.124)">
                        <mask id="gkcpplql3z" fill="#fff">
                            <use xlink:href="#bzmhvvb4yy"/>
                        </mask>
                        <use fill="#E8E8E8" xlink:href="#bzmhvvb4yy"/>
                        <g fill="#F3D239" mask="url(#gkcpplql3z)">
                            <path d="M0 0H18.996V19.023H0z"/>
                        </g>
                    </g>
                    <g transform="translate(-37 59) rotate(-150 160.553 234.512) scale(1 -1) rotate(-30 -336.049 -449.487)">
                        <mask id="4ipb8p2l1B" fill="#fff">
                            <use xlink:href="#9lmvwjyr9A"/>
                        </mask>
                        <use fill="#E8E8E8" xlink:href="#9lmvwjyr9A"/>
                        <g fill="#EE7552" mask="url(#4ipb8p2l1B)">
                            <path d="M0 0H18.996V19.023H0z"/>
                        </g>
                    </g>
                    <g transform="translate(-37 59) rotate(-150 160.553 234.512) scale(1 -1) rotate(-30 -272.234 -217.978)">
                        <mask id="nfwoqujfeD" fill="#fff">
                            <use xlink:href="#fkw5hcc82C"/>
                        </mask>
                        <use fill="#E8E8E8" xlink:href="#fkw5hcc82C"/>
                        <g fill="#4FC5D5" mask="url(#nfwoqujfeD)">
                            <path d="M0 0H18.996V19.023H0z"/>
                        </g>
                    </g>
                    <g transform="translate(-37 59) rotate(-150 160.553 234.512) scale(1 -1) rotate(-30 -131.406 -288.244)">
                        <mask id="qnxan53a7F" fill="#fff">
                            <use xlink:href="#fa76yz1qlE"/>
                        </mask>
                        <use fill="#E8E8E8" xlink:href="#fa76yz1qlE"/>
                        <g fill="#A594F0" mask="url(#qnxan53a7F)">
                            <path d="M0 0H18.996V19.023H0z"/>
                        </g>
                    </g>
                    <g transform="translate(-37 59) rotate(-150 160.553 234.512) scale(-1 1) rotate(-45 -18.477 95.01)">
                        <mask id="ty1fdwy5mH" fill="#fff">
                            <use xlink:href="#il3336556G"/>
                        </mask>
                        <use fill="#E8E8E8" xlink:href="#il3336556G"/>
                        <g fill="#25204F" mask="url(#ty1fdwy5mH)">
                            <path d="M0 0H18.996V19.023H0z"/>
                        </g>
                    </g>
                    <g transform="translate(-37 59) rotate(-150 160.553 234.512) scale(-1 1) rotate(15 -681.378 -533.165)">
                        <mask id="6336x50clJ" fill="#fff">
                            <use xlink:href="#mxtg4181eI"/>
                        </mask>
                        <use fill="#E8E8E8" xlink:href="#mxtg4181eI"/>
                        <g fill="#FFAE94" mask="url(#6336x50clJ)">
                            <path d="M0 0H18.996V19.023H0z"/>
                        </g>
                    </g>
                    <g transform="translate(-37 59) rotate(-150 160.553 234.512) scale(-1 1) rotate(15 -1723.334 154.317)">
                        <mask id="u73rlmh1uL" fill="#fff">
                            <use xlink:href="#9gx6hrmd2K"/>
                        </mask>
                        <use fill="#E8E8E8" xlink:href="#9gx6hrmd2K"/>
                        <g fill="#FFAE94" mask="url(#u73rlmh1uL)">
                            <path d="M0 0H18.996V19.023H0z"/>
                        </g>
                    </g>
                </g>
            </g>
        </g>
        <g mask="url(#7s46usuxab)">
            <g>
                <g transform="rotate(-13 2351.267 -530.23)">
                    <mask id="x9eghpvi2N" fill="#fff">
                        <use xlink:href="#6lrb31nnnM"/>
                    </mask>
                    <use fill="#E8E8E8" xlink:href="#6lrb31nnnM"/>
                    <g fill="#4FC5D5" mask="url(#x9eghpvi2N)">
                        <path d="M0 0H152.529V434H0z" transform="translate(.499 .513)"/>
                    </g>
                </g>
                <g fill="#FFF">
                    <g>
                        <path fill-rule="nonzero" d="M2.544 10.776c1.405 0 2.544-1.156 2.544-2.58 0-1.675 1.344-3.036 2.994-3.036 1.651 0 2.994 1.361 2.994 3.036 0 1.424 1.139 2.58 2.543 2.58 1.405 0 2.544-1.156 2.544-2.58C16.163 3.677 12.538 0 8.083 0 3.625 0 0 3.677 0 8.196c0 1.424 1.139 2.58 2.544 2.58z" transform="rotate(-13 2351.267 -530.23) translate(32.37 18.45) translate(35.918 25.143)"/>
                        <path d="M8.082 44.293c4.463 0 8.081-3.618 8.081-8.081 0-4.464-3.618-2.02-8.081-2.02-4.464 0-8.082-2.444-8.082 2.02 0 4.463 3.618 8.081 8.082 8.081z" transform="rotate(-13 2351.267 -530.23) translate(32.37 18.45) translate(35.918 25.143)"/>
                    </g>
                    <path fill-rule="nonzero" d="M20.653 13.47c-9.919 0-17.96 8.04-17.96 17.959 0 9.918 8.041 17.959 17.96 17.959s17.96-8.04 17.96-17.96c0-9.918-8.041-17.959-17.96-17.959zm0 5.387c6.943 0 12.571 5.629 12.571 12.572S27.596 44 20.654 44C13.71 44 8.081 38.372 8.081 31.429s5.628-12.572 12.571-12.572zM67.347 13.47c-9.919 0-17.96 8.04-17.96 17.959 0 9.918 8.041 17.959 17.96 17.959s17.96-8.04 17.96-17.96c0-9.918-8.041-17.959-17.96-17.959zm0 5.387c6.943 0 12.571 5.629 12.571 12.572S74.29 44 67.347 44s-12.571-5.628-12.571-12.571 5.628-12.572 12.57-12.572z" transform="rotate(-13 2351.267 -530.23) translate(32.37 18.45)"/>
                    <path d="M67.347 32.327c2.48 0 4.49 1.581 4.49-.898 0-2.48-2.01-4.49-4.49-4.49-2.48 0-4.49 2.01-4.49 4.49 0 2.48 2.01.898 4.49.898zM20.653 32.327c2.48 0 4.49 1.581 4.49-.898 0-2.48-2.01-4.49-4.49-4.49-2.48 0-4.49 2.01-4.49 4.49 0 2.48 2.01.898 4.49.898z" transform="rotate(-13 2351.267 -530.23) translate(32.37 18.45)"/>
                </g>
            </g>
        </g>
        <g mask="url(#7s46usuxab)">
            <g>
                <g transform="scale(-1 1) rotate(-13 1668.546 5971.221)">
                    <mask id="j1mmrpy19P" fill="#fff">
                        <use xlink:href="#qq604gd38O"/>
                    </mask>
                    <use fill="#E8E8E8" xlink:href="#qq604gd38O"/>
                    <g fill="#FFAE94" mask="url(#j1mmrpy19P)">
                        <path d="M0 0H152.529V434H0z" transform="translate(.499 .513)"/>
                    </g>
                </g>
                <g fill="#FFF">
                    <g>
                        <path fill-rule="nonzero" d="M2.544 10.776c1.405 0 2.544-1.156 2.544-2.58 0-1.675 1.344-3.036 2.994-3.036 1.651 0 2.994 1.361 2.994 3.036 0 1.424 1.139 2.58 2.543 2.58 1.405 0 2.544-1.156 2.544-2.58C16.163 3.677 12.538 0 8.083 0 3.625 0 0 3.677 0 8.196c0 1.424 1.139 2.58 2.544 2.58z" transform="scale(-1 1) rotate(-13 1668.546 5971.221) translate(32.524 39.983) translate(35.918 25.143)"/>
                        <path d="M8.082 44.293c4.463 0 8.081-3.618 8.081-8.081 0-4.464-3.618-2.02-8.081-2.02-4.464 0-8.082-2.444-8.082 2.02 0 4.463 3.618 8.081 8.082 8.081z" transform="scale(-1 1) rotate(-13 1668.546 5971.221) translate(32.524 39.983) translate(35.918 25.143)"/>
                    </g>
                    <path fill-rule="nonzero" d="M20.653 13.47c-9.919 0-17.96 8.04-17.96 17.959 0 9.918 8.041 17.959 17.96 17.959s17.96-8.04 17.96-17.96c0-9.918-8.041-17.959-17.96-17.959zm0 5.387c6.943 0 12.571 5.629 12.571 12.572S27.596 44 20.654 44C13.71 44 8.081 38.372 8.081 31.429s5.628-12.572 12.571-12.572zM67.347 13.47c-9.919 0-17.96 8.04-17.96 17.959 0 9.918 8.041 17.959 17.96 17.959s17.96-8.04 17.96-17.96c0-9.918-8.041-17.959-17.96-17.959zm0 5.387c6.943 0 12.571 5.629 12.571 12.572S74.29 44 67.347 44s-12.571-5.628-12.571-12.571 5.628-12.572 12.57-12.572z" transform="scale(-1 1) rotate(-13 1668.546 5971.221) translate(32.524 39.983)"/>
                    <path d="M67.347 32.327c2.48 0 4.49 1.581 4.49-.898 0-2.48-2.01-4.49-4.49-4.49-2.48 0-4.49 2.01-4.49 4.49 0 2.48 2.01.898 4.49.898zM20.653 32.327c2.48 0 4.49 1.581 4.49-.898 0-2.48-2.01-4.49-4.49-4.49-2.48 0-4.49 2.01-4.49 4.49 0 2.48 2.01.898 4.49.898z" transform="scale(-1 1) rotate(-13 1668.546 5971.221) translate(32.524 39.983)"/>
                </g>
            </g>
        </g>
    </g>
</svg>
