<?xml version="1.0" encoding="UTF-8"?>
<svg width="376px" height="504px" viewBox="0 0 376 504" version="1.1" xmlns="http://www.w3.org/2000/svg" xmlns:xlink="http://www.w3.org/1999/xlink">
    <!-- Generator: Sketch 64 (93537) - https://sketch.com -->
    <title>Untitled</title>
    <desc>Created with Sketch.</desc>
    <defs>
        <rect id="path-1" x="0" y="0" width="376" height="504"></rect>
        <path d="M187.239006,559 C252.049755,559 315.389021,550.24977 375,533.865433 C375,533.865433 375,355.910289 375,0 L0,0 C0,355.923653 0,533.88548 0,533.88548 C59.5892372,550.256907 122.454696,559 187.239006,559 Z" id="path-3"></path>
        <path d="M9.4980695,0 C11.67307,0 13.4362564,1.76318631 13.4362564,3.93818686 C13.4362564,4.98168842 13.02211,5.98253264 12.284768,6.72092426 L6.72092426,12.2926877 C5.18496606,13.8308323 2.69291342,13.8326046 1.15476888,12.2966465 C0.415439421,11.5583679 0,10.5564163 0,9.5115894 L0,9.4980695 C0,4.25243056 4.25243056,0 9.4980695,0 Z" id="path-5"></path>
        <path d="M9.4980695,0 C11.67307,0 13.4362564,1.76318631 13.4362564,3.93818686 C13.4362564,4.98168842 13.02211,5.98253264 12.284768,6.72092426 L6.72092426,12.2926877 C5.18496606,13.8308323 2.69291342,13.8326046 1.15476888,12.2966465 C0.415439421,11.5583679 0,10.5564163 0,9.5115894 L0,9.4980695 C0,4.25243056 4.25243056,0 9.4980695,0 Z" id="path-7"></path>
        <path d="M9.4980695,0 C11.67307,0 13.4362564,1.76318631 13.4362564,3.93818686 C13.4362564,4.98168842 13.02211,5.98253264 12.284768,6.72092426 L6.72092426,12.2926877 C5.18496606,13.8308323 2.69291342,13.8326046 1.15476888,12.2966465 C0.415439421,11.5583679 0,10.5564163 0,9.5115894 L0,9.4980695 C0,4.25243056 4.25243056,0 9.4980695,0 Z" id="path-9"></path>
        <path d="M9.4980695,0 C11.67307,0 13.4362564,1.76318631 13.4362564,3.93818686 C13.4362564,4.98168842 13.02211,5.98253264 12.284768,6.72092426 L6.72092426,12.2926877 C5.18496606,13.8308323 2.69291342,13.8326046 1.15476888,12.2966465 C0.415439421,11.5583679 0,10.5564163 0,9.5115894 L0,9.4980695 C0,4.25243056 4.25243056,0 9.4980695,0 Z" id="path-11"></path>
        <path d="M9.4980695,0 C11.67307,0 13.4362564,1.76318631 13.4362564,3.93818686 C13.4362564,4.98168842 13.02211,5.98253264 12.284768,6.72092426 L6.72092426,12.2926877 C5.18496606,13.8308323 2.69291342,13.8326046 1.15476888,12.2966465 C0.415439421,11.5583679 0,10.5564163 0,9.5115894 L0,9.4980695 C0,4.25243056 4.25243056,0 9.4980695,0 Z" id="path-13"></path>
        <path d="M9.4980695,0 C11.67307,0 13.4362564,1.76318631 13.4362564,3.93818686 C13.4362564,4.98168842 13.02211,5.98253264 12.284768,6.72092426 L6.72092426,12.2926877 C5.18496606,13.8308323 2.69291342,13.8326046 1.15476888,12.2966465 C0.415439421,11.5583679 0,10.5564163 0,9.5115894 L0,9.4980695 C0,4.25243056 4.25243056,0 9.4980695,0 Z" id="path-15"></path>
        <path d="M9.4980695,0 C11.67307,0 13.4362564,1.76318631 13.4362564,3.93818686 C13.4362564,4.98168842 13.02211,5.98253264 12.284768,6.72092426 L6.72092426,12.2926877 C5.18496606,13.8308323 2.69291342,13.8326046 1.15476888,12.2966465 C0.415439421,11.5583679 0,10.5564163 0,9.5115894 L0,9.4980695 C0,4.25243056 4.25243056,0 9.4980695,0 Z" id="path-17"></path>
        <path d="M9.4980695,0 C11.67307,0 13.4362564,1.76318631 13.4362564,3.93818686 C13.4362564,4.98168842 13.02211,5.98253264 12.284768,6.72092426 L6.72092426,12.2926877 C5.18496606,13.8308323 2.69291342,13.8326046 1.15476888,12.2966465 C0.415439421,11.5583679 0,10.5564163 0,9.5115894 L0,9.4980695 C0,4.25243056 4.25243056,0 9.4980695,0 Z" id="path-19"></path>
        <path d="M9.4980695,0 C11.67307,0 13.4362564,1.76318631 13.4362564,3.93818686 C13.4362564,4.98168842 13.02211,5.98253264 12.284768,6.72092426 L6.72092426,12.2926877 C5.18496606,13.8308323 2.69291342,13.8326046 1.15476888,12.2966465 C0.415439421,11.5583679 0,10.5564163 0,9.5115894 L0,9.4980695 C0,4.25243056 4.25243056,0 9.4980695,0 Z" id="path-21"></path>
        <path d="M9.4980695,0 C11.67307,0 13.4362564,1.76318631 13.4362564,3.93818686 C13.4362564,4.98168842 13.02211,5.98253264 12.284768,6.72092426 L6.72092426,12.2926877 C5.18496606,13.8308323 2.69291342,13.8326046 1.15476888,12.2966465 C0.415439421,11.5583679 0,10.5564163 0,9.5115894 L0,9.4980695 C0,4.25243056 4.25243056,0 9.4980695,0 Z" id="path-23"></path>
        <path d="M9.4980695,0 C11.67307,0 13.4362564,1.76318631 13.4362564,3.93818686 C13.4362564,4.98168842 13.02211,5.98253264 12.284768,6.72092426 L6.72092426,12.2926877 C5.18496606,13.8308323 2.69291342,13.8326046 1.15476888,12.2966465 C0.415439421,11.5583679 0,10.5564163 0,9.5115894 L0,9.4980695 C0,4.25243056 4.25243056,0 9.4980695,0 Z" id="path-25"></path>
        <path d="M9.4980695,0 C11.67307,0 13.4362564,1.76318631 13.4362564,3.93818686 C13.4362564,4.98168842 13.02211,5.98253264 12.284768,6.72092426 L6.72092426,12.2926877 C5.18496606,13.8308323 2.69291342,13.8326046 1.15476888,12.2966465 C0.415439421,11.5583679 0,10.5564163 0,9.5115894 L0,9.4980695 C0,4.25243056 4.25243056,0 9.4980695,0 Z" id="path-27"></path>
        <path d="M9.4980695,0 C11.67307,0 13.4362564,1.76318631 13.4362564,3.93818686 C13.4362564,4.98168842 13.02211,5.98253264 12.284768,6.72092426 L6.72092426,12.2926877 C5.18496606,13.8308323 2.69291342,13.8326046 1.15476888,12.2966465 C0.415439421,11.5583679 0,10.5564163 0,9.5115894 L0,9.4980695 C0,4.25243056 4.25243056,0 9.4980695,0 Z" id="path-29"></path>
        <path d="M9.4980695,0 C11.67307,0 13.4362564,1.76318631 13.4362564,3.93818686 C13.4362564,4.98168842 13.02211,5.98253264 12.284768,6.72092426 L6.72092426,12.2926877 C5.18496606,13.8308323 2.69291342,13.8326046 1.15476888,12.2966465 C0.415439421,11.5583679 0,10.5564163 0,9.5115894 L0,9.4980695 C0,4.25243056 4.25243056,0 9.4980695,0 Z" id="path-31"></path>
        <path d="M9.4980695,0 C11.67307,0 13.4362564,1.76318631 13.4362564,3.93818686 C13.4362564,4.98168842 13.02211,5.98253264 12.284768,6.72092426 L6.72092426,12.2926877 C5.18496606,13.8308323 2.69291342,13.8326046 1.15476888,12.2966465 C0.415439421,11.5583679 0,10.5564163 0,9.5115894 L0,9.4980695 C0,4.25243056 4.25243056,0 9.4980695,0 Z" id="path-33"></path>
    </defs>
    <g id="Page-1" stroke="none" stroke-width="1" fill="none" fill-rule="evenodd">
        <g id="Mobile-background">
            <mask id="mask-2" fill="white">
                <use xlink:href="#path-1"></use>
            </mask>
            <g id="Mask"></g>
            <g mask="url(#mask-2)">
                <g transform="translate(1.000000, -55.000000)">
                    <g id="Mask">
                        <path d="M187.239006,559 C252.049755,559 315.389021,550.24977 375,533.865433 C375,533.865433 375,355.910289 375,0 L0,0 C0,355.923653 0,533.88548 0,533.88548 C59.5892372,550.256907 122.454696,559 187.239006,559 Z" id="path-1" fill="#FBF8F3" fill-rule="nonzero"></path>
                    </g>
                    <g id="Shape/triangle-Clipped">
                        <mask id="mask-4" fill="white">
                            <use xlink:href="#path-3"></use>
                        </mask>
                        <g id="path-1"></g>
                        <g id="Shape/triangle" mask="url(#mask-4)">
                            <g transform="translate(-7.000000, 55.000000)" id="Group">
                                <g transform="translate(195.000000, 163.000000) rotate(90.000000) translate(-195.000000, -163.000000) translate(32.500000, -31.500000)">
                                    <g transform="translate(103.959007, 22.155265) scale(-1, 1) rotate(27.000000) translate(-103.959007, -22.155265) translate(96.959007, 15.155265)" id="color_lavanda">
                                        <g>
                                            <g id="Mask" fill="#E8E8E8" fill-rule="nonzero">
                                                <path d="M9.4980695,0 C11.67307,0 13.4362564,1.76318631 13.4362564,3.93818686 C13.4362564,4.98168842 13.02211,5.98253264 12.284768,6.72092426 L6.72092426,12.2926877 C5.18496606,13.8308323 2.69291342,13.8326046 1.15476888,12.2966465 C0.415439421,11.5583679 0,10.5564163 0,9.5115894 L0,9.4980695 C0,4.25243056 4.25243056,0 9.4980695,0 Z" id="path-3"></path>
                                            </g>
                                            <g id="color/yellow-Clipped">
                                                <mask id="mask-6" fill="white">
                                                    <use xlink:href="#path-5"></use>
                                                </mask>
                                                <g id="path-3"></g>
                                                <g id="color/yellow" mask="url(#mask-6)" fill="#F3D239" fill-rule="nonzero">
                                                    <rect id="Yellow" x="0" y="0" width="18.996139" height="19.0231788"></rect>
                                                </g>
                                            </g>
                                        </g>
                                    </g>
                                    <g transform="translate(9.445487, 157.196822) scale(-1, 1) rotate(27.000000) translate(-9.445487, -157.196822) translate(2.445487, 150.196822)" id="color_lavanda">
                                        <g>
                                            <g id="Mask" fill="#E8E8E8" fill-rule="nonzero">
                                                <path d="M9.4980695,0 C11.67307,0 13.4362564,1.76318631 13.4362564,3.93818686 C13.4362564,4.98168842 13.02211,5.98253264 12.284768,6.72092426 L6.72092426,12.2926877 C5.18496606,13.8308323 2.69291342,13.8326046 1.15476888,12.2966465 C0.415439421,11.5583679 0,10.5564163 0,9.5115894 L0,9.4980695 C0,4.25243056 4.25243056,0 9.4980695,0 Z" id="path-5"></path>
                                            </g>
                                            <g id="color/yellow-Clipped">
                                                <mask id="mask-8" fill="white">
                                                    <use xlink:href="#path-7"></use>
                                                </mask>
                                                <g id="path-5"></g>
                                                <g id="color/yellow" mask="url(#mask-8)" fill="#F3D239" fill-rule="nonzero">
                                                    <rect id="Yellow" x="0" y="0" width="18.996139" height="19.0231788"></rect>
                                                </g>
                                            </g>
                                        </g>
                                    </g>
                                    <g transform="translate(32.666841, 130.897060) scale(-1, 1) rotate(-60.000000) translate(-32.666841, -130.897060) translate(25.666841, 123.897060)" id="color_lavanda">
                                        <g>
                                            <g id="Mask" fill="#E8E8E8" fill-rule="nonzero">
                                                <path d="M9.4980695,0 C11.67307,0 13.4362564,1.76318631 13.4362564,3.93818686 C13.4362564,4.98168842 13.02211,5.98253264 12.284768,6.72092426 L6.72092426,12.2926877 C5.18496606,13.8308323 2.69291342,13.8326046 1.15476888,12.2966465 C0.415439421,11.5583679 0,10.5564163 0,9.5115894 L0,9.4980695 C0,4.25243056 4.25243056,0 9.4980695,0 Z" id="path-7"></path>
                                            </g>
                                            <g id="color/clementine-Clipped">
                                                <mask id="mask-10" fill="white">
                                                    <use xlink:href="#path-9"></use>
                                                </mask>
                                                <g id="path-7"></g>
                                                <g id="color/clementine" mask="url(#mask-10)" fill="#EE7552" fill-rule="nonzero">
                                                    <rect id="Clementine" x="0" y="0" width="18.996139" height="19.0231788"></rect>
                                                </g>
                                            </g>
                                        </g>
                                    </g>
                                    <g transform="translate(97.297583, 360.434805) scale(-1, 1) rotate(-60.000000) translate(-97.297583, -360.434805) translate(90.297583, 353.434805)" id="color_lavanda">
                                        <g>
                                            <g id="Mask" fill="#E8E8E8" fill-rule="nonzero">
                                                <path d="M9.4980695,0 C11.67307,0 13.4362564,1.76318631 13.4362564,3.93818686 C13.4362564,4.98168842 13.02211,5.98253264 12.284768,6.72092426 L6.72092426,12.2926877 C5.18496606,13.8308323 2.69291342,13.8326046 1.15476888,12.2966465 C0.415439421,11.5583679 0,10.5564163 0,9.5115894 L0,9.4980695 C0,4.25243056 4.25243056,0 9.4980695,0 Z" id="path-9"></path>
                                            </g>
                                            <g id="color/ocean-Clipped">
                                                <mask id="mask-12" fill="white">
                                                    <use xlink:href="#path-11"></use>
                                                </mask>
                                                <g id="path-9"></g>
                                                <g id="color/ocean" mask="url(#mask-12)" fill="#4FC5D5" fill-rule="nonzero">
                                                    <rect id="Ocean" x="0" y="0" width="18.996139" height="19.0231788"></rect>
                                                </g>
                                            </g>
                                        </g>
                                    </g>
                                    <g transform="translate(16.781484, 264.820571) scale(-1, 1) rotate(-60.000000) translate(-16.781484, -264.820571) translate(9.781484, 257.820571)" id="color_lavanda">
                                        <g>
                                            <g id="Mask" fill="#E8E8E8" fill-rule="nonzero">
                                                <path d="M9.4980695,0 C11.67307,0 13.4362564,1.76318631 13.4362564,3.93818686 C13.4362564,4.98168842 13.02211,5.98253264 12.284768,6.72092426 L6.72092426,12.2926877 C5.18496606,13.8308323 2.69291342,13.8326046 1.15476888,12.2966465 C0.415439421,11.5583679 0,10.5564163 0,9.5115894 L0,9.4980695 C0,4.25243056 4.25243056,0 9.4980695,0 Z" id="path-11"></path>
                                            </g>
                                            <g id="color/lavanda-Clipped">
                                                <mask id="mask-14" fill="white">
                                                    <use xlink:href="#path-13"></use>
                                                </mask>
                                                <g id="path-11"></g>
                                                <g id="color/lavanda" mask="url(#mask-14)" fill="#A594F0" fill-rule="nonzero">
                                                    <rect id="Lavanda" x="0" y="0" width="18.996139" height="19.0231788"></rect>
                                                </g>
                                            </g>
                                        </g>
                                    </g>
                                    <g transform="translate(36.836285, 376.853147) scale(-1, 1) rotate(105.000000) translate(-36.836285, -376.853147) translate(29.836285, 369.853147)" id="color_lavanda">
                                        <g>
                                            <g id="Mask" fill="#E8E8E8" fill-rule="nonzero">
                                                <path d="M9.4980695,0 C11.67307,0 13.4362564,1.76318631 13.4362564,3.93818686 C13.4362564,4.98168842 13.02211,5.98253264 12.284768,6.72092426 L6.72092426,12.2926877 C5.18496606,13.8308323 2.69291342,13.8326046 1.15476888,12.2966465 C0.415439421,11.5583679 0,10.5564163 0,9.5115894 L0,9.4980695 C0,4.25243056 4.25243056,0 9.4980695,0 Z" id="path-13"></path>
                                            </g>
                                            <g id="color/Petrol-Clipped">
                                                <mask id="mask-16" fill="white">
                                                    <use xlink:href="#path-15"></use>
                                                </mask>
                                                <g id="path-13"></g>
                                                <g id="color/Petrol" mask="url(#mask-16)" fill="#25204F" fill-rule="nonzero">
                                                    <rect id="color_petrol" x="0" y="0" width="18.996139" height="19.0231788"></rect>
                                                </g>
                                            </g>
                                        </g>
                                    </g>
                                    <g transform="translate(31.322871, 31.721034) scale(-1, 1) rotate(-32.000000) translate(-31.322871, -31.721034) translate(24.322871, 24.721034)" id="color_lavanda">
                                        <g>
                                            <g id="Mask" fill="#E8E8E8" fill-rule="nonzero">
                                                <path d="M9.4980695,0 C11.67307,0 13.4362564,1.76318631 13.4362564,3.93818686 C13.4362564,4.98168842 13.02211,5.98253264 12.284768,6.72092426 L6.72092426,12.2926877 C5.18496606,13.8308323 2.69291342,13.8326046 1.15476888,12.2966465 C0.415439421,11.5583679 0,10.5564163 0,9.5115894 L0,9.4980695 C0,4.25243056 4.25243056,0 9.4980695,0 Z" id="path-15"></path>
                                            </g>
                                            <g id="color/ocean-Clipped">
                                                <mask id="mask-18" fill="white">
                                                    <use xlink:href="#path-17"></use>
                                                </mask>
                                                <g id="path-15"></g>
                                                <g id="color/ocean" mask="url(#mask-18)" fill="#4FC5D5" fill-rule="nonzero">
                                                    <rect id="Ocean" x="0" y="0" width="18.996139" height="19.0231788"></rect>
                                                </g>
                                            </g>
                                        </g>
                                    </g>
                                    <g transform="translate(31.803973, 198.436682) scale(-1, 1) rotate(165.000000) translate(-31.803973, -198.436682) translate(24.803973, 191.436682)" id="color_lavanda">
                                        <g>
                                            <g id="Mask" fill="#E8E8E8" fill-rule="nonzero">
                                                <path d="M9.4980695,0 C11.67307,0 13.4362564,1.76318631 13.4362564,3.93818686 C13.4362564,4.98168842 13.02211,5.98253264 12.284768,6.72092426 L6.72092426,12.2926877 C5.18496606,13.8308323 2.69291342,13.8326046 1.15476888,12.2966465 C0.415439421,11.5583679 0,10.5564163 0,9.5115894 L0,9.4980695 C0,4.25243056 4.25243056,0 9.4980695,0 Z" id="path-17"></path>
                                            </g>
                                            <g id="color/peach-Clipped">
                                                <mask id="mask-20" fill="white">
                                                    <use xlink:href="#path-19"></use>
                                                </mask>
                                                <g id="path-17"></g>
                                                <g id="color/peach" mask="url(#mask-20)" fill="#FFAE94" fill-rule="nonzero">
                                                    <rect id="Ocean" x="0" y="0" width="18.996139" height="19.0231788"></rect>
                                                </g>
                                            </g>
                                        </g>
                                    </g>
                                    <g transform="translate(301.703541, 15.816327) scale(-1, 1) rotate(165.000000) translate(-301.703541, -15.816327) translate(294.703541, 8.816327)" id="color_lavanda">
                                        <g>
                                            <g id="Mask" fill="#E8E8E8" fill-rule="nonzero">
                                                <path d="M9.4980695,0 C11.67307,0 13.4362564,1.76318631 13.4362564,3.93818686 C13.4362564,4.98168842 13.02211,5.98253264 12.284768,6.72092426 L6.72092426,12.2926877 C5.18496606,13.8308323 2.69291342,13.8326046 1.15476888,12.2966465 C0.415439421,11.5583679 0,10.5564163 0,9.5115894 L0,9.4980695 C0,4.25243056 4.25243056,0 9.4980695,0 Z" id="path-19"></path>
                                            </g>
                                            <g id="color/peach-Clipped">
                                                <mask id="mask-22" fill="white">
                                                    <use xlink:href="#path-21"></use>
                                                </mask>
                                                <g id="path-19"></g>
                                                <g id="color/peach" mask="url(#mask-22)" fill="#FFAE94" fill-rule="nonzero">
                                                    <rect id="Ocean" x="0" y="0" width="18.996139" height="19.0231788"></rect>
                                                </g>
                                            </g>
                                        </g>
                                    </g>
                                    <g transform="translate(79.338610, 78.041054) scale(-1, 1) rotate(45.000000) translate(-79.338610, -78.041054) translate(72.338610, 71.041054)" id="color_lavanda">
                                        <g>
                                            <g id="Mask" fill="#E8E8E8" fill-rule="nonzero">
                                                <path d="M9.4980695,0 C11.67307,0 13.4362564,1.76318631 13.4362564,3.93818686 C13.4362564,4.98168842 13.02211,5.98253264 12.284768,6.72092426 L6.72092426,12.2926877 C5.18496606,13.8308323 2.69291342,13.8326046 1.15476888,12.2966465 C0.415439421,11.5583679 0,10.5564163 0,9.5115894 L0,9.4980695 C0,4.25243056 4.25243056,0 9.4980695,0 Z" id="path-21"></path>
                                            </g>
                                            <g id="color/Petrol-Clipped">
                                                <mask id="mask-24" fill="white">
                                                    <use xlink:href="#path-23"></use>
                                                </mask>
                                                <g id="path-21"></g>
                                                <g id="color/Petrol" mask="url(#mask-24)" fill="#25204F" fill-rule="nonzero">
                                                    <rect id="color_petrol" x="0" y="0" width="18.996139" height="19.0231788"></rect>
                                                </g>
                                            </g>
                                        </g>
                                    </g>
                                    <g transform="translate(79.338610, 78.041054) scale(-1, 1) rotate(45.000000) translate(-79.338610, -78.041054) translate(72.338610, 71.041054)" id="color_lavanda">
                                        <g>
                                            <g id="Mask" fill="#E8E8E8" fill-rule="nonzero">
                                                <path d="M9.4980695,0 C11.67307,0 13.4362564,1.76318631 13.4362564,3.93818686 C13.4362564,4.98168842 13.02211,5.98253264 12.284768,6.72092426 L6.72092426,12.2926877 C5.18496606,13.8308323 2.69291342,13.8326046 1.15476888,12.2966465 C0.415439421,11.5583679 0,10.5564163 0,9.5115894 L0,9.4980695 C0,4.25243056 4.25243056,0 9.4980695,0 Z" id="path-23"></path>
                                            </g>
                                            <g id="color/Petrol-Clipped">
                                                <mask id="mask-26" fill="white">
                                                    <use xlink:href="#path-25"></use>
                                                </mask>
                                                <g id="path-23"></g>
                                                <g id="color/Petrol" mask="url(#mask-26)" fill="#25204F" fill-rule="nonzero">
                                                    <rect id="color_petrol" x="0" y="0" width="18.996139" height="19.0231788"></rect>
                                                </g>
                                            </g>
                                        </g>
                                    </g>
                                    <g transform="translate(225.935073, 379.626162) scale(-1, 1) rotate(105.000000) translate(-225.935073, -379.626162) translate(218.935073, 372.626162)" id="color_lavanda">
                                        <g>
                                            <g id="Mask" fill="#E8E8E8" fill-rule="nonzero">
                                                <path d="M9.4980695,0 C11.67307,0 13.4362564,1.76318631 13.4362564,3.93818686 C13.4362564,4.98168842 13.02211,5.98253264 12.284768,6.72092426 L6.72092426,12.2926877 C5.18496606,13.8308323 2.69291342,13.8326046 1.15476888,12.2966465 C0.415439421,11.5583679 0,10.5564163 0,9.5115894 L0,9.4980695 C0,4.25243056 4.25243056,0 9.4980695,0 Z" id="path-25"></path>
                                            </g>
                                            <g id="color/peach-Clipped">
                                                <mask id="mask-28" fill="white">
                                                    <use xlink:href="#path-27"></use>
                                                </mask>
                                                <g id="path-25"></g>
                                                <g id="color/peach" mask="url(#mask-28)" fill="#FFAE94" fill-rule="nonzero">
                                                    <rect id="Ocean" x="0" y="0" width="18.996139" height="19.0231788"></rect>
                                                </g>
                                            </g>
                                        </g>
                                    </g>
                                    <g transform="translate(207.336415, 9.781358) scale(-1, 1) rotate(-33.000000) translate(-207.336415, -9.781358) translate(200.336415, 2.781358)" id="color_lavanda">
                                        <g>
                                            <g id="Mask" fill="#E8E8E8" fill-rule="nonzero">
                                                <path d="M9.4980695,0 C11.67307,0 13.4362564,1.76318631 13.4362564,3.93818686 C13.4362564,4.98168842 13.02211,5.98253264 12.284768,6.72092426 L6.72092426,12.2926877 C5.18496606,13.8308323 2.69291342,13.8326046 1.15476888,12.2966465 C0.415439421,11.5583679 0,10.5564163 0,9.5115894 L0,9.4980695 C0,4.25243056 4.25243056,0 9.4980695,0 Z" id="path-27"></path>
                                            </g>
                                            <g id="color/lavanda-Clipped">
                                                <mask id="mask-30" fill="white">
                                                    <use xlink:href="#path-29"></use>
                                                </mask>
                                                <g id="path-27"></g>
                                                <g id="color/lavanda" mask="url(#mask-30)" fill="#A594F0" fill-rule="nonzero">
                                                    <rect id="Lavanda" x="0" y="0" width="18.996139" height="19.0231788"></rect>
                                                </g>
                                            </g>
                                        </g>
                                    </g>
                                    <g transform="translate(314.799513, 373.946394) scale(-1, 1) rotate(-120.000000) translate(-314.799513, -373.946394) translate(307.799513, 366.946394)" id="color_lavanda">
                                        <g>
                                            <g id="Mask" fill="#E8E8E8" fill-rule="nonzero">
                                                <path d="M9.4980695,0 C11.67307,0 13.4362564,1.76318631 13.4362564,3.93818686 C13.4362564,4.98168842 13.02211,5.98253264 12.284768,6.72092426 L6.72092426,12.2926877 C5.18496606,13.8308323 2.69291342,13.8326046 1.15476888,12.2966465 C0.415439421,11.5583679 0,10.5564163 0,9.5115894 L0,9.4980695 C0,4.25243056 4.25243056,0 9.4980695,0 Z" id="path-29"></path>
                                            </g>
                                            <g id="color/clementine-Clipped">
                                                <mask id="mask-32" fill="white">
                                                    <use xlink:href="#path-31"></use>
                                                </mask>
                                                <g id="path-29"></g>
                                                <g id="color/clementine" mask="url(#mask-32)" fill="#EE7552" fill-rule="nonzero">
                                                    <rect id="Clementine" x="0" y="0" width="18.996139" height="19.0231788"></rect>
                                                </g>
                                            </g>
                                        </g>
                                    </g>
                                    <g transform="translate(225.935073, 379.626162) scale(-1, 1) rotate(105.000000) translate(-225.935073, -379.626162) translate(218.935073, 372.626162)" id="color_lavanda">
                                        <g>
                                            <g id="Mask" fill="#E8E8E8" fill-rule="nonzero">
                                                <path d="M9.4980695,0 C11.67307,0 13.4362564,1.76318631 13.4362564,3.93818686 C13.4362564,4.98168842 13.02211,5.98253264 12.284768,6.72092426 L6.72092426,12.2926877 C5.18496606,13.8308323 2.69291342,13.8326046 1.15476888,12.2966465 C0.415439421,11.5583679 0,10.5564163 0,9.5115894 L0,9.4980695 C0,4.25243056 4.25243056,0 9.4980695,0 Z" id="path-31"></path>
                                            </g>
                                            <g id="color/peach-Clipped">
                                                <mask id="mask-34" fill="white">
                                                    <use xlink:href="#path-33"></use>
                                                </mask>
                                                <g id="path-31"></g>
                                                <g id="color/peach" mask="url(#mask-34)" fill="#FFAE94" fill-rule="nonzero">
                                                    <rect id="Ocean" x="0" y="0" width="18.996139" height="19.0231788"></rect>
                                                </g>
                                            </g>
                                        </g>
                                    </g>
                                </g>
                            </g>
                        </g>
                    </g>
                </g>
            </g>
        </g>
    </g>
</svg>