<?xml version="1.0" encoding="UTF-8"?>
<svg width="1443px" height="741px" viewBox="0 0 1443 741" version="1.1" xmlns="http://www.w3.org/2000/svg" xmlns:xlink="http://www.w3.org/1999/xlink">
    <title>eb4e5f0</title>
    <defs>
        <path d="M720.407,741 C969.768,741 1211.272,707.358 1440.627,644.365 C1443.627,643.541 1443.553,428.753 1440.407,0 L0.407,0 C-0.155,429.462 -0.135,644.276 0.468,644.442 C229.74,707.385 471.148,741 720.408,741 L720.407,741 Z" id="path-1"></path>
        <path d="M10.45,0.393 C12.626,0.393 14.389,2.157 14.389,4.332 C14.389,5.375 13.975,6.376 13.237,7.114 L7.673,12.686 C6.137,14.224 3.645,14.226 2.107,12.69 C1.367,11.952 0.952,10.95 0.952,9.905 L0.952,9.892 C0.952,4.646 5.205,0.393 10.451,0.393 L10.45,0.393 Z" id="path-3"></path>
        <path d="M10.479,0.34 C12.654,0.34 14.417,2.103 14.417,4.278 C14.417,5.321 14.003,6.322 13.266,7.061 L7.702,12.632 C6.166,14.171 3.674,14.172 2.136,12.636 C1.396,11.898 0.980999648,10.896 0.980999648,9.851 L0.980999648,9.838 C0.98,4.592 5.233,0.34 10.479,0.34 Z" id="path-5"></path>
        <path d="M10.479,0.34 C12.654,0.34 14.417,2.103 14.417,4.278 C14.417,5.321 14.003,6.322 13.266,7.061 L7.702,12.632 C6.166,14.171 3.674,14.172 2.136,12.636 C1.396,11.898 0.980999648,10.896 0.980999648,9.851 L0.980999648,9.838 C0.98,4.592 5.233,0.34 10.479,0.34 Z" id="path-7"></path>
        <path d="M9.498,0 C11.673,0 13.436,1.763 13.436,3.938 C13.436,4.982 13.022,5.983 12.285,6.721 L6.72,12.293 C5.184,13.831 2.692,13.833 1.154,12.297 C0.415,11.558 0,10.557 0,9.512 L0,9.498 C0,4.252 4.252,0 9.498,0 Z" id="path-9"></path>
        <path d="M720.407,741 C969.768,741 1211.272,707.358 1440.627,644.365 C1443.627,643.541 1443.553,428.753 1440.407,0 L0.407,0 C-0.155,429.462 -0.135,644.276 0.468,644.442 C229.74,707.385 471.148,741 720.408,741 L720.407,741 Z" id="path-11"></path>
        <rect id="path-13" x="0" y="0" width="162.493" height="356.632" rx="81.246"></rect>
        <path d="M720.407,741 C969.768,741 1211.272,707.358 1440.627,644.365 C1443.627,643.541 1443.553,428.753 1440.407,0 L0.407,0 C-0.155,429.462 -0.135,644.276 0.468,644.442 C229.74,707.385 471.148,741 720.408,741 L720.407,741 Z" id="path-15"></path>
        <path d="M9.498,0 C11.673,0 13.436,1.763 13.436,3.938 C13.436,4.982 13.022,5.983 12.285,6.721 L6.72,12.293 C5.184,13.831 2.692,13.833 1.154,12.297 C0.415,11.558 0,10.557 0,9.512 L0,9.498 C0,4.252 4.252,0 9.498,0 Z" id="path-17"></path>
        <path d="M9.498,0 C11.673,0 13.436,1.763 13.436,3.938 C13.436,4.982 13.022,5.983 12.285,6.721 L6.72,12.293 C5.184,13.831 2.692,13.833 1.154,12.297 C0.415,11.558 0,10.557 0,9.512 L0,9.498 C0,4.252 4.252,0 9.498,0 Z" id="path-19"></path>
        <path d="M9.498,0 C11.673,0 13.436,1.763 13.436,3.938 C13.436,4.982 13.022,5.983 12.285,6.721 L6.72,12.293 C5.184,13.831 2.692,13.833 1.154,12.297 C0.415,11.558 0,10.557 0,9.512 L0,9.498 C0,4.252 4.252,0 9.498,0 Z" id="path-21"></path>
        <path d="M9.498,0 C11.673,0 13.436,1.763 13.436,3.938 C13.436,4.982 13.022,5.983 12.285,6.721 L6.72,12.293 C5.184,13.831 2.692,13.833 1.154,12.297 C0.415,11.558 0,10.557 0,9.512 L0,9.498 C0,4.252 4.252,0 9.498,0 Z" id="path-23"></path>
        <path d="M9.49803781,0 C11.6730465,0 13.4360535,1.76300702 13.4360535,3.93801567 C13.4360535,4.98201983 13.0220518,5.98302381 12.2850489,6.72102675 L6.72002675,12.2930489 C5.18402063,13.8310551 2.69201072,13.8330551 1.15400459,12.2970489 C0.415001652,11.558046 0,10.557042 0,9.51203786 L0,9.49803781 C0,4.25201692 4.25201692,0 9.49803781,0 Z" id="path-25"></path>
        <path d="M9.49803781,0 C11.6730465,0 13.4360535,1.76300702 13.4360535,3.93801567 C13.4360535,4.98201983 13.0220518,5.98302381 12.2850489,6.72102675 L6.72002675,12.2930489 C5.18402063,13.8310551 2.69201072,13.8330551 1.15400459,12.2970489 C0.415001652,11.558046 0,10.557042 0,9.51203786 L0,9.49803781 C0,4.25201692 4.25201692,0 9.49803781,0 Z" id="path-27"></path>
        <path d="M9.498,0 C11.673,0 13.436,1.763 13.436,3.938 C13.436,4.982 13.022,5.983 12.285,6.721 L6.72,12.293 C5.184,13.831 2.692,13.833 1.154,12.297 C0.415,11.558 0,10.557 0,9.512 L0,9.498 C0,4.252 4.252,0 9.498,0 Z" id="path-29"></path>
        <path d="M9.498,0 C11.673,0 13.436,1.763 13.436,3.938 C13.436,4.982 13.022,5.983 12.285,6.721 L6.72,12.293 C5.184,13.831 2.692,13.833 1.154,12.297 C0.415,11.558 0,10.557 0,9.512 L0,9.498 C0,4.252 4.252,0 9.498,0 Z" id="path-31"></path>
        <path d="M9.498,0 C11.673,0 13.436,1.763 13.436,3.938 C13.436,4.982 13.022,5.983 12.285,6.721 L6.72,12.293 C5.184,13.831 2.692,13.833 1.154,12.297 C0.415,11.558 0,10.557 0,9.512 L0,9.498 C0,4.252 4.252,0 9.498,0 Z" id="path-33"></path>
        <path d="M720.407,741 C969.768,741 1211.272,707.358 1440.627,644.365 C1443.627,643.541 1443.553,428.753 1440.407,0 L0.407,0 C-0.155,429.462 -0.135,644.276 0.468,644.442 C229.74,707.385 471.148,741 720.408,741 L720.407,741 Z" id="path-35"></path>
        <rect id="path-37" x="0" y="0" width="152.529" height="434" rx="8"></rect>
        <path d="M1440.627,644.365 C1443.627,643.541 1443.553,428.753 1440.407,0 L0.407,82 C-0.155,511.462 -0.135,644.276 0.468,644.442 C229.74,707.385 471.148,741 720.408,741 C969.768,741 1211.272,707.358 1440.627,644.365 Z" id="path-39"></path>
        <rect id="path-41" x="0" y="0" width="152.529" height="434" rx="76.264"></rect>
    </defs>
    <g id="Page-1" stroke="none" stroke-width="1" fill="none" fill-rule="evenodd">
        <g id="eb4e5f0">
            <g id="prefix__a-link" fill="#FBF8F3" fill-rule="nonzero">
                <path d="M720.407,741 C969.768,741 1211.272,707.358 1440.627,644.365 C1443.627,643.541 1443.553,428.753 1440.407,0 L0.407,0 C-0.155,429.462 -0.135,644.276 0.468,644.442 C229.74,707.385 471.148,741 720.408,741 L720.407,741 Z" id="prefix__a"></path>
            </g>
            <g id="Group-Clipped">
                <mask id="mask-2" fill="white">
                    <use xlink:href="#path-1"></use>
                </mask>
                <g id="path-1"></g>
                <g id="Group" mask="url(#mask-2)">
                    <g transform="translate(761.000000, 251.000000)">
                        <g transform="translate(442.781388, 137.028069) rotate(53.000000) translate(-442.781388, -137.028069) translate(383.781388, 77.528069)" fill="#4FC5D5" fill-rule="nonzero" id="prefix__c-link">
                            <g transform="translate(59.172602, 59.209742) rotate(23.000000) translate(-59.172602, -59.209742) translate(14.672602, 14.209742)">
                                <path d="M8.236,0.673 L80.922,0.673 C85.34,0.673 88.922,4.255 88.922,8.673 C88.922,10.795 88.079,12.83 86.579,14.33 L13.893,87.016 C10.768,90.14 5.703,90.14 2.579,87.016 C1.079,85.516 0.236,83.481 0.236,81.359 L0.236,8.673 C0.236,4.255 3.818,0.673 8.236,0.673 Z" id="prefix__c"></path>
                            </g>
                        </g>
                        <g transform="translate(551.895684, 86.568350) scale(-1, 1) rotate(-123.000000) translate(-551.895684, -86.568350) translate(544.395684, 79.568350)">
                            <g id="prefix__d-link" fill="#E8E8E8" fill-rule="nonzero">
                                <path d="M10.45,0.393 C12.626,0.393 14.389,2.157 14.389,4.332 C14.389,5.375 13.975,6.376 13.237,7.114 L7.673,12.686 C6.137,14.224 3.645,14.226 2.107,12.69 C1.367,11.952 0.952,10.95 0.952,9.905 L0.952,9.892 C0.952,4.646 5.205,0.393 10.451,0.393 L10.45,0.393 Z" id="prefix__d"></path>
                            </g>
                            <g id="Group-Clipped">
                                <mask id="mask-4" fill="white">
                                    <use xlink:href="#path-3"></use>
                                </mask>
                                <g id="path-3"></g>
                                <g id="Group" mask="url(#mask-4)" fill="#F3D239" fill-rule="nonzero">
                                    <polygon id="Path" points="0.952 0.393 19.948 0.393 19.948 19.416 0.952 19.416"></polygon>
                                </g>
                            </g>
                        </g>
                        <g transform="translate(504.403727, 317.348069) scale(-1, 1) rotate(150.000000) translate(-504.403727, -317.348069) translate(497.403727, 310.348069)" fill="#EE7552" fill-rule="nonzero" id="prefix__f-link">
                            <g>
                                <path d="M9.498,0 C11.673,0 13.436,1.763 13.436,3.938 C13.436,4.982 13.022,5.983 12.285,6.721 L6.72,12.293 C5.184,13.831 2.692,13.833 1.154,12.297 C0.415,11.558 0,10.557 0,9.512 L0,9.498 C0,4.252 4.252,0 9.498,0 Z" id="prefix__f"></path>
                            </g>
                        </g>
                        <g transform="translate(540.492715, 125.966159) scale(-1, 1) rotate(150.000000) translate(-540.492715, -125.966159) translate(532.992715, 118.966159)">
                            <g id="prefix__g-link" fill="#E8E8E8" fill-rule="nonzero">
                                <path d="M10.479,0.34 C12.654,0.34 14.417,2.103 14.417,4.278 C14.417,5.321 14.003,6.322 13.266,7.061 L7.702,12.632 C6.166,14.171 3.674,14.172 2.136,12.636 C1.396,11.898 0.980999648,10.896 0.980999648,9.851 L0.980999648,9.838 C0.98,4.592 5.233,0.34 10.479,0.34 Z" id="prefix__g"></path>
                            </g>
                            <g id="Group-Clipped">
                                <mask id="mask-6" fill="white">
                                    <use xlink:href="#path-5"></use>
                                </mask>
                                <g id="path-5"></g>
                                <g id="Group" mask="url(#mask-6)" fill="#4FC5D5" fill-rule="nonzero">
                                    <polygon id="Path" points="0.981 0.34 19.977 0.34 19.977 19.363 0.981 19.363"></polygon>
                                </g>
                            </g>
                        </g>
                        <g transform="translate(301.483971, 145.754920) scale(-1, 1) rotate(-45.000000) translate(-301.483971, -145.754920) translate(293.983971, 138.254920)" fill="#25204F" fill-rule="nonzero" id="prefix__i-link">
                            <g>
                                <path d="M10.49,0.635 C12.666,0.635 14.429,2.398 14.429,4.573 C14.429,5.617 14.015,6.617 13.277,7.356 L7.713,12.928 C6.178,14.466 3.685,14.468 2.147,12.932 C1.408,12.193 0.993,11.192 0.993,10.146 L0.993,10.133 C0.993,4.887 5.245,0.635 10.49,0.635 Z" id="prefix__i"></path>
                            </g>
                        </g>
                        <g transform="translate(500.399724, 226.183476) scale(-1, 1) rotate(-123.000000) translate(-500.399724, -226.183476) translate(493.399724, 218.683476)" fill="#25204F" fill-rule="nonzero" id="prefix__j-link">
                            <g>
                                <path d="M9.588,0.744 C11.763,0.744 13.526,2.508 13.526,4.683 C13.526,5.726 13.112,6.727 12.375,7.465 L6.81,13.037 C5.274,14.575 2.782,14.577 1.244,13.041 C0.504,12.303 0.089,11.301 0.089,10.256 L0.089,10.243 C0.09,4.997 4.342,0.744 9.588,0.744 Z" id="prefix__j"></path>
                            </g>
                        </g>
                        <g transform="translate(547.061332, 187.491746) scale(-1, 1) rotate(150.000000) translate(-547.061332, -187.491746) translate(539.561332, 180.491746)">
                            <g id="prefix__k-link" fill="#E8E8E8" fill-rule="nonzero">
                                <path d="M10.479,0.34 C12.654,0.34 14.417,2.103 14.417,4.278 C14.417,5.321 14.003,6.322 13.266,7.061 L7.702,12.632 C6.166,14.171 3.674,14.172 2.136,12.636 C1.396,11.898 0.980999648,10.896 0.980999648,9.851 L0.980999648,9.838 C0.98,4.592 5.233,0.34 10.479,0.34 Z" id="prefix__k"></path>
                            </g>
                            <g id="Group-Clipped">
                                <mask id="mask-8" fill="white">
                                    <use xlink:href="#path-7"></use>
                                </mask>
                                <g id="path-7"></g>
                                <g id="Group" mask="url(#mask-8)" fill="#EE7552" fill-rule="nonzero">
                                    <polygon id="Path" points="0.98 0.34 19.976 0.34 19.976 19.363 0.98 19.363"></polygon>
                                </g>
                            </g>
                        </g>
                        <g transform="translate(348.512287, 82.566843) scale(-1, 1) rotate(150.000000) translate(-348.512287, -82.566843) translate(341.512287, 75.066843)" fill="#4FC5D5" fill-rule="nonzero" id="prefix__m-link">
                            <g>
                                <path d="M9.889,0.957 C12.064,0.957 13.827,2.72 13.827,4.895 C13.827,5.938 13.413,6.939 12.675,7.678 L7.112,13.249 C5.576,14.787 3.084,14.789 1.545,13.253 C0.806,12.515 0.390999648,11.513 0.390999648,10.468 L0.390999648,10.455 C0.39,5.209 4.643,0.957 9.889,0.957 Z" id="prefix__m"></path>
                            </g>
                        </g>
                        <g transform="translate(382.079092, 10.437822) scale(-1, 1) rotate(150.000000) translate(-382.079092, -10.437822) translate(375.079092, 3.437822)">
                            <g id="prefix__n-link" fill="#E8E8E8" fill-rule="nonzero">
                                <path d="M9.498,0 C11.673,0 13.436,1.763 13.436,3.938 C13.436,4.982 13.022,5.983 12.285,6.721 L6.72,12.293 C5.184,13.831 2.692,13.833 1.154,12.297 C0.415,11.558 0,10.557 0,9.512 L0,9.498 C0,4.252 4.252,0 9.498,0 Z" id="prefix__n"></path>
                            </g>
                            <g id="Group-Clipped">
                                <mask id="mask-10" fill="white">
                                    <use xlink:href="#path-9"></use>
                                </mask>
                                <g id="path-9"></g>
                                <g id="Group" mask="url(#mask-10)" fill="#A594F0" fill-rule="nonzero">
                                    <polygon id="Path" points="0 0 18.996 0 18.996 19.023 0 19.023"></polygon>
                                </g>
                            </g>
                        </g>
                        <g transform="translate(467.829556, 45.438800) scale(-1, 1) rotate(15.000000) translate(-467.829556, -45.438800) translate(460.829556, 38.438800)" fill="#FFAE94" fill-rule="nonzero" id="prefix__p-link">
                            <g>
                                <path d="M9.498,0 C11.673,0 13.436,1.763 13.436,3.938 C13.436,4.982 13.022,5.983 12.285,6.721 L6.72,12.293 C5.184,13.831 2.692,13.833 1.154,12.297 C0.415,11.558 0,10.557 0,9.512 L0,9.498 C0,4.252 4.252,0 9.498,0 Z" id="prefix__p"></path>
                            </g>
                        </g>
                        <g transform="translate(0.422000, 58.422000)" fill="#A594F0" fill-rule="nonzero" id="prefix__q-link">
                            <g transform="translate(243.522846, 243.482470) rotate(15.000000) translate(-243.522846, -243.482470) translate(45.022846, 44.982470)">
                                <path d="M324.839,0.577 C364.459,0.577 396.578,32.697 396.578,72.317 C396.578,251.401 251.401,396.577 72.317,396.577 C32.697,396.577 0.577,364.459 0.577,324.839 C0.577,285.614 32.057,253.743 71.131,253.109 L72.317,253.099 C171.162,253.099 251.479,173.771 253.075,75.307 L253.1,72.317 C253.1,32.697 285.218,0.577 324.839,0.577 L324.839,0.577 Z" id="prefix__q"></path>
                            </g>
                        </g>
                        <g transform="translate(397.842153, 221.902671) rotate(16.000000) translate(-397.842153, -221.902671) translate(361.842153, 197.902671)" fill="#FFFFFF" fill-rule="nonzero">
                            <g id="Shape">
                                <path d="M3.047,12.402 C4.634,12.402 5.92,11.115 5.92,9.528 C5.92,7.664 7.438,6.148 9.303,6.148 C11.167,6.148 12.685,7.664 12.685,9.528 C12.685,11.115 13.971,12.401 15.558,12.401 C17.145,12.401 18.431,11.115 18.431,9.528 C18.431,4.496 14.336,0.401 9.303,0.401 C4.269,0.402 0.174,4.496 0.174,9.529 C0.174,11.116 1.46,12.402 3.047,12.402 Z M55.79,12.402 C57.377,12.402 58.664,11.115 58.664,9.528 C58.664,7.664 60.182,6.148 62.046,6.148 C63.911,6.148 65.427,7.664 65.427,9.528 C65.427,11.115 66.714,12.401 68.301,12.401 C69.887,12.401 71.174,11.115 71.174,9.528 C71.174,4.496 67.079,0.401 62.046,0.401 C57.012,0.401 52.916,4.496 52.916,9.528 C52.916,11.115 54.203,12.401 55.79,12.401 L55.79,12.402 Z" transform="translate(35.674000, 6.401500) rotate(-180.000000) translate(-35.674000, -6.401500) "></path>
                            </g>
                            <circle id="Oval" cx="34.401" cy="39.618" r="8"></circle>
                        </g>
                    </g>
                </g>
            </g>
            <g id="Group-Clipped">
                <mask id="mask-12" fill="white">
                    <use xlink:href="#path-11"></use>
                </mask>
                <g id="path-11"></g>
                <g id="Group" mask="url(#mask-12)">
                    <g transform="translate(244.000000, 257.000000)">
                        <g transform="translate(7.000000, 6.000000)">
                            <g transform="translate(184.680214, 184.433086) rotate(-45.000000) translate(-184.680214, -184.433086) translate(103.180214, 5.933086)">
                                <g id="prefix__r-link" fill="#C1C1C1" fill-rule="nonzero">
                                    <rect id="prefix__r" x="0" y="0" width="162.493" height="356.632" rx="81.246"></rect>
                                </g>
                                <g id="Group-Clipped">
                                    <mask id="mask-14" fill="white">
                                        <use xlink:href="#path-13"></use>
                                    </mask>
                                    <g id="path-13"></g>
                                    <g id="Group" mask="url(#mask-14)" fill="#F3D239" fill-rule="nonzero">
                                        <polygon id="Path" points="0 0 162.493 0 162.493 356.632 0 356.632"></polygon>
                                    </g>
                                </g>
                            </g>
                            <g transform="translate(112.398345, 112.999744) rotate(-45.000000) translate(-112.398345, -112.999744) translate(87.398345, 95.999744)" fill="#FFFFFF" fill-rule="nonzero">
                                <circle id="Oval" cx="4.449" cy="5.102" r="4.327"></circle>
                                <circle id="Oval" cx="45.551" cy="5.102" r="4.327"></circle>
                                <path d="M25,33.224 C17.832,33.224 12.02,27.414 12.02,20.244 C12.02,18.453 13.473,17 15.265,17 C16.952,17 18.338,18.287 18.495,19.932 L18.51,20.245 C18.51,23.829 21.416,26.735 25,26.735 C28.584,26.735 31.49,23.829 31.49,20.245 C31.49,18.453 32.943,17 34.735,17 C36.527,17 37.98,18.453 37.98,20.245 C37.98,27.413 32.168,33.225 25,33.225 L25,33.224 Z" id="Path"></path>
                            </g>
                        </g>
                        <g transform="translate(0.909572, 0.049990)" fill="#25204F" fill-rule="nonzero" id="prefix__t-link">
                            <g>
                                <path d="M5,0 L103.512,0 C106.274,0 108.512,2.239 108.512,5 C108.512,6.327 107.985,7.599 107.047,8.536 L8.535,106.998 C6.582,108.951 3.415,108.95 1.464,106.997 C0.526,106.059 4.4408921e-16,104.787 4.4408921e-16,103.462 L4.4408921e-16,5 C4.4408921e-16,2.239 2.239,0 5,0 Z" id="prefix__t"></path>
                            </g>
                        </g>
                    </g>
                </g>
            </g>
            <g id="Group-Clipped">
                <mask id="mask-16" fill="white">
                    <use xlink:href="#path-15"></use>
                </mask>
                <g id="path-15"></g>
                <g id="Group" mask="url(#mask-16)">
                    <g transform="translate(161.000000, 181.000000)">
                        <g transform="translate(116.243574, 481.975182) scale(-1, 1) rotate(-123.000000) translate(-116.243574, -481.975182) translate(109.243574, 474.975182)">
                            <g id="prefix__u-link" fill="#E8E8E8" fill-rule="nonzero">
                                <path d="M9.498,0 C11.673,0 13.436,1.763 13.436,3.938 C13.436,4.982 13.022,5.983 12.285,6.721 L6.72,12.293 C5.184,13.831 2.692,13.833 1.154,12.297 C0.415,11.558 0,10.557 0,9.512 L0,9.498 C0,4.252 4.252,0 9.498,0 Z" id="prefix__u"></path>
                            </g>
                            <g id="Group-Clipped">
                                <mask id="mask-18" fill="white">
                                    <use xlink:href="#path-17"></use>
                                </mask>
                                <g id="path-17"></g>
                                <g id="Group" mask="url(#mask-18)" fill="#F3D239" fill-rule="nonzero">
                                    <polygon id="Path" points="0 0 18.996 0 18.996 19.023 0 19.023"></polygon>
                                </g>
                            </g>
                        </g>
                        <g>
                            <g transform="translate(105.258408, 54.067618) scale(-1, 1) rotate(27.000000) translate(-105.258408, -54.067618) translate(98.258408, 47.067618)">
                                <g id="prefix__w-link" fill="#E8E8E8" fill-rule="nonzero">
                                    <path d="M9.498,0 C11.673,0 13.436,1.763 13.436,3.938 C13.436,4.982 13.022,5.983 12.285,6.721 L6.72,12.293 C5.184,13.831 2.692,13.833 1.154,12.297 C0.415,11.558 0,10.557 0,9.512 L0,9.498 C0,4.252 4.252,0 9.498,0 Z" id="prefix__w"></path>
                                </g>
                                <g id="Group-Clipped">
                                    <mask id="mask-20" fill="white">
                                        <use xlink:href="#path-19"></use>
                                    </mask>
                                    <g id="path-19"></g>
                                    <g id="Group" mask="url(#mask-20)" fill="#F3D239" fill-rule="nonzero">
                                        <polygon id="Path" points="0 0 18.996 0 18.996 19.023 0 19.023"></polygon>
                                    </g>
                                </g>
                            </g>
                            <g transform="translate(10.033619, 150.091489) scale(-1, 1) rotate(27.000000) translate(-10.033619, -150.091489) translate(3.033619, 143.091489)">
                                <g id="prefix__y-link" fill="#E8E8E8" fill-rule="nonzero">
                                    <path d="M9.498,0 C11.673,0 13.436,1.763 13.436,3.938 C13.436,4.982 13.022,5.983 12.285,6.721 L6.72,12.293 C5.184,13.831 2.692,13.833 1.154,12.297 C0.415,11.558 0,10.557 0,9.512 L0,9.498 C0,4.252 4.252,0 9.498,0 Z" id="prefix__y"></path>
                                </g>
                                <g id="Group-Clipped">
                                    <mask id="mask-22" fill="white">
                                        <use xlink:href="#path-21"></use>
                                    </mask>
                                    <g id="path-21"></g>
                                    <g id="Group" mask="url(#mask-22)" fill="#F3D239" fill-rule="nonzero">
                                        <polygon id="Path" points="0 0 18.996 0 18.996 19.023 0 19.023"></polygon>
                                    </g>
                                </g>
                            </g>
                            <g transform="translate(33.255163, 123.792289) scale(-1, 1) rotate(-60.000000) translate(-33.255163, -123.792289) translate(26.255163, 116.792289)">
                                <g id="prefix__A-link" fill="#E8E8E8" fill-rule="nonzero">
                                    <path d="M9.498,0 C11.673,0 13.436,1.763 13.436,3.938 C13.436,4.982 13.022,5.983 12.285,6.721 L6.72,12.293 C5.184,13.831 2.692,13.833 1.154,12.297 C0.415,11.558 0,10.557 0,9.512 L0,9.498 C0,4.252 4.252,0 9.498,0 Z" id="prefix__A"></path>
                                </g>
                                <g id="Group-Clipped">
                                    <mask id="mask-24" fill="white">
                                        <use xlink:href="#path-23"></use>
                                    </mask>
                                    <g id="path-23"></g>
                                    <g id="Group" mask="url(#mask-24)" fill="#EE7552" fill-rule="nonzero">
                                        <polygon id="Path" points="0 0 18.996 0 18.996 19.023 0 19.023"></polygon>
                                    </g>
                                </g>
                            </g>
                            <g transform="translate(94.635102, 231.887572) scale(-1, 1) rotate(-59.999868) translate(-94.635102, -231.887572) translate(87.635102, 224.887572)">
                                <g id="prefix__C-link" fill="#E8E8E8" fill-rule="nonzero">
                                    <path d="M9.49803781,0 C11.6730465,0 13.4360535,1.76300702 13.4360535,3.93801567 C13.4360535,4.98201983 13.0220518,5.98302381 12.2850489,6.72102675 L6.72002675,12.2930489 C5.18402063,13.8310551 2.69201072,13.8330551 1.15400459,12.2970489 C0.415001652,11.558046 0,10.557042 0,9.51203786 L0,9.49803781 C0,4.25201692 4.25201692,0 9.49803781,0 Z" id="prefix__C"></path>
                                </g>
                                <g id="Group-Clipped">
                                    <mask id="mask-26" fill="white">
                                        <use xlink:href="#path-25"></use>
                                    </mask>
                                    <g id="path-25"></g>
                                    <g id="Group" mask="url(#mask-26)" fill="#4FC5D5" fill-rule="nonzero">
                                        <polygon id="Path" points="0 0 18.9960756 0 18.9960756 19.0230757 0 19.0230757"></polygon>
                                    </g>
                                </g>
                            </g>
                            <g transform="translate(17.369730, 257.715121) scale(-1, 1) rotate(-59.999868) translate(-17.369730, -257.715121) translate(10.369730, 250.715121)">
                                <g id="prefix__E-link" fill="#E8E8E8" fill-rule="nonzero">
                                    <path d="M9.49803781,0 C11.6730465,0 13.4360535,1.76300702 13.4360535,3.93801567 C13.4360535,4.98201983 13.0220518,5.98302381 12.2850489,6.72102675 L6.72002675,12.2930489 C5.18402063,13.8310551 2.69201072,13.8330551 1.15400459,12.2970489 C0.415001652,11.558046 0,10.557042 0,9.51203786 L0,9.49803781 C0,4.25201692 4.25201692,0 9.49803781,0 Z" id="prefix__E"></path>
                                </g>
                                <g id="Group-Clipped">
                                    <mask id="mask-28" fill="white">
                                        <use xlink:href="#path-27"></use>
                                    </mask>
                                    <g id="path-27"></g>
                                    <g id="Group" mask="url(#mask-28)" fill="#A594F0" fill-rule="nonzero">
                                        <polygon id="Path" points="0 0 18.9960756 0 18.9960756 19.0230757 0 19.0230757"></polygon>
                                    </g>
                                </g>
                            </g>
                            <g transform="translate(37.424658, 369.747869) scale(-1, 1) rotate(105.000000) translate(-37.424658, -369.747869) translate(30.424658, 362.747869)">
                                <g id="prefix__G-link" fill="#E8E8E8" fill-rule="nonzero">
                                    <path d="M9.498,0 C11.673,0 13.436,1.763 13.436,3.938 C13.436,4.982 13.022,5.983 12.285,6.721 L6.72,12.293 C5.184,13.831 2.692,13.833 1.154,12.297 C0.415,11.558 0,10.557 0,9.512 L0,9.498 C0,4.252 4.252,0 9.498,0 Z" id="prefix__G"></path>
                                </g>
                                <g id="Group-Clipped">
                                    <mask id="mask-30" fill="white">
                                        <use xlink:href="#path-29"></use>
                                    </mask>
                                    <g id="path-29"></g>
                                    <g id="Group" mask="url(#mask-30)" fill="#25204F" fill-rule="nonzero">
                                        <polygon id="Path" points="0 0 18.996 0 18.996 19.023 0 19.023"></polygon>
                                    </g>
                                </g>
                            </g>
                            <g transform="translate(32.392261, 191.331541) scale(-1, 1) rotate(165.000000) translate(-32.392261, -191.331541) translate(25.392261, 184.331541)">
                                <g id="prefix__I-link" fill="#E8E8E8" fill-rule="nonzero">
                                    <path d="M9.498,0 C11.673,0 13.436,1.763 13.436,3.938 C13.436,4.982 13.022,5.983 12.285,6.721 L6.72,12.293 C5.184,13.831 2.692,13.833 1.154,12.297 C0.415,11.558 0,10.557 0,9.512 L0,9.498 C0,4.252 4.252,0 9.498,0 Z" id="prefix__I"></path>
                                </g>
                                <g id="Group-Clipped">
                                    <mask id="mask-32" fill="white">
                                        <use xlink:href="#path-31"></use>
                                    </mask>
                                    <g id="path-31"></g>
                                    <g id="Group" mask="url(#mask-32)" fill="#FFAE94" fill-rule="nonzero">
                                        <polygon id="Path" points="0 0 18.996 0 18.996 19.023 0 19.023"></polygon>
                                    </g>
                                </g>
                            </g>
                            <g transform="translate(302.292012, 8.711199) scale(-1, 1) rotate(165.000000) translate(-302.292012, -8.711199) translate(295.292012, 1.711199)">
                                <g id="prefix__K-link" fill="#E8E8E8" fill-rule="nonzero">
                                    <path d="M9.498,0 C11.673,0 13.436,1.763 13.436,3.938 C13.436,4.982 13.022,5.983 12.285,6.721 L6.72,12.293 C5.184,13.831 2.692,13.833 1.154,12.297 C0.415,11.558 0,10.557 0,9.512 L0,9.498 C0,4.252 4.252,0 9.498,0 Z" id="prefix__K"></path>
                                </g>
                                <g id="Group-Clipped">
                                    <mask id="mask-34" fill="white">
                                        <use xlink:href="#path-33"></use>
                                    </mask>
                                    <g id="path-33"></g>
                                    <g id="Group" mask="url(#mask-34)" fill="#FFAE94" fill-rule="nonzero">
                                        <polygon id="Path" points="0 0 18.996 0 18.996 19.023 0 19.023"></polygon>
                                    </g>
                                </g>
                            </g>
                        </g>
                    </g>
                </g>
            </g>
            <g id="Group-Clipped">
                <mask id="mask-36" fill="white">
                    <use xlink:href="#path-35"></use>
                </mask>
                <g id="path-35"></g>
                <g id="Group" mask="url(#mask-36)">
                    <g transform="translate(280.000000, 499.000000)">
                        <g transform="translate(123.493966, 228.947202) rotate(-13.000000) translate(-123.493966, -228.947202) translate(46.993966, 11.947202)">
                            <g id="prefix__M-link" fill="#E8E8E8" fill-rule="nonzero">
                                <rect id="prefix__M" x="0" y="0" width="152.529" height="434" rx="8"></rect>
                            </g>
                            <g id="Group-Clipped">
                                <mask id="mask-38" fill="white">
                                    <use xlink:href="#path-37"></use>
                                </mask>
                                <g id="path-37"></g>
                                <g id="Group" mask="url(#mask-38)" fill="#4FC5D5" fill-rule="nonzero">
                                    <polygon id="Path" points="0 0 152.529 0 152.529 434 0 434"></polygon>
                                </g>
                            </g>
                            <g transform="translate(34.000000, 31.000000)" fill="#FFFFFF" fill-rule="nonzero">
                                <g id="Path" transform="translate(33.000000, 12.000000)">
                                    <path d="M3.333,10.856 C4.738,10.856 5.877,9.7 5.877,8.276 C5.877,6.601 7.221,5.24 8.871,5.24 C10.522,5.24 11.865,6.601 11.865,8.276 C11.865,9.7 13.004,10.856 14.408,10.856 C15.813,10.856 16.952,9.7 16.952,8.276 C16.952,3.757 13.327,0.08 8.872,0.08 C4.414,0.08 0.789,3.757 0.789,8.276 C0.789,9.7 1.928,10.856 3.333,10.856 Z"></path>
                                    <path d="M8.871,44.373 C13.334,44.373 16.952,40.755 16.952,36.292 C16.952,31.828 13.334,34.272 8.871,34.272 C4.407,34.272 0.789,31.828 0.789,36.292 C0.789,40.755 4.407,44.373 8.871,44.373 L8.871,44.373 Z"></path>
                                </g>
                                <path d="M18.524,0.407 C8.605,0.407 0.564,8.447 0.564,18.366 C0.564,28.284 8.605,36.325 18.524,36.325 C28.443,36.325 36.484,28.285 36.484,18.365 C36.484,8.447 28.443,0.406 18.524,0.406 L18.524,0.407 Z M18.524,5.794 C25.467,5.794 31.095,11.423 31.095,18.366 C31.095,25.309 25.467,30.937 18.525,30.937 C11.581,30.937 5.952,25.309 5.952,18.366 C5.952,11.423 11.58,5.794 18.523,5.794 L18.524,5.794 Z M65.218,0.407 C55.299,0.407 47.258,8.447 47.258,18.366 C47.258,28.284 55.299,36.325 65.218,36.325 C75.137,36.325 83.178,28.285 83.178,18.365 C83.178,8.447 75.137,0.406 65.218,0.406 L65.218,0.407 Z M65.218,5.794 C72.161,5.794 77.789,11.423 77.789,18.366 C77.789,25.309 72.161,30.937 65.218,30.937 C58.275,30.937 52.647,25.309 52.647,18.366 C52.647,11.423 58.275,5.794 65.217,5.794 L65.218,5.794 Z" id="Shape"></path>
                                <path d="M65.218,19.264 C67.698,19.264 69.708,20.845 69.708,18.366 C69.708,15.886 67.698,13.876 65.218,13.876 C62.738,13.876 60.728,15.886 60.728,18.366 C60.728,20.846 62.738,19.264 65.218,19.264 L65.218,19.264 Z M18.524,19.264 C21.004,19.264 23.014,20.845 23.014,18.366 C23.014,15.886 21.004,13.876 18.524,13.876 C16.044,13.876 14.034,15.886 14.034,18.366 C14.034,20.846 16.044,19.264 18.524,19.264 L18.524,19.264 Z" id="Shape"></path>
                            </g>
                        </g>
                    </g>
                </g>
            </g>
            <g id="Group-Clipped">
                <mask id="mask-40" fill="white">
                    <use xlink:href="#path-39"></use>
                </mask>
                <g id="path-39"></g>
                <g id="Group" mask="url(#mask-40)">
                    <g transform="translate(958.000000, 512.000000)">
                        <g transform="translate(123.512588, 228.999956) scale(-1, 1) rotate(-13.000000) translate(-123.512588, -228.999956) translate(47.012588, 11.999956)">
                            <g id="prefix__O-link" fill="#E8E8E8" fill-rule="nonzero">
                                <rect id="prefix__O" x="0" y="0" width="152.529" height="434" rx="76.264"></rect>
                            </g>
                            <g id="Group-Clipped">
                                <mask id="mask-42" fill="white">
                                    <use xlink:href="#path-41"></use>
                                </mask>
                                <g id="path-41"></g>
                                <g id="Group" mask="url(#mask-42)" fill="#FFAE94" fill-rule="nonzero">
                                    <polygon id="Path" points="0 0 152.529 0 152.529 434 0 434"></polygon>
                                </g>
                            </g>
                            <g transform="translate(34.000000, 52.000000)" fill="#FFFFFF" fill-rule="nonzero">
                                <g id="Path" transform="translate(33.000000, 12.000000)">
                                    <path d="M3.487,11.389 C4.892,11.389 6.031,10.233 6.031,8.809 C6.031,7.134 7.375,5.773 9.025,5.773 C10.676,5.773 12.019,7.134 12.019,8.809 C12.019,10.233 13.158,11.389 14.562,11.389 C15.967,11.389 17.106,10.233 17.106,8.809 C17.106,4.29 13.481,0.613 9.026,0.613 C4.568,0.613 0.943,4.29 0.943,8.809 C0.943,10.233 2.082,11.389 3.487,11.389 Z"></path>
                                    <path d="M9.025,44.906 C13.488,44.906 17.106,41.288 17.106,36.825 C17.106,32.361 13.488,34.805 9.025,34.805 C4.561,34.805 0.943,32.361 0.943,36.825 C0.943,41.288 4.561,44.906 9.025,44.906 L9.025,44.906 Z"></path>
                                </g>
                                <path d="M18.678,0.94 C8.759,0.94 0.718,8.98 0.718,18.899 C0.718,28.817 8.759,36.858 18.678,36.858 C28.597,36.858 36.638,28.818 36.638,18.898 C36.638,8.98 28.597,0.939 18.678,0.939 L18.678,0.94 Z M18.678,6.327 C25.621,6.327 31.249,11.956 31.249,18.899 C31.249,25.842 25.621,31.47 18.679,31.47 C11.735,31.47 6.106,25.842 6.106,18.899 C6.106,11.956 11.734,6.327 18.677,6.327 L18.678,6.327 Z M65.372,0.94 C55.453,0.94 47.412,8.98 47.412,18.899 C47.412,28.817 55.453,36.858 65.372,36.858 C75.291,36.858 83.332,28.818 83.332,18.898 C83.332,8.98 75.291,0.939 65.372,0.939 L65.372,0.94 Z M65.372,6.327 C72.315,6.327 77.943,11.956 77.943,18.899 C77.943,25.842 72.315,31.47 65.372,31.47 C58.429,31.47 52.801,25.842 52.801,18.899 C52.801,11.956 58.429,6.327 65.371,6.327 L65.372,6.327 Z" id="Shape"></path>
                                <path d="M65.372,19.797 C67.852,19.797 69.862,21.378 69.862,18.899 C69.862,16.419 67.852,14.409 65.372,14.409 C62.892,14.409 60.882,16.419 60.882,18.899 C60.882,21.379 62.892,19.797 65.372,19.797 L65.372,19.797 Z M18.678,19.797 C21.158,19.797 23.168,21.378 23.168,18.899 C23.168,16.419 21.158,14.409 18.678,14.409 C16.198,14.409 14.188,16.419 14.188,18.899 C14.188,21.379 16.198,19.797 18.678,19.797 L18.678,19.797 Z" id="Shape"></path>
                            </g>
                        </g>
                    </g>
                </g>
            </g>
        </g>
    </g>
</svg>