<svg xmlns="http://www.w3.org/2000/svg" width="107" height="107" viewBox="0 0 107 107">
    <g fill="none" fill-rule="evenodd">
        <rect width="107" height="106.955" fill="#94E4EC" rx="53.478"/>
        <g fill="#4FC5D5" fill-rule="nonzero" stroke="#4FC5D5">
            <path d="M32.14 34.2c-.413-.245-.885-.372-1.366-.367-1.051 0-2.036.519-2.628 1.387-.99-.657-1.483-1.845-1.25-3.009 1.544.294 3.064-.608 3.544-2.103.214-.925.137-1.893-.22-2.773-.547-1.423-1.923-2.354-3.448-2.335h0c-2.038.133-3.883 1.252-4.942 2.997-1.583 2.496-1.794 5.623-.56 8.309 1.72 4.144 5.139 5.62 7.764 5.62 1.8.101 3.531-.694 4.626-2.123.692-1.035.8-2.353.288-3.487-.37-.875-1.002-1.613-1.809-2.115zm-3.107 6.2c-2.246 0-4.945-1.289-6.352-4.679-2.198-5.293 1.458-9.194 4.09-9.194.908-.024 1.729.536 2.036 1.39.233.582.284 1.22.148 1.832-.233.61-.827 1.009-1.481.992-.205 0-.407-.042-.594-.123-.11-.05-.23-.076-.352-.076-.255-.003-.495.12-.643.327-.731 1.075-.82 2.462-.234 3.622.408 1.234 1.453 2.15 2.73 2.393.043.007.087.011.13.01.337-.004.637-.217.752-.533.259-.605.853-.997 1.51-1 .2-.004.396.045.569.144.53.335.948.823 1.195 1.4.832 1.987-1.07 3.495-3.501 3.495h-.003z" transform="translate(26 10)"/>
            <path stroke-width="1.2" d="M47.778 58.353c-1.047-.618-2.221-.992-3.434-1.09-.26-.356-.568-.673-.917-.943L52.7 14.695c.83-3.75-1.534-7.465-5.286-8.303L19.41.166c-3.753-.83-7.47 1.532-8.31 5.28L.638 52.395c-.83 3.75 1.535 7.464 5.287 8.303l21.937 4.876c-.04.38-.131.753-.273 1.107-.368.877-1.156 1.603-4.214.339l-.269-.113c-2.15-.9-5.398-2.263-7.852-1.145-1.182.573-2.059 1.628-2.405 2.894-.216.611-.295 1.263-.23 1.908.258 2.604 2.903 4.166 5.698 5.82 1.5.822 2.92 1.783 4.24 2.872 2.936 2.614 9.32 6.524 16.082 6.524 1.924.01 3.833-.331 5.634-1.008 7.591-2.874 11.515-9.874 9.542-17.026-.86-3.098-2.596-7.236-6.038-9.393zM2.85 56.82c-.778-1.213-1.037-2.688-.719-4.093L12.59 5.777c.656-2.925 3.558-4.768 6.488-4.12l28.004 6.225c2.928.655 4.773 3.554 4.125 6.482l-9.171 41.179c-.574-.224-1.177-.365-1.791-.42l8.986-40.342c.262-1.173.046-2.403-.6-3.417-.646-1.014-1.669-1.73-2.843-1.992l-6.382-1.419h0L25.745 4.916h0l-6.128-1.362c-2.445-.54-4.867.998-5.414 3.439L4.11 52.309c-.544 2.443.998 4.864 3.443 5.408l20.153 4.479c.099.707.169 1.323.197 1.822l-21.645-4.81c-1.409-.31-2.635-1.17-3.406-2.388zm33.928-1.083c-1.124-5.29-1.809-9.122-1.983-11.117-.103-1.144-.805-2.147-1.845-2.635-1.258-.607-2.74-.523-3.92.222-4.071 2.536-2.703 11.186-1.705 17.503l.138.87-19.58-4.35c-.78-.173-1.457-.648-1.885-1.32-.429-.673-.572-1.488-.398-2.266l10.093-45.32c.362-1.619 1.969-2.64 3.59-2.28l5.438 1.213c-.213 2.683 1.586 5.113 4.217 5.695l4.583 1.019h0c.39.087.788.13 1.187.131 2.249-.005 4.26-1.4 5.05-3.503l5.694 1.266c.78.173 1.457.648 1.886 1.321.428.673.57 1.488.397 2.266L38.67 55.168c-.428.06-.85.162-1.258.305-.216.076-.427.164-.632.264h0zM30.962 7.64l7.293 1.621c-.752 1.689-2.59 2.615-4.397 2.213h0l-4.583-1.02c-1.807-.402-3.08-2.02-3.042-3.87l4.73 1.056zm12.769 75.705c-7.921 3.009-16.649-2.105-20.157-5.229-1.391-1.156-2.891-2.177-4.478-3.046-2.455-1.45-4.774-2.824-4.958-4.672-.039-.43.017-.862.162-1.268.218-.859.797-1.58 1.588-1.98 1.84-.84 4.722.367 6.628 1.167l.273.113c3.239 1.34 5.329.95 6.209-1.153.369-.983.52-2.035.443-3.082-.119-1.584-.321-3.16-.605-4.722-.88-5.563-2.21-13.966 1.003-15.97.73-.465 1.648-.523 2.43-.152.562.255.946.79 1.009 1.403.241 2.757 1.346 8.226 2.23 12.327.458 2.149.812 3.677.812 3.677.095.411.506.667.917.573.411-.095.668-.505.573-.916 0 0-.296-1.282-.697-3.13.252-.149.52-.272.798-.366 1.366-.49 2.876-.375 4.151.316.495.273.91.669 1.205 1.15.283.492.417 1.055.386 1.621-.017.422.31.776.732.793h.032c.41 0 .747-.323.764-.732.014-.384-.02-.769-.099-1.145.682.137 1.334.393 1.927.756 2.984 1.869 4.548 5.642 5.334 8.477 1.755 6.357-1.786 12.604-8.612 15.189v.001z" transform="translate(26 10)"/>
        </g>
    </g>
</svg>
