<?xml version="1.0" encoding="UTF-8"?>
<svg width="303px" height="637px" viewBox="0 0 303 637" version="1.1" xmlns="http://www.w3.org/2000/svg" xmlns:xlink="http://www.w3.org/1999/xlink">
    <!-- Generator: Sketch 61 (89581) - https://sketch.com -->
    <title>Group 20</title>
    <desc>Created with Sketch.</desc>
    <defs>
        <rect id="path-1" x="0" y="0" width="97" height="97" rx="8"></rect>
        <rect id="path-3" x="0" y="0" width="97" height="138" rx="8"></rect>
        <rect id="path-5" x="0" y="0" width="97" height="253" rx="8"></rect>
        <rect id="path-7" x="0" y="0" width="97" height="213" rx="48.5"></rect>
        <rect id="path-9" x="0" y="0" width="97" height="244" rx="48.5"></rect>
        <rect id="path-11" x="0" y="0" width="97" height="97" rx="48.5"></rect>
        <path d="M8,0 L89.7573593,0 C91.4142136,-3.04359188e-16 92.7573593,1.34314575 92.7573593,3 C92.7573593,3.79564947 92.4412888,4.55871121 91.8786797,5.12132034 L5.12132034,91.8786797 C3.94974747,93.0502525 2.05025253,93.0502525 0.878679656,91.8786797 C0.316070521,91.3160705 9.74389576e-17,90.5530088 0,89.7573593 L0,8 C-5.41083001e-16,3.581722 3.581722,8.11624501e-16 8,0 Z" id="path-13"></path>
        <path d="M8,0 L89.7573593,0 C91.4142136,-3.04359188e-16 92.7573593,1.34314575 92.7573593,3 C92.7573593,3.79564947 92.4412888,4.55871121 91.8786797,5.12132034 L5.12132034,91.8786797 C3.94974747,93.0502525 2.05025253,93.0502525 0.878679656,91.8786797 C0.316070521,91.3160705 9.74389576e-17,90.5530088 0,89.7573593 L0,8 C-5.41083001e-16,3.581722 3.581722,8.11624501e-16 8,0 Z" id="path-15"></path>
    </defs>
    <g id="MVP-desktop" stroke="none" stroke-width="1" fill="none" fill-rule="evenodd">
        <g id="Landingpage" transform="translate(-876.000000, -171.000000)">
            <g id="Group-3-Copy" transform="translate(242.000000, 171.000000)">
                <g id="Group-20" transform="translate(0.500000, 0.000000)">
                    <g transform="translate(634.000000, -68.000000)" id="Group-2">
                        <g>
                            <g>
                                <g id="Shape/square/bottom-emoji" transform="translate(107.000000, 33.000000)">
                                    <g id="color_lavanda">
                                        <mask id="mask-2" fill="white">
                                            <use xlink:href="#path-1"></use>
                                        </mask>
                                        <use id="Mask" fill="#E8E8E8" xlink:href="#path-1"></use>
                                        <g id="color/lavanda" mask="url(#mask-2)" fill="#A594F0">
                                            <rect id="Lavanda" x="0" y="0" width="97" height="97"></rect>
                                        </g>
                                    </g>
                                </g>
                                <g id="Shape/square/bottom-emoji" transform="translate(0.000000, 33.000000)">
                                    <g id="color_lavanda" stroke-width="1" fill-rule="evenodd">
                                        <mask id="mask-4" fill="white">
                                            <use xlink:href="#path-3"></use>
                                        </mask>
                                        <use id="Mask" fill="#E8E8E8" xlink:href="#path-3"></use>
                                        <g id="color/peach" mask="url(#mask-4)" fill="#FFAE94">
                                            <rect id="Ocean" x="0" y="0" width="97" height="138"></rect>
                                        </g>
                                    </g>
                                    <g id="emojis/bear" transform="translate(24.000000, 65.000000)" fill="#FFFFFF">
                                        <path d="M24.5,21 C26.9852814,21 29,25.5147186 29,28 C29,30.4852814 26.9852814,32.5 24.5,32.5 C22.0147186,32.5 20,30.4852814 20,28 C20,25.5147186 22.0147186,21 24.5,21 Z M24.5,24.222 C24.3149591,24.4312878 24.1189912,24.7096351 23.9290862,25.0452909 C23.369239,26.0348167 23,27.2878383 23,28 C23,28.8284271 23.6715729,29.5 24.5,29.5 C25.3284271,29.5 26,28.8284271 26,28 C26,27.2878383 25.630761,26.0348167 25.0709138,25.0452909 C24.9189898,24.7767662 24.7631856,24.5449191 24.6147043,24.3587447 L24.5,24.222 Z" id="Oval" fill-rule="nonzero" transform="translate(24.500000, 26.750000) rotate(-180.000000) translate(-24.500000, -26.750000) "></path>
                                        <circle id="Oval" fill-rule="evenodd" cx="16" cy="18" r="2"></circle>
                                        <circle id="Oval-Copy" fill-rule="evenodd" cx="33" cy="18" r="2"></circle>
                                        <g id="Group" stroke-width="1" fill-rule="evenodd" transform="translate(13.000000, 32.000000)">
                                            <path d="M21.529129,-0.294174203 C21.6915969,-1.10651383 22.4818346,-1.63333894 23.2941742,-1.47087101 C24.1065138,-1.30840309 24.6333389,-0.518165427 24.470871,0.294174203 C23.6698323,4.29936754 21.2491366,6.5 17.5,6.5 C14.9753705,6.5 13.0776546,5.2756671 11.8048346,3.31748253 C11.0750471,2.19473257 10.6881654,1.08935627 10.529129,0.294174203 C10.3666611,-0.518165427 10.8934862,-1.30840309 11.7058258,-1.47087101 C12.4703807,-1.623782 13.2153575,-1.16610816 13.4358068,-0.434482251 L13.501594,-0.165626612 C13.5305269,-0.0563066594 13.5767231,0.0982188288 13.64235,0.285724363 C13.8101692,0.765207766 14.0353909,1.24440283 14.3201654,1.68251747 C15.0785954,2.8493329 16.0871295,3.5 17.5,3.5 C19.7508634,3.5 20.9968343,2.36729912 21.529129,-0.294174203 Z" id="Line-2" fill-rule="nonzero"></path>
                                            <path d="M9.52912899,-0.294174203 C9.69159691,-1.10651383 10.4818346,-1.63333894 11.2941742,-1.47087101 C12.1065138,-1.30840309 12.6333389,-0.518165427 12.470871,0.294174203 C11.6698323,4.29936754 9.24913664,6.5 5.5,6.5 C2.97537054,6.5 1.07765455,5.2756671 -0.195165424,3.31748253 C-0.924952894,2.19473257 -1.3118346,1.08935627 -1.47087101,0.294174203 C-1.63333894,-0.518165427 -1.10651383,-1.30840309 -0.294174203,-1.47087101 C0.470380743,-1.623782 1.21535747,-1.16610816 1.43580684,-0.434482251 L1.50159396,-0.165626612 C1.53052692,-0.0563066594 1.5767231,0.0982188288 1.64235003,0.285724363 C1.81016923,0.765207766 2.03539091,1.24440283 2.32016542,1.68251747 C3.07859545,2.8493329 4.08712946,3.5 5.5,3.5 C7.75086336,3.5 8.99683432,2.36729912 9.52912899,-0.294174203 Z" id="Line-2-Copy" fill-rule="nonzero"></path>
                                        </g>
                                        <path d="M30,35.5 C30.7796961,35.5 31.4204487,36.0948881 31.4931334,36.85554 L31.5,37 L31.5,40.6470588 C31.5,44.4410681 28.3570316,47.5 24.5,47.5 C20.7233233,47.5 17.6312669,44.567196 17.5040704,40.8832063 L17.5,40.6470588 L17.5,37 C17.5,36.1715729 18.1715729,35.5 19,35.5 C19.7796961,35.5 20.4204487,36.0948881 20.4931334,36.85554 L20.5,37 L20.5,40.6470588 C20.5,42.7657451 22.2818993,44.5 24.5,44.5 C26.648785,44.5 28.3882053,42.8724424 28.4948207,40.8445182 L28.5,40.6470588 L28.5,37 C28.5,36.1715729 29.1715729,35.5 30,35.5 Z" id="Rectangle" fill-rule="nonzero"></path>
                                        <path d="M24.5,33.5 C25.2796961,33.5 25.9204487,34.0948881 25.9931334,34.85554 L26,35 L26,40 C26,40.8284271 25.3284271,41.5 24.5,41.5 C23.7203039,41.5 23.0795513,40.9051119 23.0068666,40.14446 L23,40 L23,35 C23,34.1715729 23.6715729,33.5 24.5,33.5 Z" id="Line-3" fill-rule="nonzero"></path>
                                        <g id="Group-3" stroke-width="1" fill-rule="evenodd" transform="translate(31.000000, -0.000000)">
                                            <g id="Group-2" transform="translate(10.500000, 6.500000) rotate(-165.000000) translate(-10.500000, -6.500000) translate(5.000000, 2.000000)" fill-rule="nonzero">
                                                <path d="M11,-1.5 C11.7796961,-1.5 12.4204487,-0.905111917 12.4931334,-0.144460011 L12.5,0 L12.5,3.64705882 C12.5,7.44106815 9.35703156,10.5 5.5,10.5 C1.72332326,10.5 -1.36873306,7.56719598 -1.49592956,3.88320626 L-1.5,3.64705882 L-1.5,0 C-1.5,-0.828427125 -0.828427125,-1.5 0,-1.5 C0.779696117,-1.5 1.42044868,-0.905111917 1.49313342,-0.144460011 L1.5,0 L1.5,3.64705882 C1.5,5.76574506 3.28189931,7.5 5.5,7.5 C7.64878504,7.5 9.38820532,5.87244238 9.49482066,3.8445182 L9.5,3.64705882 L9.5,0 C9.5,-0.828427125 10.1715729,-1.5 11,-1.5 Z" id="Rectangle-Copy"></path>
                                                <path d="M5.5,0.5 C6.27969612,0.5 6.92044868,1.09488808 6.99313342,1.85553999 L7,2 L7,3 C7,3.82842712 6.32842712,4.5 5.5,4.5 C4.72030388,4.5 4.07955132,3.90511192 4.00686658,3.14446001 L4,3 L4,2 C4,1.17157288 4.67157288,0.5 5.5,0.5 Z" id="Line-3-Copy"></path>
                                            </g>
                                            <path d="M-1.11665373,10.998459 C-0.563517894,10.3817481 0.384830206,10.3302104 1.00154103,10.8833463 C1.53353785,11.360501 2.16214009,11.7564843 2.90148926,12.0522765 C3.84900548,12.4313504 4.95782596,12.6377401 6.2501296,12.6377401 C8.39437865,12.6377401 10.0158391,12.2234294 11.1420468,11.4381375 C11.8215852,10.964303 12.7565786,11.131059 13.2304131,11.8105974 C13.7042475,12.4901358 13.5374915,13.4251292 12.8579532,13.8989636 C11.1748233,15.0725911 8.96303687,15.6377401 6.2501296,15.6377401 C4.58226138,15.6377401 3.09517207,15.3609416 1.78714646,14.8376383 C0.715349992,14.4088435 -0.212512734,13.8243433 -1.00154103,13.1166537 C-1.61825186,12.5635179 -1.66978957,11.6151698 -1.11665373,10.998459 Z" id="Line-2" fill-rule="nonzero" transform="translate(6.000059, 13.068863) rotate(-146.000000) translate(-6.000059, -13.068863) "></path>
                                        </g>
                                        <g id="Group-3" stroke-width="1" fill-rule="evenodd" transform="translate(9.500000, 9.000000) scale(-1, 1) translate(-9.500000, -9.000000) translate(1.000000, 0.000000)">
                                            <g id="Group-2" transform="translate(10.500000, 6.500000) rotate(-165.000000) translate(-10.500000, -6.500000) translate(5.000000, 2.000000)" fill-rule="nonzero">
                                                <path d="M11,-1.5 C11.7796961,-1.5 12.4204487,-0.905111917 12.4931334,-0.144460011 L12.5,0 L12.5,3.64705882 C12.5,7.44106815 9.35703156,10.5 5.5,10.5 C1.72332326,10.5 -1.36873306,7.56719598 -1.49592956,3.88320626 L-1.5,3.64705882 L-1.5,0 C-1.5,-0.828427125 -0.828427125,-1.5 0,-1.5 C0.779696117,-1.5 1.42044868,-0.905111917 1.49313342,-0.144460011 L1.5,0 L1.5,3.64705882 C1.5,5.76574506 3.28189931,7.5 5.5,7.5 C7.64878504,7.5 9.38820532,5.87244238 9.49482066,3.8445182 L9.5,3.64705882 L9.5,0 C9.5,-0.828427125 10.1715729,-1.5 11,-1.5 Z" id="Rectangle-Copy"></path>
                                                <path d="M5.5,0.5 C6.27969612,0.5 6.92044868,1.09488808 6.99313342,1.85553999 L7,2 L7,3 C7,3.82842712 6.32842712,4.5 5.5,4.5 C4.72030388,4.5 4.07955132,3.90511192 4.00686658,3.14446001 L4,3 L4,2 C4,1.17157288 4.67157288,0.5 5.5,0.5 Z" id="Line-3-Copy"></path>
                                            </g>
                                            <path d="M-1.11665373,10.998459 C-0.563517894,10.3817481 0.384830206,10.3302104 1.00154103,10.8833463 C1.53353785,11.360501 2.16214009,11.7564843 2.90148926,12.0522765 C3.84900548,12.4313504 4.95782596,12.6377401 6.2501296,12.6377401 C8.39437865,12.6377401 10.0158391,12.2234294 11.1420468,11.4381375 C11.8215852,10.964303 12.7565786,11.131059 13.2304131,11.8105974 C13.7042475,12.4901358 13.5374915,13.4251292 12.8579532,13.8989636 C11.1748233,15.0725911 8.96303687,15.6377401 6.2501296,15.6377401 C4.58226138,15.6377401 3.09517207,15.3609416 1.78714646,14.8376383 C0.715349992,14.4088435 -0.212512734,13.8243433 -1.00154103,13.1166537 C-1.61825186,12.5635179 -1.66978957,11.6151698 -1.11665373,10.998459 Z" id="Line-2" fill-rule="nonzero" transform="translate(6.000059, 13.068863) rotate(-146.000000) translate(-6.000059, -13.068863) "></path>
                                        </g>
                                    </g>
                                </g>
                                <g id="Shape/square/bottom-emoji" transform="translate(221.000000, 602.000000)">
                                    <g id="color_lavanda">
                                        <mask id="mask-6" fill="white">
                                            <use xlink:href="#path-5"></use>
                                        </mask>
                                        <use id="Mask" fill="#E8E8E8" xlink:href="#path-5"></use>
                                        <g id="color/ocean" mask="url(#mask-6)" fill="#4FC5D5">
                                            <rect id="Ocean" x="0" y="0" width="97" height="253"></rect>
                                        </g>
                                    </g>
                                </g>
                                <g id="Shape/circle/bottom-emoji" transform="translate(221.000000, 0.000000)">
                                    <g id="color_lavanda">
                                        <mask id="mask-8" fill="white">
                                            <use xlink:href="#path-7"></use>
                                        </mask>
                                        <use id="Mask" fill="#C1C1C1" xlink:href="#path-7"></use>
                                        <g id="color/yellow" mask="url(#mask-8)" fill="#F3D239">
                                            <rect id="Yellow" x="0" y="0" width="97" height="213"></rect>
                                        </g>
                                    </g>
                                </g>
                                <g id="Shape/circle/top-emoji" transform="translate(107.000000, 511.000000)">
                                    <g id="color_lavanda">
                                        <mask id="mask-10" fill="white">
                                            <use xlink:href="#path-9"></use>
                                        </mask>
                                        <use id="Mask" fill="#C1C1C1" xlink:href="#path-9"></use>
                                        <g id="color/lavanda" mask="url(#mask-10)" fill="#A594F0">
                                            <rect id="Lavanda" x="0" y="0" width="97" height="244"></rect>
                                        </g>
                                    </g>
                                    <g id="emojis/sleeping" transform="translate(24.000000, 24.000000)" fill="#FFFFFF">
                                        <g id="Group" transform="translate(7.000000, 12.000000)">
                                            <g id="noun_emoji_2947147" transform="translate(17.500000, 3.500000) rotate(-180.000000) translate(-17.500000, -3.500000) " fill-rule="nonzero">
                                                <path d="M1.41632088,6.28125 C2.19847857,6.28125 2.83264176,5.63804215 2.83264176,4.84472907 C2.83264176,3.91253358 3.58091284,3.15429186 4.5,3.15429186 C5.41908716,3.15429186 6.16735824,3.91253358 6.16735824,4.84472907 C6.16735824,5.63804215 6.80152143,6.28125 7.58367912,6.28125 C8.3658368,6.28125 9,5.63804215 9,4.84472907 C9,2.32871323 6.98132776,0.28125 4.5,0.28125 C2.01867224,0.28125 0,2.32871323 0,4.84472907 C0,5.63804215 0.634163199,6.28125 1.41632088,6.28125 Z" id="Path"></path>
                                                <path d="M27.4164297,6.28125 C28.1986475,6.28125 28.8328595,5.63804215 28.8328595,4.84472907 C28.8328595,3.91253358 29.581188,3.15429186 30.5003458,3.15429186 C31.4195036,3.15429186 32.1671405,3.91253358 32.1671405,4.84472907 C32.1671405,5.63804215 32.8013525,6.28125 33.5835703,6.28125 C34.3657881,6.28125 35,5.63804215 35,4.84472907 C35,2.32871323 32.9811726,0.28125 30.5003458,0.28125 C28.0188274,0.28125 26,2.32871323 26,4.84472907 C26,5.63804215 26.6342119,6.28125 27.4164297,6.28125 Z" id="Path"></path>
                                            </g>
                                            <circle id="Oval" cx="17" cy="20" r="4"></circle>
                                        </g>
                                    </g>
                                </g>
                                <g id="Shape/circle/bottom-emoji" transform="translate(107.000000, 147.000000)">
                                    <g id="color_lavanda" stroke-width="1" fill-rule="evenodd">
                                        <mask id="mask-12" fill="white">
                                            <use xlink:href="#path-11"></use>
                                        </mask>
                                        <use id="Mask" fill="#C1C1C1" xlink:href="#path-11"></use>
                                        <g id="color/Petrol" mask="url(#mask-12)" fill="#25204F">
                                            <rect id="color_petrol" x="0" y="0" width="97" height="97"></rect>
                                        </g>
                                    </g>
                                    <g id="emojis/glasses" transform="translate(24.000000, 24.000000)" fill="#FFFFFF">
                                        <g id="Group" stroke-width="1" fill-rule="evenodd" transform="translate(20.000000, 14.000000)">
                                            <g id="noun_emoji_2947147" fill-rule="nonzero">
                                                <path d="M1.41642973,6 C2.19864752,6 2.83285945,5.35679215 2.83285945,4.56347907 C2.83285945,3.63128358 3.58118803,2.87304186 4.50034582,2.87304186 C5.41950361,2.87304186 6.16714055,3.63128358 6.16714055,4.56347907 C6.16714055,5.35679215 6.80135248,6 7.58357027,6 C8.36578807,6 9,5.35679215 9,4.56347907 C9,2.04746323 6.98117263,0 4.50034582,0 C2.01882737,0 0,2.04746323 0,4.56347907 C0,5.35679215 0.634211934,6 1.41642973,6 Z" id="Path-Copy"></path>
                                            </g>
                                            <path d="M4.5,24.6633652 C6.98528137,24.6633652 9,22.6486466 9,20.1633652 C9,17.6780839 6.98528137,19.0383652 4.5,19.0383652 C2.01471863,19.0383652 0,17.6780839 0,20.1633652 C0,22.6486466 2.01471863,24.6633652 4.5,24.6633652 Z" id="Oval"></path>
                                        </g>
                                        <path d="M11.5,7.5 C5.9771525,7.5 1.5,11.9771525 1.5,17.5 C1.5,23.0228475 5.9771525,27.5 11.5,27.5 C17.0228475,27.5 21.5,23.0228475 21.5,17.5 C21.5,11.9771525 17.0228475,7.5 11.5,7.5 Z M11.5,10.5 C15.3659932,10.5 18.5,13.6340068 18.5,17.5 C18.5,21.3659932 15.3659932,24.5 11.5,24.5 C7.63400675,24.5 4.5,21.3659932 4.5,17.5 C4.5,13.6340068 7.63400675,10.5 11.5,10.5 Z" id="Oval" fill-rule="nonzero"></path>
                                        <path d="M37.5,7.5 C31.9771525,7.5 27.5,11.9771525 27.5,17.5 C27.5,23.0228475 31.9771525,27.5 37.5,27.5 C43.0228475,27.5 47.5,23.0228475 47.5,17.5 C47.5,11.9771525 43.0228475,7.5 37.5,7.5 Z M37.5,10.5 C41.3659932,10.5 44.5,13.6340068 44.5,17.5 C44.5,21.3659932 41.3659932,24.5 37.5,24.5 C33.6340068,24.5 30.5,21.3659932 30.5,17.5 C30.5,13.6340068 33.6340068,10.5 37.5,10.5 Z" id="Oval-Copy" fill-rule="nonzero"></path>
                                        <path d="M37.5,18 C38.8807119,18 40,18.8807119 40,17.5 C40,16.1192881 38.8807119,15 37.5,15 C36.1192881,15 35,16.1192881 35,17.5 C35,18.8807119 36.1192881,18 37.5,18 Z" id="Oval" fill-rule="evenodd"></path>
                                        <path d="M11.5,18 C12.8807119,18 14,18.8807119 14,17.5 C14,16.1192881 12.8807119,15 11.5,15 C10.1192881,15 9,16.1192881 9,17.5 C9,18.8807119 10.1192881,18 11.5,18 Z" id="Oval-Copy-2" fill-rule="evenodd"></path>
                                    </g>
                                </g>
                                <g id="Shape/triangle" transform="translate(269.500000, 282.500000) rotate(-270.000000) translate(-269.500000, -282.500000) translate(221.000000, 234.000000)">
                                    <g id="color_lavanda">
                                        <mask id="mask-14" fill="white">
                                            <use xlink:href="#path-13"></use>
                                        </mask>
                                        <use id="Mask" fill="#E8E8E8" xlink:href="#path-13"></use>
                                        <g id="color/clementine" mask="url(#mask-14)" fill="#EE7552">
                                            <rect id="Clementine" x="0" y="0" width="97" height="97"></rect>
                                        </g>
                                    </g>
                                </g>
                                <g id="Shape/triangle" transform="translate(269.500000, 536.500000) rotate(-90.000000) translate(-269.500000, -536.500000) translate(221.000000, 488.000000)">
                                    <g id="color_lavanda">
                                        <mask id="mask-16" fill="white">
                                            <use xlink:href="#path-15"></use>
                                        </mask>
                                        <use id="Mask" fill="#E8E8E8" xlink:href="#path-15"></use>
                                        <g id="color/peach" mask="url(#mask-16)" fill="#FFAE94">
                                            <rect id="Ocean" x="0" y="0" width="97" height="97"></rect>
                                        </g>
                                    </g>
                                </g>
                            </g>
                        </g>
                    </g>
                </g>
            </g>
        </g>
    </g>
</svg>