<svg xmlns="http://www.w3.org/2000/svg" width="107" height="107" viewBox="0 0 107 107">
    <g fill="none" fill-rule="evenodd">
        <rect width="107" height="106.955" fill="#FFD6C9" rx="53.478"/>
        <g transform="translate(27 23)">
            <path stroke="#FFAE94" stroke-linejoin="round" stroke-width="3" d="M40.777 14.95l19.605 7.526c2.578.99 3.866 3.882 2.876 6.46l-13.26 34.542c-.99 2.578-3.881 3.866-6.46 2.876l-19.604-7.526c-2.578-.99-3.866-3.881-2.876-6.46l13.26-34.542c.989-2.578 3.88-3.865 6.459-2.876z"/>
            <rect width="38" height="55" fill="#FFD6C9" stroke="#FFAE94" stroke-linejoin="round" stroke-width="3" rx="6"/>
            <path fill="#FFAE94" fill-rule="nonzero" d="M18.818 33.313c1.243 0 1.724-.874 1.724-2.154 0-2.133.722-3.271 3.268-4.795C26.376 24.8 28 22.605 28 19.416 28 15.068 24.472 12 19.5 12c-3.85 0-6.796 1.686-7.979 4.571-.36.793-.521 1.483-.521 2.357 0 1.057.561 1.666 1.584 1.666.902 0 1.343-.386 1.684-1.625.661-2.438 2.425-3.8 5.092-3.8 2.947 0 4.911 1.788 4.911 4.43 0 2.072-.902 3.392-3.227 4.835-2.747 1.666-4.01 3.474-4.01 6.217v.569c0 1.158.541 2.093 1.784 2.093zM18.556 43c1.077 0 1.888-.85 1.888-1.938 0-1.104-.811-1.937-1.888-1.937-1.06 0-1.89.833-1.89 1.938 0 1.087.83 1.937 1.89 1.937z"/>
        </g>
    </g>
</svg>
