<?xml version="1.0" encoding="UTF-8"?>
<svg width="459px" height="406px" viewBox="0 0 459 406" version="1.1" xmlns="http://www.w3.org/2000/svg" xmlns:xlink="http://www.w3.org/1999/xlink">
    <!-- Generator: Sketch 61 (89581) - https://sketch.com -->
    <title>Group</title>
    <desc>Created with Sketch.</desc>
    <defs>
        <path d="M8,0 L11.7607768,0 C13.417631,-1.19253761e-15 14.7607768,1.34314575 14.7607768,3 C14.7607768,3.79491014 14.4452917,4.55732512 13.8836053,5.1198111 L5.12282852,13.8930583 C3.95208917,15.0654641 2.05259472,15.066815 0.880188902,13.8960757 C0.316656583,13.3333444 5.41618715e-16,12.569636 0,11.7732472 L0,8 C-5.41083001e-16,3.581722 3.581722,8.11624501e-16 8,0 Z" id="path-1"></path>
        <path d="M8,0 L11.7607768,0 C13.417631,-1.19253761e-15 14.7607768,1.34314575 14.7607768,3 C14.7607768,3.79491014 14.4452917,4.55732512 13.8836053,5.1198111 L5.12282852,13.8930583 C3.95208917,15.0654641 2.05259472,15.066815 0.880188902,13.8960757 C0.316656583,13.3333444 5.41618715e-16,12.569636 0,11.7732472 L0,8 C-5.41083001e-16,3.581722 3.581722,8.11624501e-16 8,0 Z" id="path-3"></path>
        <path d="M8,0 L11.7607768,0 C13.417631,-3.04359188e-16 14.7607768,1.34314575 14.7607768,3 C14.7607768,3.79491014 14.4452917,4.55732512 13.8836053,5.1198111 L5.12282852,13.8930583 C3.95208917,15.0654641 2.05259472,15.066815 0.880188902,13.8960757 C0.316656583,13.3333444 -8.8107043e-16,12.569636 0,11.7732472 L0,8 C-5.41083001e-16,3.581722 3.581722,8.11624501e-16 8,0 Z" id="path-5"></path>
        <path d="M8,0 L11.7607768,0 C13.417631,-3.04359188e-16 14.7607768,1.34314575 14.7607768,3 C14.7607768,3.79491014 14.4452917,4.55732512 13.8836053,5.1198111 L5.12282852,13.8930583 C3.95208917,15.0654641 2.05259472,15.066815 0.880188902,13.8960757 C0.316656583,13.3333444 -8.8107043e-16,12.569636 0,11.7732472 L0,8 C-5.41083001e-16,3.581722 3.581722,8.11624501e-16 8,0 Z" id="path-7"></path>
        <path d="M8,0 L11.7607768,0 C13.417631,-3.04359188e-16 14.7607768,1.34314575 14.7607768,3 C14.7607768,3.79491014 14.4452917,4.55732512 13.8836053,5.1198111 L5.12282852,13.8930583 C3.95208917,15.0654641 2.05259472,15.066815 0.880188902,13.8960757 C0.316656583,13.3333444 -8.8107043e-16,12.569636 0,11.7732472 L0,8 C-5.41083001e-16,3.581722 3.581722,8.11624501e-16 8,0 Z" id="path-9"></path>
        <path d="M8,0 L11.7607768,0 C13.417631,-3.04359188e-16 14.7607768,1.34314575 14.7607768,3 C14.7607768,3.79491014 14.4452917,4.55732512 13.8836053,5.1198111 L5.12282852,13.8930583 C3.95208917,15.0654641 2.05259472,15.066815 0.880188902,13.8960757 C0.316656583,13.3333444 -8.8107043e-16,12.569636 0,11.7732472 L0,8 C-5.41083001e-16,3.581722 3.581722,8.11624501e-16 8,0 Z" id="path-11"></path>
        <path d="M8,0 L11.7607768,0 C13.417631,-3.04359188e-16 14.7607768,1.34314575 14.7607768,3 C14.7607768,3.79491014 14.4452917,4.55732512 13.8836053,5.1198111 L5.12282852,13.8930583 C3.95208917,15.0654641 2.05259472,15.066815 0.880188902,13.8960757 C0.316656583,13.3333444 -8.8107043e-16,12.569636 0,11.7732472 L0,8 C-5.41083001e-16,3.581722 3.581722,8.11624501e-16 8,0 Z" id="path-13"></path>
        <path d="M8,0 L11.7607768,0 C13.417631,-1.19253761e-15 14.7607768,1.34314575 14.7607768,3 C14.7607768,3.79491014 14.4452917,4.55732512 13.8836053,5.1198111 L5.12282852,13.8930583 C3.95208917,15.0654641 2.05259472,15.066815 0.880188902,13.8960757 C0.316656583,13.3333444 -6.09805883e-16,12.569636 0,11.7732472 L0,8 C-5.41083001e-16,3.581722 3.581722,8.11624501e-16 8,0 Z" id="path-15"></path>
        <path d="M8,0 L11.7607768,0 C13.417631,-1.19253761e-15 14.7607768,1.34314575 14.7607768,3 C14.7607768,3.79491014 14.4452917,4.55732512 13.8836053,5.1198111 L5.12282852,13.8930583 C3.95208917,15.0654641 2.05259472,15.066815 0.880188902,13.8960757 C0.316656583,13.3333444 -6.09805883e-16,12.569636 0,11.7732472 L0,8 C-5.41083001e-16,3.581722 3.581722,8.11624501e-16 8,0 Z" id="path-17"></path>
        <path d="M8,0 L11.7607768,0 C13.417631,-1.19253761e-15 14.7607768,1.34314575 14.7607768,3 C14.7607768,3.79491014 14.4452917,4.55732512 13.8836053,5.1198111 L5.12282852,13.8930583 C3.95208917,15.0654641 2.05259472,15.066815 0.880188902,13.8960757 C0.316656583,13.3333444 5.41618715e-16,12.569636 0,11.7732472 L0,8 C-5.41083001e-16,3.581722 3.581722,8.11624501e-16 8,0 Z" id="path-19"></path>
        <path d="M8,0 L11.7607768,0 C13.417631,-3.04359188e-16 14.7607768,1.34314575 14.7607768,3 C14.7607768,3.79491014 14.4452917,4.55732512 13.8836053,5.1198111 L5.12282852,13.8930583 C3.95208917,15.0654641 2.05259472,15.066815 0.880188902,13.8960757 C0.316656583,13.3333444 -8.8107043e-16,12.569636 0,11.7732472 L0,8 C-5.41083001e-16,3.581722 3.581722,8.11624501e-16 8,0 Z" id="path-21"></path>
        <path d="M8,0 L11.7607768,0 C13.417631,-3.04359188e-16 14.7607768,1.34314575 14.7607768,3 C14.7607768,3.79491014 14.4452917,4.55732512 13.8836053,5.1198111 L5.12282852,13.8930583 C3.95208917,15.0654641 2.05259472,15.066815 0.880188902,13.8960757 C0.316656583,13.3333444 -8.8107043e-16,12.569636 0,11.7732472 L0,8 C-5.41083001e-16,3.581722 3.581722,8.11624501e-16 8,0 Z" id="path-23"></path>
        <path d="M8,0 L11.7607768,0 C13.417631,-3.04359188e-16 14.7607768,1.34314575 14.7607768,3 C14.7607768,3.79491014 14.4452917,4.55732512 13.8836053,5.1198111 L5.12282852,13.8930583 C3.95208917,15.0654641 2.05259472,15.066815 0.880188902,13.8960757 C0.316656583,13.3333444 -8.8107043e-16,12.569636 0,11.7732472 L0,8 C-5.41083001e-16,3.581722 3.581722,8.11624501e-16 8,0 Z" id="path-25"></path>
        <path d="M8,0 L11.7607768,0 C13.417631,-1.19253761e-15 14.7607768,1.34314575 14.7607768,3 C14.7607768,3.79491014 14.4452917,4.55732512 13.8836053,5.1198111 L5.12282852,13.8930583 C3.95208917,15.0654641 2.05259472,15.066815 0.880188902,13.8960757 C0.316656583,13.3333444 -6.09805883e-16,12.569636 0,11.7732472 L0,8 C-5.41083001e-16,3.581722 3.581722,8.11624501e-16 8,0 Z" id="path-27"></path>
        <path d="M8,0 L11.7607768,0 C13.417631,-1.19253761e-15 14.7607768,1.34314575 14.7607768,3 C14.7607768,3.79491014 14.4452917,4.55732512 13.8836053,5.1198111 L5.12282852,13.8930583 C3.95208917,15.0654641 2.05259472,15.066815 0.880188902,13.8960757 C0.316656583,13.3333444 -6.09805883e-16,12.569636 0,11.7732472 L0,8 C-5.41083001e-16,3.581722 3.581722,8.11624501e-16 8,0 Z" id="path-29"></path>
        <path d="M64.3110174,0.399291322 L64.6586789,0.399291322 L65.0050943,0.428762673 C80.3162414,1.73136101 92.3489888,9.45310979 100.900803,22.3815687 C107.963583,33.0589368 112.532913,47.0307155 115.092537,63.7717476 C118.70436,87.3946048 118.191463,112.050826 115.460292,140.27673 L115.323756,141.67228 L115.309934,141.782034 C113.887568,153.076406 109.581732,165.160245 102.674582,174.661783 C93.5154926,187.261109 80.4547683,194.616159 64.0113097,194.616159 C36.5211997,194.616159 18.4830852,178.692267 8.89389135,151.998157 C2.69919527,134.753549 0.532787703,115.867299 0.370182097,93.6243728 L0.360112003,91.5929939 L0.360112003,89.8823968 C0.406017517,67.1847799 2.52858998,50.2437614 9.26298231,34.9961901 C18.8756763,13.2317561 36.7536202,0.652480929 63.497871,0.403071868 L64.3110174,0.399291322 Z M58.1639885,52.0561731 C53.9623645,52.0561731 49.9503956,55.742182 46.6585002,62.6281442 C43.9527315,68.2880509 42.1478424,75.6271811 42.087437,79.4660524 L42.0858726,79.7746917 L42.0378862,81.0090342 C41.948826,83.4864108 41.90677,85.9004165 41.8917118,88.8783666 L41.8857848,90.7198987 L41.8845281,93.077518 C41.8845281,113.594948 44.2199962,127.549498 48.4854029,135.722993 C51.7521461,141.98282 55.8374074,144.465812 61.5868457,144.465812 C66.9572542,144.465812 70.961442,139.195434 73.4865503,128.743376 C75.372018,120.938952 76.0108754,112.499395 76.051929,102.881501 L76.0538093,102.223903 L76.0542053,101.005185 C76.0542053,93.1109068 74.5148482,80.5954405 71.7579445,70.889388 C68.2786585,58.6400905 63.4237679,52.0561731 58.1639885,52.0561731 Z" id="path-31"></path>
        <path d="M17.0026255,0.559179316 C20.8873106,0.559179316 24.03647,3.70833876 24.03647,7.5930238 C24.03647,9.45529334 23.297957,11.2415603 21.9828755,12.5601234 L12.0540642,22.5152213 C9.31381352,25.2627268 4.86510822,25.2686079 2.11760276,22.5283573 C0.795924997,21.2101694 0.053120082,19.4202271 0.053120082,17.5535586 L0.053120082,17.5086848 C0.053120082,8.14773139 7.64167216,0.559179316 17.0026255,0.559179316 Z" id="path-33"></path>
        <path d="M17.0798215,0.740006066 C20.9645066,0.740006066 24.113666,3.88916551 24.113666,7.77385056 C24.113666,9.63612009 23.3751529,11.422387 22.0600715,12.7409501 L12.1312601,22.696048 C9.39100949,25.4435535 4.94230419,25.4494347 2.19479873,22.7091841 C0.873120965,21.3909962 0.13031605,19.6010539 0.13031605,17.7343853 L0.13031605,17.6895115 C0.13031605,8.32855814 7.71886813,0.740006066 17.0798215,0.740006066 Z" id="path-35"></path>
        <path d="M111.68626,14.3166657 L111.695914,14.3166567 C115.572932,14.3130629 118.718789,17.4530935 118.722383,21.3301113 C118.724112,23.1948678 117.983832,24.9836872 116.664874,26.3018947 L106.688636,36.2724604 C103.945746,39.0137912 99.4999059,39.0125269 96.7585751,36.2696365 C95.4410346,34.9513465 94.7016772,33.1633151 94.7034068,31.2995022 C94.7121071,21.9237401 102.310498,14.3253567 111.68626,14.3166657 Z" id="path-37"></path>
        <path d="M17.0798215,0.740006066 C20.9645066,0.740006066 24.113666,3.88916551 24.113666,7.77385056 C24.113666,9.63612009 23.3751529,11.422387 22.0600715,12.7409501 L12.1312601,22.696048 C9.39100949,25.4435535 4.94230419,25.4494347 2.19479873,22.7091841 C0.873120965,21.3909962 0.13031605,19.6010539 0.13031605,17.7343853 L0.13031605,17.6895115 C0.13031605,8.32855814 7.71886813,0.740006066 17.0798215,0.740006066 Z" id="path-39"></path>
        <path d="M139.630307,50.910531 C146.777898,50.9028764 152.57837,56.6909381 152.586024,63.8385286 C152.589705,67.2757256 151.225914,70.5732022 148.795447,73.0036689 L130.398144,91.4009726 C125.344031,96.4550852 117.149696,96.4550852 112.095583,91.4009726 C109.665116,88.9705058 108.301325,85.6730293 108.305006,82.2358322 C108.323525,64.9430229 122.337498,50.9290505 139.630307,50.910531 Z" id="path-41"></path>
        <path d="M79.9899543,153.337809 L79.9964347,153.337816 C86.6276493,153.344878 91.9975861,158.726264 91.9905242,165.357479 C91.9871371,168.537936 90.722021,171.58712 88.4728449,173.835792 L71.5770983,190.727752 C66.8871569,195.416643 59.2841115,195.415791 54.5952211,190.725849 C52.3469997,188.477124 51.0825045,185.428473 51.0791174,182.248653 C51.0621276,166.298625 63.9784073,153.354799 79.9284357,153.337809 C79.9489419,153.337787 79.9694481,153.337787 79.9899543,153.337809 Z" id="path-43"></path>
        <path d="M88.0474953,175.410599 C94.6641647,175.404459 100.033012,180.763352 100.039152,187.380021 C100.042101,190.558049 98.7822295,193.607035 96.5367896,195.856005 L79.5366626,212.882863 C74.8646813,217.56219 67.2839477,217.568145 62.6046203,212.896164 C60.3524996,210.647579 59.0882802,207.594873 59.0912303,204.412394 L59.0912725,204.36685 C59.1060909,188.380907 72.0615524,175.425433 88.0474953,175.410599 Z" id="path-45"></path>
        <path d="M64.5060283,0 L64.9233006,0.0430071466 C80.507429,1.64922189 92.5113603,10.9816073 100.910175,26.3640337 C107.769686,38.9272245 112.2221,55.4207296 114.725668,75.2580805 C118.235573,103.069282 117.788846,132.194559 115.182156,165.450911 L114.94259,168.445219 L114.93305,168.536998 C113.56219,181.724479 109.400132,195.87505 102.716037,207.014299 C93.6889107,222.058281 80.5824824,231 63.7880685,231 C48.9194,231 36.5166197,225.341371 26.8531159,214.862792 C18.7121519,206.035173 12.7265179,194.06549 8.4868587,179.455395 C2.49537359,158.808414 0.470996679,136.392711 0.364569184,109.6476 L0.360095149,107.377086 L0.360095149,106.30548 C0.405194942,79.2972002 2.48314472,59.2048686 9.02910203,41.2495246 C18.4326785,15.4558261 36.2099308,0.304991569 63.2639114,0.00455424877 L64.0865694,0 L64.5060283,0 Z M57.954944,57.9468167 C54.0690773,57.9468167 49.9192051,62.5677528 46.535614,71.1458884 C43.7143429,78.298421 41.8375395,87.554864 41.7786693,92.5485816 L41.7772432,92.8820064 L41.7475566,93.7835413 C41.6294472,97.5302138 41.5848785,101.076754 41.5763143,105.855857 L41.5748535,107.084491 L41.5743727,109.170108 L41.577243,110.681199 C41.6709563,135.20566 44.0571907,152.058973 48.3972284,162.138433 L48.627831,162.66419 C51.9866621,170.180599 56.0075329,173.053183 61.4037413,173.053183 C66.4643236,173.053183 70.7221517,166.260961 73.3245426,153.205545 C75.263987,143.475932 75.915527,133.027026 75.9562808,121.118761 L75.9580797,120.340058 L75.9584787,118.851119 C75.9584787,109.029722 74.3884599,93.5590589 71.5666517,81.5185468 C68.0122414,66.3520587 62.8983811,57.9468167 57.954944,57.9468167 Z" id="path-47"></path>
        <path d="M42.3654395,0.512545584 C52.0595097,0.512545584 59.9181063,8.37114219 59.9181063,18.0652124 C59.9181063,22.7024215 58.0830842,27.1512161 54.8138275,30.4399345 L30.0941529,55.3067636 C23.276564,62.1649372 12.190168,62.1978375 5.33199449,55.3802486 C2.02581169,52.0936308 0.166763967,47.6242615 0.166763967,42.9624269 L0.166763967,42.7112211 C0.166763967,19.4055361 19.0597545,0.512545584 42.3654395,0.512545584 Z" id="path-49"></path>
        <path d="M129.438786,221.083599 C137.661713,221.064228 144.343416,227.714523 144.362787,235.93745 C144.372102,239.891402 142.808291,243.686679 140.016208,246.486339 L118.760908,267.799323 C112.960767,273.615205 103.54412,273.627965 97.7282384,267.827824 C94.9218329,265.029014 93.3486947,261.225776 93.3580066,257.262297 L93.3582367,257.164379 C93.4050076,237.25701 109.531417,221.130498 129.438786,221.083599 Z" id="path-51"></path>
        <path d="M235.475957,119.162129 L235.656894,119.162129 C243.26664,119.162129 249.435559,125.331047 249.435559,132.940794 C249.435559,136.608095 247.973586,140.124093 245.373378,142.710213 L225.812121,162.165479 C220.404463,167.543835 211.660672,167.520082 206.282315,162.112425 C203.708704,159.524792 202.264036,156.023614 202.264036,152.374049 C202.264036,134.031612 217.13352,119.162129 235.475957,119.162129 Z" id="path-53"></path>
        <path d="M36.1629204,0.753729541 C44.4179088,0.753729541 51.1098992,7.44571991 51.1098992,15.7007084 C51.1098992,19.6508252 49.5462594,23.440336 46.7607031,26.2410678 L25.7032388,47.413252 C19.8950449,53.2530885 10.4524506,53.27874 4.61261402,47.4705462 C1.79827047,44.6714519 0.215900491,40.8659013 0.215900491,36.8965867 L0.215900491,36.7007494 C0.215900491,16.8477585 16.3099295,0.753729541 36.1629204,0.753729541 Z" id="path-55"></path>
        <path d="M24.2407254,7.43492941 C28.1151642,7.42440422 31.2645499,10.5567251 31.275075,14.431164 C31.2801457,16.2977327 30.541139,18.0893638 29.2216004,19.4095616 L19.1734986,29.4626828 C16.435095,32.2024543 11.9941567,32.2035632 9.25438521,29.4651596 C7.93360071,28.1450346 7.1937839,26.3527092 7.19885682,24.4853109 L7.19888001,24.4767748 C7.22441945,15.0754226 14.8393732,7.46046885 24.2407254,7.43492941 Z" id="path-57"></path>
        <path d="M-48.460999,112.126492 L-48.4445337,112.126536 C-41.7874954,112.144517 -36.4054755,117.555688 -36.4234556,124.212726 C-36.4320628,127.399458 -37.7022701,130.453108 -39.9562793,132.705834 L-56.7877757,149.527748 C-61.4974879,154.234779 -69.1312664,154.232606 -73.8382974,149.522894 C-76.0898725,147.270036 -77.3584975,144.217746 -77.3671051,141.032642 C-77.410132,125.111243 -64.5381681,112.169519 -48.6167689,112.126492 C-48.5648457,112.126352 -48.5129222,112.126352 -48.460999,112.126492 Z" id="path-59"></path>
        <path d="M-27.9102706,152.325904 L-20.7164265,152.345334 C-14.0593883,152.363314 -8.67736836,157.774486 -8.6953485,164.431524 C-8.70395562,167.618256 -9.97416293,170.671906 -12.2281722,172.924632 L-29.0596686,189.746546 C-33.7693807,194.453577 -41.4031593,194.451404 -46.1101902,189.741692 C-48.3617653,187.488834 -49.6303904,184.436544 -49.638998,181.25144 L-49.6583945,174.074062 C-49.6907667,162.095258 -40.0062708,152.358277 -28.0274674,152.325904 C-27.9884019,152.325799 -27.9493361,152.325799 -27.9102706,152.325904 Z" id="path-61"></path>
    </defs>
    <g id="MVP-desktop" stroke="none" stroke-width="1" fill="none" fill-rule="evenodd">
        <g id="About-&amp;-FAQs" transform="translate(-827.000000, -249.000000)">
            <g id="Group" transform="translate(786.000000, 179.000000)">
                <g id="Group-15">
                    <g id="Group-6" transform="translate(288.980398, 261.273445) rotate(66.000000) translate(-288.980398, -261.273445) translate(82.980398, 83.273445)">
                        <g id="Shape/triangle" transform="translate(14.128598, 321.880305) scale(1, -1) rotate(57.000000) translate(-14.128598, -321.880305) translate(4.630529, 312.368715)">
                            <g id="color_lavanda">
                                <mask id="mask-2" fill="white">
                                    <use xlink:href="#path-1"></use>
                                </mask>
                                <use id="Mask" fill="#E8E8E8" xlink:href="#path-1"></use>
                                <g id="color/yellow" mask="url(#mask-2)" fill="#F3D239">
                                    <rect id="Yellow" x="0" y="0" width="18.996139" height="19.0231788"></rect>
                                </g>
                            </g>
                        </g>
                        <g id="Shape/triangle" transform="translate(360.558861, 20.752303) scale(1, -1) rotate(57.000000) translate(-360.558861, -20.752303) translate(351.060791, 11.240714)">
                            <g id="color_lavanda">
                                <mask id="mask-4" fill="white">
                                    <use xlink:href="#path-3"></use>
                                </mask>
                                <use id="Mask" fill="#E8E8E8" xlink:href="#path-3"></use>
                                <g id="color/yellow" mask="url(#mask-4)" fill="#F3D239">
                                    <rect id="Yellow" x="0" y="0" width="18.996139" height="19.0231788"></rect>
                                </g>
                            </g>
                        </g>
                        <g id="Shape/triangle" transform="translate(154.702703, 167.435430) scale(1, -1) rotate(-30.000000) translate(-154.702703, -167.435430) translate(145.204633, 157.923841)">
                            <g id="color_lavanda">
                                <mask id="mask-6" fill="white">
                                    <use xlink:href="#path-5"></use>
                                </mask>
                                <use id="Mask" fill="#E8E8E8" xlink:href="#path-5"></use>
                                <g id="color/clementine" mask="url(#mask-6)" fill="#EE7552">
                                    <rect id="Clementine" x="0" y="0" width="18.996139" height="19.0231788"></rect>
                                </g>
                            </g>
                        </g>
                        <g id="Shape/triangle" transform="translate(47.498069, 104.511589) scale(1, -1) rotate(-30.000000) translate(-47.498069, -104.511589) translate(38.000000, 95.000000)">
                            <g id="color_lavanda">
                                <mask id="mask-8" fill="white">
                                    <use xlink:href="#path-7"></use>
                                </mask>
                                <use id="Mask" fill="#E8E8E8" xlink:href="#path-7"></use>
                                <g id="color/ocean" mask="url(#mask-8)" fill="#4FC5D5">
                                    <rect id="Ocean" x="0" y="0" width="18.996139" height="19.0231788"></rect>
                                </g>
                            </g>
                        </g>
                        <g id="Shape/triangle" transform="translate(101.498069, 43.511589) scale(1, -1) rotate(-30.000000) translate(-101.498069, -43.511589) translate(92.000000, 34.000000)">
                            <g id="color_lavanda">
                                <mask id="mask-10" fill="white">
                                    <use xlink:href="#path-9"></use>
                                </mask>
                                <use id="Mask" fill="#E8E8E8" xlink:href="#path-9"></use>
                                <g id="color/lavanda" mask="url(#mask-10)" fill="#A594F0">
                                    <rect id="Lavanda" x="0" y="0" width="18.996139" height="19.0231788"></rect>
                                </g>
                            </g>
                        </g>
                        <g id="Shape/triangle" transform="translate(149.048629, 14.394688) scale(1, -1) rotate(-225.000000) translate(-149.048629, -14.394688) translate(139.550560, 4.883099)">
                            <g id="color_lavanda">
                                <mask id="mask-12" fill="white">
                                    <use xlink:href="#path-11"></use>
                                </mask>
                                <use id="Mask" fill="#E8E8E8" xlink:href="#path-11"></use>
                                <g id="color/Petrol" mask="url(#mask-12)" fill="#25204F">
                                    <rect id="color_petrol" x="0" y="0" width="18.996139" height="19.0231788"></rect>
                                </g>
                            </g>
                        </g>
                        <g id="Shape/triangle" transform="translate(398.179034, 250.955958) scale(1, -1) rotate(-332.000000) translate(-398.179034, -250.955958) translate(388.680964, 241.444368)">
                            <g id="color_lavanda">
                                <mask id="mask-14" fill="white">
                                    <use xlink:href="#path-13"></use>
                                </mask>
                                <use id="Mask" fill="#E8E8E8" xlink:href="#path-13"></use>
                                <g id="color/Petrol" mask="url(#mask-14)" fill="#25204F">
                                    <rect id="color_petrol" x="0" y="0" width="18.996139" height="19.0231788"></rect>
                                </g>
                            </g>
                        </g>
                        <g id="Shape/triangle" transform="translate(116.498069, 112.511589) scale(1, -1) rotate(-165.000000) translate(-116.498069, -112.511589) translate(107.000000, 103.000000)">
                            <g id="color_lavanda">
                                <mask id="mask-16" fill="white">
                                    <use xlink:href="#path-15"></use>
                                </mask>
                                <use id="Mask" fill="#E8E8E8" xlink:href="#path-15"></use>
                                <g id="color/peach" mask="url(#mask-16)" fill="#FFAE94">
                                    <rect id="Ocean" x="0" y="0" width="18.996139" height="19.0231788"></rect>
                                </g>
                            </g>
                        </g>
                        <g id="Shape/triangle" transform="translate(158.850626, 343.623888) scale(1, -1) rotate(-165.000000) translate(-158.850626, -343.623888) translate(149.352557, 334.112299)">
                            <g id="color_lavanda">
                                <mask id="mask-18" fill="white">
                                    <use xlink:href="#path-17"></use>
                                </mask>
                                <use id="Mask" fill="#E8E8E8" xlink:href="#path-17"></use>
                                <g id="color/peach" mask="url(#mask-18)" fill="#FFAE94">
                                    <rect id="Ocean" x="0" y="0" width="18.996139" height="19.0231788"></rect>
                                </g>
                            </g>
                        </g>
                    </g>
                    <g id="Group-6-Copy" transform="translate(235.568682, 306.309723) rotate(-105.000000) translate(-235.568682, -306.309723) translate(122.068682, 93.809723)">
                        <g id="Shape/triangle" transform="translate(110.597731, 13.911485) scale(1, -1) rotate(57.000000) translate(-110.597731, -13.911485) translate(101.099662, 4.399896)">
                            <g id="color_lavanda">
                                <mask id="mask-20" fill="white">
                                    <use xlink:href="#path-19"></use>
                                </mask>
                                <use id="Mask" fill="#E8E8E8" xlink:href="#path-19"></use>
                                <g id="color/yellow" mask="url(#mask-20)" fill="#F3D239">
                                    <rect id="Yellow" x="0" y="0" width="18.996139" height="19.0231788"></rect>
                                </g>
                            </g>
                        </g>
                        <g id="Shape/triangle" transform="translate(213.882444, 45.727646) scale(1, -1) rotate(-30.000000) translate(-213.882444, -45.727646) translate(204.384375, 36.216056)">
                            <g id="color_lavanda">
                                <mask id="mask-22" fill="white">
                                    <use xlink:href="#path-21"></use>
                                </mask>
                                <use id="Mask" fill="#E8E8E8" xlink:href="#path-21"></use>
                                <g id="color/clementine" mask="url(#mask-22)" fill="#EE7552">
                                    <rect id="Clementine" x="0" y="0" width="18.996139" height="19.0231788"></rect>
                                </g>
                            </g>
                        </g>
                        <g id="Shape/triangle" transform="translate(40.498069, 173.511589) scale(1, -1) rotate(-30.000000) translate(-40.498069, -173.511589) translate(31.000000, 164.000000)">
                            <g id="color_lavanda">
                                <mask id="mask-24" fill="white">
                                    <use xlink:href="#path-23"></use>
                                </mask>
                                <use id="Mask" fill="#E8E8E8" xlink:href="#path-23"></use>
                                <g id="color/lavanda" mask="url(#mask-24)" fill="#A594F0">
                                    <rect id="Lavanda" x="0" y="0" width="18.996139" height="19.0231788"></rect>
                                </g>
                            </g>
                        </g>
                        <g id="Shape/triangle" transform="translate(14.152265, 26.451558) scale(1, -1) rotate(-225.000000) translate(-14.152265, -26.451558) translate(4.654196, 16.939969)">
                            <g id="color_lavanda">
                                <mask id="mask-26" fill="white">
                                    <use xlink:href="#path-25"></use>
                                </mask>
                                <use id="Mask" fill="#E8E8E8" xlink:href="#path-25"></use>
                                <g id="color/Petrol" mask="url(#mask-26)" fill="#25204F">
                                    <rect id="color_petrol" x="0" y="0" width="18.996139" height="19.0231788"></rect>
                                </g>
                            </g>
                        </g>
                        <g id="Shape/triangle" transform="translate(109.498069, 181.511589) scale(1, -1) rotate(-165.000000) translate(-109.498069, -181.511589) translate(100.000000, 172.000000)">
                            <g id="color_lavanda">
                                <mask id="mask-28" fill="white">
                                    <use xlink:href="#path-27"></use>
                                </mask>
                                <use id="Mask" fill="#E8E8E8" xlink:href="#path-27"></use>
                                <g id="color/peach" mask="url(#mask-28)" fill="#FFAE94">
                                    <rect id="Ocean" x="0" y="0" width="18.996139" height="19.0231788"></rect>
                                </g>
                            </g>
                        </g>
                        <g id="Shape/triangle" transform="translate(151.850626, 412.623888) scale(1, -1) rotate(-165.000000) translate(-151.850626, -412.623888) translate(142.352557, 403.112299)">
                            <g id="color_lavanda">
                                <mask id="mask-30" fill="white">
                                    <use xlink:href="#path-29"></use>
                                </mask>
                                <use id="Mask" fill="#E8E8E8" xlink:href="#path-29"></use>
                                <g id="color/peach" mask="url(#mask-30)" fill="#FFAE94">
                                    <rect id="Ocean" x="0" y="0" width="18.996139" height="19.0231788"></rect>
                                </g>
                            </g>
                        </g>
                    </g>
                </g>
                <g id="Group-40-Copy-2" transform="translate(98.000000, 57.133333)">
                    <g id="Group-39" transform="translate(81.000000, 109.366667) rotate(-14.000000) translate(-81.000000, -109.366667) translate(22.000000, 11.866667)">
                        <mask id="mask-32" fill="white">
                            <use xlink:href="#path-31"></use>
                        </mask>
                        <use id="Mask" fill="#EE7552" fill-rule="nonzero" xlink:href="#path-31"></use>
                        <g mask="url(#mask-32)">
                            <g transform="translate(-54.448621, -25.033646)">
                                <g id="Group-38" stroke="none" stroke-width="1" fill="none" fill-rule="evenodd" transform="translate(159.930727, 149.316779) rotate(-60.000000) translate(-159.930727, -149.316779) translate(100.930727, -0.183221)">
                                    <ellipse id="Oval" fill="#4FC5D5" cx="72.4263844" cy="46.0187161" rx="45.5052881" ry="45.5609103"></ellipse>
                                    <ellipse id="Oval-Copy-8" fill="#FAD100" cx="45.5187371" cy="163.771205" rx="45.5052881" ry="45.5609103"></ellipse>
                                    <g id="Square-Copy-23" transform="translate(74.471572, 220.266198) scale(1, -1) rotate(57.000000) translate(-74.471572, -220.266198) translate(57.471572, 202.766198)">
                                        <g id="color_lavanda" transform="translate(0.000000, 0.000000)">
                                            <mask id="mask-34" fill="white">
                                                <use xlink:href="#path-33"></use>
                                            </mask>
                                            <use id="Mask" fill="#FFAE94" xlink:href="#path-33"></use>
                                        </g>
                                    </g>
                                    <g id="Square-Copy-25" transform="translate(46.144413, 251.028763) scale(1, -1) rotate(-30.000000) translate(-46.144413, -251.028763) translate(28.644413, 233.528763)">
                                        <g id="color_lavanda" transform="translate(-0.000000, 0.000000)">
                                            <mask id="mask-36" fill="white">
                                                <use xlink:href="#path-35"></use>
                                            </mask>
                                            <use id="Mask" fill="#4FC5D5" xlink:href="#path-35"></use>
                                            <mask id="mask-38" fill="white">
                                                <use xlink:href="#path-37"></use>
                                            </mask>
                                            <use id="Mask-Copy-4" fill="#FAD100" transform="translate(111.680169, 31.283765) rotate(-60.000000) translate(-111.680169, -31.283765) " xlink:href="#path-37"></use>
                                        </g>
                                    </g>
                                    <g id="Square-Copy-24" transform="translate(74.696751, 274.255894) scale(1, -1) rotate(-30.000000) translate(-74.696751, -274.255894) translate(57.196751, 256.755894)">
                                        <g id="color_lavanda" transform="translate(-0.000000, 0.000000)">
                                            <mask id="mask-40" fill="white">
                                                <use xlink:href="#path-39"></use>
                                            </mask>
                                            <use id="Mask" fill="#A594F0" xlink:href="#path-39"></use>
                                        </g>
                                    </g>
                                </g>
                                <path d="M276.277757,6.73073316 C294.856015,6.74797295 309.912362,21.8043351 309.929583,40.3825931 L310.015265,132.814852 C310.032445,151.34862 295.021784,166.387135 276.488016,166.404315 C276.467267,166.404334 276.446517,166.404334 276.425768,166.404315 C257.84751,166.387075 242.791163,151.330713 242.773942,132.752455 L242.68826,40.3201962 C242.67108,21.7864281 257.681741,6.74791323 276.215509,6.73073313 C276.236258,6.73071389 276.257007,6.7307139 276.277757,6.73073316 Z" id="Rectangle" stroke="none" fill="#25204F" fill-rule="evenodd" transform="translate(276.351762, 86.567524) rotate(-330.000000) translate(-276.351762, -86.567524) "></path>
                                <mask id="mask-42" fill="white">
                                    <use xlink:href="#path-41"></use>
                                </mask>
                                <use id="Mask-Copy" stroke="none" fill="#FFAE94" fill-rule="evenodd" transform="translate(139.596796, 82.202321) rotate(-225.000000) translate(-139.596796, -82.202321) " xlink:href="#path-41"></use>
                                <mask id="mask-44" fill="white">
                                    <use xlink:href="#path-43"></use>
                                </mask>
                                <use id="Mask-Copy-2" stroke="none" fill="#25204F" fill-rule="evenodd" transform="translate(79.996435, 182.248653) rotate(-312.000000) translate(-79.996435, -182.248653) " xlink:href="#path-43"></use>
                                <mask id="mask-46" fill="white">
                                    <use xlink:href="#path-45"></use>
                                </mask>
                                <use id="Mask-Copy-3" stroke="none" fill="#A594F0" fill-rule="evenodd" transform="translate(88.020637, 204.385549) rotate(-210.000000) translate(-88.020637, -204.385549) " xlink:href="#path-45"></use>
                            </g>
                        </g>
                    </g>
                    <g id="Group-39" transform="translate(272.000000, 300.366667) rotate(129.000000) translate(-272.000000, -300.366667) translate(213.000000, 184.866667)">
                        <mask id="mask-48" fill="white">
                            <use xlink:href="#path-47"></use>
                        </mask>
                        <use id="Mask" fill="#EE7552" fill-rule="nonzero" xlink:href="#path-47"></use>
                        <g mask="url(#mask-48)">
                            <g transform="translate(-209.790464, -90.456596)">
                                <g id="Group-38" stroke-width="1" fill="none" transform="translate(200.378549, 193.228674) rotate(-60.000000) translate(-200.378549, -193.228674) translate(65.878549, 39.728674)">
                                    <ellipse id="Oval" fill="#4FC5D5" cx="80.600954" cy="46.1704261" rx="45.5052881" ry="45.7111111"></ellipse>
                                    <ellipse id="Oval-Copy-8" fill="#FAD100" cx="53.6933066" cy="164.31111" rx="45.5052881" ry="45.7111111"></ellipse>
                                    <g id="Square-Copy-23" transform="translate(59.597244, 214.093140) scale(1, -1) rotate(57.000000) translate(-59.597244, -214.093140) translate(17.097244, 171.093140)">
                                        <g id="color_lavanda" transform="translate(0.000000, -0.000000)">
                                            <mask id="mask-50" fill="white">
                                                <use xlink:href="#path-49"></use>
                                            </mask>
                                            <use id="Mask" fill="#FFAE94" xlink:href="#path-49"></use>
                                        </g>
                                    </g>
                                    <mask id="mask-52" fill="white">
                                        <use xlink:href="#path-51"></use>
                                    </mask>
                                    <use id="Mask" fill="#4FC5D5" transform="translate(129.353986, 257.177497) scale(1, -1) rotate(-30.000000) translate(-129.353986, -257.177497) " xlink:href="#path-51"></use>
                                    <mask id="mask-54" fill="white">
                                        <use xlink:href="#path-53"></use>
                                    </mask>
                                    <use id="Mask-Copy-4" fill="#FAD100" transform="translate(235.656894, 152.374049) scale(1, -1) rotate(-90.000000) translate(-235.656894, -152.374049) " xlink:href="#path-53"></use>
                                    <g id="Square-Copy-24" mask="url(#mask-54)">
                                        <g transform="translate(89.726630, 291.352841) scale(1, -1) rotate(-30.000000) translate(-89.726630, -291.352841) translate(53.226630, 254.352841)" id="color_lavanda">
                                            <g transform="translate(-0.000000, 0.000000)">
                                                <mask id="mask-56" fill="white">
                                                    <use xlink:href="#path-55"></use>
                                                </mask>
                                                <use id="Mask" fill="#A594F0" xlink:href="#path-55"></use>
                                            </g>
                                        </g>
                                    </g>
                                </g>
                                <path d="M273.651266,94.0928865 C292.260328,94.1367261 307.335015,109.211509 307.378735,127.820572 L307.596696,220.592331 C307.640152,239.088603 292.681188,254.118022 274.184916,254.161477 C274.132389,254.161601 274.079862,254.161601 274.027335,254.161477 C255.418273,254.117637 240.343586,239.042854 240.299865,220.433791 L240.081905,127.662033 C240.038449,109.165761 254.997413,94.1363416 273.493685,94.092886 C273.546212,94.0927626 273.598739,94.0927627 273.651266,94.0928865 Z" id="Rectangle" fill="#25204F" transform="translate(273.839300, 174.127182) rotate(-330.000000) translate(-273.839300, -174.127182) "></path>
                                <g id="Mask-Copy-2-+-Mask-Copy-3-Mask" stroke-width="1" fill="none" transform="translate(132.183678, 142.046611)">
                                    <mask id="mask-58" fill="white">
                                        <use xlink:href="#path-57"></use>
                                    </mask>
                                    <use id="Mask" fill="#25204F" transform="translate(24.194532, 24.439141) rotate(-225.000000) translate(-24.194532, -24.439141) " xlink:href="#path-57"></use>
                                    <mask id="mask-60" fill="white">
                                        <use xlink:href="#path-59"></use>
                                    </mask>
                                    <use id="Mask-Copy-2" fill="#25204F" transform="translate(-48.444534, 141.032642) rotate(-312.000000) translate(48.444534, -141.032642) " xlink:href="#path-59"></use>
                                    <mask id="mask-62" fill="white">
                                        <use xlink:href="#path-61"></use>
                                    </mask>
                                    <use id="Mask-Copy-3" fill="#A594F0" transform="translate(-20.716427, 181.251440) rotate(-312.000000) translate(20.716427, -181.251440) " xlink:href="#path-61"></use>
                                </g>
                            </g>
                        </g>
                    </g>
                </g>
            </g>
        </g>
    </g>
</svg>