<svg xmlns="http://www.w3.org/2000/svg" width="35" height="35" fill="none" viewBox="0 0 35 35">
    <path fill="#25204F" fill-rule="evenodd" d="M17.5 0C7.835 0 0 7.835 0 17.5S7.835 35 17.5 35 35 27.165 35 17.5 27.165 0 17.5 0zm-3.848 8.223c.996-.045 1.314-.056 3.849-.056h-.003c2.535 0 2.852.01 3.848.056.994.046 1.672.203 2.267.434.615.238 1.134.557 1.653 1.076.52.519.838 1.04 1.077 1.653.23.594.387 1.272.434 2.266.045.995.056 1.313.056 3.848s-.011 2.852-.056 3.848c-.047.993-.204 1.672-.434 2.265-.239.614-.558 1.134-1.077 1.653-.518.52-1.038.84-1.652 1.078-.594.23-1.273.388-2.267.433-.995.045-1.312.056-3.847.056s-2.853-.01-3.848-.056c-.994-.045-1.672-.203-2.266-.434-.614-.238-1.134-.558-1.653-1.077-.519-.518-.838-1.04-1.076-1.653-.23-.593-.388-1.272-.434-2.265-.045-.996-.056-1.313-.056-3.848s.011-2.853.056-3.849c.045-.993.202-1.671.433-2.265.24-.614.559-1.134 1.078-1.653.518-.519 1.04-.838 1.653-1.076.593-.231 1.272-.388 2.265-.434z" clip-rule="evenodd"/>
    <path fill="#25204F" fill-rule="evenodd" d="M16.663 9.849h.837c2.493 0 2.788.009 3.772.054.91.041 1.404.193 1.733.321.436.17.746.371 1.073.698.326.327.529.638.698 1.073.128.33.28.823.322 1.733.044.984.054 1.28.054 3.77 0 2.491-.01 2.787-.054 3.77-.042.91-.194 1.405-.322 1.733-.169.436-.372.746-.698 1.072-.327.327-.637.53-1.073.698-.328.129-.823.28-1.733.322-.984.045-1.28.055-3.771.055-2.492 0-2.788-.01-3.772-.055-.91-.042-1.404-.194-1.733-.322-.435-.169-.746-.371-1.073-.698-.327-.326-.529-.637-.698-1.073-.128-.328-.28-.822-.322-1.732-.045-.984-.054-1.28-.054-3.772s.01-2.786.054-3.77c.042-.91.194-1.404.322-1.733.169-.436.371-.747.698-1.074.327-.326.638-.529 1.073-.698.33-.128.823-.28 1.733-.322.861-.039 1.195-.05 2.934-.052v.002zm5.82 1.55c-.618 0-1.12.5-1.12 1.12 0 .618.502 1.12 1.12 1.12.618 0 1.12-.502 1.12-1.12 0-.619-.502-1.12-1.12-1.12zM12.708 17.5c0-2.646 2.146-4.793 4.793-4.793 2.647 0 4.792 2.146 4.792 4.793 0 2.648-2.145 4.793-4.792 4.793s-4.793-2.145-4.793-4.793z" clip-rule="evenodd"/>
    <path fill="#25204F" d="M17.5 14.389c1.719 0 3.112 1.393 3.112 3.11 0 1.719-1.393 3.112-3.111 3.112-1.719 0-3.111-1.393-3.111-3.111 0-1.719 1.393-3.111 3.11-3.111z"/>
</svg>
