<svg xmlns="http://www.w3.org/2000/svg" width="35" height="35" viewBox="0 0 35 35">
    <g fill="#4FC5D5">
        <path d="M0 17.5C0 7.835 7.835 0 17.5 0S35 7.835 35 17.5 27.165 35 17.5 35 0 27.165 0 17.5zm17.5-9.333c-2.534 0-2.852.01-3.848.056-.993.046-1.671.203-2.265.434-.614.238-1.135.557-1.653 1.076-.52.519-.838 1.04-1.078 1.653-.23.594-.388 1.272-.433 2.265-.045.996-.056 1.314-.056 3.85 0 2.534.01 2.851.056 3.847.046.993.203 1.671.434 2.265.238.614.557 1.135 1.076 1.653.519.52 1.04.84 1.653 1.078.594.23 1.272.388 2.266.433.995.045 1.313.057 3.848.057s2.852-.012 3.847-.057c.994-.045 1.673-.203 2.267-.433.614-.239 1.134-.559 1.652-1.078.52-.518.838-1.04 1.077-1.653.23-.594.387-1.272.434-2.265.045-.996.056-1.313.056-3.848s-.011-2.853-.056-3.848c-.047-.994-.204-1.672-.434-2.266-.239-.614-.558-1.134-1.077-1.653-.52-.52-1.038-.838-1.653-1.076-.595-.231-1.273-.388-2.267-.434-.996-.045-1.312-.056-3.848-.056h.003z"/>
        <path d="M16.664 9.849h.837c2.492 0 2.787.009 3.771.053.91.042 1.404.194 1.733.322.436.169.746.371 1.073.698.327.326.529.638.698 1.073.128.329.28.823.322 1.733.044.984.054 1.28.054 3.77s-.01 2.786-.054 3.77c-.042.91-.194 1.404-.322 1.733-.169.435-.371.745-.698 1.072-.327.327-.637.529-1.073.698-.328.128-.823.28-1.733.322-.984.044-1.28.054-3.771.054-2.492 0-2.788-.01-3.772-.054-.91-.042-1.404-.194-1.733-.322-.435-.17-.746-.372-1.073-.698-.327-.327-.529-.637-.699-1.073-.127-.329-.28-.822-.32-1.733-.046-.983-.055-1.279-.055-3.771 0-2.493.01-2.787.054-3.77.042-.91.194-1.405.321-1.734.17-.435.372-.746.699-1.073.327-.327.638-.529 1.073-.698.33-.129.823-.28 1.733-.322.861-.04 1.195-.05 2.935-.053v.003zm5.819 1.55c-.618 0-1.12.5-1.12 1.119 0 .618.502 1.12 1.12 1.12.618 0 1.12-.502 1.12-1.12 0-.618-.502-1.12-1.12-1.12zm-4.982 1.308c-2.647 0-4.793 2.146-4.793 4.793 0 2.647 2.146 4.792 4.793 4.792 2.647 0 4.792-2.145 4.792-4.792s-2.145-4.793-4.792-4.793z"/>
        <path d="M17.5 14.389c1.719 0 3.112 1.393 3.112 3.111 0 1.718-1.393 3.111-3.111 3.111-1.718 0-3.111-1.393-3.111-3.11 0-1.72 1.393-3.112 3.11-3.112z"/>
    </g>
</svg>
