<?xml version="1.0" encoding="UTF-8"?>
<svg width="329px" height="55px" viewBox="0 0 329 55" version="1.1" xmlns="http://www.w3.org/2000/svg" xmlns:xlink="http://www.w3.org/1999/xlink">
    <!-- Generator: Sketch 61 (89581) - https://sketch.com -->
    <title>Group 40 Copy</title>
    <desc>Created with Sketch.</desc>
    <defs>
        <path d="M14.1702242,0.0880488557 L14.2468275,0.0880488557 L14.3231564,0.0945476663 C17.696799,0.381787299 20.3480823,2.0845319 22.2323802,4.93542284 C23.788586,7.28991939 24.7953877,10.3708757 25.3593726,14.0624879 C26.1551979,19.2716308 26.0421867,24.7086437 25.4404033,30.9328174 L25.4103191,31.240554 L25.4072736,31.2647562 C25.0938709,33.7553101 24.1451274,36.4199516 22.6232131,38.5151623 C20.6051085,41.2934753 17.7273218,42.9153581 14.1041869,42.9153581 C8.047044,42.9153581 4.07254419,39.4039358 1.95967098,33.5175424 C0.594737941,29.7148851 0.117393901,25.5502249 0.0815655468,20.6453745 L0.0793467125,20.1974294 L0.0793467125,19.8202208 C0.0894614868,14.8151053 0.557146945,11.0793935 2.0409961,7.71710859 C4.15904732,2.91777187 8.0982553,0.14388041 13.9910563,0.0888825144 L14.1702242,0.0880488557 Z M12.8157941,11.4790536 C11.8900125,11.4790536 11.0060194,12.2918658 10.2806865,13.8103087 C9.68450016,15.0583907 9.28681272,16.676763 9.27350306,17.5232834 L9.27315837,17.5913423 L9.2625851,17.8635306 C9.24296167,18.4098239 9.23369508,18.9421431 9.23037717,19.5988193 L9.22907124,20.0049007 L9.22879432,20.524786 C9.22879432,25.0491424 9.743389,28.1262996 10.6832244,29.92866 C11.4030152,31.3090321 12.3031576,31.8565636 13.5699829,31.8565636 C14.7532933,31.8565636 15.635572,30.6943777 16.1919518,28.389565 C16.6073938,26.6685894 16.748159,24.8075589 16.7572047,22.68669 L16.757619,22.5416813 L16.7577062,22.2729382 C16.7577062,20.5321487 16.4185259,17.7723279 15.8110725,15.6320189 C15.0444502,12.9308918 13.9747285,11.4790536 12.8157941,11.4790536 Z" id="path-1"></path>
        <path d="M3.74634122,0.123306208 C4.6027655,0.123306208 5.29703456,0.817575264 5.29703456,1.67399955 C5.29703456,2.08434681 5.13438823,2.47796485 4.84472733,2.76862175 L2.65701997,4.96385165 C2.05333578,5.56961164 1.07288754,5.5712944 0.467127554,4.9676102 C0.175578964,4.67706068 0.0117044248,4.28239085 0.0117044248,3.87078472 L0.0117044248,3.857943 C0.0117044248,1.79536006 1.68375827,0.123306208 3.74634122,0.123306208 Z" id="path-3"></path>
        <path d="M3.7633505,0.163180825 C4.61977478,0.163180825 5.31404384,0.857449881 5.31404384,1.71387416 C5.31404384,2.12422142 5.15139751,2.51783946 4.86173662,2.80849637 L2.67402925,5.00372626 C2.07034506,5.60948625 1.08989683,5.61116902 0.484136836,5.00748482 C0.192588245,4.7169353 0.028713706,4.32226546 0.028713706,3.91065933 L0.028713706,3.89781762 C0.028713706,1.83523467 1.70076755,0.163180825 3.7633505,0.163180825 Z" id="path-5"></path>
        <path d="M24.6086402,3.15922188 L24.6122433,3.15921731 C25.4663562,3.15813428 26.1596295,3.84965163 26.1607126,4.70376454 C26.1612338,5.11486155 25.9980548,5.50924926 25.7072252,5.79979905 L23.5052156,7.9996902 C22.9007354,8.60358881 21.9211508,8.60311736 21.3172522,7.99863719 C21.0269511,7.70805647 20.8641162,7.3139626 20.8646378,6.90321736 C20.8672622,4.83655109 22.5419739,3.16184246 24.6086402,3.15922188 Z" id="path-7"></path>
        <path d="M3.7633505,0.163180825 C4.61977478,0.163180825 5.31404384,0.857449881 5.31404384,1.71387416 C5.31404384,2.12422142 5.15139751,2.51783946 4.86173662,2.80849637 L2.67402925,5.00372626 C2.07034506,5.60948625 1.08989683,5.61116902 0.484136836,5.00748482 C0.192588245,4.7169353 0.028713706,4.32226546 0.028713706,3.91065933 L0.028713706,3.89781762 C0.028713706,1.83523467 1.70076755,0.163180825 3.7633505,0.163180825 Z" id="path-9"></path>
        <path d="M31.2094006,11.2291417 C32.7840359,11.2268345 34.0624004,12.5014582 34.0647076,14.0760935 C34.0658177,14.8337078 33.7653481,15.5606114 33.2296333,16.0963262 L29.1689546,20.157005 C28.0555181,21.2704415 26.2502809,21.2704415 25.1368444,20.157005 C24.6011296,19.6212902 24.30066,18.8943865 24.3017701,18.1367722 C24.3073566,14.3241097 27.396738,11.2347283 31.2094006,11.2291417 Z" id="path-11"></path>
        <path d="M18.065242,33.8146969 L18.0671964,33.8146997 C19.5296732,33.8168305 20.7135174,35.0041296 20.7113866,36.4666063 C20.710365,37.1677163 20.4313421,37.8398061 19.9355059,38.3354902 L16.2160996,42.0537557 C15.1816808,43.0878572 13.5048137,43.0876 12.4707122,42.0531812 C11.9751642,41.5574812 11.6963286,40.8855521 11.6953071,40.1846346 C11.6901872,36.671735 14.5338045,33.8198168 18.0467041,33.8146969 C18.0528834,33.8146879 18.0590627,33.8146879 18.065242,33.8146969 Z" id="path-13"></path>
        <path d="M19.8431558,38.6815431 C21.3010542,38.6796917 22.4844152,39.8600511 22.4862665,41.3179495 C22.4871559,42.0183202 22.2096836,42.6903368 21.714933,43.1860602 L17.9640474,46.9443207 C16.935005,47.9753864 15.2649574,47.9770266 14.2338917,46.9479841 C13.7373007,46.4523676 13.4586306,45.7793265 13.4595203,45.07773 L13.4595362,45.0651745 C13.4640044,41.5414493 16.3194306,38.6860178 19.8431558,38.6815431 Z" id="path-15"></path>
        <path d="M14.2131927,0 L14.305134,0.00949508433 C17.738925,0.364113923 20.383859,2.42451071 22.2344454,5.82063082 C23.745863,8.5943223 24.7269034,12.2357455 25.2785369,16.6154204 C26.0519059,22.7555557 25.9534746,29.1858118 25.379119,36.5281231 L25.3263334,37.1892042 L25.3242312,37.209467 C25.0221775,40.1209888 24.1051137,43.2451409 22.6323471,45.7044555 C20.6433193,49.0258543 17.7554622,51 14.0549981,51 C10.7788509,51 8.04603484,49.7506924 5.91678825,47.4372399 C4.12301652,45.4882849 2.80414801,42.8456277 1.86998582,39.6200224 C0.549828079,35.0615979 0.103778929,30.1126764 0.0803288033,24.2079116 L0.079342999,23.7066294 L0.079342999,23.4700411 C0.0892802415,17.5071741 0.547133583,13.0712047 1.98946316,9.10703791 C4.06143764,3.41232523 7.97845934,0.0673358009 13.9395059,0.00100548349 L14.1207695,0 L14.2131927,0 Z M12.7697334,12.793453 C11.9135255,12.793453 10.9991469,13.8136597 10.2536099,15.7075338 C9.63197386,17.2866644 9.21844091,19.3302947 9.2054695,20.4328037 L9.20515528,20.506417 L9.19861417,20.7054572 C9.17259005,21.5326446 9.16276984,22.3156469 9.1608828,23.3707736 L9.16056094,23.6420304 L9.16045501,24.1024915 L9.16108743,24.4361088 C9.18173614,29.8506003 9.7075166,33.5714616 10.6637961,35.796797 L10.7146068,35.9128732 C11.4546883,37.5723401 12.3406428,38.206547 13.5296379,38.206547 C14.6446815,38.206547 15.582847,36.7069655 16.1562552,33.8246008 C16.5835904,31.6765046 16.72715,29.3696032 16.7361297,26.7405056 L16.736526,26.5685842 L16.736614,26.2398575 C16.736614,24.071497 16.3906776,20.6558961 15.7689233,17.9976012 C14.9857481,14.6491558 13.8589653,12.793453 12.7697334,12.793453 Z" id="path-17"></path>
        <path d="M9.33475785,0.113159415 C11.4737458,0.113159415 13.2077381,1.84715173 13.2077381,3.98613965 C13.2077381,5.00799678 12.8038982,5.98844666 12.0842071,6.71386848 L6.63745367,12.2039935 C5.13591164,13.717492 2.69173832,13.7271847 1.17823977,12.2256427 C0.447665576,11.50084 0.036744603,10.5143261 0.036744603,9.48521114 L0.036744603,9.41117266 C0.036744603,4.27602174 4.19960693,0.113159415 9.33475785,0.113159415 Z" id="path-19"></path>
        <path d="M28.9679783,48.8146211 C30.7797667,48.8087819 32.2532451,50.2727931 32.2590843,52.0845815 C32.2618934,52.9561923 31.9177239,53.7930901 31.3025409,54.4105552 L26.6031091,59.1274196 C25.3262931,60.408972 23.2523257,60.4128116 21.9707732,59.1359956 C21.3512785,58.5187904 21.0043004,57.6794979 21.0071083,56.8050221 L21.0072032,56.7754913 C21.0213017,52.3847143 24.5772014,48.8287721 28.9679783,48.8146211 Z" id="path-21"></path>
        <path d="M52.31051,26.323143 L52.3650782,26.323143 C54.042775,26.323143 55.402817,27.683185 55.402817,29.3608818 C55.402817,30.170451 55.0796645,30.9465299 54.5050902,31.5168514 L50.1863377,35.8036382 C48.9919587,36.9891767 47.0626544,36.9820102 45.8771159,35.7876313 C45.3105627,35.2168534 44.9926293,34.4452438 44.9926293,33.6410238 C44.9926293,29.5994699 48.2689561,26.323143 52.31051,26.323143 Z" id="path-23"></path>
        <path d="M7.9681011,0.166407821 C9.78955757,0.166407821 11.2661398,1.64299004 11.2661398,3.46444651 C11.2661398,4.33489639 10.9220235,5.17005032 10.3088131,5.78783339 L5.66899686,10.4622479 C4.38976827,11.7510155 2.30799605,11.7587484 1.01922848,10.4795198 C0.397336259,9.86223059 0.0475712946,9.02223928 0.0475712946,8.14599966 L0.0475712946,8.08693762 C0.0475712946,3.7125498 3.59371328,0.166407821 7.9681011,0.166407821 Z" id="path-25"></path>
        <path d="M5.3449299,1.6452107 C6.19826555,1.64204093 6.89260039,2.33123656 6.89577016,3.18457221 C6.89729923,3.59621415 6.73450463,3.9914488 6.44350037,4.28259814 L4.21982786,6.50737923 C3.61669853,7.11080924 2.63858893,7.11105299 2.03515892,6.50792366 C1.74388058,6.21679047 1.58090781,5.82140308 1.58243756,5.40957877 L1.58244455,5.40769605 C1.59015139,3.33293343 3.27016728,1.65291754 5.3449299,1.6452107 Z" id="path-27"></path>
        <path d="M-10.6787139,24.7596112 L-10.6737482,24.7596295 C-9.20348315,24.7650589 -8.01599917,25.9613456 -8.02142854,27.4316107 C-8.02402456,28.1346104 -8.30458237,28.8080455 -8.80187528,29.3049509 L-12.5018877,33.0020806 C-13.5422731,34.0416554 -15.2284141,34.0409983 -16.2679889,33.0006129 C-16.7645462,32.5036684 -17.044626,31.8306447 -17.0472222,31.1281377 C-17.0601728,27.6238483 -14.2298835,24.7725619 -10.7255941,24.7596113 C-10.7099675,24.7595535 -10.6943406,24.7595535 -10.6787139,24.7596112 Z" id="path-29"></path>
        <path d="M-4.56913102,33.6390861 L-4.56416532,33.6391044 C-3.09390022,33.6445338 -1.90641624,34.8408205 -1.91184561,36.3110856 C-1.91444163,37.0140853 -2.19499944,37.6875204 -2.69229235,38.1844258 L-6.39230479,41.8815555 C-7.43269022,42.9211303 -9.11883116,42.9204732 -10.158406,41.8800877 C-10.6549632,41.3831433 -10.935043,40.7101196 -10.9376393,40.0076126 C-10.9505899,36.5033232 -8.1203006,33.6520368 -4.6160112,33.6390861 C-4.60038453,33.6390284 -4.5847577,33.6390284 -4.56913102,33.6390861 Z" id="path-31"></path>
    </defs>
    <g id="MVP-desktop" stroke="none" stroke-width="1" fill="none" fill-rule="evenodd">
        <g id="About-&amp;-FAQs" transform="translate(-54.000000, -36.000000)">
            <g id="Group-40-Copy" transform="translate(54.000000, 36.000000)">
                <path d="M14.0262379,20.8457335 L14.0271698,20.8477737 C14.0387693,20.8780647 11.9532889,17.3002515 11.5977849,16.5152562 C10.976587,15.1435773 10.806065,13.9581069 11.0748756,12.2270484 L11.0922482,12.1181403 C11.3618789,10.3950391 11.8105715,9.28893939 12.377326,8.64386986 C12.7813515,8.18401545 13.2639377,7.94117048 13.9400471,7.82731886 L14.0239653,7.81383818 C14.3862923,7.75852347 14.739977,7.74288905 15.4164392,7.74195133 L15.735467,7.74200346 C16.7898757,7.74056878 17.2349117,7.70458527 17.8330656,7.50750435 C18.9375,7.14361317 19.7012001,6.27720001 19.922142,5.01406157 C20.1876345,3.45298626 19.7746462,2.13843156 18.6753806,1.3111772 L18.6177943,1.26865409 C17.9047113,0.752089306 17.0834947,0.525433395 15.868785,0.377121267 L15.7932059,0.368211112 L15.6758062,0.353428291 C15.2153189,0.298052027 14.8525268,0.286821705 14.1681724,0.286821705 C8.2829474,0.286821705 4.92534966,4.09786041 3.80352069,10.7451546 L3.79883163,10.7742978 C3.19863197,14.6958722 3.97071325,17.607922 6.22712026,21.3312499 L7.05229875,22.6919681 C7.91178099,24.1144624 8.34817052,24.8609297 8.87492441,25.8093665 L9.04893762,26.1251468 C11.8545912,31.2575413 12.8693128,35.1603066 12.1837818,39.6794097 L12.1466529,39.9089581 C11.5438987,43.5642215 10.8102537,44.5240683 8.57645972,44.1489706 L8.42577206,44.1229998 C8.07662541,44.0553556 7.90437567,43.8663993 7.45237482,43.0430294 L7.28317595,42.7337622 C6.91120139,42.0598707 6.67679819,41.7001228 6.29815335,41.2888994 C5.68614504,40.624234 4.93126124,40.1908857 4.01431563,40.0347464 L3.87531928,40.0110778 L3.73451187,40.0110778 L3.67780453,40.0115898 C1.95776077,40.042609 0.250484305,41.4791307 0.075289922,43.2528402 L0.0688710817,43.3236643 L0.048565326,43.4322743 C0.0422002718,43.4677768 0.0372020199,43.4981691 0.0314731495,43.5362687 C0.0117833858,43.6672146 0,43.7927163 0,43.934959 C0,45.9041118 1.14062874,47.6335207 2.94919777,49.0246019 C4.32746235,50.0847096 6.05987757,50.8930824 7.49984467,51.1744438 L7.63896297,51.2002605 L7.78477694,51.2188409 C8.25685104,51.2757244 8.64899184,51.2868217 9.43141856,51.2868217 C15.2588624,51.2868217 18.3140184,47.78346 19.4139016,41.0187123 C19.9957526,37.3528847 19.6607215,33.9309928 18.5075176,30.3872643 L18.4528623,30.2210614 C17.5756482,27.5809488 16.545118,25.4523069 14.2434693,21.2425006 L14.0262379,20.8457335 Z" id="Path-Copy-12" fill="#25204F" fill-rule="nonzero"></path>
                <path d="M46.2643667,11.2868217 C41.5481983,11.2868217 37.6292236,12.9235453 34.5762275,15.8486178 C32.1950189,18.1300512 30.4561278,21.0887702 29.3790922,24.2678252 L29.3248981,24.4296597 C27.4600313,29.9416285 27.5195821,36.3793639 29.7854463,41.4274451 C32.4956827,47.4655356 38.0357392,51.0894388 45.9921503,51.2818104 L46.2643667,51.2868217 C47.7753864,51.2868217 49.1801844,51.0729303 50.1923303,50.5887708 L50.2486303,50.5613349 C52.074414,49.6550223 52.5901213,47.7654333 51.2338985,46.0600086 L51.2078313,46.0277037 C50.5999433,45.2647681 49.7568064,44.9358015 48.7006926,44.8270696 L48.621085,44.8193243 C48.0635042,44.7681769 47.6526706,44.7711126 46.5753245,44.8162413 L45.8776819,44.8451995 C45.1555105,44.8722853 44.7148267,44.8743889 44.2377796,44.8488112 C43.2724054,44.7970508 42.5462839,44.6230631 42.0019236,44.3052935 C39.4104481,42.8063535 37.932551,41.1735469 37.1303471,39.1136663 C36.4302442,37.3159585 36.2022922,35.2462232 36.2022922,31.6285025 C36.2022922,28.8729967 37.0046697,25.3696619 38.3602718,22.7096708 C39.8736131,19.7401605 41.8368003,18.1437827 44.0942033,18.1437827 L44.5720615,18.1442808 L45.304737,18.1636454 C45.9756021,18.1791532 46.4961549,18.1748903 47.0573744,18.1383601 C48.006107,18.0766063 48.8123081,17.9295535 49.5034855,17.6357728 C50.6681895,17.1407226 51.4634416,16.2165341 51.4634416,14.9349541 C51.4634416,13.5861956 50.5895683,12.5844442 49.3209284,11.9664598 C48.4202215,11.5277042 47.3063147,11.2868217 46.2643667,11.2868217 Z" id="Path-Copy-13" fill="#25204F" fill-rule="nonzero"></path>
                <path d="M76.8586099,10.2868217 C76.069463,10.2868217 75.3233829,10.4366479 74.6973086,10.7699459 C73.7883329,11.2538499 73.1973226,12.1023705 73.1973226,13.1453917 L73.1973226,13.4140097 L73.2045893,13.6343478 C73.3730543,18.9254437 73.1818292,26.6104399 72.7702656,31.9634243 L72.740878,32.3378544 L72.2012611,32.3268167 C70.9989001,32.305007 69.6327617,32.2972263 67.678788,32.2955101 L66.8883415,32.2951985 L66.8816915,31.7839143 L66.8763804,31.172568 C66.8736954,30.7855341 66.8722971,30.4077296 66.8716764,30.0044356 L66.8717023,29.1707209 C66.876983,27.7160017 66.9301986,26.1648879 67.046081,23.8594032 L67.3133737,18.8289508 C67.4405456,16.3348322 67.4861338,14.9713298 67.4884451,13.5038495 L67.488456,13.4005454 C67.4885086,12.9020398 67.2811765,12.4259809 66.9161538,12.0864721 L66.9161538,12.0864721 L66.9161538,12.0864721 C65.8091161,11.0568124 64.9091391,10.5738865 63.4843206,10.5738865 L63.3337541,10.5740004 L63.1584471,10.5752582 C61.9837363,10.5898639 61.2757288,10.7325341 60.4611504,11.3007657 C59.9847386,11.6330999 59.6959733,12.1732148 59.6842142,12.7539694 L59.6458929,14.6465692 L59.6458929,14.6465692 L59.3097794,29.5279342 C59.2038401,34.438131 59.1445781,37.6830401 59.1378225,39.1910825 L59.1296869,40.5297797 L59.0098222,49.47558 C59.0029137,50.0949854 59,50.5009633 59,50.7987185 L59,50.9881225 L59.0408629,51.1734055 C59.1776641,51.7936967 59.5403004,52.2020576 60.015011,52.5187078 C60.2775095,52.6938045 60.5775394,52.8348112 60.9064079,52.9495168 C61.4973223,53.1556211 62.1909711,53.2780127 62.8598666,53.286345 C63.7157662,53.2970067 64.5199625,53.1295171 65.201101,52.7144791 L65.2586667,52.678598 C66.1524483,52.1087945 66.6655052,51.1800304 66.6655052,50.0810566 L66.6656585,38.3951759 L72.7727154,38.3951759 L73.0261948,44.9006741 C73.0500944,45.5607021 73.0601504,45.9100978 73.0601504,46.06215 L73.0603042,46.4419478 C73.0629966,48.6240843 73.1372596,49.6056457 73.5065373,50.6027291 C74.1081085,52.227026 75.473542,53.1207211 77.3776286,53.0827712 C78.6575061,53.0557177 79.4661215,52.2504116 79.8812045,51.1139135 C80.1192248,50.4622137 80.2592117,49.6301279 80.3446988,48.5170522 L80.3745752,48.0911425 C80.4654843,46.6844223 80.4781924,45.2749758 80.4480702,41.2872514 L80.4184835,37.6168038 C80.3679192,30.29136 80.4281132,25.1077192 80.7130519,18.4970173 L80.723122,18.2672283 L80.7913009,17.2478603 C80.9156584,15.3532419 80.9968333,13.866591 81,13.0943057 L81,13.0638744 C81,12.5879377 80.8105091,12.1315851 80.4733881,11.7956308 L80.4733881,11.7956308 L80.4733881,11.7956308 C79.6070321,10.9322729 78.1574344,10.2868217 76.8586099,10.2868217 Z" id="Path-Copy-14" fill="#25204F" fill-rule="nonzero"></path>
                <path d="M101.175488,10.2868217 L101.249168,10.2868217 L101.322606,10.2927488 C104.699772,10.5653134 107.363426,12.1869108 109.264694,14.9136659 C110.840484,17.1736279 111.859583,20.1298014 112.429879,23.6683133 C113.232947,28.6511032 113.119266,33.8457636 112.512985,39.7917607 L112.482022,40.0920176 L112.478676,40.1172248 C112.160445,42.5144432 111.198076,45.0765873 109.655776,47.0892835 C107.621409,49.7441242 104.733736,51.2868217 101.109054,51.2868217 C94.9845701,51.2868217 90.9676959,47.8760551 88.8477941,42.155557 C87.4447856,38.3695764 87,34.2785437 87,29.371187 L87.0008078,29.0183691 C87.0224637,24.3445471 87.4840519,20.8797514 88.9307013,17.7019737 C91.0562898,13.0328066 95.0323791,10.3409999 100.994218,10.2876307 L101.175488,10.2868217 Z M99.7234464,16.8818243 C98.2960288,16.8818243 96.9672877,18.0324814 95.8784712,20.1792243 C94.9881649,21.9345786 94.3939918,24.2113618 94.3737678,25.3884174 L94.3732348,25.4887086 L94.3548697,25.9374738 C94.3233021,26.7816281 94.3106307,27.5881527 94.3072557,28.6874382 L94.3062347,29.2345653 L94.3062347,29.6572612 C94.3062347,36.0673546 95.0787413,40.4179714 96.4843044,42.9566307 C97.5612704,44.901794 98.9271406,45.684271 100.862449,45.684271 C102.662711,45.684271 103.967209,44.0879487 104.80404,40.8919675 C105.434496,38.484164 105.65773,35.8229228 105.675532,32.8333122 L105.676659,32.5265657 L105.676659,32.1437581 C105.676659,29.6838097 105.16658,25.7749295 104.254092,22.7469369 C103.101945,18.9236625 101.50456,16.8818243 99.7234464,16.8818243 Z" id="Combined-Shape-Copy-13" fill="#25204F" fill-rule="nonzero" transform="translate(100.000000, 30.786822) rotate(-180.000000) translate(-100.000000, -30.786822) "></path>
                <path d="M135.248366,10.2868217 L135.321679,10.2927372 C138.697267,10.5651052 141.360893,12.1862729 143.262929,14.9134356 C144.839752,17.1743036 145.859369,20.1312266 146.429854,23.6700163 C147.220563,28.5748698 147.122543,33.6840724 146.540738,39.5132138 L146.48212,40.0874544 L146.478728,40.1130024 C146.160162,42.512129 145.196937,45.0758993 143.653354,47.0897577 C141.618354,49.7447501 138.731118,51.2868217 135.108418,51.2868217 C128.986731,51.2868217 124.96899,47.8761868 122.848276,42.1549538 C121.465761,38.4252223 121.013492,34.4004889 121.000299,29.5914811 L121,29.372348 L121,29.1842688 C121.010223,24.3924464 121.483285,20.811487 122.987219,17.58199 C125.12853,12.983811 129.089994,10.340032 134.995271,10.2876162 L135.174814,10.2868217 L135.248366,10.2868217 Z M133.723594,16.2696077 C132.302405,16.2696077 130.976121,17.428097 129.888564,19.5909513 C128.998531,21.3609837 128.404511,23.6569236 128.384292,24.844392 L128.383759,24.9454117 L128.36462,25.4148336 C128.325301,26.4660002 128.316797,27.3837384 128.316797,29.1478646 L128.317722,29.533142 C128.347939,35.7853799 129.117116,40.0485452 130.494082,42.5571206 C131.569839,44.51695 132.931942,45.3040357 134.861952,45.3040357 C136.654828,45.3040357 137.957684,43.6958974 138.793792,40.4749894 C139.424026,38.0471595 139.647169,35.3639513 139.664962,32.3496884 L139.66609,32.0404137 L139.66609,31.6545049 C139.66609,29.1740975 139.156228,25.2330085 138.24411,22.1799945 C137.093035,18.3271498 135.497203,16.2696077 133.723594,16.2696077 Z" id="Combined-Shape-Copy-14" fill="#25204F" fill-rule="nonzero"></path>
                <path d="M158.876672,11.2868217 L158.508431,11.2868217 C158.058791,11.2868217 157.186072,11.348356 156.837254,11.4326809 L156.493858,11.5156951 L156.20729,11.7235231 C155.371019,12.3300147 155.010034,12.9914211 155.000443,13.9373892 L155,14.4503325 L155.015542,14.6509186 C155.024503,14.7562075 155.037174,14.8941399 155.054054,15.070453 L155.572756,20.2452733 C155.754613,22.099482 155.856805,23.2638839 155.856805,23.5140816 L155.85748,23.6950728 C155.86568,24.8991574 155.948307,27.9775514 156.090941,32.5777563 L156.275247,38.3544512 L156.713563,51.457663 C156.713563,52.0547858 156.985908,52.5416223 157.375023,52.8622534 C157.568004,53.0212695 157.753298,53.1144361 157.943965,53.1796842 C158.106633,53.2353508 158.239798,53.2595354 158.38101,53.2738422 C158.501598,53.2860596 158.616503,53.2884745 158.751569,53.2858903 L158.83995,53.2835166 C158.978812,53.2788144 159.146308,53.268982 159.346914,53.2541119 L159.605009,53.2337498 C160.097184,53.1928695 160.764216,53.1271779 161.609532,53.036471 L162.627983,52.9247441 C164.785209,52.6836271 167.82258,52.3195371 171.742427,51.8322422 L172.099152,51.7879747 L172.070743,51.7910137 C173.769611,51.615003 175,50.5510841 175,48.9416156 C175,47.6691678 174.234891,46.7562964 173.129154,46.3244951 C172.495405,46.0770098 171.785645,45.9871342 170.96438,45.9871342 L170.753806,45.9879782 C169.596365,45.9974308 168.623432,46.0875326 166.718324,46.3208829 L165.796319,46.4330836 L165.668004,46.4481427 C165.033061,46.522051 164.496487,46.5751872 164.008179,46.6092663 L163.923786,46.6150965 L163.912156,46.4556201 C163.794401,44.8232383 163.689816,43.1402782 163.595905,41.3846896 L163.529414,40.099646 C163.384066,37.2027064 163.283022,34.5632636 163.153482,30.3795881 L162.819875,19.3063824 L162.80207,18.7673842 C162.794265,18.483223 162.794248,18.219706 162.800008,17.8054004 L162.810341,17.0778368 C162.812424,16.8494246 162.811467,16.6894435 162.807233,16.496025 C162.785532,15.5045018 162.661982,14.6427298 162.36782,13.6788447 L162.312425,13.5020703 L162.295925,13.4581924 C161.948176,12.5334632 161.408755,11.8817909 160.571927,11.5415345 L160.483951,11.5067386 C160.008911,11.3244645 159.667757,11.2900379 158.876672,11.2868217 Z" id="Path-Copy-15" fill="#25204F" fill-rule="nonzero"></path>
                <path d="M193.490133,8.28682171 C194.741607,8.28682171 196.058144,8.67412741 196.866754,9.48592257 L196.918764,9.53946794 L196.948513,9.57165186 L197.12638,9.76879168 L197.83548,11.0699791 L197.881254,11.196314 C199.686875,16.1798411 201.141431,21.4348889 202.425516,27.3836824 L202.55862,28.0054232 C203.382866,31.8837868 204.013793,35.347898 204.988055,41.2114574 L205.506282,44.3562174 L205.573899,44.7693219 L206,47.9961644 L206,48.1113069 C206,48.2511638 205.983969,48.3874503 205.953561,48.5185223 L205.937166,48.5836161 L205.932139,48.6012918 L205.932089,48.6407765 L205.90187,48.698256 L205.883066,48.7500172 C205.835888,48.874188 205.77533,48.9921507 205.703046,49.102261 L205.665934,49.1566541 L205.637723,49.1954113 L205.620826,49.2255986 C204.84136,50.6204129 203.980498,51.230513 202.282953,51.2831605 L202.202764,51.2852209 L202.122577,51.2868217 L202.046953,51.2868217 L201.740118,51.2868217 C201.346536,51.2850529 201.056414,51.267478 200.730553,51.2015176 C200.437479,51.1421941 200.16261,51.0489562 199.894675,50.8931428 C199.471141,50.6468439 199.128118,50.2745179 198.952402,49.7792807 L198.931315,49.7167362 L198.916731,49.6711239 L198.882424,49.5395978 L197.4511,41.93475 L190.094929,41.93475 L189.193028,46.124252 L189.174692,46.2594031 L189.151539,46.449921 C189.13809,46.5595857 189.126249,46.649822 189.112694,46.7428162 C189.074375,47.0057063 189.028404,47.2454043 188.96559,47.4853283 C188.525749,49.1653382 187.336246,50.3373665 185.340781,50.3373665 C184.229385,50.3373665 183.359198,49.7468565 182.746285,48.8899537 C182.314429,48.2861848 182.019805,47.5473958 182,46.8986915 C182.875639,42.5827811 183.532368,39.3458484 183.970187,37.1878932 C184.408007,35.029938 185.064736,31.7930053 185.940374,27.4770949 C186.753948,23.5289749 187.410661,20.3511326 187.924375,17.8750762 L189.030241,12.5834714 L189.169595,11.9423305 C189.172341,11.9305664 189.174857,11.9200088 189.177228,11.9102999 L189.170956,11.9142796 C189.164792,11.9171395 189.165315,11.9100778 189.185451,11.8647904 L189.260605,11.7048934 L189.242315,11.6982586 L189.327982,11.4719136 C189.423689,11.221927 189.489681,11.0630083 189.58292,10.8634214 C190.31804,9.28983443 191.55219,8.28682171 193.490133,8.28682171 Z M193.989031,25.0881723 L192.13085,35.43524 L196.13582,35.5020528 L193.989031,25.0881723 Z" id="Combined-Shape-Copy-15" fill="#25204F" fill-rule="nonzero"></path>
                <path d="M231.85861,0.286821705 C231.069463,0.286821705 230.323383,0.47149116 229.697309,0.882300364 C228.788333,1.47874018 228.197323,2.52459111 228.197323,3.81017544 L228.197323,4.14126271 L228.204589,4.41284221 C228.373054,10.9344256 228.181829,20.4066301 227.770266,27.0044946 L227.740878,27.4660016 L227.201261,27.4523969 C225.9989,27.4255152 224.632762,27.415925 222.678788,27.4138097 L221.888341,27.4134256 L221.881692,26.7832382 L221.87638,26.0297183 C221.873695,25.5526765 221.872297,25.0870105 221.871676,24.5899272 L221.871702,23.5623254 C221.876983,21.7692993 221.930199,19.8574615 222.046081,17.0158175 L222.313374,10.8154924 C222.440546,7.74134631 222.486134,6.06075025 222.488445,4.25199545 L222.488464,4.03192973 C222.488512,3.47050979 222.285202,2.92807448 221.916154,2.5049954 L221.916154,2.5049954 L221.916154,2.5049954 C220.809116,1.23588005 219.909139,0.640645703 218.484321,0.640645703 L218.333754,0.640786182 L218.158447,0.642336431 C216.983736,0.660338808 216.275729,0.836188161 215.46115,1.53656668 C214.978871,1.95123268 214.696952,2.55235565 214.686505,3.18830529 L214.645893,5.66046396 L214.645893,5.66046396 L214.309779,24.0026116 C214.20384,30.0547145 214.144578,34.0542536 214.137823,35.9130036 L214.131125,37.3913123 L214.009822,48.5892448 C214.002914,49.3526979 214,49.8530893 214,50.2200898 L214,50.4535413 L214.040863,50.6819133 C214.177664,51.4464583 214.5403,51.9497868 215.015011,52.3400767 C215.27751,52.5558935 215.577539,52.7296925 215.906408,52.8710738 C216.497322,53.1251094 217.190971,53.2759641 217.859867,53.2862341 C218.715766,53.2993753 219.519962,53.0929347 220.201101,52.5813761 L220.258667,52.5371506 C221.152448,51.8348347 221.665505,50.690079 221.665505,49.3355298 L221.665659,34.9320025 L227.772715,34.9320025 L228.026195,42.9504072 C228.050094,43.7639301 228.06015,44.1945806 228.06015,44.3819938 L228.06093,45.1560946 C228.069022,47.6353795 228.152484,48.8119798 228.511933,49.9963908 C229.11638,51.9880807 230.480295,53.0819272 232.377629,53.0353176 C233.657506,53.0019725 234.466121,52.009386 234.881205,50.608586 C235.119225,49.8053282 235.259212,48.779734 235.344699,47.4078035 L235.374575,46.882845 C235.465484,45.1489806 235.478192,43.4117558 235.44807,38.4966536 L235.418483,33.9726135 C235.367919,24.9435782 235.428113,18.5544396 235.713052,10.4063651 L235.723122,10.1231368 L235.791301,8.86670648 C235.915658,6.53147913 235.996833,4.69909548 236,3.74720901 L236,3.6274447 C236,3.08792936 235.814015,2.56490642 235.473388,2.14651665 L235.473388,2.14651665 L235.473388,2.14651665 C234.607032,1.08237785 233.157434,0.286821705 231.85861,0.286821705 Z" id="Path-Copy-16" fill="#EE7552" fill-rule="nonzero"></path>
                <g id="Group-39" transform="translate(242.000000, 8.286822)">
                    <mask id="mask-2" fill="white">
                        <use xlink:href="#path-1"></use>
                    </mask>
                    <use id="Mask" fill="#EE7552" fill-rule="nonzero" xlink:href="#path-1"></use>
                    <g mask="url(#mask-2)">
                        <g transform="translate(-12.437832, -5.520240)">
                            <g id="Group-38" stroke="none" stroke-width="1" fill="none" fill-rule="evenodd" transform="translate(35.708496, 32.942931) rotate(-60.000000) translate(-35.708496, -32.942931) translate(22.708496, -0.057069)">
                                <ellipse id="Oval" fill="#4FC5D5" cx="15.9583559" cy="10.1477169" rx="10.0265889" ry="10.0467648"></ellipse>
                                <ellipse id="Oval-Copy-8" fill="#FAD100" cx="10.0295522" cy="36.1136504" rx="10.0265889" ry="10.0467648"></ellipse>
                                <g id="Square-Copy-23" transform="translate(16.429277, 48.281323) scale(1, -1) rotate(57.000000) translate(-16.429277, -48.281323) translate(12.429277, 44.281323)">
                                    <g id="color_lavanda" transform="translate(0.000000, 0.000000)">
                                        <mask id="mask-4" fill="white">
                                            <use xlink:href="#path-3"></use>
                                        </mask>
                                        <use id="Mask" fill="#FFAE94" xlink:href="#path-3"></use>
                                    </g>
                                </g>
                                <g id="Square-Copy-25" transform="translate(10.362637, 55.305019) scale(1, -1) rotate(-30.000000) translate(-10.362637, -55.305019) translate(6.362637, 51.305019)">
                                    <g id="color_lavanda" transform="translate(-0.000000, 0.000000)">
                                        <mask id="mask-6" fill="white">
                                            <use xlink:href="#path-5"></use>
                                        </mask>
                                        <use id="Mask" fill="#4FC5D5" xlink:href="#path-5"></use>
                                        <mask id="mask-8" fill="white">
                                            <use xlink:href="#path-7"></use>
                                        </mask>
                                        <use id="Mask-Copy-4" fill="#FAD100" transform="translate(24.607495, 6.898471) rotate(-60.000000) translate(-24.607495, -6.898471) " xlink:href="#path-7"></use>
                                    </g>
                                </g>
                                <g id="Square-Copy-24" transform="translate(16.653830, 60.426900) scale(1, -1) rotate(-30.000000) translate(-16.653830, -60.426900) translate(12.653830, 56.426900)">
                                    <g id="color_lavanda" transform="translate(-0.000000, 0.000000)">
                                        <mask id="mask-10" fill="white">
                                            <use xlink:href="#path-9"></use>
                                        </mask>
                                        <use id="Mask" fill="#A594F0" xlink:href="#path-9"></use>
                                    </g>
                                </g>
                            </g>
                            <path d="M61.3094251,1.48767704 C65.4045652,1.49287738 68.7230335,4.81135182 68.7282262,8.90649195 L68.754074,29.2908239 C68.7592497,33.3725536 65.4545498,36.685645 61.3728201,36.6908208 C61.3665679,36.6908287 61.3603157,36.6908287 61.3540634,36.6908207 C57.2589233,36.6856204 53.9404551,33.367146 53.9352623,29.2720058 L53.9094146,8.88767383 C53.9042388,4.80594416 57.2089387,1.49285274 61.2906684,1.48767702 C61.2969206,1.48766909 61.3031729,1.4876691 61.3094251,1.48767704 Z" id="Rectangle" stroke="none" fill="#25204F" fill-rule="evenodd" transform="translate(61.331744, 19.089249) rotate(-330.000000) translate(-61.331744, -19.089249) "></path>
                            <mask id="mask-12" fill="white">
                                <use xlink:href="#path-11"></use>
                            </mask>
                            <use id="Mask-Copy" stroke="none" fill="#FFAE94" fill-rule="evenodd" transform="translate(31.199294, 18.126666) rotate(-225.000000) translate(-31.199294, -18.126666) " xlink:href="#path-11"></use>
                            <mask id="mask-14" fill="white">
                                <use xlink:href="#path-13"></use>
                            </mask>
                            <use id="Mask-Copy-2" stroke="none" fill="#25204F" fill-rule="evenodd" transform="translate(18.067196, 40.184635) rotate(-312.000000) translate(-18.067196, -40.184635) " xlink:href="#path-13"></use>
                            <mask id="mask-16" fill="white">
                                <use xlink:href="#path-15"></use>
                            </mask>
                            <use id="Mask-Copy-3" stroke="none" fill="#A594F0" fill-rule="evenodd" transform="translate(19.835056, 45.069634) rotate(-210.000000) translate(-19.835056, -45.069634) " xlink:href="#path-15"></use>
                        </g>
                    </g>
                </g>
                <g id="Group-39" transform="translate(276.000000, 0.286822)">
                    <mask id="mask-18" fill="white">
                        <use xlink:href="#path-17"></use>
                    </mask>
                    <use id="Mask" fill="#EE7552" fill-rule="nonzero" xlink:href="#path-17"></use>
                    <g mask="url(#mask-18)">
                        <g transform="translate(-46.665695, -20.191716)">
                            <g id="Group-38" stroke-width="1" fill="none" transform="translate(44.649158, 43.003035) rotate(-60.000000) translate(-44.649158, -43.003035) translate(14.649158, 9.003035)">
                                <ellipse id="Oval" fill="#4FC5D5" cx="18.2002102" cy="10.1934707" rx="10.0265889" ry="10.0920635"></ellipse>
                                <ellipse id="Oval-Copy-8" fill="#FAD100" cx="12.2714065" cy="36.2764789" rx="10.0265889" ry="10.0920635"></ellipse>
                                <g id="Square-Copy-23" transform="translate(13.640688, 47.149835) scale(1, -1) rotate(57.000000) translate(-13.640688, -47.149835) translate(4.140688, 37.649835)">
                                    <g id="color_lavanda" transform="translate(0.000000, -0.000000)">
                                        <mask id="mask-20" fill="white">
                                            <use xlink:href="#path-19"></use>
                                        </mask>
                                        <use id="Mask" fill="#FFAE94" xlink:href="#path-19"></use>
                                    </g>
                                </g>
                                <mask id="mask-22" fill="white">
                                    <use xlink:href="#path-21"></use>
                                </mask>
                                <use id="Mask" fill="#4FC5D5" transform="translate(28.942404, 56.779447) scale(1, -1) rotate(-30.000000) translate(-28.942404, -56.779447) " xlink:href="#path-21"></use>
                                <mask id="mask-24" fill="white">
                                    <use xlink:href="#path-23"></use>
                                </mask>
                                <use id="Mask-Copy-4" fill="#FAD100" transform="translate(52.365078, 33.641024) scale(1, -1) rotate(-90.000000) translate(-52.365078, -33.641024) " xlink:href="#path-23"></use>
                                <g id="Square-Copy-24" mask="url(#mask-24)">
                                    <g transform="translate(20.339511, 64.016624) scale(1, -1) rotate(-30.000000) translate(-20.339511, -64.016624) translate(12.339511, 55.516624)" id="color_lavanda">
                                        <g transform="translate(-0.000000, 0.000000)">
                                            <mask id="mask-26" fill="white">
                                                <use xlink:href="#path-25"></use>
                                            </mask>
                                            <use id="Mask" fill="#A594F0" xlink:href="#path-25"></use>
                                        </g>
                                    </g>
                                </g>
                            </g>
                            <path d="M60.721442,21.0033061 C64.8258639,21.0165342 68.1498571,24.3405671 68.1630361,28.4449891 L68.2288179,48.9317097 C68.2418878,53.0021613 64.9527302,56.3125096 60.8822786,56.3255796 C60.8664724,56.3256304 60.8506661,56.3256303 60.8348599,56.3255793 C56.730438,56.3123512 53.4064448,52.9883183 53.3932658,48.8838963 L53.327484,28.3971757 C53.314414,24.3267241 56.6035717,21.0163758 60.6740233,21.0033058 C60.6898295,21.003255 60.7056358,21.0032551 60.721442,21.0033061 Z" id="Rectangle" fill="#25204F" transform="translate(60.778151, 38.664443) rotate(-330.000000) translate(-60.778151, -38.664443) "></path>
                            <g id="Mask-Copy-2-+-Mask-Copy-3-Mask" stroke-width="1" fill="none" transform="translate(29.565895, 31.581719)">
                                <mask id="mask-28" fill="white">
                                    <use xlink:href="#path-27"></use>
                                </mask>
                                <use id="Mask" fill="#25204F" transform="translate(5.330999, 5.395655) rotate(-225.000000) translate(-5.330999, -5.395655) " xlink:href="#path-27"></use>
                                <mask id="mask-30" fill="white">
                                    <use xlink:href="#path-29"></use>
                                </mask>
                                <use id="Mask-Copy-2" fill="#25204F" transform="translate(-10.673748, 31.128138) rotate(-312.000000) translate(10.673748, -31.128138) " xlink:href="#path-29"></use>
                                <mask id="mask-32" fill="white">
                                    <use xlink:href="#path-31"></use>
                                </mask>
                                <use id="Mask-Copy-3" fill="#A594F0" transform="translate(-4.564165, 40.007613) rotate(-312.000000) translate(4.564165, -40.007613) " xlink:href="#path-31"></use>
                            </g>
                        </g>
                    </g>
                </g>
                <path d="M313.799197,8.30370626 L313.966637,8.29569453 C314.204645,8.28616208 314.434743,8.28516238 314.770988,8.28869831 L315.100737,8.29201278 L315.126911,8.29204185 C322.840825,8.29204185 329,13.6406355 329,20.1335153 C329,26.1937709 324.179501,32.6167213 317.64707,35.5949649 L317.448597,35.6841564 L317.27456,35.759998 L317.220297,36.5825756 C317.130583,37.9810968 317.038825,39.5867996 317.02599,40.1407104 L317.024572,40.2258355 L317.024465,40.2845841 L317.019329,40.4296949 C316.958282,42.347296 316.958917,49.9273027 317.021161,51.6766132 L317.048478,52.3791359 L316.648894,52.8963727 C315.852995,53.9266135 314.5196,54.2868217 313.108563,54.2868217 C312.290329,54.2868217 311.872636,54.1912493 311.15628,53.851944 L311.024918,53.7887682 L310,53.2923934 L310,38.4982277 C310.006447,34.2325433 310.321599,15.6978727 310.463412,10.9441241 L310.483513,10.3089306 L310.63497,9.97956465 C310.975212,9.23965568 311.590261,8.79619949 312.339012,8.5504007 C312.781231,8.40522981 313.256082,8.33370516 313.799197,8.30370626 Z M317.747642,14.9204743 L317.408431,27.9196785 L317.499725,27.8412814 C320.075585,25.616146 321.308344,23.2701352 321.33733,20.5070588 L321.337854,20.4070064 C321.337854,19.3552745 320.781812,17.8305279 319.871,16.648557 C319.271086,15.8700413 318.573497,15.2908195 317.794805,14.9410733 L317.747642,14.9204743 Z" id="Combined-Shape-Copy-18" fill="#EE7552" fill-rule="nonzero"></path>
            </g>
        </g>
    </g>
</svg>