<svg xmlns="http://www.w3.org/2000/svg" xmlns:xlink="http://www.w3.org/1999/xlink" width="26" height="39" viewBox="0 0 26 39">
    <defs>
        <path id="prefix__a" d="M12.804.668h.068l.068.006c3.002.255 5.362 1.765 7.039 4.295 1.384 2.089 2.28 4.823 2.782 8.098.709 4.622.608 9.446.072 14.969l-.026.273-.003.022c-.279 2.21-1.123 4.574-2.478 6.433-1.796 2.465-4.357 3.904-7.581 3.904-5.39 0-8.927-3.116-10.808-8.339C.723 26.955.297 23.26.266 18.91l-.002-.398v-.335C.273 13.735.689 10.42 2.01 7.437 3.895 3.18 7.4.717 12.644.67l.16-.001zm-1.206 10.107c-.823 0-1.61.721-2.256 2.068-.53 1.108-.884 2.544-.896 3.295v.06l-.01.242c-.017.485-.025.957-.028 1.54l-.001.36v.461c0 4.014.457 6.745 1.294 8.344.64 1.225 1.441 1.71 2.569 1.71 1.053 0 1.838-1.03 2.333-3.076.37-1.527.495-3.178.503-5.06v-.367c0-1.544-.301-3.993-.842-5.892-.682-2.397-1.634-3.685-2.666-3.685z"/>
        <path id="prefix__c" d="M28.07 9.992c1.38-.008 2.507 1.104 2.516 2.485.004.669-.26 1.311-.732 1.784l-3.644 3.644c-.977.977-2.56.977-3.537 0-.473-.473-.736-1.115-.732-1.784.02-3.376 2.753-6.108 6.129-6.129z"/>
        <path id="prefix__d" d="M16.485 30.021h.008c1.3.008 2.347 1.068 2.339 2.368-.004.62-.252 1.213-.69 1.65l-3.233 3.23c-.92.918-2.411.917-3.33-.003-.438-.438-.685-1.03-.689-1.65-.02-3.07 2.455-5.576 5.526-5.595h.07z"/>
        <path id="prefix__e" d="M18.075 34.334c1.281-.007 2.325 1.026 2.332 2.307.003.617-.24 1.21-.674 1.647l-3.35 3.374c-.9.906-2.366.911-3.272.01-.44-.437-.686-1.033-.683-1.653v-.038c.017-3.112 2.535-5.63 5.647-5.647z"/>
    </defs>
    <g fill="none" fill-rule="evenodd" transform="rotate(-14 12.5 15.428)">
        <mask id="prefix__b" fill="#fff">
            <use xlink:href="#prefix__a"/>
        </mask>
        <use fill="#EE7552" fill-rule="nonzero" xlink:href="#prefix__a"/>
        <g mask="url(#prefix__b)">
            <g transform="translate(-11.093 -4.429)">
                <g transform="rotate(-60 21.665 11.44)">
                    <ellipse cx="14.025" cy="9.004" fill="#4FC5D5" rx="8.812" ry="8.914"/>
                    <ellipse cx="8.814" cy="32.042" fill="#FAD100" rx="8.812" ry="8.914"/>
                </g>
                <use fill="#FFAE94" transform="rotate(135 28.032 16.083)" xlink:href="#prefix__c"/>
                <use fill="#25204F" transform="rotate(48 16.493 35.617)" xlink:href="#prefix__d"/>
                <use fill="#A594F0" transform="rotate(150 18.044 39.988)" xlink:href="#prefix__e"/>
            </g>
        </g>
    </g>
</svg>
