<?xml version="1.0" encoding="UTF-8"?>
<svg width="85px" height="85px" viewBox="0 0 85 85" version="1.1" xmlns="http://www.w3.org/2000/svg" xmlns:xlink="http://www.w3.org/1999/xlink">
    <!-- Generator: Sketch 63.1 (92452) - https://sketch.com -->
    <title>icon/esl/clementine@3x</title>
    <desc>Created with Sketch.</desc>
    <g id="icon/esl/clementine" stroke="none" stroke-width="1" fill="none" fill-rule="evenodd">
        <g id="Group" transform="translate(11.000000, 13.000000)" fill="#EE7552" fill-rule="nonzero">
            <path d="M45.1345677,10.6597086 C45.418287,10.6597086 45.6865962,10.7800773 45.8748468,10.9873943 L45.9504356,11.0814704 L51.2497032,18.5584947 C51.5690554,19.0090861 51.462665,19.6332487 51.0120736,19.952601 C50.5961431,20.2473876 50.0323176,20.1794114 49.6968572,19.8128069 L49.6179674,19.7149714 L44.617,12.659 L37.318,12.659 L33.4756396,14.7371875 C33.1650253,14.9051431 32.7922225,14.8955114 32.493242,14.7196679 L32.3848504,14.6459577 L30.167,12.916 L29.637,13.31 L32.417,17.896 L35.4038063,16.7179785 C36.0236022,16.4732828 36.692197,16.8911166 36.7645724,17.532666 L36.7710241,17.6481136 L36.7710241,28 C36.7710241,28.5522847 36.3233088,29 35.7710241,29 C35.2581882,29 34.8355169,28.6139598 34.7777518,28.1166211 L34.7710241,28 L34.771,19.117 L32.3676799,20.0668681 C31.9521597,20.2309157 31.4837076,20.0984925 31.2138756,19.7543105 L31.1453985,19.6552561 L27.4549545,13.5695769 C27.20797,13.1622903 27.2844842,12.6432661 27.6235285,12.3238135 L27.7137237,12.2482882 L29.5868318,10.8569431 C29.9118096,10.6155495 30.3458473,10.5961683 30.6879299,10.7964175 L30.7982759,10.8712984 L33.099,12.666 L36.5890071,10.7800686 C36.698576,10.7208224 36.817918,10.6827431 36.9408066,10.6674064 L37.0646467,10.6597086 L45.1345677,10.6597086 Z" id="Path-63"></path>
            <path d="M41.9872155,15.7391099 C42.3717502,15.4044004 42.9395414,15.4159378 43.3098148,15.7473441 L43.3980479,15.8368444 L45.1246579,17.8204791 C45.4655737,18.2121439 45.4464747,18.7921427 45.1003112,19.1607144 L45.0069756,19.2482213 L41.695,21.981 L42.042,22.583 L45.7024807,21.4430808 C46.1920932,21.2905023 46.7104786,21.5333081 46.9135957,21.9909389 L46.9547158,22.1002773 C47.1072944,22.5898898 46.8644886,23.1082752 46.4068577,23.3113923 L46.2975193,23.3525124 L41.8739449,24.7310366 C41.4645407,24.8586197 41.0242076,24.7103949 40.7736388,24.3726672 L40.7101725,24.2759261 L39.540752,22.2482976 C39.3171877,21.8606651 39.3801257,21.3769968 39.6821436,21.0597096 L39.7704041,20.977499 L42.942,18.358 L41.8894811,17.1499423 C41.5547715,16.7654077 41.5663089,16.1976164 41.8977152,15.827343 L41.9872155,15.7391099 Z" id="Path-64"></path>
            <path d="M40.6451613,27 L22.3548387,27 C22.1175631,27 21.8880182,27.08437 21.7072222,27.2380336 L-0.647616503,46.2380336 C-1.35660627,46.8406237 -0.930473737,48 0,48 L63,48 C63.9304737,48 64.3566063,46.8406237 63.6476165,46.2380336 L41.2927778,27.2380336 C41.1119818,27.08437 40.8824369,27 40.6451613,27 Z M40.277,28.999 L60.279,45.999 L2.72,45.999 L22.722,28.999 L40.277,28.999 Z" id="Rectangle"></path>
            <path d="M41,-10 C42.0543618,-10 42.9181651,-9.18412221 42.9945143,-8.14926234 L43,-8 L43,28 C43,29.0543618 42.1841222,29.9181651 41.1492623,29.9945143 L41,30 L22,30 C21.4477153,30 21,29.5522847 21,29 C21,28.4871642 21.3860402,28.0644928 21.8833789,28.0067277 L22,28 L41,28 L41,-8 L22,-8 C21.4477153,-8 21,-8.44771525 21,-9 C21,-9.51283584 21.3860402,-9.93550716 21.8833789,-9.99327227 L22,-10 L41,-10 Z" id="Rectangle" transform="translate(32.000000, 10.000000) rotate(-90.000000) translate(-32.000000, -10.000000) "></path>
            <path d="M7.26629537,46 C7.77913121,46 8.20180253,46.3860402 8.25956763,46.8833789 L8.26629537,47 L8.26629537,58.4178442 C8.26629537,59.472206 7.45041758,60.3360093 6.41555771,60.4123585 L6.26629537,60.4178442 L4,60.4178442 C2.9456382,60.4178442 2.08183488,59.6019664 2.00548574,58.5671066 L2,58.4178442 L2,47 C2,46.4477153 2.44771525,46 3,46 C3.51283584,46 3.93550716,46.3860402 3.99327227,46.8833789 L4,47 L4,58.4178442 L6.26629537,58.4178442 L6.26629537,47 C6.26629537,46.4477153 6.71401062,46 7.26629537,46 Z" id="Path-61"></path>
            <path d="M59.2662954,46 C59.7791312,46 60.2018025,46.3860402 60.2595676,46.8833789 L60.2662954,47 L60.2662954,58.4178442 C60.2662954,59.472206 59.4504176,60.3360093 58.4155577,60.4123585 L58.2662954,60.4178442 L56,60.4178442 C54.9456382,60.4178442 54.0818349,59.6019664 54.0054857,58.5671066 L54,58.4178442 L54,47 C54,46.4477153 54.4477153,46 55,46 C55.5128358,46 55.9355072,46.3860402 55.9932723,46.8833789 L56,47 L56,58.4178442 L58.2662954,58.4178442 L58.2662954,47 C58.2662954,46.4477153 58.7140106,46 59.2662954,46 Z" id="Path-61-Copy"></path>
            <path d="M7.16274113,33.4206245 C9.681507,33.4206245 10.9668902,35.2905539 10.9668902,38.5 C10.9668902,39.0522847 10.5191749,39.5 9.96689018,39.5 C9.41460543,39.5 8.96689018,39.0522847 8.96689018,38.5 C8.96689018,36.4295446 8.46329647,35.5490448 7.41447452,35.4338227 L7.258,35.422 L6.80720832,35.5198901 C5.33759357,35.8467347 4.03607116,36.2244334 2.90346819,36.651654 L2.48666179,36.8141805 C1.73892357,37.1156322 1.39642447,37.5971748 1.28009635,38.5423687 C1.05402383,40.3792622 1.28033585,42.7246347 1.97167076,45.5669545 C2.10219697,46.1035934 1.77297755,46.6444376 1.23633861,46.7749638 C0.699699672,46.90549 0.158855454,46.5762706 0.0283292429,46.0396317 C-0.715552649,42.9812729 -0.964184035,40.4045947 -0.704926548,38.2980654 C-0.502959524,36.6570349 0.288809852,35.543833 1.7388438,34.9592497 C3.07196582,34.4217997 4.61436251,33.9589754 6.36721155,33.56888 L6.95929071,33.4415392 L7.16274113,33.4206245 Z" id="Path-62"></path>
            <path d="M16.9277472,27 C18.8692485,27 19.8569162,28.4678449 19.8569162,30.8670785 C19.8569162,31.4193632 19.4092009,31.8670785 18.8569162,31.8670785 C18.3046314,31.8670785 17.8569162,31.4193632 17.8569162,30.8670785 C17.8569162,29.5858945 17.6151758,29.0985081 17.1070299,29.0138427 L17.021,29.003 L16.6632051,29.0827871 C15.7357858,29.2970359 14.9102576,29.541694 14.1872743,29.8156413 L13.8343311,29.9550506 C13.4287826,30.1220779 13.2586351,30.3664646 13.1906709,30.9306126 C13.0396303,32.1843504 13.1923051,33.8007493 13.6607771,35.7683855 C13.7886943,36.3056523 13.4568508,36.8448905 12.919584,36.9728076 C12.3823172,37.1007248 11.843079,36.7688814 11.7151618,36.2316145 C11.1962485,34.0521187 11.0221768,32.2091877 11.2050284,30.6913978 C11.3560415,29.437888 11.9662361,28.5614518 13.0726878,28.1057535 C13.9812376,27.7315622 15.0252587,27.4088314 16.2057893,27.1357824 L16.7200918,27.021798 L16.9277472,27 Z" id="Path-62-Copy-2"></path>
            <path d="M49.9277472,27 C51.8692485,27 52.8569162,28.4678449 52.8569162,30.8670785 C52.8569162,31.4193632 52.4092009,31.8670785 51.8569162,31.8670785 C51.3046314,31.8670785 50.8569162,31.4193632 50.8569162,30.8670785 C50.8569162,29.5858945 50.6151758,29.0985081 50.1070299,29.0138427 L50.021,29.003 L49.6632051,29.0827871 C48.7357858,29.2970359 47.9102576,29.541694 47.1872743,29.8156413 L46.8343311,29.9550506 C46.4287826,30.1220779 46.2586351,30.3664646 46.1906709,30.9306126 C46.0396303,32.1843504 46.1923051,33.8007493 46.6607771,35.7683855 C46.7886943,36.3056523 46.4568508,36.8448905 45.919584,36.9728076 C45.3823172,37.1007248 44.843079,36.7688814 44.7151618,36.2316145 C44.1962485,34.0521187 44.0221768,32.2091877 44.2050284,30.6913978 C44.3560415,29.437888 44.9662361,28.5614518 46.0726878,28.1057535 C46.9812376,27.7315622 48.0252587,27.4088314 49.2057893,27.1357824 L49.7200918,27.021798 L49.9277472,27 Z" id="Path-62-Copy-3" transform="translate(48.495742, 32.000114) scale(-1, 1) translate(-48.495742, -32.000114) "></path>
            <path d="M60.9671399,33.4206245 C63.4859058,33.4206245 64.7712889,35.2905539 64.7712889,38.5 C64.7712889,39.0522847 64.3235737,39.5 63.7712889,39.5 C63.2190042,39.5 62.7712889,39.0522847 62.7712889,38.5 C62.7712889,36.4295446 62.2676952,35.5490448 61.2188733,35.4338227 L61.062,35.422 L60.6116071,35.5198901 C59.1419923,35.8467347 57.8404699,36.2244334 56.7078669,36.651654 L56.2910605,36.8141805 C55.5433223,37.1156322 55.2008232,37.5971748 55.0844951,38.5423687 C54.8584226,40.3792622 55.0847346,42.7246347 55.7760695,45.5669545 C55.9065957,46.1035934 55.5773763,46.6444376 55.0407374,46.7749638 C54.5040984,46.90549 53.9632542,46.5762706 53.832728,46.0396317 C53.0888461,42.9812729 52.8402147,40.4045947 53.0994722,38.2980654 C53.3014392,36.6570349 54.0932086,35.543833 55.5432426,34.9592497 C56.8763646,34.4217997 58.4187613,33.9589754 60.1716103,33.56888 L60.7636895,33.4415392 L60.9671399,33.4206245 Z" id="Path-62-Copy" transform="translate(58.885647, 40.112075) scale(-1, 1) translate(-58.885647, -40.112075) "></path>
            <path d="M4,23 C1.23857625,23 -1,25.2385763 -1,28 C-1,30.7614237 1.23857625,33 4,33 C6.76142375,33 9,30.7614237 9,28 C9,25.2385763 6.76142375,23 4,23 Z M4,25 C5.65685425,25 7,26.3431458 7,28 C7,29.6568542 5.65685425,31 4,31 C2.34314575,31 1,29.6568542 1,28 C1,26.3431458 2.34314575,25 4,25 Z" id="Oval"></path>
            <path d="M15,19 C12.790861,19 11,20.790861 11,23 C11,25.209139 12.790861,27 15,27 C17.209139,27 19,25.209139 19,23 C19,20.790861 17.209139,19 15,19 Z M15,21 C16.1045695,21 17,21.8954305 17,23 C17,24.1045695 16.1045695,25 15,25 C13.8954305,25 13,24.1045695 13,23 C13,21.8954305 13.8954305,21 15,21 Z" id="Oval-Copy-2"></path>
            <path d="M49,19 C46.790861,19 45,20.790861 45,23 C45,25.209139 46.790861,27 49,27 C51.209139,27 53,25.209139 53,23 C53,20.790861 51.209139,19 49,19 Z M49,21 C50.1045695,21 51,21.8954305 51,23 C51,24.1045695 50.1045695,25 49,25 C47.8954305,25 47,24.1045695 47,23 C47,21.8954305 47.8954305,21 49,21 Z" id="Oval-Copy-3" transform="translate(49.000000, 23.000000) scale(-1, 1) translate(-49.000000, -23.000000) "></path>
            <path d="M40,2 C37.790861,2 36,3.790861 36,6 C36,8.209139 37.790861,10 40,10 C42.209139,10 44,8.209139 44,6 C44,3.790861 42.209139,2 40,2 Z M40,4 C41.1045695,4 42,4.8954305 42,6 C42,7.1045695 41.1045695,8 40,8 C38.8954305,8 38,7.1045695 38,6 C38,4.8954305 38.8954305,4 40,4 Z" id="Oval-Copy-4" transform="translate(40.000000, 6.000000) scale(-1, 1) translate(-40.000000, -6.000000) "></path>
            <path d="M59.8043988,23 C57.042975,23 54.8043988,25.2385763 54.8043988,28 C54.8043988,30.7614237 57.042975,33 59.8043988,33 C62.5658225,33 64.8043988,30.7614237 64.8043988,28 C64.8043988,25.2385763 62.5658225,23 59.8043988,23 Z M59.8043988,25 C61.461253,25 62.8043988,26.3431458 62.8043988,28 C62.8043988,29.6568542 61.461253,31 59.8043988,31 C58.1475445,31 56.8043988,29.6568542 56.8043988,28 C56.8043988,26.3431458 58.1475445,25 59.8043988,25 Z" id="Oval-Copy" transform="translate(59.804399, 28.000000) scale(-1, 1) translate(-59.804399, -28.000000) "></path>
            <path d="M22.4699057,3.17247635 C22.8942895,2.88455449 23.4607949,2.96671115 23.7878182,3.34583955 L23.8588602,3.43856914 L29.7380277,12.1041955 C30.0480974,12.5612242 29.9289636,13.1830803 29.4719349,13.49315 C29.0475511,13.7810719 28.4810458,13.6989153 28.1540225,13.3197868 L28.0829804,13.2270573 L22.2038129,4.56143086 C21.8937432,4.10440217 22.012877,3.48254606 22.4699057,3.17247635 Z" id="Path-65"></path>
        </g>
    </g>
</svg>