<?xml version="1.0" encoding="UTF-8"?>
<svg width="20px" height="22px" viewBox="0 0 20 22" version="1.1" xmlns="http://www.w3.org/2000/svg" xmlns:xlink="http://www.w3.org/1999/xlink">
    <!-- Generator: Sketch 63.1 (92452) - https://sketch.com -->
    <title>Shape Copy</title>
    <desc>Created with Sketch.</desc>
    <g id="Symbols" stroke="none" stroke-width="1" fill="none" fill-rule="evenodd">
        <g id="navbar/profile" transform="translate(-302.000000, -12.000000)" fill="#4FC5D5" fill-rule="nonzero" stroke="#4FC5D5" stroke-width="0.7">
            <g id="Group-50">
                <path d="M307.788414,19.0325873 C307.788414,16.6350567 309.755415,14.6913796 312.181716,14.6913796 C314.608017,14.6913796 316.575018,16.6350567 316.575018,19.0325873 C316.575018,21.4301179 314.608017,23.373795 312.181716,23.373795 C309.755415,23.373795 307.788414,21.4301179 307.788414,19.0325873 M319.911361,27.5951966 C318.597649,25.4006315 316.816079,24.2533124 315.957389,23.7740881 C315.954536,23.7726787 315.930287,23.7684502 315.924581,23.7656312 C317.352405,22.6620061 318.286695,20.963579 318.286695,19.0325873 C318.286695,15.7019789 315.553718,13 312.181716,13 C308.809714,13 306.076738,15.7019789 306.076738,19.0325873 C306.076738,20.963579 307.011028,22.6620061 308.438851,23.7656312 C308.431719,23.7684502 308.408897,23.7726787 308.406044,23.7740881 C307.547353,24.2533124 305.765783,25.4006315 304.452072,27.5951966 C303.342335,29.4486667 303.074173,31.1992447 303,32.1492362 C303.011411,32.6016802 303.365158,32.9667363 303.790224,32.997745 C304.258082,33.0329821 304.695986,32.6510121 304.711676,32.1492362 C304.867153,30.4916842 305.426301,29.3077185 305.807149,28.6466709 C306.975368,26.6240628 308.7441,25.5528557 309.528618,25.0792694 C309.783943,24.9242263 310.005035,24.8044202 310.161938,24.7212607 C310.161938,24.7156228 310.156233,24.7029374 310.154806,24.698709 C310.790979,24.9214073 311.467091,25.0651746 312.181716,25.0651746 C312.896341,25.0651746 313.571027,24.9214073 314.208626,24.698709 C314.2072,24.7029374 314.201494,24.7156228 314.201494,24.7212607 C314.356971,24.8044202 314.578063,24.9242263 314.834814,25.0792694 C315.617906,25.5528557 317.386638,26.6240628 318.554857,28.6466709 C318.935705,29.3077185 319.496279,30.4916842 319.651756,32.1492362 C319.667447,32.6510121 320.105351,33.0329821 320.573209,32.997745 C320.996849,32.9667363 321.352021,32.6016802 321.363433,32.1492362 C321.287833,31.1992447 321.019671,29.4486667 319.911361,27.5951966" id="Shape-Copy"></path>
            </g>
        </g>
    </g>
</svg>