<svg xmlns="http://www.w3.org/2000/svg" xmlns:xlink="http://www.w3.org/1999/xlink" width="97" height="97" viewBox="0 0 97 97">
    <defs>
        <rect id="a" width="97" height="97" rx="48.5"/>
    </defs>
    <g fill="none" fill-rule="evenodd">
        <g>
            <mask id="b" fill="#fff">
                <use xlink:href="#a"/>
            </mask>
            <use fill="#C1C1C1" xlink:href="#a"/>
            <g fill="#A594F0" mask="url(#b)">
                <path d="M0 0h97v97H0z"/>
            </g>
        </g>
        <g fill="#FFF">
            <g fill-rule="nonzero">
                <path d="M32.416 42.281c.782 0 1.417-.643 1.417-1.436 0-.932.748-1.69 1.667-1.69.92 0 1.667.758 1.667 1.69 0 .793.635 1.436 1.417 1.436S40 41.638 40 40.845c0-2.516-2.019-4.564-4.5-4.564S31 38.33 31 40.845c0 .793.634 1.436 1.416 1.436zM58.416 42.281c.783 0 1.417-.643 1.417-1.436 0-.932.748-1.69 1.667-1.69.92 0 1.667.758 1.667 1.69 0 .793.634 1.436 1.417 1.436.782 0 1.416-.643 1.416-1.436 0-2.516-2.019-4.564-4.5-4.564S57 38.33 57 40.845c0 .793.634 1.436 1.416 1.436z"/>
            </g>
            <path d="M48 60a4 4 0 0 0 4-4c0-2.21-1.79-1-4-1s-4-1.21-4 1a4 4 0 0 0 4 4z"/>
        </g>
    </g>
</svg>
