<svg width="274" height="274" viewBox="0 0 274 274" fill="none" xmlns="http://www.w3.org/2000/svg">
<mask id="mask0" mask-type="alpha" maskUnits="userSpaceOnUse" x="0" y="0" width="274" height="274">
<rect width="274" height="274" fill="white"/>
</mask>
<g mask="url(#mask0)">
<path fill-rule="evenodd" clip-rule="evenodd" d="M161.988 239.847C88.1728 220.059 44.3678 144.186 64.1381 70.3662L65.1002 66.7739C79.4443 13.2148 155.386 13.1285 170.32 66.5264C179.218 98.3441 196.053 127.474 219.211 151.038C257.789 190.293 219.841 255.356 166.68 241.105L161.988 239.847Z" fill="#D1EEF1"/>
<path d="M122.205 166.672H117.745C107.254 166.672 101.998 153.989 109.417 146.57L112.57 143.414C113.609 142.297 114.175 140.821 114.148 139.296C114.12 137.771 113.502 136.316 112.424 135.238C111.345 134.16 109.89 133.542 108.365 133.515C106.84 133.488 105.364 134.054 104.248 135.094L101.093 138.245C93.6745 145.662 80.9916 140.408 80.9916 129.917V125.456C80.9916 123.894 80.3712 122.396 79.2667 121.292C78.1623 120.188 76.6644 119.567 75.1025 119.567C73.5406 119.567 72.0426 120.188 70.9382 121.292C69.8338 122.396 69.2133 123.894 69.2133 125.456V129.919C69.2133 140.41 56.5304 145.664 49.1115 138.247L45.9568 135.094C44.8409 134.054 43.365 133.488 41.84 133.515C40.315 133.542 38.8599 134.16 37.7813 135.238C36.7026 136.316 36.0846 137.771 36.0574 139.296C36.0302 140.821 36.5959 142.297 37.6354 143.414L40.7922 146.57C48.2111 153.989 42.9553 166.672 32.4646 166.672H27.9996C27.217 166.657 26.4394 166.799 25.7122 167.088C24.985 167.378 24.3227 167.809 23.7641 168.357C23.2055 168.905 22.7618 169.559 22.4589 170.281C22.156 171.003 22 171.778 22 172.56C22 173.343 22.156 174.118 22.4589 174.839C22.7618 175.561 23.2055 176.215 23.7641 176.763C24.3227 177.312 24.985 177.743 25.7122 178.032C26.4394 178.322 27.217 178.463 27.9996 178.448H32.4604C42.9512 178.448 48.2069 191.133 40.788 198.552L37.6354 201.707C36.6061 202.825 36.0489 204.298 36.0803 205.817C36.1117 207.337 36.7293 208.785 37.804 209.86C38.8786 210.934 40.3271 211.552 41.8465 211.583C43.366 211.615 44.8387 211.058 45.9568 210.028L49.1115 206.872C56.5304 199.453 69.2133 204.708 69.2133 215.199V219.658C69.2133 221.22 69.8338 222.718 70.9382 223.822C72.0426 224.927 73.5406 225.547 75.1025 225.547C76.6644 225.547 78.1623 224.927 79.2667 223.822C80.3712 222.718 80.9916 221.22 80.9916 219.658V215.203C80.9916 204.713 93.6745 199.457 101.093 206.876L104.248 210.028C105.366 211.058 106.839 211.615 108.358 211.583C109.878 211.552 111.326 210.934 112.401 209.86C113.476 208.785 114.093 207.337 114.125 205.817C114.156 204.298 113.599 202.825 112.57 201.707L109.413 198.552C101.994 191.133 107.25 178.448 117.74 178.448H122.199C122.982 178.463 123.759 178.322 124.487 178.032C125.214 177.743 125.876 177.312 126.435 176.763C126.993 176.215 127.437 175.561 127.74 174.839C128.043 174.118 128.199 173.343 128.199 172.56C128.199 171.778 128.043 171.003 127.74 170.281C127.437 169.559 126.993 168.905 126.435 168.357C125.876 167.809 125.214 167.378 124.487 167.088C123.759 166.799 122.982 166.657 122.199 166.672H122.205Z" fill="#EE7552"/>
<path d="M68.0123 188.77C73.2903 181.543 81.0211 179.017 89.5774 181.46C90.6362 181.769 90.9727 180.51 90.1401 179.742C86.8403 177.045 81.5737 175.3 76.0968 177.156C70.62 179.013 67.4711 183.515 66.5212 187.749C66.3269 188.865 67.3596 189.66 68.0123 188.77Z" fill="#FFAE94"/>
<path d="M87.4504 156C88.0509 156.083 87.9972 156.769 87.5984 157C85.4039 158.125 83.1528 159.366 81.1918 161.462C84.818 160.9 88.1366 161.683 90.2862 162.958C90.7736 163.27 90.5198 163.929 90.1484 163.959C85.5476 163.897 81.0643 164.463 76.0472 166.831C75.6193 166.976 75.219 166.921 75.1595 166.464C74.4109 159.753 81.5862 154.745 87.4504 156Z" fill="#FFAE94"/>
<path d="M54.0746 167.639C53.6482 168.07 54.108 168.582 54.5649 168.523C56.9915 168.082 59.5327 167.697 62.364 168.169C59.144 169.928 56.9858 172.568 56.0547 174.887C55.8574 175.431 56.4594 175.8 56.7727 175.598C60.3871 172.751 64.2902 170.473 69.7134 169.303C70.1413 169.158 70.4256 168.87 70.195 168.472C66.7079 162.689 57.9661 163.076 54.0746 167.639Z" fill="#FFAE94"/>
<path d="M73.5398 70.5537L71.8141 68.8281C67.7558 64.7697 70.629 57.8302 76.3689 57.8302L78.8097 57.8286C79.6436 57.799 80.4335 57.4468 81.0129 56.8463C81.5923 56.2459 81.9161 55.444 81.9159 54.6095C81.9158 53.7751 81.5919 52.9732 81.0123 52.3729C80.4327 51.7726 79.6428 51.4206 78.8089 51.3912L76.3697 51.3896C70.6306 51.3888 67.7566 44.4501 71.8149 40.3918L73.5406 38.6661C74.1448 38.0619 74.4842 37.2424 74.4842 36.3879C74.4842 35.5334 74.1448 34.7139 73.5406 34.1097C72.9364 33.5055 72.1169 33.166 71.2624 33.166C70.4079 33.166 69.5884 33.5055 68.9842 34.1097L67.2577 35.8361C63.1994 39.8945 56.2607 37.0205 56.2599 31.2813L56.2591 28.8414C56.2296 28.0075 55.8777 27.2175 55.2773 26.6379C54.677 26.0584 53.8752 25.7344 53.0407 25.7343C52.2063 25.7342 51.4044 26.058 50.8039 26.6374C50.2035 27.2168 49.8513 28.0067 49.8216 28.8406L49.8216 31.2829C49.8216 37.0229 42.8821 39.8961 38.8238 35.8377L37.0965 34.1105C36.7995 33.8021 36.444 33.556 36.0507 33.3866C35.6575 33.2172 35.2344 33.1279 34.8062 33.1238C34.3781 33.1198 33.9534 33.2012 33.557 33.3632C33.1607 33.5252 32.8006 33.7646 32.4978 34.0674C32.195 34.3701 31.9557 34.7302 31.7937 35.1266C31.6317 35.5229 31.5503 35.9476 31.5543 36.3758C31.5583 36.8039 31.6476 37.227 31.817 37.6203C31.9864 38.0135 32.2325 38.369 32.5409 38.6661L34.2666 40.3918C38.3249 44.4501 35.4509 51.3904 29.711 51.3904L27.271 51.3912C26.4403 51.4256 25.655 51.7797 25.0794 52.3797C24.5037 52.9796 24.1823 53.7789 24.1823 54.6103C24.1823 55.4417 24.5037 56.241 25.0794 56.8409C25.655 57.4409 26.4403 57.7951 27.271 57.8294L29.7126 57.8286C35.4525 57.8286 38.3257 64.7681 34.2674 68.8265L32.5425 70.5513C31.9383 71.1555 31.5989 71.975 31.5989 72.8295C31.5989 73.684 31.9383 74.5035 32.5425 75.1077C33.1467 75.712 33.9662 76.0514 34.8207 76.0514C35.6752 76.0514 36.4947 75.712 37.0989 75.1077L38.8222 73.3845C42.8805 69.3261 49.82 72.1993 49.82 77.9393L49.8208 80.3792C49.8552 81.21 50.2094 81.9952 50.8093 82.5709C51.4093 83.1465 52.2085 83.4679 53.04 83.4679C53.8714 83.4679 54.6706 83.1465 55.2706 82.5709C55.8705 81.9952 56.2247 81.21 56.2591 80.3792L56.2583 77.9377C56.2583 72.1977 63.1986 69.3237 67.2569 73.3821L68.9818 75.1069C69.2788 75.4153 69.6344 75.6614 70.0276 75.8308C70.4208 76.0002 70.8439 76.0896 71.2721 76.0936C71.7003 76.0976 72.1249 76.0162 72.5213 75.8542C72.9176 75.6922 73.2777 75.4528 73.5805 75.15C73.8833 74.8473 74.1226 74.4872 74.2847 74.0908C74.4467 73.6945 74.528 73.2698 74.524 72.8416C74.52 72.4135 74.4307 71.9904 74.2613 71.5972C74.0919 71.2039 73.8458 70.8484 73.5374 70.5513L73.5398 70.5537Z" fill="#EE7552"/>
<path d="M44.0266 58.138C48.8644 57.3838 52.8321 59.3975 55.1972 63.6523C55.4873 64.1814 56.1045 63.8245 56.0793 63.2056C55.8463 60.8855 54.4839 58.1731 51.6469 56.7727C48.81 55.3722 45.8502 55.8958 43.8448 57.1662C43.3382 57.5225 43.4302 58.2295 44.0266 58.138Z" fill="#FFAE94"/>
<path d="M64.2232 52.9805C64.4236 53.2447 64.1374 53.4894 63.8939 53.4243C62.6095 53.0108 61.2589 52.6197 59.6895 52.672C61.3095 53.8575 62.2903 55.4443 62.6287 56.7691C62.6966 57.0782 62.3436 57.2348 62.1882 57.1029C60.4325 55.299 58.4792 53.7835 55.6221 52.759C55.4004 52.6496 55.2669 52.4734 55.4206 52.2737C57.7273 49.3879 62.4405 50.226 64.2232 52.9805Z" fill="#FFAE94"/>
<path d="M46.8093 44.572C46.4776 44.5737 46.4575 44.9496 46.6572 45.1033C47.7665 45.8715 48.8983 46.7058 49.8112 47.9834C47.885 47.4184 46.0288 47.6047 44.7714 48.1418C44.4847 48.2759 44.5751 48.6512 44.7742 48.6944C47.274 48.9912 49.6648 49.6201 52.2157 51.2652C52.4373 51.3746 52.6584 51.3735 52.7234 51.13C53.6116 47.544 50.0799 44.3121 46.8093 44.572Z" fill="#FFAE94"/>
<circle cx="73.5" cy="107.5" r="5.5" fill="#FFAE94"/>
<circle cx="32.5" cy="16.4998" r="5.5" fill="#FFAE94"/>
<circle cx="155.5" cy="220.067" r="5.5" fill="#FFAE94"/>
<circle cx="9.5" cy="144.5" r="5.5" fill="#FFAE94"/>
<path d="M252.46 203.733L259.403 194.501C260.311 193.294 260.656 191.925 260.439 190.392C260.222 188.859 259.503 187.586 258.281 186.572L225.721 162.226L241.672 141.206C242.58 139.999 242.929 138.655 242.72 137.175C242.51 135.695 241.802 134.502 240.595 133.594L231.907 127.059C230.7 126.152 229.357 125.802 227.877 126.012C226.396 126.221 225.256 126.922 224.454 128.114L212.882 143.5L190.555 173.186L178.983 188.572C178.06 189.673 177.704 190.964 177.913 192.444C178.122 193.924 178.831 195.118 180.037 196.025L188.726 202.56C189.933 203.468 191.276 203.817 192.756 203.607C194.236 203.398 195.377 202.697 196.179 201.506L212.107 180.327L244.531 204.855C245.844 205.747 247.266 206.085 248.799 205.868C250.332 205.651 251.553 204.94 252.46 203.733Z" fill="#FEE24B"/>
<path d="M83.5758 92.7271L190.555 173.186L201.718 158.343L212.882 143.5L105.903 63.0409L104.069 62.0872L102.451 61.5074L100.888 61.3241L99.5972 61.345L82.0745 63.8243C80.7001 64.0187 79.5818 64.6892 78.7196 65.8356C77.8574 66.982 77.5235 68.2424 77.718 69.6167L80.186 87.0602C80.2309 87.3773 80.3473 87.8191 80.5353 88.3856C80.7233 88.9521 80.9265 89.4356 81.1449 89.836C81.3633 90.2364 81.6986 90.7012 82.1509 91.2303C82.6032 91.7594 83.0781 92.2583 83.5758 92.7271Z" fill="#AAD8DF"/>
<path d="M82.0744 63.8243C80.7001 64.0187 79.5818 64.6892 78.7196 65.8356L201.718 158.343L212.882 143.5L105.903 63.0409L104.069 62.0872L102.451 61.5074L100.888 61.3241L99.5972 61.345L82.0744 63.8243Z" fill="#F1FDFF"/>
</g>
</svg>
