<svg xmlns="http://www.w3.org/2000/svg" xmlns:xlink="http://www.w3.org/1999/xlink" width="97" height="97" viewBox="0 0 97 97">
    <defs>
        <rect id="a" width="97" height="97" rx="48.5"/>
    </defs>
    <g fill="none" fill-rule="evenodd">
        <g>
            <mask id="b" fill="#fff">
                <use xlink:href="#a"/>
            </mask>
            <use fill="#C1C1C1" xlink:href="#a"/>
            <g fill="#FFAE94" mask="url(#b)">
                <path d="M0 0h97v97H0z"/>
            </g>
        </g>
        <g fill="#FFF">
            <path fill-rule="nonzero" d="M45.416 44c.783 0 1.417-.643 1.417-1.437 0-.932.748-1.69 1.667-1.69.92 0 1.667.758 1.667 1.69 0 .794.634 1.437 1.417 1.437.782 0 1.416-.643 1.416-1.437C53 40.047 50.981 38 48.5 38S44 40.047 44 42.563c0 .794.634 1.437 1.416 1.437z"/>
            <path d="M48.5 62.663a4.5 4.5 0 0 0 4.5-4.5c0-2.485-2.015-1.125-4.5-1.125s-4.5-1.36-4.5 1.125a4.5 4.5 0 0 0 4.5 4.5z"/>
            <path fill-rule="nonzero" d="M35.5 31.5c-5.523 0-10 4.477-10 10s4.477 10 10 10 10-4.477 10-10-4.477-10-10-10zm0 3a7 7 0 1 1 0 14 7 7 0 0 1 0-14zM61.5 31.5c-5.523 0-10 4.477-10 10s4.477 10 10 10 10-4.477 10-10-4.477-10-10-10zm0 3a7 7 0 1 1 0 14 7 7 0 0 1 0-14z"/>
            <path d="M61.5 42c1.38 0 2.5.88 2.5-.5a2.5 2.5 0 1 0-5 0c0 1.38 1.12.5 2.5.5zM35.5 42c1.38 0 2.5.88 2.5-.5a2.5 2.5 0 1 0-5 0c0 1.38 1.12.5 2.5.5z"/>
        </g>
    </g>
</svg>
