<svg xmlns="http://www.w3.org/2000/svg" width="290" height="223" viewBox="0 0 290 223">
    <g fill="none" fill-rule="evenodd" stroke-linejoin="round">
        <g fill="#25204F" fill-rule="nonzero" stroke="#25204F" stroke-width=".5">
            <path d="M86.098 176.724H56.57v-3.202a9.97 9.97 0 0 0 1.645-1.33v-.105c5.993-3.787 9.593-10.343 9.533-17.36v-2.932c1.98.046 3.773-1.147 4.472-2.973a4.695 4.695 0 0 0-1.266-5.282 63.69 63.69 0 0 0 1.118-10.936 23.417 23.417 0 0 0-4.324-14.907c-3.142-3.847-7.972-5.947-14.32-6.238-9.64-.436-16.094 1.123-19.173 4.658a6.805 6.805 0 0 0-1.772 4.615c-1.645 1.081-5.78 4.637-4.914 12.475v.5h-.127a1.598 1.598 0 0 0-1.17.335 1.553 1.553 0 0 0-.58 1.057l-1.224 10.999a18.172 18.172 0 0 0-4.387 4.179c-3.375 3.971-3.354 6.716-3.332 12.142 0 2.578 0 5.946-.317 10.396l-1.582-.166a2.131 2.131 0 0 0-1.59.426c-.449.35-.735.863-.793 1.424l-.338 3.223C6.203 179.8.36 184.812.888 191.652l2.594 29.856H5.59l-2.594-30.022c-.422-5.385 4.05-9.523 8.88-11.457L7.32 221.612H9.43l4.598-42.227v-.728l.19-1.476.274-2.225 1.624.187 2.109.23 4.978.54 3.67.395h.864v.374l-.232 2.08-4.598 42.746h2.11l4.724-42.705h13.52v2.079a6.337 6.337 0 0 0 1.896 4.534 6.523 6.523 0 0 0 4.6 1.87h.274a6.523 6.523 0 0 0 4.6-1.87 6.337 6.337 0 0 0 1.897-4.534v-2.08h29.528c7.583-.173 14.066 5.346 14.996 12.767l-2.657 29.94h2.109l2.7-29.857v-.187c-.99-8.529-8.4-14.915-17.106-14.741zM69.02 145.758c1.047.646 1.452 1.902.963 2.984-.4 1.028-1.5 1.662-2.657 1.532a74.786 74.786 0 0 0-.439-4.771 3.276 3.276 0 0 1 2.133.255zm-34.777-1.692a100.273 100.273 0 0 1 2.583-14.471c5.907 2.6 15.539.205 20.09-1.576a5.262 5.262 0 0 1 4.129 0 90.195 90.195 0 0 1 3.599 15.433c.317 2.395.508 4.524.592 6.489v3.93c-.038 4.658-1.82 9.144-5.017 12.629.118-.628.182-1.265.19-1.904-.011-5.206-4.374-9.424-9.759-9.436h-2.964c-5.385.012-9.747 4.23-9.76 9.436a7.541 7.541 0 0 0 0 1.208c-2.73-3.848-4.847-10.439-3.767-21.758l.084.02zm-3.672 1.558c.4-.129.826-.195 1.254-.196h.395a50.18 50.18 0 0 0-.232 4.794c-1.217.279-2.475-.314-2.835-1.336-.61-1.234.009-2.656 1.418-3.262zm-2.56-5.06c.231 1.672.43 2.807.561 3.535a4.05 4.05 0 0 0-.957 1.329l.396-4.863zm-2.737 33.977l-7.91-.894c.357-4.787.336-8.297.336-10.978 0-5.532 0-7.595 2.84-11.063a32.99 32.99 0 0 1 2.672-2.936l-1.073 10.17a7.613 7.613 0 0 0-.252 2.361v.17c-.035.36.055.72.252 1.021.11.37.297.71.547 1a3.489 3.489 0 0 0 3.408 1.043c1.83-.255 2.42-.128 2.588 0a11.68 11.68 0 0 1 0 4.68 7.776 7.776 0 0 1-3.408 5.49v-.064zm16.851 1.685h-12.92v-.17a2.147 2.147 0 0 0-.898-1.968 8.962 8.962 0 0 0 2.731-5.44c.367-3.512.55-5.27-.55-6.349-1.1-1.079-2.242-.91-4.198-.613-.223.032-.45.032-.673 0a1.67 1.67 0 0 0 .224-.635l1.284-12.381v.232c.573 1.731 2.151 2.884 3.913 2.858h.55c.49 12.233 4.994 17.693 8.621 20.085.511.522 1.087.97 1.712 1.333l.204 3.048zm11.556 3.976c-.01 2.276-1.796 4.118-4.002 4.128h-.25c-2.21 0-4.002-1.848-4.002-4.128v-5.34c.92.244 1.86.397 2.809.457h.846a15.424 15.424 0 0 0 4.599-.714v5.597zm-2.757-7.218v-3.685c.083-.908-.33-1.786-1.065-2.267a2.178 2.178 0 0 0-2.4 0c-.736.48-1.149 1.359-1.066 2.267v3.467c-3.379-.517-5.893-3.556-5.919-7.153.012-3.964 3.046-7.182 6.808-7.218h2.897c3.635.038 6.614 3.053 6.795 6.88.18 3.825-2.498 7.138-6.112 7.556l.062.153z"/>
            <path d="M79.687 221.728h2.3l1.001-16.165-2.277-.125zM57.403 141.922c-.464 0-.827.751-.827 1.69v.396h1.64c.007-.09.007-.18 0-.271.087-1.043-.363-1.815-.813-1.815zM42.558 141.776c-.465 0-.829.751-.829 1.69a2.237 2.237 0 0 0 0 .438h1.63a2.237 2.237 0 0 0 0-.438c0-.939-.35-1.69-.8-1.69zM52.267 149.014c1.55.647 2.295 1.043 2.295 1.752.03.428-.182.834-.543 1.043-1.256.51-2.65.51-3.906 0l-.906 1.857a6.793 6.793 0 0 0 2.9.584 5.559 5.559 0 0 0 2.959-.751c.95-.594 1.525-1.666 1.51-2.816 0-2.19-2.014-3.024-3.564-3.692-1.55-.667-2.577-1.147-2.677-2.086l-2.013.209c.241 2.336 2.315 3.212 3.945 3.9zM45.02 136.436v-2.085a18.031 18.031 0 0 0-6.603 1.105l.847 1.856a16.637 16.637 0 0 1 5.756-.876zM61.528 135.456a27.902 27.902 0 0 0-8.254-1.105v2.085a26.163 26.163 0 0 1 7.26.876l.994-1.856zM54.788 160.925a6.121 6.121 0 0 1-4.775 2.086 5.757 5.757 0 0 1-5.018-2.086l-1.626 1.251c1.548 1.988 3.923 3.103 6.4 3.004h.407c2.473.038 4.829-1.083 6.4-3.045l-1.788-1.21z"/>
        </g>
        <g fill="#25204F" fill-rule="nonzero" stroke="#25204F" stroke-width=".5">
            <path d="M220.615 180.596h20.726v-2.69a17.775 17.775 0 0 1-4.737-3.047 19.548 19.548 0 0 1-4.137-5.438 12.219 12.219 0 0 1-9.214 5.478c-6.156.637-11.992-2.67-15.57-8.845l-1.06-1.772 2 .298c3.997.578 5.276-3.107 6.955-9.163.48-1.693.96-3.426 1.559-5.06a26.797 26.797 0 0 1-3.997-.955l-2.519-.956 2.599-.937a17.028 17.028 0 0 0 6.595-4.64c1.58-2.371 1.839-3.407.86-8.307a14.564 14.564 0 0 1 2.858-11.095 16.004 16.004 0 0 1 11.392-6.116 7.117 7.117 0 0 1 3.997-2.649c6.676-2.49 25.843-4.621 34.158 15.258a27.56 27.56 0 0 1 .979 8.984c0 1.215 0 2.47.1 3.645l1.06 5.24.359 1.752a1.581 1.581 0 0 1 1.1-.498h.299c.756.11 1.457.459 1.999.996l.4.398a21.922 21.922 0 0 1 2.638 3.367c2.738 3.984 2.458 6.653 1.878 11.772-.2 1.733-.44 3.845-.62 6.494.65.204 1.32.338 2 .398l4.117.339-3.818 1.574c-.86.358-1.679.677-2.498.956v.14h1.1c1.103 0 1.998.891 1.998 1.991v44.3h-1.999v-44.3H272.06v44.3h-1.998v-39.22h-15.27v2.609c0 3.634-2.95 6.582-6.596 6.593h-.28c-3.653 0-6.615-2.952-6.615-6.593v-2.61h-20.686c-5.996 0-10.813 3.506-11.353 7.968v31.194h-1.998v-31.313c.759-5.578 6.495-9.84 13.35-9.84zm52.754-5.363h7.184v-1.615c-.01-.154-.01-.31 0-.464 0-.787 0-1.513.135-2.22.154-2.38.365-4.318.538-6.053.538-5.146.749-7.063-1.499-10.594-1.92-3.047-2.977-3.754-3.323-3.895l-.71 1.493v.303l1.498 7.83.307.323v.302c.122.665.161 1.343.115 2.018.041.295.001.596-.115.868a3.693 3.693 0 0 1-.903 1.776c-.131.134-.28.25-.441.343a3.062 3.062 0 0 1-1.921.423 7.032 7.032 0 0 1-.826-.14c-1.71-.465-2.17-.344-2.305-.243a10.914 10.914 0 0 0-.385 4.339c.14 2.052 1.104 3.945 2.651 5.206zm-2.68-.101c.11-.093.232-.172.362-.237a8.087 8.087 0 0 1-2.016-5.257c0-3.26 0-4.9 1.19-5.81a4.104 4.104 0 0 1 3.548-.256 45.414 45.414 0 0 1-2.58-13.18l-2.299-11.264c-.161-.913.445-1.787 1.371-1.976l1.028-.198c.228-.03.458-.03.686 0a21.06 21.06 0 0 0-.827-6.758c-5.665-13.338-16.611-15.433-22.639-15.512-6.632 0-11.41 2.154-12.095 3.023l.342 1.028-1.27.099c-4.233.148-8.188 2.105-10.825 5.355a12.484 12.484 0 0 0-2.56 9.347c1.028 5.058.826 6.797-1.17 9.722a14.752 14.752 0 0 1-5.1 4.17c.735.163 1.485.256 2.238.276h1.512l-.585 1.383a46.433 46.433 0 0 0-2.016 6.047c-1.37 4.9-2.802 9.88-7.237 10.532 2.75 4.24 7.649 6.66 12.76 6.304 3.68-.278 6.922-2.475 8.488-5.75a24.27 24.27 0 0 1-1.532-7.905v-3.102h-.565a4.723 4.723 0 0 1-4.031-2.114 4.918 4.918 0 0 1 .201-5.593 5.502 5.502 0 0 1 4.032-1.976l1.29-.257a96.825 96.825 0 0 1 3.306-14.03c-.685.218-1.31.475-1.451.751l-1.815-.889c.565-1.107 1.855-1.502 3.226-1.976 2.359-.731 3.79-1.344 3.79-3.597l-.464-6.343 2.42 6.205c1.048 3.557 8.063 3.735 14.232 3.952 4.394.1 8.547.218 10.765 1.522l-1.028 1.68a5.498 5.498 0 0 0-.767-.336 110.628 110.628 0 0 1 2.641 14.287l.928.217a4.968 4.968 0 0 1 4.031 2.075 5.074 5.074 0 0 1-.342 5.73 4.345 4.345 0 0 1-3.528 1.7h-.645c-.343 8.003-2.46 13.002-4.738 16.065-.383.527-.8 1.028-1.25 1.502a26.7 26.7 0 0 0 10.987 1.344zm-40.641-26.024c-.933-.546-2.01-.243-2.72.767-.538 1.151-.538 2.641 0 3.792.547 1.1 1.52 1.611 2.446 1.286-.016-1.986.097-3.95.274-5.845zm6.538-8.696a2.299 2.299 0 0 0-.553.172l-.921-1.704a24.742 24.742 0 0 1 7.7-1.072v1.915h-2.048c3.19.416 5.699 2.76 6.144 5.744h1.229c.225-1.45.943-2.792 2.048-3.83a7.723 7.723 0 0 1 4.096-1.914h-2.048v-1.915c2.613-.05 5.216.313 7.7 1.072l-.921 1.704a2.36 2.36 0 0 0-.594-.191c2.262.998 3.81 3.019 4.096 5.342h.327a99.646 99.646 0 0 0-2.887-13.728 67.686 67.686 0 0 0-6.922-.383c-5.694-.153-12.022-.306-14.95-2.967-.632 1.017-1.625 1.796-2.807 2.201a87.65 87.65 0 0 0-3.665 14.015l1.126-.134c.554-1.895 1.958-3.472 3.85-4.327zm-2.018 6.273c0 3.078 2.484 5.574 5.548 5.574s5.548-2.496 5.548-5.574c0-3.079-2.484-5.574-5.548-5.574a5.535 5.535 0 0 0-3.937 1.625 5.587 5.587 0 0 0-1.633 3.949h.022zm14.93.238c0 3 2.483 5.433 5.547 5.433 3.064 0 5.548-2.432 5.548-5.433s-2.484-5.434-5.548-5.434a5.608 5.608 0 0 0-3.937 1.584 5.378 5.378 0 0 0-1.633 3.85h.022zm16.467 2.055c.146 2.273.201 4.182.201 6.068h.532c.716.047 1.404-.354 1.833-1.068.67-1.148.741-2.673.183-3.91-.643-1.04-1.74-1.475-2.75-1.09zm-10.932 32.465h15.616v-2.606h-1.533a25.363 25.363 0 0 1-10.608-2.052 15.056 15.056 0 0 1-3.475 2.196v2.462zm-12.492 3.256a4.463 4.463 0 0 0 1.329 3.192 4.563 4.563 0 0 0 3.227 1.315h.276a4.562 4.562 0 0 0 3.215-1.322 4.463 4.463 0 0 0 1.322-3.185v-6.049a15.102 15.102 0 0 1-3.274.546h-.908a16.615 16.615 0 0 1-5.187-.858v6.36zm.29-8.907a14.014 14.014 0 0 0 5.881.976 13.069 13.069 0 0 0 3.392-.664 12.342 12.342 0 0 0 1.961-.84 13.826 13.826 0 0 0 4.55-3.904c2.685-3.71 5.097-10.484 3.92-22.745l-.627-.156a6.908 6.908 0 0 1-5.778 5.6 6.93 6.93 0 0 1-7.182-3.648 6.607 6.607 0 0 1-3.706 2.597c-1.667.663-2.451 1.073-2.451 1.952-.017.448.217.87.608 1.093a5.67 5.67 0 0 0 4.157 0l.882 1.738a7.282 7.282 0 0 1-3 .566 6.08 6.08 0 0 1-3.078-.722 3.12 3.12 0 0 1-1.53-2.753c.001-.25.034-.5.098-.742h-.686c-3.758-.064-6.774-3.11-6.784-6.853l-1.177.234a64.04 64.04 0 0 0-.647 11.031c.071 2.56.582 5.09 1.51 7.478.037.114.083.225.137.332.967 2.4 2.46 4.555 4.373 6.306a15.824 15.824 0 0 0 3.215 2.245c.628.348 1.284.642 1.961.879zm-24.623 27.237a18.9 18.9 0 0 0 3.522-9.166l2.072.164a20.9 20.9 0 0 1-3.812 10.063 19.513 19.513 0 0 0-2.072 17.719h-2.196a23.8 23.8 0 0 1-.766-2.96 19.066 19.066 0 0 1 3.252-15.82z"/>
            <path d="M238.358 147.36c0-1.214.84-2.155 1.862-2.155 1.022 0 1.833.94 1.833 2.155.014.107.014.215 0 .322h-3.635a1.185 1.185 0 0 1-.06-.322zM253.181 147.36c0-1.214.841-2.155 1.863-2.155 1.021 0 1.832.94 1.832 2.155.015.107.015.215 0 .322h-3.635a1.185 1.185 0 0 1-.06-.322zM247.524 166.41c2.025.168 3.998-.806 5.313-2.626l1.58 1.394c-1.622 2.347-4.086 3.663-6.656 3.554h-.296c-2.571.07-5.023-1.269-6.637-3.624l1.58-1.277c1.289 1.72 3.168 2.668 5.116 2.578z"/>
        </g>
        <path stroke="#4FC5D5" stroke-dasharray="0,14" stroke-linecap="round" stroke-width="5" d="M247 103C247 47.772 202.228 3 147 3S47 47.772 47 103"/>
    </g>
</svg>
