<svg xmlns="http://www.w3.org/2000/svg" xmlns:xlink="http://www.w3.org/1999/xlink" width="66" height="67" viewBox="0 0 66 67">
    <defs>
        <rect id="a" width="66" height="66" rx="33"/>
    </defs>
    <g fill="none" fill-rule="evenodd">
        <g transform="translate(0 .5)">
            <mask id="b" fill="#fff">
                <use xlink:href="#a"/>
            </mask>
            <use fill="#C1C1C1" xlink:href="#a"/>
            <g fill="#FFFEFE" mask="url(#b)">
                <path d="M0 0h66v66H0z"/>
            </g>
        </g>
        <g fill="#25204F">
            <g fill-rule="nonzero">
                <path d="M16.416 28.281c.782 0 1.417-.643 1.417-1.436 0-.932.748-1.69 1.667-1.69.92 0 1.667.758 1.667 1.69 0 .793.635 1.436 1.417 1.436S24 27.638 24 26.845c0-2.516-2.019-4.564-4.5-4.564S15 24.33 15 26.845c0 .793.634 1.436 1.416 1.436zM42.416 28.281c.783 0 1.417-.643 1.417-1.436 0-.932.748-1.69 1.667-1.69.92 0 1.667.758 1.667 1.69 0 .793.634 1.436 1.417 1.436.782 0 1.416-.643 1.416-1.436 0-2.516-2.019-4.564-4.5-4.564S41 24.33 41 26.845c0 .793.634 1.436 1.416 1.436z"/>
            </g>
            <path d="M32 46a4 4 0 0 0 4-4c0-2.21-1.79-1-4-1s-4-1.21-4 1a4 4 0 0 0 4 4z"/>
        </g>
    </g>
</svg>
