<?xml version="1.0" encoding="UTF-8"?>
<svg width="482px" height="270px" viewBox="0 0 482 270" version="1.1" xmlns="http://www.w3.org/2000/svg" xmlns:xlink="http://www.w3.org/1999/xlink">
    <title>Group</title>
    <defs>
        <path d="M136.037831,4.46529801 C136.047272,4.42129869 136.055737,4.37729936 136.063551,4.33362595 C136.072667,4.28115268 136.080481,4.22900534 136.087318,4.17685799 C136.092527,4.13481419 136.097085,4.0927704 136.100666,4.05072658 C136.105224,3.99727555 136.10848,3.94382452 136.110434,3.89037348 C136.112713,3.84767785 136.112713,3.80530813 136.112713,3.76261248 C136.112713,3.71079106 136.111085,3.65929555 136.10848,3.60780005 C136.106527,3.56249704 136.103271,3.51784587 136.099364,3.47254286 C136.095132,3.42430656 136.088946,3.3767221 136.082434,3.32881173 C136.075923,3.28090135 136.069086,3.23331689 136.060295,3.18540652 C136.052156,3.14010351 136.042063,3.09577826 136.031645,3.05080117 C136.020575,3.00223895 136.009831,2.95335082 135.996483,2.90511452 C135.984111,2.86046334 135.969786,2.81646403 135.955461,2.77213878 C135.940484,2.725858 135.925833,2.6792513 135.908578,2.63329646 C135.890346,2.58343056 135.868858,2.53486834 135.848021,2.48630611 C135.831091,2.4471956 135.81579,2.40808509 135.797883,2.36962643 C135.764674,2.30020527 135.72821,2.23273964 135.690118,2.16559992 C135.681002,2.1496298 135.674165,2.13365967 135.664723,2.11768955 C135.663747,2.11638587 135.663095,2.11508219 135.662119,2.11345257 C135.612306,2.02871313 135.558261,1.94625514 135.50096,1.86607859 C135.485983,1.84554557 135.469379,1.82664215 135.454403,1.80676098 C135.411427,1.74972481 135.368126,1.69334049 135.321569,1.63923762 C135.293244,1.6063196 135.263291,1.5766608 135.23399,1.54537239 C135.197851,1.5065878 135.162038,1.46780321 135.123946,1.4303223 C135.088133,1.39577468 135.050366,1.36318259 135.0126,1.33026458 C134.978414,1.29995393 134.94488,1.26899144 134.909067,1.23965856 C134.867068,1.2060887 134.823116,1.17447437 134.78014,1.14253412 C134.745629,1.11743821 134.712421,1.09201638 134.676933,1.06822415 C134.630702,1.03693574 134.582191,1.0082547 134.534658,0.979573654 C134.507635,0.963603529 134.48224,0.945351957 134.454566,0.929707752 C134.44545,0.924818937 134.436334,0.920907886 134.427218,0.916019073 C134.381963,0.89092316 134.335081,0.868760537 134.288849,0.845620152 C134.246525,0.825087132 134.2042,0.803576351 134.161225,0.784998859 C134.122156,0.767725049 134.082436,0.753058607 134.04239,0.737414403 C133.99095,0.717207305 133.939509,0.696674286 133.886766,0.679726397 C133.852906,0.667993244 133.81807,0.658541537 133.783559,0.648437988 C133.725282,0.631164179 133.667329,0.613890369 133.608401,0.59987577 C133.575192,0.592379588 133.541984,0.586187091 133.508124,0.579668672 C133.448544,0.567283677 133.388638,0.555550523 133.328407,0.546424737 C133.292269,0.541535922 133.256456,0.537950793 133.220317,0.53371382 C133.16269,0.527521323 133.105064,0.521654746 133.047112,0.518069615 C133.007066,0.51611409 132.967021,0.515462248 132.926975,0.513491892 C132.87293,0.513491892 132.818885,0.513491892 132.76484,0.513491892 C132.722189,0.51578817 132.679214,0.518069615 132.636563,0.521002905 C132.584472,0.524913956 132.532705,0.529476849 132.480939,0.535343426 C132.437638,0.540232239 132.394662,0.546424737 132.351687,0.553594998 C132.298618,0.56174302 132.245875,0.571520648 132.193132,0.58260196 C132.153087,0.590749984 132.113041,0.599549848 132.072996,0.609653398 C132.015369,0.624319839 131.958719,0.640289965 131.901418,0.657889696 C131.867559,0.668645085 131.833699,0.679074555 131.799514,0.690481789 C131.73505,0.712644412 131.671238,0.737740323 131.608077,0.764139919 C131.589193,0.772287942 131.569333,0.778154518 131.55045,0.786628463 L2.36936433,57.5587955 C1.23929835,58.0558248 0.486572327,59.1496156 0.426341133,60.3838781 C0.366110106,61.6181406 1.00846674,62.7807006 2.08481306,63.3852839 L32.415899,80.4247561 L46.2566831,121.261345 C46.2589621,121.268515 46.2615667,121.275034 46.2635202,121.282204 L46.2680782,121.295567 C46.2970542,121.37998 46.3289605,121.46309 46.3641224,121.543919 C46.3797499,121.580422 46.3983076,121.615621 46.4155631,121.651798 C46.4403065,121.70362 46.4653758,121.755441 46.4927239,121.805633 C46.5125839,121.842462 46.5343974,121.878965 46.5558852,121.915142 C46.585838,121.965334 46.617093,122.014548 46.6489993,122.062785 C46.6711383,122.095051 46.6923005,122.126991 46.7150908,122.158931 C46.760671,122.221508 46.8085304,122.282129 46.8580175,122.341121 C46.8707149,122.356439 46.8821099,122.372409 46.8954584,122.387728 C46.9605732,122.46269 47.0295948,122.53374 47.1008955,122.602184 C47.1077324,122.608376 47.1129417,122.615547 47.1197786,122.621413 C47.1350807,122.63608 47.1516849,122.648139 47.167638,122.662479 C47.2164741,122.70713 47.2669379,122.750152 47.3183786,122.791544 C47.3483313,122.815336 47.3779585,122.838476 47.4079112,122.860965 C47.4544683,122.895513 47.502002,122.928105 47.550187,122.960371 C47.5827443,122.982533 47.6153017,123.005022 47.6491613,123.025555 C47.7067879,123.061406 47.7666934,123.093998 47.8269245,123.126265 C47.8806441,123.15462 47.9346894,123.180693 47.9890601,123.205789 C48.0362683,123.227626 48.083802,123.250115 48.1323125,123.269344 C48.1736603,123.286292 48.2156594,123.300958 48.2579839,123.315951 C48.304541,123.332899 48.3517491,123.348869 48.3992829,123.363209 C48.4403051,123.376246 48.4813275,123.387653 48.5230008,123.398409 C48.5744414,123.412097 48.6265332,123.423831 48.6789505,123.434912 C48.7173683,123.44306 48.7554603,123.451534 48.7938781,123.458052 C48.8537837,123.468482 48.9140147,123.475978 48.9748969,123.483148 C49.0068032,123.486733 49.0383838,123.491948 49.0709411,123.494555 C49.161125,123.502377 49.2522856,123.507592 49.3447485,123.507592 C49.4518622,123.507592 49.5501854,123.501726 49.6488342,123.4926 C49.6774848,123.489992 49.7061352,123.485755 49.7347857,123.482496 C49.8060863,123.474022 49.8764101,123.463593 49.9460829,123.450556 C49.9789659,123.444689 50.0111977,123.438171 50.043755,123.431001 C50.1127766,123.416334 50.1811471,123.398409 50.2485409,123.378853 C50.2775169,123.370705 50.3068185,123.363209 50.3357945,123.354409 C50.426304,123.325402 50.5155111,123.293462 50.6027649,123.256959 C50.6320666,123.2449 50.6600657,123.230233 50.6890419,123.217197 C50.7495985,123.189819 50.8098296,123.161138 50.8684328,123.130502 C50.9045716,123.111272 50.9397336,123.091391 50.9745699,123.071184 C51.0302429,123.038918 51.0842882,123.005348 51.1376822,122.970149 C51.1673095,122.950593 51.1979134,122.93169 51.2272151,122.911157 C51.3066549,122.855099 51.3834903,122.795455 51.4573954,122.732878 C51.4753021,122.71756 51.4922319,122.700938 51.5098128,122.685294 C51.5710207,122.630539 51.6309263,122.574155 51.6882272,122.514837 C51.6989711,122.50343 51.7110173,122.493652 51.7217612,122.482245 L70.5027989,102.513395 L94.2589264,115.830199 C94.7505425,116.105928 95.2988085,116.245748 95.8493533,116.245748 C96.2439485,116.245748 96.6395204,116.174045 97.0165346,116.029011 C97.9196757,115.681905 98.6219379,114.950538 98.9325352,114.033397 L135.942112,4.81794446 C135.949275,4.79578184 135.954484,4.7732933 135.961646,4.75145659 C135.975972,4.70452398 135.989646,4.65759136 136.002669,4.60968098 C136.015692,4.5617706 136.027087,4.5135343 136.037831,4.46529801 Z" id="path-1"></path>
        <path d="M35.4851683,85.8608777 L149.179941,2.88677374e-12 C139.150793,2.02492171 134.136218,3.03738256 134.136218,3.03738256 C134.136218,3.03738256 89.4241457,23.3898968 0,64.0949254 L3.35117278,72.7718903 C21.9577631,86.1511021 31.2610583,92.840708 31.2610583,92.840708 C31.2610583,92.840708 32.669095,90.5140979 35.4851683,85.8608777 Z" id="path-3"></path>
        <path d="M82.4095395,2.53013856 C82.4152593,2.50359385 82.4203873,2.47704913 82.4251209,2.45070103 C82.4306435,2.419044 82.4353771,2.3875836 82.4395191,2.35612319 C82.4426748,2.33075824 82.4454361,2.30539329 82.4476057,2.28002833 C82.4503669,2.24778142 82.4523392,2.2155345 82.4535227,2.18328759 C82.4549033,2.15752939 82.4549033,2.1319678 82.4549033,2.1062096 C82.4549033,2.07494583 82.4539171,2.04387867 82.4523392,2.01281152 C82.4511559,1.9854803 82.4491836,1.95854233 82.4468167,1.9312111 C82.4442526,1.90211022 82.4405053,1.8734026 82.4365605,1.84449836 C82.4326158,1.81559411 82.4284739,1.78688648 82.4231486,1.75798224 C82.4182178,1.73065101 82.4121035,1.70390967 82.405792,1.67677506 C82.399086,1.64747756 82.3925773,1.61798344 82.3844907,1.58888256 C82.3769958,1.56194458 82.3683174,1.53539987 82.3596391,1.50865853 C82.3505664,1.48073741 82.3416909,1.45261968 82.3312374,1.4248952 C82.3201923,1.39481119 82.3071748,1.36551369 82.2945518,1.33621618 C82.2842956,1.31262087 82.2750256,1.28902557 82.2641778,1.26582352 C82.2440599,1.22394186 82.2219696,1.18323996 82.1988932,1.14273468 C82.1933707,1.13309994 82.1892287,1.12346519 82.1835089,1.11383044 C82.1829172,1.11304393 82.1825227,1.11225742 82.181931,1.11127428 C82.1517542,1.06015112 82.1190134,1.01040436 82.0843001,0.962033988 C82.0752273,0.949646448 82.0651684,0.938242052 82.0560956,0.926247772 C82.0300606,0.891837954 82.0038285,0.85782139 81.975624,0.82518122 C81.9584646,0.805321839 81.940319,0.787428733 81.922568,0.76855249 C81.900675,0.745153814 81.8789792,0.721755137 81.8559027,0.699142971 C81.834207,0.678300453 81.8113278,0.658637699 81.7884486,0.638778318 C81.767739,0.620491958 81.7474238,0.601812342 81.7257281,0.584115864 C81.7002849,0.563863228 81.6736583,0.544790357 81.6476234,0.525520859 C81.6267165,0.510380539 81.6065986,0.495043592 81.5851001,0.480689781 C81.5570928,0.461813538 81.5277048,0.444510315 81.4989087,0.427207092 C81.4825383,0.417572344 81.467154,0.406561202 81.450389,0.39712308 C81.4448665,0.394173667 81.4393439,0.391814136 81.4338214,0.388864724 C81.4064058,0.373724403 81.3780041,0.360353731 81.3499967,0.346393177 C81.3243563,0.334005642 81.2987159,0.321028225 81.2726809,0.309820456 C81.2490128,0.299399196 81.2249502,0.290550957 81.2006904,0.281112836 C81.1695274,0.268921929 81.1383644,0.256534394 81.1064124,0.246309762 C81.0859001,0.239231171 81.064796,0.233528973 81.0438892,0.227433519 C81.0085843,0.21701226 80.9734765,0.206591 80.9377771,0.198136017 C80.9176592,0.193613583 80.8975413,0.18987766 80.8770289,0.18594511 C80.8409351,0.178473264 80.8046439,0.171394672 80.7681556,0.165889101 C80.7462626,0.162939688 80.7245668,0.160776786 80.7026738,0.158220627 C80.6677634,0.154484705 80.6328529,0.150945409 80.5977452,0.148782506 C80.5734854,0.14760274 80.5492255,0.147209485 80.5249657,0.146020773 C80.4922248,0.146020773 80.4594839,0.146020773 80.4267431,0.146020773 C80.4009054,0.147406113 80.3748704,0.148782506 80.3490327,0.150552154 C80.3174752,0.152911684 80.2861149,0.15566447 80.2547547,0.159203765 C80.2285225,0.162153178 80.2024876,0.165889101 80.1764527,0.170214907 C80.1443035,0.175130595 80.1123515,0.181029421 80.0803996,0.187714757 C80.0561397,0.192630446 80.0318799,0.197939389 80.0076201,0.204034843 C79.9727096,0.212883081 79.9383909,0.222517831 79.9036777,0.233135718 C79.8831653,0.239624426 79.862653,0.245916507 79.8419433,0.252798471 C79.802891,0.266169143 79.764233,0.281309463 79.7259696,0.297236294 C79.71453,0.302151981 79.7024987,0.305691277 79.691059,0.310803593 L1.4324336,34.5613536 C0.747833297,34.8612106 0.291827652,35.5210926 0.255339258,36.265721 C0.218850964,37.0103495 0.607994213,37.7117199 1.26005084,38.076464 L19.6347927,48.356348 L28.0196172,72.9929914 C28.0209978,72.9973173 28.0225757,73.0012499 28.0237592,73.0055756 L28.0265204,73.0136373 C28.0440742,73.0645639 28.0634032,73.1147039 28.0847045,73.1634676 C28.0941718,73.1854898 28.1054141,73.2067256 28.1158676,73.2285512 C28.1308573,73.259815 28.1460444,73.2910788 28.162612,73.3213594 C28.1746434,73.3435783 28.1878581,73.3656006 28.2008755,73.3874263 C28.2190211,73.4177069 28.2379556,73.4473977 28.2572845,73.4764986 C28.2706965,73.4959647 28.2835167,73.5152342 28.2973231,73.5345037 C28.3249359,73.5722562 28.3539294,73.6088289 28.3839089,73.6444184 C28.3916011,73.6536599 28.3985043,73.6632947 28.4065909,73.6725362 C28.4460378,73.7177605 28.4878514,73.7606253 28.5310458,73.8019172 C28.5351877,73.8056531 28.5383434,73.8099789 28.5424853,73.8135182 C28.5517554,73.8223664 28.5618143,73.8296416 28.5714788,73.8382933 C28.601064,73.8652312 28.6316352,73.891186 28.6627983,73.9161577 C28.6809438,73.9305115 28.6988921,73.9444721 28.7170376,73.9580394 C28.7452422,73.9788819 28.7740384,73.9985447 28.8032291,74.0180108 C28.8229525,74.0313814 28.8426759,74.0449488 28.8631883,74.0573363 C28.8980988,74.0789654 28.9343899,74.0986281 28.9708782,74.1180942 C29.0034219,74.1352008 29.0361628,74.150931 29.0691009,74.1660713 C29.0976999,74.1792453 29.1264961,74.1928127 29.155884,74.2044136 C29.1809327,74.2146383 29.206376,74.2234866 29.2320164,74.2325314 C29.260221,74.2427561 29.2888199,74.2523908 29.3176161,74.2610424 C29.3424676,74.2689075 29.3673192,74.2757895 29.3925651,74.2822782 C29.4237282,74.2905365 29.4552857,74.2976152 29.4870404,74.3043005 C29.5103141,74.3092162 29.5333904,74.3143284 29.5566641,74.318261 C29.5929553,74.3245531 29.6294436,74.3290756 29.6663264,74.3334013 C29.6856554,74.3355643 29.7047871,74.3387103 29.7245105,74.3402833 C29.7791444,74.3450024 29.83437,74.3481484 29.8903845,74.3481484 C29.9552746,74.3481484 30.0148393,74.3446092 30.0746013,74.3391035 C30.091958,74.3375305 30.1093146,74.3349743 30.1266713,74.3330081 C30.1698655,74.3278958 30.2124681,74.3216037 30.2546763,74.3137386 C30.2745969,74.3101993 30.2941232,74.3062667 30.3138466,74.3019409 C30.3556602,74.2930927 30.3970795,74.2822782 30.437907,74.2704805 C30.4554608,74.2655648 30.4732119,74.2610424 30.4907658,74.2557335 C30.5455969,74.2382336 30.5996391,74.2189642 30.6524979,74.1969419 C30.670249,74.1896666 30.6872111,74.1808183 30.704765,74.1729532 C30.7414506,74.1564366 30.7779388,74.1391334 30.813441,74.1206503 C30.8353341,74.1090494 30.8566354,74.097055 30.8777394,74.0848641 C30.9114665,74.065398 30.9442074,74.0451454 30.9765538,74.0239096 C30.9945022,74.0121119 31.0130422,74.0007076 31.0307933,73.98832 C31.0789184,73.9545001 31.1254657,73.9185173 31.1702379,73.8807648 C31.1810858,73.8715233 31.191342,73.8614952 31.2019926,73.8520571 C31.2390727,73.8190237 31.2753638,73.7850072 31.3100771,73.7492209 C31.3165858,73.742339 31.3238834,73.7364402 31.3303921,73.7295582 L42.70805,61.6823859 L57.0996452,69.7163902 C57.3974689,69.8827371 57.7296115,69.9670904 58.0631347,69.9670904 C58.3021827,69.9670904 58.5418223,69.9238323 58.7702196,69.8363331 C59.3173476,69.6269247 59.742782,69.1856925 59.9309435,68.6323826 L82.3515525,2.74288955 C82.3558917,2.72951888 82.3590475,2.71595158 82.3633866,2.70277754 C82.3720649,2.67446317 82.3803487,2.64614881 82.3882381,2.61724456 C82.3961275,2.58834031 82.4030307,2.55923943 82.4095395,2.53013856 Z" id="path-5"></path>
        <path d="M21.6414344,52.390029 L90.9807692,1.76143273e-12 C84.8642657,1.23555349 81.806014,1.85333023 81.806014,1.85333023 C81.806014,1.85333023 54.5373427,14.2718943 0,39.1090225 L2.0437887,44.4034762 C13.3914397,52.5671162 19.0652651,56.6489362 19.0652651,56.6489362 C19.0652651,56.6489362 19.9239882,55.2293004 21.6414344,52.390029 Z" id="path-7"></path>
        <path d="M81.9379918,2.51630614 C81.9436789,2.48990655 81.9487776,2.46350695 81.9534841,2.4373029 C81.9589751,2.40581894 81.9636816,2.37453054 81.9677999,2.34324213 C81.9709376,2.31801585 81.9736831,2.29278957 81.9758402,2.26756328 C81.9785857,2.23549266 81.9805467,2.20342204 81.9817234,2.17135142 C81.9830961,2.14573405 81.9830961,2.12031221 81.9830961,2.09469482 C81.9830961,2.06360197 81.9821156,2.03270466 81.9805467,2.00180736 C81.9793701,1.97462556 81.9774091,1.94783486 81.9750558,1.92065305 C81.9725064,1.89171127 81.9687804,1.86316059 81.9648583,1.83441437 C81.9609361,1.80566814 81.956818,1.77711747 81.9515231,1.74837125 C81.9466205,1.72118944 81.9405412,1.69459429 81.9342658,1.66760803 C81.9275982,1.6384707 81.9211268,1.60913783 81.9130864,1.58019605 C81.9056344,1.55340534 81.8970057,1.52700575 81.888377,1.5004106 C81.8793562,1.47264213 81.8705315,1.44467812 81.8601379,1.41710521 C81.8491559,1.38718567 81.8362129,1.35804834 81.8236621,1.328911 C81.8134646,1.30544469 81.8042477,1.28197839 81.7934619,1.25890319 C81.7734591,1.2172505 81.7514953,1.17677112 81.7285509,1.13648728 C81.72306,1.12690521 81.7189417,1.11732314 81.7132546,1.10774107 C81.7126663,1.10695886 81.7122741,1.10617664 81.7116858,1.10519887 C81.6816816,1.05435521 81.6491281,1.00488041 81.6146135,0.95677449 C81.6055926,0.944454674 81.5955912,0.933112626 81.5865704,0.921183919 C81.5606844,0.886962222 81.5346023,0.853131629 81.5065592,0.820669904 C81.489498,0.800919096 81.4714563,0.783123813 81.4538068,0.764350767 C81.4320391,0.741080013 81.4104674,0.717809258 81.387523,0.695320715 C81.3659514,0.674592144 81.3432032,0.655036888 81.3204549,0.635286079 C81.2998638,0.617099691 81.2796648,0.598522198 81.2580933,0.580922467 C81.2327956,0.560780554 81.2063214,0.541811956 81.1804354,0.522647805 C81.1596482,0.507590258 81.1396453,0.492337159 81.1182699,0.478061822 C81.0904229,0.459288776 81.0612031,0.442080151 81.0325717,0.424871526 C81.0162949,0.415289451 81.0009987,0.404338508 80.9843296,0.394951985 C80.9788387,0.392018696 80.9733477,0.389672065 80.9678568,0.386738777 C80.9405981,0.37168123 80.9123589,0.358383656 80.8845118,0.344499425 C80.8590181,0.332179613 80.8335244,0.319273144 80.8076384,0.308126649 C80.7841057,0.297762363 80.7601808,0.288962498 80.7360598,0.279575975 C80.7050751,0.267451716 80.6740905,0.255131905 80.6423213,0.244963172 C80.6219263,0.23792328 80.6009429,0.232252256 80.5801558,0.226190126 C80.5450529,0.215825841 80.510146,0.205461555 80.4746509,0.197052795 C80.4546481,0.192555086 80.4346453,0.188839588 80.4142503,0.184928537 C80.378363,0.17749754 80.3422795,0.170457647 80.306,0.164982176 C80.2842322,0.162048887 80.2626606,0.159897809 80.2408928,0.157355625 C80.2061822,0.153640127 80.1714714,0.150120181 80.1365646,0.147969103 C80.1124437,0.146795787 80.0883226,0.146404682 80.0642016,0.145222468 C80.0316481,0.145222468 79.9990945,0.145222468 79.966541,0.145222468 C79.9408511,0.146600235 79.9149651,0.147969103 79.8892753,0.149729076 C79.8578984,0.152075707 79.8267175,0.154813443 79.7955368,0.158333389 C79.7694547,0.161266677 79.7435688,0.164982176 79.7176828,0.169284332 C79.6857176,0.174173146 79.6539484,0.180039722 79.6221793,0.186688509 C79.5980583,0.191577324 79.5739373,0.196857242 79.5498163,0.202919372 C79.5151055,0.211719237 79.4809832,0.221301313 79.4464686,0.231861151 C79.4260736,0.238314385 79.4056786,0.244572067 79.3850875,0.251416407 C79.3462586,0.264713981 79.3078218,0.279771527 79.2697773,0.295611285 C79.2584032,0.300500098 79.2464407,0.304020044 79.2350666,0.309104411 L1.42423721,34.3724046 C0.743554192,34.6706222 0.290157813,35.3268967 0.253878206,36.0674542 C0.217598698,36.8080117 0.604515268,37.5055477 1.25284083,37.8682977 L19.5224423,48.091981 L27.8592888,72.5939344 C27.8606616,72.5982365 27.8622304,72.6021476 27.8634071,72.6064497 L27.8661526,72.6144674 C27.883606,72.6651155 27.9028244,72.7149815 27.9240038,72.7634785 C27.9334168,72.7853804 27.9445949,72.8065 27.9549885,72.8282064 C27.9698925,72.8592992 27.9849927,72.8903921 28.0014655,72.9205072 C28.013428,72.9426046 28.026567,72.9645065 28.03951,72.9862128 C28.0575518,73.0163279 28.0763779,73.0458563 28.0955963,73.0747982 C28.1089315,73.0941578 28.1216783,73.113322 28.1354058,73.1324862 C28.1628605,73.1700323 28.1916881,73.206405 28.2214961,73.2418 C28.2291443,73.250991 28.2360079,73.260573 28.2440483,73.269764 C28.2832695,73.3147411 28.3248438,73.3573716 28.367791,73.3984377 C28.3719092,73.4021531 28.3750469,73.4064553 28.3791651,73.4099752 C28.3883822,73.4187751 28.3983835,73.4260105 28.4079927,73.4346149 C28.4374086,73.4614056 28.4678049,73.4872184 28.4987896,73.5120536 C28.5168313,73.526329 28.534677,73.5402132 28.5527187,73.5537064 C28.5807618,73.5744349 28.6093933,73.5939902 28.638417,73.6133499 C28.6580275,73.6266474 28.6776381,73.6401406 28.698033,73.6524604 C28.7327438,73.6739712 28.7688273,73.6935264 28.8051068,73.7128862 C28.8374642,73.7298992 28.8700178,73.7455434 28.9027674,73.760601 C28.9312027,73.7737029 28.9598342,73.7871961 28.9890539,73.7987337 C29.0139593,73.8089024 29.039257,73.8177023 29.0647508,73.8266977 C29.0927939,73.8368665 29.1212292,73.8464485 29.1498607,73.8550528 C29.1745699,73.8628749 29.1992793,73.8697193 29.2243808,73.8761725 C29.2553655,73.8843857 29.2867424,73.8914257 29.3183154,73.8980744 C29.341456,73.9029632 29.3644003,73.9080476 29.3875408,73.9119587 C29.4236243,73.9182163 29.4599038,73.9227141 29.4965756,73.9270161 C29.5157939,73.9291673 29.5348162,73.9322961 29.5544267,73.9338605 C29.608748,73.9385538 29.6636576,73.9416826 29.7193517,73.9416826 C29.7838704,73.9416826 29.8430943,73.9381627 29.9025144,73.9326872 C29.9197717,73.9311228 29.937029,73.9285806 29.9542864,73.9266251 C29.9972335,73.9215407 30.0395923,73.915283 30.0815589,73.9074609 C30.1013656,73.903941 30.1207801,73.9000299 30.1403907,73.8957277 C30.1819651,73.8869279 30.2231473,73.8761725 30.2637412,73.8644393 C30.2811946,73.8595505 30.2988441,73.8550528 30.3162975,73.8497729 C30.3708149,73.8323688 30.4245478,73.8132046 30.4771042,73.7913027 C30.4947538,73.7840673 30.5116187,73.7752674 30.5290722,73.7674453 C30.5655479,73.7510189 30.6018274,73.7338103 30.6371264,73.7154283 C30.6588942,73.7038907 30.6800736,73.691962 30.7010569,73.6798377 C30.734591,73.660478 30.7671446,73.6403361 30.7993059,73.6192165 C30.8171515,73.6074833 30.8355855,73.5961413 30.853235,73.5838214 C30.9010847,73.5501864 30.9473657,73.5144003 30.9918817,73.4768542 C31.0026676,73.4676632 31.012865,73.45769 31.0234547,73.4483035 C31.0603226,73.4154506 31.0964061,73.3816201 31.1309207,73.3460295 C31.1373922,73.3391852 31.1446481,73.3333186 31.1511195,73.3264743 L42.4636744,61.3451646 L56.7729208,69.3352465 C57.0690404,69.500684 57.3992825,69.5845761 57.7308972,69.5845761 C57.9685774,69.5845761 58.2068459,69.5415545 58.4339363,69.4545337 C58.9779335,69.2462701 59.4009336,68.8074502 59.5880185,68.2571653 L81.8803367,2.72789401 C81.884651,2.71459644 81.8877887,2.70110331 81.892103,2.68800129 C81.9007317,2.65984172 81.9089681,2.63168215 81.9168123,2.60293592 C81.9246566,2.57418969 81.9315203,2.54524792 81.9379918,2.51630614 Z" id="path-9"></path>
        <path d="M21.5176021,52.1036096 L90.460177,1.75180287e-12 C84.3786721,1.22879864 81.3379197,1.84319796 81.3379197,1.84319796 C81.3379197,1.84319796 54.2252798,14.193869 0,38.8952111 L2.03209413,44.1607198 C13.3148138,52.2797286 18.9561736,56.339233 18.9561736,56.339233 C18.9561736,56.339233 19.8099831,54.9273585 21.5176021,52.1036096 Z" id="path-11"></path>
        <path d="M5.07254934,0 C6.2341325,-2.13379365e-16 7.1757817,0.941649203 7.1757817,2.10323236 C7.1757817,2.66052594 6.95460225,3.19503789 6.56081655,3.58938413 L3.58938413,6.5650462 C2.76908862,7.38650934 1.43818027,7.3874559 0.616717125,6.56716039 C0.221870029,6.17287454 6.8335463e-17,5.6377712 0,5.07976979 L0,5.07254934 C-3.43083777e-16,2.2710577 2.2710577,5.14625666e-16 5.07254934,0 Z" id="path-13"></path>
        <path d="M5.07254934,0 C6.2341325,-2.13379365e-16 7.1757817,0.941649203 7.1757817,2.10323236 C7.1757817,2.66052594 6.95460225,3.19503789 6.56081655,3.58938413 L3.58938413,6.5650462 C2.76908862,7.38650934 1.43818027,7.3874559 0.616717125,6.56716039 C0.221870029,6.17287454 6.8335463e-17,5.6377712 0,5.07976979 L0,5.07254934 C-3.43083777e-16,2.2710577 2.2710577,5.14625666e-16 5.07254934,0 Z" id="path-15"></path>
        <path d="M5.07254934,0 C6.2341325,-2.13379365e-16 7.1757817,0.941649203 7.1757817,2.10323236 C7.1757817,2.66052594 6.95460225,3.19503789 6.56081655,3.58938413 L3.58938413,6.5650462 C2.76908862,7.38650934 1.43818027,7.3874559 0.616717125,6.56716039 C0.221870029,6.17287454 6.8335463e-17,5.6377712 0,5.07976979 L0,5.07254934 C-3.43083777e-16,2.2710577 2.2710577,5.14625666e-16 5.07254934,0 Z" id="path-17"></path>
        <path d="M5.07254934,0 C6.2341325,-2.13379365e-16 7.1757817,0.941649203 7.1757817,2.10323236 C7.1757817,2.66052594 6.95460225,3.19503789 6.56081655,3.58938413 L3.58938413,6.5650462 C2.76908862,7.38650934 1.43818027,7.3874559 0.616717125,6.56716039 C0.221870029,6.17287454 6.8335463e-17,5.6377712 0,5.07976979 L0,5.07254934 C-1.2312622e-15,2.2710577 2.2710577,5.14625666e-16 5.07254934,0 Z" id="path-19"></path>
        <path d="M5,0 C6.14381917,-2.10116173e-16 7.07106781,0.927248644 7.07106781,2.07106781 C7.07106781,2.62034915 6.85286665,3.14713335 6.46446609,3.53553391 L3.53553391,6.46446609 C2.72673162,7.27326838 1.41540401,7.27326838 0.606601718,6.46446609 C0.218201161,6.07606554 6.72675629e-17,5.54928134 0,5 C-3.38176876e-16,2.23857625 2.23857625,5.07265313e-16 5,0 Z" id="path-21"></path>
        <path d="M5,0 C6.14381917,-2.10116173e-16 7.07106781,0.927248644 7.07106781,2.07106781 C7.07106781,2.62034915 6.85286665,3.14713335 6.46446609,3.53553391 L3.53553391,6.46446609 C2.72673162,7.27326838 1.41540401,7.27326838 0.606601718,6.46446609 C0.218201161,6.07606554 6.72675629e-17,5.54928134 0,5 C-3.38176876e-16,2.23857625 2.23857625,5.07265313e-16 5,0 Z" id="path-23"></path>
        <path d="M5,0 C6.14381917,-2.10116173e-16 7.07106781,0.927248644 7.07106781,2.07106781 C7.07106781,2.62034915 6.85286665,3.14713335 6.46446609,3.53553391 L3.53553391,6.46446609 C2.72673162,7.27326838 1.41540401,7.27326838 0.606601718,6.46446609 C0.218201161,6.07606554 6.72675629e-17,5.54928134 0,5 C-3.38176876e-16,2.23857625 2.23857625,5.07265313e-16 5,0 Z" id="path-25"></path>
        <path d="M5.07254934,0 C6.2341325,-2.13379365e-16 7.1757817,0.941649203 7.1757817,2.10323236 C7.1757817,2.66052594 6.95460225,3.19503789 6.56081655,3.58938413 L3.58938413,6.5650462 C2.76908862,7.38650934 1.43818027,7.3874559 0.616717125,6.56716039 C0.221870029,6.17287454 6.8335463e-17,5.6377712 0,5.07976979 L0,5.07254934 C-3.43083777e-16,2.2710577 2.2710577,5.14625666e-16 5.07254934,0 Z" id="path-27"></path>
        <path d="M5.07254934,0 C6.2341325,-2.13379365e-16 7.1757817,0.941649203 7.1757817,2.10323236 C7.1757817,2.66052594 6.95460225,3.19503789 6.56081655,3.58938413 L3.58938413,6.5650462 C2.76908862,7.38650934 1.43818027,7.3874559 0.616717125,6.56716039 C0.221870029,6.17287454 6.8335463e-17,5.6377712 0,5.07976979 L0,5.07254934 C-3.43083777e-16,2.2710577 2.2710577,5.14625666e-16 5.07254934,0 Z" id="path-29"></path>
        <path d="M5.07254934,0 C6.2341325,-2.13379365e-16 7.1757817,0.941649203 7.1757817,2.10323236 C7.1757817,2.66052594 6.95460225,3.19503789 6.56081655,3.58938413 L3.58938413,6.5650462 C2.76908862,7.38650934 1.43818027,7.3874559 0.616717125,6.56716039 C0.221870029,6.17287454 6.8335463e-17,5.6377712 0,5.07976979 L0,5.07254934 C-3.43083777e-16,2.2710577 2.2710577,5.14625666e-16 5.07254934,0 Z" id="path-31"></path>
        <path d="M5.07254934,0 C6.2341325,-2.13379365e-16 7.1757817,0.941649203 7.1757817,2.10323236 C7.1757817,2.66052594 6.95460225,3.19503789 6.56081655,3.58938413 L3.58938413,6.5650462 C2.76908862,7.38650934 1.43818027,7.3874559 0.616717125,6.56716039 C0.221870029,6.17287454 6.8335463e-17,5.6377712 0,5.07976979 L0,5.07254934 C-3.43083777e-16,2.2710577 2.2710577,5.14625666e-16 5.07254934,0 Z" id="path-33"></path>
        <path d="M5.07254934,0 C6.2341325,-2.13379365e-16 7.1757817,0.941649203 7.1757817,2.10323236 C7.1757817,2.66052594 6.95460225,3.19503789 6.56081655,3.58938413 L3.58938413,6.5650462 C2.76908862,7.38650934 1.43818027,7.3874559 0.616717125,6.56716039 C0.221870029,6.17287454 6.8335463e-17,5.6377712 0,5.07976979 L0,5.07254934 C-3.43083777e-16,2.2710577 2.2710577,5.14625666e-16 5.07254934,0 Z" id="path-35"></path>
        <path d="M5.07254934,0 C6.2341325,-2.13379365e-16 7.1757817,0.941649203 7.1757817,2.10323236 C7.1757817,2.66052594 6.95460225,3.19503789 6.56081655,3.58938413 L3.58938413,6.5650462 C2.76908862,7.38650934 1.43818027,7.3874559 0.616717125,6.56716039 C0.221870029,6.17287454 6.8335463e-17,5.6377712 0,5.07976979 L0,5.07254934 C-1.2312622e-15,2.2710577 2.2710577,5.14625666e-16 5.07254934,0 Z" id="path-37"></path>
        <path d="M5.07254934,0 C6.2341325,-2.13379365e-16 7.1757817,0.941649203 7.1757817,2.10323236 C7.1757817,2.66052594 6.95460225,3.19503789 6.56081655,3.58938413 L3.58938413,6.5650462 C2.76908862,7.38650934 1.43818027,7.3874559 0.616717125,6.56716039 C0.221870029,6.17287454 6.8335463e-17,5.6377712 0,5.07976979 L0,5.07254934 C-3.43083777e-16,2.2710577 2.2710577,5.14625666e-16 5.07254934,0 Z" id="path-39"></path>
        <path d="M5.07254934,0 C6.2341325,-2.13379365e-16 7.1757817,0.941649203 7.1757817,2.10323236 C7.1757817,2.66052594 6.95460225,3.19503789 6.56081655,3.58938413 L3.58938413,6.5650462 C2.76908862,7.38650934 1.43818027,7.3874559 0.616717125,6.56716039 C0.221870029,6.17287454 6.8335463e-17,5.6377712 0,5.07976979 L0,5.07254934 C-3.43083777e-16,2.2710577 2.2710577,5.14625666e-16 5.07254934,0 Z" id="path-41"></path>
        <path d="M5.07254934,0 C6.2341325,-2.13379365e-16 7.1757817,0.941649203 7.1757817,2.10323236 C7.1757817,2.66052594 6.95460225,3.19503789 6.56081655,3.58938413 L3.58938413,6.5650462 C2.76908862,7.38650934 1.43818027,7.3874559 0.616717125,6.56716039 C0.221870029,6.17287454 6.8335463e-17,5.6377712 0,5.07976979 L0,5.07254934 C-3.43083777e-16,2.2710577 2.2710577,5.14625666e-16 5.07254934,0 Z" id="path-43"></path>
        <path d="M5.07254934,0 C6.2341325,-2.13379365e-16 7.1757817,0.941649203 7.1757817,2.10323236 C7.1757817,2.66052594 6.95460225,3.19503789 6.56081655,3.58938413 L3.58938413,6.5650462 C2.76908862,7.38650934 1.43818027,7.3874559 0.616717125,6.56716039 C0.221870029,6.17287454 6.8335463e-17,5.6377712 0,5.07976979 L0,5.07254934 C-3.43083777e-16,2.2710577 2.2710577,5.14625666e-16 5.07254934,0 Z" id="path-45"></path>
        <path d="M5.07254934,0 C6.2341325,-2.13379365e-16 7.1757817,0.941649203 7.1757817,2.10323236 C7.1757817,2.66052594 6.95460225,3.19503789 6.56081655,3.58938413 L3.58938413,6.5650462 C2.76908862,7.38650934 1.43818027,7.3874559 0.616717125,6.56716039 C0.221870029,6.17287454 6.8335463e-17,5.6377712 0,5.07976979 L0,5.07254934 C-3.43083777e-16,2.2710577 2.2710577,5.14625666e-16 5.07254934,0 Z" id="path-47"></path>
        <path d="M5.07254934,0 C6.2341325,-2.13379365e-16 7.1757817,0.941649203 7.1757817,2.10323236 C7.1757817,2.66052594 6.95460225,3.19503789 6.56081655,3.58938413 L3.58938413,6.5650462 C2.76908862,7.38650934 1.43818027,7.3874559 0.616717125,6.56716039 C0.221870029,6.17287454 -1.79466938e-16,5.6377712 0,5.07976979 L0,5.07254934 C-3.43083777e-16,2.2710577 2.2710577,5.14625666e-16 5.07254934,0 Z" id="path-49"></path>
        <path d="M5.07254934,0 C6.2341325,-2.13379365e-16 7.1757817,0.941649203 7.1757817,2.10323236 C7.1757817,2.66052594 6.95460225,3.19503789 6.56081655,3.58938413 L3.58938413,6.5650462 C2.76908862,7.38650934 1.43818027,7.3874559 0.616717125,6.56716039 C0.221870029,6.17287454 6.8335463e-17,5.6377712 0,5.07976979 L0,5.07254934 C-3.43083777e-16,2.2710577 2.2710577,5.14625666e-16 5.07254934,0 Z" id="path-51"></path>
        <path d="M5.07254934,0 C6.2341325,-2.13379365e-16 7.1757817,0.941649203 7.1757817,2.10323236 C7.1757817,2.66052594 6.95460225,3.19503789 6.56081655,3.58938413 L3.58938413,6.5650462 C2.76908862,7.38650934 1.43818027,7.3874559 0.616717125,6.56716039 C0.221870029,6.17287454 -1.79466938e-16,5.6377712 0,5.07976979 L0,5.07254934 C-3.43083777e-16,2.2710577 2.2710577,5.14625666e-16 5.07254934,0 Z" id="path-53"></path>
        <path d="M5.07254934,0 C6.2341325,-2.13379365e-16 7.1757817,0.941649203 7.1757817,2.10323236 C7.1757817,2.66052594 6.95460225,3.19503789 6.56081655,3.58938413 L3.58938413,6.5650462 C2.76908862,7.38650934 1.43818027,7.3874559 0.616717125,6.56716039 C0.221870029,6.17287454 6.8335463e-17,5.6377712 0,5.07976979 L0,5.07254934 C-3.43083777e-16,2.2710577 2.2710577,5.14625666e-16 5.07254934,0 Z" id="path-55"></path>
    </defs>
    <g id="Desktop" stroke="none" stroke-width="1" fill="none" fill-rule="evenodd">
        <g id="loading-3-+" transform="translate(-479.000000, -388.000000)">
            <g id="Group" transform="translate(479.359882, 388.000000)">
                <g id="Path-2" transform="translate(390.069873, 88.300669) rotate(-330.000000) translate(-390.069873, -88.300669) translate(321.569873, 26.300669)">
                    <mask id="mask-2" fill="white">
                        <use xlink:href="#path-1"></use>
                    </mask>
                    <use id="Mask" fill="#EE7552" xlink:href="#path-1"></use>
                    <path d="M88.3837349,24.6306424 C94.316339,24.6306424 99.1256649,29.4399682 99.1256649,35.3725723 C99.1256649,38.2200192 97.9951094,40.9509677 95.9824666,42.9652225 L80.7996769,58.1601731 C76.6077624,62.3554451 69.8086043,62.358167 65.6133322,58.1662525 C63.5976378,56.1521712 62.4650967,53.4195224 62.4650967,50.5700404 L62.4650967,50.5492806 C62.4650967,36.234812 74.0692663,24.6306424 88.3837349,24.6306424 Z" id="Mask-Copy-5" fill="#1AA3B5" mask="url(#mask-2)" transform="translate(88.383735, 50.570040) rotate(-35.000000) translate(-88.383735, -50.570040) "></path>
                    <g id="Mask-Copy-5" mask="url(#mask-2)">
                        <g transform="translate(-4.002648, -4.990719)">
                            <mask id="mask-4" fill="white">
                                <use xlink:href="#path-3"></use>
                            </mask>
                            <use id="Mask" stroke="none" fill="#F2886B" fill-rule="evenodd" xlink:href="#path-3"></use>
                            <path d="M92.5735055,29.359882 C98.5061096,29.359882 103.315435,34.1692079 103.315435,40.101812 C103.315435,42.9492588 102.18488,45.6802073 100.172237,47.6944622 L84.9894474,62.8894127 C80.7975329,67.0846848 73.9983748,67.0874066 69.8031028,62.8954921 C67.7874083,60.8814108 66.6548673,58.148762 66.6548673,55.2992801 L66.6548673,55.2785203 C66.6548673,40.9640516 78.2590369,29.359882 92.5735055,29.359882 Z" id="Mask-Copy-5" stroke="none" fill="#4FC5D5" fill-rule="evenodd" mask="url(#mask-4)" transform="translate(92.573506, 55.299280) rotate(-36.000000) translate(-92.573506, -55.299280) "></path>
                        </g>
                    </g>
                    <path d="M38.5502787,17.6675966 C44.4828828,17.6675966 49.2922086,22.4769225 49.2922086,28.4095266 C49.2922086,31.2569735 48.1616531,33.9879219 46.1490103,36.0021768 L30.9662206,51.1971273 C26.7743061,55.3923994 19.975148,55.3951212 15.7798759,51.2032067 C13.7641815,49.1891255 12.6316404,46.4564767 12.6316404,43.6069947 L12.6316404,43.5862349 C12.6316404,29.2717662 24.23581,17.6675966 38.5502787,17.6675966 Z" id="Mask" fill="#FBF8F3" mask="url(#mask-2)" transform="translate(38.550279, 43.606995) rotate(-36.000000) translate(-38.550279, -43.606995) "></path>
                    <path d="M100.350994,81.860018 C106.283598,81.860018 111.092924,86.6693439 111.092924,92.601948 C111.092924,95.4493949 109.962368,98.1803434 107.949726,100.194598 L92.7669359,115.389549 C88.5750214,119.584821 81.7758633,119.587543 77.5805913,115.395628 C75.5648968,113.381547 74.4323558,110.648898 74.4323558,107.799416 L74.4323558,107.778656 C74.4323558,93.4641877 86.0365254,81.860018 100.350994,81.860018 Z" id="Mask-Copy-6" fill="#FAD100" mask="url(#mask-2)" transform="translate(100.350994, 107.799416) rotate(80.000000) translate(-100.350994, -107.799416) "></path>
                    <path d="M27.1242486,81.9892265 C33.0568527,81.9892265 37.8661786,86.7985523 37.8661786,92.7311564 C37.8661786,95.5786033 36.7356231,98.3095518 34.7229802,100.323807 L19.5401905,115.518757 C15.348276,119.714029 8.54911795,119.716751 4.35384589,115.524837 C2.33815144,113.510755 1.20561037,110.778106 1.20561037,107.928625 L1.20561037,107.907865 C1.20561037,93.5933961 12.80978,81.9892265 27.1242486,81.9892265 Z" id="Mask-Copy-7" fill="#A594F0" mask="url(#mask-2)" transform="translate(27.124249, 107.928625) rotate(80.000000) translate(-27.124249, -107.928625) "></path>
                    <path d="M61.2126087,116.177033 C69.5304866,116.177033 76.2734589,122.920006 76.2734589,131.237884 C76.2734589,135.23018 74.6883501,139.059139 71.8665004,141.883249 L50.5792901,163.187509 C44.7019667,169.06954 35.1691265,169.073357 29.2870956,163.196033 C26.4609673,160.372167 24.8730746,156.540824 24.8730746,152.545674 L24.8730746,152.516567 C24.8730746,132.446797 41.1428382,116.177033 61.2126087,116.177033 Z" id="Mask" fill="#EE7552" mask="url(#mask-2)"></path>
                    <path d="M123.620751,219.54733 C129.553355,219.54733 134.362681,224.356656 134.362681,230.28926 C134.362681,233.136707 133.232125,235.867656 131.219482,237.88191 L116.036693,253.076861 C111.844778,257.272133 105.04562,257.274855 100.850348,253.08294 C98.8346534,251.068859 97.7021124,248.33621 97.7021124,245.486728 L97.7021124,245.465968 C97.7021124,231.1515 109.306282,219.54733 123.620751,219.54733 Z" id="Mask" fill="#4FC5D5" mask="url(#mask-2)"></path>
                    <path d="M117.520243,232.065826 C123.452847,232.065826 128.262173,236.875152 128.262173,242.807756 C128.262173,245.655203 127.131617,248.386151 125.118975,250.400406 L109.936185,265.595357 C105.74427,269.790629 98.9451123,269.79335 94.7498403,265.601436 C92.7341458,263.587355 91.6016048,260.854706 91.6016048,258.005224 L91.6016048,257.984464 C91.6016048,243.669995 103.205774,232.065826 117.520243,232.065826 Z" id="Mask" fill="#A594F0" mask="url(#mask-2)"></path>
                    <path d="M69.9244312,103.124069 L136.696396,0.62259589 C136.696396,0.62259589 106.543004,42.1278051 46.2362193,125.138224 C48.5102686,129.942948 49.6472932,132.34531 49.6472932,132.34531 C49.6472932,132.34531 56.4063392,122.604896 69.9244312,103.124069 Z" id="Path-2-Copy" fill="#F2886B" mask="url(#mask-2)"></path>
                </g>
                <g id="Path-2-Copy-2" transform="translate(181.140118, 212.500000) rotate(-270.000000) translate(-181.140118, -212.500000) translate(139.640118, 175.000000)">
                    <mask id="mask-6" fill="white">
                        <use xlink:href="#path-5"></use>
                    </mask>
                    <use id="Mask" fill="#EE7552" xlink:href="#path-5"></use>
                    <path d="M53.7032341,14.126727 L53.7106256,14.1267399 C57.3196761,14.1330337 60.2402874,17.0638494 60.2339935,20.6728999 C60.230977,22.4026094 59.5423067,24.0605661 58.3189287,25.2833704 L49.1520464,34.4459539 C46.5989605,36.9978426 42.4605608,36.9968721 39.9086721,34.4437861 C38.6863829,33.2209235 37.9984193,31.5635765 37.9954003,29.8345956 C37.9802787,21.174501 44.988414,14.1418487 53.6485086,14.1267271 C53.6667504,14.1266952 53.6849923,14.1266952 53.7032341,14.126727 Z" id="Mask-Copy-5" fill="#FAD100" mask="url(#mask-6)" transform="translate(53.710626, 29.834596) rotate(-35.000000) translate(-53.710626, -29.834596) "></path>
                    <g id="Mask-Copy-5" mask="url(#mask-6)">
                        <g transform="translate(-2.757971, -3.849987)">
                            <mask id="mask-8" fill="white">
                                <use xlink:href="#path-7"></use>
                            </mask>
                            <use id="Mask" stroke="none" fill="#F2886B" fill-rule="evenodd" xlink:href="#path-7"></use>
                            <path d="M56.4617614,17.9173165 C60.0797002,17.9164681 63.0133068,20.8486992 63.0141551,24.466638 C63.0145624,26.2034846 62.3252102,27.8694024 61.0976593,29.0981233 L51.829097,38.375519 C49.273055,40.933997 45.1269174,40.9359718 42.5684395,38.3799298 C41.338674,37.1513353 40.647881,35.4841836 40.6482885,33.7458604 L40.6482921,33.7307864 C40.6503395,24.9980965 47.7290716,17.9193642 56.4617614,17.9173165 Z" id="Mask-Copy-5" stroke="none" fill="#FFF6C9" fill-rule="evenodd" mask="url(#mask-8)" transform="translate(56.458051, 33.742153) rotate(-36.000000) translate(-56.458051, -33.742153) "></path>
                        </g>
                    </g>
                    <path d="M23.3993236,9.90794706 L23.4047859,9.9079567 C27.0140362,9.91432742 29.9347473,12.8453674 29.9283766,16.4546178 C29.9253236,18.1842361 29.2367281,19.8421066 28.0134896,21.0649216 L18.8478353,30.2274028 C16.294895,32.7794593 12.1564773,32.7787429 9.6044207,30.2258025 C8.38198645,29.0029449 7.69391261,27.3455252 7.69085709,25.6164454 C7.67555324,16.9561852 14.683675,9.92325097 23.3439353,9.90794712 C23.362398,9.90791449 23.3808609,9.90791447 23.3993236,9.90794706 Z" id="Mask" fill="#A594F0" mask="url(#mask-6)" transform="translate(23.404786, 25.616445) rotate(-36.000000) translate(-23.404786, -25.616445) "></path>
                    <path d="M61.0365397,48.742471 C64.6369958,48.7401802 67.5575992,51.6570696 67.55989,55.2575257 C67.5609879,56.9831205 66.8778937,58.6387612 65.6603322,59.8615542 L56.4403955,69.1211057 C53.9044528,71.6679445 49.7840444,71.6767775 47.2372056,69.1408348 C46.0097311,67.9186118 45.3201861,66.2574506 45.3212844,64.5252493 L45.3213272,64.4577183 C45.3268287,55.7807203 52.3595417,48.7479917 61.0365397,48.742471 Z" id="Mask-Copy-6" fill="#FBF8F3" mask="url(#mask-6)" transform="translate(61.026539, 64.515257) rotate(80.000000) translate(-61.026539, -64.515257) "></path>
                    <path d="M16.5050938,48.8207553 C20.10555,48.8184646 23.0261534,51.7353539 23.0284442,55.3358101 C23.0295421,57.0614049 22.3464479,58.7170455 21.1288864,59.9398385 L11.9089497,69.1993901 C9.37300701,71.7462288 5.25259855,71.7550618 2.7057598,69.2191191 C1.47828533,67.9968961 0.788740317,66.3357349 0.789838582,64.6035336 L0.789881399,64.5360026 C0.795382863,55.8590046 7.82809585,48.826276 16.5050938,48.8207553 Z" id="Mask-Copy-7" fill="#25204F" mask="url(#mask-6)" transform="translate(16.495093, 64.593541) rotate(80.000000) translate(-16.495093, -64.593541) "></path>
                    <path d="M36.7394289,69.558858 L36.7450549,69.558858 C41.764851,69.558858 45.8341998,73.6282067 45.8341998,78.6480028 C45.8341998,81.0589977 44.8762763,83.3712104 43.171227,85.0758226 L30.3149042,97.9288497 C26.7645403,101.478303 21.009001,101.477566 17.4595473,97.9272018 C15.755325,96.2225425 14.7979396,93.9107906 14.7979396,91.5003473 C14.7979396,79.3823974 24.621479,69.558858 36.7394289,69.558858 Z" id="Mask" fill="#EE7552" mask="url(#mask-6)"></path>
                    <path d="M74.8062641,132.281326 L74.8102535,132.281326 C78.3697453,132.281326 81.2552835,135.166864 81.2552835,138.726355 C81.2552835,140.43597 80.5760287,142.075539 79.3669937,143.284264 L70.2506921,152.398229 C67.7331613,154.915114 63.6519607,154.914591 61.1350753,152.39706 C59.9266268,151.188302 59.2477535,149.54906 59.2477535,147.839836 C59.2477535,139.247108 66.213536,132.281326 74.8062641,132.281326 Z" id="Mask" fill="#4FC5D5" mask="url(#mask-6)"></path>
                    <path d="M71.6712558,139.618681 L71.6752452,139.618681 C75.2347369,139.618681 78.1202751,142.504219 78.1202751,146.063711 C78.1202751,147.773326 77.4410203,149.412895 76.2319853,150.62162 L67.1156837,159.735584 C64.598153,162.25247 60.5169524,162.251947 58.000067,159.734416 C56.7916184,158.525657 56.1127452,156.886415 56.1127452,155.177192 C56.1127452,146.584464 63.0785276,139.618681 71.6712558,139.618681 Z" id="Mask" fill="#A594F0" mask="url(#mask-6)"></path>
                    <path d="M42.5055126,61.8019151 L83.1527064,-0.28539507 C83.1527064,-0.28539507 64.7969372,24.8551881 28.0853987,75.1363544 C29.469718,78.0466774 30.1618777,79.501839 30.1618777,79.501839 C30.1618777,79.501839 34.2764227,73.6018644 42.5055126,61.8019151 Z" id="Path-2-Copy" fill="#F2886B" mask="url(#mask-6)"></path>
                </g>
                <g id="Path-2-Copy-3" transform="translate(75.129823, 81.068532) rotate(-334.000000) translate(-75.129823, -81.068532) translate(34.129823, 44.068532)">
                    <mask id="mask-10" fill="white">
                        <use xlink:href="#path-9"></use>
                    </mask>
                    <use id="Mask" fill="#EE7552" xlink:href="#path-9"></use>
                    <path d="M53.3999365,14.0493963 L53.4059142,14.049406 C56.9942284,14.055232 59.8984089,16.9688583 59.8925829,20.5571725 C59.8897904,22.2771158 59.2051391,23.9257788 57.9887221,25.1417321 L48.8697508,34.2572273 C46.3315387,36.7944719 42.2170682,36.7936875 39.6798237,34.2554755 C38.4642868,33.0394751 37.7802067,31.3913051 37.7774118,29.6719509 C37.7634094,21.0578547 44.735163,14.0633987 53.3492592,14.0493963 C53.3661516,14.0493689 53.3830441,14.0493688 53.3999365,14.0493963 Z" id="Mask-Copy-5" fill="#F2886B" mask="url(#mask-10)" transform="translate(53.405914, 29.671951) rotate(-35.000000) translate(-53.405914, -29.671951) "></path>
                    <g id="Mask-Copy-5" mask="url(#mask-10)">
                        <g transform="translate(-2.742190, -3.828939)">
                            <mask id="mask-12" fill="white">
                                <use xlink:href="#path-11"></use>
                            </mask>
                            <use id="Mask" stroke="none" fill="#F2886B" fill-rule="evenodd" xlink:href="#path-11"></use>
                            <path d="M56.1406058,17.8207548 C59.7377422,17.8194727 62.6548367,20.7344885 62.6561188,24.3316248 C62.6567344,26.058671 61.9714004,27.7152566 60.7508243,28.9370924 L51.5306462,38.1667868 C48.9894843,40.7105715 44.8673206,40.7126977 42.3235358,38.1715357 C41.1005753,36.9498361 40.4136899,35.291922 40.4143059,33.5632861 L40.4143117,33.5470503 C40.4174062,24.8629398 47.4564953,17.8238501 56.1406058,17.8207548 Z" id="Mask-Copy-5" stroke="none" fill="#FFAE94" fill-rule="evenodd" mask="url(#mask-12)" transform="translate(56.134998, 33.557683) rotate(-36.000000) translate(-56.134998, -33.557683) "></path>
                        </g>
                    </g>
                    <path d="M23.2693323,9.85368284 L23.2735241,9.85368973 C26.8620232,9.85958681 29.7662961,12.7734207 29.760399,16.3619199 C29.7575727,18.0817787 29.0729906,19.730362 27.8567028,20.9463252 L18.7388683,30.061726 C16.200791,32.5991258 12.0863037,32.5985767 9.54890384,30.0604993 C8.33323276,28.8445037 7.64905058,27.1962664 7.64622194,25.4768206 C7.63205076,16.8625711 14.6037918,9.86785407 23.2180413,9.85368288 C23.2351383,9.85365476 23.2522353,9.85365474 23.2693323,9.85368284 Z" id="Mask" fill="#25204F" mask="url(#mask-10)" transform="translate(23.273524, 25.476821) rotate(-36.000000) translate(-23.273524, -25.476821) "></path>
                    <path d="M60.6866032,48.4798933 C64.266962,48.4777729 67.1711352,51.3785081 67.1732557,54.9588669 C67.1742721,56.6750009 66.494783,58.32152 65.2837507,59.5374632 L56.1156673,68.7427241 C53.593325,71.2752948 49.4955083,71.2835865 46.9629376,68.7612442 C45.7426004,67.5458356 45.0570563,65.8941343 45.0580731,64.1717987 L45.0581105,64.1084161 C45.0632047,55.479144 52.0573311,48.4850041 60.6866032,48.4798933 Z" id="Mask-Copy-6" fill="#FBF8F3" mask="url(#mask-10)" transform="translate(60.677345, 64.162548) rotate(80.000000) translate(-60.677345, -64.162548) "></path>
                    <path d="M16.4099665,48.5577497 C19.9903252,48.5556292 22.8944984,51.4563645 22.8966189,55.0367232 C22.8976353,56.7528573 22.2181463,58.3993764 21.0071139,59.6153196 L11.8390305,68.8205805 C9.31668821,71.3531511 5.21887156,71.3614428 2.68630088,68.8391005 C1.46596366,67.6236919 0.780419596,65.9719907 0.781436347,64.249655 L0.781473764,64.1862724 C0.786567907,55.5570003 7.78069437,48.5628604 16.4099665,48.5577497 Z" id="Mask-Copy-7" fill="#4FC5D5" mask="url(#mask-10)" transform="translate(16.400708, 64.240404) rotate(80.000000) translate(-16.400708, -64.240404) "></path>
                    <path d="M36.5347996,69.1785755 C41.5267774,69.1785755 45.5735749,73.2253731 45.5735749,78.2173508 C45.5735749,80.6145831 44.6212781,82.9136309 42.9261789,84.6087301 L30.1434203,97.3914887 C26.613559,100.92135 20.890523,100.92135 17.3606617,97.3914887 C15.6655625,95.6963896 14.7132657,93.3973417 14.7132657,91.0001094 C14.7132657,78.948409 24.4830992,69.1785755 36.5347996,69.1785755 Z" id="Mask" fill="#EE7552" mask="url(#mask-10)"></path>
                    <path d="M74.382189,131.558136 C77.9219551,131.558136 80.7915024,134.427683 80.7915024,137.967449 C80.7915024,139.667305 80.1162374,141.297539 78.914258,142.499518 L69.85012,151.563656 C67.3471275,154.066648 63.2889747,154.066648 60.7859821,151.563656 C59.5840027,150.361676 58.9087377,148.731442 58.9087377,147.031587 C58.9087377,138.485836 65.8364378,131.558136 74.382189,131.558136 Z" id="Mask" fill="#4FC5D5" mask="url(#mask-10)"></path>
                    <path d="M71.2651192,138.855377 C74.8048852,138.855377 77.6744326,141.724925 77.6744326,145.264691 C77.6744326,146.964546 76.9991676,148.59478 75.7971882,149.79676 L66.7330502,158.860898 C64.2300576,161.36389 60.1719049,161.36389 57.6689123,158.860898 C56.4669329,157.658918 55.7916679,156.028684 55.7916679,154.328829 C55.7916679,145.783078 62.719368,138.855377 71.2651192,138.855377 Z" id="Mask" fill="#A594F0" mask="url(#mask-10)"></path>
                    <path d="M42.2622959,61.4640403 L82.6769064,-0.283834798 C82.6769064,-0.283834798 64.4261689,24.7193033 27.924694,74.7255794 C29.3010922,77.6199916 29.9892914,79.0671977 29.9892914,79.0671977 C29.9892914,79.0671977 34.0802929,73.1994785 42.2622959,61.4640403 Z" id="Path-2-Copy" fill="#F2886B" mask="url(#mask-10)"></path>
                </g>
                <g id="Shape/triangle" transform="translate(306.459469, 81.767459) scale(1, -1) rotate(-255.000000) translate(-306.459469, -81.767459) translate(301.386919, 76.687689)">
                    <g id="color_lavanda">
                        <mask id="mask-14" fill="white">
                            <use xlink:href="#path-13"></use>
                        </mask>
                        <use id="Mask" fill="#E8E8E8" xlink:href="#path-13"></use>
                        <g id="color/Petrol" mask="url(#mask-14)" fill="#25204F">
                            <rect id="Petrol" x="0" y="0" width="10.1450987" height="10.1595396"></rect>
                        </g>
                    </g>
                </g>
                <g id="Shape/triangle" transform="translate(129.860160, 174.949334) scale(1, -1) rotate(-255.000000) translate(-129.860160, -174.949334) translate(124.787611, 169.869565)">
                    <g id="color_lavanda">
                        <mask id="mask-16" fill="white">
                            <use xlink:href="#path-15"></use>
                        </mask>
                        <use id="Mask" fill="#E8E8E8" xlink:href="#path-15"></use>
                        <g id="color/Petrol" mask="url(#mask-16)" fill="#25204F">
                            <rect id="Petrol" x="0" y="0" width="10.1450987" height="10.1595396"></rect>
                        </g>
                    </g>
                </g>
                <g id="Shape/triangle" transform="translate(331.851799, 91.289583) scale(-1, 1) rotate(-165.000000) translate(-331.851799, -91.289583) translate(326.779250, 86.209813)">
                    <g id="color_lavanda">
                        <mask id="mask-18" fill="white">
                            <use xlink:href="#path-17"></use>
                        </mask>
                        <use id="Mask" fill="#E8E8E8" xlink:href="#path-17"></use>
                        <g id="color/yellow" mask="url(#mask-18)" fill="#F3D239">
                            <rect id="Yellow" x="0" y="0" width="10.1450987" height="10.1595396"></rect>
                        </g>
                    </g>
                </g>
                <g id="Shape/triangle" transform="translate(155.252490, 184.471458) scale(-1, 1) rotate(-165.000000) translate(-155.252490, -184.471458) translate(150.179941, 179.391689)">
                    <g id="color_lavanda">
                        <mask id="mask-20" fill="white">
                            <use xlink:href="#path-19"></use>
                        </mask>
                        <use id="Mask" fill="#E8E8E8" xlink:href="#path-19"></use>
                        <g id="color/cariben" mask="url(#mask-20)" fill="#4FC5D5">
                            <rect id="Cariben" x="0" y="0" width="10.1450987" height="10.1595396"></rect>
                        </g>
                    </g>
                </g>
                <g id="Shape/triangle" transform="translate(278.640118, 140.000000) scale(1, -1) translate(-278.640118, -140.000000) translate(273.640118, 135.000000)">
                    <g id="color_lavanda">
                        <mask id="mask-22" fill="white">
                            <use xlink:href="#path-21"></use>
                        </mask>
                        <use id="Mask" fill="#E8E8E8" xlink:href="#path-21"></use>
                        <g id="color/yellow" mask="url(#mask-22)" fill="#F3D239">
                            <rect id="Yellow" x="0" y="0" width="10" height="10"></rect>
                        </g>
                    </g>
                </g>
                <g id="Shape/triangle" transform="translate(232.640118, 259.000000) scale(1, -1) translate(-232.640118, -259.000000) translate(227.640118, 254.000000)">
                    <g id="color_lavanda">
                        <mask id="mask-24" fill="white">
                            <use xlink:href="#path-23"></use>
                        </mask>
                        <use id="Mask" fill="#E8E8E8" xlink:href="#path-23"></use>
                        <g id="color/yellow" mask="url(#mask-24)" fill="#F3D239">
                            <rect id="Yellow" x="0" y="0" width="10" height="10"></rect>
                        </g>
                    </g>
                </g>
                <g id="Shape/triangle" transform="translate(5.640118, 106.000000) scale(1, -1) translate(-5.640118, -106.000000) translate(0.640118, 101.000000)">
                    <g id="color_lavanda">
                        <mask id="mask-26" fill="white">
                            <use xlink:href="#path-25"></use>
                        </mask>
                        <use id="Mask" fill="#E8E8E8" xlink:href="#path-25"></use>
                        <g id="color/yellow" mask="url(#mask-26)" fill="#F3D239">
                            <rect id="Yellow" x="0" y="0" width="10" height="10"></rect>
                        </g>
                    </g>
                </g>
                <g id="Shape/triangle" transform="translate(308.840000, 119.062444) scale(1, -1) rotate(-300.000000) translate(-308.840000, -119.062444) translate(303.767450, 113.982675)">
                    <g id="color_lavanda">
                        <mask id="mask-28" fill="white">
                            <use xlink:href="#path-27"></use>
                        </mask>
                        <use id="Mask" fill="#E8E8E8" xlink:href="#path-27"></use>
                        <g id="color/clementine" mask="url(#mask-28)" fill="#EE7552">
                            <rect id="Clementine" x="0" y="0" width="10.1450987" height="10.1595396"></rect>
                        </g>
                    </g>
                </g>
                <g id="Shape/triangle" transform="translate(132.240691, 212.244320) scale(1, -1) rotate(-300.000000) translate(-132.240691, -212.244320) translate(127.168142, 207.164550)">
                    <g id="color_lavanda">
                        <mask id="mask-30" fill="white">
                            <use xlink:href="#path-29"></use>
                        </mask>
                        <use id="Mask" fill="#E8E8E8" xlink:href="#path-29"></use>
                        <g id="color/clementine" mask="url(#mask-30)" fill="#EE7552">
                            <rect id="Clementine" x="0" y="0" width="10.1450987" height="10.1595396"></rect>
                        </g>
                    </g>
                </g>
                <g id="Shape/triangle" transform="translate(36.225942, 85.282668) scale(1, -1) rotate(-300.000000) translate(-36.225942, -85.282668) translate(31.153392, 80.202898)">
                    <g id="color_lavanda">
                        <mask id="mask-32" fill="white">
                            <use xlink:href="#path-31"></use>
                        </mask>
                        <use id="Mask" fill="#E8E8E8" xlink:href="#path-31"></use>
                        <g id="color/clementine" mask="url(#mask-32)" fill="#EE7552">
                            <rect id="Clementine" x="0" y="0" width="10.1450987" height="10.1595396"></rect>
                        </g>
                    </g>
                </g>
                <g id="Shape/triangle" transform="translate(218.379823, 135.726161) scale(1, -1) rotate(-285.000000) translate(-218.379823, -135.726161) translate(213.307273, 130.646391)">
                    <g id="color_lavanda">
                        <mask id="mask-34" fill="white">
                            <use xlink:href="#path-33"></use>
                        </mask>
                        <use id="Mask" fill="#E8E8E8" xlink:href="#path-33"></use>
                        <g id="color/peach" mask="url(#mask-34)" fill="#FFAE94">
                            <rect id="Peach" x="0" y="0" width="10.1450987" height="10.1595396"></rect>
                        </g>
                    </g>
                </g>
                <g id="Shape/triangle" transform="translate(127.126135, 100.811707) scale(1, -1) rotate(-285.000000) translate(-127.126135, -100.811707) translate(122.053586, 95.731937)">
                    <g id="color_lavanda">
                        <mask id="mask-36" fill="white">
                            <use xlink:href="#path-35"></use>
                        </mask>
                        <use id="Mask" fill="#E8E8E8" xlink:href="#path-35"></use>
                        <g id="color/peach" mask="url(#mask-36)" fill="#FFAE94">
                            <rect id="Peach" x="0" y="0" width="10.1450987" height="10.1595396"></rect>
                        </g>
                    </g>
                </g>
                <g id="Shape/triangle" transform="translate(250.913746, 143.661264) scale(1, -1) rotate(-165.000000) translate(-250.913746, -143.661264) translate(245.841197, 138.581495)">
                    <g id="color_lavanda">
                        <mask id="mask-38" fill="white">
                            <use xlink:href="#path-37"></use>
                        </mask>
                        <use id="Mask" fill="#E8E8E8" xlink:href="#path-37"></use>
                        <g id="color/Petrol" mask="url(#mask-38)" fill="#25204F">
                            <rect id="Petrol" x="0" y="0" width="10.1450987" height="10.1595396"></rect>
                        </g>
                    </g>
                </g>
                <g id="Shape/triangle" transform="translate(205.238535, 262.687813) scale(1, -1) rotate(-165.000000) translate(-205.238535, -262.687813) translate(200.165986, 257.608043)">
                    <g id="color_lavanda">
                        <mask id="mask-40" fill="white">
                            <use xlink:href="#path-39"></use>
                        </mask>
                        <use id="Mask" fill="#E8E8E8" xlink:href="#path-39"></use>
                        <g id="color/Petrol" mask="url(#mask-40)" fill="#25204F">
                            <rect id="Petrol" x="0" y="0" width="10.1450987" height="10.1595396"></rect>
                        </g>
                    </g>
                </g>
                <g id="Shape/triangle" transform="translate(137.001753, 86.081284) scale(1, -1) rotate(-165.000000) translate(-137.001753, -86.081284) translate(131.929204, 81.001514)">
                    <g id="color_lavanda">
                        <mask id="mask-42" fill="white">
                            <use xlink:href="#path-41"></use>
                        </mask>
                        <use id="Mask" fill="#E8E8E8" xlink:href="#path-41"></use>
                        <g id="color/Petrol" mask="url(#mask-42)" fill="#25204F">
                            <rect id="Petrol" x="0" y="0" width="10.1450987" height="10.1595396"></rect>
                        </g>
                    </g>
                </g>
                <g id="Shape/triangle" transform="translate(231.075988, 110.333831) rotate(-165.000000) translate(-231.075988, -110.333831) translate(226.003439, 105.254061)">
                    <g id="color_lavanda">
                        <mask id="mask-44" fill="white">
                            <use xlink:href="#path-43"></use>
                        </mask>
                        <use id="Mask" fill="#E8E8E8" xlink:href="#path-43"></use>
                        <g id="color/cariben" mask="url(#mask-44)" fill="#4FC5D5">
                            <rect id="Cariben" x="0" y="0" width="10.1450987" height="10.1595396"></rect>
                        </g>
                    </g>
                </g>
                <g id="Shape/triangle" transform="translate(117.163995, 52.753850) rotate(-165.000000) translate(-117.163995, -52.753850) translate(112.091445, 47.674080)">
                    <g id="color_lavanda">
                        <mask id="mask-46" fill="white">
                            <use xlink:href="#path-45"></use>
                        </mask>
                        <use id="Mask" fill="#E8E8E8" xlink:href="#path-45"></use>
                        <g id="color/cariben" mask="url(#mask-46)" fill="#4FC5D5">
                            <rect id="Cariben" x="0" y="0" width="10.1450987" height="10.1595396"></rect>
                        </g>
                    </g>
                </g>
                <g id="Shape/triangle" transform="translate(338.199882, 171.434126) scale(-1, -1) rotate(-195.000000) translate(-338.199882, -171.434126) translate(333.127332, 166.354356)">
                    <g id="color_lavanda">
                        <mask id="mask-48" fill="white">
                            <use xlink:href="#path-47"></use>
                        </mask>
                        <use id="Mask" fill="#E8E8E8" xlink:href="#path-47"></use>
                        <g id="color/clementine" mask="url(#mask-48)" fill="#EE7552">
                            <rect id="Clementine" x="0" y="0" width="10.1450987" height="10.1595396"></rect>
                        </g>
                    </g>
                </g>
                <g id="Shape/triangle" transform="translate(356.450619, 175.401677) scale(1, -1) rotate(-165.000000) translate(-356.450619, -175.401677) translate(351.378070, 170.321908)">
                    <g id="color_lavanda">
                        <mask id="mask-50" fill="white">
                            <use xlink:href="#path-49"></use>
                        </mask>
                        <use id="Mask" fill="#E8E8E8" xlink:href="#path-49"></use>
                        <g id="color/cariben" mask="url(#mask-50)" fill="#4FC5D5">
                            <rect id="Cariben" x="0" y="0" width="10.1450987" height="10.1595396"></rect>
                        </g>
                    </g>
                </g>
                <g id="Shape/triangle" transform="translate(296.143835, 106.366279) scale(1, -1) rotate(-105.000000) translate(-296.143835, -106.366279) translate(291.071285, 101.286509)">
                    <g id="color_lavanda">
                        <mask id="mask-52" fill="white">
                            <use xlink:href="#path-51"></use>
                        </mask>
                        <use id="Mask" fill="#E8E8E8" xlink:href="#path-51"></use>
                        <g id="color/lavanda" mask="url(#mask-52)" fill="#A594F0">
                            <rect id="Lavanda" x="0" y="0" width="10.1450987" height="10.1595396"></rect>
                        </g>
                    </g>
                </g>
                <g id="Shape/triangle" transform="translate(119.544526, 199.548155) scale(1, -1) rotate(-105.000000) translate(-119.544526, -199.548155) translate(114.471976, 194.468385)">
                    <g id="color_lavanda">
                        <mask id="mask-54" fill="white">
                            <use xlink:href="#path-53"></use>
                        </mask>
                        <use id="Mask" fill="#E8E8E8" xlink:href="#path-53"></use>
                        <g id="color/lavanda" mask="url(#mask-54)" fill="#A594F0">
                            <rect id="Lavanda" x="0" y="0" width="10.1450987" height="10.1595396"></rect>
                        </g>
                    </g>
                </g>
                <g id="Shape/triangle" transform="translate(23.529776, 72.586503) scale(1, -1) rotate(-105.000000) translate(-23.529776, -72.586503) translate(18.457227, 67.506733)">
                    <g id="color_lavanda">
                        <mask id="mask-56" fill="white">
                            <use xlink:href="#path-55"></use>
                        </mask>
                        <use id="Mask" fill="#E8E8E8" xlink:href="#path-55"></use>
                        <g id="color/lavanda" mask="url(#mask-56)" fill="#A594F0">
                            <rect id="Lavanda" x="0" y="0" width="10.1450987" height="10.1595396"></rect>
                        </g>
                    </g>
                </g>
            </g>
        </g>
    </g>
</svg>