<?xml version="1.0" encoding="UTF-8"?>
<svg width="520px" height="210px" viewBox="0 0 520 210" version="1.1" xmlns="http://www.w3.org/2000/svg" xmlns:xlink="http://www.w3.org/1999/xlink">
    <title>Group</title>
    <defs>
        <path d="M54.6523987,56.9635628 C56.0138676,56.9635628 57.1175563,58.0672514 57.1175563,59.4287204 C57.1175563,60.0825208 56.8578351,60.7095433 56.3955284,61.1718501 L52.909269,64.6581094 C51.9465651,65.6208134 50.3857136,65.6208134 49.4230096,64.6581094 C48.9607029,64.1958027 48.7009817,63.5687802 48.7009817,62.9149798 C48.7009817,59.6281029 51.3655218,56.9635628 54.6523987,56.9635628 Z" id="path-1"></path>
        <path d="M46.0368473,21.6697592 C44.4149887,22.5662829 42.3411261,22.0342459 41.4047456,20.4814213 C37.1723057,13.462654 39.6840236,4.48779113 47.0148245,0.435503965 C48.6366831,-0.461019744 50.7105457,0.0710172606 51.6469262,1.62384188 C52.5739429,3.16113825 52.0385815,5.12258712 50.4540938,6.03155843 L50.4057583,6.05877934 C46.3595454,8.29542669 44.9466117,13.2219045 47.2083517,17.1171049 L47.2780152,17.2348217 C48.2143957,18.7876463 47.6587059,20.7732355 46.0368473,21.6697592 Z" id="path-3"></path>
        <path d="M44.3364424,21.6697592 C42.7145838,22.5662829 40.6407212,22.0342459 39.7043407,20.4814213 C35.4719008,13.462654 37.9836187,4.48779113 45.3144197,0.435503965 C46.9362783,-0.461019744 49.0101408,0.0710172606 49.9465213,1.62384188 C50.873538,3.16113825 50.3381766,5.12258712 48.7536889,6.03155843 L48.7053534,6.05877934 C44.6591406,8.29542669 43.2462069,13.2219045 45.5079469,17.1171049 L45.5776103,17.2348217 C46.5139908,18.7876463 45.958301,20.7732355 44.3364424,21.6697592 Z" id="path-5"></path>
        <path d="M50.958734,3.40080972 C52.7450801,3.40080972 54.1931998,4.84892936 54.1931998,6.63527548 C54.1931998,14.7095599 47.6476989,21.2550607 39.5734145,21.2550607 C37.7870684,21.2550607 36.3389487,19.8069411 36.3389487,18.020595 C36.3389487,16.2521123 37.7582508,14.8151254 39.5199267,14.7865625 L39.5734145,14.7861292 C44.0299908,14.7861292 47.6511978,11.209488 47.7231762,6.77006475 L47.7242682,6.63527548 C47.7242682,4.84892936 49.1723879,3.40080972 50.958734,3.40080972 Z" id="path-7"></path>
        <path d="M5.43495609,0 C6.6795282,-2.28624189e-16 7.68845325,1.00892504 7.68845325,2.25349716 C7.68845325,2.85060641 7.4514717,3.42330641 7.0295521,3.84582659 L3.84582659,7.03408393 C2.96692532,7.91423626 1.54093062,7.91525045 0.660778293,7.03634918 C0.237721467,6.61389369 7.32176694e-17,6.04056005 0,5.44269241 L0,5.43495609 C-3.67595294e-16,2.43331272 2.43331272,5.51392941e-16 5.43495609,0 Z" id="path-9"></path>
        <path d="M5.43495609,0 C6.6795282,-2.28624189e-16 7.68845325,1.00892504 7.68845325,2.25349716 C7.68845325,2.85060641 7.4514717,3.42330641 7.0295521,3.84582659 L3.84582659,7.03408393 C2.96692532,7.91423626 1.54093062,7.91525045 0.660778293,7.03634918 C0.237721467,6.61389369 7.32176694e-17,6.04056005 0,5.44269241 L0,5.43495609 C-3.67595294e-16,2.43331272 2.43331272,5.51392941e-16 5.43495609,0 Z" id="path-11"></path>
        <path d="M5.43495609,0 C6.6795282,-2.28624189e-16 7.68845325,1.00892504 7.68845325,2.25349716 C7.68845325,2.85060641 7.4514717,3.42330641 7.0295521,3.84582659 L3.84582659,7.03408393 C2.96692532,7.91423626 1.54093062,7.91525045 0.660778293,7.03634918 C0.237721467,6.61389369 7.32176694e-17,6.04056005 0,5.44269241 L0,5.43495609 C-1.25577371e-15,2.43331272 2.43331272,5.51392941e-16 5.43495609,0 Z" id="path-13"></path>
        <path d="M5.43495609,0 C6.6795282,-2.28624189e-16 7.68845325,1.00892504 7.68845325,2.25349716 C7.68845325,2.85060641 7.4514717,3.42330641 7.0295521,3.84582659 L3.84582659,7.03408393 C2.96692532,7.91423626 1.54093062,7.91525045 0.660778293,7.03634918 C0.237721467,6.61389369 7.32176694e-17,6.04056005 0,5.44269241 L0,5.43495609 C-3.67595294e-16,2.43331272 2.43331272,5.51392941e-16 5.43495609,0 Z" id="path-15"></path>
        <path d="M5.43495609,0 C6.6795282,-2.28624189e-16 7.68845325,1.00892504 7.68845325,2.25349716 C7.68845325,2.85060641 7.4514717,3.42330641 7.0295521,3.84582659 L3.84582659,7.03408393 C2.96692532,7.91423626 1.54093062,7.91525045 0.660778293,7.03634918 C0.237721467,6.61389369 7.32176694e-17,6.04056005 0,5.44269241 L0,5.43495609 C-3.67595294e-16,2.43331272 2.43331272,5.51392941e-16 5.43495609,0 Z" id="path-17"></path>
        <path d="M5.43495609,0 C6.6795282,-2.28624189e-16 7.68845325,1.00892504 7.68845325,2.25349716 C7.68845325,2.85060641 7.4514717,3.42330641 7.0295521,3.84582659 L3.84582659,7.03408393 C2.96692532,7.91423626 1.54093062,7.91525045 0.660778293,7.03634918 C0.237721467,6.61389369 7.32176694e-17,6.04056005 0,5.44269241 L0,5.43495609 C-3.67595294e-16,2.43331272 2.43331272,5.51392941e-16 5.43495609,0 Z" id="path-19"></path>
        <path d="M5.43495609,0 C6.6795282,-2.28624189e-16 7.68845325,1.00892504 7.68845325,2.25349716 C7.68845325,2.85060641 7.4514717,3.42330641 7.0295521,3.84582659 L3.84582659,7.03408393 C2.96692532,7.91423626 1.54093062,7.91525045 0.660778293,7.03634918 C0.237721467,6.61389369 7.32176694e-17,6.04056005 0,5.44269241 L0,5.43495609 C-3.67595294e-16,2.43331272 2.43331272,5.51392941e-16 5.43495609,0 Z" id="path-21"></path>
        <path d="M5.43495609,0 C6.6795282,-2.28624189e-16 7.68845325,1.00892504 7.68845325,2.25349716 C7.68845325,2.85060641 7.4514717,3.42330641 7.0295521,3.84582659 L3.84582659,7.03408393 C2.96692532,7.91423626 1.54093062,7.91525045 0.660778293,7.03634918 C0.237721467,6.61389369 7.32176694e-17,6.04056005 0,5.44269241 L0,5.43495609 C-3.67595294e-16,2.43331272 2.43331272,5.51392941e-16 5.43495609,0 Z" id="path-23"></path>
    </defs>
    <g id="Desktop" stroke="none" stroke-width="1" fill="none" fill-rule="evenodd">
        <g id="loading-2-+" transform="translate(-460.000000, -417.000000)">
            <g id="Group" transform="translate(460.763158, 417.000000)">
                <path d="M266.605207,1.60559188 C266.676985,1.67784812 266.795186,1.67789912 266.867015,1.60559188 L266.924134,1.5480919 C268.974552,-0.515984239 272.296556,-0.515893755 274.346337,1.54754212 L274.532006,1.73444753 C276.804607,4.0221874 276.804865,7.72486605 274.534312,10.0105443 L268.194372,16.3927165 C267.390599,17.2018433 266.082783,17.2030122 265.277849,16.3927165 L258.93791,10.0105443 C256.669053,7.72657377 256.669818,4.01996845 258.940215,1.73444753 L259.125884,1.54754212 C261.175489,-0.515715693 264.498313,-0.515336694 266.548087,1.5480919 L266.605207,1.60559188 Z" id="Shape-Copy-3" fill="#EE7552" fill-rule="nonzero"></path>
                <path d="M67.1933623,1.90046969 C66.259379,0.960264812 65.0327846,0.493816035 63.7870688,0.524329975 C62.5529063,0.554560917 61.3031393,1.07191052 60.2949405,2.08682532 C59.2563923,3.13229163 58.7372241,4.50284752 58.7368423,5.87308444 C58.7364606,7.24326056 59.2548273,8.6134459 60.2926348,9.65816655 L66.6325745,16.0403387 C66.9370214,16.3468136 67.3365062,16.5 67.7359745,16.5 C68.1357481,16.5 68.5354015,16.3466109 68.839647,16.0403387 L75.1795867,9.65816655 C76.225613,8.60517236 76.744141,7.22297336 76.713011,5.82143065 C76.6821766,4.43320242 76.1125626,3.02833713 74.9916124,1.89991991 C74.0634353,0.965559925 72.846801,0.499911291 71.5883397,0.500000013 C70.3087069,0.500090227 68.9879706,0.979684083 67.1933623,1.90046969 Z" id="Shape-Copy-4" stroke="#25204F" fill-rule="nonzero"></path>
                <path d="M455.193362,1.90046969 C454.259379,0.960264812 453.032785,0.493816035 451.787069,0.524329975 C450.552906,0.554560917 449.303139,1.07191052 448.294941,2.08682532 C447.256392,3.13229163 446.737224,4.50284752 446.736842,5.87308444 C446.736461,7.24326056 447.254827,8.6134459 448.292635,9.65816655 L454.632574,16.0403387 C454.937021,16.3468136 455.336506,16.5 455.735974,16.5 C456.135748,16.5 456.535401,16.3466109 456.839647,16.0403387 L463.179587,9.65816655 C464.225613,8.60517236 464.744141,7.22297336 464.713011,5.82143065 C464.682177,4.43320242 464.112563,3.02833713 462.991612,1.89991991 C462.063435,0.965559925 460.846801,0.499911291 459.58834,0.500000013 C458.308707,0.500090227 456.987971,0.979684083 455.193362,1.90046969 Z" id="Shape-Copy-5" stroke="#25204F" fill-rule="nonzero"></path>
                <g id="Group-27" transform="translate(454.793136, 137.724084) rotate(19.000000) translate(-454.793136, -137.724084) translate(411.293136, 91.724084)">
                    <path d="M43.5997671,86.1220371 C60.4413707,103.294292 86.960091,78.431665 86.960091,54.408468 C86.960091,31.2184018 77.4734023,14.8296189 46.9693645,23.7043893 C45.8734705,24.023226 44.9097134,24.3511463 43.5997671,24.3511463 C42.2898208,24.3511463 41.1714148,24.0587054 40.0022318,23.7043893 C10.8495417,14.869786 0.239443212,31.3115829 0.239443212,54.408468 C0.239443212,78.431665 26.0472465,102.91629 43.5997671,86.1220371 Z" id="Oval" fill="#EE7552"></path>
                    <path d="M43.5997671,80.4191791 C57.1390954,94.2811195 78.4580667,74.2112885 78.4580667,54.8190692 C78.4580667,36.0993772 70.831513,22.8698777 46.3086591,30.033849 C45.4276463,30.2912232 44.6528612,30.5559299 43.5997671,30.5559299 C42.546673,30.5559299 41.6475623,30.3198632 40.7076309,30.033849 C17.2711545,22.9023018 8.7414675,36.1745957 8.7414675,54.8190692 C8.7414675,74.2112885 29.4889172,93.9759854 43.5997671,80.4191791 Z" id="Oval" fill="#FCF8F2"></path>
                    <mask id="mask-2" fill="white">
                        <use xlink:href="#path-1"></use>
                    </mask>
                    <use id="Mask" fill="#25204F" xlink:href="#path-1"></use>
                    <path d="M32.5471355,56.9635628 C33.9086045,56.9635628 35.0122932,58.0672514 35.0122932,59.4287204 C35.0122932,60.0825208 34.7525719,60.7095433 34.2902652,61.1718501 L30.8040058,64.6581094 C29.8413019,65.6208134 28.2804504,65.6208134 27.3177465,64.6581094 C26.8554397,64.1958027 26.5957185,63.5687802 26.5957185,62.9149798 C26.5957185,59.6281029 29.2602587,56.9635628 32.5471355,56.9635628 Z" id="Mask-Copy-6" fill="#25204F" transform="translate(32.547136, 62.914980) scale(-1, 1) translate(-32.547136, -62.914980) "></path>
                    <mask id="mask-4" fill="white">
                        <use xlink:href="#path-3"></use>
                    </mask>
                    <use id="Mask" fill="#25204F" fill-rule="nonzero" xlink:href="#path-3"></use>
                </g>
                <g id="Group-27-Copy" transform="translate(266.246360, 137.796647) rotate(-355.000000) translate(-266.246360, -137.796647) translate(222.746360, 91.796647)">
                    <path d="M43.5997671,86.1220371 C60.4413707,103.294292 86.960091,78.431665 86.960091,54.408468 C86.960091,31.2184018 77.4734023,14.8296189 46.9693645,23.7043893 C45.8734705,24.023226 44.9097134,24.3511463 43.5997671,24.3511463 C42.2898208,24.3511463 41.1714148,24.0587054 40.0022318,23.7043893 C10.8495417,14.869786 0.239443212,31.3115829 0.239443212,54.408468 C0.239443212,78.431665 26.0472465,102.91629 43.5997671,86.1220371 Z" id="Oval" fill="#EE7552"></path>
                    <mask id="mask-6" fill="white">
                        <use xlink:href="#path-5"></use>
                    </mask>
                    <use id="Mask" fill="#25204F" fill-rule="nonzero" transform="translate(44.024868, 11.052632) scale(-1, 1) translate(-44.024868, -11.052632) " xlink:href="#path-5"></use>
                </g>
                <g id="Group-30" transform="translate(67.646468, 137.656860) rotate(-40.000000) translate(-67.646468, -137.656860) translate(21.146468, 89.156860)">
                    <path d="M50.1091869,24.7021416 C58.166274,22.3548943 64.8385331,21.6744846 70.3154906,22.3570473 C69.0552039,24.0225118 68.307915,26.0997675 68.307915,28.3523498 C68.307915,32.2141411 70.5042813,35.5606276 73.7112901,37.1985937 C73.0623762,38.5202918 72.6978048,40.0081158 72.6978048,41.5814744 C72.6978048,47.0611572 77.1200012,51.5033178 82.5750569,51.5033178 C82.7620136,51.5033178 82.9477571,51.4981001 83.1318294,51.4883245 C84.4835434,55.3497732 88.1461161,58.1178801 92.4523091,58.1178801 L92.4416441,58.1181357 C91.8201001,83.3153147 64.1724972,108.881225 46.5413779,90.8798887 C27.956356,108.685843 0.630446717,82.7262412 0.630446717,57.2558636 C0.630446717,32.7675999 11.8646687,15.3353333 42.7322229,24.7021416 C43.9701814,25.0778021 45.154376,25.3878599 46.5413779,25.3878599 C47.9283798,25.3878599 48.9488286,25.0401854 50.1091869,24.7021416 Z" id="Combined-Shape" fill="#EE7552"></path>
                    <mask id="mask-8" fill="white">
                        <use xlink:href="#path-7"></use>
                    </mask>
                    <use id="Mask" fill="#25204F" fill-rule="nonzero" transform="translate(45.266074, 12.327935) scale(-1, 1) rotate(-210.000000) translate(-45.266074, -12.327935) " xlink:href="#path-7"></use>
                </g>
                <g id="Shape/triangle" transform="translate(242.014686, 195.277074) scale(1, -1) rotate(57.000000) translate(-242.014686, -195.277074) translate(236.579730, 189.834382)">
                    <g id="color_lavanda">
                        <mask id="mask-10" fill="white">
                            <use xlink:href="#path-9"></use>
                        </mask>
                        <use id="Mask" fill="#E8E8E8" xlink:href="#path-9"></use>
                        <g id="color/yellow" mask="url(#mask-10)" fill="#F3D239">
                            <rect id="Yellow" x="0" y="0" width="10.8699122" height="10.8853848"></rect>
                        </g>
                    </g>
                </g>
                <g id="Shape/triangle" transform="translate(34.341839, 192.487227) scale(1, -1) rotate(57.000000) translate(-34.341839, -192.487227) translate(28.906883, 187.044534)">
                    <g id="color_lavanda">
                        <mask id="mask-12" fill="white">
                            <use xlink:href="#path-11"></use>
                        </mask>
                        <use id="Mask" fill="#E8E8E8" xlink:href="#path-11"></use>
                        <g id="color/Petrol" mask="url(#mask-12)" fill="#25204F">
                            <rect id="Petrol" x="0" y="0" width="10.8699122" height="10.8853848"></rect>
                        </g>
                    </g>
                </g>
                <g id="Shape/triangle" transform="translate(511.305401, 160.179535) scale(1, -1) rotate(57.000000) translate(-511.305401, -160.179535) translate(505.870445, 154.736842)">
                    <g id="color_lavanda">
                        <mask id="mask-14" fill="white">
                            <use xlink:href="#path-13"></use>
                        </mask>
                        <use id="Mask" fill="#E8E8E8" xlink:href="#path-13"></use>
                        <g id="color/lavanda" mask="url(#mask-14)" fill="#A594F0">
                            <rect id="Lavanda" x="0" y="0" width="10.8699122" height="10.8853848"></rect>
                        </g>
                    </g>
                </g>
                <g id="Shape/triangle" transform="translate(226.225207, 186.362791) scale(1, -1) rotate(-30.000000) translate(-226.225207, -186.362791) translate(220.790251, 180.920099)">
                    <g id="color_lavanda">
                        <mask id="mask-16" fill="white">
                            <use xlink:href="#path-15"></use>
                        </mask>
                        <use id="Mask" fill="#E8E8E8" xlink:href="#path-15"></use>
                        <g id="color/clementine" mask="url(#mask-16)" fill="#EE7552">
                            <rect id="Clementine" x="0" y="0" width="10.8699122" height="10.8853848"></rect>
                        </g>
                    </g>
                </g>
                <g id="Shape/triangle" transform="translate(307.256818, 189.086417) scale(1, -1) rotate(-165.000000) translate(-307.256818, -189.086417) translate(301.821862, 183.643725)">
                    <g id="color_lavanda">
                        <mask id="mask-18" fill="white">
                            <use xlink:href="#path-17"></use>
                        </mask>
                        <use id="Mask" fill="#E8E8E8" xlink:href="#path-17"></use>
                        <g id="color/peach" mask="url(#mask-18)" fill="#FFAE94">
                            <rect id="Peach" x="0" y="0" width="10.8699122" height="10.8853848"></rect>
                        </g>
                    </g>
                </g>
                <g id="Shape/triangle" transform="translate(475.596899, 202.689656) scale(1, -1) rotate(-165.000000) translate(-475.596899, -202.689656) translate(470.161943, 197.246964)">
                    <g id="color_lavanda">
                        <mask id="mask-20" fill="white">
                            <use xlink:href="#path-19"></use>
                        </mask>
                        <use id="Mask" fill="#E8E8E8" xlink:href="#path-19"></use>
                        <g id="color/clementine" mask="url(#mask-20)" fill="#EE7552">
                            <rect id="Clementine" x="0" y="0" width="10.8699122" height="10.8853848"></rect>
                        </g>
                    </g>
                </g>
                <g id="Shape/triangle" transform="translate(197.953983, 187.838254) scale(1, -1) rotate(-165.000000) translate(-197.953983, -187.838254) translate(192.519027, 182.395562)">
                    <g id="color_lavanda">
                        <mask id="mask-22" fill="white">
                            <use xlink:href="#path-21"></use>
                        </mask>
                        <use id="Mask" fill="#E8E8E8" xlink:href="#path-21"></use>
                        <g id="color/cariben" mask="url(#mask-22)" fill="#4FC5D5">
                            <rect id="Cariben" x="0" y="0" width="10.8699122" height="10.8853848"></rect>
                        </g>
                    </g>
                </g>
                <g id="Shape/triangle" transform="translate(7.135361, 180.584393) scale(-1, -1) rotate(-165.000000) translate(-7.135361, -180.584393) translate(1.700405, 175.141700)">
                    <g id="color_lavanda">
                        <mask id="mask-24" fill="white">
                            <use xlink:href="#path-23"></use>
                        </mask>
                        <use id="Mask" fill="#E8E8E8" xlink:href="#path-23"></use>
                        <g id="color/peach" mask="url(#mask-24)" fill="#FFAE94">
                            <rect id="Peach" x="0" y="0" width="10.8699122" height="10.8853848"></rect>
                        </g>
                    </g>
                </g>
            </g>
        </g>
    </g>
</svg>