<?xml version="1.0" encoding="UTF-8"?>
<svg width="611px" height="289px" viewBox="0 0 611 289" version="1.1" xmlns="http://www.w3.org/2000/svg" xmlns:xlink="http://www.w3.org/1999/xlink">
    <title>Group 7</title>
    <defs>
        <path d="M152.714834,0 C68.4101583,0 0.0676115374,68.1667471 0.0676115374,152.254819 L0.0676115374,236.469512 C0.0676115374,250.562876 11.52166,261.987805 25.6509449,261.987805 L60.6618695,261.987805 C74.7911543,261.987805 86.2452028,250.562876 86.2452028,236.469512 L86.2452028,152.254819 L86.2549705,151.086701 C86.8417432,115.006618 116.414717,85.9564261 152.714834,85.9564261 C189.425055,85.9564261 219.184465,115.639285 219.184465,152.254819 L219.184465,236.469512 C219.184465,250.562876 230.638513,261.987805 244.767798,261.987805 L279.759415,261.987805 C293.887442,261.98295 305.338437,250.563239 305.345992,236.474062 L305.362056,152.256438 L305.342468,149.80876 C303.99199,66.7122185 236.079232,0 152.714834,0 Z" id="path-1"></path>
        <path d="M11.2012818,0.0434549476 L11.2765301,0.0434549476 C13.8287603,0.0434549476 15.8977517,2.11244633 15.8977517,4.66467655 C15.8977517,5.89569435 15.4065919,7.0758347 14.5332044,7.94335944 L6.88544992,15.5397774 C5.3181011,17.0966052 2.78545555,17.0880763 1.22862775,15.5207274 C0.484301617,14.7713712 0.0665638308,13.7580403 0.0665638308,12.7018414 L0.0665638308,11.1781729 C0.0665638308,5.028638 5.05174688,0.0434549476 11.2012818,0.0434549476 Z" id="path-3"></path>
        <path d="M11.134718,0 L11.2099663,0 C13.7621965,-4.68837085e-16 15.8311879,2.06899139 15.8311879,4.6212216 C15.8311879,5.85223941 15.340028,7.03237975 14.4666406,7.89990449 L6.81888609,15.4963225 C5.25153727,17.0531503 2.71889172,17.0446213 1.16206392,15.4772725 C0.417737786,14.7279162 1.90570391e-15,13.7145854 0,12.6583864 L0,11.134718 C-7.53100828e-16,4.98518305 4.98518305,1.12965124e-15 11.134718,0 Z" id="path-5"></path>
        <path d="M5.44690105,0 C6.69420849,-2.29126659e-16 7.70535095,1.01114246 7.70535095,2.2584499 C7.70535095,2.85687148 7.46784857,3.43083016 7.04500166,3.85427896 L3.85427896,7.04954346 C2.97344603,7.93163019 1.54431729,7.9326466 0.662230553,7.05181368 C0.238243931,6.62842972 7.33785874e-17,6.05383601 0,5.45465437 L0,5.44690105 C-3.68403196e-16,2.43866066 2.43866066,5.52604793e-16 5.44690105,0 Z" id="path-7"></path>
        <path d="M5.44690105,0 C6.69420849,-2.29126659e-16 7.70535095,1.01114246 7.70535095,2.2584499 C7.70535095,2.85687148 7.46784857,3.43083016 7.04500166,3.85427896 L3.85427896,7.04954346 C2.97344603,7.93163019 1.54431729,7.9326466 0.662230553,7.05181368 C0.238243931,6.62842972 7.33785874e-17,6.05383601 0,5.45465437 L0,5.44690105 C-3.68403196e-16,2.43866066 2.43866066,5.52604793e-16 5.44690105,0 Z" id="path-9"></path>
        <path d="M5.44690105,0 C6.69420849,-2.29126659e-16 7.70535095,1.01114246 7.70535095,2.2584499 C7.70535095,2.85687148 7.46784857,3.43083016 7.04500166,3.85427896 L3.85427896,7.04954346 C2.97344603,7.93163019 1.54431729,7.9326466 0.662230553,7.05181368 C0.238243931,6.62842972 3.39468687e-16,6.05383601 0,5.45465437 L0,5.44690105 C-3.68403196e-16,2.43866066 2.43866066,5.52604793e-16 5.44690105,0 Z" id="path-11"></path>
        <path d="M5.44690105,0 C6.69420849,-2.29126659e-16 7.70535095,1.01114246 7.70535095,2.2584499 C7.70535095,2.85687148 7.46784857,3.43083016 7.04500166,3.85427896 L3.85427896,7.04954346 C2.97344603,7.93163019 1.54431729,7.9326466 0.662230553,7.05181368 C0.238243931,6.62842972 7.33785874e-17,6.05383601 0,5.45465437 L0,5.44690105 C-3.68403196e-16,2.43866066 2.43866066,5.52604793e-16 5.44690105,0 Z" id="path-13"></path>
        <path d="M5.44690105,0 C6.69420849,-2.29126659e-16 7.70535095,1.01114246 7.70535095,2.2584499 C7.70535095,2.85687148 7.46784857,3.43083016 7.04500166,3.85427896 L3.85427896,7.04954346 C2.97344603,7.93163019 1.54431729,7.9326466 0.662230553,7.05181368 C0.238243931,6.62842972 7.33785874e-17,6.05383601 0,5.45465437 L0,5.44690105 C-3.68403196e-16,2.43866066 2.43866066,5.52604793e-16 5.44690105,0 Z" id="path-15"></path>
        <path d="M5.44690105,0 C6.69420849,-2.29126659e-16 7.70535095,1.01114246 7.70535095,2.2584499 C7.70535095,2.85687148 7.46784857,3.43083016 7.04500166,3.85427896 L3.85427896,7.04954346 C2.97344603,7.93163019 1.54431729,7.9326466 0.662230553,7.05181368 C0.238243931,6.62842972 7.33785874e-17,6.05383601 0,5.45465437 L0,5.44690105 C-3.68403196e-16,2.43866066 2.43866066,5.52604793e-16 5.44690105,0 Z" id="path-17"></path>
        <path d="M5.44690105,0 C6.69420849,-2.29126659e-16 7.70535095,1.01114246 7.70535095,2.2584499 C7.70535095,2.85687148 7.46784857,3.43083016 7.04500166,3.85427896 L3.85427896,7.04954346 C2.97344603,7.93163019 1.54431729,7.9326466 0.662230553,7.05181368 C0.238243931,6.62842972 -1.92711512e-16,6.05383601 0,5.45465437 L0,5.44690105 C-3.68403196e-16,2.43866066 2.43866066,5.52604793e-16 5.44690105,0 Z" id="path-19"></path>
        <path d="M5.44690105,0 C6.69420849,-2.29126659e-16 7.70535095,1.01114246 7.70535095,2.2584499 C7.70535095,2.85687148 7.46784857,3.43083016 7.04500166,3.85427896 L3.85427896,7.04954346 C2.97344603,7.93163019 1.54431729,7.9326466 0.662230553,7.05181368 C0.238243931,6.62842972 7.33785874e-17,6.05383601 0,5.45465437 L0,5.44690105 C-3.68403196e-16,2.43866066 2.43866066,5.52604793e-16 5.44690105,0 Z" id="path-21"></path>
        <path d="M5.44690105,0 C6.69420849,-2.29126659e-16 7.70535095,1.01114246 7.70535095,2.2584499 C7.70535095,2.85687148 7.46784857,3.43083016 7.04500166,3.85427896 L3.85427896,7.04954346 C2.97344603,7.93163019 1.54431729,7.9326466 0.662230553,7.05181368 C0.238243931,6.62842972 7.33785874e-17,6.05383601 0,5.45465437 L0,5.44690105 C-3.68403196e-16,2.43866066 2.43866066,5.52604793e-16 5.44690105,0 Z" id="path-23"></path>
        <path d="M5.44690105,0 C6.69420849,-2.29126659e-16 7.70535095,1.01114246 7.70535095,2.2584499 C7.70535095,2.85687148 7.46784857,3.43083016 7.04500166,3.85427896 L3.85427896,7.04954346 C2.97344603,7.93163019 1.54431729,7.9326466 0.662230553,7.05181368 C0.238243931,6.62842972 7.33785874e-17,6.05383601 0,5.45465437 L0,5.44690105 C-3.68403196e-16,2.43866066 2.43866066,5.52604793e-16 5.44690105,0 Z" id="path-25"></path>
        <path d="M5.5,0 C6.75820109,-2.3112779e-16 7.77817459,1.01997351 7.77817459,2.27817459 C7.77817459,2.88238406 7.53815332,3.46184668 7.1109127,3.8890873 L3.8890873,7.1109127 C2.99940478,8.00059522 1.55694441,8.00059522 0.66726189,7.1109127 C0.240021277,6.68367209 7.39943192e-17,6.10420947 0,5.5 C-3.71994563e-16,2.46243388 2.46243388,5.57991845e-16 5.5,0 Z" id="path-27"></path>
        <path d="M5.44690105,0 C6.69420849,-2.29126659e-16 7.70535095,1.01114246 7.70535095,2.2584499 C7.70535095,2.85687148 7.46784857,3.43083016 7.04500166,3.85427896 L3.85427896,7.04954346 C2.97344603,7.93163019 1.54431729,7.9326466 0.662230553,7.05181368 C0.238243931,6.62842972 3.39468687e-16,6.05383601 0,5.45465437 L0,5.44690105 C-3.68403196e-16,2.43866066 2.43866066,5.52604793e-16 5.44690105,0 Z" id="path-29"></path>
        <path d="M5.44690105,0 C6.69420849,-2.29126659e-16 7.70535095,1.01114246 7.70535095,2.2584499 C7.70535095,2.85687148 7.46784857,3.43083016 7.04500166,3.85427896 L3.85427896,7.04954346 C2.97344603,7.93163019 1.54431729,7.9326466 0.662230553,7.05181368 C0.238243931,6.62842972 7.33785874e-17,6.05383601 0,5.45465437 L0,5.44690105 C-3.68403196e-16,2.43866066 2.43866066,5.52604793e-16 5.44690105,0 Z" id="path-31"></path>
        <path d="M5.44690105,0 C6.69420849,-2.29126659e-16 7.70535095,1.01114246 7.70535095,2.2584499 C7.70535095,2.85687148 7.46784857,3.43083016 7.04500166,3.85427896 L3.85427896,7.04954346 C2.97344603,7.93163019 1.54431729,7.9326466 0.662230553,7.05181368 C0.238243931,6.62842972 7.33785874e-17,6.05383601 0,5.45465437 L0,5.44690105 C-3.68403196e-16,2.43866066 2.43866066,5.52604793e-16 5.44690105,0 Z" id="path-33"></path>
        <path d="M5.44690105,0 C6.69420849,-2.29126659e-16 7.70535095,1.01114246 7.70535095,2.2584499 C7.70535095,2.85687148 7.46784857,3.43083016 7.04500166,3.85427896 L3.85427896,7.04954346 C2.97344603,7.93163019 1.54431729,7.9326466 0.662230553,7.05181368 C0.238243931,6.62842972 7.33785874e-17,6.05383601 0,5.45465437 L0,5.44690105 C-3.68403196e-16,2.43866066 2.43866066,5.52604793e-16 5.44690105,0 Z" id="path-35"></path>
        <path d="M5.44690105,0 C6.69420849,-2.29126659e-16 7.70535095,1.01114246 7.70535095,2.2584499 C7.70535095,2.85687148 7.46784857,3.43083016 7.04500166,3.85427896 L3.85427896,7.04954346 C2.97344603,7.93163019 1.54431729,7.9326466 0.662230553,7.05181368 C0.238243931,6.62842972 7.33785874e-17,6.05383601 0,5.45465437 L0,5.44690105 C-3.68403196e-16,2.43866066 2.43866066,5.52604793e-16 5.44690105,0 Z" id="path-37"></path>
    </defs>
    <g id="Desktop" stroke="none" stroke-width="1" fill="none" fill-rule="evenodd">
        <g id="loading-4-+" transform="translate(-436.000000, -378.000000)">
            <g id="Group-7" transform="translate(436.958580, 378.000000)">
                <g id="Group-45" transform="translate(143.041420, 0.000000)">
                    <g id="Group-4" transform="translate(0.392583, 17.012195)">
                        <mask id="mask-2" fill="white">
                            <use xlink:href="#path-1"></use>
                        </mask>
                        <use id="Mask" fill="#4FC5D5" fill-rule="nonzero" xlink:href="#path-1"></use>
                        <g mask="url(#mask-2)" fill="#1AA3B5">
                            <g transform="translate(18.368528, -17.012195)">
                                <path d="M35.7290717,3.42212033 L36.6629658,3.42293587 C44.127473,3.42945441 50.1733673,9.48591735 50.1668487,16.9504245 C50.1636636,20.5977496 48.6865065,24.0889641 46.0709413,26.6309731 L10.2416626,61.4526429 C8.65744829,62.9923052 6.1250459,62.9561886 4.58538361,61.3719743 C3.86062744,60.6262464 3.45477422,59.6275841 3.453859,58.5876895 L3.43373106,35.7176816 C3.41804706,17.8970197 17.8518335,3.43780452 35.6724953,3.42212052 C35.6913541,3.42210393 35.7102129,3.42210386 35.7290717,3.42212033 Z" id="Mask-Copy-8" transform="translate(36.662966, 35.717682) rotate(-175.000000) translate(-36.662966, -35.717682) "></path>
                                <path d="M232.733696,3.42212033 L233.66759,3.42293587 C241.132097,3.42945441 247.177991,9.48591735 247.171473,16.9504245 C247.168287,20.5977496 245.69113,24.0889641 243.075565,26.6309731 L207.246287,61.4526429 C205.662072,62.9923052 203.12967,62.9561886 201.590007,61.3719743 C200.865251,60.6262464 200.459398,59.6275841 200.458483,58.5876895 L200.438355,35.7176816 C200.422671,17.8970197 214.856457,3.43780452 232.677119,3.42212052 C232.695978,3.42210393 232.714837,3.42210386 232.733696,3.42212033 Z" id="Mask-Copy-9" transform="translate(233.667590, 35.717682) scale(-1, 1) rotate(-175.000000) translate(-233.667590, -35.717682) "></path>
                            </g>
                        </g>
                    </g>
                    <g id="Group-2" transform="translate(117.010734, 31.047256)">
                        <path d="M56.136961,0.425304878 C45.0690212,0.425304878 36.0966833,9.37483243 36.0966833,20.4146341 C36.0966833,31.4544359 45.0690212,40.4039634 56.136961,40.4039634 C67.2049008,40.4039634 76.1772388,31.4544359 76.1772388,20.4146341 C76.1772388,9.37483243 67.2049008,0.425304878 56.136961,0.425304878 Z M56.136961,6.42210366 C63.8845189,6.42210366 70.1651555,12.6867729 70.1651555,20.4146341 C70.1651555,28.1424953 63.8845189,34.4071646 56.136961,34.4071646 C48.3894032,34.4071646 42.1087666,28.1424953 42.1087666,20.4146341 C42.1087666,12.6867729 48.3894032,6.42210366 56.136961,6.42210366 Z" id="Oval" fill="#EE7552" fill-rule="nonzero"></path>
                        <g id="Group-36" transform="translate(0.280017, 16.586890)" fill="#1AA3B5">
                            <path d="M57.1650355,5.77383718 C59.9750533,5.77383718 62.2530229,7.46886616 62.2530229,4.81153098 C62.2530229,2.1541958 59.9750533,1.72252456e-13 57.1650355,1.72252456e-13 C54.3550176,1.72252456e-13 52.077048,2.1541958 52.077048,4.81153098 C52.077048,7.46886616 54.3550176,5.77383718 57.1650355,5.77383718 Z" id="Oval"></path>
                            <path d="M5.08798745,5.77383718 C7.89800532,5.77383718 10.1759749,7.46886616 10.1759749,4.81153098 C10.1759749,2.1541958 7.89800532,1.72252456e-13 5.08798745,1.72252456e-13 C2.27796957,1.72252456e-13 -1.05782606e-12,2.1541958 -1.05782606e-12,4.81153098 C-1.05782606e-12,7.46886616 2.27796957,5.77383718 5.08798745,5.77383718 Z" id="Oval-Copy-2" transform="translate(5.087987, 3.153252) rotate(-360.000000) translate(-5.087987, -3.153252) "></path>
                        </g>
                        <ellipse id="Oval" fill="#EE7552" cx="75.324461" cy="40.4039634" rx="4.26388889" ry="4.25304878"></ellipse>
                        <ellipse id="Oval-Copy-16" fill="#EE7552" cx="75.324461" cy="53.1631098" rx="4.26388889" ry="4.25304878"></ellipse>
                        <ellipse id="Oval-Copy-17" fill="#EE7552" cx="85.5577944" cy="65.9222561" rx="4.26388889" ry="4.25304878"></ellipse>
                        <ellipse id="Oval-Copy-18" fill="#EE7552" cx="98.349461" cy="68.4740854" rx="4.26388889" ry="4.25304878"></ellipse>
                        <g id="Group-35" transform="translate(3.691128, 25.943598)">
                            <g id="Square-Copy-16" transform="translate(16.252966, 16.348910) scale(1, -1) rotate(57.000000) translate(-16.252966, -16.348910) translate(4.752966, 4.848910)">
                                <g id="color_lavanda">
                                    <mask id="mask-4" fill="white">
                                        <use xlink:href="#path-3"></use>
                                    </mask>
                                    <use id="Mask" fill="#25204F" xlink:href="#path-3"></use>
                                </g>
                            </g>
                            <g id="Square-Copy-56" transform="translate(39.926501, 16.348910) scale(-1, -1) rotate(57.000000) translate(-39.926501, -16.348910) translate(28.426501, 4.848910)">
                                <g id="color_lavanda">
                                    <mask id="mask-6" fill="white">
                                        <use xlink:href="#path-5"></use>
                                    </mask>
                                    <use id="Mask" fill="#25204F" xlink:href="#path-5"></use>
                                </g>
                            </g>
                        </g>
                    </g>
                    <g id="Group-37" transform="translate(18.368528, 0.000000)"></g>
                    <g id="Group" transform="translate(229.764724, 100.371951)">
                        <path d="M4.09269324,10.2073171 L44.7010266,10.2073171 C46.9101656,10.2073171 48.7010266,11.9981781 48.7010266,14.2073171 L48.7010266,43.6341463 C48.7010266,45.8432853 46.9101656,47.6341463 44.7010266,47.6341463 L4.09269324,47.6341463 C1.88355424,47.6341463 0.0926932367,45.8432853 0.0926932367,43.6341463 L0.0926932367,14.2073171 C0.0926932367,11.9981781 1.88355424,10.2073171 4.09269324,10.2073171 Z" id="Rectangle" fill="#FBF8F3"></path>
                        <path d="M23.7065821,0 L24.2343599,0 C26.4434989,-8.49901461e-16 28.2343599,1.790861 28.2343599,4 L28.2343599,12.1615854 C28.2343599,14.3707244 26.4434989,16.1615854 24.2343599,16.1615854 L23.7065821,16.1615854 C21.4974431,16.1615854 19.7065821,14.3707244 19.7065821,12.1615854 L19.7065821,4 C19.7065821,1.790861 21.4974431,1.29399067e-15 23.7065821,0 Z" id="Rectangle" fill="#25204F"></path>
                        <g id="Group-41" transform="translate(5.209360, 23.817073)" fill="#25204F">
                            <path d="M0.643483232,18.7134146 C1.04863934,18.7134146 1.1678029,18.5994474 1.28696646,18.2119589 C1.31079918,17.4825688 1.40613002,13.9951725 1.45379545,13.2429889 L1.62062444,11.852589 C4.43288449,10.2798417 5.86284722,8.45636642 5.86284722,5.19690443 C5.86284722,2.46169157 4.36138635,0 1.28696646,0 C0.953308491,0 0.381323397,0.182347524 0.166828986,0.45586881 C0.119163561,3.12270135 0.0238327123,15.4311592 0,18.0751983 L0,18.1663721 C0,18.576654 0.30982526,18.7134146 0.643483232,18.7134146 Z M1.70555556,10.2073171 L1.70555556,9.18094357 L1.84586301,1.04156297 C1.90599478,0.850609756 2.00621439,0.850609756 2.12647792,0.850609756 C3.89034307,0.850609756 4.05069444,3.64330046 4.05069444,5.12318784 C4.05069444,7.0565891 3.72999169,8.56034563 2.38704891,9.82541065 C2.34696106,9.87314895 1.9260387,10.2073171 1.70555556,10.2073171 Z M9.98187322,18.7134146 C10.4829713,18.7134146 10.4228395,18.2347524 10.4228395,17.801677 C10.4428834,15.8642346 10.543103,10.8040908 10.563147,10.5989498 C10.563147,10.3938089 10.6433226,9.48207124 10.6834105,9.27693028 L11.0041132,9.27693028 C12.2267925,9.27693028 12.4272317,10.8040908 12.5074074,11.9209694 C12.5474953,12.6959463 12.7278906,16.1833427 12.7479345,16.9355263 C12.8235287,17.2363997 13.0594907,17.2535925 13.2710156,17.2545749 L13.3292082,17.2546344 C13.5897792,17.2546344 13.910482,17.2090476 13.910482,16.8215591 L13.910482,16.6392116 C13.910482,16.5024509 13.7902184,15.4539526 13.7902184,15.317192 C13.6899988,13.7444446 13.910482,10.4849826 13.0085055,9.14016963 C12.9283298,8.98061555 12.4673196,8.36519266 12.3671,8.25122545 C13.6899988,7.22552063 14.0708333,5.28807819 14.0708333,3.62415704 L14.0708333,3.37342919 C14.0708333,1.36760643 12.8882419,0 11.0442011,0 L10.8437619,0 C10.042005,0 9.70125831,0 9.66117047,1.04849826 C9.54090693,6.17702237 9.38055556,11.3511334 9.38055556,16.4796575 L9.38055556,18.3943065 C9.52086301,18.6222409 9.76139008,18.7134146 9.98187322,18.7134146 Z M10.9593468,7.01753049 C10.8210586,7.01753049 10.6597222,6.99693914 10.6597222,6.83220838 C10.6597222,4.99957865 10.8441066,3.49641044 10.8210586,1.70496339 C10.8210586,1.35491052 11.051539,1.16958841 11.3972598,1.16958841 C12.7109985,1.16958841 13.2180556,2.40506913 13.2180556,3.37286236 C13.2180556,4.32006425 12.5957583,7.01753049 10.9593468,7.01753049 Z M20.2894039,16.7007562 L21.0799001,1.34683518 C21.0799001,1.30194067 21.10625,1.01012638 21.10625,0.942784623 C21.10625,0.291814288 21.10625,0 20.3421036,0 C19.7887562,0 19.6570069,0.0224472529 19.4725577,0.471392312 L18.7611111,17.127254 C18.7611111,17.7782243 20.2367041,17.6884353 20.2894039,16.7007562 Z M25.7608678,17.0331973 L25.9169141,2.87314135 C30.6428906,15.9492842 30.8212293,16.4105238 31.0441527,16.8948254 C31.2224915,17.286879 31.9135541,17.5636228 32.0696004,17.0793212 C32.0696004,15.7417264 32.2925239,9.35355782 32.3371085,8.01596296 C32.4262779,5.61751701 32.760663,3.21907106 32.8275401,0.820625107 C32.8498324,0.313261541 32.8052477,0.29019956 32.2702315,0.26713758 C31.9358464,0.26713758 31.6906306,0.26713758 31.6906306,0.520819363 C31.4008302,1.81229026 31.4899996,3.21907106 31.4231225,4.60278988 C31.2893685,6.86286395 31.1110298,12.5361111 31.0887374,13.5508382 L26.5410997,0.797563127 C26.0729605,-0.54003173 24.8468817,0.0134557968 24.8914664,0.935935009 L24.6239583,17.1715691 C24.6239583,17.6558707 25.7608678,17.7250567 25.7608678,17.0331973 Z" id="Principal" stroke="#25204F" fill-rule="nonzero" stroke-linejoin="round"></path>
                            <ellipse id="Oval" cx="36.2430556" cy="17.4375" rx="1.27916667" ry="1.27591463"></ellipse>
                        </g>
                    </g>
                </g>
                <g id="Shape/triangle" transform="translate(101.730925, 190.050379) scale(1, -1) rotate(-255.000000) translate(-101.730925, -190.050379) translate(96.284024, 184.595725)">
                    <g id="color_lavanda">
                        <mask id="mask-8" fill="white">
                            <use xlink:href="#path-7"></use>
                        </mask>
                        <use id="Mask" fill="#E8E8E8" xlink:href="#path-7"></use>
                        <g id="color/Petrol" mask="url(#mask-8)" fill="#25204F">
                            <rect id="Petrol" x="0" y="0" width="10.8938021" height="10.9093087"></rect>
                        </g>
                    </g>
                </g>
                <g id="Group-5" transform="translate(532.011963, 227.408713) rotate(-165.000000) translate(-532.011963, -227.408713) translate(464.011963, 183.408713)">
                    <g id="Shape/triangle" transform="translate(63.408478, 25.095904) scale(1, -1) rotate(-255.000000) translate(-63.408478, -25.095904) translate(57.961577, 19.641250)">
                        <g id="color_lavanda">
                            <mask id="mask-10" fill="white">
                                <use xlink:href="#path-9"></use>
                            </mask>
                            <use id="Mask" fill="#E8E8E8" xlink:href="#path-9"></use>
                            <g id="color/Petrol" mask="url(#mask-10)" fill="#25204F">
                                <rect id="Petrol" x="0" y="0" width="10.8938021" height="10.9093087"></rect>
                            </g>
                        </g>
                    </g>
                    <g id="Shape/triangle" transform="translate(128.997197, 25.052288) scale(-1, 1) rotate(-165.000000) translate(-128.997197, -25.052288) translate(123.550296, 19.597633)">
                        <g id="color_lavanda">
                            <mask id="mask-12" fill="white">
                                <use xlink:href="#path-11"></use>
                            </mask>
                            <use id="Mask" fill="#E8E8E8" xlink:href="#path-11"></use>
                            <g id="color/yellow" mask="url(#mask-12)" fill="#F3D239">
                                <rect id="Yellow" x="0" y="0" width="10.8938021" height="10.9093087"></rect>
                            </g>
                        </g>
                    </g>
                    <g id="Shape/triangle" transform="translate(71.908440, 77.028619) scale(1, -1) rotate(-105.000000) translate(-71.908440, -77.028619) translate(66.461538, 71.573964)">
                        <g id="color_lavanda">
                            <mask id="mask-14" fill="white">
                                <use xlink:href="#path-13"></use>
                            </mask>
                            <use id="Mask" fill="#E8E8E8" xlink:href="#path-13"></use>
                            <g id="color/yellow" mask="url(#mask-14)" fill="#F3D239">
                                <rect id="Yellow" x="0" y="0" width="10.8938021" height="10.9093087"></rect>
                            </g>
                        </g>
                    </g>
                    <g id="Shape/triangle" transform="translate(104.287138, 54.874773) scale(1, -1) rotate(-300.000000) translate(-104.287138, -54.874773) translate(98.840237, 49.420118)">
                        <g id="color_lavanda">
                            <mask id="mask-16" fill="white">
                                <use xlink:href="#path-15"></use>
                            </mask>
                            <use id="Mask" fill="#E8E8E8" xlink:href="#path-15"></use>
                            <g id="color/clementine" mask="url(#mask-16)" fill="#EE7552">
                                <rect id="Clementine" x="0" y="0" width="10.8938021" height="10.9093087"></rect>
                            </g>
                        </g>
                    </g>
                    <g id="Shape/triangle" transform="translate(7.151043, 72.768264) scale(1, -1) rotate(-285.000000) translate(-7.151043, -72.768264) translate(1.704142, 67.313609)">
                        <g id="color_lavanda">
                            <mask id="mask-18" fill="white">
                                <use xlink:href="#path-17"></use>
                            </mask>
                            <use id="Mask" fill="#E8E8E8" xlink:href="#path-17"></use>
                            <g id="color/peach" mask="url(#mask-18)" fill="#FFAE94">
                                <rect id="Peach" x="0" y="0" width="10.8938021" height="10.9093087"></rect>
                            </g>
                        </g>
                    </g>
                    <g id="Shape/triangle" transform="translate(42.085954, 81.288974) scale(1, -1) rotate(-165.000000) translate(-42.085954, -81.288974) translate(36.639053, 75.834320)">
                        <g id="color_lavanda">
                            <mask id="mask-20" fill="white">
                                <use xlink:href="#path-19"></use>
                            </mask>
                            <use id="Mask" fill="#E8E8E8" xlink:href="#path-19"></use>
                            <g id="color/Petrol" mask="url(#mask-20)" fill="#25204F">
                                <rect id="Petrol" x="0" y="0" width="10.8938021" height="10.9093087"></rect>
                            </g>
                        </g>
                    </g>
                    <g id="Shape/triangle" transform="translate(99.954835, 6.757735) rotate(-165.000000) translate(-99.954835, -6.757735) translate(94.507934, 1.303080)">
                        <g id="color_lavanda">
                            <mask id="mask-22" fill="white">
                                <use xlink:href="#path-21"></use>
                            </mask>
                            <use id="Mask" fill="#E8E8E8" xlink:href="#path-21"></use>
                            <g id="color/cariben" mask="url(#mask-22)" fill="#4FC5D5">
                                <rect id="Cariben" x="0" y="0" width="10.8938021" height="10.9093087"></rect>
                            </g>
                        </g>
                    </g>
                    <g id="Shape/triangle" transform="translate(49.458339, 52.044867) scale(1, -1) rotate(-105.000000) translate(-49.458339, -52.044867) translate(44.011438, 46.590213)">
                        <g id="color_lavanda">
                            <mask id="mask-24" fill="white">
                                <use xlink:href="#path-23"></use>
                            </mask>
                            <use id="Mask" fill="#E8E8E8" xlink:href="#path-23"></use>
                            <g id="color/lavanda" mask="url(#mask-24)" fill="#A594F0">
                                <rect id="Lavanda" x="0" y="0" width="10.8938021" height="10.9093087"></rect>
                            </g>
                        </g>
                    </g>
                </g>
                <g id="Shape/triangle" transform="translate(128.997197, 200.275231) scale(-1, 1) rotate(-165.000000) translate(-128.997197, -200.275231) translate(123.550296, 194.820577)">
                    <g id="color_lavanda">
                        <mask id="mask-26" fill="white">
                            <use xlink:href="#path-25"></use>
                        </mask>
                        <use id="Mask" fill="#E8E8E8" xlink:href="#path-25"></use>
                        <g id="color/yellow" mask="url(#mask-26)" fill="#F3D239">
                            <rect id="Yellow" x="0" y="0" width="10.8938021" height="10.9093087"></rect>
                        </g>
                    </g>
                </g>
                <g id="Shape/triangle" transform="translate(71.541420, 252.500000) scale(1, -1) translate(-71.541420, -252.500000) translate(66.041420, 247.000000)">
                    <g id="color_lavanda">
                        <mask id="mask-28" fill="white">
                            <use xlink:href="#path-27"></use>
                        </mask>
                        <use id="Mask" fill="#E8E8E8" xlink:href="#path-27"></use>
                        <g id="color/yellow" mask="url(#mask-28)" fill="#F3D239">
                            <rect id="Yellow" x="0" y="0" width="11" height="11"></rect>
                        </g>
                    </g>
                </g>
                <g id="Shape/triangle" transform="translate(104.287138, 230.097716) scale(1, -1) rotate(-300.000000) translate(-104.287138, -230.097716) translate(98.840237, 224.643062)">
                    <g id="color_lavanda">
                        <mask id="mask-30" fill="white">
                            <use xlink:href="#path-29"></use>
                        </mask>
                        <use id="Mask" fill="#E8E8E8" xlink:href="#path-29"></use>
                        <g id="color/clementine" mask="url(#mask-30)" fill="#EE7552">
                            <rect id="Clementine" x="0" y="0" width="10.8938021" height="10.9093087"></rect>
                        </g>
                    </g>
                </g>
                <g id="Shape/triangle" transform="translate(7.151043, 247.991207) scale(1, -1) rotate(-285.000000) translate(-7.151043, -247.991207) translate(1.704142, 242.536553)">
                    <g id="color_lavanda">
                        <mask id="mask-32" fill="white">
                            <use xlink:href="#path-31"></use>
                        </mask>
                        <use id="Mask" fill="#E8E8E8" xlink:href="#path-31"></use>
                        <g id="color/peach" mask="url(#mask-32)" fill="#FFAE94">
                            <rect id="Peach" x="0" y="0" width="10.8938021" height="10.9093087"></rect>
                        </g>
                    </g>
                </g>
                <g id="Shape/triangle" transform="translate(42.085954, 256.511918) scale(1, -1) rotate(-165.000000) translate(-42.085954, -256.511918) translate(36.639053, 251.057263)">
                    <g id="color_lavanda">
                        <mask id="mask-34" fill="white">
                            <use xlink:href="#path-33"></use>
                        </mask>
                        <use id="Mask" fill="#E8E8E8" xlink:href="#path-33"></use>
                        <g id="color/Petrol" mask="url(#mask-34)" fill="#25204F">
                            <rect id="Petrol" x="0" y="0" width="10.8938021" height="10.9093087"></rect>
                        </g>
                    </g>
                </g>
                <g id="Shape/triangle" transform="translate(20.784179, 220.724935) rotate(-165.000000) translate(-20.784179, -220.724935) translate(15.337278, 215.270281)">
                    <g id="color_lavanda">
                        <mask id="mask-36" fill="white">
                            <use xlink:href="#path-35"></use>
                        </mask>
                        <use id="Mask" fill="#E8E8E8" xlink:href="#path-35"></use>
                        <g id="color/cariben" mask="url(#mask-36)" fill="#4FC5D5">
                            <rect id="Cariben" x="0" y="0" width="10.8938021" height="10.9093087"></rect>
                        </g>
                    </g>
                </g>
                <g id="Shape/triangle" transform="translate(90.654002, 216.464580) scale(1, -1) rotate(-105.000000) translate(-90.654002, -216.464580) translate(85.207101, 211.009926)">
                    <g id="color_lavanda">
                        <mask id="mask-38" fill="white">
                            <use xlink:href="#path-37"></use>
                        </mask>
                        <use id="Mask" fill="#E8E8E8" xlink:href="#path-37"></use>
                        <g id="color/lavanda" mask="url(#mask-38)" fill="#A594F0">
                            <rect id="Lavanda" x="0" y="0" width="10.8938021" height="10.9093087"></rect>
                        </g>
                    </g>
                </g>
            </g>
        </g>
    </g>
</svg>