<?xml version="1.0" encoding="UTF-8"?>
<svg width="333px" height="260px" viewBox="0 0 333 260" version="1.1" xmlns="http://www.w3.org/2000/svg" xmlns:xlink="http://www.w3.org/1999/xlink">
    <title>Minhoca</title>
    <defs>
        <path d="M186.79451,0 C209.555819,0 228.007506,18.4904426 228.007506,41.2995595 C228.007506,144.396768 144.605881,227.973568 41.7247635,227.973568 C18.9634542,227.973568 0.511767307,209.483126 0.511767307,186.674009 C0.511767307,164.092983 18.5962656,145.74469 41.0432312,145.379982 L41.7247635,145.374449 C98.5096779,145.374449 144.650463,99.7057927 145.5676,43.0206281 L145.581514,41.2995595 C145.581514,18.4904426 164.033201,0 186.79451,0 Z" id="path-1"></path>
        <path d="M32.9358756,2.20264317 C34.0904348,2.20264317 35.0263899,3.14056417 35.0263899,4.29754836 C35.0263899,9.5271169 30.7958727,13.7665198 25.5772653,13.7665198 C24.4227061,13.7665198 23.486751,12.8285988 23.486751,11.6716146 C23.486751,10.5262003 24.4040806,9.59548977 25.5426948,9.5769901 L25.5772653,9.57670944 C28.4576595,9.57670944 30.7981341,7.26018338 30.8446556,4.38484894 L30.8453613,4.29754836 C30.8453613,3.14056417 31.7813165,2.20264317 32.9358756,2.20264317 Z" id="path-3"></path>
        <path d="M5.22292994,0 C6.41894934,-2.19705201e-16 7.38851464,0.969565298 7.38851464,2.1655847 C7.38851464,2.73939979 7.16077812,3.28975786 6.75531826,3.69579487 L3.69579487,6.7596733 C2.85118091,7.60548951 1.48081651,7.60646413 0.635000297,6.76185017 C0.22844758,6.35587534 -1.84787408e-16,5.80490834 0,5.23036445 L0,5.22292994 C5.34923594e-16,2.33838538 2.33838538,5.29882238e-16 5.22292994,0 Z" id="path-5"></path>
        <path d="M5.22292994,0 C6.41894934,-2.19705201e-16 7.38851464,0.969565298 7.38851464,2.1655847 C7.38851464,2.73939979 7.16077812,3.28975786 6.75531826,3.69579487 L3.69579487,6.7596733 C2.85118091,7.60548951 1.48081651,7.60646413 0.635000297,6.76185017 C0.22844758,6.35587534 7.03613334e-17,5.80490834 0,5.23036445 L0,5.22292994 C-2.12961166e-15,2.33838538 2.33838538,5.29882238e-16 5.22292994,0 Z" id="path-7"></path>
        <path d="M5.22292994,0 C6.41894934,-2.19705201e-16 7.38851464,0.969565298 7.38851464,2.1655847 C7.38851464,2.73939979 7.16077812,3.28975786 6.75531826,3.69579487 L3.69579487,6.7596733 C2.85118091,7.60548951 1.48081651,7.60646413 0.635000297,6.76185017 C0.22844758,6.35587534 -1.84787408e-16,5.80490834 0,5.23036445 L0,5.22292994 C-3.53254825e-16,2.33838538 2.33838538,5.29882238e-16 5.22292994,0 Z" id="path-9"></path>
        <path d="M5.22292994,0 C6.41894934,-2.19705201e-16 7.38851464,0.969565298 7.38851464,2.1655847 C7.38851464,2.73939979 7.16077812,3.28975786 6.75531826,3.69579487 L3.69579487,6.7596733 C2.85118091,7.60548951 1.48081651,7.60646413 0.635000297,6.76185017 C0.22844758,6.35587534 7.03613334e-17,5.80490834 0,5.23036445 L0,5.22292994 C-3.53254825e-16,2.33838538 2.33838538,5.29882238e-16 5.22292994,0 Z" id="path-11"></path>
        <path d="M5.22292994,0 C6.41894934,-2.19705201e-16 7.38851464,0.969565298 7.38851464,2.1655847 C7.38851464,2.73939979 7.16077812,3.28975786 6.75531826,3.69579487 L3.69579487,6.7596733 C2.85118091,7.60548951 1.48081651,7.60646413 0.635000297,6.76185017 C0.22844758,6.35587534 3.25510075e-16,5.80490834 0,5.23036445 L0,5.22292994 C5.34923594e-16,2.33838538 2.33838538,5.29882238e-16 5.22292994,0 Z" id="path-13"></path>
        <path d="M5.22292994,0 C6.41894934,-2.19705201e-16 7.38851464,0.969565298 7.38851464,2.1655847 C7.38851464,2.73939979 7.16077812,3.28975786 6.75531826,3.69579487 L3.69579487,6.7596733 C2.85118091,7.60548951 1.48081651,7.60646413 0.635000297,6.76185017 C0.22844758,6.35587534 7.03613334e-17,5.80490834 0,5.23036445 L0,5.22292994 C-3.53254825e-16,2.33838538 2.33838538,5.29882238e-16 5.22292994,0 Z" id="path-15"></path>
        <circle id="path-17" cx="26.5" cy="26.5" r="26.5"></circle>
    </defs>
    <g id="Desktop" stroke="none" stroke-width="1" fill="none" fill-rule="evenodd">
        <g id="loading-+" transform="translate(-554.000000, -392.000000)">
            <g id="Minhoca" transform="translate(555.050473, 392.000000)">
                <g id="Group-26" transform="translate(32.949527, 0.000000)">
                    <g id="Group-25" transform="translate(68.138820, 0.000000)">
                        <mask id="mask-2" fill="white">
                            <use xlink:href="#path-1"></use>
                        </mask>
                        <use id="Mask" fill="#FAD100" fill-rule="nonzero" transform="translate(114.259637, 113.986784) rotate(-270.000000) translate(-114.259637, -113.986784) " xlink:href="#path-1"></use>
                        <g mask="url(#mask-2)">
                            <g transform="translate(3.030612, 70.484581)">
                                <g id="Shape/triangle" transform="translate(71.702288, 0.000000)">
                                    <path d="M37.3664499,0 C45.9272272,-1.57258929e-15 52.8671085,6.93988126 52.8671085,15.5006586 C52.8671085,19.6060542 51.2384693,23.5437778 48.3385634,26.4497747 L26.4497747,48.3845383 C20.4079981,54.4390051 10.6020553,54.4492924 4.54758852,48.4075157 C1.63614558,45.5021751 5.03708171e-16,41.5580233 0,37.4449339 L0,37.3664499 C-2.52729385e-15,16.7295295 16.7295295,3.79094078e-15 37.3664499,0 Z" id="Mask" fill="#EE7552"></path>
                                </g>
                                <g id="Shape/triangle-Copy-2" transform="translate(36.133709, 87.167318) rotate(66.000000) translate(-36.133709, -87.167318) translate(9.133709, 60.167318)">
                                    <path d="M26.6510709,0 C32.7569194,-1.12162619e-15 37.7066877,4.94976825 37.7066877,11.0556168 C37.7066877,13.9837298 36.5450848,16.7922533 34.4767695,18.8649129 L18.8649129,34.5095604 C14.5557045,38.8278198 7.56176001,38.8351571 3.24350063,34.5259487 C1.16695677,32.4537573 1.66204277e-15,29.640649 0,26.7070485 L0,26.6510709 C-1.80255518e-15,11.9320909 11.9320909,2.70383276e-15 26.6510709,0 Z" id="Mask" fill="#A594F0"></path>
                                </g>
                                <g id="Shape/triangle-Copy-4" transform="translate(132.379589, 71.155457) rotate(203.000000) translate(-132.379589, -71.155457) translate(105.379589, 43.655457)">
                                    <path d="M26.8060296,0.58954434 C32.9118782,0.58954434 37.8616465,5.53931259 37.8616465,11.6451612 C37.8616465,14.5732742 36.7000435,17.3817976 34.6317282,19.4544572 L19.0198716,35.0991048 C14.7106633,39.4173641 7.71671879,39.4247014 3.39845941,35.1154931 C1.32191555,33.0433016 0.154958778,30.2301933 0.154958778,27.2965928 L0.154958778,27.2406152 C0.154958778,12.5216352 12.0870496,0.58954434 26.8060296,0.58954434 Z" id="Mask" fill="#4FC5D5"></path>
                                </g>
                                <g id="Shape/triangle-Copy-6" transform="translate(128.206907, 154.875932) rotate(64.000000) translate(-128.206907, -154.875932) translate(101.206907, 127.875932)">
                                    <path d="M27.0422228,0.514024942 C33.1480714,0.514024942 38.0978396,5.46379319 38.0978396,11.5696418 C38.0978396,14.4977548 36.9362367,17.3062782 34.8679214,19.3789378 L19.2560648,35.0235854 C14.9468564,39.3418447 7.95291193,39.349182 3.63465255,35.0399737 C1.55810869,32.9677822 0.391151916,30.1546739 0.391151916,27.2210734 L0.391151916,27.1650958 C0.391151916,12.4461158 12.3232428,0.514024942 27.0422228,0.514024942 Z" id="Mask" fill="#25204F"></path>
                                </g>
                                <g id="Shape/triangle-Copy-5" transform="translate(209.760051, 126.344331) scale(-1, 1) rotate(383.000000) translate(-209.760051, -126.344331) translate(182.760051, 99.344331)">
                                    <g id="color_lavanda" transform="translate(0.000000, -0.000000)" fill="#FFAE94">
                                        <path d="M26.7129976,0.211502191 C32.8188462,0.211502191 37.7686144,5.16127044 37.7686144,11.267119 C37.7686144,14.195232 36.6070115,17.0037555 34.5386962,19.0764151 L18.9268396,34.7210626 C14.6176312,39.039322 7.62368677,39.0466593 3.30542739,34.7374509 C1.22888353,32.6652595 0.0619267552,29.8521511 0.0619267552,26.9185506 L0.0619267552,26.8625731 C0.0619267552,12.1435931 11.9940176,0.211502191 26.7129976,0.211502191 Z" id="Mask"></path>
                                    </g>
                                </g>
                            </g>
                        </g>
                    </g>
                    <g id="Group-32" transform="translate(48.318843, 30.837004)">
                        <path d="M18.4084716,0 C8.24175348,0 0,8.25906436 0,18.4471366 C0,28.6352088 8.24175348,36.8942731 18.4084716,36.8942731 C28.5751898,36.8942731 36.8169433,28.6352088 36.8169433,18.4471366 C36.8169433,8.25906436 28.5751898,0 18.4084716,0 Z M18.4084716,5.53414097 C25.5251743,5.53414097 31.2944018,11.315486 31.2944018,18.4471366 C31.2944018,25.5787871 25.5251743,31.3601322 18.4084716,31.3601322 C11.2917689,31.3601322 5.52254149,25.5787871 5.52254149,18.4471366 C5.52254149,11.315486 11.2917689,5.53414097 18.4084716,5.53414097 Z" id="Oval" fill="#25204F" fill-rule="nonzero"></path>
                        <path d="M36.6638685,23.1751101 C38.096648,23.1751101 39.2583269,21.9894023 39.2583269,20.5269861 C39.2583269,18.8085501 40.6290319,17.4107855 42.3126429,17.4107855 C43.9962538,17.4107855 45.365692,18.8085501 45.365692,20.5269861 C45.365692,21.9894023 46.5273708,23.1751101 47.9601503,23.1751101 C49.3929298,23.1751101 50.5546087,21.9894023 50.5546087,20.5269861 C50.5546087,15.8888901 46.8567453,12.1145374 42.3126429,12.1145374 C37.7672735,12.1145374 34.0694102,15.8888901 34.0694102,20.5269861 C34.0694102,21.9894023 35.231089,23.1751101 36.6638685,23.1751101 Z" id="Path-Copy" fill="#25204F" fill-rule="nonzero"></path>
                        <path d="M66.2155472,0 C56.0488291,0 47.8070756,8.25906436 47.8070756,18.4471366 C47.8070756,28.6352088 56.0488291,36.8942731 66.2155472,36.8942731 C76.3822654,36.8942731 84.6240188,28.6352088 84.6240188,18.4471366 C84.6240188,8.25906436 76.3822654,0 66.2155472,0 Z M66.2155472,5.53414097 C73.3322499,5.53414097 79.1014773,11.315486 79.1014773,18.4471366 C79.1014773,25.5787871 73.3322499,31.3601322 66.2155472,31.3601322 C59.0988445,31.3601322 53.3296171,25.5787871 53.3296171,18.4471366 C53.3296171,11.315486 59.0988445,5.53414097 66.2155472,5.53414097 Z" id="Oval-Copy" fill="#25204F" fill-rule="nonzero"></path>
                        <path d="M42.3120094,57.5796948 C46.8642713,57.5796948 50.5546087,53.8657045 50.5546087,49.2842652 C50.5546087,44.702826 48.6140322,49.2842652 42.3120094,49.2842652 C36.0099867,49.2842652 34.0694102,44.702826 34.0694102,49.2842652 C34.0694102,53.8657045 37.7597476,57.5796948 42.3120094,57.5796948 Z" id="Oval" fill="#D6B301"></path>
                        <path d="M66.2155472,19.8628344 C68.7951623,19.8628344 70.8863534,21.4908755 70.8863534,18.9385588 C70.8863534,16.3862421 68.7951623,14.3171806 66.2155472,14.3171806 C63.6359322,14.3171806 61.544741,16.3862421 61.544741,18.9385588 C61.544741,21.4908755 63.6359322,19.8628344 66.2155472,19.8628344 Z" id="Oval" fill="#D6B301"></path>
                        <path d="M18.4084716,19.8628344 C20.9880867,19.8628344 23.0792779,21.4908755 23.0792779,18.9385588 C23.0792779,16.3862421 20.9880867,14.3171806 18.4084716,14.3171806 C15.8288566,14.3171806 13.7376654,16.3862421 13.7376654,18.9385588 C13.7376654,21.4908755 15.8288566,19.8628344 18.4084716,19.8628344 Z" id="Oval-Copy-2" fill="#D6B301" transform="translate(18.408472, 17.345815) rotate(-360.000000) translate(-18.408472, -17.345815) "></path>
                    </g>
                    <g id="Group-30" transform="translate(43.248171, 206.550295) rotate(-40.000000) translate(-43.248171, -206.550295) translate(13.248171, 175.050295)">
                        <path d="M32.3867926,15.999132 C37.594411,14.4788254 41.9069379,14.0381518 45.4468777,14.4802888 C44.6322537,15.5584268 44.1490755,16.9040665 44.1490755,18.363306 C44.1490755,20.8643871 45.5684913,23.0317496 47.6412561,24.0931707 C47.2219428,24.9491329 46.9863686,25.9126594 46.9863686,26.9315717 C46.9863686,30.4806635 49.8445422,33.3577709 53.3702781,33.3577709 L53.3702781,33.3577709 L53.5992484,33.3537145 L53.729652,33.3466804 C54.6029091,35.8483914 56.9704781,37.6419037 59.7541876,37.6419037 C59.3458762,53.9615494 41.4763497,70.5205058 30.0808304,58.8612663 C18.0688764,70.3938622 0.407473126,53.5802957 0.407473126,37.0835911 C0.407473126,21.222984 7.66842543,9.93241905 27.6188804,15.999132 C28.4190032,16.2424405 29.1843771,16.4432594 30.0808304,16.4432594 C30.9772836,16.4432594 31.6368246,16.2180768 32.3867926,15.999132 Z" id="Combined-Shape" fill="#EE7552"></path>
                        <mask id="mask-4" fill="white">
                            <use xlink:href="#path-3"></use>
                        </mask>
                        <use id="Mask" fill="#25204F" fill-rule="nonzero" transform="translate(29.256570, 7.984581) scale(-1, 1) rotate(-210.000000) translate(-29.256570, -7.984581) " xlink:href="#path-3"></use>
                    </g>
                </g>
                <g id="Group-6-Copy" transform="translate(67.994840, 159.881383) rotate(-265.000000) translate(-67.994840, -159.881383) translate(-26.505160, 100.381383)">
                    <g id="Shape/triangle" transform="translate(7.592440, 61.639357) scale(1, -1) rotate(57.000000) translate(-7.592440, -61.639357) translate(2.369510, 56.408993)">
                        <g id="color_lavanda">
                            <mask id="mask-6" fill="white">
                                <use xlink:href="#path-5"></use>
                            </mask>
                            <use id="Mask" fill="#E8E8E8" xlink:href="#path-5"></use>
                            <g id="color/Petrol" mask="url(#mask-6)" fill="#25204F">
                                <rect id="Petrol" x="0" y="0" width="10.4458599" height="10.4607289"></rect>
                            </g>
                        </g>
                    </g>
                    <g id="Shape/triangle" transform="translate(46.765842, 91.694755) scale(1, -1) rotate(-165.000000) translate(-46.765842, -91.694755) translate(41.542912, 86.464390)">
                        <g id="color_lavanda">
                            <mask id="mask-8" fill="white">
                                <use xlink:href="#path-7"></use>
                            </mask>
                            <use id="Mask" fill="#E8E8E8" xlink:href="#path-7"></use>
                            <g id="color/peach" mask="url(#mask-8)" fill="#FFAE94">
                                <rect id="Peach" x="0" y="0" width="10.4458599" height="10.4607289"></rect>
                            </g>
                        </g>
                    </g>
                    <g id="Shape/triangle" transform="translate(181.364333, 69.610597) scale(1, -1) rotate(57.000000) translate(-181.364333, -69.610597) translate(176.141403, 64.380233)">
                        <g id="color_lavanda">
                            <mask id="mask-10" fill="white">
                                <use xlink:href="#path-9"></use>
                            </mask>
                            <use id="Mask" fill="#E8E8E8" xlink:href="#path-9"></use>
                            <g id="color/yellow" mask="url(#mask-10)" fill="#F3D239">
                                <rect id="Yellow" x="0" y="0" width="10.4458599" height="10.4607289"></rect>
                            </g>
                        </g>
                    </g>
                    <g id="Shape/triangle" transform="translate(174.152866, 85.472986) scale(1, -1) rotate(-30.000000) translate(-174.152866, -85.472986) translate(168.929936, 80.242622)">
                        <g id="color_lavanda">
                            <mask id="mask-12" fill="white">
                                <use xlink:href="#path-11"></use>
                            </mask>
                            <use id="Mask" fill="#E8E8E8" xlink:href="#path-11"></use>
                            <g id="color/clementine" mask="url(#mask-12)" fill="#EE7552">
                                <rect id="Clementine" x="0" y="0" width="10.4458599" height="10.4607289"></rect>
                            </g>
                        </g>
                    </g>
                    <g id="Shape/triangle" transform="translate(160.418506, 6.859781) scale(1, -1) rotate(-165.000000) translate(-160.418506, -6.859781) translate(155.195576, 1.629416)">
                        <g id="color_lavanda">
                            <mask id="mask-14" fill="white">
                                <use xlink:href="#path-13"></use>
                            </mask>
                            <use id="Mask" fill="#E8E8E8" xlink:href="#path-13"></use>
                            <g id="color/peach" mask="url(#mask-14)" fill="#FFAE94">
                                <rect id="Peach" x="0" y="0" width="10.4458599" height="10.4607289"></rect>
                            </g>
                        </g>
                    </g>
                    <g id="Shape/triangle" transform="translate(177.933249, 112.414343) scale(1, -1) rotate(-165.000000) translate(-177.933249, -112.414343) translate(172.710319, 107.183978)">
                        <g id="color_lavanda">
                            <mask id="mask-16" fill="white">
                                <use xlink:href="#path-15"></use>
                            </mask>
                            <use id="Mask" fill="#E8E8E8" xlink:href="#path-15"></use>
                            <g id="color/cariben" mask="url(#mask-16)" fill="#4FC5D5">
                                <rect id="Cariben" x="0" y="0" width="10.4458599" height="10.4607289"></rect>
                            </g>
                        </g>
                    </g>
                </g>
                <g id="Combined-Shape" transform="translate(73.949527, 154.000000)">
                    <mask id="mask-18" fill="white">
                        <use xlink:href="#path-17"></use>
                    </mask>
                    <use id="Mask" fill="#FFFFFF" xlink:href="#path-17"></use>
                    <path d="M14.5540328,19.2606281 C21.253782,17.3165247 26.7994958,16.755977 31.3494575,17.3262142 L31.3820825,17.3303257 C30.2709509,18.7210064 29.6070157,20.4820785 29.6070157,22.3976298 C29.6070157,25.567585 31.4252269,28.3144932 34.0788351,29.6580812 C33.5417975,30.7428467 33.2400802,31.9639571 33.2400802,33.2552687 C33.2400802,37.75265 36.8998816,41.3984978 41.4144754,41.3984978 L41.4144754,41.3984978 L41.6643889,41.3947647 L41.8752214,41.3860853 C42.993867,44.555377 46.0250333,46.8273173 49.5888705,46.8273173 C49.6193023,46.8273173 49.6496951,46.8271516 49.6800483,46.8268212 C49.2003188,67.6671154 26.2347365,88.8427352 11.5937089,73.9533608 C-3.82687084,88.6691279 -26.5000411,67.2147624 -26.5000411,46.1647174 C-26.5000411,25.9263424 -17.1786522,11.5194104 8.4331327,19.2606281 C9.46030596,19.5710934 10.4428696,19.8273413 11.5937089,19.8273413 C12.7445483,19.8273413 13.5912468,19.540005 14.5540328,19.2606281 Z" fill="#EE7552" mask="url(#mask-18)" transform="translate(11.590004, 48.031102) rotate(-30.000000) translate(-11.590004, -48.031102) "></path>
                </g>
                <path d="M144.764839,218.217483 L126.142371,199.344392 C136.368101,186.200632 135.536741,166.990521 123.565154,154.85782 C110.595936,141.71406 89.5625234,141.71406 76.6764408,154.85782 C63.7072222,167.917325 63.7072222,189.233807 76.6764408,202.377567 C88.6480272,214.510269 107.603039,215.352817 120.572258,204.989468 L139.194725,223.862559 C140.691174,225.379147 143.185254,225.379147 144.764839,223.862559 C146.344423,222.345972 146.344423,219.818325 144.764839,218.217483 Z M82.2465539,196.732491 C72.3533679,186.706161 72.3533679,170.444971 82.2465539,160.502896 C92.0566039,150.476567 108.101855,150.476567 117.995041,160.502896 C127.888227,170.529226 127.888227,186.790416 117.995041,196.732491 C108.101855,206.75882 92.0566039,206.75882 82.2465539,196.732491 Z" id="Shape" fill="#4FC5D5" fill-rule="nonzero"></path>
            </g>
        </g>
    </g>
</svg>