<?xml version="1.0" encoding="UTF-8"?>
<svg width="13px" height="38px" viewBox="0 0 13 38" version="1.1" xmlns="http://www.w3.org/2000/svg" xmlns:xlink="http://www.w3.org/1999/xlink">
    <!-- Generator: Sketch 61 (89581) - https://sketch.com -->
    <title>Shape 2</title>
    <desc>Created with Sketch.</desc>
    <g id="final-mobile" stroke="none" stroke-width="1" fill="none" fill-rule="evenodd">
        <g id="Results-A-2" transform="translate(-218.000000, -711.000000)" fill="#25204F" fill-rule="nonzero">
            <g id="Shape-2" transform="translate(218.000000, 711.192000)">
                <path d="M7.782,10.709 C10.062,10.053 11.737,7.952 11.737,5.463 C11.737,2.45 9.287,-8.52651283e-14 6.275,-8.52651283e-14 C3.262,-8.52651283e-14 0.812,2.45 0.812,5.463 C0.812,7.951 2.486,10.052 4.766,10.709 C2.034,11.387 -8.08242362e-14,13.852 -8.08242362e-14,16.79 L-8.08242362e-14,25.245 L1.479,25.245 L2.299,25.245 L2.299,37.209 L5.258,37.209 L5.258,25.245 L7.287,25.245 L7.287,37.209 L10.246,37.209 L10.246,25.245 L11.066,25.245 L12.5450015,25.245 L12.5450015,16.79 C12.547,13.852 10.513,11.387 7.782,10.709 Z M6.275,7.967 C4.893,7.967 3.771,6.844 3.771,5.464 C3.771,4.083 4.893,2.961 6.275,2.961 C7.655,2.961 8.778,4.083 8.778,5.464 C8.778,6.844 7.655,7.967 6.275,7.967 Z" id="Shape"></path>
            </g>
        </g>
    </g>
</svg>