<?xml version="1.0" encoding="UTF-8"?>
<svg width="13px" height="38px" viewBox="0 0 13 38" version="1.1" xmlns="http://www.w3.org/2000/svg" xmlns:xlink="http://www.w3.org/1999/xlink">
    <!-- Generator: Sketch 61 (89581) - https://sketch.com -->
    <title>Shape Copy 12</title>
    <desc>Created with Sketch.</desc>
    <g id="final-mobile" stroke="none" stroke-width="1" fill="none" fill-rule="evenodd">
        <g id="Results-A-2" transform="translate(-104.000000, -711.000000)" fill="#25204F" fill-rule="nonzero">
            <g id="Shape-Copy-12" transform="translate(104.000000, 711.192000)">
                <path d="M7.781,10.709 C10.061,10.053 11.736,7.952 11.736,5.463 C11.736,2.45 9.286,-8.8817842e-14 6.274,-8.8817842e-14 C3.262,-8.8817842e-14 0.812,2.45 0.812,5.463 C0.812,7.951 2.486,10.052 4.766,10.709 C2.034,11.387 2.39808173e-13,13.852 2.39808173e-13,16.79 L2.39808173e-13,25.25 L2.301,25.25 L2.301,37.209 L5.259,37.209 L5.259,25.25 L2.959,25.25 L2.959,16.79 C2.959,14.963 4.446,13.477 6.273,13.477 C8.1,13.477 9.588,14.963 9.588,16.79 L9.588,25.25 L7.288,25.25 L7.288,37.209 L10.247,37.209 L10.247,25.246 L12.547,25.246 L12.547,16.79 C12.545,13.852 10.513,11.387 7.781,10.709 Z M3.77,5.463 C3.77,4.082 4.893,2.96 6.273,2.96 C7.653,2.96 8.776,4.082 8.776,5.463 C8.776,6.843 7.653,7.96600067 6.273,7.96600067 C4.893,7.967 3.77,6.844 3.77,5.463 Z" id="Shape-Copy-3"></path>
            </g>
        </g>
    </g>
</svg>