<?xml version="1.0" encoding="UTF-8"?>
<svg width="16px" height="38px" viewBox="0 0 16 38" version="1.1" xmlns="http://www.w3.org/2000/svg" xmlns:xlink="http://www.w3.org/1999/xlink">
    <!-- Generator: Sketch 61 (89581) - https://sketch.com -->
    <title>Shape Copy 13</title>
    <desc>Created with Sketch.</desc>
    <g id="final-mobile" stroke="none" stroke-width="1" fill="none" fill-rule="evenodd">
        <g id="Results-A-2" transform="translate(-188.000000, -711.000000)" fill="#25204F" fill-rule="nonzero">
            <g id="Shape-Copy-13" transform="translate(188.000000, 711.310000)">
                <path d="M13.232,20.457 L13.232,15.794 C13.232,13.363 11.582,11.331 9.35,10.702 C11.663,10.072 13.371,7.959 13.371,5.448 C13.371,2.444 10.926,-2.84217094e-13 7.922,-2.84217094e-13 C4.918,-2.84217094e-13 2.472,2.444 2.472,5.448 C2.472,6.3 2.674,7.103 3.024,7.822 C2.854,7.731 2.646,7.666 2.374,7.658 C1.049,7.617 0.341,9.677 -5.59552404e-14,10.226 C0.953,10.777 3.666,10.838 3.666,8.95 C3.666,8.925 3.664,8.884 3.659,8.833 C4.372,9.729 5.359,10.393 6.493,10.702 C4.261,11.331 2.61,13.363 2.61,15.794 L2.613,20.422 L0.281,29.441 L3.957,29.441 L3.957,37.091 L6.916,37.091 L6.916,29.441 L8.928,29.441 L8.928,37.091 L11.887,37.091 L11.887,29.441 L15.562,29.441 L13.232,20.457 Z M5.444,5.579 C6.132,5.296 7.041,4.816 7.813,4.069 C8.491,4.633 9.379,5.103 10.39,5.231 C10.396,5.304 10.412,5.375 10.412,5.449 C10.412,6.822 9.295,7.94 7.922,7.94 C6.593,7.94 5.513,6.891 5.444,5.579 Z M4.105,26.483 L5.51,21.058 L5.568,15.795 C5.568,14.498 6.623,13.442 7.92,13.442 C9.217,13.442 10.273,14.498 10.273,15.795 L10.276,20.602 L11.737,26.483 L4.105,26.483 Z" id="Shape-Copy-2"></path>
            </g>
        </g>
    </g>
</svg>