<?xml version="1.0" encoding="UTF-8"?>
<svg width="16px" height="38px" viewBox="0 0 16 38" version="1.1" xmlns="http://www.w3.org/2000/svg" xmlns:xlink="http://www.w3.org/1999/xlink">
    <!-- Generator: Sketch 61 (89581) - https://sketch.com -->
    <title>Shape Copy 11</title>
    <desc>Created with Sketch.</desc>
    <g id="final-mobile" stroke="none" stroke-width="1" fill="none" fill-rule="evenodd">
        <g id="Results-A-2" transform="translate(-74.000000, -711.000000)" fill="#25204F" fill-rule="nonzero">
            <g id="Shape-Copy-11" transform="translate(74.000000, 711.311000)">
                <path d="M13.231,15.794 C13.231,13.363 11.581,11.331 9.349,10.702 C11.662,10.072 13.37,7.959 13.37,5.448 C13.37,2.444 10.926,1.70530257e-13 7.921,1.70530257e-13 C4.916,1.70530257e-13 2.472,2.444 2.472,5.448 C2.472,6.3 2.674,7.103 3.024,7.822 C2.854,7.731 2.646,7.666 2.374,7.658 C1.049,7.617 0.341,9.677 -4.61852778e-14,10.226 C0.953,10.777 3.666,10.838 3.666,8.95 C3.666,8.925 3.664,8.884 3.659,8.833 C4.371,9.729 5.359,10.393 6.493,10.702 C4.262,11.331 2.611,13.363 2.611,15.794 L2.614,20.422 L0.282,29.441 L3.958,29.441 L3.958,37.091 L6.917,37.091 L6.917,29.441 L8.929,29.441 L8.929,37.091 L11.888,37.091 L11.888,29.441 L15.562,29.441 L13.234,20.457 L13.234,15.794 L13.231,15.794 Z M7.92,7.939 C6.591,7.939 5.512,6.89 5.443,5.578 C6.131,5.295 7.04,4.815 7.812,4.068 C8.491,4.632 9.378,5.102 10.389,5.23 C10.395,5.303 10.411,5.374 10.411,5.448 C10.41,6.821 9.293,7.939 7.92,7.939 Z" id="Shape-Copy-5"></path>
            </g>
        </g>
    </g>
</svg>