<?xml version="1.0" encoding="UTF-8"?>
<svg width="28px" height="76px" viewBox="0 0 28 76" version="1.1" xmlns="http://www.w3.org/2000/svg" xmlns:xlink="http://www.w3.org/1999/xlink">
    <!-- Generator: Sketch 61 (89581) - https://sketch.com -->
    <title>Group 20</title>
    <desc>Created with Sketch.</desc>
    <g id="final-mobile" stroke="none" stroke-width="1" fill="none" fill-rule="evenodd">
        <g id="Results-A-2" transform="translate(-36.000000, -673.000000)" fill="#25204F" fill-rule="nonzero">
            <g id="Group-20" transform="translate(36.000000, 673.532000)">
                <g id="Group-19">
                    <path d="M22.657,39.437 L22.657,29.309 C22.657,23.356 17.813,18.514 11.859,18.514 C5.908,18.514 1.064,23.357 1.064,29.309 L1.064,39.437 L3.894,39.437 L2.71782596e-13,59.89 L7.488,59.89 L7.488,74.87 L10.447,74.87 L10.447,59.89 L13.406,59.89 L13.406,74.87 L16.365,74.87 L16.365,59.89 L23.717,59.89 L19.825,39.437 L22.657,39.437 Z M11.86,21.472 C12.362,21.472 12.851,21.524 13.327,21.615 C13.254,22.363 12.629,22.952 11.861,22.952 C11.094,22.952 10.469,22.363 10.397,21.615 C10.871,21.524 11.359,21.472 11.86,21.472 Z M19.698,39.364 L4.024,39.364 L4.024,29.309 C4.024,26.548 5.463,24.121 7.626,22.725 C8.171,24.559 9.852,25.91 11.861,25.91 C13.87,25.91 15.552,24.56 16.097,22.726 C18.26,24.122 19.699,26.549 19.699,29.309 L19.699,39.364 L19.698,39.364 Z" id="Shape"></path>
                    <path d="M26.523,10.323 C25.562,8.967 23.954,6.698 21.584,6.698 C21.363,6.698 21.139,6.718 20.913,6.761 C20.79,6.785 20.693,6.83 20.579,6.861 C19.569,2.923 15.999,-5.5067062e-14 11.751,-5.5067062e-14 C6.72,-5.5067062e-14 2.628,4.092 2.628,9.122 C2.628,14.153 6.721,18.245 11.751,18.245 C15.138,18.245 18.093,16.386 19.667,13.638 C20.4,14.102 21.32,14.365 22.405,14.365 C23.99,14.365 25.734,13.813 26.743,12.99 L27.926,12.028 L26.929,10.876 C26.822,10.75 26.686,10.554 26.523,10.323 Z M13.733,3.292 C14.854,3.674 15.831,4.368 16.558,5.274 C15.241,5.135 13.98,4.752 13.178,4.4 C13.397,3.983 13.578,3.616 13.733,3.292 Z M5.586,9.122 C5.586,6.133 7.726,3.636 10.554,3.077 C9.288,5.481 7.423,8.089 5.59,9.209 C5.59,9.18 5.586,9.152 5.586,9.122 Z M11.751,15.286 C9.445,15.286 7.433,14.011 6.376,12.131 C8.514,11.124 10.327,9 11.674,6.953 C13.221,7.718 15.486,8.28 17.569,8.28 C17.664,8.28 17.755,8.271 17.849,8.269 C17.888,8.549 17.915,8.832 17.915,9.122 C17.915,12.522 15.15,15.286 11.751,15.286 Z M22.405,11.406 C21.002,11.406 20.895,10.748 20.852,10.474 C20.759,9.804 21.221,9.715 21.47,9.667 C21.507,9.66 21.546,9.656 21.583,9.656 C22.187,9.656 22.967,10.516 23.544,11.264 C23.192,11.35 22.804,11.406 22.405,11.406 Z" id="Shape"></path>
                </g>
            </g>
        </g>
    </g>
</svg>