<svg xmlns="http://www.w3.org/2000/svg" width="35" height="35" fill="none" viewBox="0 0 35 35">
    <path fill="#25204F" fill-rule="evenodd" d="M17.5 0C7.835 0 0 7.835 0 17.5S7.835 35 17.5 35 35 27.165 35 17.5 27.165 0 17.5 0zm-.487 14.83l-.037-.606c-.11-1.57.857-3.003 2.387-3.559.563-.198 1.518-.222 2.142-.05.245.075.71.322 1.04.544l.6.408.661-.21c.367-.111.857-.296 1.078-.42.208-.111.391-.173.391-.136 0 .21-.453.927-.832 1.322-.514.557-.367.606.673.235.624-.21.637-.21.514.025-.073.124-.453.556-.857.951-.685.68-.722.754-.722 1.323 0 .877-.416 2.706-.832 3.707-.771 1.878-2.424 3.819-4.077 4.795-2.325 1.372-5.422 1.718-8.03.915-.869-.272-2.362-.964-2.362-1.088 0-.037.453-.087 1.004-.099 1.15-.025 2.301-.346 3.28-.914l.661-.396-.759-.26c-1.077-.37-2.044-1.223-2.289-2.026-.073-.26-.049-.272.637-.272l.71-.012-.6-.285c-.71-.358-1.359-.963-1.677-1.581-.233-.445-.526-1.57-.44-1.656.024-.037.28.037.575.136.844.309.954.234.465-.285-.918-.939-1.2-2.335-.76-3.658l.209-.593.808.804c1.652 1.619 3.599 2.582 5.827 2.867l.612.074z" clip-rule="evenodd"/>
</svg>
