<svg xmlns="http://www.w3.org/2000/svg" width="30" height="31" viewBox="0 0 30 31">
    <g fill="none" fill-rule="evenodd" stroke="#1AA3B5" transform="translate(0 1)">
        <g stroke-width="1.1" transform="translate(5.77 10.385)">
            <path d="M16.596.315H2.946c-.406 0-.777.156-1.054.413s-.461.615-.492 1.019L.69 4.382c-.37.124-.68.359-.898.66-.218.303-.343.672-.343 1.063v.972c.007.437.187.821.472 1.097s.675.443 1.103.436l3.279-.055c.03-.367.228-.685.516-.88.188-.128.416-.202.66-.202.239 0 .46.07.646.192.286.187.487.495.528.852l6.324-.103c.067-.324.267-.6.54-.768.18-.11.39-.173.617-.173.219 0 .424.06.6.164.27.16.472.426.548.74l1.339-.022c.423-.007.804-.183 1.08-.463.275-.28.444-.664.444-1.087v-4.94c0-.428-.173-.815-.454-1.096-.28-.28-.668-.454-1.096-.454z"/>
            <circle cx="5.481" cy="8.654" r="1.181"/>
            <circle cx="14.135" cy="8.654" r="1.181"/>
            <path stroke-linecap="square" d="M1.587 3.894L17.163 3.894M6.779 3.029L6.779.433M12.404 3.029L12.404.433"/>
        </g>
        <circle cx="15" cy="15" r="13.296" stroke-width="1.1"/>
        <path stroke-linecap="square" d="M5.769 24.289L24.009 6.049"/>
    </g>
</svg>
