<svg xmlns="http://www.w3.org/2000/svg" width="30" height="31" viewBox="0 0 30 31">
    <g fill="#1AA3B5">
        <path d="M26.274 5.192c-1.64 0-2.98 1.34-2.98 2.981 0 1.64 1.34 2.98 2.98 2.98s2.98-1.34 2.98-2.98-1.34-2.98-2.98-2.98zm0 1.154c1.004 0 1.827.824 1.827 1.827 0 1.004-.823 1.827-1.827 1.827-1.003 0-1.827-.823-1.827-1.827 0-1.003.824-1.827 1.827-1.827zM26.274 11.202c1.098 0 2.188.195 3.207.578.299.111.45.444.338.742-.112.299-.444.45-.743.338-.89-.334-1.842-.504-2.802-.504-4.131 0-7.236 2.87-7.236 6.634 0 .343.283.625.625.625.343 0 .625-.282.626-.604-.068-1.892 1.002-3.669 2.714-4.559.355-.184.773.039.835.415l.008.097v9.435c0 .319-.258.577-.577.577-.283 0-.519-.204-.567-.473l-.01-.104v-8.333l-.09.083c-.707.687-1.134 1.62-1.16 2.612v.23c0 .98-.799 1.778-1.779 1.778-.98 0-1.778-.799-1.778-1.779 0-4.422 3.64-7.788 8.389-7.788zM4.159 5.192c1.64 0 2.98 1.34 2.98 2.981 0 1.64-1.34 2.98-2.98 2.98-1.641 0-2.981-1.34-2.981-2.98s1.34-2.98 2.98-2.98zm0 1.154c-1.004 0-1.827.824-1.827 1.827 0 1.004.823 1.827 1.827 1.827 1.003 0 1.827-.823 1.827-1.827 0-1.003-.824-1.827-1.827-1.827zM4.159 11.202c-1.098 0-2.188.195-3.208.578-.298.111-.45.444-.337.742.112.299.444.45.743.338.89-.334 1.841-.504 2.802-.504 4.131 0 7.235 2.87 7.235 6.634 0 .343-.282.625-.625.625-.342 0-.625-.282-.625-.604.068-1.892-1.002-3.669-2.714-4.559-.355-.184-.773.039-.835.415l-.008.097v9.435c0 .319.258.577.577.577.283 0 .518-.204.567-.473l.01-.104v-8.333l.09.083c.707.687 1.134 1.62 1.16 2.612v.23c0 .98.799 1.778 1.778 1.778.98 0 1.78-.799 1.78-1.779 0-4.422-3.641-7.788-8.39-7.788zM15.23 7.615h-4.423l1.058-1.058c.18-.18.18-.472 0-.652-.18-.18-.472-.18-.653 0L9.366 7.75c-.18.18-.18.472 0 .652l1.846 1.846c.09.09.208.136.327.136.118 0 .236-.046.326-.136.18-.18.18-.472 0-.652l-1.058-1.058h4.424c.255 0 .461-.207.461-.462s-.206-.462-.461-.462z" transform="translate(0 1)"/>
        <path d="M15.462 7.615h4.424l-1.058-1.058c-.18-.18-.18-.472 0-.652.18-.18.472-.18.652 0l1.846 1.846c.18.18.18.472 0 .652L19.48 10.25c-.09.09-.208.136-.326.136-.118 0-.236-.046-.326-.136-.18-.18-.18-.472 0-.652l1.058-1.058h-4.424c-.256 0-.462-.207-.462-.462s.206-.462.462-.462z" transform="translate(0 1)"/>
    </g>
</svg>
