<svg xmlns="http://www.w3.org/2000/svg" width="30" height="31" viewBox="0 0 30 31">
    <path fill="#1AA3B5" fill-rule="evenodd" d="M11.241 24.077c-1.003 1.003-2.54 1.148-3.696.433l-3.32 3.32c-.451.451-1.182.451-1.632 0-.451-.45-.451-1.18 0-1.631l3.32-3.321c-.715-1.157-.57-2.693.433-3.696L21.685 3.843c1.171-1.171 3.07-1.171 4.242 0l.653.653c1.171 1.171 1.171 3.071 0 4.243L11.24 24.077zM22.174 4.985L7.488 19.672c-.901.9-.901 2.362 0 3.263.901.901 2.362.901 3.264 0l2.447-2.448-1.278-1.278c-.195-.195-.195-.512 0-.707l.109-.109c.195-.195.512-.195.707 0l1.278 1.278 1.631-1.63-1.277-1.28c-.196-.195-.196-.511 0-.707l.108-.108c.196-.196.512-.196.708 0l1.277 1.278 1.632-1.632-1.278-1.278c-.195-.195-.195-.512 0-.707l.11-.11c.194-.194.511-.194.706 0l1.278 1.28 1.631-1.632-1.277-1.279c-.195-.195-.195-.512 0-.707l.109-.109c.195-.195.512-.195.707 0l1.277 1.279 1.632-1.632-1.277-1.279c-.196-.195-.196-.511 0-.707l.109-.108c.195-.196.511-.196.707 0l1.277 1.278 1.633-1.632c.9-.901.9-2.362 0-3.264-.902-.9-2.363-.9-3.264 0z"/>
</svg>
