<svg xmlns="http://www.w3.org/2000/svg" width="30" height="31" viewBox="0 0 30 31">
    <g fill="#1AA3B5" fill-rule="evenodd" transform="translate(3.462 3.308)">
        <path fill-rule="nonzero" d="M9.23 0c5.099 0 9.232 4.133 9.232 9.23 0 5.099-4.133 9.232-9.231 9.232S0 14.329 0 9.23 4.133 0 9.23 0zm0 1.385c-4.333 0-7.845 3.512-7.845 7.846 0 4.333 3.512 7.846 7.846 7.846 4.333 0 7.846-3.513 7.846-7.846 0-4.334-3.513-7.846-7.846-7.846zM22.615 10.385c0 5.041-3.078 9.502-7.66 11.348l-.315.121-.481-1.298c4.113-1.527 6.932-5.404 7.067-9.838l.005-.333h1.384z"/>
        <path fill-rule="nonzero" d="M13.846 19.615c.637 0 1.154.517 1.154 1.154v3.462c0 .637-.517 1.154-1.154 1.154h-9.23c-.638 0-1.154-.517-1.154-1.154v-3.462c0-.637.516-1.154 1.153-1.154h9.231zM13.616 21h-8.77v3h8.77v-3z"/>
        <circle cx="9.231" cy="9.231" r="1.154"/>
        <circle cx="21.923" cy="9.231" r="2.308"/>
    </g>
</svg>
