<svg xmlns="http://www.w3.org/2000/svg" width="30" height="30" viewBox="0 0 30 30">
    <g fill="#1AA3B5">
        <path d="M12.692.725c6.61 0 11.967 5.358 11.967 11.967 0 6.61-5.357 11.967-11.967 11.967C6.083 24.66.725 19.302.725 12.692.725 6.083 6.083.725 12.692.725zm0 1.27c-5.908 0-10.697 4.79-10.697 10.697 0 5.909 4.79 10.698 10.697 10.698 5.909 0 10.698-4.79 10.698-10.698S18.6 1.995 12.692 1.995z" transform="translate(2.308 2.308)"/>
        <path d="M12.692 5.53c.316 0 .577.23.627.532l.008.103v6.298L15.9 15.55c.2.24.192.582 0 .813l-.082.08c-.239.2-.582.193-.813 0l-.08-.08-2.867-3.44V6.164c0-.35.284-.635.634-.635z" transform="translate(2.308 2.308)"/>
    </g>
</svg>
