<svg xmlns="http://www.w3.org/2000/svg" width="30" height="30" viewBox="0 0 30 30">
    <path fill="#1AA3B5" d="M25.326 4.23c1.31.002 2.383 1.012 2.475 2.291l.007.176V20.67c.003.53-.207 1.04-.583 1.415-.329.329-.761.532-1.221.577l-.199.01h-7.422l1.62 3.971c.082.201.059.43-.063.61-.102.149-.26.249-.436.278l-.107.008H10.6c-.218 0-.421-.107-.543-.287-.101-.15-.135-.333-.095-.506l.032-.103 1.322-3.233.3-.75H4.195c-.99 0-1.812-.713-1.974-1.65l-.021-.168-.008-.171V6.697c.002-1.302 1.018-2.368 2.305-2.46l.177-.006h20.652zm-7.61 19.841h-5.43l-.106.072-.883 2.166.107.159h7.192l.107-.159-.88-2.166-.107-.072zm-.668-1.634h-4.096l-.106.072-.232.56.107.16h4.558l.107-.16-.232-.56-.106-.072zm9.448-3.159H3.503v1.262c0 .413.26.75.59.807l.102.009h21.61c.344 0 .634-.3.684-.695l.008-.12-.001-1.263zm-1.17-13.743H4.674c-.601 0-1.095.438-1.163 1l-.008.133v11.327h22.993V6.668c0-.25-.085-.491-.24-.688l-.101-.112c-.22-.213-.518-.333-.83-.333z"/>
</svg>
