<svg xmlns="http://www.w3.org/2000/svg" width="30" height="31" viewBox="0 0 30 31">
    <g fill="#1AA3B5">
        <path d="M22.385 3.808H7.615c-2.1 0-3.807 1.707-3.807 3.807v14.77c0 2.1 1.707 3.807 3.807 3.807h14.77c2.1 0 3.807-1.708 3.807-3.807V7.615c0-2.1-1.708-3.807-3.807-3.807zM7.615 4.962h14.77c1.462 0 2.653 1.19 2.653 2.653v14.77c0 1.462-1.19 2.653-2.653 2.653H7.615c-1.462 0-2.653-1.19-2.653-2.653V7.615c0-1.463 1.19-2.653 2.653-2.653z" transform="translate(0 1)"/>
        <path d="M11.634 12.828c-.18-.18-.472-.18-.653 0-.18.18-.18.472 0 .652l1.059 1.058H7.615c-.254 0-.461.207-.461.462s.207.462.461.462h4.425L10.98 16.52c-.18.18-.18.472 0 .652.09.09.209.136.327.136.118 0 .236-.046.326-.136l1.846-1.846c.18-.18.18-.472 0-.652l-1.846-1.846zM22.385 14.538H17.96l1.059-1.058c.18-.18.18-.472 0-.652-.18-.18-.473-.18-.653 0l-1.846 1.846c-.18.18-.18.472 0 .652l1.846 1.846c.09.09.208.136.326.136.118 0 .237-.046.327-.136.18-.18.18-.472 0-.652l-1.059-1.058h4.425c.255 0 .461-.207.461-.462s-.206-.462-.461-.462z" transform="translate(0 1)"/>
    </g>
</svg>
