<svg xmlns="http://www.w3.org/2000/svg" width="30" height="31" viewBox="0 0 30 31">
    <g fill="#1AA3B5">
        <path d="M21.845 10.389c2.1-3.823 4.583-5.024 5.755-2.678.904 1.81.291 5.075-1.687 8.405-.309 2.045-2.035 6.53-2.671 7.135-1.532 1.423-5.49 2.71-8.258 2.71-2.802 0-6.694-1.265-8.273-2.719-.626-.6-2.226-4.901-2.596-7.108-1.987-3.336-2.604-6.609-1.698-8.423 1.17-2.344 3.65-1.147 5.75 2.668l1.036-.372c2.744-.968 4.217-1.353 5.78-1.353 1.16 0 2.381.264 3.998.794l.162.054 2.328.807.354.12zm-6.861-.581c-1.455 0-2.923.403-5.789 1.426l-.283.104c-.362.132-.663.238-.929.328l-.552.177c-1.075.327-2.239 2.119-2.239 3.53 0 .66.315 1.932.82 3.423l.229.65c.52 1.443 1.142 2.842 1.26 2.955 1.337 1.232 4.951 2.407 7.483 2.407 2.497 0 6.174-1.196 7.468-2.398.12-.114.743-1.47 1.268-2.861l.118-.319c.579-1.577.953-2.942.968-3.634.041-1.27-.908-3.018-1.867-3.575l-.18-.094c-.06-.028-.123-.051-.183-.068-.374-.097-.536-.14-.985-.29l-1.906-.66c-.445-.157-.747-.26-1.064-.364l-.37-.119c-1.326-.415-2.342-.618-3.267-.618zm11.584-1.581c-.551-1.103-1.99-.421-3.621 2.54.162.05.32.118.497.217l.21.128c.89.597 1.672 1.748 2.056 2.933 1.154-2.448 1.445-4.643.858-5.818zm-23.119 0c-.581 1.164-.302 3.327.824 5.747.478-1.477 1.614-2.868 2.823-3.235l-.035.01C5.433 7.804 3.999 7.127 3.449 8.228z" transform="translate(0 1)"/>
        <path d="M15.007 21.013c-2.12 0-4.15-.174-5.882-.497-.313-.058-.52-.36-.461-.673.058-.313.36-.52.672-.461 1.66.309 3.62.477 5.671.477 2.032 0 3.973-.165 5.622-.468.313-.058.614.15.672.463.057.313-.15.614-.463.672-1.721.316-3.731.487-5.83.487zM15.007 17.551c-2.12 0-4.15-.174-5.882-.497-.313-.058-.52-.36-.461-.672.058-.314.36-.52.672-.462 1.66.31 3.62.478 5.671.478 2.032 0 3.973-.165 5.622-.469.313-.057.614.15.672.463.057.314-.15.614-.463.672-1.721.317-3.731.487-5.83.487z" transform="translate(0 1)"/>
    </g>
</svg>
