<svg xmlns="http://www.w3.org/2000/svg" width="30" height="31" viewBox="0 0 30 31">
    <g fill="#1AA3B5">
        <path d="M15 8.077c3.824 0 6.923 3.1 6.923 6.923 0 3.824-3.1 6.923-6.923 6.923-3.824 0-6.923-3.1-6.923-6.923 0-3.824 3.1-6.923 6.923-6.923zm0 1.385c-3.059 0-5.538 2.48-5.538 5.538 0 3.059 2.48 5.538 5.538 5.538 3.059 0 5.538-2.48 5.538-5.538 0-3.059-2.48-5.538-5.538-5.538z" transform="translate(0 1)"/>
        <g>
            <path d="M.577-.115c.344 0 .63.25.683.58l.01.112v3.461c0 .383-.31.693-.693.693-.344 0-.63-.251-.683-.58l-.01-.113V.577c0-.382.31-.692.693-.692zM.577 21.808c.344 0 .63.25.683.58l.01.112v3.462c0 .382-.31.692-.693.692-.344 0-.63-.251-.683-.58l-.01-.112V22.5c0-.382.31-.692.693-.692z" transform="translate(0 1) translate(14.423 1.73)"/>
        </g>
        <g>
            <path d="M.577-.115c.344 0 .63.25.683.58l.01.112v3.461c0 .383-.31.693-.693.693-.344 0-.63-.251-.683-.58l-.01-.113V.577c0-.382.31-.692.693-.692zM.577 21.808c.344 0 .63.25.683.58l.01.112v3.462c0 .382-.31.692-.693.692-.344 0-.63-.251-.683-.58l-.01-.112V22.5c0-.382.31-.692.693-.692z" transform="translate(0 1) rotate(45 5.7 31.545)"/>
        </g>
        <g>
            <path d="M.577-.115c.344 0 .63.25.683.58l.01.112v3.461c0 .383-.31.693-.693.693-.344 0-.63-.251-.683-.58l-.01-.113V.577c0-.382.31-.692.693-.692zM.577 21.808c.344 0 .63.25.683.58l.01.112v3.462c0 .382-.31.692-.693.692-.344 0-.63-.251-.683-.58l-.01-.112V22.5c0-.382.31-.692.693-.692z" transform="translate(0 1) rotate(90 6.923 21.346)"/>
        </g>
        <g>
            <path d="M.577-.115c.344 0 .63.25.683.58l.01.112v3.461c0 .383-.31.693-.693.693-.344 0-.63-.251-.683-.58l-.01-.113V.577c0-.382.31-.692.693-.692zM.577 21.808c.344 0 .63.25.683.58l.01.112v3.462c0 .382-.31.692-.693.692-.344 0-.63-.251-.683-.58l-.01-.112V22.5c0-.382.31-.692.693-.692z" transform="translate(0 1) rotate(135 7.43 17.122)"/>
        </g>
    </g>
</svg>
