<svg xmlns="http://www.w3.org/2000/svg" width="30" height="31" viewBox="0 0 30 31">
    <g fill="#1AA3B5" fill-rule="evenodd" transform="translate(0 1)">
        <path fill-rule="nonzero" d="M3.462 19.038c-.284 0-.52-.204-.568-.473l-.01-.103V4.615c0-.9.687-1.639 1.565-1.722l.166-.008h20.77c.9 0 1.639.686 1.722 1.564l.008.166v6.347c0 .318-.258.576-.577.576-.283 0-.518-.204-.567-.473l-.01-.103V4.615c0-.283-.204-.518-.473-.567l-.103-.01H4.615c-.283 0-.518.205-.567.474l-.01.103v13.847c0 .318-.258.576-.576.576z"/>
        <circle cx="15" cy="6.346" r="1"/>
        <path fill-rule="nonzero" d="M2.885 21.346c-.956 0-1.731-.775-1.731-1.73 0-.9.686-1.64 1.564-1.723l.167-.008h15v1.153h-15c-.319 0-.577.259-.577.577 0 .284.204.52.473.568l.104.01h15v1.153h-15z"/>
        <g fill-rule="nonzero">
            <path d="M10.846 0C11.483 0 12 .517 12 1.154v12.692c0 .637-.517 1.154-1.154 1.154H1.154C.517 15 0 14.483 0 13.846V1.154C0 .517.517 0 1.154 0h9.692zm0 1.154H1.154v12.692h9.692V1.154z" transform="translate(17.077 10.385)"/>
            <path d="M7.5 11.538c.319 0 .577.259.577.577 0 .284-.204.52-.473.568l-.104.01h-3c-.319 0-.577-.259-.577-.578 0-.283.204-.518.473-.567l.104-.01h3z" transform="translate(17.077 10.385)"/>
        </g>
    </g>
</svg>
