<svg xmlns="http://www.w3.org/2000/svg" width="35" height="35" viewBox="0 0 35 35">
    <path fill="#25204F" d="M23.882 11.324c.295 0 .545.207.605.498l.01.06.003.06v1.646h.98c.063-.001.124.007.185.025l.062.021.062.029.051.03 4.083 2.75c.132.09.224.225.26.387l.01.062.003.064v11.25c0 .295-.207.544-.498.605l-.06.01-.06.003-15.627-.001H5.765c-.295 0-.545-.207-.605-.498l-.01-.06-.003-.06v-11.25c0-.158.061-.31.176-.43l.046-.043.05-.038 4.084-2.75c.066-.045.139-.076.221-.093l.064-.01.06-.003h10.534v-1.647c0-.275.181-.51.442-.59l.057-.015.06-.01.059-.002h2.882zM9.848 14.95l-3.466 2.334v10.304h.824v-5.353c0-.294.207-.544.498-.605l.06-.01.06-.002h3.705c.295 0 .545.207.605.498l.01.06.003.06v5.352h1.167V17.285L9.848 14.95zm1.064 7.903h-2.47v4.735h2.47v-4.735zm18.049-5.28H14.549v10.015H28.96V17.573zm-5.696-5.014h-1.647v.823h1.647v-.823zm-2.677 7.412c.295 0 .545.207.605.498l.01.06.003.06v4.529c0 .294-.207.544-.499.605l-.059.01-.06.002h-3.706c-.294 0-.544-.207-.605-.498l-.01-.06-.002-.06v-4.529c0-.294.207-.544.498-.605l.06-.01.06-.002h3.705zm-.617 1.235H17.5V24.5h2.47v-3.294zm6.176-1.235c.295 0 .544.207.605.498l.01.06.003.06v4.529c0 .294-.208.544-.499.605l-.06.01-.059.002h-3.706c-.295 0-.544-.207-.605-.498l-.01-.06-.002-.06v-4.529c0-.294.207-.544.498-.605l.06-.01.06-.002h3.705zm-.618 1.235h-2.47V24.5h2.47v-3.294zm-.222-6.382H11.871l2.248 1.514h13.437l-2.249-1.514zM8.647 6.382c1.706 0 3.088 1.383 3.088 3.089 0 1.705-1.382 3.088-3.088 3.088-1.706 0-3.088-1.383-3.088-3.088 0-1.706 1.382-3.089 3.088-3.089zm0 1.236c-1.023 0-1.853.83-1.853 1.853 0 1.023.83 1.853 1.853 1.853 1.023 0 1.853-.83 1.853-1.853 0-1.024-.83-1.853-1.853-1.853z"/>
</svg>
