<svg xmlns="http://www.w3.org/2000/svg" width="35" height="35" viewBox="0 0 35 35">
    <path fill="#25204F" d="M21.949 7.618l.156.002c5.215.125 9.44 4.481 9.477 9.781 0 5.387-4.345 9.781-9.675 9.781-1.53 0-3.015-.356-4.379-1.045l-.175-.091-.197.1c-.728.361-1.504.636-2.318.822l-.245.053-.248.047c-.416.064-.864.102-1.318.112l-.228.002h-.294c-.174-.003-.353-.011-.558-.026l-.262-.022-.295-.03c-.211-.035-.432-.08-.678-.14l-.308-.077-.327-.088C5.939 25.587 3.088 21.77 3.088 17.4c0-5.388 4.346-9.782 9.675-9.782 1.53 0 3.016.356 4.38 1.045l.174.09.214-.104c.702-.336 1.434-.596 2.177-.773l.248-.056.414-.083c.388-.072.793-.11 1.259-.118l.204-.001h.116zM12.765 8.84c-4.68 0-8.464 3.825-8.464 8.558 0 3.217 1.767 6.154 4.566 7.647.151.077.291.143.454.215l.242.103.423.174c.12.04.241.077.376.114l.208.053.064.016.377.086c.427.108.847.171 1.246.185l.17.003h.335l.142-.002.163-.007c.084-.004.174-.011.277-.02l.107-.011.317-.035c.67-.101 1.308-.262 1.922-.485l.229-.087c.067-.023.123-.046.185-.078l.022-.012-.013-.009-.333-.256c-.16-.125-.277-.223-.38-.317l-.088-.081-.08-.08c-.193-.164-.377-.343-.537-.524l-.21-.245-.148-.18-.14-.18-.314-.418-.108-.154c-.063-.095-.125-.193-.196-.313l-.056-.095-.155-.273c-.213-.386-.391-.759-.521-1.09-.165-.336-.275-.643-.345-.964-.058-.216-.102-.412-.152-.683l-.022-.122-.093-.555-.058-.716c-.008-.132-.013-.254-.015-.373V17.307c.004-.291.026-.588.076-.995l.035-.275.04-.289c.434-2.455 1.752-4.636 3.701-6.144l.094-.072-.14-.058c-.962-.389-1.975-.603-2.986-.63l-.217-.003zm9.341.003h-.346l-.132.001c-.065.002-.13.004-.198.008l-.243.016-.506.05c-.763.115-1.436.294-1.997.524l-.15.064-.02.01-.043.042.224.17c.183.143.311.248.425.352l.091.084.08.08c.2.17.392.358.557.546l.143.168c.085.098.162.193.25.304l.139.18.259.347.068.095c.106.156.2.308.338.547l.112.198.335.67.084.18c.026.058.05.112.071.164l.03.076.036.076.049.112c.04.097.078.205.125.35l.133.423c.094.26.154.493.225.88l.022.12.058.343c.063.386.1.768.11 1.149l.003.228v.078l-.003.245c-.01.411-.047.826-.11 1.244-.4 2.504-1.723 4.724-3.705 6.23l-.092.068.139.058c.963.39 1.976.604 2.986.63l.216.004.14-.001.144-.004c4.543-.152 8.18-3.945 8.18-8.554 0-4.455-3.37-8.135-7.755-8.506l-.145-.01-.047-.01c-.027-.007-.067-.015-.114-.02l-.08-.007-.086-.002zm-1.56 11.93l-3.582 3.62.046.034.066.047c.04.028.079.052.116.075l.055.032.067.037.138-.09c1.297-.863 2.348-2.114 3.021-3.59l.072-.164zm.692-3.589l-5.782 5.845.582.59 5.154-5.211.042-.406.008-.094.01-.139c.009-.134.013-.255.013-.37 0-.023-.001-.045-.004-.072l-.023-.143zm-.406-2.481l-6.515 6.585.039.097c.083.199.186.39.317.588l.054.078 6.347-6.415-.032-.144-.045-.176-.116-.42-.037-.141-.012-.052zm-.96-1.96l-6.31 6.38.08.354.068.277.048.172.04.134 6.517-6.586-.187-.337c-.08-.141-.145-.244-.208-.331l-.048-.063zm-1.196-1.502l-.082-.097-5.114 5.17-.011.11c-.037.354-.054.59-.06.815l-.002.325 5.734-5.833-.272-.279-.087-.093-.106-.118zm-1.358-1.062l-.133.085c-1.276.837-2.32 2.06-2.989 3.493l-.067.148 3.497-3.534-.016-.009c-.042-.023-.08-.045-.124-.072l-.068-.043-.1-.068z"/>
</svg>
