<?xml version="1.0" encoding="UTF-8"?>
<svg width="85px" height="85px" viewBox="0 0 85 85" version="1.1" xmlns="http://www.w3.org/2000/svg" xmlns:xlink="http://www.w3.org/1999/xlink">
    <!-- Generator: Sketch 63.1 (92452) - https://sketch.com -->
    <title>icon/diversity/clementine@3x</title>
    <desc>Created with Sketch.</desc>
    <g id="icon/diversity/clementine" stroke="none" stroke-width="1" fill="none" fill-rule="evenodd">
        <path d="M53.2968458,19 L53.0219599,19 C51.7290807,19 50.6227423,19.0853992 49.5614626,19.2822434 L49.1653185,19.3613348 C46.779133,19.8082782 44.4357918,20.6133711 42.2367237,21.7288677 C42.1204385,21.7878544 41.9827009,21.7864605 41.8676333,21.7251325 C38.5265328,19.9444145 34.8376761,19 30.9963669,19 C18.3311851,19 8,29.4463469 8,42.2571521 C8,52.7029531 14.8301575,61.7367732 24.6126604,64.6046581 L25.3966428,64.8151726 C26.2737401,65.0432051 27.0277029,65.2110439 27.7455439,65.3322738 L28.4272044,65.3987285 C29.1776475,65.4672224 29.7835918,65.5043255 30.3752136,65.512531 L31.085193,65.5142857 C32.3489198,65.5142857 33.6095521,65.4210978 34.7623812,65.242698 C37.3088411,64.7830366 39.7328134,63.9588935 41.9579863,62.7881881 C42.0752438,62.7264967 42.2154411,62.726872 42.3323667,62.7891902 C45.6734318,64.5698893 49.3622898,65.5142857 53.2036331,65.5142857 C65.868822,65.5142857 76.2000103,55.0679686 76.2000103,42.2600402 C76.1095427,29.6501397 66.0541343,19.3013783 53.6727435,19.0058696 L53.2968458,19 Z M31.001064,20.9709004 C33.8966857,20.9709004 36.7859487,21.5927743 39.4774715,22.7580097 C39.7599195,22.8802894 39.8042214,23.262404 39.5572437,23.4460646 C34.7377559,27.0299922 31.4576368,32.3275283 30.3942939,38.3331995 L30.3006861,39.0142401 C30.1287131,40.3037601 30.0470715,41.1798451 30.0355288,42.0372799 L30.0340919,42.5294094 C30.0340919,42.9033629 30.0466475,43.2783692 30.0716379,43.691702 L30.2108571,45.4207295 L30.4320534,46.7254285 C30.5753945,47.5294958 30.6885048,48.0501261 30.845846,48.6340148 C31.013694,49.3994103 31.2680429,50.107288 31.6483187,50.8831369 C31.9788576,51.7219651 32.4076932,52.6124013 32.902569,53.5116181 L33.276836,54.1674151 C33.500275,54.5518886 33.6803358,54.8446426 33.8696154,55.1280552 L34.1252236,55.4939386 L34.8778319,56.4950572 C35.1296908,56.8230767 35.3381195,57.0835497 35.5592462,57.3461967 L35.7866844,57.6121508 C36.2215745,58.141207 36.7526183,58.677245 37.3149005,59.1550013 L37.5368947,59.3733491 C37.9474812,59.7656212 38.396507,60.1301121 39.191777,60.7373539 L39.4336954,60.9207113 C39.4433896,60.9270446 39.4596555,60.9375608 39.4875138,60.9555956 C39.6246416,61.0498787 39.715136,61.183651 39.715136,61.3745443 C39.715136,61.5198544 39.6363327,61.6537354 39.5092875,61.7242659 C39.2723274,61.8558167 39.074431,61.9463948 38.8216046,62.0327722 C37.1470043,62.6902376 35.3831898,63.1597159 33.5126383,63.4439036 L32.7210998,63.5301205 C32.1719288,63.5857458 31.7591283,63.615613 31.3516135,63.6261403 L31.0005523,63.6305772 L30.1795136,63.6305772 C29.0254131,63.6305772 27.8183891,63.4633 26.6186438,63.15887 L25.714726,62.9520752 C25.6015798,62.925033 25.496032,62.8990525 25.3813502,62.8701584 C24.9158065,62.7528647 24.5047783,62.6345616 24.0900168,62.4934783 L23.0356578,62.0621206 C22.3484206,61.774419 21.8568862,61.5501365 21.3096536,61.2733846 C14.3957641,57.5845314 9.94624474,50.3149362 9.94624474,42.2559139 C9.94624474,30.4855629 19.3560369,20.9709004 31.001064,20.9709004 Z M52.8400857,20.9780524 L53.7003447,20.9789121 L53.9063476,20.9844662 L53.9996388,20.9900874 C54.1988438,21.0041041 54.3843433,21.0331926 54.5126586,21.0728025 C65.5984686,21.8198764 74.1661537,31.0534899 74.1661537,42.2552671 C74.1661537,53.7426246 65.0928307,63.1513867 53.8173591,63.5286282 L53.4641448,63.537454 L53.1151543,63.540373 C50.400509,63.540373 47.6914523,62.9938041 45.1456779,61.9653586 L44.6387468,61.7532636 C44.3548759,61.6303679 44.3119595,61.2455574 44.5617803,61.0631412 C49.4567289,57.4889085 52.7459771,52.1050466 53.7225232,45.9854745 C53.8724458,44.9956498 53.9602451,44.0099484 53.9853471,43.030225 L53.9928799,42.4431232 L53.9928799,42.2590371 C53.9928799,41.1786357 53.9028399,40.0922868 53.7233041,38.9958859 L53.5828402,38.1658373 C53.3930938,37.0884939 53.249188,36.4948911 53.0064922,35.8226425 L52.7471493,35.0026376 C52.5654357,34.4209782 52.4376801,34.0604237 52.2775558,33.7129911 L52.193032,33.5334784 C52.0654654,33.2097449 51.9224335,32.8869069 51.7436032,32.5144561 L50.934,30.897 L50.8043613,30.6672979 C50.4170583,29.9851386 50.1668042,29.5711314 49.8760837,29.147251 L49.7161271,28.9226767 L49.0933273,28.0915196 C48.7361344,27.6215573 48.4727812,27.2923357 48.1702232,26.9385911 L48.0546663,26.8044646 C47.6197763,26.2754084 47.0887324,25.7393703 46.5264503,25.261614 L46.3045828,25.0433771 C45.8574307,24.6161091 45.3690954,24.2258942 44.4673388,23.5454552 C44.2982698,23.4178807 44.2614709,23.1855201 44.3689401,23.0141252 L44.4238661,22.9448861 L44.6059231,22.7608 L44.7262934,22.6772528 C46.3067673,21.9666148 48.1209823,21.4723984 50.1505233,21.164231 L51.4061598,21.0423683 L51.4842084,21.036148 C51.8497423,21.0072475 52.184727,20.989019 52.5130704,20.981711 L52.8400857,20.9780524 Z M50.5584895,50.1668135 C48.8609569,54.3591945 45.9526396,57.9137123 42.2696126,60.2410722 C42.1724927,60.3024437 42.0550159,60.3183973 41.9469845,60.2878146 L41.8681976,60.2561346 L41.6513974,60.1407952 C41.4951099,60.0533449 41.3469999,59.9608481 41.1863412,59.8503977 L41.0207319,59.7334847 L40.8105501,59.5764118 C40.640367,59.4492307 40.6028665,59.2161248 40.7105318,59.0441827 L40.7655982,58.974725 L49.903328,49.7354146 C50.2107271,49.4245982 50.7225567,49.7616184 50.5584895,50.1668135 Z M52.0489263,41.444173 L52.0613455,41.6001392 L52.0932551,41.7879478 C52.1283058,41.9847612 52.1440155,42.1113234 52.1440155,42.2566531 C52.1440155,42.5525231 52.1328218,42.8579794 52.110988,43.1894605 L52.0856278,43.5302253 C52.0620116,43.8171067 52.0384516,44.0566063 51.9912954,44.498831 L51.9596662,44.7935615 C51.9524065,44.8610902 51.9281224,44.9252725 51.88957,44.9803066 L51.8463636,45.0320764 L39.234331,57.7846678 C39.0777706,57.9429731 38.8220801,57.9429731 38.6655196,57.7846678 L37.112707,56.2145494 C36.9778471,56.0781865 36.9609896,55.8690801 37.0621345,55.7145312 L37.112707,55.6520074 L51.370582,41.235231 C51.6050258,40.9981744 51.995715,41.1373294 52.0489263,41.444173 Z M51.0389198,35.4251378 L51.1083094,35.7223625 C51.1336752,35.8247328 51.1616866,35.9321859 51.1935723,36.0500847 L51.4751344,37.0640801 C51.5612506,37.385812 51.6221078,37.6412753 51.6792736,37.9258364 C51.7002419,38.0302132 51.6785844,38.1374646 51.621171,38.2246356 L51.5715142,38.28589 L36.0360598,53.9944658 C35.8610826,54.1713928 35.5687493,54.1473213 35.4250701,53.9441552 C34.9230369,53.2342676 34.5556816,52.5603978 34.2807969,51.820336 C34.2356475,51.6987818 34.2526552,51.5646011 34.322898,51.4592256 L34.3713605,51.3997884 L50.3637213,35.2291956 C50.5868404,35.0035899 50.9712324,35.1151402 51.0389198,35.4251378 Z M48.5784628,30.5454927 C48.8257512,30.8443757 49.0394884,31.1728696 49.3161932,31.6595214 L49.8066635,32.5409995 C49.8805561,32.6708556 49.874921,32.8284669 49.7980314,32.9511683 L49.7434133,33.0200987 L33.7514363,49.1902294 C33.541414,49.4025914 33.1811801,49.3182206 33.0873032,49.034682 C32.9894671,48.7391854 32.8997477,48.4338375 32.8125434,48.1034349 L32.6439984,47.4236659 C32.5899046,47.1925633 32.5316178,46.9304068 32.437335,46.5004915 C32.4141007,46.3945467 32.4350642,46.2849558 32.4931908,46.1960015 L32.5436439,46.1335345 L47.9858674,30.5192102 C48.1522802,30.3509428 48.4276,30.3631537 48.5784628,30.5454927 Z M45.4032331,26.6017417 L45.4654295,26.6606374 L45.7364154,26.9781262 L45.9844297,27.2533257 C46.0706582,27.3468298 46.1617145,27.4435036 46.2614109,27.5475435 L46.9088639,28.2091931 C47.0430407,28.3453084 47.0599614,28.5535853 46.959528,28.7079005 L46.9092998,28.7703641 L32.7456348,43.1833789 C32.5139804,43.4191115 32.1260716,43.285837 32.067764,42.9823245 L32.060335,42.9030148 L32.060335,42.2569118 C32.060335,41.4608235 32.1155757,40.7368711 32.2446837,39.535936 C32.2519434,39.4684073 32.2762276,39.4042249 32.3147799,39.3491908 L32.3579863,39.2974211 L44.8768063,26.6390811 C45.0209045,26.4933769 45.2470727,26.4827869 45.4032331,26.6017417 Z M42.1956392,24.2308244 L42.2778143,24.272938 L42.5766737,24.4703016 C42.7943189,24.610901 42.9485939,24.7006825 43.1530554,24.8060762 C43.3664061,24.916052 43.4304018,25.181984 43.3086281,25.3745647 L43.2541839,25.4428962 L34.2977308,34.4988347 C33.9890955,34.8108982 33.475841,34.4700354 33.6437633,34.0645216 C35.3303483,29.9916065 38.2298719,26.5181235 41.8444228,24.2662542 C41.9512362,24.1997093 42.0813188,24.1881921 42.1956392,24.2308244 Z" id="Shape" fill="#4fc5d5" fill-rule="nonzero"></path>
    </g>
</svg>