<svg xmlns="http://www.w3.org/2000/svg" width="35" height="35" viewBox="0 0 35 35">
    <g fill="#25204F">
        <path d="M22.202.206c1.408 0 2.569 1.09 2.67 2.484l.004.096.002.096v1.63h.457c.712 0 1.307.517 1.422 1.206l.01.077.007.079.002.078v5.97c0 .738-.556 1.351-1.284 1.432l-.078.007-.079.002h-.457v2.827h-1.235V2.882c0-.742-.563-1.358-1.286-1.433l-.078-.006-.077-.002H4.68c-.743 0-1.358.563-1.433 1.286l-.006.078-.002.077v13.383H2.004V2.882c0-1.408 1.09-2.569 2.485-2.67l.096-.004.096-.002H22.2zm3.129 5.54h-.453v6.382h.457c.092 0 .17-.06.196-.136l.008-.034.002-.036v-5.97c0-.091-.06-.17-.136-.195l-.034-.008-.04-.002z" transform="translate(4.118 1.647)"/>
        <path d="M24.466 4.895L2.416 4.895 2.416 6.13 24.466 6.13z" transform="translate(4.118 1.647)"/>
        <path d="M4.904 5.181H3.669V12.8l.002.078c.044.766.674 1.363 1.439 1.363h16.295l.078-.002c.766-.044 1.363-.675 1.363-1.439V5.181H21.61V12.8l-.003.036c-.01.091-.099.17-.203.17H5.11l-.036-.003c-.091-.01-.17-.098-.17-.203V5.181zM23.62 15.03H3.43l-.094.001c-1.213.052-2.171 1.049-2.171 2.263v6.342H2.4v-6.342l.002-.067c.031-.536.482-.962 1.028-.962h20.19l.067.002c.537.03.963.481.963 1.027v6.382h1.235v-6.382l-.002-.094c-.051-1.213-1.048-2.17-2.262-2.17z" transform="translate(4.118 1.647)"/>
        <path d="M25.53 22.853c.545 0 .992.425 1.027.962l.002.067v2.06c0 .545-.425.992-.962 1.026l-.068.003H1.235c-.545 0-.992-.425-1.027-.962l-.002-.068v-2.059c0-.545.425-.992.962-1.027l.067-.002H25.53zm-.206 1.235H1.44v1.647h23.883v-1.647zM4.941 18.324c1.137 0 2.059.921 2.059 2.058 0 1.137-.922 2.06-2.059 2.06s-2.059-.923-2.059-2.06.922-2.058 2.06-2.058zm0 1.235c-.455 0-.823.369-.823.823 0 .455.368.824.823.824.455 0 .824-.369.824-.824 0-.454-.369-.823-.824-.823zM22.03 18.324c1.136 0 2.058.921 2.058 2.058 0 1.137-.922 2.06-2.059 2.06s-2.058-.923-2.058-2.06.921-2.058 2.058-2.058zm0 1.235c-.455 0-.824.369-.824.823 0 .455.369.824.823.824.455 0 .824-.369.824-.824 0-.454-.369-.823-.824-.823z" transform="translate(4.118 1.647)"/>
        <path d="M3.5 26.559H2.265v2.676l.002.088c.048.989.862 1.765 1.85 1.765h2.609l.087-.002c.989-.048 1.765-.862 1.765-1.85v-2.677H7.343v2.676l-.002.054c-.023.314-.292.564-.615.564H4.118l-.054-.002c-.314-.023-.564-.292-.564-.616V26.56zM19.559 26.559h-1.235v2.676l.002.088c.048.989.862 1.765 1.85 1.765h2.608l.088-.002c.989-.048 1.765-.862 1.765-1.85v-2.677h-1.235v2.676l-.002.054c-.023.314-.292.564-.616.564h-2.608l-.053-.002c-.314-.023-.564-.292-.564-.616V26.56zM2.482 4.511h-.835l-.078.002c-.766.045-1.363.675-1.363 1.44v5.969L.208 12c.044.766.675 1.363 1.44 1.363h.834v-1.235h-.835l-.036-.003c-.091-.01-.17-.098-.17-.203v-5.97l.003-.036c.01-.09.098-.17.203-.17h.835V4.512z" transform="translate(4.118 1.647)"/>
    </g>
</svg>
