<svg xmlns="http://www.w3.org/2000/svg" width="35" height="35" viewBox="0 0 35 35">
    <g fill="#25204F">
        <path d="M22.647.206c.546 0 .992.425 1.027.962l.002.067v21.412c0 .546-.424.992-.961 1.027l-.068.002H1.235c-.545 0-.992-.424-1.027-.961l-.002-.068V1.235C.206.69.63.243 1.168.208l.067-.002h21.412zm-.206 1.235h-21v21h21v-21z" transform="translate(5.765 5.765)"/>
        <g>
            <path d="M3.683 5.869l2.305-2.305.043-.048c.199-.255.178-.605-.043-.825L3.683.386 3.635.343C3.381.144 3.031.165 2.81.386l-.043.048-.037.052c-.158.248-.126.567.08.773L4.062 2.51H.825l-.06.003c-.322.037-.558.3-.558.614l.003.06c.03.313.294.558.615.558H4.06L2.81 4.995l-.043.049c-.198.254-.178.604.043.825.241.241.632.241.873 0zM12.162.387L9.857 2.692l-.043.048c-.198.254-.177.604.043.825l2.305 2.305.048.043c.255.199.605.178.826-.043l.043-.048.037-.052c.158-.248.126-.567-.08-.773l-1.252-1.252 3.237.001.06-.003c.322-.037.558-.3.558-.614l-.003-.06c-.03-.313-.294-.558-.615-.558h-3.236l1.25-1.25.044-.049c.198-.254.178-.604-.043-.825-.241-.241-.632-.241-.874 0z" transform="translate(5.765 5.765) translate(4.118 8.647)"/>
        </g>
    </g>
</svg>
