<svg xmlns="http://www.w3.org/2000/svg" width="35" height="35" viewBox="0 0 35 35">
    <g fill="#25204F">
        <path d="M15.235.206c8.3 0 15.03 6.729 15.03 15.03 0 8.3-6.73 15.029-15.03 15.029-8.3 0-15.03-6.73-15.03-15.03 0-8.3 6.73-15.03 15.03-15.03zm0 1.235c-7.618 0-13.794 6.176-13.794 13.794 0 7.619 6.176 13.794 13.794 13.794 7.619 0 13.794-6.175 13.794-13.794 0-7.618-6.175-13.794-13.794-13.794z" transform="translate(2.47 2.47)"/>
        <path d="M14.655 8.023c.191-.521.908-.54 1.137-.056l.023.056 1.563 4.262 4.538.17c.507.019.759.595.474.983l-.034.042-.038.04-.044.038-3.571 2.804 1.24 4.368c.14.49-.335.91-.792.753l-.05-.02-.048-.023-.047-.029-3.77-2.53-3.771 2.53c-.423.284-.969-.038-.961-.522l.003-.052.007-.054.013-.053 1.24-4.368-3.57-2.804c-.4-.313-.265-.928.193-1.074l.053-.014.054-.01.058-.005 4.537-.17 1.563-4.262zm.58 2.006l-1.126 3.07c-.08.218-.273.371-.5.4l-.057.005-3.269.122 2.573 2.02c.159.125.245.317.234.525l-.006.063-.015.067-.894 3.146 2.716-1.822c.166-.111.373-.135.565-.063l.064.028.06.035 2.715 1.822-.894-3.146c-.055-.194-.011-.4.12-.562l.042-.047.051-.046 2.572-2.02-3.268-.122c-.204-.007-.389-.115-.5-.292l-.032-.055-.025-.057-1.126-3.071z" transform="translate(2.47 2.47)"/>
    </g>
</svg>
